ISO-10303-21;
HEADER;
FILE_DESCRIPTION((''),'1');
FILE_NAME('CN40-40B','2009-03-25T',('Administrator'),(''),
'PRO/ENGINEER BY PARAMETRIC TECHNOLOGY CORPORATION, 9808',
'PRO/ENGINEER BY PARAMETRIC TECHNOLOGY CORPORATION, 9808','');
FILE_SCHEMA(('CONFIG_CONTROL_DESIGN'));
ENDSEC;
DATA;
#1=CARTESIAN_POINT('',(0.E0,0.E0,0.E0));
#2=DIRECTION('',(0.E0,1.E0,0.E0));
#3=DIRECTION('',(1.E0,0.E0,0.E0));
#4=AXIS2_PLACEMENT_3D('',#1,#2,#3);
#6=CARTESIAN_POINT('',(0.E0,0.E0,0.E0));
#7=DIRECTION('',(0.E0,1.E0,0.E0));
#8=DIRECTION('',(-1.E0,0.E0,0.E0));
#9=AXIS2_PLACEMENT_3D('',#6,#7,#8);
#11=DIRECTION('',(0.E0,1.E0,0.E0));
#12=VECTOR('',#11,2.E0);
#13=CARTESIAN_POINT('',(2.E1,0.E0,0.E0));
#14=LINE('',#13,#12);
#15=DIRECTION('',(0.E0,1.E0,0.E0));
#16=VECTOR('',#15,2.E0);
#17=CARTESIAN_POINT('',(-2.E1,0.E0,0.E0));
#18=LINE('',#17,#16);
#19=CARTESIAN_POINT('',(0.E0,3.E0,0.E0));
#20=DIRECTION('',(0.E0,1.E0,0.E0));
#21=DIRECTION('',(-1.E0,0.E0,0.E0));
#22=AXIS2_PLACEMENT_3D('',#19,#20,#21);
#24=DIRECTION('',(5.E-1,-8.660254037844E-1,-1.285301868053E-14));
#25=VECTOR('',#24,1.154700538379E0);
#26=CARTESIAN_POINT('',(1.942264973081E1,3.E0,2.617238449486E-14));
#27=LINE('',#26,#25);
#28=CARTESIAN_POINT('',(0.E0,2.E0,0.E0));
#29=DIRECTION('',(0.E0,1.E0,0.E0));
#30=DIRECTION('',(-1.E0,0.E0,0.E0));
#31=AXIS2_PLACEMENT_3D('',#28,#29,#30);
#33=DIRECTION('',(-5.E-1,-8.660254037844E-1,0.E0));
#34=VECTOR('',#33,1.154700538379E0);
#35=CARTESIAN_POINT('',(-1.942264973081E1,3.E0,0.E0));
#36=LINE('',#35,#34);
#37=CARTESIAN_POINT('',(1.035E1,3.E0,-1.035E1));
#38=DIRECTION('',(0.E0,1.E0,0.E0));
#39=DIRECTION('',(1.E0,0.E0,0.E0));
#40=AXIS2_PLACEMENT_3D('',#37,#38,#39);
#42=CARTESIAN_POINT('',(1.035E1,3.E0,-1.035E1));
#43=DIRECTION('',(0.E0,1.E0,0.E0));
#44=DIRECTION('',(-1.E0,0.E0,0.E0));
#45=AXIS2_PLACEMENT_3D('',#42,#43,#44);
#47=CARTESIAN_POINT('',(3.45E0,3.E0,-1.035E1));
#48=DIRECTION('',(0.E0,1.E0,0.E0));
#49=DIRECTION('',(1.E0,0.E0,0.E0));
#50=AXIS2_PLACEMENT_3D('',#47,#48,#49);
#52=CARTESIAN_POINT('',(3.45E0,3.E0,-1.035E1));
#53=DIRECTION('',(0.E0,1.E0,0.E0));
#54=DIRECTION('',(-1.E0,0.E0,0.E0));
#55=AXIS2_PLACEMENT_3D('',#52,#53,#54);
#57=CARTESIAN_POINT('',(-3.45E0,3.E0,-1.035E1));
#58=DIRECTION('',(0.E0,1.E0,0.E0));
#59=DIRECTION('',(1.E0,0.E0,0.E0));
#60=AXIS2_PLACEMENT_3D('',#57,#58,#59);
#62=CARTESIAN_POINT('',(-3.45E0,3.E0,-1.035E1));
#63=DIRECTION('',(0.E0,1.E0,0.E0));
#64=DIRECTION('',(-1.E0,0.E0,0.E0));
#65=AXIS2_PLACEMENT_3D('',#62,#63,#64);
#67=CARTESIAN_POINT('',(-1.035E1,3.E0,-1.035E1));
#68=DIRECTION('',(0.E0,1.E0,0.E0));
#69=DIRECTION('',(1.E0,0.E0,0.E0));
#70=AXIS2_PLACEMENT_3D('',#67,#68,#69);
#72=CARTESIAN_POINT('',(-1.035E1,3.E0,-1.035E1));
#73=DIRECTION('',(0.E0,1.E0,0.E0));
#74=DIRECTION('',(-1.E0,0.E0,0.E0));
#75=AXIS2_PLACEMENT_3D('',#72,#73,#74);
#77=CARTESIAN_POINT('',(1.035E1,3.E0,-3.45E0));
#78=DIRECTION('',(0.E0,1.E0,0.E0));
#79=DIRECTION('',(1.E0,0.E0,0.E0));
#80=AXIS2_PLACEMENT_3D('',#77,#78,#79);
#82=CARTESIAN_POINT('',(1.035E1,3.E0,-3.45E0));
#83=DIRECTION('',(0.E0,1.E0,0.E0));
#84=DIRECTION('',(-1.E0,0.E0,0.E0));
#85=AXIS2_PLACEMENT_3D('',#82,#83,#84);
#87=CARTESIAN_POINT('',(3.45E0,3.E0,-3.45E0));
#88=DIRECTION('',(0.E0,1.E0,0.E0));
#89=DIRECTION('',(1.E0,0.E0,0.E0));
#90=AXIS2_PLACEMENT_3D('',#87,#88,#89);
#92=CARTESIAN_POINT('',(3.45E0,3.E0,-3.45E0));
#93=DIRECTION('',(0.E0,1.E0,0.E0));
#94=DIRECTION('',(-1.E0,0.E0,0.E0));
#95=AXIS2_PLACEMENT_3D('',#92,#93,#94);
#97=CARTESIAN_POINT('',(-3.45E0,3.E0,-3.45E0));
#98=DIRECTION('',(0.E0,1.E0,0.E0));
#99=DIRECTION('',(1.E0,0.E0,0.E0));
#100=AXIS2_PLACEMENT_3D('',#97,#98,#99);
#102=CARTESIAN_POINT('',(-3.45E0,3.E0,-3.45E0));
#103=DIRECTION('',(0.E0,1.E0,0.E0));
#104=DIRECTION('',(-1.E0,0.E0,0.E0));
#105=AXIS2_PLACEMENT_3D('',#102,#103,#104);
#107=CARTESIAN_POINT('',(-1.035E1,3.E0,-3.45E0));
#108=DIRECTION('',(0.E0,1.E0,0.E0));
#109=DIRECTION('',(1.E0,0.E0,0.E0));
#110=AXIS2_PLACEMENT_3D('',#107,#108,#109);
#112=CARTESIAN_POINT('',(-1.035E1,3.E0,-3.45E0));
#113=DIRECTION('',(0.E0,1.E0,0.E0));
#114=DIRECTION('',(-1.E0,0.E0,0.E0));
#115=AXIS2_PLACEMENT_3D('',#112,#113,#114);
#117=CARTESIAN_POINT('',(1.035E1,3.E0,3.45E0));
#118=DIRECTION('',(0.E0,1.E0,0.E0));
#119=DIRECTION('',(1.E0,0.E0,0.E0));
#120=AXIS2_PLACEMENT_3D('',#117,#118,#119);
#122=CARTESIAN_POINT('',(1.035E1,3.E0,3.45E0));
#123=DIRECTION('',(0.E0,1.E0,0.E0));
#124=DIRECTION('',(-1.E0,0.E0,0.E0));
#125=AXIS2_PLACEMENT_3D('',#122,#123,#124);
#127=CARTESIAN_POINT('',(3.45E0,3.E0,3.45E0));
#128=DIRECTION('',(0.E0,1.E0,0.E0));
#129=DIRECTION('',(1.E0,0.E0,0.E0));
#130=AXIS2_PLACEMENT_3D('',#127,#128,#129);
#132=CARTESIAN_POINT('',(3.45E0,3.E0,3.45E0));
#133=DIRECTION('',(0.E0,1.E0,0.E0));
#134=DIRECTION('',(-1.E0,0.E0,0.E0));
#135=AXIS2_PLACEMENT_3D('',#132,#133,#134);
#137=CARTESIAN_POINT('',(-3.45E0,3.E0,3.45E0));
#138=DIRECTION('',(0.E0,1.E0,0.E0));
#139=DIRECTION('',(1.E0,0.E0,0.E0));
#140=AXIS2_PLACEMENT_3D('',#137,#138,#139);
#142=CARTESIAN_POINT('',(-3.45E0,3.E0,3.45E0));
#143=DIRECTION('',(0.E0,1.E0,0.E0));
#144=DIRECTION('',(-1.E0,0.E0,0.E0));
#145=AXIS2_PLACEMENT_3D('',#142,#143,#144);
#147=CARTESIAN_POINT('',(-1.035E1,3.E0,3.45E0));
#148=DIRECTION('',(0.E0,1.E0,0.E0));
#149=DIRECTION('',(1.E0,0.E0,0.E0));
#150=AXIS2_PLACEMENT_3D('',#147,#148,#149);
#152=CARTESIAN_POINT('',(-1.035E1,3.E0,3.45E0));
#153=DIRECTION('',(0.E0,1.E0,0.E0));
#154=DIRECTION('',(-1.E0,0.E0,0.E0));
#155=AXIS2_PLACEMENT_3D('',#152,#153,#154);
#157=CARTESIAN_POINT('',(1.035E1,3.E0,1.035E1));
#158=DIRECTION('',(0.E0,1.E0,0.E0));
#159=DIRECTION('',(1.E0,0.E0,0.E0));
#160=AXIS2_PLACEMENT_3D('',#157,#158,#159);
#162=CARTESIAN_POINT('',(1.035E1,3.E0,1.035E1));
#163=DIRECTION('',(0.E0,1.E0,0.E0));
#164=DIRECTION('',(-1.E0,0.E0,0.E0));
#165=AXIS2_PLACEMENT_3D('',#162,#163,#164);
#167=CARTESIAN_POINT('',(3.45E0,3.E0,1.035E1));
#168=DIRECTION('',(0.E0,1.E0,0.E0));
#169=DIRECTION('',(1.E0,0.E0,0.E0));
#170=AXIS2_PLACEMENT_3D('',#167,#168,#169);
#172=CARTESIAN_POINT('',(3.45E0,3.E0,1.035E1));
#173=DIRECTION('',(0.E0,1.E0,0.E0));
#174=DIRECTION('',(-1.E0,0.E0,0.E0));
#175=AXIS2_PLACEMENT_3D('',#172,#173,#174);
#177=CARTESIAN_POINT('',(-3.45E0,3.E0,1.035E1));
#178=DIRECTION('',(0.E0,1.E0,0.E0));
#179=DIRECTION('',(1.E0,0.E0,0.E0));
#180=AXIS2_PLACEMENT_3D('',#177,#178,#179);
#182=CARTESIAN_POINT('',(-3.45E0,3.E0,1.035E1));
#183=DIRECTION('',(0.E0,1.E0,0.E0));
#184=DIRECTION('',(-1.E0,0.E0,0.E0));
#185=AXIS2_PLACEMENT_3D('',#182,#183,#184);
#187=CARTESIAN_POINT('',(-1.035E1,3.E0,1.035E1));
#188=DIRECTION('',(0.E0,1.E0,0.E0));
#189=DIRECTION('',(1.E0,0.E0,0.E0));
#190=AXIS2_PLACEMENT_3D('',#187,#188,#189);
#192=CARTESIAN_POINT('',(-1.035E1,3.E0,1.035E1));
#193=DIRECTION('',(0.E0,1.E0,0.E0));
#194=DIRECTION('',(-1.E0,0.E0,0.E0));
#195=AXIS2_PLACEMENT_3D('',#192,#193,#194);
#197=CARTESIAN_POINT('',(-3.45E0,3.E0,1.725E1));
#198=DIRECTION('',(0.E0,1.E0,0.E0));
#199=DIRECTION('',(1.E0,0.E0,0.E0));
#200=AXIS2_PLACEMENT_3D('',#197,#198,#199);
#202=CARTESIAN_POINT('',(-3.45E0,3.E0,1.725E1));
#203=DIRECTION('',(0.E0,1.E0,0.E0));
#204=DIRECTION('',(-1.E0,0.E0,0.E0));
#205=AXIS2_PLACEMENT_3D('',#202,#203,#204);
#207=CARTESIAN_POINT('',(-1.725E1,3.E0,3.45E0));
#208=DIRECTION('',(0.E0,1.E0,0.E0));
#209=DIRECTION('',(1.E0,0.E0,0.E0));
#210=AXIS2_PLACEMENT_3D('',#207,#208,#209);
#212=CARTESIAN_POINT('',(-1.725E1,3.E0,3.45E0));
#213=DIRECTION('',(0.E0,1.E0,0.E0));
#214=DIRECTION('',(-1.E0,0.E0,0.E0));
#215=AXIS2_PLACEMENT_3D('',#212,#213,#214);
#217=CARTESIAN_POINT('',(3.45E0,3.E0,1.725E1));
#218=DIRECTION('',(0.E0,-1.E0,0.E0));
#219=DIRECTION('',(-1.E0,0.E0,0.E0));
#220=AXIS2_PLACEMENT_3D('',#217,#218,#219);
#222=CARTESIAN_POINT('',(3.45E0,3.E0,1.725E1));
#223=DIRECTION('',(0.E0,-1.E0,0.E0));
#224=DIRECTION('',(1.E0,0.E0,0.E0));
#225=AXIS2_PLACEMENT_3D('',#222,#223,#224);
#227=CARTESIAN_POINT('',(1.725E1,3.E0,3.45E0));
#228=DIRECTION('',(0.E0,-1.E0,0.E0));
#229=DIRECTION('',(-1.E0,0.E0,0.E0));
#230=AXIS2_PLACEMENT_3D('',#227,#228,#229);
#232=CARTESIAN_POINT('',(1.725E1,3.E0,3.45E0));
#233=DIRECTION('',(0.E0,-1.E0,0.E0));
#234=DIRECTION('',(1.E0,0.E0,0.E0));
#235=AXIS2_PLACEMENT_3D('',#232,#233,#234);
#237=CARTESIAN_POINT('',(-3.45E0,3.E0,-1.725E1));
#238=DIRECTION('',(0.E0,-1.E0,0.E0));
#239=DIRECTION('',(1.E0,0.E0,0.E0));
#240=AXIS2_PLACEMENT_3D('',#237,#238,#239);
#242=CARTESIAN_POINT('',(-3.45E0,3.E0,-1.725E1));
#243=DIRECTION('',(0.E0,-1.E0,0.E0));
#244=DIRECTION('',(-1.E0,0.E0,0.E0));
#245=AXIS2_PLACEMENT_3D('',#242,#243,#244);
#247=CARTESIAN_POINT('',(-1.725E1,3.E0,-3.45E0));
#248=DIRECTION('',(0.E0,-1.E0,0.E0));
#249=DIRECTION('',(1.E0,0.E0,0.E0));
#250=AXIS2_PLACEMENT_3D('',#247,#248,#249);
#252=CARTESIAN_POINT('',(-1.725E1,3.E0,-3.45E0));
#253=DIRECTION('',(0.E0,-1.E0,0.E0));
#254=DIRECTION('',(-1.E0,0.E0,0.E0));
#255=AXIS2_PLACEMENT_3D('',#252,#253,#254);
#257=CARTESIAN_POINT('',(3.45E0,3.E0,-1.725E1));
#258=DIRECTION('',(0.E0,1.E0,0.E0));
#259=DIRECTION('',(-1.E0,0.E0,0.E0));
#260=AXIS2_PLACEMENT_3D('',#257,#258,#259);
#262=CARTESIAN_POINT('',(3.45E0,3.E0,-1.725E1));
#263=DIRECTION('',(0.E0,1.E0,0.E0));
#264=DIRECTION('',(1.E0,0.E0,0.E0));
#265=AXIS2_PLACEMENT_3D('',#262,#263,#264);
#267=CARTESIAN_POINT('',(1.725E1,3.E0,-3.45E0));
#268=DIRECTION('',(0.E0,1.E0,0.E0));
#269=DIRECTION('',(-1.E0,0.E0,0.E0));
#270=AXIS2_PLACEMENT_3D('',#267,#268,#269);
#272=CARTESIAN_POINT('',(1.725E1,3.E0,-3.45E0));
#273=DIRECTION('',(0.E0,1.E0,0.E0));
#274=DIRECTION('',(1.E0,0.E0,0.E0));
#275=AXIS2_PLACEMENT_3D('',#272,#273,#274);
#277=DIRECTION('',(0.E0,1.E0,0.E0));
#278=VECTOR('',#277,3.7E1);
#279=CARTESIAN_POINT('',(1.175E1,3.E0,-1.035E1));
#280=LINE('',#279,#278);
#281=DIRECTION('',(0.E0,1.E0,0.E0));
#282=VECTOR('',#281,3.7E1);
#283=CARTESIAN_POINT('',(8.95E0,3.E0,-1.035E1));
#284=LINE('',#283,#282);
#285=CARTESIAN_POINT('',(1.035E1,4.E1,-1.035E1));
#286=DIRECTION('',(0.E0,1.E0,0.E0));
#287=DIRECTION('',(1.E0,0.E0,0.E0));
#288=AXIS2_PLACEMENT_3D('',#285,#286,#287);
#290=CARTESIAN_POINT('',(1.035E1,4.E1,-1.035E1));
#291=DIRECTION('',(0.E0,1.E0,0.E0));
#292=DIRECTION('',(-1.E0,0.E0,0.E0));
#293=AXIS2_PLACEMENT_3D('',#290,#291,#292);
#295=DIRECTION('',(0.E0,1.E0,0.E0));
#296=VECTOR('',#295,3.7E1);
#297=CARTESIAN_POINT('',(4.85E0,3.E0,-1.035E1));
#298=LINE('',#297,#296);
#299=DIRECTION('',(0.E0,1.E0,0.E0));
#300=VECTOR('',#299,3.7E1);
#301=CARTESIAN_POINT('',(2.05E0,3.E0,-1.035E1));
#302=LINE('',#301,#300);
#303=CARTESIAN_POINT('',(3.45E0,4.E1,-1.035E1));
#304=DIRECTION('',(0.E0,1.E0,0.E0));
#305=DIRECTION('',(1.E0,0.E0,0.E0));
#306=AXIS2_PLACEMENT_3D('',#303,#304,#305);
#308=CARTESIAN_POINT('',(3.45E0,4.E1,-1.035E1));
#309=DIRECTION('',(0.E0,1.E0,0.E0));
#310=DIRECTION('',(-1.E0,0.E0,0.E0));
#311=AXIS2_PLACEMENT_3D('',#308,#309,#310);
#313=DIRECTION('',(0.E0,1.E0,0.E0));
#314=VECTOR('',#313,3.7E1);
#315=CARTESIAN_POINT('',(-2.05E0,3.E0,-1.035E1));
#316=LINE('',#315,#314);
#317=DIRECTION('',(0.E0,1.E0,0.E0));
#318=VECTOR('',#317,3.7E1);
#319=CARTESIAN_POINT('',(-4.85E0,3.E0,-1.035E1));
#320=LINE('',#319,#318);
#321=CARTESIAN_POINT('',(-3.45E0,4.E1,-1.035E1));
#322=DIRECTION('',(0.E0,1.E0,0.E0));
#323=DIRECTION('',(1.E0,0.E0,0.E0));
#324=AXIS2_PLACEMENT_3D('',#321,#322,#323);
#326=CARTESIAN_POINT('',(-3.45E0,4.E1,-1.035E1));
#327=DIRECTION('',(0.E0,1.E0,0.E0));
#328=DIRECTION('',(-1.E0,0.E0,0.E0));
#329=AXIS2_PLACEMENT_3D('',#326,#327,#328);
#331=DIRECTION('',(0.E0,1.E0,0.E0));
#332=VECTOR('',#331,3.7E1);
#333=CARTESIAN_POINT('',(-8.95E0,3.E0,-1.035E1));
#334=LINE('',#333,#332);
#335=DIRECTION('',(0.E0,1.E0,0.E0));
#336=VECTOR('',#335,3.7E1);
#337=CARTESIAN_POINT('',(-1.175E1,3.E0,-1.035E1));
#338=LINE('',#337,#336);
#339=CARTESIAN_POINT('',(-1.035E1,4.E1,-1.035E1));
#340=DIRECTION('',(0.E0,1.E0,0.E0));
#341=DIRECTION('',(1.E0,0.E0,0.E0));
#342=AXIS2_PLACEMENT_3D('',#339,#340,#341);
#344=CARTESIAN_POINT('',(-1.035E1,4.E1,-1.035E1));
#345=DIRECTION('',(0.E0,1.E0,0.E0));
#346=DIRECTION('',(-1.E0,0.E0,0.E0));
#347=AXIS2_PLACEMENT_3D('',#344,#345,#346);
#349=DIRECTION('',(0.E0,1.E0,0.E0));
#350=VECTOR('',#349,3.7E1);
#351=CARTESIAN_POINT('',(1.175E1,3.E0,-3.45E0));
#352=LINE('',#351,#350);
#353=DIRECTION('',(0.E0,1.E0,0.E0));
#354=VECTOR('',#353,3.7E1);
#355=CARTESIAN_POINT('',(8.95E0,3.E0,-3.45E0));
#356=LINE('',#355,#354);
#357=CARTESIAN_POINT('',(1.035E1,4.E1,-3.45E0));
#358=DIRECTION('',(0.E0,1.E0,0.E0));
#359=DIRECTION('',(1.E0,0.E0,0.E0));
#360=AXIS2_PLACEMENT_3D('',#357,#358,#359);
#362=CARTESIAN_POINT('',(1.035E1,4.E1,-3.45E0));
#363=DIRECTION('',(0.E0,1.E0,0.E0));
#364=DIRECTION('',(-1.E0,0.E0,0.E0));
#365=AXIS2_PLACEMENT_3D('',#362,#363,#364);
#367=DIRECTION('',(0.E0,1.E0,0.E0));
#368=VECTOR('',#367,3.7E1);
#369=CARTESIAN_POINT('',(4.85E0,3.E0,-3.45E0));
#370=LINE('',#369,#368);
#371=DIRECTION('',(0.E0,1.E0,0.E0));
#372=VECTOR('',#371,3.7E1);
#373=CARTESIAN_POINT('',(2.05E0,3.E0,-3.45E0));
#374=LINE('',#373,#372);
#375=CARTESIAN_POINT('',(3.45E0,4.E1,-3.45E0));
#376=DIRECTION('',(0.E0,1.E0,0.E0));
#377=DIRECTION('',(1.E0,0.E0,0.E0));
#378=AXIS2_PLACEMENT_3D('',#375,#376,#377);
#380=CARTESIAN_POINT('',(3.45E0,4.E1,-3.45E0));
#381=DIRECTION('',(0.E0,1.E0,0.E0));
#382=DIRECTION('',(-1.E0,0.E0,0.E0));
#383=AXIS2_PLACEMENT_3D('',#380,#381,#382);
#385=DIRECTION('',(0.E0,1.E0,0.E0));
#386=VECTOR('',#385,3.7E1);
#387=CARTESIAN_POINT('',(-2.05E0,3.E0,-3.45E0));
#388=LINE('',#387,#386);
#389=DIRECTION('',(0.E0,1.E0,0.E0));
#390=VECTOR('',#389,3.7E1);
#391=CARTESIAN_POINT('',(-4.85E0,3.E0,-3.45E0));
#392=LINE('',#391,#390);
#393=CARTESIAN_POINT('',(-3.45E0,4.E1,-3.45E0));
#394=DIRECTION('',(0.E0,1.E0,0.E0));
#395=DIRECTION('',(1.E0,0.E0,0.E0));
#396=AXIS2_PLACEMENT_3D('',#393,#394,#395);
#398=CARTESIAN_POINT('',(-3.45E0,4.E1,-3.45E0));
#399=DIRECTION('',(0.E0,1.E0,0.E0));
#400=DIRECTION('',(-1.E0,0.E0,0.E0));
#401=AXIS2_PLACEMENT_3D('',#398,#399,#400);
#403=DIRECTION('',(0.E0,1.E0,0.E0));
#404=VECTOR('',#403,3.7E1);
#405=CARTESIAN_POINT('',(-8.95E0,3.E0,-3.45E0));
#406=LINE('',#405,#404);
#407=DIRECTION('',(0.E0,1.E0,0.E0));
#408=VECTOR('',#407,3.7E1);
#409=CARTESIAN_POINT('',(-1.175E1,3.E0,-3.45E0));
#410=LINE('',#409,#408);
#411=CARTESIAN_POINT('',(-1.035E1,4.E1,-3.45E0));
#412=DIRECTION('',(0.E0,1.E0,0.E0));
#413=DIRECTION('',(1.E0,0.E0,0.E0));
#414=AXIS2_PLACEMENT_3D('',#411,#412,#413);
#416=CARTESIAN_POINT('',(-1.035E1,4.E1,-3.45E0));
#417=DIRECTION('',(0.E0,1.E0,0.E0));
#418=DIRECTION('',(-1.E0,0.E0,0.E0));
#419=AXIS2_PLACEMENT_3D('',#416,#417,#418);
#421=DIRECTION('',(0.E0,1.E0,0.E0));
#422=VECTOR('',#421,3.7E1);
#423=CARTESIAN_POINT('',(1.175E1,3.E0,3.45E0));
#424=LINE('',#423,#422);
#425=DIRECTION('',(0.E0,1.E0,0.E0));
#426=VECTOR('',#425,3.7E1);
#427=CARTESIAN_POINT('',(8.95E0,3.E0,3.45E0));
#428=LINE('',#427,#426);
#429=CARTESIAN_POINT('',(1.035E1,4.E1,3.45E0));
#430=DIRECTION('',(0.E0,1.E0,0.E0));
#431=DIRECTION('',(1.E0,0.E0,0.E0));
#432=AXIS2_PLACEMENT_3D('',#429,#430,#431);
#434=CARTESIAN_POINT('',(1.035E1,4.E1,3.45E0));
#435=DIRECTION('',(0.E0,1.E0,0.E0));
#436=DIRECTION('',(-1.E0,0.E0,0.E0));
#437=AXIS2_PLACEMENT_3D('',#434,#435,#436);
#439=DIRECTION('',(0.E0,1.E0,0.E0));
#440=VECTOR('',#439,3.7E1);
#441=CARTESIAN_POINT('',(4.85E0,3.E0,3.45E0));
#442=LINE('',#441,#440);
#443=DIRECTION('',(0.E0,1.E0,0.E0));
#444=VECTOR('',#443,3.7E1);
#445=CARTESIAN_POINT('',(2.05E0,3.E0,3.45E0));
#446=LINE('',#445,#444);
#447=CARTESIAN_POINT('',(3.45E0,4.E1,3.45E0));
#448=DIRECTION('',(0.E0,1.E0,0.E0));
#449=DIRECTION('',(1.E0,0.E0,0.E0));
#450=AXIS2_PLACEMENT_3D('',#447,#448,#449);
#452=CARTESIAN_POINT('',(3.45E0,4.E1,3.45E0));
#453=DIRECTION('',(0.E0,1.E0,0.E0));
#454=DIRECTION('',(-1.E0,0.E0,0.E0));
#455=AXIS2_PLACEMENT_3D('',#452,#453,#454);
#457=DIRECTION('',(0.E0,1.E0,0.E0));
#458=VECTOR('',#457,3.7E1);
#459=CARTESIAN_POINT('',(-2.05E0,3.E0,3.45E0));
#460=LINE('',#459,#458);
#461=DIRECTION('',(0.E0,1.E0,0.E0));
#462=VECTOR('',#461,3.7E1);
#463=CARTESIAN_POINT('',(-4.85E0,3.E0,3.45E0));
#464=LINE('',#463,#462);
#465=CARTESIAN_POINT('',(-3.45E0,4.E1,3.45E0));
#466=DIRECTION('',(0.E0,1.E0,0.E0));
#467=DIRECTION('',(1.E0,0.E0,0.E0));
#468=AXIS2_PLACEMENT_3D('',#465,#466,#467);
#470=CARTESIAN_POINT('',(-3.45E0,4.E1,3.45E0));
#471=DIRECTION('',(0.E0,1.E0,0.E0));
#472=DIRECTION('',(-1.E0,0.E0,0.E0));
#473=AXIS2_PLACEMENT_3D('',#470,#471,#472);
#475=DIRECTION('',(0.E0,1.E0,0.E0));
#476=VECTOR('',#475,3.7E1);
#477=CARTESIAN_POINT('',(-8.95E0,3.E0,3.45E0));
#478=LINE('',#477,#476);
#479=DIRECTION('',(0.E0,1.E0,0.E0));
#480=VECTOR('',#479,3.7E1);
#481=CARTESIAN_POINT('',(-1.175E1,3.E0,3.45E0));
#482=LINE('',#481,#480);
#483=CARTESIAN_POINT('',(-1.035E1,4.E1,3.45E0));
#484=DIRECTION('',(0.E0,1.E0,0.E0));
#485=DIRECTION('',(1.E0,0.E0,0.E0));
#486=AXIS2_PLACEMENT_3D('',#483,#484,#485);
#488=CARTESIAN_POINT('',(-1.035E1,4.E1,3.45E0));
#489=DIRECTION('',(0.E0,1.E0,0.E0));
#490=DIRECTION('',(-1.E0,0.E0,0.E0));
#491=AXIS2_PLACEMENT_3D('',#488,#489,#490);
#493=DIRECTION('',(0.E0,1.E0,0.E0));
#494=VECTOR('',#493,3.7E1);
#495=CARTESIAN_POINT('',(1.175E1,3.E0,1.035E1));
#496=LINE('',#495,#494);
#497=DIRECTION('',(0.E0,1.E0,0.E0));
#498=VECTOR('',#497,3.7E1);
#499=CARTESIAN_POINT('',(8.95E0,3.E0,1.035E1));
#500=LINE('',#499,#498);
#501=CARTESIAN_POINT('',(1.035E1,4.E1,1.035E1));
#502=DIRECTION('',(0.E0,1.E0,0.E0));
#503=DIRECTION('',(1.E0,0.E0,0.E0));
#504=AXIS2_PLACEMENT_3D('',#501,#502,#503);
#506=CARTESIAN_POINT('',(1.035E1,4.E1,1.035E1));
#507=DIRECTION('',(0.E0,1.E0,0.E0));
#508=DIRECTION('',(-1.E0,0.E0,0.E0));
#509=AXIS2_PLACEMENT_3D('',#506,#507,#508);
#511=DIRECTION('',(0.E0,1.E0,0.E0));
#512=VECTOR('',#511,3.7E1);
#513=CARTESIAN_POINT('',(4.85E0,3.E0,1.035E1));
#514=LINE('',#513,#512);
#515=DIRECTION('',(0.E0,1.E0,0.E0));
#516=VECTOR('',#515,3.7E1);
#517=CARTESIAN_POINT('',(2.05E0,3.E0,1.035E1));
#518=LINE('',#517,#516);
#519=CARTESIAN_POINT('',(3.45E0,4.E1,1.035E1));
#520=DIRECTION('',(0.E0,1.E0,0.E0));
#521=DIRECTION('',(1.E0,0.E0,0.E0));
#522=AXIS2_PLACEMENT_3D('',#519,#520,#521);
#524=CARTESIAN_POINT('',(3.45E0,4.E1,1.035E1));
#525=DIRECTION('',(0.E0,1.E0,0.E0));
#526=DIRECTION('',(-1.E0,0.E0,0.E0));
#527=AXIS2_PLACEMENT_3D('',#524,#525,#526);
#529=DIRECTION('',(0.E0,1.E0,0.E0));
#530=VECTOR('',#529,3.7E1);
#531=CARTESIAN_POINT('',(-2.05E0,3.E0,1.035E1));
#532=LINE('',#531,#530);
#533=DIRECTION('',(0.E0,1.E0,0.E0));
#534=VECTOR('',#533,3.7E1);
#535=CARTESIAN_POINT('',(-4.85E0,3.E0,1.035E1));
#536=LINE('',#535,#534);
#537=CARTESIAN_POINT('',(-3.45E0,4.E1,1.035E1));
#538=DIRECTION('',(0.E0,1.E0,0.E0));
#539=DIRECTION('',(1.E0,0.E0,0.E0));
#540=AXIS2_PLACEMENT_3D('',#537,#538,#539);
#542=CARTESIAN_POINT('',(-3.45E0,4.E1,1.035E1));
#543=DIRECTION('',(0.E0,1.E0,0.E0));
#544=DIRECTION('',(-1.E0,0.E0,0.E0));
#545=AXIS2_PLACEMENT_3D('',#542,#543,#544);
#547=CARTESIAN_POINT('',(0.E0,3.E0,0.E0));
#548=DIRECTION('',(0.E0,1.E0,0.E0));
#549=DIRECTION('',(1.E0,0.E0,0.E0));
#550=AXIS2_PLACEMENT_3D('',#547,#548,#549);
#552=CARTESIAN_POINT('',(0.E0,2.E0,0.E0));
#553=DIRECTION('',(0.E0,1.E0,0.E0));
#554=DIRECTION('',(1.E0,0.E0,0.E0));
#555=AXIS2_PLACEMENT_3D('',#552,#553,#554);
#557=DIRECTION('',(0.E0,1.E0,0.E0));
#558=VECTOR('',#557,3.7E1);
#559=CARTESIAN_POINT('',(-8.95E0,3.E0,1.035E1));
#560=LINE('',#559,#558);
#561=DIRECTION('',(0.E0,1.E0,0.E0));
#562=VECTOR('',#561,3.7E1);
#563=CARTESIAN_POINT('',(-1.175E1,3.E0,1.035E1));
#564=LINE('',#563,#562);
#565=CARTESIAN_POINT('',(-1.035E1,4.E1,1.035E1));
#566=DIRECTION('',(0.E0,1.E0,0.E0));
#567=DIRECTION('',(1.E0,0.E0,0.E0));
#568=AXIS2_PLACEMENT_3D('',#565,#566,#567);
#570=CARTESIAN_POINT('',(-1.035E1,4.E1,1.035E1));
#571=DIRECTION('',(0.E0,1.E0,0.E0));
#572=DIRECTION('',(-1.E0,0.E0,0.E0));
#573=AXIS2_PLACEMENT_3D('',#570,#571,#572);
#575=DIRECTION('',(0.E0,1.E0,0.E0));
#576=VECTOR('',#575,3.7E1);
#577=CARTESIAN_POINT('',(-2.05E0,3.E0,1.725E1));
#578=LINE('',#577,#576);
#579=DIRECTION('',(0.E0,1.E0,0.E0));
#580=VECTOR('',#579,3.7E1);
#581=CARTESIAN_POINT('',(-4.85E0,3.E0,1.725E1));
#582=LINE('',#581,#580);
#583=CARTESIAN_POINT('',(-3.45E0,4.E1,1.725E1));
#584=DIRECTION('',(0.E0,1.E0,0.E0));
#585=DIRECTION('',(1.E0,0.E0,0.E0));
#586=AXIS2_PLACEMENT_3D('',#583,#584,#585);
#588=CARTESIAN_POINT('',(-3.45E0,4.E1,1.725E1));
#589=DIRECTION('',(0.E0,1.E0,0.E0));
#590=DIRECTION('',(-1.E0,0.E0,0.E0));
#591=AXIS2_PLACEMENT_3D('',#588,#589,#590);
#593=DIRECTION('',(0.E0,1.E0,0.E0));
#594=VECTOR('',#593,3.7E1);
#595=CARTESIAN_POINT('',(-1.585E1,3.E0,3.45E0));
#596=LINE('',#595,#594);
#597=DIRECTION('',(0.E0,1.E0,0.E0));
#598=VECTOR('',#597,3.7E1);
#599=CARTESIAN_POINT('',(-1.865E1,3.E0,3.45E0));
#600=LINE('',#599,#598);
#601=CARTESIAN_POINT('',(-1.725E1,4.E1,3.45E0));
#602=DIRECTION('',(0.E0,1.E0,0.E0));
#603=DIRECTION('',(1.E0,0.E0,0.E0));
#604=AXIS2_PLACEMENT_3D('',#601,#602,#603);
#606=CARTESIAN_POINT('',(-1.725E1,4.E1,3.45E0));
#607=DIRECTION('',(0.E0,1.E0,0.E0));
#608=DIRECTION('',(-1.E0,0.E0,0.E0));
#609=AXIS2_PLACEMENT_3D('',#606,#607,#608);
#611=DIRECTION('',(0.E0,1.E0,0.E0));
#612=VECTOR('',#611,3.7E1);
#613=CARTESIAN_POINT('',(2.05E0,3.E0,1.725E1));
#614=LINE('',#613,#612);
#615=DIRECTION('',(0.E0,1.E0,0.E0));
#616=VECTOR('',#615,3.7E1);
#617=CARTESIAN_POINT('',(4.85E0,3.E0,1.725E1));
#618=LINE('',#617,#616);
#619=CARTESIAN_POINT('',(3.45E0,4.E1,1.725E1));
#620=DIRECTION('',(0.E0,-1.E0,0.E0));
#621=DIRECTION('',(-1.E0,0.E0,0.E0));
#622=AXIS2_PLACEMENT_3D('',#619,#620,#621);
#624=CARTESIAN_POINT('',(3.45E0,4.E1,1.725E1));
#625=DIRECTION('',(0.E0,-1.E0,0.E0));
#626=DIRECTION('',(1.E0,0.E0,0.E0));
#627=AXIS2_PLACEMENT_3D('',#624,#625,#626);
#629=DIRECTION('',(0.E0,1.E0,0.E0));
#630=VECTOR('',#629,3.7E1);
#631=CARTESIAN_POINT('',(1.585E1,3.E0,3.45E0));
#632=LINE('',#631,#630);
#633=DIRECTION('',(0.E0,1.E0,0.E0));
#634=VECTOR('',#633,3.7E1);
#635=CARTESIAN_POINT('',(1.865E1,3.E0,3.45E0));
#636=LINE('',#635,#634);
#637=CARTESIAN_POINT('',(1.725E1,4.E1,3.45E0));
#638=DIRECTION('',(0.E0,-1.E0,0.E0));
#639=DIRECTION('',(-1.E0,0.E0,0.E0));
#640=AXIS2_PLACEMENT_3D('',#637,#638,#639);
#642=CARTESIAN_POINT('',(1.725E1,4.E1,3.45E0));
#643=DIRECTION('',(0.E0,-1.E0,0.E0));
#644=DIRECTION('',(1.E0,0.E0,0.E0));
#645=AXIS2_PLACEMENT_3D('',#642,#643,#644);
#647=DIRECTION('',(0.E0,1.E0,0.E0));
#648=VECTOR('',#647,3.7E1);
#649=CARTESIAN_POINT('',(-2.05E0,3.E0,-1.725E1));
#650=LINE('',#649,#648);
#651=DIRECTION('',(0.E0,1.E0,0.E0));
#652=VECTOR('',#651,3.7E1);
#653=CARTESIAN_POINT('',(-4.85E0,3.E0,-1.725E1));
#654=LINE('',#653,#652);
#655=CARTESIAN_POINT('',(-3.45E0,4.E1,-1.725E1));
#656=DIRECTION('',(0.E0,-1.E0,0.E0));
#657=DIRECTION('',(1.E0,0.E0,0.E0));
#658=AXIS2_PLACEMENT_3D('',#655,#656,#657);
#660=CARTESIAN_POINT('',(-3.45E0,4.E1,-1.725E1));
#661=DIRECTION('',(0.E0,-1.E0,0.E0));
#662=DIRECTION('',(-1.E0,0.E0,0.E0));
#663=AXIS2_PLACEMENT_3D('',#660,#661,#662);
#665=DIRECTION('',(0.E0,1.E0,0.E0));
#666=VECTOR('',#665,3.7E1);
#667=CARTESIAN_POINT('',(-1.585E1,3.E0,-3.45E0));
#668=LINE('',#667,#666);
#669=DIRECTION('',(0.E0,1.E0,0.E0));
#670=VECTOR('',#669,3.7E1);
#671=CARTESIAN_POINT('',(-1.865E1,3.E0,-3.45E0));
#672=LINE('',#671,#670);
#673=CARTESIAN_POINT('',(-1.725E1,4.E1,-3.45E0));
#674=DIRECTION('',(0.E0,-1.E0,0.E0));
#675=DIRECTION('',(1.E0,0.E0,0.E0));
#676=AXIS2_PLACEMENT_3D('',#673,#674,#675);
#678=CARTESIAN_POINT('',(-1.725E1,4.E1,-3.45E0));
#679=DIRECTION('',(0.E0,-1.E0,0.E0));
#680=DIRECTION('',(-1.E0,0.E0,0.E0));
#681=AXIS2_PLACEMENT_3D('',#678,#679,#680);
#683=DIRECTION('',(0.E0,1.E0,0.E0));
#684=VECTOR('',#683,3.7E1);
#685=CARTESIAN_POINT('',(2.05E0,3.E0,-1.725E1));
#686=LINE('',#685,#684);
#687=DIRECTION('',(0.E0,1.E0,0.E0));
#688=VECTOR('',#687,3.7E1);
#689=CARTESIAN_POINT('',(4.85E0,3.E0,-1.725E1));
#690=LINE('',#689,#688);
#691=CARTESIAN_POINT('',(3.45E0,4.E1,-1.725E1));
#692=DIRECTION('',(0.E0,1.E0,0.E0));
#693=DIRECTION('',(-1.E0,0.E0,0.E0));
#694=AXIS2_PLACEMENT_3D('',#691,#692,#693);
#696=CARTESIAN_POINT('',(3.45E0,4.E1,-1.725E1));
#697=DIRECTION('',(0.E0,1.E0,0.E0));
#698=DIRECTION('',(1.E0,0.E0,0.E0));
#699=AXIS2_PLACEMENT_3D('',#696,#697,#698);
#701=DIRECTION('',(0.E0,1.E0,0.E0));
#702=VECTOR('',#701,3.7E1);
#703=CARTESIAN_POINT('',(1.585E1,3.E0,-3.45E0));
#704=LINE('',#703,#702);
#705=DIRECTION('',(0.E0,1.E0,0.E0));
#706=VECTOR('',#705,3.7E1);
#707=CARTESIAN_POINT('',(1.865E1,3.E0,-3.45E0));
#708=LINE('',#707,#706);
#709=CARTESIAN_POINT('',(1.725E1,4.E1,-3.45E0));
#710=DIRECTION('',(0.E0,1.E0,0.E0));
#711=DIRECTION('',(-1.E0,0.E0,0.E0));
#712=AXIS2_PLACEMENT_3D('',#709,#710,#711);
#714=CARTESIAN_POINT('',(1.725E1,4.E1,-3.45E0));
#715=DIRECTION('',(0.E0,1.E0,0.E0));
#716=DIRECTION('',(1.E0,0.E0,0.E0));
#717=AXIS2_PLACEMENT_3D('',#714,#715,#716);
#719=CARTESIAN_POINT('',(2.E1,0.E0,0.E0));
#720=CARTESIAN_POINT('',(-2.E1,0.E0,0.E0));
#721=VERTEX_POINT('',#719);
#722=VERTEX_POINT('',#720);
#723=CARTESIAN_POINT('',(1.942264973081E1,3.E0,1.962928837114E-14));
#724=CARTESIAN_POINT('',(-1.942264973081E1,3.E0,-1.338240922583E-14));
#725=VERTEX_POINT('',#723);
#726=VERTEX_POINT('',#724);
#727=CARTESIAN_POINT('',(2.E1,2.E0,0.E0));
#728=CARTESIAN_POINT('',(-2.E1,2.E0,0.E0));
#729=VERTEX_POINT('',#727);
#730=VERTEX_POINT('',#728);
#731=CARTESIAN_POINT('',(-8.95E0,4.E1,1.035E1));
#732=CARTESIAN_POINT('',(-1.175E1,4.E1,1.035E1));
#733=VERTEX_POINT('',#731);
#734=VERTEX_POINT('',#732);
#735=CARTESIAN_POINT('',(-8.95E0,3.E0,1.035E1));
#736=CARTESIAN_POINT('',(-1.175E1,3.E0,1.035E1));
#737=VERTEX_POINT('',#735);
#738=VERTEX_POINT('',#736);
#739=CARTESIAN_POINT('',(-2.05E0,4.E1,1.725E1));
#740=CARTESIAN_POINT('',(-4.85E0,4.E1,1.725E1));
#741=VERTEX_POINT('',#739);
#742=VERTEX_POINT('',#740);
#743=CARTESIAN_POINT('',(-2.05E0,3.E0,1.725E1));
#744=CARTESIAN_POINT('',(-4.85E0,3.E0,1.725E1));
#745=VERTEX_POINT('',#743);
#746=VERTEX_POINT('',#744);
#747=CARTESIAN_POINT('',(-1.585E1,4.E1,3.45E0));
#748=CARTESIAN_POINT('',(-1.865E1,4.E1,3.45E0));
#749=VERTEX_POINT('',#747);
#750=VERTEX_POINT('',#748);
#751=CARTESIAN_POINT('',(-1.585E1,3.E0,3.45E0));
#752=CARTESIAN_POINT('',(-1.865E1,3.E0,3.45E0));
#753=VERTEX_POINT('',#751);
#754=VERTEX_POINT('',#752);
#755=CARTESIAN_POINT('',(-2.05E0,4.E1,1.035E1));
#756=CARTESIAN_POINT('',(-4.85E0,4.E1,1.035E1));
#757=VERTEX_POINT('',#755);
#758=VERTEX_POINT('',#756);
#759=CARTESIAN_POINT('',(-2.05E0,3.E0,1.035E1));
#760=CARTESIAN_POINT('',(-4.85E0,3.E0,1.035E1));
#761=VERTEX_POINT('',#759);
#762=VERTEX_POINT('',#760);
#763=CARTESIAN_POINT('',(4.85E0,4.E1,1.035E1));
#764=CARTESIAN_POINT('',(2.05E0,4.E1,1.035E1));
#765=VERTEX_POINT('',#763);
#766=VERTEX_POINT('',#764);
#767=CARTESIAN_POINT('',(4.85E0,3.E0,1.035E1));
#768=CARTESIAN_POINT('',(2.05E0,3.E0,1.035E1));
#769=VERTEX_POINT('',#767);
#770=VERTEX_POINT('',#768);
#771=CARTESIAN_POINT('',(1.175E1,4.E1,1.035E1));
#772=CARTESIAN_POINT('',(8.95E0,4.E1,1.035E1));
#773=VERTEX_POINT('',#771);
#774=VERTEX_POINT('',#772);
#775=CARTESIAN_POINT('',(1.175E1,3.E0,1.035E1));
#776=CARTESIAN_POINT('',(8.95E0,3.E0,1.035E1));
#777=VERTEX_POINT('',#775);
#778=VERTEX_POINT('',#776);
#779=CARTESIAN_POINT('',(-8.95E0,4.E1,3.45E0));
#780=CARTESIAN_POINT('',(-1.175E1,4.E1,3.45E0));
#781=VERTEX_POINT('',#779);
#782=VERTEX_POINT('',#780);
#783=CARTESIAN_POINT('',(-8.95E0,3.E0,3.45E0));
#784=CARTESIAN_POINT('',(-1.175E1,3.E0,3.45E0));
#785=VERTEX_POINT('',#783);
#786=VERTEX_POINT('',#784);
#787=CARTESIAN_POINT('',(-2.05E0,4.E1,3.45E0));
#788=CARTESIAN_POINT('',(-4.85E0,4.E1,3.45E0));
#789=VERTEX_POINT('',#787);
#790=VERTEX_POINT('',#788);
#791=CARTESIAN_POINT('',(-2.05E0,3.E0,3.45E0));
#792=CARTESIAN_POINT('',(-4.85E0,3.E0,3.45E0));
#793=VERTEX_POINT('',#791);
#794=VERTEX_POINT('',#792);
#795=CARTESIAN_POINT('',(4.85E0,4.E1,3.45E0));
#796=CARTESIAN_POINT('',(2.05E0,4.E1,3.45E0));
#797=VERTEX_POINT('',#795);
#798=VERTEX_POINT('',#796);
#799=CARTESIAN_POINT('',(4.85E0,3.E0,3.45E0));
#800=CARTESIAN_POINT('',(2.05E0,3.E0,3.45E0));
#801=VERTEX_POINT('',#799);
#802=VERTEX_POINT('',#800);
#803=CARTESIAN_POINT('',(1.175E1,4.E1,3.45E0));
#804=CARTESIAN_POINT('',(8.95E0,4.E1,3.45E0));
#805=VERTEX_POINT('',#803);
#806=VERTEX_POINT('',#804);
#807=CARTESIAN_POINT('',(1.175E1,3.E0,3.45E0));
#808=CARTESIAN_POINT('',(8.95E0,3.E0,3.45E0));
#809=VERTEX_POINT('',#807);
#810=VERTEX_POINT('',#808);
#811=CARTESIAN_POINT('',(-8.95E0,4.E1,-3.45E0));
#812=CARTESIAN_POINT('',(-1.175E1,4.E1,-3.45E0));
#813=VERTEX_POINT('',#811);
#814=VERTEX_POINT('',#812);
#815=CARTESIAN_POINT('',(-8.95E0,3.E0,-3.45E0));
#816=CARTESIAN_POINT('',(-1.175E1,3.E0,-3.45E0));
#817=VERTEX_POINT('',#815);
#818=VERTEX_POINT('',#816);
#819=CARTESIAN_POINT('',(-2.05E0,4.E1,-3.45E0));
#820=CARTESIAN_POINT('',(-4.85E0,4.E1,-3.45E0));
#821=VERTEX_POINT('',#819);
#822=VERTEX_POINT('',#820);
#823=CARTESIAN_POINT('',(-2.05E0,3.E0,-3.45E0));
#824=CARTESIAN_POINT('',(-4.85E0,3.E0,-3.45E0));
#825=VERTEX_POINT('',#823);
#826=VERTEX_POINT('',#824);
#827=CARTESIAN_POINT('',(4.85E0,4.E1,-3.45E0));
#828=CARTESIAN_POINT('',(2.05E0,4.E1,-3.45E0));
#829=VERTEX_POINT('',#827);
#830=VERTEX_POINT('',#828);
#831=CARTESIAN_POINT('',(4.85E0,3.E0,-3.45E0));
#832=CARTESIAN_POINT('',(2.05E0,3.E0,-3.45E0));
#833=VERTEX_POINT('',#831);
#834=VERTEX_POINT('',#832);
#835=CARTESIAN_POINT('',(1.175E1,4.E1,-3.45E0));
#836=CARTESIAN_POINT('',(8.95E0,4.E1,-3.45E0));
#837=VERTEX_POINT('',#835);
#838=VERTEX_POINT('',#836);
#839=CARTESIAN_POINT('',(1.175E1,3.E0,-3.45E0));
#840=CARTESIAN_POINT('',(8.95E0,3.E0,-3.45E0));
#841=VERTEX_POINT('',#839);
#842=VERTEX_POINT('',#840);
#843=CARTESIAN_POINT('',(-8.95E0,4.E1,-1.035E1));
#844=CARTESIAN_POINT('',(-1.175E1,4.E1,-1.035E1));
#845=VERTEX_POINT('',#843);
#846=VERTEX_POINT('',#844);
#847=CARTESIAN_POINT('',(-8.95E0,3.E0,-1.035E1));
#848=CARTESIAN_POINT('',(-1.175E1,3.E0,-1.035E1));
#849=VERTEX_POINT('',#847);
#850=VERTEX_POINT('',#848);
#851=CARTESIAN_POINT('',(-2.05E0,4.E1,-1.035E1));
#852=CARTESIAN_POINT('',(-4.85E0,4.E1,-1.035E1));
#853=VERTEX_POINT('',#851);
#854=VERTEX_POINT('',#852);
#855=CARTESIAN_POINT('',(-2.05E0,3.E0,-1.035E1));
#856=CARTESIAN_POINT('',(-4.85E0,3.E0,-1.035E1));
#857=VERTEX_POINT('',#855);
#858=VERTEX_POINT('',#856);
#859=CARTESIAN_POINT('',(4.85E0,4.E1,-1.035E1));
#860=CARTESIAN_POINT('',(2.05E0,4.E1,-1.035E1));
#861=VERTEX_POINT('',#859);
#862=VERTEX_POINT('',#860);
#863=CARTESIAN_POINT('',(4.85E0,3.E0,-1.035E1));
#864=CARTESIAN_POINT('',(2.05E0,3.E0,-1.035E1));
#865=VERTEX_POINT('',#863);
#866=VERTEX_POINT('',#864);
#867=CARTESIAN_POINT('',(1.175E1,4.E1,-1.035E1));
#868=CARTESIAN_POINT('',(8.95E0,4.E1,-1.035E1));
#869=VERTEX_POINT('',#867);
#870=VERTEX_POINT('',#868);
#871=CARTESIAN_POINT('',(1.175E1,3.E0,-1.035E1));
#872=CARTESIAN_POINT('',(8.95E0,3.E0,-1.035E1));
#873=VERTEX_POINT('',#871);
#874=VERTEX_POINT('',#872);
#875=CARTESIAN_POINT('',(2.05E0,4.E1,1.725E1));
#876=CARTESIAN_POINT('',(4.85E0,4.E1,1.725E1));
#877=VERTEX_POINT('',#875);
#878=VERTEX_POINT('',#876);
#879=CARTESIAN_POINT('',(2.05E0,3.E0,1.725E1));
#880=CARTESIAN_POINT('',(4.85E0,3.E0,1.725E1));
#881=VERTEX_POINT('',#879);
#882=VERTEX_POINT('',#880);
#883=CARTESIAN_POINT('',(1.585E1,4.E1,3.45E0));
#884=CARTESIAN_POINT('',(1.865E1,4.E1,3.45E0));
#885=VERTEX_POINT('',#883);
#886=VERTEX_POINT('',#884);
#887=CARTESIAN_POINT('',(1.585E1,3.E0,3.45E0));
#888=CARTESIAN_POINT('',(1.865E1,3.E0,3.45E0));
#889=VERTEX_POINT('',#887);
#890=VERTEX_POINT('',#888);
#891=CARTESIAN_POINT('',(-2.05E0,4.E1,-1.725E1));
#892=CARTESIAN_POINT('',(-4.85E0,4.E1,-1.725E1));
#893=VERTEX_POINT('',#891);
#894=VERTEX_POINT('',#892);
#895=CARTESIAN_POINT('',(-2.05E0,3.E0,-1.725E1));
#896=CARTESIAN_POINT('',(-4.85E0,3.E0,-1.725E1));
#897=VERTEX_POINT('',#895);
#898=VERTEX_POINT('',#896);
#899=CARTESIAN_POINT('',(-1.585E1,4.E1,-3.45E0));
#900=CARTESIAN_POINT('',(-1.865E1,4.E1,-3.45E0));
#901=VERTEX_POINT('',#899);
#902=VERTEX_POINT('',#900);
#903=CARTESIAN_POINT('',(-1.585E1,3.E0,-3.45E0));
#904=CARTESIAN_POINT('',(-1.865E1,3.E0,-3.45E0));
#905=VERTEX_POINT('',#903);
#906=VERTEX_POINT('',#904);
#907=CARTESIAN_POINT('',(2.05E0,4.E1,-1.725E1));
#908=CARTESIAN_POINT('',(4.85E0,4.E1,-1.725E1));
#909=VERTEX_POINT('',#907);
#910=VERTEX_POINT('',#908);
#911=CARTESIAN_POINT('',(2.05E0,3.E0,-1.725E1));
#912=CARTESIAN_POINT('',(4.85E0,3.E0,-1.725E1));
#913=VERTEX_POINT('',#911);
#914=VERTEX_POINT('',#912);
#915=CARTESIAN_POINT('',(1.585E1,4.E1,-3.45E0));
#916=CARTESIAN_POINT('',(1.865E1,4.E1,-3.45E0));
#917=VERTEX_POINT('',#915);
#918=VERTEX_POINT('',#916);
#919=CARTESIAN_POINT('',(1.585E1,3.E0,-3.45E0));
#920=CARTESIAN_POINT('',(1.865E1,3.E0,-3.45E0));
#921=VERTEX_POINT('',#919);
#922=VERTEX_POINT('',#920);
#923=CARTESIAN_POINT('',(0.E0,0.E0,0.E0));
#924=DIRECTION('',(0.E0,1.E0,0.E0));
#925=DIRECTION('',(1.E0,0.E0,0.E0));
#926=AXIS2_PLACEMENT_3D('',#923,#924,#925);
#927=PLANE('',#926);
#929=ORIENTED_EDGE('',*,*,#928,.T.);
#931=ORIENTED_EDGE('',*,*,#930,.T.);
#932=EDGE_LOOP('',(#929,#931));
#933=FACE_OUTER_BOUND('',#932,.F.);
#934=ADVANCED_FACE('',(#933),#927,.F.);
#935=CARTESIAN_POINT('',(0.E0,0.E0,0.E0));
#936=DIRECTION('',(0.E0,1.E0,0.E0));
#937=DIRECTION('',(1.E0,0.E0,0.E0));
#938=AXIS2_PLACEMENT_3D('',#935,#936,#937);
#939=CYLINDRICAL_SURFACE('',#938,2.E1);
#940=ORIENTED_EDGE('',*,*,#928,.F.);
#942=ORIENTED_EDGE('',*,*,#941,.T.);
#944=ORIENTED_EDGE('',*,*,#943,.T.);
#946=ORIENTED_EDGE('',*,*,#945,.F.);
#947=EDGE_LOOP('',(#940,#942,#944,#946));
#948=FACE_OUTER_BOUND('',#947,.F.);
#949=ADVANCED_FACE('',(#948),#939,.T.);
#950=CARTESIAN_POINT('',(0.E0,0.E0,0.E0));
#951=DIRECTION('',(0.E0,1.E0,0.E0));
#952=DIRECTION('',(1.E0,0.E0,0.E0));
#953=AXIS2_PLACEMENT_3D('',#950,#951,#952);
#954=CYLINDRICAL_SURFACE('',#953,2.E1);
#955=ORIENTED_EDGE('',*,*,#930,.F.);
#956=ORIENTED_EDGE('',*,*,#945,.T.);
#958=ORIENTED_EDGE('',*,*,#957,.T.);
#959=ORIENTED_EDGE('',*,*,#941,.F.);
#960=EDGE_LOOP('',(#955,#956,#958,#959));
#961=FACE_OUTER_BOUND('',#960,.F.);
#962=ADVANCED_FACE('',(#961),#954,.T.);
#963=CARTESIAN_POINT('',(0.E0,2.5E0,0.E0));
#964=DIRECTION('',(0.E0,-1.E0,0.E0));
#965=DIRECTION('',(-1.E0,0.E0,0.E0));
#966=AXIS2_PLACEMENT_3D('',#963,#964,#965);
#967=CONICAL_SURFACE('',#966,1.971132486541E1,3.E1);
#969=ORIENTED_EDGE('',*,*,#968,.T.);
#971=ORIENTED_EDGE('',*,*,#970,.T.);
#972=ORIENTED_EDGE('',*,*,#957,.F.);
#974=ORIENTED_EDGE('',*,*,#973,.F.);
#975=EDGE_LOOP('',(#969,#971,#972,#974));
#976=FACE_OUTER_BOUND('',#975,.F.);
#977=ADVANCED_FACE('',(#976),#967,.T.);
#978=CARTESIAN_POINT('',(0.E0,3.E0,0.E0));
#979=DIRECTION('',(0.E0,1.E0,0.E0));
#980=DIRECTION('',(1.E0,0.E0,0.E0));
#981=AXIS2_PLACEMENT_3D('',#978,#979,#980);
#982=PLANE('',#981);
#984=ORIENTED_EDGE('',*,*,#983,.F.);
#985=ORIENTED_EDGE('',*,*,#968,.F.);
#986=EDGE_LOOP('',(#984,#985));
#987=FACE_OUTER_BOUND('',#986,.F.);
#989=ORIENTED_EDGE('',*,*,#988,.T.);
#991=ORIENTED_EDGE('',*,*,#990,.T.);
#992=EDGE_LOOP('',(#989,#991));
#993=FACE_BOUND('',#992,.F.);
#995=ORIENTED_EDGE('',*,*,#994,.T.);
#997=ORIENTED_EDGE('',*,*,#996,.T.);
#998=EDGE_LOOP('',(#995,#997));
#999=FACE_BOUND('',#998,.F.);
#1001=ORIENTED_EDGE('',*,*,#1000,.T.);
#1003=ORIENTED_EDGE('',*,*,#1002,.T.);
#1004=EDGE_LOOP('',(#1001,#1003));
#1005=FACE_BOUND('',#1004,.F.);
#1007=ORIENTED_EDGE('',*,*,#1006,.T.);
#1009=ORIENTED_EDGE('',*,*,#1008,.T.);
#1010=EDGE_LOOP('',(#1007,#1009));
#1011=FACE_BOUND('',#1010,.F.);
#1013=ORIENTED_EDGE('',*,*,#1012,.T.);
#1015=ORIENTED_EDGE('',*,*,#1014,.T.);
#1016=EDGE_LOOP('',(#1013,#1015));
#1017=FACE_BOUND('',#1016,.F.);
#1019=ORIENTED_EDGE('',*,*,#1018,.T.);
#1021=ORIENTED_EDGE('',*,*,#1020,.T.);
#1022=EDGE_LOOP('',(#1019,#1021));
#1023=FACE_BOUND('',#1022,.F.);
#1025=ORIENTED_EDGE('',*,*,#1024,.T.);
#1027=ORIENTED_EDGE('',*,*,#1026,.T.);
#1028=EDGE_LOOP('',(#1025,#1027));
#1029=FACE_BOUND('',#1028,.F.);
#1031=ORIENTED_EDGE('',*,*,#1030,.T.);
#1033=ORIENTED_EDGE('',*,*,#1032,.T.);
#1034=EDGE_LOOP('',(#1031,#1033));
#1035=FACE_BOUND('',#1034,.F.);
#1037=ORIENTED_EDGE('',*,*,#1036,.T.);
#1039=ORIENTED_EDGE('',*,*,#1038,.T.);
#1040=EDGE_LOOP('',(#1037,#1039));
#1041=FACE_BOUND('',#1040,.F.);
#1043=ORIENTED_EDGE('',*,*,#1042,.T.);
#1045=ORIENTED_EDGE('',*,*,#1044,.T.);
#1046=EDGE_LOOP('',(#1043,#1045));
#1047=FACE_BOUND('',#1046,.F.);
#1049=ORIENTED_EDGE('',*,*,#1048,.T.);
#1051=ORIENTED_EDGE('',*,*,#1050,.T.);
#1052=EDGE_LOOP('',(#1049,#1051));
#1053=FACE_BOUND('',#1052,.F.);
#1055=ORIENTED_EDGE('',*,*,#1054,.T.);
#1057=ORIENTED_EDGE('',*,*,#1056,.T.);
#1058=EDGE_LOOP('',(#1055,#1057));
#1059=FACE_BOUND('',#1058,.F.);
#1061=ORIENTED_EDGE('',*,*,#1060,.T.);
#1063=ORIENTED_EDGE('',*,*,#1062,.T.);
#1064=EDGE_LOOP('',(#1061,#1063));
#1065=FACE_BOUND('',#1064,.F.);
#1067=ORIENTED_EDGE('',*,*,#1066,.T.);
#1069=ORIENTED_EDGE('',*,*,#1068,.T.);
#1070=EDGE_LOOP('',(#1067,#1069));
#1071=FACE_BOUND('',#1070,.F.);
#1073=ORIENTED_EDGE('',*,*,#1072,.T.);
#1075=ORIENTED_EDGE('',*,*,#1074,.T.);
#1076=EDGE_LOOP('',(#1073,#1075));
#1077=FACE_BOUND('',#1076,.F.);
#1079=ORIENTED_EDGE('',*,*,#1078,.T.);
#1081=ORIENTED_EDGE('',*,*,#1080,.T.);
#1082=EDGE_LOOP('',(#1079,#1081));
#1083=FACE_BOUND('',#1082,.F.);
#1085=ORIENTED_EDGE('',*,*,#1084,.T.);
#1087=ORIENTED_EDGE('',*,*,#1086,.T.);
#1088=EDGE_LOOP('',(#1085,#1087));
#1089=FACE_BOUND('',#1088,.F.);
#1091=ORIENTED_EDGE('',*,*,#1090,.T.);
#1093=ORIENTED_EDGE('',*,*,#1092,.T.);
#1094=EDGE_LOOP('',(#1091,#1093));
#1095=FACE_BOUND('',#1094,.F.);
#1097=ORIENTED_EDGE('',*,*,#1096,.F.);
#1099=ORIENTED_EDGE('',*,*,#1098,.F.);
#1100=EDGE_LOOP('',(#1097,#1099));
#1101=FACE_BOUND('',#1100,.F.);
#1103=ORIENTED_EDGE('',*,*,#1102,.F.);
#1105=ORIENTED_EDGE('',*,*,#1104,.F.);
#1106=EDGE_LOOP('',(#1103,#1105));
#1107=FACE_BOUND('',#1106,.F.);
#1109=ORIENTED_EDGE('',*,*,#1108,.F.);
#1111=ORIENTED_EDGE('',*,*,#1110,.F.);
#1112=EDGE_LOOP('',(#1109,#1111));
#1113=FACE_BOUND('',#1112,.F.);
#1115=ORIENTED_EDGE('',*,*,#1114,.F.);
#1117=ORIENTED_EDGE('',*,*,#1116,.F.);
#1118=EDGE_LOOP('',(#1115,#1117));
#1119=FACE_BOUND('',#1118,.F.);
#1121=ORIENTED_EDGE('',*,*,#1120,.T.);
#1123=ORIENTED_EDGE('',*,*,#1122,.T.);
#1124=EDGE_LOOP('',(#1121,#1123));
#1125=FACE_BOUND('',#1124,.F.);
#1127=ORIENTED_EDGE('',*,*,#1126,.T.);
#1129=ORIENTED_EDGE('',*,*,#1128,.T.);
#1130=EDGE_LOOP('',(#1127,#1129));
#1131=FACE_BOUND('',#1130,.F.);
#1132=ADVANCED_FACE('',(#987,#993,#999,#1005,#1011,#1017,#1023,#1029,#1035,
#1041,#1047,#1053,#1059,#1065,#1071,#1077,#1083,#1089,#1095,#1101,#1107,#1113,
#1119,#1125,#1131),#982,.T.);
#1133=CARTESIAN_POINT('',(1.035E1,3.E0,-1.035E1));
#1134=DIRECTION('',(0.E0,1.E0,0.E0));
#1135=DIRECTION('',(1.E0,0.E0,0.E0));
#1136=AXIS2_PLACEMENT_3D('',#1133,#1134,#1135);
#1137=CYLINDRICAL_SURFACE('',#1136,1.4E0);
#1138=ORIENTED_EDGE('',*,*,#988,.F.);
#1140=ORIENTED_EDGE('',*,*,#1139,.T.);
#1142=ORIENTED_EDGE('',*,*,#1141,.T.);
#1144=ORIENTED_EDGE('',*,*,#1143,.F.);
#1145=EDGE_LOOP('',(#1138,#1140,#1142,#1144));
#1146=FACE_OUTER_BOUND('',#1145,.F.);
#1147=ADVANCED_FACE('',(#1146),#1137,.T.);
#1148=CARTESIAN_POINT('',(1.035E1,3.E0,-1.035E1));
#1149=DIRECTION('',(0.E0,1.E0,0.E0));
#1150=DIRECTION('',(1.E0,0.E0,0.E0));
#1151=AXIS2_PLACEMENT_3D('',#1148,#1149,#1150);
#1152=CYLINDRICAL_SURFACE('',#1151,1.4E0);
#1153=ORIENTED_EDGE('',*,*,#990,.F.);
#1154=ORIENTED_EDGE('',*,*,#1143,.T.);
#1156=ORIENTED_EDGE('',*,*,#1155,.T.);
#1157=ORIENTED_EDGE('',*,*,#1139,.F.);
#1158=EDGE_LOOP('',(#1153,#1154,#1156,#1157));
#1159=FACE_OUTER_BOUND('',#1158,.F.);
#1160=ADVANCED_FACE('',(#1159),#1152,.T.);
#1161=CARTESIAN_POINT('',(2.07E1,4.E1,-2.07E1));
#1162=DIRECTION('',(0.E0,1.E0,0.E0));
#1163=DIRECTION('',(1.E0,0.E0,0.E0));
#1164=AXIS2_PLACEMENT_3D('',#1161,#1162,#1163);
#1165=PLANE('',#1164);
#1166=ORIENTED_EDGE('',*,*,#1141,.F.);
#1167=ORIENTED_EDGE('',*,*,#1155,.F.);
#1168=EDGE_LOOP('',(#1166,#1167));
#1169=FACE_OUTER_BOUND('',#1168,.F.);
#1170=ADVANCED_FACE('',(#1169),#1165,.T.);
#1171=CARTESIAN_POINT('',(3.45E0,3.E0,-1.035E1));
#1172=DIRECTION('',(0.E0,1.E0,0.E0));
#1173=DIRECTION('',(1.E0,0.E0,0.E0));
#1174=AXIS2_PLACEMENT_3D('',#1171,#1172,#1173);
#1175=CYLINDRICAL_SURFACE('',#1174,1.4E0);
#1176=ORIENTED_EDGE('',*,*,#994,.F.);
#1178=ORIENTED_EDGE('',*,*,#1177,.T.);
#1180=ORIENTED_EDGE('',*,*,#1179,.T.);
#1182=ORIENTED_EDGE('',*,*,#1181,.F.);
#1183=EDGE_LOOP('',(#1176,#1178,#1180,#1182));
#1184=FACE_OUTER_BOUND('',#1183,.F.);
#1185=ADVANCED_FACE('',(#1184),#1175,.T.);
#1186=CARTESIAN_POINT('',(3.45E0,3.E0,-1.035E1));
#1187=DIRECTION('',(0.E0,1.E0,0.E0));
#1188=DIRECTION('',(1.E0,0.E0,0.E0));
#1189=AXIS2_PLACEMENT_3D('',#1186,#1187,#1188);
#1190=CYLINDRICAL_SURFACE('',#1189,1.4E0);
#1191=ORIENTED_EDGE('',*,*,#996,.F.);
#1192=ORIENTED_EDGE('',*,*,#1181,.T.);
#1194=ORIENTED_EDGE('',*,*,#1193,.T.);
#1195=ORIENTED_EDGE('',*,*,#1177,.F.);
#1196=EDGE_LOOP('',(#1191,#1192,#1194,#1195));
#1197=FACE_OUTER_BOUND('',#1196,.F.);
#1198=ADVANCED_FACE('',(#1197),#1190,.T.);
#1199=CARTESIAN_POINT('',(1.38E1,4.E1,-2.07E1));
#1200=DIRECTION('',(0.E0,1.E0,0.E0));
#1201=DIRECTION('',(1.E0,0.E0,0.E0));
#1202=AXIS2_PLACEMENT_3D('',#1199,#1200,#1201);
#1203=PLANE('',#1202);
#1204=ORIENTED_EDGE('',*,*,#1179,.F.);
#1205=ORIENTED_EDGE('',*,*,#1193,.F.);
#1206=EDGE_LOOP('',(#1204,#1205));
#1207=FACE_OUTER_BOUND('',#1206,.F.);
#1208=ADVANCED_FACE('',(#1207),#1203,.T.);
#1209=CARTESIAN_POINT('',(-3.45E0,3.E0,-1.035E1));
#1210=DIRECTION('',(0.E0,1.E0,0.E0));
#1211=DIRECTION('',(1.E0,0.E0,0.E0));
#1212=AXIS2_PLACEMENT_3D('',#1209,#1210,#1211);
#1213=CYLINDRICAL_SURFACE('',#1212,1.4E0);
#1214=ORIENTED_EDGE('',*,*,#1000,.F.);
#1216=ORIENTED_EDGE('',*,*,#1215,.T.);
#1218=ORIENTED_EDGE('',*,*,#1217,.T.);
#1220=ORIENTED_EDGE('',*,*,#1219,.F.);
#1221=EDGE_LOOP('',(#1214,#1216,#1218,#1220));
#1222=FACE_OUTER_BOUND('',#1221,.F.);
#1223=ADVANCED_FACE('',(#1222),#1213,.T.);
#1224=CARTESIAN_POINT('',(-3.45E0,3.E0,-1.035E1));
#1225=DIRECTION('',(0.E0,1.E0,0.E0));
#1226=DIRECTION('',(1.E0,0.E0,0.E0));
#1227=AXIS2_PLACEMENT_3D('',#1224,#1225,#1226);
#1228=CYLINDRICAL_SURFACE('',#1227,1.4E0);
#1229=ORIENTED_EDGE('',*,*,#1002,.F.);
#1230=ORIENTED_EDGE('',*,*,#1219,.T.);
#1232=ORIENTED_EDGE('',*,*,#1231,.T.);
#1233=ORIENTED_EDGE('',*,*,#1215,.F.);
#1234=EDGE_LOOP('',(#1229,#1230,#1232,#1233));
#1235=FACE_OUTER_BOUND('',#1234,.F.);
#1236=ADVANCED_FACE('',(#1235),#1228,.T.);
#1237=CARTESIAN_POINT('',(6.9E0,4.E1,-2.07E1));
#1238=DIRECTION('',(0.E0,1.E0,0.E0));
#1239=DIRECTION('',(1.E0,0.E0,0.E0));
#1240=AXIS2_PLACEMENT_3D('',#1237,#1238,#1239);
#1241=PLANE('',#1240);
#1242=ORIENTED_EDGE('',*,*,#1217,.F.);
#1243=ORIENTED_EDGE('',*,*,#1231,.F.);
#1244=EDGE_LOOP('',(#1242,#1243));
#1245=FACE_OUTER_BOUND('',#1244,.F.);
#1246=ADVANCED_FACE('',(#1245),#1241,.T.);
#1247=CARTESIAN_POINT('',(-1.035E1,3.E0,-1.035E1));
#1248=DIRECTION('',(0.E0,1.E0,0.E0));
#1249=DIRECTION('',(1.E0,0.E0,0.E0));
#1250=AXIS2_PLACEMENT_3D('',#1247,#1248,#1249);
#1251=CYLINDRICAL_SURFACE('',#1250,1.4E0);
#1252=ORIENTED_EDGE('',*,*,#1006,.F.);
#1254=ORIENTED_EDGE('',*,*,#1253,.T.);
#1256=ORIENTED_EDGE('',*,*,#1255,.T.);
#1258=ORIENTED_EDGE('',*,*,#1257,.F.);
#1259=EDGE_LOOP('',(#1252,#1254,#1256,#1258));
#1260=FACE_OUTER_BOUND('',#1259,.F.);
#1261=ADVANCED_FACE('',(#1260),#1251,.T.);
#1262=CARTESIAN_POINT('',(-1.035E1,3.E0,-1.035E1));
#1263=DIRECTION('',(0.E0,1.E0,0.E0));
#1264=DIRECTION('',(1.E0,0.E0,0.E0));
#1265=AXIS2_PLACEMENT_3D('',#1262,#1263,#1264);
#1266=CYLINDRICAL_SURFACE('',#1265,1.4E0);
#1267=ORIENTED_EDGE('',*,*,#1008,.F.);
#1268=ORIENTED_EDGE('',*,*,#1257,.T.);
#1270=ORIENTED_EDGE('',*,*,#1269,.T.);
#1271=ORIENTED_EDGE('',*,*,#1253,.F.);
#1272=EDGE_LOOP('',(#1267,#1268,#1270,#1271));
#1273=FACE_OUTER_BOUND('',#1272,.F.);
#1274=ADVANCED_FACE('',(#1273),#1266,.T.);
#1275=CARTESIAN_POINT('',(0.E0,4.E1,-2.07E1));
#1276=DIRECTION('',(0.E0,1.E0,0.E0));
#1277=DIRECTION('',(1.E0,0.E0,0.E0));
#1278=AXIS2_PLACEMENT_3D('',#1275,#1276,#1277);
#1279=PLANE('',#1278);
#1280=ORIENTED_EDGE('',*,*,#1255,.F.);
#1281=ORIENTED_EDGE('',*,*,#1269,.F.);
#1282=EDGE_LOOP('',(#1280,#1281));
#1283=FACE_OUTER_BOUND('',#1282,.F.);
#1284=ADVANCED_FACE('',(#1283),#1279,.T.);
#1285=CARTESIAN_POINT('',(1.035E1,3.E0,-3.45E0));
#1286=DIRECTION('',(0.E0,1.E0,0.E0));
#1287=DIRECTION('',(1.E0,0.E0,0.E0));
#1288=AXIS2_PLACEMENT_3D('',#1285,#1286,#1287);
#1289=CYLINDRICAL_SURFACE('',#1288,1.4E0);
#1290=ORIENTED_EDGE('',*,*,#1012,.F.);
#1292=ORIENTED_EDGE('',*,*,#1291,.T.);
#1294=ORIENTED_EDGE('',*,*,#1293,.T.);
#1296=ORIENTED_EDGE('',*,*,#1295,.F.);
#1297=EDGE_LOOP('',(#1290,#1292,#1294,#1296));
#1298=FACE_OUTER_BOUND('',#1297,.F.);
#1299=ADVANCED_FACE('',(#1298),#1289,.T.);
#1300=CARTESIAN_POINT('',(1.035E1,3.E0,-3.45E0));
#1301=DIRECTION('',(0.E0,1.E0,0.E0));
#1302=DIRECTION('',(1.E0,0.E0,0.E0));
#1303=AXIS2_PLACEMENT_3D('',#1300,#1301,#1302);
#1304=CYLINDRICAL_SURFACE('',#1303,1.4E0);
#1305=ORIENTED_EDGE('',*,*,#1014,.F.);
#1306=ORIENTED_EDGE('',*,*,#1295,.T.);
#1308=ORIENTED_EDGE('',*,*,#1307,.T.);
#1309=ORIENTED_EDGE('',*,*,#1291,.F.);
#1310=EDGE_LOOP('',(#1305,#1306,#1308,#1309));
#1311=FACE_OUTER_BOUND('',#1310,.F.);
#1312=ADVANCED_FACE('',(#1311),#1304,.T.);
#1313=CARTESIAN_POINT('',(2.07E1,4.E1,-1.38E1));
#1314=DIRECTION('',(0.E0,1.E0,0.E0));
#1315=DIRECTION('',(1.E0,0.E0,0.E0));
#1316=AXIS2_PLACEMENT_3D('',#1313,#1314,#1315);
#1317=PLANE('',#1316);
#1318=ORIENTED_EDGE('',*,*,#1293,.F.);
#1319=ORIENTED_EDGE('',*,*,#1307,.F.);
#1320=EDGE_LOOP('',(#1318,#1319));
#1321=FACE_OUTER_BOUND('',#1320,.F.);
#1322=ADVANCED_FACE('',(#1321),#1317,.T.);
#1323=CARTESIAN_POINT('',(3.45E0,3.E0,-3.45E0));
#1324=DIRECTION('',(0.E0,1.E0,0.E0));
#1325=DIRECTION('',(1.E0,0.E0,0.E0));
#1326=AXIS2_PLACEMENT_3D('',#1323,#1324,#1325);
#1327=CYLINDRICAL_SURFACE('',#1326,1.4E0);
#1328=ORIENTED_EDGE('',*,*,#1018,.F.);
#1330=ORIENTED_EDGE('',*,*,#1329,.T.);
#1332=ORIENTED_EDGE('',*,*,#1331,.T.);
#1334=ORIENTED_EDGE('',*,*,#1333,.F.);
#1335=EDGE_LOOP('',(#1328,#1330,#1332,#1334));
#1336=FACE_OUTER_BOUND('',#1335,.F.);
#1337=ADVANCED_FACE('',(#1336),#1327,.T.);
#1338=CARTESIAN_POINT('',(3.45E0,3.E0,-3.45E0));
#1339=DIRECTION('',(0.E0,1.E0,0.E0));
#1340=DIRECTION('',(1.E0,0.E0,0.E0));
#1341=AXIS2_PLACEMENT_3D('',#1338,#1339,#1340);
#1342=CYLINDRICAL_SURFACE('',#1341,1.4E0);
#1343=ORIENTED_EDGE('',*,*,#1020,.F.);
#1344=ORIENTED_EDGE('',*,*,#1333,.T.);
#1346=ORIENTED_EDGE('',*,*,#1345,.T.);
#1347=ORIENTED_EDGE('',*,*,#1329,.F.);
#1348=EDGE_LOOP('',(#1343,#1344,#1346,#1347));
#1349=FACE_OUTER_BOUND('',#1348,.F.);
#1350=ADVANCED_FACE('',(#1349),#1342,.T.);
#1351=CARTESIAN_POINT('',(1.38E1,4.E1,-1.38E1));
#1352=DIRECTION('',(0.E0,1.E0,0.E0));
#1353=DIRECTION('',(1.E0,0.E0,0.E0));
#1354=AXIS2_PLACEMENT_3D('',#1351,#1352,#1353);
#1355=PLANE('',#1354);
#1356=ORIENTED_EDGE('',*,*,#1331,.F.);
#1357=ORIENTED_EDGE('',*,*,#1345,.F.);
#1358=EDGE_LOOP('',(#1356,#1357));
#1359=FACE_OUTER_BOUND('',#1358,.F.);
#1360=ADVANCED_FACE('',(#1359),#1355,.T.);
#1361=CARTESIAN_POINT('',(-3.45E0,3.E0,-3.45E0));
#1362=DIRECTION('',(0.E0,1.E0,0.E0));
#1363=DIRECTION('',(1.E0,0.E0,0.E0));
#1364=AXIS2_PLACEMENT_3D('',#1361,#1362,#1363);
#1365=CYLINDRICAL_SURFACE('',#1364,1.4E0);
#1366=ORIENTED_EDGE('',*,*,#1024,.F.);
#1368=ORIENTED_EDGE('',*,*,#1367,.T.);
#1370=ORIENTED_EDGE('',*,*,#1369,.T.);
#1372=ORIENTED_EDGE('',*,*,#1371,.F.);
#1373=EDGE_LOOP('',(#1366,#1368,#1370,#1372));
#1374=FACE_OUTER_BOUND('',#1373,.F.);
#1375=ADVANCED_FACE('',(#1374),#1365,.T.);
#1376=CARTESIAN_POINT('',(-3.45E0,3.E0,-3.45E0));
#1377=DIRECTION('',(0.E0,1.E0,0.E0));
#1378=DIRECTION('',(1.E0,0.E0,0.E0));
#1379=AXIS2_PLACEMENT_3D('',#1376,#1377,#1378);
#1380=CYLINDRICAL_SURFACE('',#1379,1.4E0);
#1381=ORIENTED_EDGE('',*,*,#1026,.F.);
#1382=ORIENTED_EDGE('',*,*,#1371,.T.);
#1384=ORIENTED_EDGE('',*,*,#1383,.T.);
#1385=ORIENTED_EDGE('',*,*,#1367,.F.);
#1386=EDGE_LOOP('',(#1381,#1382,#1384,#1385));
#1387=FACE_OUTER_BOUND('',#1386,.F.);
#1388=ADVANCED_FACE('',(#1387),#1380,.T.);
#1389=CARTESIAN_POINT('',(6.9E0,4.E1,-1.38E1));
#1390=DIRECTION('',(0.E0,1.E0,0.E0));
#1391=DIRECTION('',(1.E0,0.E0,0.E0));
#1392=AXIS2_PLACEMENT_3D('',#1389,#1390,#1391);
#1393=PLANE('',#1392);
#1394=ORIENTED_EDGE('',*,*,#1369,.F.);
#1395=ORIENTED_EDGE('',*,*,#1383,.F.);
#1396=EDGE_LOOP('',(#1394,#1395));
#1397=FACE_OUTER_BOUND('',#1396,.F.);
#1398=ADVANCED_FACE('',(#1397),#1393,.T.);
#1399=CARTESIAN_POINT('',(-1.035E1,3.E0,-3.45E0));
#1400=DIRECTION('',(0.E0,1.E0,0.E0));
#1401=DIRECTION('',(1.E0,0.E0,0.E0));
#1402=AXIS2_PLACEMENT_3D('',#1399,#1400,#1401);
#1403=CYLINDRICAL_SURFACE('',#1402,1.4E0);
#1404=ORIENTED_EDGE('',*,*,#1030,.F.);
#1406=ORIENTED_EDGE('',*,*,#1405,.T.);
#1408=ORIENTED_EDGE('',*,*,#1407,.T.);
#1410=ORIENTED_EDGE('',*,*,#1409,.F.);
#1411=EDGE_LOOP('',(#1404,#1406,#1408,#1410));
#1412=FACE_OUTER_BOUND('',#1411,.F.);
#1413=ADVANCED_FACE('',(#1412),#1403,.T.);
#1414=CARTESIAN_POINT('',(-1.035E1,3.E0,-3.45E0));
#1415=DIRECTION('',(0.E0,1.E0,0.E0));
#1416=DIRECTION('',(1.E0,0.E0,0.E0));
#1417=AXIS2_PLACEMENT_3D('',#1414,#1415,#1416);
#1418=CYLINDRICAL_SURFACE('',#1417,1.4E0);
#1419=ORIENTED_EDGE('',*,*,#1032,.F.);
#1420=ORIENTED_EDGE('',*,*,#1409,.T.);
#1422=ORIENTED_EDGE('',*,*,#1421,.T.);
#1423=ORIENTED_EDGE('',*,*,#1405,.F.);
#1424=EDGE_LOOP('',(#1419,#1420,#1422,#1423));
#1425=FACE_OUTER_BOUND('',#1424,.F.);
#1426=ADVANCED_FACE('',(#1425),#1418,.T.);
#1427=CARTESIAN_POINT('',(0.E0,4.E1,-1.38E1));
#1428=DIRECTION('',(0.E0,1.E0,0.E0));
#1429=DIRECTION('',(1.E0,0.E0,0.E0));
#1430=AXIS2_PLACEMENT_3D('',#1427,#1428,#1429);
#1431=PLANE('',#1430);
#1432=ORIENTED_EDGE('',*,*,#1407,.F.);
#1433=ORIENTED_EDGE('',*,*,#1421,.F.);
#1434=EDGE_LOOP('',(#1432,#1433));
#1435=FACE_OUTER_BOUND('',#1434,.F.);
#1436=ADVANCED_FACE('',(#1435),#1431,.T.);
#1437=CARTESIAN_POINT('',(1.035E1,3.E0,3.45E0));
#1438=DIRECTION('',(0.E0,1.E0,0.E0));
#1439=DIRECTION('',(1.E0,0.E0,0.E0));
#1440=AXIS2_PLACEMENT_3D('',#1437,#1438,#1439);
#1441=CYLINDRICAL_SURFACE('',#1440,1.4E0);
#1442=ORIENTED_EDGE('',*,*,#1036,.F.);
#1444=ORIENTED_EDGE('',*,*,#1443,.T.);
#1446=ORIENTED_EDGE('',*,*,#1445,.T.);
#1448=ORIENTED_EDGE('',*,*,#1447,.F.);
#1449=EDGE_LOOP('',(#1442,#1444,#1446,#1448));
#1450=FACE_OUTER_BOUND('',#1449,.F.);
#1451=ADVANCED_FACE('',(#1450),#1441,.T.);
#1452=CARTESIAN_POINT('',(1.035E1,3.E0,3.45E0));
#1453=DIRECTION('',(0.E0,1.E0,0.E0));
#1454=DIRECTION('',(1.E0,0.E0,0.E0));
#1455=AXIS2_PLACEMENT_3D('',#1452,#1453,#1454);
#1456=CYLINDRICAL_SURFACE('',#1455,1.4E0);
#1457=ORIENTED_EDGE('',*,*,#1038,.F.);
#1458=ORIENTED_EDGE('',*,*,#1447,.T.);
#1460=ORIENTED_EDGE('',*,*,#1459,.T.);
#1461=ORIENTED_EDGE('',*,*,#1443,.F.);
#1462=EDGE_LOOP('',(#1457,#1458,#1460,#1461));
#1463=FACE_OUTER_BOUND('',#1462,.F.);
#1464=ADVANCED_FACE('',(#1463),#1456,.T.);
#1465=CARTESIAN_POINT('',(2.07E1,4.E1,-6.9E0));
#1466=DIRECTION('',(0.E0,1.E0,0.E0));
#1467=DIRECTION('',(1.E0,0.E0,0.E0));
#1468=AXIS2_PLACEMENT_3D('',#1465,#1466,#1467);
#1469=PLANE('',#1468);
#1470=ORIENTED_EDGE('',*,*,#1445,.F.);
#1471=ORIENTED_EDGE('',*,*,#1459,.F.);
#1472=EDGE_LOOP('',(#1470,#1471));
#1473=FACE_OUTER_BOUND('',#1472,.F.);
#1474=ADVANCED_FACE('',(#1473),#1469,.T.);
#1475=CARTESIAN_POINT('',(3.45E0,3.E0,3.45E0));
#1476=DIRECTION('',(0.E0,1.E0,0.E0));
#1477=DIRECTION('',(1.E0,0.E0,0.E0));
#1478=AXIS2_PLACEMENT_3D('',#1475,#1476,#1477);
#1479=CYLINDRICAL_SURFACE('',#1478,1.4E0);
#1480=ORIENTED_EDGE('',*,*,#1042,.F.);
#1482=ORIENTED_EDGE('',*,*,#1481,.T.);
#1484=ORIENTED_EDGE('',*,*,#1483,.T.);
#1486=ORIENTED_EDGE('',*,*,#1485,.F.);
#1487=EDGE_LOOP('',(#1480,#1482,#1484,#1486));
#1488=FACE_OUTER_BOUND('',#1487,.F.);
#1489=ADVANCED_FACE('',(#1488),#1479,.T.);
#1490=CARTESIAN_POINT('',(3.45E0,3.E0,3.45E0));
#1491=DIRECTION('',(0.E0,1.E0,0.E0));
#1492=DIRECTION('',(1.E0,0.E0,0.E0));
#1493=AXIS2_PLACEMENT_3D('',#1490,#1491,#1492);
#1494=CYLINDRICAL_SURFACE('',#1493,1.4E0);
#1495=ORIENTED_EDGE('',*,*,#1044,.F.);
#1496=ORIENTED_EDGE('',*,*,#1485,.T.);
#1498=ORIENTED_EDGE('',*,*,#1497,.T.);
#1499=ORIENTED_EDGE('',*,*,#1481,.F.);
#1500=EDGE_LOOP('',(#1495,#1496,#1498,#1499));
#1501=FACE_OUTER_BOUND('',#1500,.F.);
#1502=ADVANCED_FACE('',(#1501),#1494,.T.);
#1503=CARTESIAN_POINT('',(1.38E1,4.E1,-6.9E0));
#1504=DIRECTION('',(0.E0,1.E0,0.E0));
#1505=DIRECTION('',(1.E0,0.E0,0.E0));
#1506=AXIS2_PLACEMENT_3D('',#1503,#1504,#1505);
#1507=PLANE('',#1506);
#1508=ORIENTED_EDGE('',*,*,#1483,.F.);
#1509=ORIENTED_EDGE('',*,*,#1497,.F.);
#1510=EDGE_LOOP('',(#1508,#1509));
#1511=FACE_OUTER_BOUND('',#1510,.F.);
#1512=ADVANCED_FACE('',(#1511),#1507,.T.);
#1513=CARTESIAN_POINT('',(-3.45E0,3.E0,3.45E0));
#1514=DIRECTION('',(0.E0,1.E0,0.E0));
#1515=DIRECTION('',(1.E0,0.E0,0.E0));
#1516=AXIS2_PLACEMENT_3D('',#1513,#1514,#1515);
#1517=CYLINDRICAL_SURFACE('',#1516,1.4E0);
#1518=ORIENTED_EDGE('',*,*,#1048,.F.);
#1520=ORIENTED_EDGE('',*,*,#1519,.T.);
#1522=ORIENTED_EDGE('',*,*,#1521,.T.);
#1524=ORIENTED_EDGE('',*,*,#1523,.F.);
#1525=EDGE_LOOP('',(#1518,#1520,#1522,#1524));
#1526=FACE_OUTER_BOUND('',#1525,.F.);
#1527=ADVANCED_FACE('',(#1526),#1517,.T.);
#1528=CARTESIAN_POINT('',(-3.45E0,3.E0,3.45E0));
#1529=DIRECTION('',(0.E0,1.E0,0.E0));
#1530=DIRECTION('',(1.E0,0.E0,0.E0));
#1531=AXIS2_PLACEMENT_3D('',#1528,#1529,#1530);
#1532=CYLINDRICAL_SURFACE('',#1531,1.4E0);
#1533=ORIENTED_EDGE('',*,*,#1050,.F.);
#1534=ORIENTED_EDGE('',*,*,#1523,.T.);
#1536=ORIENTED_EDGE('',*,*,#1535,.T.);
#1537=ORIENTED_EDGE('',*,*,#1519,.F.);
#1538=EDGE_LOOP('',(#1533,#1534,#1536,#1537));
#1539=FACE_OUTER_BOUND('',#1538,.F.);
#1540=ADVANCED_FACE('',(#1539),#1532,.T.);
#1541=CARTESIAN_POINT('',(6.9E0,4.E1,-6.9E0));
#1542=DIRECTION('',(0.E0,1.E0,0.E0));
#1543=DIRECTION('',(1.E0,0.E0,0.E0));
#1544=AXIS2_PLACEMENT_3D('',#1541,#1542,#1543);
#1545=PLANE('',#1544);
#1546=ORIENTED_EDGE('',*,*,#1521,.F.);
#1547=ORIENTED_EDGE('',*,*,#1535,.F.);
#1548=EDGE_LOOP('',(#1546,#1547));
#1549=FACE_OUTER_BOUND('',#1548,.F.);
#1550=ADVANCED_FACE('',(#1549),#1545,.T.);
#1551=CARTESIAN_POINT('',(-1.035E1,3.E0,3.45E0));
#1552=DIRECTION('',(0.E0,1.E0,0.E0));
#1553=DIRECTION('',(1.E0,0.E0,0.E0));
#1554=AXIS2_PLACEMENT_3D('',#1551,#1552,#1553);
#1555=CYLINDRICAL_SURFACE('',#1554,1.4E0);
#1556=ORIENTED_EDGE('',*,*,#1054,.F.);
#1558=ORIENTED_EDGE('',*,*,#1557,.T.);
#1560=ORIENTED_EDGE('',*,*,#1559,.T.);
#1562=ORIENTED_EDGE('',*,*,#1561,.F.);
#1563=EDGE_LOOP('',(#1556,#1558,#1560,#1562));
#1564=FACE_OUTER_BOUND('',#1563,.F.);
#1565=ADVANCED_FACE('',(#1564),#1555,.T.);
#1566=CARTESIAN_POINT('',(-1.035E1,3.E0,3.45E0));
#1567=DIRECTION('',(0.E0,1.E0,0.E0));
#1568=DIRECTION('',(1.E0,0.E0,0.E0));
#1569=AXIS2_PLACEMENT_3D('',#1566,#1567,#1568);
#1570=CYLINDRICAL_SURFACE('',#1569,1.4E0);
#1571=ORIENTED_EDGE('',*,*,#1056,.F.);
#1572=ORIENTED_EDGE('',*,*,#1561,.T.);
#1574=ORIENTED_EDGE('',*,*,#1573,.T.);
#1575=ORIENTED_EDGE('',*,*,#1557,.F.);
#1576=EDGE_LOOP('',(#1571,#1572,#1574,#1575));
#1577=FACE_OUTER_BOUND('',#1576,.F.);
#1578=ADVANCED_FACE('',(#1577),#1570,.T.);
#1579=CARTESIAN_POINT('',(0.E0,4.E1,-6.9E0));
#1580=DIRECTION('',(0.E0,1.E0,0.E0));
#1581=DIRECTION('',(1.E0,0.E0,0.E0));
#1582=AXIS2_PLACEMENT_3D('',#1579,#1580,#1581);
#1583=PLANE('',#1582);
#1584=ORIENTED_EDGE('',*,*,#1559,.F.);
#1585=ORIENTED_EDGE('',*,*,#1573,.F.);
#1586=EDGE_LOOP('',(#1584,#1585));
#1587=FACE_OUTER_BOUND('',#1586,.F.);
#1588=ADVANCED_FACE('',(#1587),#1583,.T.);
#1589=CARTESIAN_POINT('',(1.035E1,3.E0,1.035E1));
#1590=DIRECTION('',(0.E0,1.E0,0.E0));
#1591=DIRECTION('',(1.E0,0.E0,0.E0));
#1592=AXIS2_PLACEMENT_3D('',#1589,#1590,#1591);
#1593=CYLINDRICAL_SURFACE('',#1592,1.4E0);
#1594=ORIENTED_EDGE('',*,*,#1060,.F.);
#1596=ORIENTED_EDGE('',*,*,#1595,.T.);
#1598=ORIENTED_EDGE('',*,*,#1597,.T.);
#1600=ORIENTED_EDGE('',*,*,#1599,.F.);
#1601=EDGE_LOOP('',(#1594,#1596,#1598,#1600));
#1602=FACE_OUTER_BOUND('',#1601,.F.);
#1603=ADVANCED_FACE('',(#1602),#1593,.T.);
#1604=CARTESIAN_POINT('',(1.035E1,3.E0,1.035E1));
#1605=DIRECTION('',(0.E0,1.E0,0.E0));
#1606=DIRECTION('',(1.E0,0.E0,0.E0));
#1607=AXIS2_PLACEMENT_3D('',#1604,#1605,#1606);
#1608=CYLINDRICAL_SURFACE('',#1607,1.4E0);
#1609=ORIENTED_EDGE('',*,*,#1062,.F.);
#1610=ORIENTED_EDGE('',*,*,#1599,.T.);
#1612=ORIENTED_EDGE('',*,*,#1611,.T.);
#1613=ORIENTED_EDGE('',*,*,#1595,.F.);
#1614=EDGE_LOOP('',(#1609,#1610,#1612,#1613));
#1615=FACE_OUTER_BOUND('',#1614,.F.);
#1616=ADVANCED_FACE('',(#1615),#1608,.T.);
#1617=CARTESIAN_POINT('',(2.07E1,4.E1,0.E0));
#1618=DIRECTION('',(0.E0,1.E0,0.E0));
#1619=DIRECTION('',(1.E0,0.E0,0.E0));
#1620=AXIS2_PLACEMENT_3D('',#1617,#1618,#1619);
#1621=PLANE('',#1620);
#1622=ORIENTED_EDGE('',*,*,#1597,.F.);
#1623=ORIENTED_EDGE('',*,*,#1611,.F.);
#1624=EDGE_LOOP('',(#1622,#1623));
#1625=FACE_OUTER_BOUND('',#1624,.F.);
#1626=ADVANCED_FACE('',(#1625),#1621,.T.);
#1627=CARTESIAN_POINT('',(3.45E0,3.E0,1.035E1));
#1628=DIRECTION('',(0.E0,1.E0,0.E0));
#1629=DIRECTION('',(1.E0,0.E0,0.E0));
#1630=AXIS2_PLACEMENT_3D('',#1627,#1628,#1629);
#1631=CYLINDRICAL_SURFACE('',#1630,1.4E0);
#1632=ORIENTED_EDGE('',*,*,#1066,.F.);
#1634=ORIENTED_EDGE('',*,*,#1633,.T.);
#1636=ORIENTED_EDGE('',*,*,#1635,.T.);
#1638=ORIENTED_EDGE('',*,*,#1637,.F.);
#1639=EDGE_LOOP('',(#1632,#1634,#1636,#1638));
#1640=FACE_OUTER_BOUND('',#1639,.F.);
#1641=ADVANCED_FACE('',(#1640),#1631,.T.);
#1642=CARTESIAN_POINT('',(3.45E0,3.E0,1.035E1));
#1643=DIRECTION('',(0.E0,1.E0,0.E0));
#1644=DIRECTION('',(1.E0,0.E0,0.E0));
#1645=AXIS2_PLACEMENT_3D('',#1642,#1643,#1644);
#1646=CYLINDRICAL_SURFACE('',#1645,1.4E0);
#1647=ORIENTED_EDGE('',*,*,#1068,.F.);
#1648=ORIENTED_EDGE('',*,*,#1637,.T.);
#1650=ORIENTED_EDGE('',*,*,#1649,.T.);
#1651=ORIENTED_EDGE('',*,*,#1633,.F.);
#1652=EDGE_LOOP('',(#1647,#1648,#1650,#1651));
#1653=FACE_OUTER_BOUND('',#1652,.F.);
#1654=ADVANCED_FACE('',(#1653),#1646,.T.);
#1655=CARTESIAN_POINT('',(1.38E1,4.E1,0.E0));
#1656=DIRECTION('',(0.E0,1.E0,0.E0));
#1657=DIRECTION('',(1.E0,0.E0,0.E0));
#1658=AXIS2_PLACEMENT_3D('',#1655,#1656,#1657);
#1659=PLANE('',#1658);
#1660=ORIENTED_EDGE('',*,*,#1635,.F.);
#1661=ORIENTED_EDGE('',*,*,#1649,.F.);
#1662=EDGE_LOOP('',(#1660,#1661));
#1663=FACE_OUTER_BOUND('',#1662,.F.);
#1664=ADVANCED_FACE('',(#1663),#1659,.T.);
#1665=CARTESIAN_POINT('',(-3.45E0,3.E0,1.035E1));
#1666=DIRECTION('',(0.E0,1.E0,0.E0));
#1667=DIRECTION('',(1.E0,0.E0,0.E0));
#1668=AXIS2_PLACEMENT_3D('',#1665,#1666,#1667);
#1669=CYLINDRICAL_SURFACE('',#1668,1.4E0);
#1670=ORIENTED_EDGE('',*,*,#1072,.F.);
#1672=ORIENTED_EDGE('',*,*,#1671,.T.);
#1674=ORIENTED_EDGE('',*,*,#1673,.T.);
#1676=ORIENTED_EDGE('',*,*,#1675,.F.);
#1677=EDGE_LOOP('',(#1670,#1672,#1674,#1676));
#1678=FACE_OUTER_BOUND('',#1677,.F.);
#1679=ADVANCED_FACE('',(#1678),#1669,.T.);
#1680=CARTESIAN_POINT('',(-3.45E0,3.E0,1.035E1));
#1681=DIRECTION('',(0.E0,1.E0,0.E0));
#1682=DIRECTION('',(1.E0,0.E0,0.E0));
#1683=AXIS2_PLACEMENT_3D('',#1680,#1681,#1682);
#1684=CYLINDRICAL_SURFACE('',#1683,1.4E0);
#1685=ORIENTED_EDGE('',*,*,#1074,.F.);
#1686=ORIENTED_EDGE('',*,*,#1675,.T.);
#1688=ORIENTED_EDGE('',*,*,#1687,.T.);
#1689=ORIENTED_EDGE('',*,*,#1671,.F.);
#1690=EDGE_LOOP('',(#1685,#1686,#1688,#1689));
#1691=FACE_OUTER_BOUND('',#1690,.F.);
#1692=ADVANCED_FACE('',(#1691),#1684,.T.);
#1693=CARTESIAN_POINT('',(6.9E0,4.E1,0.E0));
#1694=DIRECTION('',(0.E0,1.E0,0.E0));
#1695=DIRECTION('',(1.E0,0.E0,0.E0));
#1696=AXIS2_PLACEMENT_3D('',#1693,#1694,#1695);
#1697=PLANE('',#1696);
#1698=ORIENTED_EDGE('',*,*,#1673,.F.);
#1699=ORIENTED_EDGE('',*,*,#1687,.F.);
#1700=EDGE_LOOP('',(#1698,#1699));
#1701=FACE_OUTER_BOUND('',#1700,.F.);
#1702=ADVANCED_FACE('',(#1701),#1697,.T.);
#1703=CARTESIAN_POINT('',(0.E0,2.5E0,0.E0));
#1704=DIRECTION('',(0.E0,-1.E0,0.E0));
#1705=DIRECTION('',(-1.E0,0.E0,0.E0));
#1706=AXIS2_PLACEMENT_3D('',#1703,#1704,#1705);
#1707=CONICAL_SURFACE('',#1706,1.971132486541E1,3.E1);
#1708=ORIENTED_EDGE('',*,*,#983,.T.);
#1709=ORIENTED_EDGE('',*,*,#973,.T.);
#1710=ORIENTED_EDGE('',*,*,#943,.F.);
#1711=ORIENTED_EDGE('',*,*,#970,.F.);
#1712=EDGE_LOOP('',(#1708,#1709,#1710,#1711));
#1713=FACE_OUTER_BOUND('',#1712,.F.);
#1714=ADVANCED_FACE('',(#1713),#1707,.T.);
#1715=CARTESIAN_POINT('',(-1.035E1,3.E0,1.035E1));
#1716=DIRECTION('',(0.E0,1.E0,0.E0));
#1717=DIRECTION('',(1.E0,0.E0,0.E0));
#1718=AXIS2_PLACEMENT_3D('',#1715,#1716,#1717);
#1719=CYLINDRICAL_SURFACE('',#1718,1.4E0);
#1720=ORIENTED_EDGE('',*,*,#1078,.F.);
#1722=ORIENTED_EDGE('',*,*,#1721,.T.);
#1724=ORIENTED_EDGE('',*,*,#1723,.T.);
#1726=ORIENTED_EDGE('',*,*,#1725,.F.);
#1727=EDGE_LOOP('',(#1720,#1722,#1724,#1726));
#1728=FACE_OUTER_BOUND('',#1727,.F.);
#1729=ADVANCED_FACE('',(#1728),#1719,.T.);
#1730=CARTESIAN_POINT('',(-1.035E1,3.E0,1.035E1));
#1731=DIRECTION('',(0.E0,1.E0,0.E0));
#1732=DIRECTION('',(1.E0,0.E0,0.E0));
#1733=AXIS2_PLACEMENT_3D('',#1730,#1731,#1732);
#1734=CYLINDRICAL_SURFACE('',#1733,1.4E0);
#1735=ORIENTED_EDGE('',*,*,#1080,.F.);
#1736=ORIENTED_EDGE('',*,*,#1725,.T.);
#1738=ORIENTED_EDGE('',*,*,#1737,.T.);
#1739=ORIENTED_EDGE('',*,*,#1721,.F.);
#1740=EDGE_LOOP('',(#1735,#1736,#1738,#1739));
#1741=FACE_OUTER_BOUND('',#1740,.F.);
#1742=ADVANCED_FACE('',(#1741),#1734,.T.);
#1743=CARTESIAN_POINT('',(0.E0,4.E1,0.E0));
#1744=DIRECTION('',(0.E0,1.E0,0.E0));
#1745=DIRECTION('',(1.E0,0.E0,0.E0));
#1746=AXIS2_PLACEMENT_3D('',#1743,#1744,#1745);
#1747=PLANE('',#1746);
#1748=ORIENTED_EDGE('',*,*,#1723,.F.);
#1749=ORIENTED_EDGE('',*,*,#1737,.F.);
#1750=EDGE_LOOP('',(#1748,#1749));
#1751=FACE_OUTER_BOUND('',#1750,.F.);
#1752=ADVANCED_FACE('',(#1751),#1747,.T.);
#1753=CARTESIAN_POINT('',(-3.45E0,3.E0,1.725E1));
#1754=DIRECTION('',(0.E0,1.E0,0.E0));
#1755=DIRECTION('',(1.E0,0.E0,0.E0));
#1756=AXIS2_PLACEMENT_3D('',#1753,#1754,#1755);
#1757=CYLINDRICAL_SURFACE('',#1756,1.4E0);
#1758=ORIENTED_EDGE('',*,*,#1084,.F.);
#1760=ORIENTED_EDGE('',*,*,#1759,.T.);
#1762=ORIENTED_EDGE('',*,*,#1761,.T.);
#1764=ORIENTED_EDGE('',*,*,#1763,.F.);
#1765=EDGE_LOOP('',(#1758,#1760,#1762,#1764));
#1766=FACE_OUTER_BOUND('',#1765,.F.);
#1767=ADVANCED_FACE('',(#1766),#1757,.T.);
#1768=CARTESIAN_POINT('',(-3.45E0,3.E0,1.725E1));
#1769=DIRECTION('',(0.E0,1.E0,0.E0));
#1770=DIRECTION('',(1.E0,0.E0,0.E0));
#1771=AXIS2_PLACEMENT_3D('',#1768,#1769,#1770);
#1772=CYLINDRICAL_SURFACE('',#1771,1.4E0);
#1773=ORIENTED_EDGE('',*,*,#1086,.F.);
#1774=ORIENTED_EDGE('',*,*,#1763,.T.);
#1776=ORIENTED_EDGE('',*,*,#1775,.T.);
#1777=ORIENTED_EDGE('',*,*,#1759,.F.);
#1778=EDGE_LOOP('',(#1773,#1774,#1776,#1777));
#1779=FACE_OUTER_BOUND('',#1778,.F.);
#1780=ADVANCED_FACE('',(#1779),#1772,.T.);
#1781=CARTESIAN_POINT('',(0.E0,4.E1,0.E0));
#1782=DIRECTION('',(0.E0,1.E0,0.E0));
#1783=DIRECTION('',(1.E0,0.E0,0.E0));
#1784=AXIS2_PLACEMENT_3D('',#1781,#1782,#1783);
#1785=PLANE('',#1784);
#1786=ORIENTED_EDGE('',*,*,#1761,.F.);
#1787=ORIENTED_EDGE('',*,*,#1775,.F.);
#1788=EDGE_LOOP('',(#1786,#1787));
#1789=FACE_OUTER_BOUND('',#1788,.F.);
#1790=ADVANCED_FACE('',(#1789),#1785,.T.);
#1791=CARTESIAN_POINT('',(-1.725E1,3.E0,3.45E0));
#1792=DIRECTION('',(0.E0,1.E0,0.E0));
#1793=DIRECTION('',(1.E0,0.E0,0.E0));
#1794=AXIS2_PLACEMENT_3D('',#1791,#1792,#1793);
#1795=CYLINDRICAL_SURFACE('',#1794,1.4E0);
#1796=ORIENTED_EDGE('',*,*,#1090,.F.);
#1798=ORIENTED_EDGE('',*,*,#1797,.T.);
#1800=ORIENTED_EDGE('',*,*,#1799,.T.);
#1802=ORIENTED_EDGE('',*,*,#1801,.F.);
#1803=EDGE_LOOP('',(#1796,#1798,#1800,#1802));
#1804=FACE_OUTER_BOUND('',#1803,.F.);
#1805=ADVANCED_FACE('',(#1804),#1795,.T.);
#1806=CARTESIAN_POINT('',(-1.725E1,3.E0,3.45E0));
#1807=DIRECTION('',(0.E0,1.E0,0.E0));
#1808=DIRECTION('',(1.E0,0.E0,0.E0));
#1809=AXIS2_PLACEMENT_3D('',#1806,#1807,#1808);
#1810=CYLINDRICAL_SURFACE('',#1809,1.4E0);
#1811=ORIENTED_EDGE('',*,*,#1092,.F.);
#1812=ORIENTED_EDGE('',*,*,#1801,.T.);
#1814=ORIENTED_EDGE('',*,*,#1813,.T.);
#1815=ORIENTED_EDGE('',*,*,#1797,.F.);
#1816=EDGE_LOOP('',(#1811,#1812,#1814,#1815));
#1817=FACE_OUTER_BOUND('',#1816,.F.);
#1818=ADVANCED_FACE('',(#1817),#1810,.T.);
#1819=CARTESIAN_POINT('',(0.E0,4.E1,0.E0));
#1820=DIRECTION('',(0.E0,1.E0,0.E0));
#1821=DIRECTION('',(1.E0,0.E0,0.E0));
#1822=AXIS2_PLACEMENT_3D('',#1819,#1820,#1821);
#1823=PLANE('',#1822);
#1824=ORIENTED_EDGE('',*,*,#1799,.F.);
#1825=ORIENTED_EDGE('',*,*,#1813,.F.);
#1826=EDGE_LOOP('',(#1824,#1825));
#1827=FACE_OUTER_BOUND('',#1826,.F.);
#1828=ADVANCED_FACE('',(#1827),#1823,.T.);
#1829=CARTESIAN_POINT('',(3.45E0,3.E0,1.725E1));
#1830=DIRECTION('',(0.E0,-1.E0,0.E0));
#1831=DIRECTION('',(-1.E0,0.E0,0.E0));
#1832=AXIS2_PLACEMENT_3D('',#1829,#1830,#1831);
#1833=CYLINDRICAL_SURFACE('',#1832,1.4E0);
#1834=ORIENTED_EDGE('',*,*,#1096,.T.);
#1836=ORIENTED_EDGE('',*,*,#1835,.T.);
#1838=ORIENTED_EDGE('',*,*,#1837,.F.);
#1840=ORIENTED_EDGE('',*,*,#1839,.F.);
#1841=EDGE_LOOP('',(#1834,#1836,#1838,#1840));
#1842=FACE_OUTER_BOUND('',#1841,.F.);
#1843=ADVANCED_FACE('',(#1842),#1833,.T.);
#1844=CARTESIAN_POINT('',(3.45E0,3.E0,1.725E1));
#1845=DIRECTION('',(0.E0,-1.E0,0.E0));
#1846=DIRECTION('',(-1.E0,0.E0,0.E0));
#1847=AXIS2_PLACEMENT_3D('',#1844,#1845,#1846);
#1848=CYLINDRICAL_SURFACE('',#1847,1.4E0);
#1849=ORIENTED_EDGE('',*,*,#1098,.T.);
#1850=ORIENTED_EDGE('',*,*,#1839,.T.);
#1852=ORIENTED_EDGE('',*,*,#1851,.F.);
#1853=ORIENTED_EDGE('',*,*,#1835,.F.);
#1854=EDGE_LOOP('',(#1849,#1850,#1852,#1853));
#1855=FACE_OUTER_BOUND('',#1854,.F.);
#1856=ADVANCED_FACE('',(#1855),#1848,.T.);
#1857=CARTESIAN_POINT('',(0.E0,4.E1,0.E0));
#1858=DIRECTION('',(0.E0,-1.E0,0.E0));
#1859=DIRECTION('',(-1.E0,0.E0,0.E0));
#1860=AXIS2_PLACEMENT_3D('',#1857,#1858,#1859);
#1861=PLANE('',#1860);
#1862=ORIENTED_EDGE('',*,*,#1837,.T.);
#1863=ORIENTED_EDGE('',*,*,#1851,.T.);
#1864=EDGE_LOOP('',(#1862,#1863));
#1865=FACE_OUTER_BOUND('',#1864,.F.);
#1866=ADVANCED_FACE('',(#1865),#1861,.F.);
#1867=CARTESIAN_POINT('',(1.725E1,3.E0,3.45E0));
#1868=DIRECTION('',(0.E0,-1.E0,0.E0));
#1869=DIRECTION('',(-1.E0,0.E0,0.E0));
#1870=AXIS2_PLACEMENT_3D('',#1867,#1868,#1869);
#1871=CYLINDRICAL_SURFACE('',#1870,1.4E0);
#1872=ORIENTED_EDGE('',*,*,#1102,.T.);
#1874=ORIENTED_EDGE('',*,*,#1873,.T.);
#1876=ORIENTED_EDGE('',*,*,#1875,.F.);
#1878=ORIENTED_EDGE('',*,*,#1877,.F.);
#1879=EDGE_LOOP('',(#1872,#1874,#1876,#1878));
#1880=FACE_OUTER_BOUND('',#1879,.F.);
#1881=ADVANCED_FACE('',(#1880),#1871,.T.);
#1882=CARTESIAN_POINT('',(1.725E1,3.E0,3.45E0));
#1883=DIRECTION('',(0.E0,-1.E0,0.E0));
#1884=DIRECTION('',(-1.E0,0.E0,0.E0));
#1885=AXIS2_PLACEMENT_3D('',#1882,#1883,#1884);
#1886=CYLINDRICAL_SURFACE('',#1885,1.4E0);
#1887=ORIENTED_EDGE('',*,*,#1104,.T.);
#1888=ORIENTED_EDGE('',*,*,#1877,.T.);
#1890=ORIENTED_EDGE('',*,*,#1889,.F.);
#1891=ORIENTED_EDGE('',*,*,#1873,.F.);
#1892=EDGE_LOOP('',(#1887,#1888,#1890,#1891));
#1893=FACE_OUTER_BOUND('',#1892,.F.);
#1894=ADVANCED_FACE('',(#1893),#1886,.T.);
#1895=CARTESIAN_POINT('',(0.E0,4.E1,0.E0));
#1896=DIRECTION('',(0.E0,-1.E0,0.E0));
#1897=DIRECTION('',(-1.E0,0.E0,0.E0));
#1898=AXIS2_PLACEMENT_3D('',#1895,#1896,#1897);
#1899=PLANE('',#1898);
#1900=ORIENTED_EDGE('',*,*,#1875,.T.);
#1901=ORIENTED_EDGE('',*,*,#1889,.T.);
#1902=EDGE_LOOP('',(#1900,#1901));
#1903=FACE_OUTER_BOUND('',#1902,.F.);
#1904=ADVANCED_FACE('',(#1903),#1899,.F.);
#1905=CARTESIAN_POINT('',(-3.45E0,3.E0,-1.725E1));
#1906=DIRECTION('',(0.E0,-1.E0,0.E0));
#1907=DIRECTION('',(1.E0,0.E0,0.E0));
#1908=AXIS2_PLACEMENT_3D('',#1905,#1906,#1907);
#1909=CYLINDRICAL_SURFACE('',#1908,1.4E0);
#1910=ORIENTED_EDGE('',*,*,#1108,.T.);
#1912=ORIENTED_EDGE('',*,*,#1911,.T.);
#1914=ORIENTED_EDGE('',*,*,#1913,.F.);
#1916=ORIENTED_EDGE('',*,*,#1915,.F.);
#1917=EDGE_LOOP('',(#1910,#1912,#1914,#1916));
#1918=FACE_OUTER_BOUND('',#1917,.F.);
#1919=ADVANCED_FACE('',(#1918),#1909,.T.);
#1920=CARTESIAN_POINT('',(-3.45E0,3.E0,-1.725E1));
#1921=DIRECTION('',(0.E0,-1.E0,0.E0));
#1922=DIRECTION('',(1.E0,0.E0,0.E0));
#1923=AXIS2_PLACEMENT_3D('',#1920,#1921,#1922);
#1924=CYLINDRICAL_SURFACE('',#1923,1.4E0);
#1925=ORIENTED_EDGE('',*,*,#1110,.T.);
#1926=ORIENTED_EDGE('',*,*,#1915,.T.);
#1928=ORIENTED_EDGE('',*,*,#1927,.F.);
#1929=ORIENTED_EDGE('',*,*,#1911,.F.);
#1930=EDGE_LOOP('',(#1925,#1926,#1928,#1929));
#1931=FACE_OUTER_BOUND('',#1930,.F.);
#1932=ADVANCED_FACE('',(#1931),#1924,.T.);
#1933=CARTESIAN_POINT('',(0.E0,4.E1,0.E0));
#1934=DIRECTION('',(0.E0,-1.E0,0.E0));
#1935=DIRECTION('',(1.E0,0.E0,0.E0));
#1936=AXIS2_PLACEMENT_3D('',#1933,#1934,#1935);
#1937=PLANE('',#1936);
#1938=ORIENTED_EDGE('',*,*,#1913,.T.);
#1939=ORIENTED_EDGE('',*,*,#1927,.T.);
#1940=EDGE_LOOP('',(#1938,#1939));
#1941=FACE_OUTER_BOUND('',#1940,.F.);
#1942=ADVANCED_FACE('',(#1941),#1937,.F.);
#1943=CARTESIAN_POINT('',(-1.725E1,3.E0,-3.45E0));
#1944=DIRECTION('',(0.E0,-1.E0,0.E0));
#1945=DIRECTION('',(1.E0,0.E0,0.E0));
#1946=AXIS2_PLACEMENT_3D('',#1943,#1944,#1945);
#1947=CYLINDRICAL_SURFACE('',#1946,1.4E0);
#1948=ORIENTED_EDGE('',*,*,#1114,.T.);
#1950=ORIENTED_EDGE('',*,*,#1949,.T.);
#1952=ORIENTED_EDGE('',*,*,#1951,.F.);
#1954=ORIENTED_EDGE('',*,*,#1953,.F.);
#1955=EDGE_LOOP('',(#1948,#1950,#1952,#1954));
#1956=FACE_OUTER_BOUND('',#1955,.F.);
#1957=ADVANCED_FACE('',(#1956),#1947,.T.);
#1958=CARTESIAN_POINT('',(-1.725E1,3.E0,-3.45E0));
#1959=DIRECTION('',(0.E0,-1.E0,0.E0));
#1960=DIRECTION('',(1.E0,0.E0,0.E0));
#1961=AXIS2_PLACEMENT_3D('',#1958,#1959,#1960);
#1962=CYLINDRICAL_SURFACE('',#1961,1.4E0);
#1963=ORIENTED_EDGE('',*,*,#1116,.T.);
#1964=ORIENTED_EDGE('',*,*,#1953,.T.);
#1966=ORIENTED_EDGE('',*,*,#1965,.F.);
#1967=ORIENTED_EDGE('',*,*,#1949,.F.);
#1968=EDGE_LOOP('',(#1963,#1964,#1966,#1967));
#1969=FACE_OUTER_BOUND('',#1968,.F.);
#1970=ADVANCED_FACE('',(#1969),#1962,.T.);
#1971=CARTESIAN_POINT('',(0.E0,4.E1,0.E0));
#1972=DIRECTION('',(0.E0,-1.E0,0.E0));
#1973=DIRECTION('',(1.E0,0.E0,0.E0));
#1974=AXIS2_PLACEMENT_3D('',#1971,#1972,#1973);
#1975=PLANE('',#1974);
#1976=ORIENTED_EDGE('',*,*,#1951,.T.);
#1977=ORIENTED_EDGE('',*,*,#1965,.T.);
#1978=EDGE_LOOP('',(#1976,#1977));
#1979=FACE_OUTER_BOUND('',#1978,.F.);
#1980=ADVANCED_FACE('',(#1979),#1975,.F.);
#1981=CARTESIAN_POINT('',(3.45E0,3.E0,-1.725E1));
#1982=DIRECTION('',(0.E0,1.E0,0.E0));
#1983=DIRECTION('',(-1.E0,0.E0,0.E0));
#1984=AXIS2_PLACEMENT_3D('',#1981,#1982,#1983);
#1985=CYLINDRICAL_SURFACE('',#1984,1.4E0);
#1986=ORIENTED_EDGE('',*,*,#1120,.F.);
#1988=ORIENTED_EDGE('',*,*,#1987,.T.);
#1990=ORIENTED_EDGE('',*,*,#1989,.T.);
#1992=ORIENTED_EDGE('',*,*,#1991,.F.);
#1993=EDGE_LOOP('',(#1986,#1988,#1990,#1992));
#1994=FACE_OUTER_BOUND('',#1993,.F.);
#1995=ADVANCED_FACE('',(#1994),#1985,.T.);
#1996=CARTESIAN_POINT('',(3.45E0,3.E0,-1.725E1));
#1997=DIRECTION('',(0.E0,1.E0,0.E0));
#1998=DIRECTION('',(-1.E0,0.E0,0.E0));
#1999=AXIS2_PLACEMENT_3D('',#1996,#1997,#1998);
#2000=CYLINDRICAL_SURFACE('',#1999,1.4E0);
#2001=ORIENTED_EDGE('',*,*,#1122,.F.);
#2002=ORIENTED_EDGE('',*,*,#1991,.T.);
#2004=ORIENTED_EDGE('',*,*,#2003,.T.);
#2005=ORIENTED_EDGE('',*,*,#1987,.F.);
#2006=EDGE_LOOP('',(#2001,#2002,#2004,#2005));
#2007=FACE_OUTER_BOUND('',#2006,.F.);
#2008=ADVANCED_FACE('',(#2007),#2000,.T.);
#2009=CARTESIAN_POINT('',(0.E0,4.E1,0.E0));
#2010=DIRECTION('',(0.E0,1.E0,0.E0));
#2011=DIRECTION('',(-1.E0,0.E0,0.E0));
#2012=AXIS2_PLACEMENT_3D('',#2009,#2010,#2011);
#2013=PLANE('',#2012);
#2014=ORIENTED_EDGE('',*,*,#1989,.F.);
#2015=ORIENTED_EDGE('',*,*,#2003,.F.);
#2016=EDGE_LOOP('',(#2014,#2015));
#2017=FACE_OUTER_BOUND('',#2016,.F.);
#2018=ADVANCED_FACE('',(#2017),#2013,.T.);
#2019=CARTESIAN_POINT('',(1.725E1,3.E0,-3.45E0));
#2020=DIRECTION('',(0.E0,1.E0,0.E0));
#2021=DIRECTION('',(-1.E0,0.E0,0.E0));
#2022=AXIS2_PLACEMENT_3D('',#2019,#2020,#2021);
#2023=CYLINDRICAL_SURFACE('',#2022,1.4E0);
#2024=ORIENTED_EDGE('',*,*,#1126,.F.);
#2026=ORIENTED_EDGE('',*,*,#2025,.T.);
#2028=ORIENTED_EDGE('',*,*,#2027,.T.);
#2030=ORIENTED_EDGE('',*,*,#2029,.F.);
#2031=EDGE_LOOP('',(#2024,#2026,#2028,#2030));
#2032=FACE_OUTER_BOUND('',#2031,.F.);
#2033=ADVANCED_FACE('',(#2032),#2023,.T.);
#2034=CARTESIAN_POINT('',(1.725E1,3.E0,-3.45E0));
#2035=DIRECTION('',(0.E0,1.E0,0.E0));
#2036=DIRECTION('',(-1.E0,0.E0,0.E0));
#2037=AXIS2_PLACEMENT_3D('',#2034,#2035,#2036);
#2038=CYLINDRICAL_SURFACE('',#2037,1.4E0);
#2039=ORIENTED_EDGE('',*,*,#1128,.F.);
#2040=ORIENTED_EDGE('',*,*,#2029,.T.);
#2042=ORIENTED_EDGE('',*,*,#2041,.T.);
#2043=ORIENTED_EDGE('',*,*,#2025,.F.);
#2044=EDGE_LOOP('',(#2039,#2040,#2042,#2043));
#2045=FACE_OUTER_BOUND('',#2044,.F.);
#2046=ADVANCED_FACE('',(#2045),#2038,.T.);
#2047=CARTESIAN_POINT('',(0.E0,4.E1,0.E0));
#2048=DIRECTION('',(0.E0,1.E0,0.E0));
#2049=DIRECTION('',(-1.E0,0.E0,0.E0));
#2050=AXIS2_PLACEMENT_3D('',#2047,#2048,#2049);
#2051=PLANE('',#2050);
#2052=ORIENTED_EDGE('',*,*,#2027,.F.);
#2053=ORIENTED_EDGE('',*,*,#2041,.F.);
#2054=EDGE_LOOP('',(#2052,#2053));
#2055=FACE_OUTER_BOUND('',#2054,.F.);
#2056=ADVANCED_FACE('',(#2055),#2051,.T.);
#2057=CLOSED_SHELL('',(#934,#949,#962,#977,#1132,#1147,#1160,#1170,#1185,#1198,
#1208,#1223,#1236,#1246,#1261,#1274,#1284,#1299,#1312,#1322,#1337,#1350,#1360,
#1375,#1388,#1398,#1413,#1426,#1436,#1451,#1464,#1474,#1489,#1502,#1512,#1527,
#1540,#1550,#1565,#1578,#1588,#1603,#1616,#1626,#1641,#1654,#1664,#1679,#1692,
#1702,#1714,#1729,#1742,#1752,#1767,#1780,#1790,#1805,#1818,#1828,#1843,#1856,
#1866,#1881,#1894,#1904,#1919,#1932,#1942,#1957,#1970,#1980,#1995,#2008,#2018,
#2033,#2046,#2056));
#2058=MANIFOLD_SOLID_BREP('',#2057);
#2059=(LENGTH_UNIT()NAMED_UNIT(*)SI_UNIT(.MILLI.,.METRE.));
#2060=DIMENSIONAL_EXPONENTS(0.E0,0.E0,0.E0,0.E0,0.E0,0.E0,0.E0);
#2061=(NAMED_UNIT(*)PLANE_ANGLE_UNIT()SI_UNIT($,.RADIAN.));
#2062=PLANE_ANGLE_MEASURE_WITH_UNIT(PLANE_ANGLE_MEASURE(1.745329251994E-2),
#2061);
#2063=(CONVERSION_BASED_UNIT('DEGREE',#2062)NAMED_UNIT(#2060)PLANE_ANGLE_UNIT
());
#2064=(NAMED_UNIT(*)SI_UNIT($,.STERADIAN.)SOLID_ANGLE_UNIT());
#2065=UNCERTAINTY_MEASURE_WITH_UNIT(LENGTH_MEASURE(6.927926102146E-3),#2059,
'closure',
'Maximum model space distance between geometric entities at asserted connectivities');
#2066=(GEOMETRIC_REPRESENTATION_CONTEXT(3)GLOBAL_UNCERTAINTY_ASSIGNED_CONTEXT(
(#2065))GLOBAL_UNIT_ASSIGNED_CONTEXT((#2059,#2063,#2064))REPRESENTATION_CONTEXT
('ID1','3'));
#2068=APPLICATION_CONTEXT
('CONFIGURATION CONTROLLED 3D DESIGNS OF MECHANICAL PARTS AND ASSEMBLIES');
#2069=APPLICATION_PROTOCOL_DEFINITION('international standard',
'config_control_design',1994,#2068);
#2070=DESIGN_CONTEXT('',#2068,'design');
#2071=MECHANICAL_CONTEXT('',#2068,'mechanical');
#2072=PRODUCT('CN40-40B','CN40-40B','NOT SPECIFIED',(#2071));
#2073=PRODUCT_DEFINITION_FORMATION_WITH_SPECIFIED_SOURCE('1','LAST_VERSION',
#2072,.MADE.);
#2077=PRODUCT_CATEGORY('part','');
#2078=PRODUCT_RELATED_PRODUCT_CATEGORY('detail','',(#2072));
#2079=PRODUCT_CATEGORY_RELATIONSHIP('','',#2077,#2078);
#2080=SECURITY_CLASSIFICATION_LEVEL('unclassified');
#2081=SECURITY_CLASSIFICATION('','',#2080);
#2082=CC_DESIGN_SECURITY_CLASSIFICATION(#2081,(#2073));
#2083=APPROVAL_STATUS('approved');
#2084=APPROVAL(#2083,'');
#2085=CC_DESIGN_APPROVAL(#2084,(#2081,#2073,#2074));
#2086=CALENDAR_DATE(109,25,3);
#2087=COORDINATED_UNIVERSAL_TIME_OFFSET(9,0,.AHEAD.);
#2088=LOCAL_TIME(16,19,1.7E1,#2087);
#2089=DATE_AND_TIME(#2086,#2088);
#2090=APPROVAL_DATE_TIME(#2089,#2084);
#2091=DATE_TIME_ROLE('creation_date');
#2092=CC_DESIGN_DATE_AND_TIME_ASSIGNMENT(#2089,#2091,(#2074));
#2093=DATE_TIME_ROLE('classification_date');
#2094=CC_DESIGN_DATE_AND_TIME_ASSIGNMENT(#2089,#2093,(#2081));
#2095=PERSON('UNSPECIFIED','UNSPECIFIED',$,$,$,$);
#2096=ORGANIZATION('UNSPECIFIED','UNSPECIFIED','UNSPECIFIED');
#2097=PERSON_AND_ORGANIZATION(#2095,#2096);
#2098=APPROVAL_ROLE('approver');
#2099=APPROVAL_PERSON_ORGANIZATION(#2097,#2084,#2098);
#2100=PERSON_AND_ORGANIZATION_ROLE('creator');
#2101=CC_DESIGN_PERSON_AND_ORGANIZATION_ASSIGNMENT(#2097,#2100,(#2073,#2074));
#2102=PERSON_AND_ORGANIZATION_ROLE('design_supplier');
#2103=CC_DESIGN_PERSON_AND_ORGANIZATION_ASSIGNMENT(#2097,#2102,(#2073));
#2104=PERSON_AND_ORGANIZATION_ROLE('classification_officer');
#2105=CC_DESIGN_PERSON_AND_ORGANIZATION_ASSIGNMENT(#2097,#2104,(#2081));
#2106=PERSON_AND_ORGANIZATION_ROLE('design_owner');
#2107=CC_DESIGN_PERSON_AND_ORGANIZATION_ASSIGNMENT(#2097,#2106,(#2072));
#5=CIRCLE('',#4,2.E1);
#10=CIRCLE('',#9,2.E1);
#23=CIRCLE('',#22,1.942264973081E1);
#32=CIRCLE('',#31,2.E1);
#41=CIRCLE('',#40,1.4E0);
#46=CIRCLE('',#45,1.4E0);
#51=CIRCLE('',#50,1.4E0);
#56=CIRCLE('',#55,1.4E0);
#61=CIRCLE('',#60,1.4E0);
#66=CIRCLE('',#65,1.4E0);
#71=CIRCLE('',#70,1.4E0);
#76=CIRCLE('',#75,1.4E0);
#81=CIRCLE('',#80,1.4E0);
#86=CIRCLE('',#85,1.4E0);
#91=CIRCLE('',#90,1.4E0);
#96=CIRCLE('',#95,1.4E0);
#101=CIRCLE('',#100,1.4E0);
#106=CIRCLE('',#105,1.4E0);
#111=CIRCLE('',#110,1.4E0);
#116=CIRCLE('',#115,1.4E0);
#121=CIRCLE('',#120,1.4E0);
#126=CIRCLE('',#125,1.4E0);
#131=CIRCLE('',#130,1.4E0);
#136=CIRCLE('',#135,1.4E0);
#141=CIRCLE('',#140,1.4E0);
#146=CIRCLE('',#145,1.4E0);
#151=CIRCLE('',#150,1.4E0);
#156=CIRCLE('',#155,1.4E0);
#161=CIRCLE('',#160,1.4E0);
#166=CIRCLE('',#165,1.4E0);
#171=CIRCLE('',#170,1.4E0);
#176=CIRCLE('',#175,1.4E0);
#181=CIRCLE('',#180,1.4E0);
#186=CIRCLE('',#185,1.4E0);
#191=CIRCLE('',#190,1.4E0);
#196=CIRCLE('',#195,1.4E0);
#201=CIRCLE('',#200,1.4E0);
#206=CIRCLE('',#205,1.4E0);
#211=CIRCLE('',#210,1.4E0);
#216=CIRCLE('',#215,1.4E0);
#221=CIRCLE('',#220,1.4E0);
#226=CIRCLE('',#225,1.4E0);
#231=CIRCLE('',#230,1.4E0);
#236=CIRCLE('',#235,1.4E0);
#241=CIRCLE('',#240,1.4E0);
#246=CIRCLE('',#245,1.4E0);
#251=CIRCLE('',#250,1.4E0);
#256=CIRCLE('',#255,1.4E0);
#261=CIRCLE('',#260,1.4E0);
#266=CIRCLE('',#265,1.4E0);
#271=CIRCLE('',#270,1.4E0);
#276=CIRCLE('',#275,1.4E0);
#289=CIRCLE('',#288,1.4E0);
#294=CIRCLE('',#293,1.4E0);
#307=CIRCLE('',#306,1.4E0);
#312=CIRCLE('',#311,1.4E0);
#325=CIRCLE('',#324,1.4E0);
#330=CIRCLE('',#329,1.4E0);
#343=CIRCLE('',#342,1.4E0);
#348=CIRCLE('',#347,1.4E0);
#361=CIRCLE('',#360,1.4E0);
#366=CIRCLE('',#365,1.4E0);
#379=CIRCLE('',#378,1.4E0);
#384=CIRCLE('',#383,1.4E0);
#397=CIRCLE('',#396,1.4E0);
#402=CIRCLE('',#401,1.4E0);
#415=CIRCLE('',#414,1.4E0);
#420=CIRCLE('',#419,1.4E0);
#433=CIRCLE('',#432,1.4E0);
#438=CIRCLE('',#437,1.4E0);
#451=CIRCLE('',#450,1.4E0);
#456=CIRCLE('',#455,1.4E0);
#469=CIRCLE('',#468,1.4E0);
#474=CIRCLE('',#473,1.4E0);
#487=CIRCLE('',#486,1.4E0);
#492=CIRCLE('',#491,1.4E0);
#505=CIRCLE('',#504,1.4E0);
#510=CIRCLE('',#509,1.4E0);
#523=CIRCLE('',#522,1.4E0);
#528=CIRCLE('',#527,1.4E0);
#541=CIRCLE('',#540,1.4E0);
#546=CIRCLE('',#545,1.4E0);
#551=CIRCLE('',#550,1.942264973081E1);
#556=CIRCLE('',#555,2.E1);
#569=CIRCLE('',#568,1.4E0);
#574=CIRCLE('',#573,1.4E0);
#587=CIRCLE('',#586,1.4E0);
#592=CIRCLE('',#591,1.4E0);
#605=CIRCLE('',#604,1.4E0);
#610=CIRCLE('',#609,1.4E0);
#623=CIRCLE('',#622,1.4E0);
#628=CIRCLE('',#627,1.4E0);
#641=CIRCLE('',#640,1.4E0);
#646=CIRCLE('',#645,1.4E0);
#659=CIRCLE('',#658,1.4E0);
#664=CIRCLE('',#663,1.4E0);
#677=CIRCLE('',#676,1.4E0);
#682=CIRCLE('',#681,1.4E0);
#695=CIRCLE('',#694,1.4E0);
#700=CIRCLE('',#699,1.4E0);
#713=CIRCLE('',#712,1.4E0);
#718=CIRCLE('',#717,1.4E0);
#928=EDGE_CURVE('',#721,#722,#5,.T.);
#930=EDGE_CURVE('',#722,#721,#10,.T.);
#941=EDGE_CURVE('',#721,#729,#14,.T.);
#943=EDGE_CURVE('',#729,#730,#556,.T.);
#945=EDGE_CURVE('',#722,#730,#18,.T.);
#957=EDGE_CURVE('',#730,#729,#32,.T.);
#968=EDGE_CURVE('',#726,#725,#23,.T.);
#970=EDGE_CURVE('',#725,#729,#27,.T.);
#973=EDGE_CURVE('',#726,#730,#36,.T.);
#983=EDGE_CURVE('',#725,#726,#551,.T.);
#988=EDGE_CURVE('',#873,#874,#41,.T.);
#990=EDGE_CURVE('',#874,#873,#46,.T.);
#994=EDGE_CURVE('',#865,#866,#51,.T.);
#996=EDGE_CURVE('',#866,#865,#56,.T.);
#1000=EDGE_CURVE('',#857,#858,#61,.T.);
#1002=EDGE_CURVE('',#858,#857,#66,.T.);
#1006=EDGE_CURVE('',#849,#850,#71,.T.);
#1008=EDGE_CURVE('',#850,#849,#76,.T.);
#1012=EDGE_CURVE('',#841,#842,#81,.T.);
#1014=EDGE_CURVE('',#842,#841,#86,.T.);
#1018=EDGE_CURVE('',#833,#834,#91,.T.);
#1020=EDGE_CURVE('',#834,#833,#96,.T.);
#1024=EDGE_CURVE('',#825,#826,#101,.T.);
#1026=EDGE_CURVE('',#826,#825,#106,.T.);
#1030=EDGE_CURVE('',#817,#818,#111,.T.);
#1032=EDGE_CURVE('',#818,#817,#116,.T.);
#1036=EDGE_CURVE('',#809,#810,#121,.T.);
#1038=EDGE_CURVE('',#810,#809,#126,.T.);
#1042=EDGE_CURVE('',#801,#802,#131,.T.);
#1044=EDGE_CURVE('',#802,#801,#136,.T.);
#1048=EDGE_CURVE('',#793,#794,#141,.T.);
#1050=EDGE_CURVE('',#794,#793,#146,.T.);
#1054=EDGE_CURVE('',#785,#786,#151,.T.);
#1056=EDGE_CURVE('',#786,#785,#156,.T.);
#1060=EDGE_CURVE('',#777,#778,#161,.T.);
#1062=EDGE_CURVE('',#778,#777,#166,.T.);
#1066=EDGE_CURVE('',#769,#770,#171,.T.);
#1068=EDGE_CURVE('',#770,#769,#176,.T.);
#1072=EDGE_CURVE('',#761,#762,#181,.T.);
#1074=EDGE_CURVE('',#762,#761,#186,.T.);
#1078=EDGE_CURVE('',#737,#738,#191,.T.);
#1080=EDGE_CURVE('',#738,#737,#196,.T.);
#1084=EDGE_CURVE('',#745,#746,#201,.T.);
#1086=EDGE_CURVE('',#746,#745,#206,.T.);
#1090=EDGE_CURVE('',#753,#754,#211,.T.);
#1092=EDGE_CURVE('',#754,#753,#216,.T.);
#1096=EDGE_CURVE('',#881,#882,#221,.T.);
#1098=EDGE_CURVE('',#882,#881,#226,.T.);
#1102=EDGE_CURVE('',#889,#890,#231,.T.);
#1104=EDGE_CURVE('',#890,#889,#236,.T.);
#1108=EDGE_CURVE('',#897,#898,#241,.T.);
#1110=EDGE_CURVE('',#898,#897,#246,.T.);
#1114=EDGE_CURVE('',#905,#906,#251,.T.);
#1116=EDGE_CURVE('',#906,#905,#256,.T.);
#1120=EDGE_CURVE('',#913,#914,#261,.T.);
#1122=EDGE_CURVE('',#914,#913,#266,.T.);
#1126=EDGE_CURVE('',#921,#922,#271,.T.);
#1128=EDGE_CURVE('',#922,#921,#276,.T.);
#1139=EDGE_CURVE('',#873,#869,#280,.T.);
#1141=EDGE_CURVE('',#869,#870,#289,.T.);
#1143=EDGE_CURVE('',#874,#870,#284,.T.);
#1155=EDGE_CURVE('',#870,#869,#294,.T.);
#1177=EDGE_CURVE('',#865,#861,#298,.T.);
#1179=EDGE_CURVE('',#861,#862,#307,.T.);
#1181=EDGE_CURVE('',#866,#862,#302,.T.);
#1193=EDGE_CURVE('',#862,#861,#312,.T.);
#1215=EDGE_CURVE('',#857,#853,#316,.T.);
#1217=EDGE_CURVE('',#853,#854,#325,.T.);
#1219=EDGE_CURVE('',#858,#854,#320,.T.);
#1231=EDGE_CURVE('',#854,#853,#330,.T.);
#1253=EDGE_CURVE('',#849,#845,#334,.T.);
#1255=EDGE_CURVE('',#845,#846,#343,.T.);
#1257=EDGE_CURVE('',#850,#846,#338,.T.);
#1269=EDGE_CURVE('',#846,#845,#348,.T.);
#1291=EDGE_CURVE('',#841,#837,#352,.T.);
#1293=EDGE_CURVE('',#837,#838,#361,.T.);
#1295=EDGE_CURVE('',#842,#838,#356,.T.);
#1307=EDGE_CURVE('',#838,#837,#366,.T.);
#1329=EDGE_CURVE('',#833,#829,#370,.T.);
#1331=EDGE_CURVE('',#829,#830,#379,.T.);
#1333=EDGE_CURVE('',#834,#830,#374,.T.);
#1345=EDGE_CURVE('',#830,#829,#384,.T.);
#1367=EDGE_CURVE('',#825,#821,#388,.T.);
#1369=EDGE_CURVE('',#821,#822,#397,.T.);
#1371=EDGE_CURVE('',#826,#822,#392,.T.);
#1383=EDGE_CURVE('',#822,#821,#402,.T.);
#1405=EDGE_CURVE('',#817,#813,#406,.T.);
#1407=EDGE_CURVE('',#813,#814,#415,.T.);
#1409=EDGE_CURVE('',#818,#814,#410,.T.);
#1421=EDGE_CURVE('',#814,#813,#420,.T.);
#1443=EDGE_CURVE('',#809,#805,#424,.T.);
#1445=EDGE_CURVE('',#805,#806,#433,.T.);
#1447=EDGE_CURVE('',#810,#806,#428,.T.);
#1459=EDGE_CURVE('',#806,#805,#438,.T.);
#1481=EDGE_CURVE('',#801,#797,#442,.T.);
#1483=EDGE_CURVE('',#797,#798,#451,.T.);
#1485=EDGE_CURVE('',#802,#798,#446,.T.);
#1497=EDGE_CURVE('',#798,#797,#456,.T.);
#1519=EDGE_CURVE('',#793,#789,#460,.T.);
#1521=EDGE_CURVE('',#789,#790,#469,.T.);
#1523=EDGE_CURVE('',#794,#790,#464,.T.);
#1535=EDGE_CURVE('',#790,#789,#474,.T.);
#1557=EDGE_CURVE('',#785,#781,#478,.T.);
#1559=EDGE_CURVE('',#781,#782,#487,.T.);
#1561=EDGE_CURVE('',#786,#782,#482,.T.);
#1573=EDGE_CURVE('',#782,#781,#492,.T.);
#1595=EDGE_CURVE('',#777,#773,#496,.T.);
#1597=EDGE_CURVE('',#773,#774,#505,.T.);
#1599=EDGE_CURVE('',#778,#774,#500,.T.);
#1611=EDGE_CURVE('',#774,#773,#510,.T.);
#1633=EDGE_CURVE('',#769,#765,#514,.T.);
#1635=EDGE_CURVE('',#765,#766,#523,.T.);
#1637=EDGE_CURVE('',#770,#766,#518,.T.);
#1649=EDGE_CURVE('',#766,#765,#528,.T.);
#1671=EDGE_CURVE('',#761,#757,#532,.T.);
#1673=EDGE_CURVE('',#757,#758,#541,.T.);
#1675=EDGE_CURVE('',#762,#758,#536,.T.);
#1687=EDGE_CURVE('',#758,#757,#546,.T.);
#1721=EDGE_CURVE('',#737,#733,#560,.T.);
#1723=EDGE_CURVE('',#733,#734,#569,.T.);
#1725=EDGE_CURVE('',#738,#734,#564,.T.);
#1737=EDGE_CURVE('',#734,#733,#574,.T.);
#1759=EDGE_CURVE('',#745,#741,#578,.T.);
#1761=EDGE_CURVE('',#741,#742,#587,.T.);
#1763=EDGE_CURVE('',#746,#742,#582,.T.);
#1775=EDGE_CURVE('',#742,#741,#592,.T.);
#1797=EDGE_CURVE('',#753,#749,#596,.T.);
#1799=EDGE_CURVE('',#749,#750,#605,.T.);
#1801=EDGE_CURVE('',#754,#750,#600,.T.);
#1813=EDGE_CURVE('',#750,#749,#610,.T.);
#1835=EDGE_CURVE('',#882,#878,#618,.T.);
#1837=EDGE_CURVE('',#877,#878,#623,.T.);
#1839=EDGE_CURVE('',#881,#877,#614,.T.);
#1851=EDGE_CURVE('',#878,#877,#628,.T.);
#1873=EDGE_CURVE('',#890,#886,#636,.T.);
#1875=EDGE_CURVE('',#885,#886,#641,.T.);
#1877=EDGE_CURVE('',#889,#885,#632,.T.);
#1889=EDGE_CURVE('',#886,#885,#646,.T.);
#1911=EDGE_CURVE('',#898,#894,#654,.T.);
#1913=EDGE_CURVE('',#893,#894,#659,.T.);
#1915=EDGE_CURVE('',#897,#893,#650,.T.);
#1927=EDGE_CURVE('',#894,#893,#664,.T.);
#1949=EDGE_CURVE('',#906,#902,#672,.T.);
#1951=EDGE_CURVE('',#901,#902,#677,.T.);
#1953=EDGE_CURVE('',#905,#901,#668,.T.);
#1965=EDGE_CURVE('',#902,#901,#682,.T.);
#1987=EDGE_CURVE('',#913,#909,#686,.T.);
#1989=EDGE_CURVE('',#909,#910,#695,.T.);
#1991=EDGE_CURVE('',#914,#910,#690,.T.);
#2003=EDGE_CURVE('',#910,#909,#700,.T.);
#2025=EDGE_CURVE('',#921,#917,#704,.T.);
#2027=EDGE_CURVE('',#917,#918,#713,.T.);
#2029=EDGE_CURVE('',#922,#918,#708,.T.);
#2041=EDGE_CURVE('',#918,#917,#718,.T.);
#2067=ADVANCED_BREP_SHAPE_REPRESENTATION('',(#2058),#2066);
#2074=PRODUCT_DEFINITION('design','',#2073,#2070);
#2075=PRODUCT_DEFINITION_SHAPE('','SHAPE FOR CN40-40B.',#2074);
#2076=SHAPE_DEFINITION_REPRESENTATION(#2075,#2067);
ENDSEC;
END-ISO-10303-21;
