ISO-10303-21;
HEADER;
FILE_DESCRIPTION (( 'STEP AP214' ),
    '1' );
FILE_NAME ('TS250-80-2500.STEP',
    '2013-02-11T21:06:42',
    ( 'workpc' ),
    ( 'Microsoft' ),
    'SwSTEP 2.0',
    'SolidWorks 2013',
    '' );
FILE_SCHEMA (( 'AUTOMOTIVE_DESIGN' ));
ENDSEC;

DATA;
#1 = EDGE_CURVE ( 'NONE', #626, #280, #180, .T. ) ;
#2 = VECTOR ( 'NONE', #183, 39.37007874015748900 ) ;
#3 = VERTEX_POINT ( 'NONE', #281 ) ;
#4 = CARTESIAN_POINT ( 'NONE',  ( 0.0000000000000000000, 0.0000000000000000000, 0.0000000000000000000 ) ) ;
#5 = DIRECTION ( 'NONE',  ( -1.000000000000000000, 0.0000000000000000000, 0.0000000000000000000 ) ) ;
#6 = FACE_BOUND ( 'NONE', #557, .T. ) ;
#7 = PRESENTATION_LAYER_ASSIGNMENT (  '', '', ( #208 ) ) ;
#8 = EDGE_CURVE ( 'NONE', #576, #167, #150, .T. ) ;
#9 = CARTESIAN_POINT ( 'NONE',  ( 2.331874999999999700, -0.04687500000000002800, -0.02706329386826369600 ) ) ;
#10 = EDGE_CURVE ( 'NONE', #386, #455, #170, .T. ) ;
#11 = DIRECTION ( 'NONE',  ( 0.0000000000000000000, 0.0000000000000000000, 1.000000000000000000 ) ) ;
#12 = CLOSED_SHELL ( 'NONE', ( #134, #186, #608, #284, #234, #21, #236, #82, #383, #230, #85, #29, #560, #276, #334, #76, #223, #17 ) ) ;
#13 = SURFACE_STYLE_USAGE ( .BOTH. , #32 ) ;
#14 = VECTOR ( 'NONE', #411, 39.37007874015748100 ) ;
#15 = CARTESIAN_POINT ( 'NONE',  ( 2.421875000000000000, -0.04687500000000001400, 0.02706329386826371300 ) ) ;
#16 = CARTESIAN_POINT ( 'NONE',  ( 2.401875000000000000, 1.530808498934191500E-017, -0.1250000000000000000 ) ) ;
#17 = ADVANCED_FACE ( 'NONE', ( #80 ), #409, .T. ) ;
#18 = DIRECTION ( 'NONE',  ( -1.000000000000000000, 0.0000000000000000000, 0.0000000000000000000 ) ) ;
#19 = ORIENTED_EDGE ( 'NONE', *, *, #607, .T. ) ;
#20 =( GEOMETRIC_REPRESENTATION_CONTEXT ( 3 ) GLOBAL_UNCERTAINTY_ASSIGNED_CONTEXT ( ( #190 ) ) GLOBAL_UNIT_ASSIGNED_CONTEXT ( ( #310, #265, #261 ) ) REPRESENTATION_CONTEXT ( 'NONE', 'WORKASPACE' ) );
#21 = ADVANCED_FACE ( 'NONE', ( #6, #514 ), #73, .T. ) ;
#22 = DIRECTION ( 'NONE',  ( 0.0000000000000000000, 0.0000000000000000000, -1.000000000000000000 ) ) ;
#23 = CARTESIAN_POINT ( 'NONE',  ( 2.401875000000000000, 0.0000000000000000000, 0.0000000000000000000 ) ) ;
#24 = LINE ( 'NONE', #413, #225 ) ;
#25 = CARTESIAN_POINT ( 'NONE',  ( 2.421875000000000000, 0.0000000000000000000, 0.0000000000000000000 ) ) ;
#26 = CARTESIAN_POINT ( 'NONE',  ( 2.421875000000000000, -4.729846310483748400E-018, -0.05412658773652741200 ) ) ;
#27 = CARTESIAN_POINT ( 'NONE',  ( 2.331874999999999700, 0.04687500000000002100, -0.02706329386826369600 ) ) ;
#28 = CARTESIAN_POINT ( 'NONE',  ( 0.01999999999999951500, 0.0000000000000000000, 0.0000000000000000000 ) ) ;
#29 = ADVANCED_FACE ( 'NONE', ( #286 ), #604, .F. ) ;
#30 = DIRECTION ( 'NONE',  ( 0.0000000000000000000, 0.0000000000000000000, 1.000000000000000000 ) ) ;
#31 = CARTESIAN_POINT ( 'NONE',  ( 2.331874999999999700, -0.04687500000000001400, 0.02706329386826371300 ) ) ;
#32 = SURFACE_SIDE_STYLE ('',( #437 ) ) ;
#33 = EDGE_CURVE ( 'NONE', #326, #584, #388, .T. ) ;
#34 = ORIENTED_EDGE ( 'NONE', *, *, #587, .F. ) ;
#35 = ORIENTED_EDGE ( 'NONE', *, *, #105, .F. ) ;
#36 = EDGE_CURVE ( 'NONE', #628, #539, #434, .T. ) ;
#37 = FILL_AREA_STYLE_COLOUR ( '', #212 ) ;
#38 = DIRECTION ( 'NONE',  ( 0.0000000000000000000, 0.0000000000000000000, -1.000000000000000000 ) ) ;
#39 = EDGE_CURVE ( 'NONE', #280, #576, #90, .T. ) ;
#40 = LINE ( 'NONE', #27, #433 ) ;
#41 = EDGE_CURVE ( 'NONE', #512, #386, #418, .T. ) ;
#42 = LINE ( 'NONE', #178, #583 ) ;
#43 = DIRECTION ( 'NONE',  ( 0.0000000000000000000, 0.0000000000000000000, 1.000000000000000000 ) ) ;
#44 = EDGE_CURVE ( 'NONE', #539, #563, #412, .T. ) ;
#45 = LINE ( 'NONE', #301, #138 ) ;
#46 = ORIENTED_EDGE ( 'NONE', *, *, #1, .T. ) ;
#47 = CYLINDRICAL_SURFACE ( 'NONE', #240, 0.1250000000000000000 ) ;
#48 = STYLED_ITEM ( 'NONE', ( #292 ), #356 ) ;
#49 =( GEOMETRIC_REPRESENTATION_CONTEXT ( 3 ) GLOBAL_UNCERTAINTY_ASSIGNED_CONTEXT ( ( #462 ) ) GLOBAL_UNIT_ASSIGNED_CONTEXT ( ( #351, #103, #477 ) ) REPRESENTATION_CONTEXT ( 'NONE', 'WORKASPACE' ) );
#50 = CYLINDRICAL_SURFACE ( 'NONE', #253, 0.07800000000000000000 ) ;
#51 = EDGE_CURVE ( 'NONE', #184, #491, #394, .T. ) ;
#52 = VECTOR ( 'NONE', #266, 39.37007874015748100 ) ;
#53 = ORIENTED_EDGE ( 'NONE', *, *, #41, .F. ) ;
#54 = MECHANICAL_DESIGN_GEOMETRIC_PRESENTATION_REPRESENTATION (  '', ( #208 ), #20 ) ;
#55 = EDGE_CURVE ( 'NONE', #584, #79, #484, .T. ) ;
#56 = CARTESIAN_POINT ( 'NONE',  ( 2.331874999999999700, -0.04687500000000001400, 0.02706329386826371300 ) ) ;
#57 = CONICAL_SURFACE ( 'NONE', #381, 0.1049999999999998300, 0.7853981633974509400 ) ;
#58 = ORIENTED_EDGE ( 'NONE', *, *, #36, .F. ) ;
#59 = CARTESIAN_POINT ( 'NONE',  ( 0.07812500000000000000, 9.552245033349355400E-018, -0.07800000000000000000 ) ) ;
#60 = EDGE_CURVE ( 'NONE', #386, #359, #40, .T. ) ;
#61 = AXIS2_PLACEMENT_3D ( 'NONE', #23, #18, #293 ) ;
#62 = SURFACE_STYLE_FILL_AREA ( #564 ) ;
#63 = EDGE_CURVE ( 'NONE', #349, #432, #464, .T. ) ;
#64 = DIRECTION ( 'NONE',  ( 0.0000000000000000000, 0.0000000000000000000, -1.000000000000000000 ) ) ;
#65 = FILL_AREA_STYLE ('',( #71 ) ) ;
#66 = PRODUCT ( 'TS250-80-2500', 'TS250-80-2500', '', ( #164 ) ) ;
#67 = MECHANICAL_DESIGN_GEOMETRIC_PRESENTATION_REPRESENTATION (  '', ( #110 ), #49 ) ;
#68 = SPHERICAL_SURFACE ( 'NONE', #287, 0.07812500000000000000 ) ;
#69 = ORIENTED_EDGE ( 'NONE', *, *, #51, .F. ) ;
#70 = EDGE_CURVE ( 'NONE', #455, #320, #478, .T. ) ;
#71 = FILL_AREA_STYLE_COLOUR ( '', #454 ) ;
#72 = PRODUCT_DEFINITION_CONTEXT ( 'detailed design', #161, 'design' ) ;
#73 = PLANE ( 'NONE',  #492 ) ;
#74 = DIRECTION ( 'NONE',  ( 1.000000000000000000, -0.0000000000000000000, -0.0000000000000000000 ) ) ;
#75 = ORIENTED_EDGE ( 'NONE', *, *, #10, .T. ) ;
#76 = ADVANCED_FACE ( 'NONE', ( #366 ), #407, .T. ) ;
#77 = EDGE_CURVE ( 'NONE', #584, #326, #316, .T. ) ;
#78 = EDGE_CURVE ( 'NONE', #475, #594, #306, .T. ) ;
#79 = VERTEX_POINT ( 'NONE', #16 ) ;
#80 = FACE_OUTER_BOUND ( 'NONE', #451, .T. ) ;
#81 = EDGE_CURVE ( 'NONE', #491, #3, #538, .T. ) ;
#82 = ADVANCED_FACE ( 'NONE', ( #341 ), #493, .T. ) ;
#83 = FACE_BOUND ( 'NONE', #365, .T. ) ;
#84 = PRODUCT_DEFINITION_FORMATION_WITH_SPECIFIED_SOURCE ( 'ANY', '', #66, .NOT_KNOWN. ) ;
#85 = ADVANCED_FACE ( 'NONE', ( #547 ), #328, .F. ) ;
#86 = PLANE ( 'NONE',  #129 ) ;
#87 = VECTOR ( 'NONE', #142, 39.37007874015748100 ) ;
#88 = ORIENTED_EDGE ( 'NONE', *, *, #33, .T. ) ;
#89 = DIRECTION ( 'NONE',  ( -1.000000000000000000, 0.0000000000000000000, 1.224646799147353200E-016 ) ) ;
#90 = LINE ( 'NONE', #332, #592 ) ;
#91 = SURFACE_SIDE_STYLE ('',( #444 ) ) ;
#92 = EDGE_CURVE ( 'NONE', #432, #512, #250, .T. ) ;
#93 = LINE ( 'NONE', #420, #2 ) ;
#94 = AXIS2_PLACEMENT_3D ( 'NONE', #553, #176, #221 ) ;
#95 = DIRECTION ( 'NONE',  ( 0.0000000000000000000, 0.8660254037844388200, 0.4999999999999998300 ) ) ;
#96 = PRESENTATION_LAYER_ASSIGNMENT (  '', '', ( #110 ) ) ;
#97 = DIRECTION ( 'NONE',  ( 0.0000000000000000000, 0.8660254037844386000, -0.4999999999999998300 ) ) ;
#98 = LENGTH_MEASURE_WITH_UNIT ( LENGTH_MEASURE( 0.02539999999999999900 ), #267 );
#99 = EDGE_CURVE ( 'NONE', #594, #475, #257, .T. ) ;
#100 = EDGE_CURVE ( 'NONE', #455, #626, #324, .T. ) ;
#101 = DIRECTION ( 'NONE',  ( 0.0000000000000000000, 0.0000000000000000000, -1.000000000000000000 ) ) ;
#102 = FACE_OUTER_BOUND ( 'NONE', #457, .T. ) ;
#103 =( NAMED_UNIT ( * ) PLANE_ANGLE_UNIT ( ) SI_UNIT ( $, .RADIAN. ) );
#104 = AXIS2_PLACEMENT_3D ( 'NONE', #625, #614, #43 ) ;
#105 = EDGE_CURVE ( 'NONE', #320, #280, #24, .T. ) ;
#106 = CIRCLE ( 'NONE', #231, 0.07812500000000000000 ) ;
#107 = EDGE_CURVE ( 'NONE', #3, #361, #213, .T. ) ;
#108 = LINE ( 'NONE', #26, #541 ) ;
#109 = ORIENTED_EDGE ( 'NONE', *, *, #566, .F. ) ;
#110 = STYLED_ITEM ( 'NONE', ( #198 ), #284 ) ;
#111 = FACE_OUTER_BOUND ( 'NONE', #610, .T. ) ;
#112 = AXIS2_PLACEMENT_3D ( 'NONE', #430, #622, #189 ) ;
#113 = ORIENTED_EDGE ( 'NONE', *, *, #77, .T. ) ;
#114 = MECHANICAL_DESIGN_GEOMETRIC_PRESENTATION_REPRESENTATION (  '', ( #48 ), #517 ) ;
#115 = EDGE_CURVE ( 'NONE', #512, #163, #523, .T. ) ;
#116 = CARTESIAN_POINT ( 'NONE',  ( 2.331874999999999700, -4.729846310483748400E-018, -0.05412658773652741200 ) ) ;
#117 = EDGE_CURVE ( 'NONE', #184, #361, #155, .T. ) ;
#118 = AXIS2_PLACEMENT_3D ( 'NONE', #296, #423, #428 ) ;
#119 = CIRCLE ( 'NONE', #61, 0.1250000000000000000 ) ;
#120 = COLOUR_RGB ( '',0.6470588235294118000, 0.6196078431372549200, 0.5843137254901961100 ) ;
#121 = CARTESIAN_POINT ( 'NONE',  ( 2.421875000000000000, 0.04687500000000002100, 0.02706329386826370600 ) ) ;
#122 = ORIENTED_EDGE ( 'NONE', *, *, #243, .F. ) ;
#123 = CARTESIAN_POINT ( 'NONE',  ( 2.421875000000000000, 0.0000000000000000000, 0.0000000000000000000 ) ) ;
#124 = SURFACE_STYLE_FILL_AREA ( #438 ) ;
#125 = VECTOR ( 'NONE', #496, 39.37007874015748100 ) ;
#126 = ORIENTED_EDGE ( 'NONE', *, *, #63, .F. ) ;
#127 = DIRECTION ( 'NONE',  ( 0.0000000000000000000, 0.0000000000000000000, -1.000000000000000000 ) ) ;
#128 = DIRECTION ( 'NONE',  ( 1.000000000000000000, -0.0000000000000000000, 0.0000000000000000000 ) ) ;
#129 = AXIS2_PLACEMENT_3D ( 'NONE', #375, #422, #378 ) ;
#130 = DIRECTION ( 'NONE',  ( 1.224646799147353200E-016, 0.0000000000000000000, 1.000000000000000000 ) ) ;
#131 = DIRECTION ( 'NONE',  ( 1.000000000000000000, -0.0000000000000000000, -0.0000000000000000000 ) ) ;
#132 = CARTESIAN_POINT ( 'NONE',  ( 2.421875000000000000, 0.04687500000000002100, -0.02706329386826369600 ) ) ;
#133 = DIRECTION ( 'NONE',  ( 0.0000000000000000000, 0.0000000000000000000, -1.000000000000000000 ) ) ;
#134 = ADVANCED_FACE ( 'NONE', ( #111 ), #50, .F. ) ;
#135 = DIRECTION ( 'NONE',  ( -1.000000000000000000, 0.0000000000000000000, 0.0000000000000000000 ) ) ;
#136 = CARTESIAN_POINT ( 'NONE',  ( 0.01999999999999951500, 1.530808498934191500E-017, -0.1250000000000000000 ) ) ;
#137 = VECTOR ( 'NONE', #285, 39.37007874015748100 ) ;
#138 = VECTOR ( 'NONE', #245, 39.37007874015748100 ) ;
#139 = ORIENTED_EDGE ( 'NONE', *, *, #615, .T. ) ;
#140 = DIMENSIONAL_EXPONENTS ( 1.000000000000000000, 0.0000000000000000000, 0.0000000000000000000, 0.0000000000000000000, 0.0000000000000000000, 0.0000000000000000000, 0.0000000000000000000 ) ;
#141 = DIRECTION ( 'NONE',  ( 0.0000000000000000000, -0.4999999999999998900, -0.8660254037844387100 ) ) ;
#142 = DIRECTION ( 'NONE',  ( -0.7071067811865456900, 8.659560562354955000E-017, -0.7071067811865493500 ) ) ;
#143 = CARTESIAN_POINT ( 'NONE',  ( 0.07812500000000000000, 9.552245033349355400E-018, -0.07800000000000000000 ) ) ;
#144 = EDGE_LOOP ( 'NONE', ( #153, #239, #476, #408 ) ) ;
#145 = CARTESIAN_POINT ( 'NONE',  ( 2.421875000000000000, 1.285879139104718900E-017, -0.1049999999999998300 ) ) ;
#146 = DIRECTION ( 'NONE',  ( 0.0000000000000000000, -0.8660254037844386000, 0.4999999999999998300 ) ) ;
#147 = DIRECTION ( 'NONE',  ( 0.0000000000000000000, 0.0000000000000000000, -1.000000000000000000 ) ) ;
#148 = AXIS2_PLACEMENT_3D ( 'NONE', #319, #5, #591 ) ;
#149 = VECTOR ( 'NONE', #552, 39.37007874015748100 ) ;
#150 = LINE ( 'NONE', #15, #14 ) ;
#151 = FILL_AREA_STYLE_COLOUR ( '', #120 ) ;
#152 = FACE_OUTER_BOUND ( 'NONE', #297, .T. ) ;
#153 = ORIENTED_EDGE ( 'NONE', *, *, #585, .F. ) ;
#154 = SURFACE_STYLE_FILL_AREA ( #479 ) ;
#155 = LINE ( 'NONE', #599, #125 ) ;
#156 = APPLICATION_PROTOCOL_DEFINITION ( 'draft international standard', 'automotive_design', 1998, #161 ) ;
#157 = ORIENTED_EDGE ( 'NONE', *, *, #598, .F. ) ;
#158 = ORIENTED_EDGE ( 'NONE', *, *, #585, .T. ) ;
#159 =( GEOMETRIC_REPRESENTATION_CONTEXT ( 3 ) GLOBAL_UNCERTAINTY_ASSIGNED_CONTEXT ( ( #373 ) ) GLOBAL_UNIT_ASSIGNED_CONTEXT ( ( #242, #345, #401 ) ) REPRESENTATION_CONTEXT ( 'NONE', 'WORKASPACE' ) );
#160 = DIRECTION ( 'NONE',  ( 1.000000000000000000, -0.0000000000000000000, -0.0000000000000000000 ) ) ;
#161 = APPLICATION_CONTEXT ( 'automotive_design' ) ;
#162 = MECHANICAL_DESIGN_GEOMETRIC_PRESENTATION_REPRESENTATION (  '', ( #179 ), #159 ) ;
#163 = VERTEX_POINT ( 'NONE', #387 ) ;
#164 = PRODUCT_CONTEXT ( 'NONE', #485, 'mechanical' ) ;
#165 = DIRECTION ( 'NONE',  ( 1.000000000000000000, 0.0000000000000000000, 0.0000000000000000000 ) ) ;
#166 = CYLINDRICAL_SURFACE ( 'NONE', #118, 0.1250000000000000000 ) ;
#167 = VERTEX_POINT ( 'NONE', #384 ) ;
#168 = FACE_OUTER_BOUND ( 'NONE', #206, .T. ) ;
#169 = ORIENTED_EDGE ( 'NONE', *, *, #78, .F. ) ;
#170 = LINE ( 'NONE', #450, #481 ) ;
#171 = LINE ( 'NONE', #452, #550 ) ;
#172 = VERTEX_POINT ( 'NONE', #382 ) ;
#173 = CARTESIAN_POINT ( 'NONE',  ( 2.421875000000000000, 0.0000000000000000000, 0.0000000000000000000 ) ) ;
#174 = PRESENTATION_LAYER_ASSIGNMENT (  '', '', ( #179 ) ) ;
#175 = DIRECTION ( 'NONE',  ( 0.0000000000000000000, 0.0000000000000000000, 1.000000000000000000 ) ) ;
#176 = DIRECTION ( 'NONE',  ( 0.0000000000000000000, 0.4999999999999998300, -0.8660254037844388200 ) ) ;
#177 = AXIS2_PLACEMENT_3D ( 'NONE', #513, #141, #97 ) ;
#178 = CARTESIAN_POINT ( 'NONE',  ( 2.331874999999999700, -0.04687500000000002800, -0.02706329386826369600 ) ) ;
#179 = STYLED_ITEM ( 'NONE', ( #506 ), #234 ) ;
#180 = LINE ( 'NONE', #121, #252 ) ;
#181 = ADVANCED_FACE ( 'NONE', ( #199 ), #68, .T. ) ;
#182 = CARTESIAN_POINT ( 'NONE',  ( 0.01999999999999951500, 0.0000000000000000000, 0.1250000000000000000 ) ) ;
#183 = DIRECTION ( 'NONE',  ( 0.0000000000000000000, 0.8660254037844386000, -0.4999999999999998300 ) ) ;
#184 = VERTEX_POINT ( 'NONE', #487 ) ;
#185 = FACE_OUTER_BOUND ( 'NONE', #445, .T. ) ;
#186 = ADVANCED_FACE ( 'NONE', ( #168 ), #578, .T. ) ;
#187 = DIRECTION ( 'NONE',  ( 0.0000000000000000000, 0.0000000000000000000, -1.000000000000000000 ) ) ;
#188 = ORIENTED_EDGE ( 'NONE', *, *, #561, .T. ) ;
#189 = DIRECTION ( 'NONE',  ( 0.0000000000000000000, 0.0000000000000000000, -1.000000000000000000 ) ) ;
#190 = UNCERTAINTY_MEASURE_WITH_UNIT (LENGTH_MEASURE( 1.000000000000000100E-005 ), #310, 'distance_accuracy_value', 'NONE');
#191 = AXIS2_PLACEMENT_3D ( 'NONE', #425, #447, #11 ) ;
#192 = DIRECTION ( 'NONE',  ( -1.000000000000000000, 0.0000000000000000000, 0.0000000000000000000 ) ) ;
#193 = ORIENTED_EDGE ( 'NONE', *, *, #99, .F. ) ;
#194 = CARTESIAN_POINT ( 'NONE',  ( 2.331874999999999700, -0.04687500000000002800, -0.02706329386826369600 ) ) ;
#195 = AXIS2_PLACEMENT_3D ( 'NONE', #522, #352, #579 ) ;
#196 = ORIENTED_EDGE ( 'NONE', *, *, #105, .T. ) ;
#197 = PLANE ( 'NONE',  #177 ) ;
#198 = PRESENTATION_STYLE_ASSIGNMENT (( #400 ) ) ;
#199 = FACE_OUTER_BOUND ( 'NONE', #291, .T. ) ;
#200 = EDGE_LOOP ( 'NONE', ( #193, #417, #215, #254 ) ) ;
#201 = EDGE_CURVE ( 'NONE', #491, #184, #624, .T. ) ;
#202 = EDGE_LOOP ( 'NONE', ( #300, #333 ) ) ;
#203 = DIRECTION ( 'NONE',  ( 1.000000000000000000, -0.0000000000000000000, -0.0000000000000000000 ) ) ;
#204 = EDGE_CURVE ( 'NONE', #581, #172, #106, .T. ) ;
#205 = DIRECTION ( 'NONE',  ( 1.000000000000000000, 0.0000000000000000000, 0.0000000000000000000 ) ) ;
#206 = EDGE_LOOP ( 'NONE', ( #494, #574, #374, #122 ) ) ;
#207 = DIRECTION ( 'NONE',  ( 0.0000000000000000000, 0.0000000000000000000, -1.000000000000000000 ) ) ;
#208 = STYLED_ITEM ( 'NONE', ( #308 ), #251 ) ;
#209 = ORIENTED_EDGE ( 'NONE', *, *, #587, .T. ) ;
#210 = EDGE_CURVE ( 'NONE', #79, #628, #542, .T. ) ;
#211 = DIRECTION ( 'NONE',  ( 0.0000000000000000000, 0.0000000000000000000, 1.000000000000000000 ) ) ;
#212 = COLOUR_RGB ( '',0.6470588235294118000, 0.6196078431372549200, 0.5843137254901961100 ) ;
#213 = CIRCLE ( 'NONE', #312, 0.07800000000000000000 ) ;
#214 = AXIS2_PLACEMENT_3D ( 'NONE', #419, #135, #244 ) ;
#215 = ORIENTED_EDGE ( 'NONE', *, *, #426, .F. ) ;
#216 = DIRECTION ( 'NONE',  ( 1.000000000000000000, -0.0000000000000000000, -0.0000000000000000000 ) ) ;
#217 = ORIENTED_EDGE ( 'NONE', *, *, #107, .F. ) ;
#218 = CARTESIAN_POINT ( 'NONE',  ( 2.421875000000000000, 0.0000000000000000000, 0.1250000000000000000 ) ) ;
#219 = CARTESIAN_POINT ( 'NONE',  ( 0.01999999999999951500, 0.0000000000000000000, 0.0000000000000000000 ) ) ;
#220 = CONICAL_SURFACE ( 'NONE', #617, 0.1250000000000000000, 0.7853981633974503900 ) ;
#221 = DIRECTION ( 'NONE',  ( 0.0000000000000000000, 0.8660254037844388200, 0.4999999999999998300 ) ) ;
#222 = CARTESIAN_POINT ( 'NONE',  ( 2.421875000000000000, 0.04687500000000002100, 0.02706329386826370600 ) ) ;
#223 = ADVANCED_FACE ( 'NONE', ( #152 ), #459, .F. ) ;
#224 = CARTESIAN_POINT ( 'NONE',  ( 0.07812500000000000000, 0.0000000000000000000, 0.0000000000000000000 ) ) ;
#225 = VECTOR ( 'NONE', #74, 39.37007874015748100 ) ;
#226 = ORIENTED_EDGE ( 'NONE', *, *, #10, .F. ) ;
#227 = CARTESIAN_POINT ( 'NONE',  ( 0.01999999999999951500, 0.0000000000000000000, 0.0000000000000000000 ) ) ;
#228 = EDGE_CURVE ( 'NONE', #581, #172, #490, .T. ) ;
#229 = ORIENTED_EDGE ( 'NONE', *, *, #70, .F. ) ;
#230 = ADVANCED_FACE ( 'NONE', ( #526 ), #197, .F. ) ;
#231 = AXIS2_PLACEMENT_3D ( 'NONE', #4, #89, #130 ) ;
#232 = COLOUR_RGB ( '',0.6470588235294118000, 0.6196078431372549200, 0.5843137254901961100 ) ;
#233 = CARTESIAN_POINT ( 'NONE',  ( 0.01999999999999951500, 1.530808498934191500E-017, 0.1250000000000000000 ) ) ;
#234 = ADVANCED_FACE ( 'NONE', ( #612 ), #166, .T. ) ;
#235 = CARTESIAN_POINT ( 'NONE',  ( 0.0000000000000000000, 1.408343819019458600E-017, 0.1050000000000004000 ) ) ;
#236 = ADVANCED_FACE ( 'NONE', ( #83, #337 ), #474, .F. ) ;
#237 = AXIS2_PLACEMENT_3D ( 'NONE', #429, #192, #175 ) ;
#238 = CARTESIAN_POINT ( 'NONE',  ( 2.331874999999999700, 0.04687500000000002100, 0.02706329386826370600 ) ) ;
#239 = ORIENTED_EDGE ( 'NONE', *, *, #210, .T. ) ;
#240 = AXIS2_PLACEMENT_3D ( 'NONE', #567, #249, #570 ) ;
#241 = CARTESIAN_POINT ( 'NONE',  ( 2.331874999999999700, -0.04687500000000001400, 0.02706329386826371300 ) ) ;
#242 =( CONVERSION_BASED_UNIT ( 'INCH', #353 ) LENGTH_UNIT ( ) NAMED_UNIT ( #504 ) );
#243 = EDGE_CURVE ( 'NONE', #326, #628, #45, .T. ) ;
#244 = DIRECTION ( 'NONE',  ( 0.0000000000000000000, 0.0000000000000000000, -1.000000000000000000 ) ) ;
#245 = DIRECTION ( 'NONE',  ( -0.7071067811865456900, 0.0000000000000000000, 0.7071067811865493500 ) ) ;
#246 = DIRECTION ( 'NONE',  ( 0.0000000000000000000, -3.154466349054403200E-016, -1.000000000000000000 ) ) ;
#247 = CLOSED_SHELL ( 'NONE', ( #181, #376 ) ) ;
#248 = SURFACE_STYLE_USAGE ( .BOTH. , #91 ) ;
#249 = DIRECTION ( 'NONE',  ( -1.000000000000000000, -0.0000000000000000000, -0.0000000000000000000 ) ) ;
#250 = LINE ( 'NONE', #194, #274 ) ;
#251 = ADVANCED_BREP_SHAPE_REPRESENTATION ( 'TS250-80-2500', ( #356, #536, #442 ), #609 ) ;
#252 = VECTOR ( 'NONE', #327, 39.37007874015748900 ) ;
#253 = AXIS2_PLACEMENT_3D ( 'NONE', #340, #273, #258 ) ;
#254 = ORIENTED_EDGE ( 'NONE', *, *, #589, .F. ) ;
#255 = CARTESIAN_POINT ( 'NONE',  ( 0.0000000000000000000, 0.0000000000000000000, 0.0000000000000000000 ) ) ;
#256 = PRESENTATION_LAYER_ASSIGNMENT (  '', '', ( #453 ) ) ;
#257 = CIRCLE ( 'NONE', #344, 0.1050000000000004000 ) ;
#258 = DIRECTION ( 'NONE',  ( 0.0000000000000000000, 0.0000000000000000000, 1.000000000000000000 ) ) ;
#259 = DIRECTION ( 'NONE',  ( 0.0000000000000000000, 0.8660254037844386000, -0.4999999999999998300 ) ) ;
#260 = ORIENTED_EDGE ( 'NONE', *, *, #228, .T. ) ;
#261 =( NAMED_UNIT ( * ) SI_UNIT ( $, .STERADIAN. ) SOLID_ANGLE_UNIT ( ) );
#262 =( LENGTH_UNIT ( ) NAMED_UNIT ( * ) SI_UNIT ( $, .METRE. ) );
#263 = VECTOR ( 'NONE', #146, 39.37007874015748900 ) ;
#264 = UNCERTAINTY_MEASURE_WITH_UNIT (LENGTH_MEASURE( 1.000000000000000100E-005 ), #582, 'distance_accuracy_value', 'NONE');
#265 =( NAMED_UNIT ( * ) PLANE_ANGLE_UNIT ( ) SI_UNIT ( $, .RADIAN. ) );
#266 = DIRECTION ( 'NONE',  ( -1.000000000000000000, -0.0000000000000000000, -0.0000000000000000000 ) ) ;
#267 =( LENGTH_UNIT ( ) NAMED_UNIT ( * ) SI_UNIT ( $, .METRE. ) );
#268 = CARTESIAN_POINT ( 'NONE',  ( 2.421875000000000000, 0.0000000000000000000, 0.0000000000000000000 ) ) ;
#269 = ORIENTED_EDGE ( 'NONE', *, *, #590, .T. ) ;
#270 = AXIS2_PLACEMENT_3D ( 'NONE', #123, #586, #315 ) ;
#271 = CARTESIAN_POINT ( 'NONE',  ( 0.0000000000000000000, 0.0000000000000000000, -0.1050000000000004000 ) ) ;
#272 = CARTESIAN_POINT ( 'NONE',  ( 2.331874999999999700, -4.729846310483748400E-018, -0.05412658773652741200 ) ) ;
#273 = DIRECTION ( 'NONE',  ( -1.000000000000000000, -0.0000000000000000000, -0.0000000000000000000 ) ) ;
#274 = VECTOR ( 'NONE', #259, 39.37007874015748900 ) ;
#275 = CARTESIAN_POINT ( 'NONE',  ( 2.331874999999999700, 1.571044717415665500E-017, 0.05412658773652741200 ) ) ;
#276 = ADVANCED_FACE ( 'NONE', ( #529 ), #468, .F. ) ;
#277 = CARTESIAN_POINT ( 'NONE',  ( 2.421875000000000000, -0.04687500000000001400, 0.02706329386826371300 ) ) ;
#278 = CARTESIAN_POINT ( 'NONE',  ( 0.0000000000000000000, 0.0000000000000000000, 0.0000000000000000000 ) ) ;
#279 = PLANE ( 'NONE',  #94 ) ;
#280 = VERTEX_POINT ( 'NONE', #520 ) ;
#281 = CARTESIAN_POINT ( 'NONE',  ( 0.0000000000000000000, 9.552245033349355400E-018, -0.07800000000000000000 ) ) ;
#282 = DIRECTION ( 'NONE',  ( -1.000000000000000000, -0.0000000000000000000, -0.0000000000000000000 ) ) ;
#283 = DIRECTION ( 'NONE',  ( -1.000000000000000000, 0.0000000000000000000, 0.0000000000000000000 ) ) ;
#284 = ADVANCED_FACE ( 'NONE', ( #185 ), #47, .T. ) ;
#285 = DIRECTION ( 'NONE',  ( 1.000000000000000000, -0.0000000000000000000, -0.0000000000000000000 ) ) ;
#286 = FACE_OUTER_BOUND ( 'NONE', #414, .T. ) ;
#287 = AXIS2_PLACEMENT_3D ( 'NONE', #294, #283, #30 ) ;
#288 = DIRECTION ( 'NONE',  ( 1.000000000000000000, -0.0000000000000000000, -0.0000000000000000000 ) ) ;
#289 = DIMENSIONAL_EXPONENTS ( 1.000000000000000000, 0.0000000000000000000, 0.0000000000000000000, 0.0000000000000000000, 0.0000000000000000000, 0.0000000000000000000, 0.0000000000000000000 ) ;
#290 = DIRECTION ( 'NONE',  ( 0.0000000000000000000, 0.0000000000000000000, -1.000000000000000000 ) ) ;
#291 = EDGE_LOOP ( 'NONE', ( #402, #330 ) ) ;
#292 = PRESENTATION_STYLE_ASSIGNMENT (( #509 ) ) ;
#293 = DIRECTION ( 'NONE',  ( 0.0000000000000000000, 0.0000000000000000000, -1.000000000000000000 ) ) ;
#294 = CARTESIAN_POINT ( 'NONE',  ( 0.0000000000000000000, 0.0000000000000000000, 0.0000000000000000000 ) ) ;
#295 = DIMENSIONAL_EXPONENTS ( 1.000000000000000000, 0.0000000000000000000, 0.0000000000000000000, 0.0000000000000000000, 0.0000000000000000000, 0.0000000000000000000, 0.0000000000000000000 ) ;
#296 = CARTESIAN_POINT ( 'NONE',  ( 2.421875000000000000, 0.0000000000000000000, 0.0000000000000000000 ) ) ;
#297 = EDGE_LOOP ( 'NONE', ( #309, #69, #531, #139 ) ) ;
#298 = DIRECTION ( 'NONE',  ( 1.000000000000000000, -0.0000000000000000000, -0.0000000000000000000 ) ) ;
#299 = EDGE_CURVE ( 'NONE', #359, #626, #338, .T. ) ;
#300 = ORIENTED_EDGE ( 'NONE', *, *, #78, .T. ) ;
#301 = CARTESIAN_POINT ( 'NONE',  ( 2.421875000000000000, 0.0000000000000000000, 0.1049999999999998300 ) ) ;
#302 = CARTESIAN_POINT ( 'NONE',  ( 2.331874999999999700, 0.04687500000000002100, 0.02706329386826370600 ) ) ;
#303 = CARTESIAN_POINT ( 'NONE',  ( 2.331874999999999700, 0.04687500000000002100, -0.02706329386826369600 ) ) ;
#304 = ORIENTED_EDGE ( 'NONE', *, *, #204, .F. ) ;
#305 = LENGTH_MEASURE_WITH_UNIT ( LENGTH_MEASURE( 0.02539999999999999900 ), #502 );
#306 = CIRCLE ( 'NONE', #391, 0.1050000000000004000 ) ;
#307 = ORIENTED_EDGE ( 'NONE', *, *, #100, .T. ) ;
#308 = PRESENTATION_STYLE_ASSIGNMENT (( #317 ) ) ;
#309 = ORIENTED_EDGE ( 'NONE', *, *, #81, .F. ) ;
#310 =( CONVERSION_BASED_UNIT ( 'INCH', #371 ) LENGTH_UNIT ( ) NAMED_UNIT ( #572 ) );
#311 = PRESENTATION_LAYER_ASSIGNMENT (  '', '', ( #48 ) ) ;
#312 = AXIS2_PLACEMENT_3D ( 'NONE', #549, #558, #569 ) ;
#313 = EDGE_LOOP ( 'NONE', ( #588, #157, #126, #269 ) ) ;
#314 =( LENGTH_UNIT ( ) NAMED_UNIT ( * ) SI_UNIT ( $, .METRE. ) );
#315 = DIRECTION ( 'NONE',  ( 0.0000000000000000000, 0.0000000000000000000, 1.000000000000000000 ) ) ;
#316 = CIRCLE ( 'NONE', #424, 0.1049999999999998300 ) ;
#317 = SURFACE_STYLE_USAGE ( .BOTH. , #406 ) ;
#318 = ORIENTED_EDGE ( 'NONE', *, *, #44, .F. ) ;
#319 = CARTESIAN_POINT ( 'NONE',  ( 0.0000000000000000000, 0.0000000000000000000, 0.0000000000000000000 ) ) ;
#320 = VERTEX_POINT ( 'NONE', #618 ) ;
#321 = LENGTH_MEASURE_WITH_UNIT ( LENGTH_MEASURE( 0.02539999999999999900 ), #396 );
#322 = DIRECTION ( 'NONE',  ( -1.000000000000000000, 0.0000000000000000000, 0.0000000000000000000 ) ) ;
#323 = DIRECTION ( 'NONE',  ( 0.0000000000000000000, 0.0000000000000000000, 1.000000000000000000 ) ) ;
#324 = LINE ( 'NONE', #302, #385 ) ;
#325 = ORIENTED_EDGE ( 'NONE', *, *, #590, .F. ) ;
#326 = VERTEX_POINT ( 'NONE', #395 ) ;
#327 = DIRECTION ( 'NONE',  ( 0.0000000000000000000, -0.8660254037844386000, 0.4999999999999998300 ) ) ;
#328 = PLANE ( 'NONE',  #343 ) ;
#329 = DIRECTION ( 'NONE',  ( 1.000000000000000000, 0.0000000000000000000, 0.0000000000000000000 ) ) ;
#330 = ORIENTED_EDGE ( 'NONE', *, *, #204, .T. ) ;
#331 = EDGE_LOOP ( 'NONE', ( #88, #113 ) ) ;
#332 = CARTESIAN_POINT ( 'NONE',  ( 2.421875000000000000, 1.571044717415665500E-017, 0.05412658773652741200 ) ) ;
#333 = ORIENTED_EDGE ( 'NONE', *, *, #99, .T. ) ;
#334 = ADVANCED_FACE ( 'NONE', ( #102 ), #279, .F. ) ;
#335 = DIRECTION ( 'NONE',  ( 0.0000000000000000000, -3.154466349054402700E-016, -1.000000000000000000 ) ) ;
#336 = DIRECTION ( 'NONE',  ( -1.000000000000000000, 0.0000000000000000000, 0.0000000000000000000 ) ) ;
#337 = FACE_OUTER_BOUND ( 'NONE', #202, .T. ) ;
#338 = LINE ( 'NONE', #545, #461 ) ;
#339 = DIRECTION ( 'NONE',  ( 1.000000000000000000, 0.0000000000000000000, 0.0000000000000000000 ) ) ;
#340 = CARTESIAN_POINT ( 'NONE',  ( 0.07812500000000000000, 0.0000000000000000000, 0.0000000000000000000 ) ) ;
#341 = FACE_OUTER_BOUND ( 'NONE', #480, .T. ) ;
#342 = ORIENTED_EDGE ( 'NONE', *, *, #115, .F. ) ;
#343 = AXIS2_PLACEMENT_3D ( 'NONE', #56, #573, #335 ) ;
#344 = AXIS2_PLACEMENT_3D ( 'NONE', #278, #282, #290 ) ;
#345 =( NAMED_UNIT ( * ) PLANE_ANGLE_UNIT ( ) SI_UNIT ( $, .RADIAN. ) );
#346 = COLOUR_RGB ( '',0.6470588235294118000, 0.6196078431372549200, 0.5843137254901961100 ) ;
#347 = DIRECTION ( 'NONE',  ( 0.0000000000000000000, 0.0000000000000000000, 1.000000000000000000 ) ) ;
#348 = SPHERICAL_SURFACE ( 'NONE', #621, 0.07812500000000000000 ) ;
#349 = VERTEX_POINT ( 'NONE', #241 ) ;
#350 = ORIENTED_EDGE ( 'NONE', *, *, #70, .T. ) ;
#351 =( CONVERSION_BASED_UNIT ( 'INCH', #321 ) LENGTH_UNIT ( ) NAMED_UNIT ( #498 ) );
#352 = DIRECTION ( 'NONE',  ( 1.000000000000000000, 0.0000000000000000000, 0.0000000000000000000 ) ) ;
#353 = LENGTH_MEASURE_WITH_UNIT ( LENGTH_MEASURE( 0.02539999999999999900 ), #575 );
#354 = AXIS2_PLACEMENT_3D ( 'NONE', #392, #298, #22 ) ;
#355 = SURFACE_SIDE_STYLE ('',( #154 ) ) ;
#356 = MANIFOLD_SOLID_BREP ( 'Cut-Extrude3', #12 ) ;
#357 = PRODUCT_RELATED_PRODUCT_CATEGORY ( 'part', '', ( #66 ) ) ;
#358 = ORIENTED_EDGE ( 'NONE', *, *, #299, .T. ) ;
#359 = VERTEX_POINT ( 'NONE', #132 ) ;
#360 = UNCERTAINTY_MEASURE_WITH_UNIT (LENGTH_MEASURE( 1.000000000000000100E-005 ), #500, 'distance_accuracy_value', 'NONE');
#361 = VERTEX_POINT ( 'NONE', #616 ) ;
#362 = VECTOR ( 'NONE', #246, 39.37007874015748100 ) ;
#363 = ORIENTED_EDGE ( 'NONE', *, *, #92, .F. ) ;
#364 = CARTESIAN_POINT ( 'NONE',  ( 0.0000000000000000000, 0.0000000000000000000, 0.0000000000000000000 ) ) ;
#365 = EDGE_LOOP ( 'NONE', ( #530, #217 ) ) ;
#366 = FACE_OUTER_BOUND ( 'NONE', #565, .T. ) ;
#367 = ORIENTED_EDGE ( 'NONE', *, *, #39, .T. ) ;
#368 = DIRECTION ( 'NONE',  ( 0.0000000000000000000, -0.8660254037844388200, -0.4999999999999995600 ) ) ;
#369 =( GEOMETRIC_REPRESENTATION_CONTEXT ( 3 ) GLOBAL_UNCERTAINTY_ASSIGNED_CONTEXT ( ( #360 ) ) GLOBAL_UNIT_ASSIGNED_CONTEXT ( ( #500, #510, #467 ) ) REPRESENTATION_CONTEXT ( 'NONE', 'WORKASPACE' ) );
#370 = ORIENTED_EDGE ( 'NONE', *, *, #55, .F. ) ;
#371 = LENGTH_MEASURE_WITH_UNIT ( LENGTH_MEASURE( 0.02539999999999999900 ), #314 );
#372 = DIRECTION ( 'NONE',  ( 0.0000000000000000000, 0.0000000000000000000, 1.000000000000000000 ) ) ;
#373 = UNCERTAINTY_MEASURE_WITH_UNIT (LENGTH_MEASURE( 1.000000000000000100E-005 ), #242, 'distance_accuracy_value', 'NONE');
#374 = ORIENTED_EDGE ( 'NONE', *, *, #607, .F. ) ;
#375 = CARTESIAN_POINT ( 'NONE',  ( 2.331874999999999700, 0.04687500000000002100, 0.02706329386826370600 ) ) ;
#376 = ADVANCED_FACE ( 'NONE', ( #571 ), #348, .T. ) ;
#377 = DIRECTION ( 'NONE',  ( 0.0000000000000000000, 0.0000000000000000000, 1.000000000000000000 ) ) ;
#378 = DIRECTION ( 'NONE',  ( 0.0000000000000000000, -0.8660254037844386000, 0.4999999999999998300 ) ) ;
#379 = UNCERTAINTY_MEASURE_WITH_UNIT (LENGTH_MEASURE( 1.000000000000000100E-005 ), #497, 'distance_accuracy_value', 'NONE');
#380 = ORIENTED_EDGE ( 'NONE', *, *, #41, .T. ) ;
#381 = AXIS2_PLACEMENT_3D ( 'NONE', #25, #336, #347 ) ;
#382 = CARTESIAN_POINT ( 'NONE',  ( 0.0000000000000000000, -0.07812500000000000000, 4.783776559169348700E-018 ) ) ;
#383 = ADVANCED_FACE ( 'NONE', ( #554 ), #57, .T. ) ;
#384 = CARTESIAN_POINT ( 'NONE',  ( 2.421875000000000000, -0.04687500000000002800, -0.02706329386826369600 ) ) ;
#385 = VECTOR ( 'NONE', #203, 39.37007874015748100 ) ;
#386 = VERTEX_POINT ( 'NONE', #303 ) ;
#387 = CARTESIAN_POINT ( 'NONE',  ( 2.421875000000000000, -4.268512490100411300E-018, -0.05412658773652741200 ) ) ;
#388 = CIRCLE ( 'NONE', #483, 0.1049999999999998300 ) ;
#389 = CARTESIAN_POINT ( 'NONE',  ( 2.331874999999999700, 0.04687500000000002100, 0.02706329386826370600 ) ) ;
#390 = CARTESIAN_POINT ( 'NONE',  ( 0.0000000000000000000, 0.0000000000000000000, 0.0000000000000000000 ) ) ;
#391 = AXIS2_PLACEMENT_3D ( 'NONE', #364, #518, #207 ) ;
#392 = CARTESIAN_POINT ( 'NONE',  ( 0.01999999999999951500, 0.0000000000000000000, 0.0000000000000000000 ) ) ;
#393 = DIRECTION ( 'NONE',  ( 0.0000000000000000000, 0.0000000000000000000, 1.000000000000000000 ) ) ;
#394 = CIRCLE ( 'NONE', #439, 0.07800000000000000000 ) ;
#395 = CARTESIAN_POINT ( 'NONE',  ( 2.421875000000000000, 0.0000000000000000000, 0.1049999999999998300 ) ) ;
#396 =( LENGTH_UNIT ( ) NAMED_UNIT ( * ) SI_UNIT ( $, .METRE. ) );
#397 = CARTESIAN_POINT ( 'NONE',  ( 0.07812500000000000000, 0.0000000000000000000, 0.0000000000000000000 ) ) ;
#398 = ORIENTED_EDGE ( 'NONE', *, *, #210, .F. ) ;
#399 = AXIS2_PLACEMENT_3D ( 'NONE', #606, #128, #101 ) ;
#400 = SURFACE_STYLE_USAGE ( .BOTH. , #355 ) ;
#401 =( NAMED_UNIT ( * ) SI_UNIT ( $, .STERADIAN. ) SOLID_ANGLE_UNIT ( ) );
#402 = ORIENTED_EDGE ( 'NONE', *, *, #228, .F. ) ;
#403 = SHAPE_DEFINITION_REPRESENTATION ( #427, #251 ) ;
#404 = ORIENTED_EDGE ( 'NONE', *, *, #598, .T. ) ;
#405 = ORIENTED_EDGE ( 'NONE', *, *, #426, .T. ) ;
#406 = SURFACE_SIDE_STYLE ('',( #124 ) ) ;
#407 = PLANE ( 'NONE',  #399 ) ;
#408 = ORIENTED_EDGE ( 'NONE', *, *, #44, .T. ) ;
#409 = PLANE ( 'NONE',  #548 ) ;
#410 = ORIENTED_EDGE ( 'NONE', *, *, #243, .T. ) ;
#411 = DIRECTION ( 'NONE',  ( 0.0000000000000000000, -3.154466349054403200E-016, -1.000000000000000000 ) ) ;
#412 = CIRCLE ( 'NONE', #448, 0.1250000000000000000 ) ;
#413 = CARTESIAN_POINT ( 'NONE',  ( 2.331874999999999700, 1.571044717415665500E-017, 0.05412658773652741200 ) ) ;
#414 = EDGE_LOOP ( 'NONE', ( #367, #325, #34, #196 ) ) ;
#415 = DIRECTION ( 'NONE',  ( 0.7071067811865460200, 0.0000000000000000000, -0.7071067811865490200 ) ) ;
#416 = DIRECTION ( 'NONE',  ( 0.0000000000000000000, -0.8660254037844388200, -0.4999999999999995600 ) ) ;
#417 = ORIENTED_EDGE ( 'NONE', *, *, #566, .T. ) ;
#418 = LINE ( 'NONE', #272, #488 ) ;
#419 = CARTESIAN_POINT ( 'NONE',  ( 2.401875000000000000, 0.0000000000000000000, 0.0000000000000000000 ) ) ;
#420 = CARTESIAN_POINT ( 'NONE',  ( 2.421875000000000000, -0.04687500000000002800, -0.02706329386826369600 ) ) ;
#421 = DIRECTION ( 'NONE',  ( -1.000000000000000000, 0.0000000000000000000, 0.0000000000000000000 ) ) ;
#422 = DIRECTION ( 'NONE',  ( 0.0000000000000000000, 0.4999999999999998900, 0.8660254037844387100 ) ) ;
#423 = DIRECTION ( 'NONE',  ( -1.000000000000000000, -0.0000000000000000000, -0.0000000000000000000 ) ) ;
#424 = AXIS2_PLACEMENT_3D ( 'NONE', #458, #339, #38 ) ;
#425 = CARTESIAN_POINT ( 'NONE',  ( 0.07812500000000000000, 0.0000000000000000000, 0.0000000000000000000 ) ) ;
#426 = EDGE_CURVE ( 'NONE', #563, #539, #473, .T. ) ;
#427 = PRODUCT_DEFINITION_SHAPE ( 'NONE', 'NONE',  #511 ) ;
#428 = DIRECTION ( 'NONE',  ( 0.0000000000000000000, 0.0000000000000000000, 1.000000000000000000 ) ) ;
#429 = CARTESIAN_POINT ( 'NONE',  ( 0.07812500000000000000, 0.0000000000000000000, 0.0000000000000000000 ) ) ;
#430 = CARTESIAN_POINT ( 'NONE',  ( 0.0000000000000000000, 0.0000000000000000000, 0.0000000000000000000 ) ) ;
#431 = DIRECTION ( 'NONE',  ( -1.000000000000000000, 0.0000000000000000000, 0.0000000000000000000 ) ) ;
#432 = VERTEX_POINT ( 'NONE', #9 ) ;
#433 = VECTOR ( 'NONE', #601, 39.37007874015748100 ) ;
#434 = LINE ( 'NONE', #218, #52 ) ;
#435 = ORIENTED_EDGE ( 'NONE', *, *, #51, .T. ) ;
#436 = ORIENTED_EDGE ( 'NONE', *, *, #201, .F. ) ;
#437 = SURFACE_STYLE_FILL_AREA ( #65 ) ;
#438 = FILL_AREA_STYLE ('',( #441 ) ) ;
#439 = AXIS2_PLACEMENT_3D ( 'NONE', #397, #431, #393 ) ;
#440 = EDGE_LOOP ( 'NONE', ( #358, #613, #226, #537 ) ) ;
#441 = FILL_AREA_STYLE_COLOUR ( '', #346 ) ;
#442 = AXIS2_PLACEMENT_3D ( 'NONE', #255, #211, #205 ) ;
#443 = LINE ( 'NONE', #233, #505 ) ;
#444 = SURFACE_STYLE_FILL_AREA ( #623 ) ;
#445 = EDGE_LOOP ( 'NONE', ( #19, #158, #405, #58 ) ) ;
#446 = ORIENTED_EDGE ( 'NONE', *, *, #115, .T. ) ;
#447 = DIRECTION ( 'NONE',  ( -1.000000000000000000, -0.0000000000000000000, -0.0000000000000000000 ) ) ;
#448 = AXIS2_PLACEMENT_3D ( 'NONE', #219, #160, #147 ) ;
#449 = LINE ( 'NONE', #31, #137 ) ;
#450 = CARTESIAN_POINT ( 'NONE',  ( 2.331874999999999700, 0.04687500000000002100, -0.02706329386826369600 ) ) ;
#451 = EDGE_LOOP ( 'NONE', ( #435, #499 ) ) ;
#452 = CARTESIAN_POINT ( 'NONE',  ( 0.01999999999999951500, 0.0000000000000000000, -0.1250000000000000000 ) ) ;
#453 = STYLED_ITEM ( 'NONE', ( #521 ), #536 ) ;
#454 = COLOUR_RGB ( '',0.6470588235294118000, 0.6196078431372549200, 0.5843137254901961100 ) ;
#455 = VERTEX_POINT ( 'NONE', #238 ) ;
#456 =( NAMED_UNIT ( * ) SI_UNIT ( $, .STERADIAN. ) SOLID_ANGLE_UNIT ( ) );
#457 = EDGE_LOOP ( 'NONE', ( #188, #593, #53, #446 ) ) ;
#458 = CARTESIAN_POINT ( 'NONE',  ( 2.421875000000000000, 0.0000000000000000000, 0.0000000000000000000 ) ) ;
#459 = CYLINDRICAL_SURFACE ( 'NONE', #191, 0.07800000000000000000 ) ;
#460 = CARTESIAN_POINT ( 'NONE',  ( 2.331874999999999700, 1.571044717415665500E-017, 0.05412658773652741200 ) ) ;
#461 = VECTOR ( 'NONE', #546, 39.37007874015748100 ) ;
#462 = UNCERTAINTY_MEASURE_WITH_UNIT (LENGTH_MEASURE( 1.000000000000000100E-005 ), #351, 'distance_accuracy_value', 'NONE');
#463 = AXIS2_PLACEMENT_3D ( 'NONE', #275, #555, #368 ) ;
#464 = LINE ( 'NONE', #471, #362 ) ;
#465 = ORIENTED_EDGE ( 'NONE', *, *, #117, .F. ) ;
#466 = DIRECTION ( 'NONE',  ( -1.000000000000000000, -0.0000000000000000000, -0.0000000000000000000 ) ) ;
#467 =( NAMED_UNIT ( * ) SI_UNIT ( $, .STERADIAN. ) SOLID_ANGLE_UNIT ( ) );
#468 = PLANE ( 'NONE',  #104 ) ;
#469 = ORIENTED_EDGE ( 'NONE', *, *, #63, .T. ) ;
#470 = LENGTH_MEASURE_WITH_UNIT ( LENGTH_MEASURE( 0.02539999999999999900 ), #262 );
#471 = CARTESIAN_POINT ( 'NONE',  ( 2.331874999999999700, -0.04687500000000001400, 0.02706329386826371300 ) ) ;
#472 =( NAMED_UNIT ( * ) PLANE_ANGLE_UNIT ( ) SI_UNIT ( $, .RADIAN. ) );
#473 = CIRCLE ( 'NONE', #482, 0.1250000000000000000 ) ;
#474 = PLANE ( 'NONE',  #112 ) ;
#475 = VERTEX_POINT ( 'NONE', #271 ) ;
#476 = ORIENTED_EDGE ( 'NONE', *, *, #36, .T. ) ;
#477 =( NAMED_UNIT ( * ) SI_UNIT ( $, .STERADIAN. ) SOLID_ANGLE_UNIT ( ) );
#478 = LINE ( 'NONE', #389, #263 ) ;
#479 = FILL_AREA_STYLE ('',( #37 ) ) ;
#480 = EDGE_LOOP ( 'NONE', ( #109, #169, #486, #318 ) ) ;
#481 = VECTOR ( 'NONE', #377, 39.37007874015748100 ) ;
#482 = AXIS2_PLACEMENT_3D ( 'NONE', #227, #216, #187 ) ;
#483 = AXIS2_PLACEMENT_3D ( 'NONE', #173, #165, #127 ) ;
#484 = LINE ( 'NONE', #145, #87 ) ;
#485 = APPLICATION_CONTEXT ( 'automotive_design' ) ;
#486 = ORIENTED_EDGE ( 'NONE', *, *, #589, .T. ) ;
#487 = CARTESIAN_POINT ( 'NONE',  ( 0.07812500000000000000, 0.0000000000000000000, 0.07800000000000000000 ) ) ;
#488 = VECTOR ( 'NONE', #95, 39.37007874015748100 ) ;
#489 = ORIENTED_EDGE ( 'NONE', *, *, #81, .T. ) ;
#490 = CIRCLE ( 'NONE', #195, 0.07812500000000000000 ) ;
#491 = VERTEX_POINT ( 'NONE', #143 ) ;
#492 = AXIS2_PLACEMENT_3D ( 'NONE', #268, #329, #64 ) ;
#493 = CONICAL_SURFACE ( 'NONE', #354, 0.1250000000000000000, 0.7853981633974503900 ) ;
#494 = ORIENTED_EDGE ( 'NONE', *, *, #77, .F. ) ;
#495 = CARTESIAN_POINT ( 'NONE',  ( 2.421875000000000000, 1.408343819019455200E-017, -0.1049999999999998300 ) ) ;
#496 = DIRECTION ( 'NONE',  ( -1.000000000000000000, -0.0000000000000000000, -0.0000000000000000000 ) ) ;
#497 =( CONVERSION_BASED_UNIT ( 'INCH', #305 ) LENGTH_UNIT ( ) NAMED_UNIT ( #295 ) );
#498 = DIMENSIONAL_EXPONENTS ( 1.000000000000000000, 0.0000000000000000000, 0.0000000000000000000, 0.0000000000000000000, 0.0000000000000000000, 0.0000000000000000000, 0.0000000000000000000 ) ;
#499 = ORIENTED_EDGE ( 'NONE', *, *, #201, .T. ) ;
#500 =( CONVERSION_BASED_UNIT ( 'INCH', #98 ) LENGTH_UNIT ( ) NAMED_UNIT ( #140 ) );
#501 = CARTESIAN_POINT ( 'NONE',  ( 2.421875000000000000, 1.530808498934191500E-017, -0.1250000000000000000 ) ) ;
#502 =( LENGTH_UNIT ( ) NAMED_UNIT ( * ) SI_UNIT ( $, .METRE. ) );
#503 = ORIENTED_EDGE ( 'NONE', *, *, #107, .T. ) ;
#504 = DIMENSIONAL_EXPONENTS ( 1.000000000000000000, 0.0000000000000000000, 0.0000000000000000000, 0.0000000000000000000, 0.0000000000000000000, 0.0000000000000000000, 0.0000000000000000000 ) ;
#505 = VECTOR ( 'NONE', #551, 39.37007874015748100 ) ;
#506 = PRESENTATION_STYLE_ASSIGNMENT (( #248 ) ) ;
#507 = CARTESIAN_POINT ( 'NONE',  ( 0.0000000000000000000, 0.07812500000000000000, 4.783776559169348700E-018 ) ) ;
#508 = ORIENTED_EDGE ( 'NONE', *, *, #8, .F. ) ;
#509 = SURFACE_STYLE_USAGE ( .BOTH. , #516 ) ;
#510 =( NAMED_UNIT ( * ) PLANE_ANGLE_UNIT ( ) SI_UNIT ( $, .RADIAN. ) );
#511 = PRODUCT_DEFINITION ( 'UNKNOWN', '', #84, #72 ) ;
#512 = VERTEX_POINT ( 'NONE', #116 ) ;
#513 = CARTESIAN_POINT ( 'NONE',  ( 2.331874999999999700, -0.04687500000000002800, -0.02706329386826369600 ) ) ;
#514 = FACE_OUTER_BOUND ( 'NONE', #331, .T. ) ;
#515 = CARTESIAN_POINT ( 'NONE',  ( 2.331874999999999700, -4.729846310483748400E-018, -0.05412658773652741200 ) ) ;
#516 = SURFACE_SIDE_STYLE ('',( #62 ) ) ;
#517 =( GEOMETRIC_REPRESENTATION_CONTEXT ( 3 ) GLOBAL_UNCERTAINTY_ASSIGNED_CONTEXT ( ( #379 ) ) GLOBAL_UNIT_ASSIGNED_CONTEXT ( ( #497, #472, #456 ) ) REPRESENTATION_CONTEXT ( 'NONE', 'WORKASPACE' ) );
#518 = DIRECTION ( 'NONE',  ( -1.000000000000000000, -0.0000000000000000000, -0.0000000000000000000 ) ) ;
#519 = ORIENTED_EDGE ( 'NONE', *, *, #299, .F. ) ;
#520 = CARTESIAN_POINT ( 'NONE',  ( 2.421875000000000000, 1.571044717415665500E-017, 0.05412658773652741200 ) ) ;
#521 = PRESENTATION_STYLE_ASSIGNMENT (( #13 ) ) ;
#522 = CARTESIAN_POINT ( 'NONE',  ( 0.0000000000000000000, 0.0000000000000000000, 0.0000000000000000000 ) ) ;
#523 = LINE ( 'NONE', #515, #149 ) ;
#524 = ORIENTED_EDGE ( 'NONE', *, *, #39, .F. ) ;
#525 = VECTOR ( 'NONE', #416, 39.37007874015748900 ) ;
#526 = FACE_OUTER_BOUND ( 'NONE', #528, .T. ) ;
#527 = MECHANICAL_DESIGN_GEOMETRIC_PRESENTATION_REPRESENTATION (  '', ( #453 ), #369 ) ;
#528 = EDGE_LOOP ( 'NONE', ( #568, #342, #363, #404 ) ) ;
#529 = FACE_OUTER_BOUND ( 'NONE', #440, .T. ) ;
#530 = ORIENTED_EDGE ( 'NONE', *, *, #615, .F. ) ;
#531 = ORIENTED_EDGE ( 'NONE', *, *, #117, .T. ) ;
#532 = FACE_OUTER_BOUND ( 'NONE', #580, .T. ) ;
#533 = APPLICATION_PROTOCOL_DEFINITION ( 'draft international standard', 'automotive_design', 1998, #485 ) ;
#534 = ORIENTED_EDGE ( 'NONE', *, *, #33, .F. ) ;
#535 = CARTESIAN_POINT ( 'NONE',  ( 2.401875000000000000, 0.0000000000000000000, 0.1250000000000000000 ) ) ;
#536 = MANIFOLD_SOLID_BREP ( 'Revolve1', #247 ) ;
#537 = ORIENTED_EDGE ( 'NONE', *, *, #60, .T. ) ;
#538 = LINE ( 'NONE', #59, #562 ) ;
#539 = VERTEX_POINT ( 'NONE', #182 ) ;
#540 =( NAMED_UNIT ( * ) SI_UNIT ( $, .STERADIAN. ) SOLID_ANGLE_UNIT ( ) );
#541 = VECTOR ( 'NONE', #603, 39.37007874015748100 ) ;
#542 = CIRCLE ( 'NONE', #214, 0.1250000000000000000 ) ;
#543 =( NAMED_UNIT ( * ) PLANE_ANGLE_UNIT ( ) SI_UNIT ( $, .RADIAN. ) );
#544 = ORIENTED_EDGE ( 'NONE', *, *, #595, .F. ) ;
#545 = CARTESIAN_POINT ( 'NONE',  ( 2.421875000000000000, 0.04687500000000002100, -0.02706329386826369600 ) ) ;
#546 = DIRECTION ( 'NONE',  ( 0.0000000000000000000, 0.0000000000000000000, 1.000000000000000000 ) ) ;
#547 = FACE_OUTER_BOUND ( 'NONE', #313, .T. ) ;
#548 = AXIS2_PLACEMENT_3D ( 'NONE', #224, #322, #323 ) ;
#549 = CARTESIAN_POINT ( 'NONE',  ( 0.0000000000000000000, 0.0000000000000000000, 0.0000000000000000000 ) ) ;
#550 = VECTOR ( 'NONE', #415, 39.37007874015748100 ) ;
#551 = DIRECTION ( 'NONE',  ( 0.7071067811865460200, 8.659560562354951300E-017, 0.7071067811865490200 ) ) ;
#552 = DIRECTION ( 'NONE',  ( 1.000000000000000000, -0.0000000000000000000, -0.0000000000000000000 ) ) ;
#553 = CARTESIAN_POINT ( 'NONE',  ( 2.331874999999999700, -4.729846310483748400E-018, -0.05412658773652741200 ) ) ;
#554 = FACE_OUTER_BOUND ( 'NONE', #597, .T. ) ;
#555 = DIRECTION ( 'NONE',  ( 0.0000000000000000000, -0.4999999999999996100, 0.8660254037844389300 ) ) ;
#556 = ORIENTED_EDGE ( 'NONE', *, *, #561, .F. ) ;
#557 = EDGE_LOOP ( 'NONE', ( #544, #508, #524, #600, #519, #556 ) ) ;
#558 = DIRECTION ( 'NONE',  ( -1.000000000000000000, 0.0000000000000000000, 0.0000000000000000000 ) ) ;
#559 = LINE ( 'NONE', #460, #525 ) ;
#560 = ADVANCED_FACE ( 'NONE', ( #532 ), #86, .F. ) ;
#561 = EDGE_CURVE ( 'NONE', #163, #359, #108, .T. ) ;
#562 = VECTOR ( 'NONE', #605, 39.37007874015748100 ) ;
#563 = VERTEX_POINT ( 'NONE', #136 ) ;
#564 = FILL_AREA_STYLE ('',( #602 ) ) ;
#565 = EDGE_LOOP ( 'NONE', ( #619, #380, #75, #350, #209, #469 ) ) ;
#566 = EDGE_CURVE ( 'NONE', #594, #539, #443, .T. ) ;
#567 = CARTESIAN_POINT ( 'NONE',  ( 2.421875000000000000, 0.0000000000000000000, 0.0000000000000000000 ) ) ;
#568 = ORIENTED_EDGE ( 'NONE', *, *, #595, .T. ) ;
#569 = DIRECTION ( 'NONE',  ( 0.0000000000000000000, 0.0000000000000000000, 1.000000000000000000 ) ) ;
#570 = DIRECTION ( 'NONE',  ( 0.0000000000000000000, 0.0000000000000000000, 1.000000000000000000 ) ) ;
#571 = FACE_OUTER_BOUND ( 'NONE', #629, .T. ) ;
#572 = DIMENSIONAL_EXPONENTS ( 1.000000000000000000, 0.0000000000000000000, 0.0000000000000000000, 0.0000000000000000000, 0.0000000000000000000, 0.0000000000000000000, 0.0000000000000000000 ) ;
#573 = DIRECTION ( 'NONE',  ( 0.0000000000000000000, -1.000000000000000000, 3.154466349054402700E-016 ) ) ;
#574 = ORIENTED_EDGE ( 'NONE', *, *, #55, .T. ) ;
#575 =( LENGTH_UNIT ( ) NAMED_UNIT ( * ) SI_UNIT ( $, .METRE. ) );
#576 = VERTEX_POINT ( 'NONE', #277 ) ;
#577 = VECTOR ( 'NONE', #466, 39.37007874015748100 ) ;
#578 = CONICAL_SURFACE ( 'NONE', #270, 0.1049999999999998300, 0.7853981633974509400 ) ;
#579 = DIRECTION ( 'NONE',  ( 0.0000000000000000000, 0.0000000000000000000, -1.000000000000000000 ) ) ;
#580 = EDGE_LOOP ( 'NONE', ( #46, #35, #229, #307 ) ) ;
#581 = VERTEX_POINT ( 'NONE', #507 ) ;
#582 =( CONVERSION_BASED_UNIT ( 'INCH', #470 ) LENGTH_UNIT ( ) NAMED_UNIT ( #289 ) );
#583 = VECTOR ( 'NONE', #288, 39.37007874015748100 ) ;
#584 = VERTEX_POINT ( 'NONE', #495 ) ;
#585 = EDGE_CURVE ( 'NONE', #79, #563, #611, .T. ) ;
#586 = DIRECTION ( 'NONE',  ( -1.000000000000000000, 0.0000000000000000000, 0.0000000000000000000 ) ) ;
#587 = EDGE_CURVE ( 'NONE', #320, #349, #559, .T. ) ;
#588 = ORIENTED_EDGE ( 'NONE', *, *, #8, .T. ) ;
#589 = EDGE_CURVE ( 'NONE', #475, #563, #171, .T. ) ;
#590 = EDGE_CURVE ( 'NONE', #349, #576, #449, .T. ) ;
#591 = DIRECTION ( 'NONE',  ( 0.0000000000000000000, 0.0000000000000000000, 1.000000000000000000 ) ) ;
#592 = VECTOR ( 'NONE', #620, 39.37007874015748900 ) ;
#593 = ORIENTED_EDGE ( 'NONE', *, *, #60, .F. ) ;
#594 = VERTEX_POINT ( 'NONE', #235 ) ;
#595 = EDGE_CURVE ( 'NONE', #167, #163, #93, .T. ) ;
#596 = FACE_OUTER_BOUND ( 'NONE', #200, .T. ) ;
#597 = EDGE_LOOP ( 'NONE', ( #370, #534, #410, #398 ) ) ;
#598 = EDGE_CURVE ( 'NONE', #432, #167, #42, .T. ) ;
#599 = CARTESIAN_POINT ( 'NONE',  ( 0.07812500000000000000, 0.0000000000000000000, 0.07800000000000000000 ) ) ;
#600 = ORIENTED_EDGE ( 'NONE', *, *, #1, .F. ) ;
#601 = DIRECTION ( 'NONE',  ( 1.000000000000000000, -0.0000000000000000000, -0.0000000000000000000 ) ) ;
#602 = FILL_AREA_STYLE_COLOUR ( '', #232 ) ;
#603 = DIRECTION ( 'NONE',  ( 0.0000000000000000000, 0.8660254037844388200, 0.4999999999999998300 ) ) ;
#604 = PLANE ( 'NONE',  #463 ) ;
#605 = DIRECTION ( 'NONE',  ( -1.000000000000000000, -0.0000000000000000000, -0.0000000000000000000 ) ) ;
#606 = CARTESIAN_POINT ( 'NONE',  ( 2.331874999999999700, 0.0000000000000000000, 0.0000000000000000000 ) ) ;
#607 = EDGE_CURVE ( 'NONE', #628, #79, #119, .T. ) ;
#608 = ADVANCED_FACE ( 'NONE', ( #596 ), #220, .T. ) ;
#609 =( GEOMETRIC_REPRESENTATION_CONTEXT ( 3 ) GLOBAL_UNCERTAINTY_ASSIGNED_CONTEXT ( ( #264 ) ) GLOBAL_UNIT_ASSIGNED_CONTEXT ( ( #582, #543, #540 ) ) REPRESENTATION_CONTEXT ( 'NONE', 'WORKASPACE' ) );
#610 = EDGE_LOOP ( 'NONE', ( #436, #489, #503, #465 ) ) ;
#611 = LINE ( 'NONE', #501, #577 ) ;
#612 = FACE_OUTER_BOUND ( 'NONE', #144, .T. ) ;
#613 = ORIENTED_EDGE ( 'NONE', *, *, #100, .F. ) ;
#614 = DIRECTION ( 'NONE',  ( 0.0000000000000000000, 1.000000000000000000, -0.0000000000000000000 ) ) ;
#615 = EDGE_CURVE ( 'NONE', #361, #3, #627, .T. ) ;
#616 = CARTESIAN_POINT ( 'NONE',  ( 0.0000000000000000000, 0.0000000000000000000, 0.07800000000000000000 ) ) ;
#617 = AXIS2_PLACEMENT_3D ( 'NONE', #28, #131, #133 ) ;
#618 = CARTESIAN_POINT ( 'NONE',  ( 2.331874999999999700, 1.571044717415665500E-017, 0.05412658773652741200 ) ) ;
#619 = ORIENTED_EDGE ( 'NONE', *, *, #92, .T. ) ;
#620 = DIRECTION ( 'NONE',  ( 0.0000000000000000000, -0.8660254037844388200, -0.4999999999999995600 ) ) ;
#621 = AXIS2_PLACEMENT_3D ( 'NONE', #390, #421, #372 ) ;
#622 = DIRECTION ( 'NONE',  ( 1.000000000000000000, 0.0000000000000000000, 0.0000000000000000000 ) ) ;
#623 = FILL_AREA_STYLE ('',( #151 ) ) ;
#624 = CIRCLE ( 'NONE', #237, 0.07800000000000000000 ) ;
#625 = CARTESIAN_POINT ( 'NONE',  ( 2.331874999999999700, 0.04687500000000002100, -0.02706329386826369600 ) ) ;
#626 = VERTEX_POINT ( 'NONE', #222 ) ;
#627 = CIRCLE ( 'NONE', #148, 0.07800000000000000000 ) ;
#628 = VERTEX_POINT ( 'NONE', #535 ) ;
#629 = EDGE_LOOP ( 'NONE', ( #304, #260 ) ) ;
ENDSEC;
END-ISO-10303-21;
