ISO-10303-21;
HEADER;
FILE_DESCRIPTION (( 'STEP AP214' ),
    '1' );
FILE_NAME ('TB250-80-625.STEP',
    '2013-02-13T15:14:35',
    ( 'workpc' ),
    ( 'Microsoft' ),
    'SwSTEP 2.0',
    'SolidWorks 2013',
    '' );
FILE_SCHEMA (( 'AUTOMOTIVE_DESIGN' ));
ENDSEC;

DATA;
#1 = DIRECTION ( 'NONE',  ( -1.000000000000000000, -0.0000000000000000000, -0.0000000000000000000 ) ) ;
#2 = CARTESIAN_POINT ( 'NONE',  ( -2.400239482199407500, 3.726483755487927800, 0.0000000000000000000 ) ) ;
#3 = DIRECTION ( 'NONE',  ( 1.000000000000000000, 0.0000000000000000000, 0.0000000000000000000 ) ) ;
#4 = LENGTH_MEASURE_WITH_UNIT ( LENGTH_MEASURE( 0.02539999999999999900 ), #156 );
#5 = LENGTH_MEASURE_WITH_UNIT ( LENGTH_MEASURE( 0.02539999999999999900 ), #354 );
#6 = UNCERTAINTY_MEASURE_WITH_UNIT (LENGTH_MEASURE( 1.000000000000000100E-005 ), #282, 'distance_accuracy_value', 'NONE');
#7 =( GEOMETRIC_REPRESENTATION_CONTEXT ( 3 ) GLOBAL_UNCERTAINTY_ASSIGNED_CONTEXT ( ( #268 ) ) GLOBAL_UNIT_ASSIGNED_CONTEXT ( ( #351, #349, #358 ) ) REPRESENTATION_CONTEXT ( 'NONE', 'WORKASPACE' ) );
#8 = VERTEX_POINT ( 'NONE', #465 ) ;
#9 = CARTESIAN_POINT ( 'NONE',  ( -2.400239482199407500, 3.726483755487927800, -0.1562500000000002800 ) ) ;
#10 = ORIENTED_EDGE ( 'NONE', *, *, #295, .T. ) ;
#11 = VECTOR ( 'NONE', #239, 39.37007874015748100 ) ;
#12 = PLANE ( 'NONE',  #513 ) ;
#13 = ORIENTED_EDGE ( 'NONE', *, *, #366, .T. ) ;
#14 = ORIENTED_EDGE ( 'NONE', *, *, #366, .F. ) ;
#15 = AXIS2_PLACEMENT_3D ( 'NONE', #323, #317, #313 ) ;
#16 = ORIENTED_EDGE ( 'NONE', *, *, #215, .T. ) ;
#17 = ORIENTED_EDGE ( 'NONE', *, *, #385, .T. ) ;
#18 = MECHANICAL_DESIGN_GEOMETRIC_PRESENTATION_REPRESENTATION (  '', ( #25 ), #7 ) ;
#19 = DIRECTION ( 'NONE',  ( -1.000000000000000000, -0.0000000000000000000, -0.0000000000000000000 ) ) ;
#20 = PRESENTATION_LAYER_ASSIGNMENT (  '', '', ( #25 ) ) ;
#21 = DIRECTION ( 'NONE',  ( -1.000000000000000000, -0.0000000000000000000, -0.0000000000000000000 ) ) ;
#22 = EDGE_LOOP ( 'NONE', ( #402, #456, #347, #575 ) ) ;
#23 = DIRECTION ( 'NONE',  ( -1.000000000000000000, -0.0000000000000000000, -0.0000000000000000000 ) ) ;
#24 = CARTESIAN_POINT ( 'NONE',  ( -2.400239482199407500, 3.726483755487927800, 0.1760000000000002700 ) ) ;
#25 = STYLED_ITEM ( 'NONE', ( #119 ), #292 ) ;
#26 = CYLINDRICAL_SURFACE ( 'NONE', #518, 0.1512500000000001900 ) ;
#27 = CARTESIAN_POINT ( 'NONE',  ( -2.400239482199407500, 3.726483755487927800, 0.1562500000000002800 ) ) ;
#28 = VERTEX_POINT ( 'NONE', #453 ) ;
#29 = ORIENTED_EDGE ( 'NONE', *, *, #462, .F. ) ;
#30 = AXIS2_PLACEMENT_3D ( 'NONE', #564, #46, #561 ) ;
#31 = EDGE_LOOP ( 'NONE', ( #320, #167, #279, #29 ) ) ;
#32 = LINE ( 'NONE', #569, #390 ) ;
#33 = EDGE_LOOP ( 'NONE', ( #415, #66, #554, #360 ) ) ;
#34 = DIRECTION ( 'NONE',  ( -1.000000000000000000, -0.0000000000000000000, -0.0000000000000000000 ) ) ;
#35 = AXIS2_PLACEMENT_3D ( 'NONE', #221, #81, #267 ) ;
#36 = PLANE ( 'NONE',  #479 ) ;
#37 = CYLINDRICAL_SURFACE ( 'NONE', #103, 0.1760000000000002700 ) ;
#38 = AXIS2_PLACEMENT_3D ( 'NONE', #414, #288, #556 ) ;
#39 = FACE_OUTER_BOUND ( 'NONE', #560, .T. ) ;
#40 = AXIS2_PLACEMENT_3D ( 'NONE', #401, #578, #577 ) ;
#41 = ORIENTED_EDGE ( 'NONE', *, *, #257, .F. ) ;
#42 = CARTESIAN_POINT ( 'NONE',  ( -2.375239482199407600, 3.726483755487927800, 0.1562500000000002800 ) ) ;
#43 = DIRECTION ( 'NONE',  ( -0.7071067811865474600, 0.0000000000000000000, 0.7071067811865474600 ) ) ;
#44 = FILL_AREA_STYLE_COLOUR ( '', #63 ) ;
#45 = FACE_OUTER_BOUND ( 'NONE', #243, .T. ) ;
#46 = DIRECTION ( 'NONE',  ( -1.000000000000000000, -0.0000000000000000000, -0.0000000000000000000 ) ) ;
#47 = AXIS2_PLACEMENT_3D ( 'NONE', #548, #530, #523 ) ;
#48 = CONICAL_SURFACE ( 'NONE', #212, 0.1562500000000002800, 0.7853981633974482800 ) ;
#49 = PRODUCT ( 'TB250-80-625', 'TB250-80-625', '', ( #185 ) ) ;
#50 = CONICAL_SURFACE ( 'NONE', #572, 0.1462500000000001000, 0.7853981633974619300 ) ;
#51 = ORIENTED_EDGE ( 'NONE', *, *, #178, .F. ) ;
#52 = ORIENTED_EDGE ( 'NONE', *, *, #337, .F. ) ;
#53 = AXIS2_PLACEMENT_3D ( 'NONE', #509, #507, #476 ) ;
#54 = SHAPE_DEFINITION_REPRESENTATION ( #540, #59 ) ;
#55 = CIRCLE ( 'NONE', #47, 0.1249999999999999600 ) ;
#56 = CARTESIAN_POINT ( 'NONE',  ( -2.400239482199407500, 3.726483755487927800, 0.0000000000000000000 ) ) ;
#57 = CARTESIAN_POINT ( 'NONE',  ( -2.390239482199407700, 3.726483755487927800, 0.1512500000000001900 ) ) ;
#58 = CYLINDRICAL_SURFACE ( 'NONE', #115, 0.1562500000000002800 ) ;
#59 = ADVANCED_BREP_SHAPE_REPRESENTATION ( 'TB250-80-625', ( #412, #432 ), #271 ) ;
#60 = LINE ( 'NONE', #27, #74 ) ;
#61 = VERTEX_POINT ( 'NONE', #500 ) ;
#62 = AXIS2_PLACEMENT_3D ( 'NONE', #586, #571, #568 ) ;
#63 = COLOUR_RGB ( '',0.6470588235294118000, 0.5137254901960783800, 0.0000000000000000000 ) ;
#64 = DIRECTION ( 'NONE',  ( 0.0000000000000000000, 0.0000000000000000000, 1.000000000000000000 ) ) ;
#65 = CIRCLE ( 'NONE', #67, 0.1759999999999999900 ) ;
#66 = ORIENTED_EDGE ( 'NONE', *, *, #224, .F. ) ;
#67 = AXIS2_PLACEMENT_3D ( 'NONE', #424, #503, #489 ) ;
#68 = DIRECTION ( 'NONE',  ( 0.0000000000000000000, 0.0000000000000000000, 1.000000000000000000 ) ) ;
#69 = DIRECTION ( 'NONE',  ( -0.0000000000000000000, 0.0000000000000000000, 1.000000000000000000 ) ) ;
#70 = VERTEX_POINT ( 'NONE', #109 ) ;
#71 = CARTESIAN_POINT ( 'NONE',  ( -2.400239482199407500, 3.726483755487927800, -0.1349999999999998700 ) ) ;
#72 = VECTOR ( 'NONE', #443, 39.37007874015748100 ) ;
#73 = VERTEX_POINT ( 'NONE', #134 ) ;
#74 = VECTOR ( 'NONE', #1, 39.37007874015748100 ) ;
#75 = CARTESIAN_POINT ( 'NONE',  ( -2.400239482199407500, 3.726483755487927800, 0.0000000000000000000 ) ) ;
#76 = STYLED_ITEM ( 'NONE', ( #91 ), #59 ) ;
#77 = CARTESIAN_POINT ( 'NONE',  ( -2.400239482199407500, 3.726483755487927800, 0.0000000000000000000 ) ) ;
#78 = DIRECTION ( 'NONE',  ( 0.0000000000000000000, 0.0000000000000000000, 1.000000000000000000 ) ) ;
#79 = AXIS2_PLACEMENT_3D ( 'NONE', #387, #472, #457 ) ;
#80 = ORIENTED_EDGE ( 'NONE', *, *, #474, .T. ) ;
#81 = DIRECTION ( 'NONE',  ( -1.000000000000000000, -0.0000000000000000000, -0.0000000000000000000 ) ) ;
#82 = CARTESIAN_POINT ( 'NONE',  ( -2.390239482199407700, 3.877733755487927900, 0.0000000000000000000 ) ) ;
#83 = LINE ( 'NONE', #202, #179 ) ;
#84 = DIRECTION ( 'NONE',  ( 0.0000000000000000000, 0.0000000000000000000, -1.000000000000000000 ) ) ;
#85 = AXIS2_PLACEMENT_3D ( 'NONE', #293, #306, #461 ) ;
#86 = ORIENTED_EDGE ( 'NONE', *, *, #289, .T. ) ;
#87 = DIRECTION ( 'NONE',  ( 0.0000000000000000000, 0.0000000000000000000, 1.000000000000000000 ) ) ;
#88 = CIRCLE ( 'NONE', #311, 0.1349999999999999800 ) ;
#89 = CYLINDRICAL_SURFACE ( 'NONE', #552, 0.1562500000000002800 ) ;
#90 = CARTESIAN_POINT ( 'NONE',  ( -2.400239482199407500, 3.726483755487927800, -0.1349999999999998700 ) ) ;
#91 = PRESENTATION_STYLE_ASSIGNMENT (( #229 ) ) ;
#92 = FACE_OUTER_BOUND ( 'NONE', #427, .T. ) ;
#93 = VERTEX_POINT ( 'NONE', #165 ) ;
#94 = AXIS2_PLACEMENT_3D ( 'NONE', #441, #433, #419 ) ;
#95 = CARTESIAN_POINT ( 'NONE',  ( -2.380239482199408000, 3.726483755487927800, 0.1512500000000001900 ) ) ;
#96 = AXIS2_PLACEMENT_3D ( 'NONE', #132, #21, #492 ) ;
#97 = VERTEX_POINT ( 'NONE', #121 ) ;
#98 = LINE ( 'NONE', #71, #308 ) ;
#99 = ORIENTED_EDGE ( 'NONE', *, *, #368, .T. ) ;
#100 = ORIENTED_EDGE ( 'NONE', *, *, #303, .T. ) ;
#101 = AXIS2_PLACEMENT_3D ( 'NONE', #259, #438, #312 ) ;
#102 = ORIENTED_EDGE ( 'NONE', *, *, #484, .F. ) ;
#103 = AXIS2_PLACEMENT_3D ( 'NONE', #491, #483, #495 ) ;
#104 = CARTESIAN_POINT ( 'NONE',  ( -2.380239482199408000, 3.726483755487927800, -0.1512500000000001900 ) ) ;
#105 = DIRECTION ( 'NONE',  ( -1.000000000000000000, -0.0000000000000000000, -0.0000000000000000000 ) ) ;
#106 = ORIENTED_EDGE ( 'NONE', *, *, #409, .F. ) ;
#107 = DIRECTION ( 'NONE',  ( -1.000000000000000000, -0.0000000000000000000, -0.0000000000000000000 ) ) ;
#108 = CARTESIAN_POINT ( 'NONE',  ( -1.785239482199407800, 3.726483755487927800, 0.0000000000000000000 ) ) ;
#109 = CARTESIAN_POINT ( 'NONE',  ( -2.390239482199407700, 3.726483755487927800, -0.1512500000000001900 ) ) ;
#110 = VERTEX_POINT ( 'NONE', #57 ) ;
#111 = DIRECTION ( 'NONE',  ( -1.000000000000000000, -0.0000000000000000000, -0.0000000000000000000 ) ) ;
#112 = DIRECTION ( 'NONE',  ( 1.000000000000000000, 0.0000000000000000000, 0.0000000000000000000 ) ) ;
#113 = VECTOR ( 'NONE', #384, 39.37007874015748100 ) ;
#114 = ORIENTED_EDGE ( 'NONE', *, *, #210, .F. ) ;
#115 = AXIS2_PLACEMENT_3D ( 'NONE', #524, #501, #64 ) ;
#116 = DIRECTION ( 'NONE',  ( 0.0000000000000000000, 0.0000000000000000000, -1.000000000000000000 ) ) ;
#117 = DIRECTION ( 'NONE',  ( 1.000000000000000000, 0.0000000000000000000, 0.0000000000000000000 ) ) ;
#118 = PRESENTATION_STYLE_ASSIGNMENT (( #370 ) ) ;
#119 = PRESENTATION_STYLE_ASSIGNMENT (( #339 ) ) ;
#120 = DIRECTION ( 'NONE',  ( 0.0000000000000000000, 0.0000000000000000000, 1.000000000000000000 ) ) ;
#121 = CARTESIAN_POINT ( 'NONE',  ( -1.775239482199407500, 3.726483755487927800, -0.1462500000000001000 ) ) ;
#122 = AXIS2_PLACEMENT_3D ( 'NONE', #201, #318, #294 ) ;
#123 = VECTOR ( 'NONE', #504, 39.37007874015748100 ) ;
#124 = ORIENTED_EDGE ( 'NONE', *, *, #144, .F. ) ;
#125 = EDGE_CURVE ( 'NONE', #97, #466, #285, .T. ) ;
#126 = CARTESIAN_POINT ( 'NONE',  ( -2.400239482199407500, 3.726483755487927800, 0.0000000000000000000 ) ) ;
#127 = CARTESIAN_POINT ( 'NONE',  ( -2.390239482199407700, 3.726483755487927800, 0.0000000000000000000 ) ) ;
#128 = AXIS2_PLACEMENT_3D ( 'NONE', #177, #168, #141 ) ;
#129 = FACE_OUTER_BOUND ( 'NONE', #342, .T. ) ;
#130 = DIRECTION ( 'NONE',  ( -1.000000000000000000, -0.0000000000000000000, -0.0000000000000000000 ) ) ;
#131 = ORIENTED_EDGE ( 'NONE', *, *, #379, .F. ) ;
#132 = CARTESIAN_POINT ( 'NONE',  ( -2.380239482199408000, 3.726483755487927800, 0.0000000000000000000 ) ) ;
#133 = EDGE_CURVE ( 'NONE', #331, #183, #430, .T. ) ;
#134 = CARTESIAN_POINT ( 'NONE',  ( -2.375239482199407600, 3.726483755487927800, 0.1562500000000002800 ) ) ;
#135 = FACE_OUTER_BOUND ( 'NONE', #31, .T. ) ;
#136 = CIRCLE ( 'NONE', #580, 0.1760000000000005200 ) ;
#137 = DIRECTION ( 'NONE',  ( -1.000000000000000000, -0.0000000000000000000, -0.0000000000000000000 ) ) ;
#138 = EDGE_CURVE ( 'NONE', #241, #475, #559, .T. ) ;
#139 = ORIENTED_EDGE ( 'NONE', *, *, #144, .T. ) ;
#140 = CARTESIAN_POINT ( 'NONE',  ( -1.775239482199407500, 3.726483755487927800, 0.0000000000000000000 ) ) ;
#141 = DIRECTION ( 'NONE',  ( 0.0000000000000000000, 0.0000000000000000000, 1.000000000000000000 ) ) ;
#142 = PLANE ( 'NONE',  #220 ) ;
#143 = VECTOR ( 'NONE', #565, 39.37007874015748100 ) ;
#144 = EDGE_CURVE ( 'NONE', #528, #365, #172, .T. ) ;
#145 = EDGE_LOOP ( 'NONE', ( #480, #124 ) ) ;
#146 = EDGE_LOOP ( 'NONE', ( #310, #309 ) ) ;
#147 = CARTESIAN_POINT ( 'NONE',  ( -1.775239482199407500, 3.726483755487927800, 0.0000000000000000000 ) ) ;
#148 = CIRCLE ( 'NONE', #244, 0.1562500000000002800 ) ;
#149 = FACE_BOUND ( 'NONE', #367, .T. ) ;
#150 = CARTESIAN_POINT ( 'NONE',  ( -2.390239482199407700, 3.726483755487927800, 0.0000000000000000000 ) ) ;
#151 = ORIENTED_EDGE ( 'NONE', *, *, #337, .T. ) ;
#152 = AXIS2_PLACEMENT_3D ( 'NONE', #383, #375, #373 ) ;
#153 = EDGE_LOOP ( 'NONE', ( #198, #588, #99, #325 ) ) ;
#154 = EDGE_CURVE ( 'NONE', #61, #28, #543, .T. ) ;
#155 = CARTESIAN_POINT ( 'NONE',  ( -2.400239482199407500, 3.726483755487927800, 0.0000000000000000000 ) ) ;
#156 =( LENGTH_UNIT ( ) NAMED_UNIT ( * ) SI_UNIT ( $, .METRE. ) );
#157 = CARTESIAN_POINT ( 'NONE',  ( -2.400239482199407500, 3.726483755487927800, 0.0000000000000000000 ) ) ;
#158 = CIRCLE ( 'NONE', #53, 0.1562500000000002800 ) ;
#159 = VERTEX_POINT ( 'NONE', #416 ) ;
#160 = DIRECTION ( 'NONE',  ( -1.000000000000000000, 0.0000000000000000000, -0.0000000000000000000 ) ) ;
#161 = AXIS2_PLACEMENT_3D ( 'NONE', #437, #431, #392 ) ;
#162 = ORIENTED_EDGE ( 'NONE', *, *, #368, .F. ) ;
#163 = FACE_OUTER_BOUND ( 'NONE', #357, .T. ) ;
#164 = CONICAL_SURFACE ( 'NONE', #122, 0.1349999999999998700, 0.7853981633974482800 ) ;
#165 = CARTESIAN_POINT ( 'NONE',  ( -1.785239482199407800, 3.726483755487927800, -0.1249999999999999600 ) ) ;
#166 = ORIENTED_EDGE ( 'NONE', *, *, #356, .T. ) ;
#167 = ORIENTED_EDGE ( 'NONE', *, *, #494, .T. ) ;
#168 = DIRECTION ( 'NONE',  ( -1.000000000000000000, -0.0000000000000000000, -0.0000000000000000000 ) ) ;
#169 = AXIS2_PLACEMENT_3D ( 'NONE', #536, #538, #579 ) ;
#170 = CONICAL_SURFACE ( 'NONE', #487, 0.1349999999999998700, 0.7853981633974482800 ) ;
#171 = ORIENTED_EDGE ( 'NONE', *, *, #315, .F. ) ;
#172 = CIRCLE ( 'NONE', #85, 0.1760000000000005200 ) ;
#173 = ORIENTED_EDGE ( 'NONE', *, *, #330, .F. ) ;
#174 = CYLINDRICAL_SURFACE ( 'NONE', #273, 0.1249999999999999600 ) ;
#175 = CYLINDRICAL_SURFACE ( 'NONE', #583, 0.1249999999999999600 ) ;
#176 = EDGE_LOOP ( 'NONE', ( #208, #100, #114, #251 ) ) ;
#177 = CARTESIAN_POINT ( 'NONE',  ( -1.775239482199407500, 3.726483755487927800, 0.0000000000000000000 ) ) ;
#178 = EDGE_CURVE ( 'NONE', #333, #341, #65, .T. ) ;
#179 = VECTOR ( 'NONE', #231, 39.37007874015748100 ) ;
#180 = APPLICATION_PROTOCOL_DEFINITION ( 'draft international standard', 'automotive_design', 1998, #184 ) ;
#181 = PRODUCT_DEFINITION_CONTEXT ( 'detailed design', #184, 'design' ) ;
#182 = FILL_AREA_STYLE_COLOUR ( '', #225 ) ;
#183 = VERTEX_POINT ( 'NONE', #95 ) ;
#184 = APPLICATION_CONTEXT ( 'automotive_design' ) ;
#185 = PRODUCT_CONTEXT ( 'NONE', #245, 'mechanical' ) ;
#186 = AXIS2_PLACEMENT_3D ( 'NONE', #75, #321, #377 ) ;
#187 = CARTESIAN_POINT ( 'NONE',  ( -2.390239482199407700, 3.726483755487927800, 0.1249999999999999600 ) ) ;
#188 = CARTESIAN_POINT ( 'NONE',  ( -2.400239482199407500, 3.726483755487927800, 0.0000000000000000000 ) ) ;
#189 = DIRECTION ( 'NONE',  ( -1.000000000000000000, 0.0000000000000000000, -0.0000000000000000000 ) ) ;
#190 = DIRECTION ( 'NONE',  ( 1.000000000000000000, 0.0000000000000000000, 0.0000000000000000000 ) ) ;
#191 = CARTESIAN_POINT ( 'NONE',  ( -2.375239482199407600, 3.726483755487927800, 0.0000000000000000000 ) ) ;
#192 = ORIENTED_EDGE ( 'NONE', *, *, #257, .T. ) ;
#193 = DIRECTION ( 'NONE',  ( 0.0000000000000000000, 0.0000000000000000000, 1.000000000000000000 ) ) ;
#194 = CARTESIAN_POINT ( 'NONE',  ( -2.400239482199407500, 3.726483755487927800, 0.1349999999999998700 ) ) ;
#195 = SURFACE_STYLE_FILL_AREA ( #240 ) ;
#196 = SURFACE_STYLE_FILL_AREA ( #378 ) ;
#197 = CARTESIAN_POINT ( 'NONE',  ( -2.390239482199407700, 3.726483755487927800, 0.1760000000000005200 ) ) ;
#198 = ORIENTED_EDGE ( 'NONE', *, *, #343, .F. ) ;
#199 =( NAMED_UNIT ( * ) SI_UNIT ( $, .STERADIAN. ) SOLID_ANGLE_UNIT ( ) );
#200 =( LENGTH_UNIT ( ) NAMED_UNIT ( * ) SI_UNIT ( $, .METRE. ) );
#201 = CARTESIAN_POINT ( 'NONE',  ( -2.400239482199407500, 3.726483755487927800, 0.0000000000000000000 ) ) ;
#202 = CARTESIAN_POINT ( 'NONE',  ( -1.785239482199407800, 3.726483755487927800, 0.1249999999999999600 ) ) ;
#203 =( NAMED_UNIT ( * ) SI_UNIT ( $, .STERADIAN. ) SOLID_ANGLE_UNIT ( ) );
#204 = ORIENTED_EDGE ( 'NONE', *, *, #356, .F. ) ;
#205 = DIMENSIONAL_EXPONENTS ( 1.000000000000000000, 0.0000000000000000000, 0.0000000000000000000, 0.0000000000000000000, 0.0000000000000000000, 0.0000000000000000000, 0.0000000000000000000 ) ;
#206 = EDGE_CURVE ( 'NONE', #345, #413, #269, .T. ) ;
#207 = CONICAL_SURFACE ( 'NONE', #533, 0.1562500000000002800, 0.7853981633974482800 ) ;
#208 = ORIENTED_EDGE ( 'NONE', *, *, #154, .T. ) ;
#209 = ORIENTED_EDGE ( 'NONE', *, *, #260, .F. ) ;
#210 = EDGE_CURVE ( 'NONE', #73, #434, #158, .T. ) ;
#211 = DIRECTION ( 'NONE',  ( -1.000000000000000000, -0.0000000000000000000, -0.0000000000000000000 ) ) ;
#212 = AXIS2_PLACEMENT_3D ( 'NONE', #585, #582, #589 ) ;
#213 = ORIENTED_EDGE ( 'NONE', *, *, #474, .F. ) ;
#214 = ORIENTED_EDGE ( 'NONE', *, *, #494, .F. ) ;
#215 = EDGE_CURVE ( 'NONE', #422, #159, #55, .T. ) ;
#216 = LENGTH_MEASURE_WITH_UNIT ( LENGTH_MEASURE( 0.02539999999999999900 ), #286 );
#217 = LINE ( 'NONE', #234, #113 ) ;
#218 = EDGE_LOOP ( 'NONE', ( #301, #435, #534, #214 ) ) ;
#219 =( NAMED_UNIT ( * ) PLANE_ANGLE_UNIT ( ) SI_UNIT ( $, .RADIAN. ) );
#220 = AXIS2_PLACEMENT_3D ( 'NONE', #147, #189, #69 ) ;
#221 = CARTESIAN_POINT ( 'NONE',  ( -2.390239482199407700, 3.726483755487927800, 0.0000000000000000000 ) ) ;
#222 = COLOUR_RGB ( '',0.6470588235294118000, 0.5137254901960783800, 0.0000000000000000000 ) ;
#223 =( CONVERSION_BASED_UNIT ( 'INCH', #557 ) LENGTH_UNIT ( ) NAMED_UNIT ( #205 ) );
#224 = EDGE_CURVE ( 'NONE', #93, #8, #525, .T. ) ;
#225 = COLOUR_RGB ( '',0.6470588235294118000, 0.5137254901960783800, 0.0000000000000000000 ) ;
#226 =( LENGTH_UNIT ( ) NAMED_UNIT ( * ) SI_UNIT ( $, .METRE. ) );
#227 = CARTESIAN_POINT ( 'NONE',  ( -2.400239482199407500, 3.726483755487927800, 0.1249999999999999600 ) ) ;
#228 = EDGE_LOOP ( 'NONE', ( #233, #512 ) ) ;
#229 = SURFACE_STYLE_USAGE ( .BOTH. , #238 ) ;
#230 =( NAMED_UNIT ( * ) PLANE_ANGLE_UNIT ( ) SI_UNIT ( $, .RADIAN. ) );
#231 = DIRECTION ( 'NONE',  ( 0.7071067811865523500, 8.659560562354873700E-017, 0.7071067811865426900 ) ) ;
#232 = FACE_OUTER_BOUND ( 'NONE', #426, .T. ) ;
#233 = ORIENTED_EDGE ( 'NONE', *, *, #260, .T. ) ;
#234 = CARTESIAN_POINT ( 'NONE',  ( -2.400239482199407500, 3.726483755487927800, 0.1512500000000001900 ) ) ;
#235 = EDGE_CURVE ( 'NONE', #331, #434, #410, .T. ) ;
#236 = FILL_AREA_STYLE ('',( #486 ) ) ;
#237 = DIRECTION ( 'NONE',  ( -1.000000000000000000, -0.0000000000000000000, -0.0000000000000000000 ) ) ;
#238 = SURFACE_SIDE_STYLE ('',( #195 ) ) ;
#239 = DIRECTION ( 'NONE',  ( 0.7071067811865475700, 8.659560562354931600E-017, 0.7071067811865474600 ) ) ;
#240 = FILL_AREA_STYLE ('',( #327 ) ) ;
#241 = VERTEX_POINT ( 'NONE', #573 ) ;
#242 = CIRCLE ( 'NONE', #30, 0.1512500000000001900 ) ;
#243 = EDGE_LOOP ( 'NONE', ( #106, #299, #403, #369 ) ) ;
#244 = AXIS2_PLACEMENT_3D ( 'NONE', #529, #527, #526 ) ;
#245 = APPLICATION_CONTEXT ( 'automotive_design' ) ;
#246 = ORIENTED_EDGE ( 'NONE', *, *, #178, .T. ) ;
#247 = CONICAL_SURFACE ( 'NONE', #169, 0.1462500000000001000, 0.7853981633974619300 ) ;
#248 = FACE_OUTER_BOUND ( 'NONE', #553, .T. ) ;
#249 = DIRECTION ( 'NONE',  ( 0.0000000000000000000, 0.0000000000000000000, -1.000000000000000000 ) ) ;
#250 = ORIENTED_EDGE ( 'NONE', *, *, #235, .F. ) ;
#251 = ORIENTED_EDGE ( 'NONE', *, *, #326, .F. ) ;
#252 = DIMENSIONAL_EXPONENTS ( 1.000000000000000000, 0.0000000000000000000, 0.0000000000000000000, 0.0000000000000000000, 0.0000000000000000000, 0.0000000000000000000, 0.0000000000000000000 ) ;
#253 = FILL_AREA_STYLE ('',( #182 ) ) ;
#254 = LENGTH_MEASURE_WITH_UNIT ( LENGTH_MEASURE( 0.02539999999999999900 ), #200 );
#255 = DIRECTION ( 'NONE',  ( 0.0000000000000000000, 0.0000000000000000000, 1.000000000000000000 ) ) ;
#256 = LINE ( 'NONE', #551, #514 ) ;
#257 = EDGE_CURVE ( 'NONE', #528, #333, #256, .T. ) ;
#258 = ADVANCED_FACE ( 'NONE', ( #45 ), #355, .F. ) ;
#259 = CARTESIAN_POINT ( 'NONE',  ( -1.775239482199407500, 3.726483755487927800, 0.0000000000000000000 ) ) ;
#260 = EDGE_CURVE ( 'NONE', #110, #70, #505, .T. ) ;
#261 = CARTESIAN_POINT ( 'NONE',  ( -2.400239482199407500, 3.726483755487927800, -0.1759999999999999900 ) ) ;
#262 = CIRCLE ( 'NONE', #152, 0.1512500000000001900 ) ;
#263 = LINE ( 'NONE', #24, #399 ) ;
#264 = ORIENTED_EDGE ( 'NONE', *, *, #266, .T. ) ;
#265 = CARTESIAN_POINT ( 'NONE',  ( -2.400239482199407500, 3.726483755487927800, -0.1512500000000001900 ) ) ;
#266 = EDGE_CURVE ( 'NONE', #183, #331, #242, .T. ) ;
#267 = DIRECTION ( 'NONE',  ( 0.0000000000000000000, 0.0000000000000000000, 1.000000000000000000 ) ) ;
#268 = UNCERTAINTY_MEASURE_WITH_UNIT (LENGTH_MEASURE( 1.000000000000000100E-005 ), #351, 'distance_accuracy_value', 'NONE');
#269 = CIRCLE ( 'NONE', #62, 0.1349999999999998700 ) ;
#270 = APPLICATION_PROTOCOL_DEFINITION ( 'draft international standard', 'automotive_design', 1998, #245 ) ;
#271 =( GEOMETRIC_REPRESENTATION_CONTEXT ( 3 ) GLOBAL_UNCERTAINTY_ASSIGNED_CONTEXT ( ( #6 ) ) GLOBAL_UNIT_ASSIGNED_CONTEXT ( ( #282, #278, #274 ) ) REPRESENTATION_CONTEXT ( 'NONE', 'WORKASPACE' ) );
#272 = FACE_OUTER_BOUND ( 'NONE', #218, .T. ) ;
#273 = AXIS2_PLACEMENT_3D ( 'NONE', #157, #277, #116 ) ;
#274 =( NAMED_UNIT ( * ) SI_UNIT ( $, .STERADIAN. ) SOLID_ANGLE_UNIT ( ) );
#275 = DIRECTION ( 'NONE',  ( 0.0000000000000000000, 0.0000000000000000000, 1.000000000000000000 ) ) ;
#276 = LINE ( 'NONE', #9, #550 ) ;
#277 = DIRECTION ( 'NONE',  ( 1.000000000000000000, -0.0000000000000000000, -0.0000000000000000000 ) ) ;
#278 =( NAMED_UNIT ( * ) PLANE_ANGLE_UNIT ( ) SI_UNIT ( $, .RADIAN. ) );
#279 = ORIENTED_EDGE ( 'NONE', *, *, #326, .T. ) ;
#280 =( CONVERSION_BASED_UNIT ( 'INCH', #4 ) LENGTH_UNIT ( ) NAMED_UNIT ( #252 ) );
#281 = DIRECTION ( 'NONE',  ( 0.0000000000000000000, 0.0000000000000000000, -1.000000000000000000 ) ) ;
#282 =( CONVERSION_BASED_UNIT ( 'INCH', #216 ) LENGTH_UNIT ( ) NAMED_UNIT ( #338 ) );
#283 = CARTESIAN_POINT ( 'NONE',  ( -1.785239482199407800, 3.726483755487927800, 0.0000000000000000000 ) ) ;
#284 = SURFACE_STYLE_FILL_AREA ( #236 ) ;
#285 = CIRCLE ( 'NONE', #101, 0.1462500000000001000 ) ;
#286 =( LENGTH_UNIT ( ) NAMED_UNIT ( * ) SI_UNIT ( $, .METRE. ) );
#287 = DIMENSIONAL_EXPONENTS ( 1.000000000000000000, 0.0000000000000000000, 0.0000000000000000000, 0.0000000000000000000, 0.0000000000000000000, 0.0000000000000000000, 0.0000000000000000000 ) ;
#288 = DIRECTION ( 'NONE',  ( 1.000000000000000000, 0.0000000000000000000, 0.0000000000000000000 ) ) ;
#289 = EDGE_CURVE ( 'NONE', #97, #28, #32, .T. ) ;
#290 = LINE ( 'NONE', #428, #72 ) ;
#291 = CIRCLE ( 'NONE', #128, 0.1462500000000001000 ) ;
#292 = ADVANCED_FACE ( 'NONE', ( #129 ), #175, .F. ) ;
#293 = CARTESIAN_POINT ( 'NONE',  ( -2.390239482199407700, 3.726483755487927800, 0.0000000000000000000 ) ) ;
#294 = DIRECTION ( 'NONE',  ( 0.0000000000000000000, 0.0000000000000000000, 1.000000000000000000 ) ) ;
#295 = EDGE_CURVE ( 'NONE', #466, #97, #291, .T. ) ;
#296 = ADVANCED_FACE ( 'NONE', ( #567 ), #164, .F. ) ;
#297 = FACE_BOUND ( 'NONE', #228, .T. ) ;
#298 = ORIENTED_EDGE ( 'NONE', *, *, #133, .F. ) ;
#299 = ORIENTED_EDGE ( 'NONE', *, *, #406, .T. ) ;
#300 = DIMENSIONAL_EXPONENTS ( 1.000000000000000000, 0.0000000000000000000, 0.0000000000000000000, 0.0000000000000000000, 0.0000000000000000000, 0.0000000000000000000, 0.0000000000000000000 ) ;
#301 = ORIENTED_EDGE ( 'NONE', *, *, #289, .F. ) ;
#302 = ADVANCED_FACE ( 'NONE', ( #442 ), #89, .T. ) ;
#303 = EDGE_CURVE ( 'NONE', #28, #434, #276, .T. ) ;
#304 = ORIENTED_EDGE ( 'NONE', *, *, #393, .T. ) ;
#305 = ADVANCED_FACE ( 'NONE', ( #421 ), #50, .T. ) ;
#306 = DIRECTION ( 'NONE',  ( -1.000000000000000000, -0.0000000000000000000, -0.0000000000000000000 ) ) ;
#307 = COLOUR_RGB ( '',0.6470588235294118000, 0.5137254901960783800, 0.0000000000000000000 ) ;
#308 = VECTOR ( 'NONE', #389, 39.37007874015748900 ) ;
#309 = ORIENTED_EDGE ( 'NONE', *, *, #138, .T. ) ;
#310 = ORIENTED_EDGE ( 'NONE', *, *, #447, .T. ) ;
#311 = AXIS2_PLACEMENT_3D ( 'NONE', #140, #111, #120 ) ;
#312 = DIRECTION ( 'NONE',  ( 0.0000000000000000000, 0.0000000000000000000, 1.000000000000000000 ) ) ;
#313 = DIRECTION ( 'NONE',  ( 0.0000000000000000000, 0.0000000000000000000, 1.000000000000000000 ) ) ;
#314 = CARTESIAN_POINT ( 'NONE',  ( -2.375239482199407600, 3.726483755487927800, -0.1562500000000002800 ) ) ;
#315 = EDGE_CURVE ( 'NONE', #365, #341, #263, .T. ) ;
#316 = EDGE_LOOP ( 'NONE', ( #10, #86, #458, #102 ) ) ;
#317 = DIRECTION ( 'NONE',  ( -1.000000000000000000, -0.0000000000000000000, -0.0000000000000000000 ) ) ;
#318 = DIRECTION ( 'NONE',  ( -1.000000000000000000, -0.0000000000000000000, -0.0000000000000000000 ) ) ;
#319 = CARTESIAN_POINT ( 'NONE',  ( -2.400239482199407500, 3.726483755487927800, 0.1349999999999998700 ) ) ;
#320 = ORIENTED_EDGE ( 'NONE', *, *, #303, .F. ) ;
#321 = DIRECTION ( 'NONE',  ( -1.000000000000000000, -0.0000000000000000000, -0.0000000000000000000 ) ) ;
#322 = DIRECTION ( 'NONE',  ( 1.000000000000000000, 0.0000000000000000000, 0.0000000000000000000 ) ) ;
#323 = CARTESIAN_POINT ( 'NONE',  ( -1.785239482199407300, 3.726483755487927800, 0.0000000000000000000 ) ) ;
#324 = LINE ( 'NONE', #319, #587 ) ;
#325 = ORIENTED_EDGE ( 'NONE', *, *, #481, .F. ) ;
#326 = EDGE_CURVE ( 'NONE', #61, #73, #60, .T. ) ;
#327 = FILL_AREA_STYLE_COLOUR ( '', #307 ) ;
#328 = ORIENTED_EDGE ( 'NONE', *, *, #409, .T. ) ;
#329 = DIRECTION ( 'NONE',  ( 0.0000000000000000000, 0.0000000000000000000, 1.000000000000000000 ) ) ;
#330 = EDGE_CURVE ( 'NONE', #159, #93, #532, .T. ) ;
#331 = VERTEX_POINT ( 'NONE', #104 ) ;
#332 = EDGE_CURVE ( 'NONE', #365, #528, #136, .T. ) ;
#333 = VERTEX_POINT ( 'NONE', #261 ) ;
#334 = DIRECTION ( 'NONE',  ( 1.000000000000000000, -0.0000000000000000000, -0.0000000000000000000 ) ) ;
#335 = EDGE_LOOP ( 'NONE', ( #41, #139, #382, #51 ) ) ;
#336 =( GEOMETRIC_REPRESENTATION_CONTEXT ( 3 ) GLOBAL_UNCERTAINTY_ASSIGNED_CONTEXT ( ( #516 ) ) GLOBAL_UNIT_ASSIGNED_CONTEXT ( ( #280, #230, #199 ) ) REPRESENTATION_CONTEXT ( 'NONE', 'WORKASPACE' ) );
#337 = EDGE_CURVE ( 'NONE', #413, #345, #521, .T. ) ;
#338 = DIMENSIONAL_EXPONENTS ( 1.000000000000000000, 0.0000000000000000000, 0.0000000000000000000, 0.0000000000000000000, 0.0000000000000000000, 0.0000000000000000000, 0.0000000000000000000 ) ;
#339 = SURFACE_STYLE_USAGE ( .BOTH. , #348 ) ;
#340 = LINE ( 'NONE', #227, #123 ) ;
#341 = VERTEX_POINT ( 'NONE', #468 ) ;
#342 = EDGE_LOOP ( 'NONE', ( #204, #16, #381, #411 ) ) ;
#343 = EDGE_CURVE ( 'NONE', #331, #70, #511, .T. ) ;
#344 = ORIENTED_EDGE ( 'NONE', *, *, #266, .F. ) ;
#345 = VERTEX_POINT ( 'NONE', #90 ) ;
#346 = ADVANCED_FACE ( 'NONE', ( #248 ), #26, .T. ) ;
#347 = ORIENTED_EDGE ( 'NONE', *, *, #379, .T. ) ;
#348 = SURFACE_SIDE_STYLE ('',( #371 ) ) ;
#349 =( NAMED_UNIT ( * ) PLANE_ANGLE_UNIT ( ) SI_UNIT ( $, .RADIAN. ) );
#350 = MECHANICAL_DESIGN_GEOMETRIC_PRESENTATION_REPRESENTATION (  '', ( #376 ), #336 ) ;
#351 =( CONVERSION_BASED_UNIT ( 'INCH', #5 ) LENGTH_UNIT ( ) NAMED_UNIT ( #300 ) );
#352 = FACE_OUTER_BOUND ( 'NONE', #374, .T. ) ;
#353 = ADVANCED_FACE ( 'NONE', ( #149, #39 ), #12, .F. ) ;
#354 =( LENGTH_UNIT ( ) NAMED_UNIT ( * ) SI_UNIT ( $, .METRE. ) );
#355 = CONICAL_SURFACE ( 'NONE', #38, 0.1249999999999999600, 0.7853981633974415100 ) ;
#356 = EDGE_CURVE ( 'NONE', #422, #8, #340, .T. ) ;
#357 = EDGE_LOOP ( 'NONE', ( #372, #192, #213, #171 ) ) ;
#358 =( NAMED_UNIT ( * ) SI_UNIT ( $, .STERADIAN. ) SOLID_ANGLE_UNIT ( ) );
#359 = ADVANCED_FACE ( 'NONE', ( #232 ), #207, .T. ) ;
#360 = ORIENTED_EDGE ( 'NONE', *, *, #138, .F. ) ;
#361 = VECTOR ( 'NONE', #444, 39.37007874015748900 ) ;
#362 = VECTOR ( 'NONE', #107, 39.37007874015748100 ) ;
#363 = EDGE_LOOP ( 'NONE', ( #563, #451 ) ) ;
#364 = PRESENTATION_LAYER_ASSIGNMENT (  '', '', ( #376 ) ) ;
#365 = VERTEX_POINT ( 'NONE', #197 ) ;
#366 = EDGE_CURVE ( 'NONE', #183, #73, #478, .T. ) ;
#367 = EDGE_LOOP ( 'NONE', ( #151, #469 ) ) ;
#368 = EDGE_CURVE ( 'NONE', #183, #110, #217, .T. ) ;
#369 = ORIENTED_EDGE ( 'NONE', *, *, #425, .F. ) ;
#370 = SURFACE_STYLE_USAGE ( .BOTH. , #394 ) ;
#371 = SURFACE_STYLE_FILL_AREA ( #253 ) ;
#372 = ORIENTED_EDGE ( 'NONE', *, *, #332, .T. ) ;
#373 = DIRECTION ( 'NONE',  ( 0.0000000000000000000, 0.0000000000000000000, 1.000000000000000000 ) ) ;
#374 = EDGE_LOOP ( 'NONE', ( #304, #166, #328, #173 ) ) ;
#375 = DIRECTION ( 'NONE',  ( -1.000000000000000000, -0.0000000000000000000, -0.0000000000000000000 ) ) ;
#376 = STYLED_ITEM ( 'NONE', ( #118 ), #418 ) ;
#377 = DIRECTION ( 'NONE',  ( 0.0000000000000000000, 0.0000000000000000000, 1.000000000000000000 ) ) ;
#378 = FILL_AREA_STYLE ('',( #44 ) ) ;
#379 = EDGE_CURVE ( 'NONE', #422, #413, #324, .T. ) ;
#380 = VECTOR ( 'NONE', #450, 39.37007874015748100 ) ;
#381 = ORIENTED_EDGE ( 'NONE', *, *, #330, .T. ) ;
#382 = ORIENTED_EDGE ( 'NONE', *, *, #315, .T. ) ;
#383 = CARTESIAN_POINT ( 'NONE',  ( -2.390239482199407700, 3.726483755487927800, 0.0000000000000000000 ) ) ;
#384 = DIRECTION ( 'NONE',  ( -1.000000000000000000, -0.0000000000000000000, -0.0000000000000000000 ) ) ;
#385 = EDGE_CURVE ( 'NONE', #159, #345, #98, .T. ) ;
#386 = CARTESIAN_POINT ( 'NONE',  ( 0.0000000000000000000, 0.0000000000000000000, 0.0000000000000000000 ) ) ;
#387 = CARTESIAN_POINT ( 'NONE',  ( -1.785239482199407300, 3.726483755487927800, 0.0000000000000000000 ) ) ;
#388 = CARTESIAN_POINT ( 'NONE',  ( -1.775239482199407500, 3.726483755487927800, 0.1462500000000001000 ) ) ;
#389 = DIRECTION ( 'NONE',  ( -0.7071067811865474600, 8.659560562354932900E-017, -0.7071067811865474600 ) ) ;
#390 = VECTOR ( 'NONE', #508, 39.37007874015748900 ) ;
#391 = ADVANCED_FACE ( 'NONE', ( #464 ), #448, .T. ) ;
#392 = DIRECTION ( 'NONE',  ( 0.0000000000000000000, 0.0000000000000000000, 1.000000000000000000 ) ) ;
#393 = EDGE_CURVE ( 'NONE', #159, #422, #574, .T. ) ;
#394 = SURFACE_SIDE_STYLE ('',( #284 ) ) ;
#395 = ADVANCED_FACE ( 'NONE', ( #497, #297 ), #36, .F. ) ;
#396 = UNCERTAINTY_MEASURE_WITH_UNIT (LENGTH_MEASURE( 1.000000000000000100E-005 ), #223, 'distance_accuracy_value', 'NONE');
#397 = CIRCLE ( 'NONE', #161, 0.1759999999999999900 ) ;
#398 = PRODUCT_RELATED_PRODUCT_CATEGORY ( 'part', '', ( #49 ) ) ;
#399 = VECTOR ( 'NONE', #19, 39.37007874015748100 ) ;
#400 = ADVANCED_FACE ( 'NONE', ( #92 ), #170, .F. ) ;
#401 = CARTESIAN_POINT ( 'NONE',  ( -1.785239482199407800, 3.726483755487927800, 0.0000000000000000000 ) ) ;
#402 = ORIENTED_EDGE ( 'NONE', *, *, #385, .F. ) ;
#403 = ORIENTED_EDGE ( 'NONE', *, *, #447, .F. ) ;
#404 = ADVANCED_FACE ( 'NONE', ( #429 ), #541, .F. ) ;
#405 =( GEOMETRIC_REPRESENTATION_CONTEXT ( 3 ) GLOBAL_UNCERTAINTY_ASSIGNED_CONTEXT ( ( #473 ) ) GLOBAL_UNIT_ASSIGNED_CONTEXT ( ( #545, #544, #488 ) ) REPRESENTATION_CONTEXT ( 'NONE', 'WORKASPACE' ) );
#406 = EDGE_CURVE ( 'NONE', #8, #241, #83, .T. ) ;
#407 = CARTESIAN_POINT ( 'NONE',  ( -2.375239482199407600, 3.726483755487927800, -0.1562500000000002800 ) ) ;
#408 = PRESENTATION_STYLE_ASSIGNMENT (( #542 ) ) ;
#409 = EDGE_CURVE ( 'NONE', #8, #93, #558, .T. ) ;
#410 = LINE ( 'NONE', #407, #143 ) ;
#411 = ORIENTED_EDGE ( 'NONE', *, *, #224, .T. ) ;
#412 = MANIFOLD_SOLID_BREP ( 'Chamfer3', #482 ) ;
#413 = VERTEX_POINT ( 'NONE', #194 ) ;
#414 = CARTESIAN_POINT ( 'NONE',  ( -1.785239482199407800, 3.726483755487927800, 0.0000000000000000000 ) ) ;
#415 = ORIENTED_EDGE ( 'NONE', *, *, #406, .F. ) ;
#416 = CARTESIAN_POINT ( 'NONE',  ( -2.390239482199407700, 3.726483755487927800, -0.1249999999999999600 ) ) ;
#417 = PRODUCT_DEFINITION_FORMATION_WITH_SPECIFIED_SOURCE ( 'ANY', '', #49, .NOT_KNOWN. ) ;
#418 = ADVANCED_FACE ( 'NONE', ( #352 ), #174, .F. ) ;
#419 = DIRECTION ( 'NONE',  ( 0.0000000000000000000, 0.0000000000000000000, 1.000000000000000000 ) ) ;
#420 = FACE_OUTER_BOUND ( 'NONE', #546, .T. ) ;
#421 = FACE_OUTER_BOUND ( 'NONE', #316, .T. ) ;
#422 = VERTEX_POINT ( 'NONE', #187 ) ;
#423 = PRODUCT_DEFINITION ( 'UNKNOWN', '', #417, #181 ) ;
#424 = CARTESIAN_POINT ( 'NONE',  ( -2.400239482199407500, 3.726483755487927800, 0.0000000000000000000 ) ) ;
#425 = EDGE_CURVE ( 'NONE', #93, #475, #290, .T. ) ;
#426 = EDGE_LOOP ( 'NONE', ( #344, #13, #522, #250 ) ) ;
#427 = EDGE_LOOP ( 'NONE', ( #436, #17, #52, #131 ) ) ;
#428 = CARTESIAN_POINT ( 'NONE',  ( -1.785239482199407800, 3.726483755487927800, -0.1249999999999999600 ) ) ;
#429 = FACE_OUTER_BOUND ( 'NONE', #33, .T. ) ;
#430 = CIRCLE ( 'NONE', #96, 0.1512500000000001900 ) ;
#431 = DIRECTION ( 'NONE',  ( -1.000000000000000000, -0.0000000000000000000, -0.0000000000000000000 ) ) ;
#432 = AXIS2_PLACEMENT_3D ( 'NONE', #386, #193, #190 ) ;
#433 = DIRECTION ( 'NONE',  ( -1.000000000000000000, -0.0000000000000000000, -0.0000000000000000000 ) ) ;
#434 = VERTEX_POINT ( 'NONE', #314 ) ;
#435 = ORIENTED_EDGE ( 'NONE', *, *, #125, .T. ) ;
#436 = ORIENTED_EDGE ( 'NONE', *, *, #393, .F. ) ;
#437 = CARTESIAN_POINT ( 'NONE',  ( -2.400239482199407500, 3.726483755487927800, 0.0000000000000000000 ) ) ;
#438 = DIRECTION ( 'NONE',  ( -1.000000000000000000, -0.0000000000000000000, -0.0000000000000000000 ) ) ;
#439 = FACE_BOUND ( 'NONE', #146, .T. ) ;
#440 = CARTESIAN_POINT ( 'NONE',  ( -1.775239482199407500, 3.726483755487927800, -0.1349999999999999800 ) ) ;
#441 = CARTESIAN_POINT ( 'NONE',  ( -1.775239482199407500, 3.726483755487927800, 0.0000000000000000000 ) ) ;
#442 = FACE_OUTER_BOUND ( 'NONE', #176, .T. ) ;
#443 = DIRECTION ( 'NONE',  ( 0.7071067811865523500, 0.0000000000000000000, -0.7071067811865426900 ) ) ;
#444 = DIRECTION ( 'NONE',  ( -0.7071067811865378000, 0.0000000000000000000, 0.7071067811865571200 ) ) ;
#445 = MECHANICAL_DESIGN_GEOMETRIC_PRESENTATION_REPRESENTATION (  '', ( #460 ), #405 ) ;
#446 = DIRECTION ( 'NONE',  ( 1.000000000000000000, 0.0000000000000000000, 0.0000000000000000000 ) ) ;
#447 = EDGE_CURVE ( 'NONE', #475, #241, #88, .T. ) ;
#448 = CYLINDRICAL_SURFACE ( 'NONE', #490, 0.1760000000000002700 ) ;
#449 = ORIENTED_EDGE ( 'NONE', *, *, #235, .T. ) ;
#450 = DIRECTION ( 'NONE',  ( 1.000000000000000000, -0.0000000000000000000, -0.0000000000000000000 ) ) ;
#451 = ORIENTED_EDGE ( 'NONE', *, *, #125, .F. ) ;
#452 = ADVANCED_FACE ( 'NONE', ( #439, #566 ), #142, .F. ) ;
#453 = CARTESIAN_POINT ( 'NONE',  ( -1.785239482199407300, 3.726483755487927800, -0.1562500000000002800 ) ) ;
#454 = PRESENTATION_LAYER_ASSIGNMENT (  '', '', ( #460 ) ) ;
#455 = ADVANCED_FACE ( 'NONE', ( #549 ), #531, .T. ) ;
#456 = ORIENTED_EDGE ( 'NONE', *, *, #215, .F. ) ;
#457 = DIRECTION ( 'NONE',  ( 0.0000000000000000000, 0.0000000000000000000, 1.000000000000000000 ) ) ;
#458 = ORIENTED_EDGE ( 'NONE', *, *, #154, .F. ) ;
#459 = ADVANCED_FACE ( 'NONE', ( #420 ), #48, .T. ) ;
#460 = STYLED_ITEM ( 'NONE', ( #408 ), #412 ) ;
#461 = DIRECTION ( 'NONE',  ( 0.0000000000000000000, 0.0000000000000000000, 1.000000000000000000 ) ) ;
#462 = EDGE_CURVE ( 'NONE', #434, #73, #148, .T. ) ;
#463 = ADVANCED_FACE ( 'NONE', ( #272 ), #247, .T. ) ;
#464 = FACE_OUTER_BOUND ( 'NONE', #335, .T. ) ;
#465 = CARTESIAN_POINT ( 'NONE',  ( -1.785239482199407800, 3.726483755487927800, 0.1249999999999999600 ) ) ;
#466 = VERTEX_POINT ( 'NONE', #506 ) ;
#467 = ADVANCED_FACE ( 'NONE', ( #135 ), #58, .T. ) ;
#468 = CARTESIAN_POINT ( 'NONE',  ( -2.400239482199407500, 3.726483755487927800, 0.1759999999999999900 ) ) ;
#469 = ORIENTED_EDGE ( 'NONE', *, *, #206, .T. ) ;
#470 = AXIS2_PLACEMENT_3D ( 'NONE', #283, #322, #329 ) ;
#471 = ADVANCED_FACE ( 'NONE', ( #163 ), #37, .T. ) ;
#472 = DIRECTION ( 'NONE',  ( -1.000000000000000000, -0.0000000000000000000, -0.0000000000000000000 ) ) ;
#473 = UNCERTAINTY_MEASURE_WITH_UNIT (LENGTH_MEASURE( 1.000000000000000100E-005 ), #545, 'distance_accuracy_value', 'NONE');
#474 = EDGE_CURVE ( 'NONE', #341, #333, #397, .T. ) ;
#475 = VERTEX_POINT ( 'NONE', #440 ) ;
#476 = DIRECTION ( 'NONE',  ( 0.0000000000000000000, 0.0000000000000000000, 1.000000000000000000 ) ) ;
#477 = AXIS2_PLACEMENT_3D ( 'NONE', #108, #117, #84 ) ;
#478 = LINE ( 'NONE', #42, #11 ) ;
#479 = AXIS2_PLACEMENT_3D ( 'NONE', #82, #160, #493 ) ;
#480 = ORIENTED_EDGE ( 'NONE', *, *, #332, .F. ) ;
#481 = EDGE_CURVE ( 'NONE', #70, #110, #262, .T. ) ;
#482 = CLOSED_SHELL ( 'NONE', ( #258, #400, #418, #471, #346, #359, #302, #305, #452, #463, #467, #459, #455, #395, #391, #353, #292, #296, #404 ) ) ;
#483 = DIRECTION ( 'NONE',  ( -1.000000000000000000, -0.0000000000000000000, -0.0000000000000000000 ) ) ;
#484 = EDGE_CURVE ( 'NONE', #466, #61, #519, .T. ) ;
#485 = DIRECTION ( 'NONE',  ( 0.0000000000000000000, 0.0000000000000000000, -1.000000000000000000 ) ) ;
#486 = FILL_AREA_STYLE_COLOUR ( '', #222 ) ;
#487 = AXIS2_PLACEMENT_3D ( 'NONE', #2, #581, #87 ) ;
#488 =( NAMED_UNIT ( * ) SI_UNIT ( $, .STERADIAN. ) SOLID_ANGLE_UNIT ( ) );
#489 = DIRECTION ( 'NONE',  ( 0.0000000000000000000, 0.0000000000000000000, 1.000000000000000000 ) ) ;
#490 = AXIS2_PLACEMENT_3D ( 'NONE', #155, #34, #78 ) ;
#491 = CARTESIAN_POINT ( 'NONE',  ( -2.400239482199407500, 3.726483755487927800, 0.0000000000000000000 ) ) ;
#492 = DIRECTION ( 'NONE',  ( 0.0000000000000000000, 0.0000000000000000000, 1.000000000000000000 ) ) ;
#493 = DIRECTION ( 'NONE',  ( -0.0000000000000000000, 0.0000000000000000000, 1.000000000000000000 ) ) ;
#494 = EDGE_CURVE ( 'NONE', #28, #61, #510, .T. ) ;
#495 = DIRECTION ( 'NONE',  ( 0.0000000000000000000, 0.0000000000000000000, 1.000000000000000000 ) ) ;
#496 = CARTESIAN_POINT ( 'NONE',  ( -2.400239482199407500, 3.726483755487927800, -0.1249999999999999600 ) ) ;
#497 = FACE_OUTER_BOUND ( 'NONE', #145, .T. ) ;
#498 = ORIENTED_EDGE ( 'NONE', *, *, #343, .T. ) ;
#499 = CARTESIAN_POINT ( 'NONE',  ( -2.390239482199407700, 3.726483755487927800, -0.1760000000000005200 ) ) ;
#500 = CARTESIAN_POINT ( 'NONE',  ( -1.785239482199407300, 3.726483755487927800, 0.1562500000000002800 ) ) ;
#501 = DIRECTION ( 'NONE',  ( -1.000000000000000000, -0.0000000000000000000, -0.0000000000000000000 ) ) ;
#502 = AXIS2_PLACEMENT_3D ( 'NONE', #150, #237, #281 ) ;
#503 = DIRECTION ( 'NONE',  ( -1.000000000000000000, -0.0000000000000000000, -0.0000000000000000000 ) ) ;
#504 = DIRECTION ( 'NONE',  ( 1.000000000000000000, -0.0000000000000000000, -0.0000000000000000000 ) ) ;
#505 = CIRCLE ( 'NONE', #35, 0.1512500000000001900 ) ;
#506 = CARTESIAN_POINT ( 'NONE',  ( -1.775239482199407500, 3.726483755487927800, 0.1462500000000001000 ) ) ;
#507 = DIRECTION ( 'NONE',  ( -1.000000000000000000, -0.0000000000000000000, -0.0000000000000000000 ) ) ;
#508 = DIRECTION ( 'NONE',  ( -0.7071067811865378000, 8.659560562355051200E-017, -0.7071067811865571200 ) ) ;
#509 = CARTESIAN_POINT ( 'NONE',  ( -2.375239482199407600, 3.726483755487927800, 0.0000000000000000000 ) ) ;
#510 = CIRCLE ( 'NONE', #15, 0.1562500000000002800 ) ;
#511 = LINE ( 'NONE', #265, #362 ) ;
#512 = ORIENTED_EDGE ( 'NONE', *, *, #481, .T. ) ;
#513 = AXIS2_PLACEMENT_3D ( 'NONE', #188, #446, #539 ) ;
#514 = VECTOR ( 'NONE', #555, 39.37007874015748100 ) ;
#515 = CARTESIAN_POINT ( 'NONE',  ( -1.775239482199407500, 3.726483755487927800, 0.0000000000000000000 ) ) ;
#516 = UNCERTAINTY_MEASURE_WITH_UNIT (LENGTH_MEASURE( 1.000000000000000100E-005 ), #280, 'distance_accuracy_value', 'NONE');
#517 = DIRECTION ( 'NONE',  ( 0.0000000000000000000, 0.0000000000000000000, 1.000000000000000000 ) ) ;
#518 = AXIS2_PLACEMENT_3D ( 'NONE', #56, #105, #275 ) ;
#519 = LINE ( 'NONE', #388, #361 ) ;
#520 = CARTESIAN_POINT ( 'NONE',  ( -2.400239482199407500, 3.726483755487927800, 0.0000000000000000000 ) ) ;
#521 = CIRCLE ( 'NONE', #537, 0.1349999999999998700 ) ;
#522 = ORIENTED_EDGE ( 'NONE', *, *, #210, .T. ) ;
#523 = DIRECTION ( 'NONE',  ( 0.0000000000000000000, 0.0000000000000000000, -1.000000000000000000 ) ) ;
#524 = CARTESIAN_POINT ( 'NONE',  ( -2.400239482199407500, 3.726483755487927800, 0.0000000000000000000 ) ) ;
#525 = CIRCLE ( 'NONE', #40, 0.1249999999999999600 ) ;
#526 = DIRECTION ( 'NONE',  ( 0.0000000000000000000, 0.0000000000000000000, 1.000000000000000000 ) ) ;
#527 = DIRECTION ( 'NONE',  ( -1.000000000000000000, -0.0000000000000000000, -0.0000000000000000000 ) ) ;
#528 = VERTEX_POINT ( 'NONE', #499 ) ;
#529 = CARTESIAN_POINT ( 'NONE',  ( -2.375239482199407600, 3.726483755487927800, 0.0000000000000000000 ) ) ;
#530 = DIRECTION ( 'NONE',  ( -1.000000000000000000, -0.0000000000000000000, -0.0000000000000000000 ) ) ;
#531 = CYLINDRICAL_SURFACE ( 'NONE', #186, 0.1512500000000001900 ) ;
#532 = LINE ( 'NONE', #496, #380 ) ;
#533 = AXIS2_PLACEMENT_3D ( 'NONE', #191, #112, #535 ) ;
#534 = ORIENTED_EDGE ( 'NONE', *, *, #484, .T. ) ;
#535 = DIRECTION ( 'NONE',  ( 0.0000000000000000000, 0.0000000000000000000, -1.000000000000000000 ) ) ;
#536 = CARTESIAN_POINT ( 'NONE',  ( -1.775239482199407500, 3.726483755487927800, 0.0000000000000000000 ) ) ;
#537 = AXIS2_PLACEMENT_3D ( 'NONE', #520, #3, #485 ) ;
#538 = DIRECTION ( 'NONE',  ( -1.000000000000000000, -0.0000000000000000000, -0.0000000000000000000 ) ) ;
#539 = DIRECTION ( 'NONE',  ( 0.0000000000000000000, 0.0000000000000000000, -1.000000000000000000 ) ) ;
#540 = PRODUCT_DEFINITION_SHAPE ( 'NONE', 'NONE',  #423 ) ;
#541 = CONICAL_SURFACE ( 'NONE', #477, 0.1249999999999999600, 0.7853981633974415100 ) ;
#542 = SURFACE_STYLE_USAGE ( .BOTH. , #584 ) ;
#543 = CIRCLE ( 'NONE', #79, 0.1562500000000002800 ) ;
#544 =( NAMED_UNIT ( * ) PLANE_ANGLE_UNIT ( ) SI_UNIT ( $, .RADIAN. ) );
#545 =( CONVERSION_BASED_UNIT ( 'INCH', #254 ) LENGTH_UNIT ( ) NAMED_UNIT ( #287 ) );
#546 = EDGE_LOOP ( 'NONE', ( #14, #298, #449, #576 ) ) ;
#547 =( GEOMETRIC_REPRESENTATION_CONTEXT ( 3 ) GLOBAL_UNCERTAINTY_ASSIGNED_CONTEXT ( ( #396 ) ) GLOBAL_UNIT_ASSIGNED_CONTEXT ( ( #223, #219, #203 ) ) REPRESENTATION_CONTEXT ( 'NONE', 'WORKASPACE' ) );
#548 = CARTESIAN_POINT ( 'NONE',  ( -2.390239482199407700, 3.726483755487927800, 0.0000000000000000000 ) ) ;
#549 = FACE_OUTER_BOUND ( 'NONE', #153, .T. ) ;
#550 = VECTOR ( 'NONE', #23, 39.37007874015748100 ) ;
#551 = CARTESIAN_POINT ( 'NONE',  ( -2.400239482199407500, 3.726483755487927800, -0.1760000000000002700 ) ) ;
#552 = AXIS2_PLACEMENT_3D ( 'NONE', #77, #137, #517 ) ;
#553 = EDGE_LOOP ( 'NONE', ( #264, #498, #209, #162 ) ) ;
#554 = ORIENTED_EDGE ( 'NONE', *, *, #425, .T. ) ;
#555 = DIRECTION ( 'NONE',  ( -1.000000000000000000, -0.0000000000000000000, -0.0000000000000000000 ) ) ;
#556 = DIRECTION ( 'NONE',  ( 0.0000000000000000000, 0.0000000000000000000, -1.000000000000000000 ) ) ;
#557 = LENGTH_MEASURE_WITH_UNIT ( LENGTH_MEASURE( 0.02539999999999999900 ), #226 );
#558 = CIRCLE ( 'NONE', #470, 0.1249999999999999600 ) ;
#559 = CIRCLE ( 'NONE', #94, 0.1349999999999999800 ) ;
#560 = EDGE_LOOP ( 'NONE', ( #80, #246 ) ) ;
#561 = DIRECTION ( 'NONE',  ( 0.0000000000000000000, 0.0000000000000000000, 1.000000000000000000 ) ) ;
#562 = MECHANICAL_DESIGN_GEOMETRIC_PRESENTATION_REPRESENTATION (  '', ( #76 ), #547 ) ;
#563 = ORIENTED_EDGE ( 'NONE', *, *, #295, .F. ) ;
#564 = CARTESIAN_POINT ( 'NONE',  ( -2.380239482199408000, 3.726483755487927800, 0.0000000000000000000 ) ) ;
#565 = DIRECTION ( 'NONE',  ( 0.7071067811865475700, 0.0000000000000000000, -0.7071067811865474600 ) ) ;
#566 = FACE_OUTER_BOUND ( 'NONE', #363, .T. ) ;
#567 = FACE_OUTER_BOUND ( 'NONE', #22, .T. ) ;
#568 = DIRECTION ( 'NONE',  ( 0.0000000000000000000, 0.0000000000000000000, -1.000000000000000000 ) ) ;
#569 = CARTESIAN_POINT ( 'NONE',  ( -1.775239482199407500, 3.726483755487927800, -0.1462500000000001000 ) ) ;
#570 = PRESENTATION_LAYER_ASSIGNMENT (  '', '', ( #76 ) ) ;
#571 = DIRECTION ( 'NONE',  ( 1.000000000000000000, 0.0000000000000000000, 0.0000000000000000000 ) ) ;
#572 = AXIS2_PLACEMENT_3D ( 'NONE', #515, #211, #255 ) ;
#573 = CARTESIAN_POINT ( 'NONE',  ( -1.775239482199407500, 3.726483755487927800, 0.1349999999999999800 ) ) ;
#574 = CIRCLE ( 'NONE', #502, 0.1249999999999999600 ) ;
#575 = ORIENTED_EDGE ( 'NONE', *, *, #206, .F. ) ;
#576 = ORIENTED_EDGE ( 'NONE', *, *, #462, .T. ) ;
#577 = DIRECTION ( 'NONE',  ( 0.0000000000000000000, 0.0000000000000000000, 1.000000000000000000 ) ) ;
#578 = DIRECTION ( 'NONE',  ( 1.000000000000000000, 0.0000000000000000000, 0.0000000000000000000 ) ) ;
#579 = DIRECTION ( 'NONE',  ( 0.0000000000000000000, 0.0000000000000000000, 1.000000000000000000 ) ) ;
#580 = AXIS2_PLACEMENT_3D ( 'NONE', #127, #130, #68 ) ;
#581 = DIRECTION ( 'NONE',  ( -1.000000000000000000, -0.0000000000000000000, -0.0000000000000000000 ) ) ;
#582 = DIRECTION ( 'NONE',  ( 1.000000000000000000, 0.0000000000000000000, 0.0000000000000000000 ) ) ;
#583 = AXIS2_PLACEMENT_3D ( 'NONE', #126, #334, #249 ) ;
#584 = SURFACE_SIDE_STYLE ('',( #196 ) ) ;
#585 = CARTESIAN_POINT ( 'NONE',  ( -2.375239482199407600, 3.726483755487927800, 0.0000000000000000000 ) ) ;
#586 = CARTESIAN_POINT ( 'NONE',  ( -2.400239482199407500, 3.726483755487927800, 0.0000000000000000000 ) ) ;
#587 = VECTOR ( 'NONE', #43, 39.37007874015748900 ) ;
#588 = ORIENTED_EDGE ( 'NONE', *, *, #133, .T. ) ;
#589 = DIRECTION ( 'NONE',  ( 0.0000000000000000000, 0.0000000000000000000, -1.000000000000000000 ) ) ;
ENDSEC;
END-ISO-10303-21;
