ISO-10303-21;
HEADER;
FILE_DESCRIPTION (( 'STEP AP203' ),
    '1' );
FILE_NAME ('8681N11_3 Long Corner Bracket for Aluminum Bolt-Together Framing.STEP',
    '2026-01-18T15:16:20',
    ( 'McMaster Carr Supply' ),
    ( 'McMaster Carr Supply' ),
    'SwSTEP 2.0',
    'SolidWorks 2024',
    '' );
FILE_SCHEMA (( 'CONFIG_CONTROL_DESIGN' ));
ENDSEC;

DATA;
#1 = ORIENTED_EDGE ( 'NONE', *, *, #592, .T. ) ;
#2 = CARTESIAN_POINT ( 'NONE',  ( 0.6550000000000000266, -1.249999999999999778, 1.250000000000000000 ) ) ;
#3 = CARTESIAN_POINT ( 'NONE',  ( 0.6550000000000000266, -0.9379999999999998339, -0.9379999999999993898 ) ) ;
#4 = EDGE_CURVE ( 'NONE', #345, #483, #258, .T. ) ;
#5 = DIRECTION ( 'NONE',  ( 0.000000000000000000, 1.000000000000000000, 0.000000000000000000 ) ) ;
#6 = CARTESIAN_POINT ( 'NONE',  ( 2.008420750601660667E-17, -1.499999999999999778, 0.5860000000000000764 ) ) ;
#7 = DIRECTION ( 'NONE',  ( 0.000000000000000000, 0.000000000000000000, -1.000000000000000000 ) ) ;
#8 = CARTESIAN_POINT ( 'NONE',  ( 0.1640000000000000069, 0.7499999999999995559, -1.499999999999999778 ) ) ;
#9 = CARTESIAN_POINT ( 'NONE',  ( 0.000000000000000000, 0.7499999999999995559, -1.500039370078740220 ) ) ;
#10 = CARTESIAN_POINT ( 'NONE',  ( -0.6550000000000000266, -1.499999999999999778, 1.250000000000000000 ) ) ;
#11 = CARTESIAN_POINT ( 'NONE',  ( -0.6550000000000000266, -1.249999999999999778, 1.250000000000000000 ) ) ;
#12 = CIRCLE ( 'NONE', #447, 0.1640000000000000069 ) ;
#13 = APPROVAL_PERSON_ORGANIZATION ( #331, #54, #276 ) ;
#14 = DIRECTION ( 'NONE',  ( 0.000000000000000000, -1.000000000000000000, -0.000000000000000000 ) ) ;
#15 = EDGE_LOOP ( 'NONE', ( #342, #463, #224, #282 ) ) ;
#16 = DIRECTION ( 'NONE',  ( 0.000000000000000000, 0.000000000000000000, 1.000000000000000000 ) ) ;
#17 = DATE_TIME_ROLE ( 'creation_date' ) ;
#18 = ORIENTED_EDGE ( 'NONE', *, *, #129, .T. ) ;
#19 = VERTEX_POINT ( 'NONE', #60 ) ;
#20 = DIRECTION ( 'NONE',  ( -0.000000000000000000, 1.000000000000000000, -0.000000000000000000 ) ) ;
#21 = VECTOR ( 'NONE', #640, 39.37007874015748143 ) ;
#22 = AXIS2_PLACEMENT_3D ( 'NONE', #86, #14, #622 ) ;
#23 = CARTESIAN_POINT ( 'NONE',  ( 0.6550000000000000266, 1.500000000000000444, -1.499999999999999556 ) ) ;
#24 = PERSON_AND_ORGANIZATION ( #537, #459 ) ;
#25 = ORIENTED_EDGE ( 'NONE', *, *, #481, .F. ) ;
#26 = CC_DESIGN_PERSON_AND_ORGANIZATION_ASSIGNMENT ( #371, #128, ( #359 ) ) ;
#27 = LINE ( 'NONE', #38, #277 ) ;
#28 = CARTESIAN_POINT ( 'NONE',  ( 0.1640000000000000069, -0.7500000000000007772, -1.499999999999999778 ) ) ;
#29 = EDGE_LOOP ( 'NONE', ( #70, #182, #339, #18 ) ) ;
#30 = CARTESIAN_POINT ( 'NONE',  ( 0.000000000000000000, -1.500039370078739998, 0.7500000000000002220 ) ) ;
#31 = DIRECTION ( 'NONE',  ( 0.000000000000000000, 0.000000000000000000, 1.000000000000000000 ) ) ;
#32 = VERTEX_POINT ( 'NONE', #124 ) ;
#33 = VECTOR ( 'NONE', #114, 39.37007874015748143 ) ;
#34 = CIRCLE ( 'NONE', #22, 0.1640000000000000902 ) ;
#35 = DIRECTION ( 'NONE',  ( 0.000000000000000000, -0.000000000000000000, 1.000000000000000000 ) ) ;
#36 = ORIENTED_EDGE ( 'NONE', *, *, #347, .T. ) ;
#37 = APPLICATION_PROTOCOL_DEFINITION ( 'international standard', 'config_control_design', 1994, #140 ) ;
#38 = CARTESIAN_POINT ( 'NONE',  ( 0.6550000000000000266, -1.499999999999999778, -1.500000000000000222 ) ) ;
#39 = ORIENTED_EDGE ( 'NONE', *, *, #4, .T. ) ;
#40 = EDGE_LOOP ( 'NONE', ( #91, #431 ) ) ;
#41 = EDGE_CURVE ( 'NONE', #441, #535, #267, .T. ) ;
#42 = AXIS2_PLACEMENT_3D ( 'NONE', #92, #385, #193 ) ;
#43 = VECTOR ( 'NONE', #170, 39.37007874015748143 ) ;
#44 = ORIENTED_EDGE ( 'NONE', *, *, #558, .T. ) ;
#45 = EDGE_CURVE ( 'NONE', #512, #67, #456, .T. ) ;
#46 = CARTESIAN_POINT ( 'NONE',  ( 0.000000000000000000, -1.500039370078739998, -0.7499999999999998890 ) ) ;
#47 = CARTESIAN_POINT ( 'NONE',  ( 0.000000000000000000, -1.499999999999999778, 0.7500000000000002220 ) ) ;
#48 = DIRECTION ( 'NONE',  ( -1.000000000000000000, -0.000000000000000000, -0.000000000000000000 ) ) ;
#49 = AXIS2_PLACEMENT_3D ( 'NONE', #585, #630, #334 ) ;
#50 = DIRECTION ( 'NONE',  ( -0.000000000000000000, -0.000000000000000000, 1.000000000000000000 ) ) ;
#51 = FACE_OUTER_BOUND ( 'NONE', #230, .T. ) ;
#52 = CC_DESIGN_APPROVAL ( #72, ( #259 ) ) ;
#53 = ORIENTED_EDGE ( 'NONE', *, *, #65, .T. ) ;
#54 = APPROVAL ( #141, 'UNSPECIFIED' ) ;
#55 = LINE ( 'NONE', #311, #532 ) ;
#56 = DIRECTION ( 'NONE',  ( -1.000000000000000000, -0.000000000000000000, -0.000000000000000000 ) ) ;
#57 = ORIENTED_EDGE ( 'NONE', *, *, #227, .T. ) ;
#58 = EDGE_LOOP ( 'NONE', ( #520, #541 ) ) ;
#59 = CARTESIAN_POINT ( 'NONE',  ( 0.1640000000000000069, -0.7500000000000007772, -1.249999999999999556 ) ) ;
#60 = CARTESIAN_POINT ( 'NONE',  ( -0.6550000000000000266, -1.250000000000000000, -0.9379999999999993898 ) ) ;
#61 = EDGE_CURVE ( 'NONE', #199, #422, #561, .T. ) ;
#62 = APPROVAL_DATE_TIME ( #176, #54 ) ;
#63 = AXIS2_PLACEMENT_3D ( 'NONE', #341, #477, #198 ) ;
#64 = ORIENTED_EDGE ( 'NONE', *, *, #548, .F. ) ;
#65 = EDGE_CURVE ( 'NONE', #402, #194, #320, .T. ) ;
#66 =( NAMED_UNIT ( * ) SI_UNIT ( $, .STERADIAN. ) SOLID_ANGLE_UNIT ( ) );
#67 = VERTEX_POINT ( 'NONE', #460 ) ;
#68 = PERSON_AND_ORGANIZATION_ROLE ( 'design_supplier' ) ;
#69 = EDGE_CURVE ( 'NONE', #609, #101, #133, .T. ) ;
#70 = ORIENTED_EDGE ( 'NONE', *, *, #206, .T. ) ;
#71 = DIRECTION ( 'NONE',  ( 1.000000000000000000, 0.000000000000000000, 0.000000000000000000 ) ) ;
#72 = APPROVAL ( #200, 'UNSPECIFIED' ) ;
#73 = ORIENTED_EDGE ( 'NONE', *, *, #528, .T. ) ;
#74 = CIRCLE ( 'NONE', #601, 0.1640000000000000069 ) ;
#75 = EDGE_CURVE ( 'NONE', #441, #527, #639, .T. ) ;
#76 = AXIS2_PLACEMENT_3D ( 'NONE', #553, #312, #253 ) ;
#77 = ORIENTED_EDGE ( 'NONE', *, *, #227, .F. ) ;
#78 = FACE_OUTER_BOUND ( 'NONE', #185, .T. ) ;
#79 = DIRECTION ( 'NONE',  ( 0.000000000000000000, 0.000000000000000000, 1.000000000000000000 ) ) ;
#80 = PLANE ( 'NONE',  #542 ) ;
#81 = EDGE_LOOP ( 'NONE', ( #126, #435 ) ) ;
#82 = EDGE_CURVE ( 'NONE', #535, #123, #131, .T. ) ;
#83 = DIRECTION ( 'NONE',  ( -1.000000000000000000, -0.000000000000000000, -0.000000000000000000 ) ) ;
#84 = EDGE_LOOP ( 'NONE', ( #262, #235, #437, #147, #476, #73, #232 ) ) ;
#85 = AXIS2_PLACEMENT_3D ( 'NONE', #349, #50, #636 ) ;
#86 = CARTESIAN_POINT ( 'NONE',  ( 0.000000000000000000, -1.499999999999999778, -0.7499999999999998890 ) ) ;
#87 =( GEOMETRIC_REPRESENTATION_CONTEXT ( 3 ) GLOBAL_UNCERTAINTY_ASSIGNED_CONTEXT ( ( #391 ) ) GLOBAL_UNIT_ASSIGNED_CONTEXT ( ( #190, #290, #66 ) ) REPRESENTATION_CONTEXT ( 'NONE', 'WORKASPACE' ) );
#88 = FACE_OUTER_BOUND ( 'NONE', #29, .T. ) ;
#89 = EDGE_CURVE ( 'NONE', #271, #137, #317, .T. ) ;
#90 = CYLINDRICAL_SURFACE ( 'NONE', #42, 0.1640000000000000902 ) ;
#91 = ORIENTED_EDGE ( 'NONE', *, *, #82, .F. ) ;
#92 = CARTESIAN_POINT ( 'NONE',  ( 0.000000000000000000, -1.500039370078739998, -0.7499999999999998890 ) ) ;
#93 = EDGE_LOOP ( 'NONE', ( #294, #319, #96, #423 ) ) ;
#94 = PERSON_AND_ORGANIZATION_ROLE ( 'classification_officer' ) ;
#95 = CARTESIAN_POINT ( 'NONE',  ( 0.6550000000000000266, -1.499999999999999778, 1.500000000000000222 ) ) ;
#96 = ORIENTED_EDGE ( 'NONE', *, *, #150, .F. ) ;
#97 = CC_DESIGN_DATE_AND_TIME_ASSIGNMENT ( #635, #486, ( #259 ) ) ;
#98 = AXIS2_PLACEMENT_3D ( 'NONE', #388, #298, #135 ) ;
#99 = AXIS2_PLACEMENT_3D ( 'NONE', #547, #265, #158 ) ;
#100 = PLANE ( 'NONE',  #195 ) ;
#101 = VERTEX_POINT ( 'NONE', #6 ) ;
#102 = APPROVAL_DATE_TIME ( #155, #72 ) ;
#103 = PLANE ( 'NONE',  #297 ) ;
#104 = PLANE ( 'NONE',  #408 ) ;
#105 = DIRECTION ( 'NONE',  ( 0.000000000000000000, -1.000000000000000000, -0.000000000000000000 ) ) ;
#106 = DIRECTION ( 'NONE',  ( -0.000000000000000000, 1.821231995776175479E-16, -1.000000000000000000 ) ) ;
#107 = EDGE_CURVE ( 'NONE', #483, #345, #580, .T. ) ;
#108 = DIRECTION ( 'NONE',  ( 1.000000000000000000, 0.000000000000000000, 0.000000000000000000 ) ) ;
#109 = VECTOR ( 'NONE', #549, 39.37007874015748143 ) ;
#110 = CARTESIAN_POINT ( 'NONE',  ( 0.6550000000000000266, -0.9379999999999998339, -1.249999999999999556 ) ) ;
#111 = CARTESIAN_POINT ( 'NONE',  ( 0.6550000000000000266, -1.250000000000000000, -0.9379999999999993898 ) ) ;
#112 = LOCAL_TIME ( 9, 16, 20.00000000000000000, #433 ) ;
#113 = MANIFOLD_SOLID_BREP ( 'Cut-Extrude2', #207 ) ;
#114 = DIRECTION ( 'NONE',  ( -0.000000000000000000, -1.000000000000000000, -0.000000000000000000 ) ) ;
#115 = DIRECTION ( 'NONE',  ( 1.000000000000000000, 0.000000000000000000, 0.000000000000000000 ) ) ;
#116 = EDGE_LOOP ( 'NONE', ( #564, #416, #517, #372 ) ) ;
#117 = ADVANCED_FACE ( 'NONE', ( #573 ), #90, .F. ) ;
#118 = LINE ( 'NONE', #409, #471 ) ;
#119 = ORIENTED_EDGE ( 'NONE', *, *, #457, .T. ) ;
#120 = EDGE_CURVE ( 'NONE', #560, #502, #244, .T. ) ;
#121 = VECTOR ( 'NONE', #588, 39.37007874015748143 ) ;
#122 = AXIS2_PLACEMENT_3D ( 'NONE', #3, #167, #362 ) ;
#123 = VERTEX_POINT ( 'NONE', #188 ) ;
#124 = CARTESIAN_POINT ( 'NONE',  ( 0.6550000000000000266, 1.250000000000000000, -1.249999999999999556 ) ) ;
#125 = APPROVAL_DATE_TIME ( #466, #310 ) ;
#126 = ORIENTED_EDGE ( 'NONE', *, *, #300, .F. ) ;
#127 = DIRECTION ( 'NONE',  ( -0.000000000000000000, -0.000000000000000000, 1.000000000000000000 ) ) ;
#128 = PERSON_AND_ORGANIZATION_ROLE ( 'creator' ) ;
#129 = EDGE_CURVE ( 'NONE', #32, #369, #149, .T. ) ;
#130 = ORIENTED_EDGE ( 'NONE', *, *, #220, .T. ) ;
#131 = CIRCLE ( 'NONE', #288, 0.1640000000000000902 ) ;
#132 = ORIENTED_EDGE ( 'NONE', *, *, #69, .F. ) ;
#133 = CIRCLE ( 'NONE', #248, 0.1640000000000002289 ) ;
#134 = AXIS2_PLACEMENT_3D ( 'NONE', #429, #612, #71 ) ;
#135 = DIRECTION ( 'NONE',  ( 0.000000000000000000, 0.000000000000000000, -1.000000000000000000 ) ) ;
#136 = DIRECTION ( 'NONE',  ( -0.000000000000000000, -0.000000000000000000, 1.000000000000000000 ) ) ;
#137 = VERTEX_POINT ( 'NONE', #529 ) ;
#138 = CARTESIAN_POINT ( 'NONE',  ( -0.6550000000000000266, -1.499999999999999778, -1.500000000000000222 ) ) ;
#139 = ORIENTED_EDGE ( 'NONE', *, *, #220, .F. ) ;
#140 = APPLICATION_CONTEXT ( 'configuration controlled 3d designs of mechanical parts and assemblies' ) ;
#141 = APPROVAL_STATUS ( 'not_yet_approved' ) ;
#142 = EDGE_CURVE ( 'NONE', #137, #271, #12, .T. ) ;
#143 = DIRECTION ( 'NONE',  ( 0.000000000000000000, 0.000000000000000000, 1.000000000000000000 ) ) ;
#144 = VERTEX_POINT ( 'NONE', #493 ) ;
#145 = VECTOR ( 'NONE', #83, 39.37007874015748143 ) ;
#146 = PERSON_AND_ORGANIZATION_ROLE ( 'design_owner' ) ;
#147 = ORIENTED_EDGE ( 'NONE', *, *, #375, .T. ) ;
#148 = PERSON_AND_ORGANIZATION ( #537, #459 ) ;
#149 = LINE ( 'NONE', #623, #628 ) ;
#150 = EDGE_CURVE ( 'NONE', #289, #144, #306, .T. ) ;
#151 = ORIENTED_EDGE ( 'NONE', *, *, #142, .F. ) ;
#152 = DIRECTION ( 'NONE',  ( 0.000000000000000000, 0.000000000000000000, 1.000000000000000000 ) ) ;
#153 = LINE ( 'NONE', #499, #358 ) ;
#154 = APPLICATION_CONTEXT ( 'configuration controlled 3d designs of mechanical parts and assemblies' ) ;
#155 = DATE_AND_TIME ( #536, #611 ) ;
#156 = CIRCLE ( 'NONE', #378, 0.2500000000000006106 ) ;
#157 = DIRECTION ( 'NONE',  ( 0.000000000000000000, -1.248559412095184564E-16, -1.000000000000000000 ) ) ;
#158 = DIRECTION ( 'NONE',  ( 0.000000000000000000, 0.000000000000000000, -1.000000000000000000 ) ) ;
#159 = FACE_OUTER_BOUND ( 'NONE', #417, .T. ) ;
#160 = CARTESIAN_POINT ( 'NONE',  ( -0.6550000000000000266, -1.499999999999999778, 1.500000000000000222 ) ) ;
#161 = DIRECTION ( 'NONE',  ( 1.000000000000000000, 0.000000000000000000, 0.000000000000000000 ) ) ;
#162 = DIRECTION ( 'NONE',  ( 0.000000000000000000, 0.000000000000000000, 1.000000000000000000 ) ) ;
#163 = CARTESIAN_POINT ( 'NONE',  ( -0.6550000000000000266, -1.499999999999999778, 1.250000000000000000 ) ) ;
#164 = LINE ( 'NONE', #557, #229 ) ;
#165 = DIRECTION ( 'NONE',  ( -0.000000000000000000, 1.000000000000000000, -0.000000000000000000 ) ) ;
#166 = VECTOR ( 'NONE', #241, 39.37007874015748143 ) ;
#167 = DIRECTION ( 'NONE',  ( -1.000000000000000000, -0.000000000000000000, -0.000000000000000000 ) ) ;
#168 = ADVANCED_FACE ( 'NONE', ( #534 ), #430, .F. ) ;
#169 = ORIENTED_EDGE ( 'NONE', *, *, #89, .T. ) ;
#170 = DIRECTION ( 'NONE',  ( -0.000000000000000000, -0.000000000000000000, 1.000000000000000000 ) ) ;
#171 = EDGE_CURVE ( 'NONE', #144, #422, #540, .T. ) ;
#172 = CALENDAR_DATE ( 2026, 18, 1 ) ;
#173 = ORIENTED_EDGE ( 'NONE', *, *, #69, .T. ) ;
#174 = APPROVAL_STATUS ( 'not_yet_approved' ) ;
#175 = AXIS2_PLACEMENT_3D ( 'NONE', #598, #355, #308 ) ;
#176 = DATE_AND_TIME ( #270, #112 ) ;
#177 = ORIENTED_EDGE ( 'NONE', *, *, #375, .F. ) ;
#178 = ORIENTED_EDGE ( 'NONE', *, *, #366, .F. ) ;
#179 = CYLINDRICAL_SURFACE ( 'NONE', #407, 0.1640000000000000069 ) ;
#180 = VECTOR ( 'NONE', #482, 39.37007874015748143 ) ;
#181 = ADVANCED_FACE ( 'NONE', ( #295 ), #179, .F. ) ;
#182 = ORIENTED_EDGE ( 'NONE', *, *, #120, .F. ) ;
#183 = DIRECTION ( 'NONE',  ( 0.000000000000000000, 0.000000000000000000, 1.000000000000000000 ) ) ;
#184 = CARTESIAN_POINT ( 'NONE',  ( 0.000000000000000000, -1.500039370078739998, 0.9140000000000003677 ) ) ;
#185 = EDGE_LOOP ( 'NONE', ( #627, #44, #57, #322 ) ) ;
#186 = ADVANCED_FACE ( 'NONE', ( #291, #328, #526 ), #80, .F. ) ;
#187 = LINE ( 'NONE', #625, #582 ) ;
#188 = CARTESIAN_POINT ( 'NONE',  ( 2.008420750601660051E-17, -1.250000000000000000, -0.9140000000000000346 ) ) ;
#189 = ORIENTED_EDGE ( 'NONE', *, *, #206, .F. ) ;
#190 =( CONVERSION_BASED_UNIT ( 'INCH', #231 ) LENGTH_UNIT ( ) NAMED_UNIT ( #374 ) );
#191 = CARTESIAN_POINT ( 'NONE',  ( 0.000000000000000000, -1.250000000000000000, 0.9140000000000003677 ) ) ;
#192 = DIRECTION ( 'NONE',  ( 0.000000000000000000, 0.000000000000000000, -1.000000000000000000 ) ) ;
#193 = DIRECTION ( 'NONE',  ( 0.000000000000000000, 0.000000000000000000, 1.000000000000000000 ) ) ;
#194 = VERTEX_POINT ( 'NONE', #426 ) ;
#195 = AXIS2_PLACEMENT_3D ( 'NONE', #590, #497, #157 ) ;
#196 = AXIS2_PLACEMENT_3D ( 'NONE', #594, #56, #591 ) ;
#197 = EDGE_CURVE ( 'NONE', #609, #345, #620, .T. ) ;
#198 = DIRECTION ( 'NONE',  ( 0.000000000000000000, 0.000000000000000000, 1.000000000000000000 ) ) ;
#199 = VERTEX_POINT ( 'NONE', #393 ) ;
#200 = APPROVAL_STATUS ( 'not_yet_approved' ) ;
#201 = FACE_OUTER_BOUND ( 'NONE', #473, .T. ) ;
#202 = FACE_OUTER_BOUND ( 'NONE', #292, .T. ) ;
#203 = ORIENTED_EDGE ( 'NONE', *, *, #75, .F. ) ;
#204 = DIRECTION ( 'NONE',  ( 0.000000000000000000, 0.000000000000000000, -1.000000000000000000 ) ) ;
#205 = CYLINDRICAL_SURFACE ( 'NONE', #629, 0.1640000000000000069 ) ;
#206 = EDGE_CURVE ( 'NONE', #369, #502, #552, .T. ) ;
#207 = CLOSED_SHELL ( 'NONE', ( #181, #538, #403, #461, #491, #186, #595, #427, #394, #168, #305, #389, #257, #117, #356, #246, #448 ) ) ;
#208 = CARTESIAN_POINT ( 'NONE',  ( 0.1640000000000000069, -0.7500000000000007772, -1.500039370078740220 ) ) ;
#209 = CARTESIAN_POINT ( 'NONE',  ( 0.000000000000000000, -0.7500000000000007772, -1.500039370078740220 ) ) ;
#210 = EDGE_LOOP ( 'NONE', ( #578, #631, #177, #53 ) ) ;
#211 = EDGE_CURVE ( 'NONE', #32, #560, #363, .T. ) ;
#212 = COORDINATED_UNIVERSAL_TIME_OFFSET ( 6, 0, .BEHIND. ) ;
#213 = DIRECTION ( 'NONE',  ( 1.000000000000000000, 0.000000000000000000, 0.000000000000000000 ) ) ;
#214 = DIRECTION ( 'NONE',  ( -0.000000000000000000, 1.000000000000000000, -0.000000000000000000 ) ) ;
#215 = DIRECTION ( 'NONE',  ( 0.000000000000000000, 0.000000000000000000, 1.000000000000000000 ) ) ;
#216 = CARTESIAN_POINT ( 'NONE',  ( 0.000000000000000000, -1.250000000000000000, 0.7500000000000002220 ) ) ;
#217 = CARTESIAN_POINT ( 'NONE',  ( 2.008420750601660051E-17, -1.499999999999999778, -0.9140000000000000346 ) ) ;
#218 = VECTOR ( 'NONE', #251, 39.37007874015748143 ) ;
#219 = LOCAL_TIME ( 9, 16, 20.00000000000000000, #212 ) ;
#220 = EDGE_CURVE ( 'NONE', #514, #247, #398, .T. ) ;
#221 = DIRECTION ( 'NONE',  ( -0.000000000000000000, 1.248559412095184564E-16, 1.000000000000000000 ) ) ;
#222 = AXIS2_PLACEMENT_3D ( 'NONE', #605, #600, #453 ) ;
#223 = DATE_AND_TIME ( #608, #387 ) ;
#224 = ORIENTED_EDGE ( 'NONE', *, *, #321, .F. ) ;
#225 = PERSON_AND_ORGANIZATION ( #537, #459 ) ;
#226 = ORIENTED_EDGE ( 'NONE', *, *, #41, .F. ) ;
#227 = EDGE_CURVE ( 'NONE', #514, #137, #252, .T. ) ;
#228 = AXIS2_PLACEMENT_3D ( 'NONE', #264, #498, #213 ) ;
#229 = VECTOR ( 'NONE', #48, 39.37007874015748143 ) ;
#230 = EDGE_LOOP ( 'NONE', ( #390, #634, #242, #226 ) ) ;
#231 = LENGTH_MEASURE_WITH_UNIT ( LENGTH_MEASURE( 0.02539999999999999897 ), #383 );
#232 = ORIENTED_EDGE ( 'NONE', *, *, #468, .T. ) ;
#233 = CARTESIAN_POINT ( 'NONE',  ( 0.000000000000000000, -1.499999999999999778, -0.5859999999999998543 ) ) ;
#234 = EDGE_CURVE ( 'NONE', #428, #566, #301, .T. ) ;
#235 = ORIENTED_EDGE ( 'NONE', *, *, #266, .T. ) ;
#236 = EDGE_CURVE ( 'NONE', #467, #19, #55, .T. ) ;
#237 = DIRECTION ( 'NONE',  ( -0.000000000000000000, 1.000000000000000000, 0.000000000000000000 ) ) ;
#238 = CIRCLE ( 'NONE', #269, 0.1640000000000000902 ) ;
#239 = ORIENTED_EDGE ( 'NONE', *, *, #457, .F. ) ;
#240 = AXIS2_PLACEMENT_3D ( 'NONE', #9, #519, #115 ) ;
#241 = DIRECTION ( 'NONE',  ( -0.000000000000000000, 1.000000000000000000, -0.000000000000000000 ) ) ;
#242 = ORIENTED_EDGE ( 'NONE', *, *, #412, .T. ) ;
#243 = FACE_BOUND ( 'NONE', #316, .T. ) ;
#244 = LINE ( 'NONE', #583, #180 ) ;
#245 = ORIENTED_EDGE ( 'NONE', *, *, #45, .T. ) ;
#246 = ADVANCED_FACE ( 'NONE', ( #303 ), #596, .F. ) ;
#247 = VERTEX_POINT ( 'NONE', #344 ) ;
#248 = AXIS2_PLACEMENT_3D ( 'NONE', #410, #474, #373 ) ;
#249 = APPROVAL_PERSON_ORGANIZATION ( #148, #72, #450 ) ;
#250 = EDGE_LOOP ( 'NONE', ( #613, #64, #273, #330 ) ) ;
#251 = DIRECTION ( 'NONE',  ( -1.000000000000000000, -0.000000000000000000, -0.000000000000000000 ) ) ;
#252 = LINE ( 'NONE', #445, #21 ) ;
#253 = DIRECTION ( 'NONE',  ( 0.000000000000000000, -1.000000000000000000, 0.000000000000000000 ) ) ;
#254 = DESIGN_CONTEXT ( 'detailed design', #140, 'design' ) ;
#255 = LINE ( 'NONE', #508, #109 ) ;
#256 = FACE_BOUND ( 'NONE', #567, .T. ) ;
#257 = ADVANCED_FACE ( 'NONE', ( #159 ), #103, .F. ) ;
#258 = CIRCLE ( 'NONE', #346, 0.1640000000000002289 ) ;
#259 = SECURITY_CLASSIFICATION ( '', '', #274 ) ;
#260 = CARTESIAN_POINT ( 'NONE',  ( -0.6550000000000000266, -1.499999999999999778, -1.500000000000000222 ) ) ;
#261 = DIRECTION ( 'NONE',  ( 1.000000000000000000, 0.000000000000000000, 0.000000000000000000 ) ) ;
#262 = ORIENTED_EDGE ( 'NONE', *, *, #150, .T. ) ;
#263 = CARTESIAN_POINT ( 'NONE',  ( 0.6550000000000000266, 1.250000000000000000, -1.500000000000000222 ) ) ;
#264 = CARTESIAN_POINT ( 'NONE',  ( 0.000000000000000000, 0.7499999999999995559, -1.249999999999999556 ) ) ;
#265 = DIRECTION ( 'NONE',  ( -1.000000000000000000, -0.000000000000000000, -0.000000000000000000 ) ) ;
#266 = EDGE_CURVE ( 'NONE', #144, #615, #153, .T. ) ;
#267 = LINE ( 'NONE', #370, #610 ) ;
#268 = CYLINDRICAL_SURFACE ( 'NONE', #554, 0.1640000000000000902 ) ;
#269 = AXIS2_PLACEMENT_3D ( 'NONE', #354, #5, #215 ) ;
#270 = CALENDAR_DATE ( 2026, 18, 1 ) ;
#271 = VERTEX_POINT ( 'NONE', #405 ) ;
#272 = ORIENTED_EDGE ( 'NONE', *, *, #197, .F. ) ;
#273 = ORIENTED_EDGE ( 'NONE', *, *, #266, .F. ) ;
#274 = SECURITY_CLASSIFICATION_LEVEL ( 'unclassified' ) ;
#275 = ORIENTED_EDGE ( 'NONE', *, *, #300, .T. ) ;
#276 = APPROVAL_ROLE ( '' ) ;
#277 = VECTOR ( 'NONE', #525, 39.37007874015748143 ) ;
#278 = VECTOR ( 'NONE', #221, 39.37007874015748143 ) ;
#279 = ORIENTED_EDGE ( 'NONE', *, *, #89, .F. ) ;
#280 = EDGE_CURVE ( 'NONE', #101, #609, #513, .T. ) ;
#281 = DIRECTION ( 'NONE',  ( -0.000000000000000000, 1.000000000000000000, -0.000000000000000000 ) ) ;
#282 = ORIENTED_EDGE ( 'NONE', *, *, #548, .T. ) ;
#283 = EDGE_CURVE ( 'NONE', #527, #123, #255, .T. ) ;
#284 = LINE ( 'NONE', #138, #494 ) ;
#285 = VERTEX_POINT ( 'NONE', #260 ) ;
#286 = DIRECTION ( 'NONE',  ( 1.000000000000000000, 0.000000000000000000, 0.000000000000000000 ) ) ;
#287 = DIRECTION ( 'NONE',  ( 1.000000000000000000, 0.000000000000000000, 0.000000000000000000 ) ) ;
#288 = AXIS2_PLACEMENT_3D ( 'NONE', #343, #545, #451 ) ;
#289 = VERTEX_POINT ( 'NONE', #633 ) ;
#290 =( NAMED_UNIT ( * ) PLANE_ANGLE_UNIT ( ) SI_UNIT ( $, .RADIAN. ) );
#291 = FACE_BOUND ( 'NONE', #621, .T. ) ;
#292 = EDGE_LOOP ( 'NONE', ( #296, #178, #530, #464 ) ) ;
#293 = DIRECTION ( 'NONE',  ( -1.000000000000000000, -0.000000000000000000, -0.000000000000000000 ) ) ;
#294 = ORIENTED_EDGE ( 'NONE', *, *, #61, .T. ) ;
#295 = FACE_OUTER_BOUND ( 'NONE', #607, .T. ) ;
#296 = ORIENTED_EDGE ( 'NONE', *, *, #572, .T. ) ;
#297 = AXIS2_PLACEMENT_3D ( 'NONE', #163, #352, #204 ) ;
#298 = DIRECTION ( 'NONE',  ( 1.000000000000000000, 0.000000000000000000, 0.000000000000000000 ) ) ;
#299 = PRODUCT ( '8681N11_3 Long Corner Bracket for Aluminum Bolt-Together Framing', '8681N11_3 Long Corner Bracket for Aluminum Bolt-Together Framing', '', ( #576 ) ) ;
#300 = EDGE_CURVE ( 'NONE', #428, #512, #470, .T. ) ;
#301 = LINE ( 'NONE', #208, #121 ) ;
#302 = LINE ( 'NONE', #350, #43 ) ;
#303 = FACE_OUTER_BOUND ( 'NONE', #382, .T. ) ;
#304 = DIRECTION ( 'NONE',  ( 1.000000000000000000, 0.000000000000000000, 0.000000000000000000 ) ) ;
#305 = ADVANCED_FACE ( 'NONE', ( #361, #543, #202 ), #100, .F. ) ;
#306 = CIRCLE ( 'NONE', #49, 0.2500000000000000555 ) ;
#307 = AXIS2_PLACEMENT_3D ( 'NONE', #401, #108, #550 ) ;
#308 = DIRECTION ( 'NONE',  ( 0.000000000000000000, -1.000000000000000000, 0.000000000000000000 ) ) ;
#309 = DIRECTION ( 'NONE',  ( 0.000000000000000000, 0.000000000000000000, -1.000000000000000000 ) ) ;
#310 = APPROVAL ( #174, 'UNSPECIFIED' ) ;
#311 = CARTESIAN_POINT ( 'NONE',  ( 0.6550000000000000266, -1.250000000000000000, -0.9379999999999993898 ) ) ;
#312 = DIRECTION ( 'NONE',  ( -0.000000000000000000, 1.821231995776175479E-16, -1.000000000000000000 ) ) ;
#313 = CARTESIAN_POINT ( 'NONE',  ( 0.6550000000000000266, 1.250000000000000000, -1.500000000000000222 ) ) ;
#314 = DIRECTION ( 'NONE',  ( 1.000000000000000000, 0.000000000000000000, 0.000000000000000000 ) ) ;
#315 = DIRECTION ( 'NONE',  ( -0.000000000000000000, -0.000000000000000000, 1.000000000000000000 ) ) ;
#316 = EDGE_LOOP ( 'NONE', ( #151, #279 ) ) ;
#317 = CIRCLE ( 'NONE', #228, 0.1640000000000000069 ) ;
#318 = APPLICATION_PROTOCOL_DEFINITION ( 'international standard', 'config_control_design', 1994, #154 ) ;
#319 = ORIENTED_EDGE ( 'NONE', *, *, #171, .F. ) ;
#320 = LINE ( 'NONE', #23, #589 ) ;
#321 = EDGE_CURVE ( 'NONE', #615, #402, #27, .T. ) ;
#322 = ORIENTED_EDGE ( 'NONE', *, *, #142, .T. ) ;
#323 = EDGE_CURVE ( 'NONE', #285, #194, #284, .T. ) ;
#324 = ORIENTED_EDGE ( 'NONE', *, *, #45, .F. ) ;
#325 = CIRCLE ( 'NONE', #76, 0.1640000000000000069 ) ;
#326 = ORIENTED_EDGE ( 'NONE', *, *, #616, .T. ) ;
#327 = CC_DESIGN_PERSON_AND_ORGANIZATION_ASSIGNMENT ( #400, #94, ( #259 ) ) ;
#328 = FACE_BOUND ( 'NONE', #386, .T. ) ;
#329 = ORIENTED_EDGE ( 'NONE', *, *, #82, .T. ) ;
#330 = ORIENTED_EDGE ( 'NONE', *, *, #171, .T. ) ;
#331 = PERSON_AND_ORGANIZATION ( #537, #459 ) ;
#332 = DIRECTION ( 'NONE',  ( 0.000000000000000000, 1.000000000000000000, 1.821231995776175725E-16 ) ) ;
#333 = PLANE ( 'NONE',  #618 ) ;
#334 = DIRECTION ( 'NONE',  ( 0.000000000000000000, 0.000000000000000000, -1.000000000000000000 ) ) ;
#335 = AXIS2_PLACEMENT_3D ( 'NONE', #216, #434, #143 ) ;
#336 = ORIENTED_EDGE ( 'NONE', *, *, #323, .F. ) ;
#337 = CIRCLE ( 'NONE', #425, 0.1640000000000000069 ) ;
#338 = CARTESIAN_POINT ( 'NONE',  ( 0.000000000000000000, -0.7500000000000007772, -1.249999999999999556 ) ) ;
#339 = ORIENTED_EDGE ( 'NONE', *, *, #211, .F. ) ;
#340 = SHAPE_DEFINITION_REPRESENTATION ( #381, #420 ) ;
#341 = CARTESIAN_POINT ( 'NONE',  ( 0.6550000000000000266, -0.9379999999999998339, -0.9379999999999993898 ) ) ;
#342 = ORIENTED_EDGE ( 'NONE', *, *, #323, .T. ) ;
#343 = CARTESIAN_POINT ( 'NONE',  ( 0.000000000000000000, -1.250000000000000000, -0.7499999999999998890 ) ) ;
#344 = CARTESIAN_POINT ( 'NONE',  ( -0.1640000000000000069, 0.7499999999999995559, -1.499999999999999778 ) ) ;
#345 = VERTEX_POINT ( 'NONE', #191 ) ;
#346 = AXIS2_PLACEMENT_3D ( 'NONE', #507, #562, #16 ) ;
#347 = EDGE_CURVE ( 'NONE', #566, #67, #74, .T. ) ;
#348 = COORDINATED_UNIVERSAL_TIME_OFFSET ( 6, 0, .BEHIND. ) ;
#349 = CARTESIAN_POINT ( 'NONE',  ( 0.000000000000000000, -0.7500000000000007772, -1.500039370078740220 ) ) ;
#350 = CARTESIAN_POINT ( 'NONE',  ( -0.1640000000000000069, 0.7499999999999995559, -1.500039370078740220 ) ) ;
#351 = DIRECTION ( 'NONE',  ( -1.000000000000000000, -0.000000000000000000, -0.000000000000000000 ) ) ;
#352 = DIRECTION ( 'NONE',  ( 1.000000000000000000, 0.000000000000000000, 0.000000000000000000 ) ) ;
#353 = CARTESIAN_POINT ( 'NONE',  ( 0.000000000000000000, -1.250000000000000000, -0.5859999999999998543 ) ) ;
#354 = CARTESIAN_POINT ( 'NONE',  ( 0.000000000000000000, -1.250000000000000000, -0.7499999999999998890 ) ) ;
#355 = DIRECTION ( 'NONE',  ( -0.000000000000000000, 1.821231995776175479E-16, -1.000000000000000000 ) ) ;
#356 = ADVANCED_FACE ( 'NONE', ( #487 ), #479, .F. ) ;
#357 = DIRECTION ( 'NONE',  ( -0.000000000000000000, 1.248559412095184564E-16, 1.000000000000000000 ) ) ;
#358 = VECTOR ( 'NONE', #7, 39.37007874015748143 ) ;
#359 = PRODUCT_DEFINITION_FORMATION_WITH_SPECIFIED_SOURCE ( 'ANY', '', #299, .NOT_KNOWN. ) ;
#360 = CARTESIAN_POINT ( 'NONE',  ( -0.6550000000000000266, -1.499999999999999778, 1.500000000000000222 ) ) ;
#361 = FACE_BOUND ( 'NONE', #58, .T. ) ;
#362 = DIRECTION ( 'NONE',  ( 0.000000000000000000, 0.000000000000000000, -1.000000000000000000 ) ) ;
#363 = LINE ( 'NONE', #110, #33 ) ;
#364 = FACE_BOUND ( 'NONE', #81, .T. ) ;
#365 = ORIENTED_EDGE ( 'NONE', *, *, #616, .F. ) ;
#366 = EDGE_CURVE ( 'NONE', #289, #199, #377, .T. ) ;
#367 = EDGE_LOOP ( 'NONE', ( #275, #245, #119, #584 ) ) ;
#368 = VECTOR ( 'NONE', #442, 39.37007874015748143 ) ;
#369 = VERTEX_POINT ( 'NONE', #544 ) ;
#370 = CARTESIAN_POINT ( 'NONE',  ( 0.000000000000000000, -1.500039370078739998, -0.5859999999999998543 ) ) ;
#371 = PERSON_AND_ORGANIZATION ( #537, #459 ) ;
#372 = ORIENTED_EDGE ( 'NONE', *, *, #120, .T. ) ;
#373 = DIRECTION ( 'NONE',  ( 0.000000000000000000, 0.000000000000000000, 1.000000000000000000 ) ) ;
#374 = DIMENSIONAL_EXPONENTS ( 1.000000000000000000, 0.000000000000000000, 0.000000000000000000, 0.000000000000000000, 0.000000000000000000, 0.000000000000000000, 0.000000000000000000 ) ;
#375 = EDGE_CURVE ( 'NONE', #402, #32, #156, .T. ) ;
#376 = ORIENTED_EDGE ( 'NONE', *, *, #572, .F. ) ;
#377 = LINE ( 'NONE', #2, #218 ) ;
#378 = AXIS2_PLACEMENT_3D ( 'NONE', #263, #161, #444 ) ;
#379 = CARTESIAN_POINT ( 'NONE',  ( 0.000000000000000000, 0.7499999999999995559, -1.500039370078740220 ) ) ;
#380 = EDGE_LOOP ( 'NONE', ( #523, #490, #465, #39 ) ) ;
#381 = PRODUCT_DEFINITION_SHAPE ( 'NONE', 'NONE',  #432 ) ;
#382 = EDGE_LOOP ( 'NONE', ( #324, #419, #516, #36 ) ) ;
#383 =( LENGTH_UNIT ( ) NAMED_UNIT ( * ) SI_UNIT ( $, .METRE. ) );
#384 = ORIENTED_EDGE ( 'NONE', *, *, #558, .F. ) ;
#385 = DIRECTION ( 'NONE',  ( -0.000000000000000000, 1.000000000000000000, -0.000000000000000000 ) ) ;
#386 = EDGE_LOOP ( 'NONE', ( #203, #365 ) ) ;
#387 = LOCAL_TIME ( 9, 16, 20.00000000000000000, #462 ) ;
#388 = CARTESIAN_POINT ( 'NONE',  ( 0.6550000000000000266, -1.499999999999999778, 1.250000000000000000 ) ) ;
#389 = ADVANCED_FACE ( 'NONE', ( #593 ), #575, .T. ) ;
#390 = ORIENTED_EDGE ( 'NONE', *, *, #75, .T. ) ;
#391 = UNCERTAINTY_MEASURE_WITH_UNIT (LENGTH_MEASURE( 1.000000000000000082E-05 ), #190, 'distance_accuracy_value', 'NONE');
#392 = DIRECTION ( 'NONE',  ( -1.000000000000000000, 0.000000000000000000, -0.000000000000000000 ) ) ;
#393 = CARTESIAN_POINT ( 'NONE',  ( -0.6550000000000000266, -1.249999999999999778, 1.250000000000000000 ) ) ;
#394 = ADVANCED_FACE ( 'NONE', ( #243, #632, #88 ), #333, .F. ) ;
#395 = CALENDAR_DATE ( 2026, 18, 1 ) ;
#396 = CARTESIAN_POINT ( 'NONE',  ( -0.6550000000000000266, -0.9379999999999998339, -1.249999999999999556 ) ) ;
#397 = FACE_OUTER_BOUND ( 'NONE', #93, .T. ) ;
#398 = CIRCLE ( 'NONE', #521, 0.1640000000000000069 ) ;
#399 = APPROVAL_PERSON_ORGANIZATION ( #225, #310, #563 ) ;
#400 = PERSON_AND_ORGANIZATION ( #537, #459 ) ;
#401 = CARTESIAN_POINT ( 'NONE',  ( -0.6550000000000000266, 1.250000000000000000, -1.500000000000000222 ) ) ;
#402 = VERTEX_POINT ( 'NONE', #488 ) ;
#403 = ADVANCED_FACE ( 'NONE', ( #201 ), #587, .F. ) ;
#404 = CARTESIAN_POINT ( 'NONE',  ( 2.008420750601660667E-17, -1.250000000000000000, 0.5860000000000000764 ) ) ;
#405 = CARTESIAN_POINT ( 'NONE',  ( -0.1640000000000000069, 0.7499999999999995559, -1.249999999999999556 ) ) ;
#406 = CARTESIAN_POINT ( 'NONE',  ( -0.1640000000000000069, -0.7500000000000007772, -1.499999999999999778 ) ) ;
#407 = AXIS2_PLACEMENT_3D ( 'NONE', #379, #136, #287 ) ;
#408 = AXIS2_PLACEMENT_3D ( 'NONE', #500, #641, #579 ) ;
#409 = CARTESIAN_POINT ( 'NONE',  ( 0.6550000000000000266, -1.249999999999999778, 1.250000000000000000 ) ) ;
#410 = CARTESIAN_POINT ( 'NONE',  ( 0.000000000000000000, -1.499999999999999778, 0.7500000000000002220 ) ) ;
#411 = COORDINATED_UNIVERSAL_TIME_OFFSET ( 6, 0, .BEHIND. ) ;
#412 = EDGE_CURVE ( 'NONE', #123, #535, #238, .T. ) ;
#413 = ORIENTED_EDGE ( 'NONE', *, *, #638, .T. ) ;
#414 = EDGE_LOOP ( 'NONE', ( #617, #239 ) ) ;
#415 = PERSON_AND_ORGANIZATION ( #537, #459 ) ;
#416 = ORIENTED_EDGE ( 'NONE', *, *, #236, .F. ) ;
#417 = EDGE_LOOP ( 'NONE', ( #539, #376, #485, #189, #25, #336, #586 ) ) ;
#418 = AXIS2_PLACEMENT_3D ( 'NONE', #10, #314, #469 ) ;
#419 = ORIENTED_EDGE ( 'NONE', *, *, #515, .T. ) ;
#420 = ADVANCED_BREP_SHAPE_REPRESENTATION ( '8681N11_3 Long Corner Bracket for Aluminum Bolt-Together Framing', ( #113, #134 ), #87 ) ;
#421 = CC_DESIGN_DATE_AND_TIME_ASSIGNMENT ( #223, #17, ( #432 ) ) ;
#422 = VERTEX_POINT ( 'NONE', #360 ) ;
#423 = ORIENTED_EDGE ( 'NONE', *, *, #366, .T. ) ;
#424 = VECTOR ( 'NONE', #127, 39.37007874015748143 ) ;
#425 = AXIS2_PLACEMENT_3D ( 'NONE', #443, #505, #261 ) ;
#426 = CARTESIAN_POINT ( 'NONE',  ( -0.6550000000000000266, 1.500000000000000444, -1.499999999999999556 ) ) ;
#427 = ADVANCED_FACE ( 'NONE', ( #555 ), #603, .T. ) ;
#428 = VERTEX_POINT ( 'NONE', #28 ) ;
#429 = CARTESIAN_POINT ( 'NONE',  ( 0.000000000000000000, 0.000000000000000000, 0.000000000000000000 ) ) ;
#430 = CYLINDRICAL_SURFACE ( 'NONE', #63, 0.3120000000000001106 ) ;
#431 = ORIENTED_EDGE ( 'NONE', *, *, #412, .F. ) ;
#432 = PRODUCT_DEFINITION ( 'UNKNOWN', '', #359, #254 ) ;
#433 = COORDINATED_UNIVERSAL_TIME_OFFSET ( 6, 0, .BEHIND. ) ;
#434 = DIRECTION ( 'NONE',  ( 0.000000000000000000, 1.000000000000000000, 0.000000000000000000 ) ) ;
#435 = ORIENTED_EDGE ( 'NONE', *, *, #515, .F. ) ;
#436 = CARTESIAN_POINT ( 'NONE',  ( 0.000000000000000000, -1.500039370078739998, 0.7500000000000002220 ) ) ;
#437 = ORIENTED_EDGE ( 'NONE', *, *, #321, .T. ) ;
#438 = CC_DESIGN_APPROVAL ( #310, ( #359 ) ) ;
#439 = CC_DESIGN_PERSON_AND_ORGANIZATION_ASSIGNMENT ( #24, #68, ( #359 ) ) ;
#440 = CARTESIAN_POINT ( 'NONE',  ( 0.000000000000000000, 0.7499999999999995559, -1.499999999999999778 ) ) ;
#441 = VERTEX_POINT ( 'NONE', #233 ) ;
#442 = DIRECTION ( 'NONE',  ( -0.000000000000000000, -1.000000000000000000, -0.000000000000000000 ) ) ;
#443 = CARTESIAN_POINT ( 'NONE',  ( 0.000000000000000000, -0.7500000000000007772, -1.249999999999999556 ) ) ;
#444 = DIRECTION ( 'NONE',  ( 0.000000000000000000, 0.000000000000000000, -1.000000000000000000 ) ) ;
#445 = CARTESIAN_POINT ( 'NONE',  ( 0.1640000000000000069, 0.7499999999999995559, -1.500039370078740220 ) ) ;
#446 = CARTESIAN_POINT ( 'NONE',  ( -0.6550000000000000266, -0.9379999999999998339, -1.249999999999999556 ) ) ;
#447 = AXIS2_PLACEMENT_3D ( 'NONE', #489, #31, #577 ) ;
#448 = ADVANCED_FACE ( 'NONE', ( #78 ), #614, .F. ) ;
#449 = CIRCLE ( 'NONE', #307, 0.2500000000000006106 ) ;
#450 = APPROVAL_ROLE ( '' ) ;
#451 = DIRECTION ( 'NONE',  ( 0.000000000000000000, 0.000000000000000000, 1.000000000000000000 ) ) ;
#452 = DIRECTION ( 'NONE',  ( 0.000000000000000000, 0.000000000000000000, 1.000000000000000000 ) ) ;
#453 = DIRECTION ( 'NONE',  ( 0.000000000000000000, -1.000000000000000000, 0.000000000000000000 ) ) ;
#454 = DIRECTION ( 'NONE',  ( 0.000000000000000000, -1.000000000000000000, 0.000000000000000000 ) ) ;
#455 = LINE ( 'NONE', #160, #619 ) ;
#456 = LINE ( 'NONE', #604, #424 ) ;
#457 = EDGE_CURVE ( 'NONE', #67, #566, #337, .T. ) ;
#458 = LINE ( 'NONE', #11, #278 ) ;
#459 = ORGANIZATION ( 'UNSPECIFIED', 'UNSPECIFIED', '' ) ;
#460 = CARTESIAN_POINT ( 'NONE',  ( -0.1640000000000000069, -0.7500000000000007772, -1.249999999999999556 ) ) ;
#461 = ADVANCED_FACE ( 'NONE', ( #51 ), #268, .F. ) ;
#462 = COORDINATED_UNIVERSAL_TIME_OFFSET ( 6, 0, .BEHIND. ) ;
#463 = ORIENTED_EDGE ( 'NONE', *, *, #65, .F. ) ;
#464 = ORIENTED_EDGE ( 'NONE', *, *, #236, .T. ) ;
#465 = ORIENTED_EDGE ( 'NONE', *, *, #197, .T. ) ;
#466 = DATE_AND_TIME ( #172, #570 ) ;
#467 = VERTEX_POINT ( 'NONE', #111 ) ;
#468 = EDGE_CURVE ( 'NONE', #467, #289, #118, .T. ) ;
#469 = DIRECTION ( 'NONE',  ( 0.000000000000000000, 0.000000000000000000, -1.000000000000000000 ) ) ;
#470 = CIRCLE ( 'NONE', #175, 0.1639999999999999514 ) ;
#471 = VECTOR ( 'NONE', #357, 39.37007874015748143 ) ;
#472 = PERSON_AND_ORGANIZATION_ROLE ( 'creator' ) ;
#473 = EDGE_LOOP ( 'NONE', ( #173, #413, #478, #272 ) ) ;
#474 = DIRECTION ( 'NONE',  ( 0.000000000000000000, -1.000000000000000000, -0.000000000000000000 ) ) ;
#475 = DIRECTION ( 'NONE',  ( 0.000000000000000000, 0.000000000000000000, 1.000000000000000000 ) ) ;
#476 = ORIENTED_EDGE ( 'NONE', *, *, #211, .T. ) ;
#477 = DIRECTION ( 'NONE',  ( -1.000000000000000000, -0.000000000000000000, -0.000000000000000000 ) ) ;
#478 = ORIENTED_EDGE ( 'NONE', *, *, #107, .T. ) ;
#479 = CYLINDRICAL_SURFACE ( 'NONE', #492, 0.1640000000000002289 ) ;
#480 = AXIS2_PLACEMENT_3D ( 'NONE', #30, #165, #162 ) ;
#481 = EDGE_CURVE ( 'NONE', #194, #369, #449, .T. ) ;
#482 = DIRECTION ( 'NONE',  ( -1.000000000000000000, -0.000000000000000000, -0.000000000000000000 ) ) ;
#483 = VERTEX_POINT ( 'NONE', #404 ) ;
#484 = CARTESIAN_POINT ( 'NONE',  ( 0.6550000000000000266, -1.499999999999999778, 1.500000000000000222 ) ) ;
#485 = ORIENTED_EDGE ( 'NONE', *, *, #506, .F. ) ;
#486 = DATE_TIME_ROLE ( 'classification_date' ) ;
#487 = FACE_OUTER_BOUND ( 'NONE', #380, .T. ) ;
#488 = CARTESIAN_POINT ( 'NONE',  ( 0.6550000000000000266, 1.500000000000000444, -1.499999999999999556 ) ) ;
#489 = CARTESIAN_POINT ( 'NONE',  ( 0.000000000000000000, 0.7499999999999995559, -1.249999999999999556 ) ) ;
#490 = ORIENTED_EDGE ( 'NONE', *, *, #280, .T. ) ;
#491 = ADVANCED_FACE ( 'NONE', ( #397 ), #597, .T. ) ;
#492 = AXIS2_PLACEMENT_3D ( 'NONE', #436, #281, #475 ) ;
#493 = CARTESIAN_POINT ( 'NONE',  ( 0.6550000000000000266, -1.499999999999999778, 1.500000000000000222 ) ) ;
#494 = VECTOR ( 'NONE', #332, 39.37007874015748143 ) ;
#495 = ORIENTED_EDGE ( 'NONE', *, *, #283, .F. ) ;
#496 = CC_DESIGN_APPROVAL ( #54, ( #432 ) ) ;
#497 = DIRECTION ( 'NONE',  ( 0.000000000000000000, -1.000000000000000000, 1.248559412095184564E-16 ) ) ;
#498 = DIRECTION ( 'NONE',  ( 0.000000000000000000, 0.000000000000000000, 1.000000000000000000 ) ) ;
#499 = CARTESIAN_POINT ( 'NONE',  ( 0.6550000000000000266, -1.499999999999999778, 1.500000000000000222 ) ) ;
#500 = CARTESIAN_POINT ( 'NONE',  ( 0.6550000000000000266, -1.499999999999999778, -1.500000000000000222 ) ) ;
#501 = DIRECTION ( 'NONE',  ( 0.000000000000000000, 0.000000000000000000, 1.000000000000000000 ) ) ;
#502 = VERTEX_POINT ( 'NONE', #446 ) ;
#503 = AXIS2_PLACEMENT_3D ( 'NONE', #47, #556, #452 ) ;
#504 = CIRCLE ( 'NONE', #122, 0.3120000000000001106 ) ;
#505 = DIRECTION ( 'NONE',  ( 0.000000000000000000, 0.000000000000000000, 1.000000000000000000 ) ) ;
#506 = EDGE_CURVE ( 'NONE', #502, #19, #522, .T. ) ;
#507 = CARTESIAN_POINT ( 'NONE',  ( 0.000000000000000000, -1.250000000000000000, 0.7500000000000002220 ) ) ;
#508 = CARTESIAN_POINT ( 'NONE',  ( 2.008420750601660051E-17, -1.500039370078739998, -0.9140000000000000346 ) ) ;
#509 = FACE_OUTER_BOUND ( 'NONE', #367, .T. ) ;
#510 = EDGE_CURVE ( 'NONE', #422, #285, #455, .T. ) ;
#511 = DIRECTION ( 'NONE',  ( -1.000000000000000000, -0.000000000000000000, -0.000000000000000000 ) ) ;
#512 = VERTEX_POINT ( 'NONE', #406 ) ;
#513 = CIRCLE ( 'NONE', #503, 0.1640000000000002289 ) ;
#514 = VERTEX_POINT ( 'NONE', #8 ) ;
#515 = EDGE_CURVE ( 'NONE', #512, #428, #533, .T. ) ;
#516 = ORIENTED_EDGE ( 'NONE', *, *, #234, .T. ) ;
#517 = ORIENTED_EDGE ( 'NONE', *, *, #528, .F. ) ;
#518 = CARTESIAN_POINT ( 'NONE',  ( 0.000000000000000000, -1.499999999999999778, 0.9140000000000003677 ) ) ;
#519 = DIRECTION ( 'NONE',  ( -0.000000000000000000, -0.000000000000000000, 1.000000000000000000 ) ) ;
#520 = ORIENTED_EDGE ( 'NONE', *, *, #4, .F. ) ;
#521 = AXIS2_PLACEMENT_3D ( 'NONE', #440, #106, #454 ) ;
#522 = CIRCLE ( 'NONE', #99, 0.3120000000000001106 ) ;
#523 = ORIENTED_EDGE ( 'NONE', *, *, #638, .F. ) ;
#524 = PRODUCT_RELATED_PRODUCT_CATEGORY ( 'detail', '', ( #299 ) ) ;
#525 = DIRECTION ( 'NONE',  ( 0.000000000000000000, 1.000000000000000000, 1.821231995776175725E-16 ) ) ;
#526 = FACE_OUTER_BOUND ( 'NONE', #250, .T. ) ;
#527 = VERTEX_POINT ( 'NONE', #217 ) ;
#528 = EDGE_CURVE ( 'NONE', #560, #467, #504, .T. ) ;
#529 = CARTESIAN_POINT ( 'NONE',  ( 0.1640000000000000069, 0.7499999999999995559, -1.249999999999999556 ) ) ;
#530 = ORIENTED_EDGE ( 'NONE', *, *, #468, .F. ) ;
#531 = CARTESIAN_POINT ( 'NONE',  ( 0.6550000000000000266, -1.499999999999999778, -1.500000000000000222 ) ) ;
#532 = VECTOR ( 'NONE', #546, 39.37007874015748143 ) ;
#533 = CIRCLE ( 'NONE', #222, 0.1639999999999999514 ) ;
#534 = FACE_OUTER_BOUND ( 'NONE', #116, .T. ) ;
#535 = VERTEX_POINT ( 'NONE', #353 ) ;
#536 = CALENDAR_DATE ( 2026, 18, 1 ) ;
#537 = PERSON ( 'UNSPECIFIED', 'UNSPECIFIED', 'UNSPECIFIED', ('UNSPECIFIED'), ('UNSPECIFIED'), ('UNSPECIFIED') ) ;
#538 = ADVANCED_FACE ( 'NONE', ( #509 ), #205, .F. ) ;
#539 = ORIENTED_EDGE ( 'NONE', *, *, #61, .F. ) ;
#540 = LINE ( 'NONE', #95, #145 ) ;
#541 = ORIENTED_EDGE ( 'NONE', *, *, #107, .F. ) ;
#542 = AXIS2_PLACEMENT_3D ( 'NONE', #484, #237, #35 ) ;
#543 = FACE_BOUND ( 'NONE', #40, .T. ) ;
#544 = CARTESIAN_POINT ( 'NONE',  ( -0.6550000000000000266, 1.250000000000000000, -1.249999999999999556 ) ) ;
#545 = DIRECTION ( 'NONE',  ( 0.000000000000000000, 1.000000000000000000, 0.000000000000000000 ) ) ;
#546 = DIRECTION ( 'NONE',  ( -1.000000000000000000, -0.000000000000000000, -0.000000000000000000 ) ) ;
#547 = CARTESIAN_POINT ( 'NONE',  ( -0.6550000000000000266, -0.9379999999999998339, -0.9379999999999993898 ) ) ;
#548 = EDGE_CURVE ( 'NONE', #615, #285, #164, .T. ) ;
#549 = DIRECTION ( 'NONE',  ( -0.000000000000000000, 1.000000000000000000, -0.000000000000000000 ) ) ;
#550 = DIRECTION ( 'NONE',  ( 0.000000000000000000, 0.000000000000000000, -1.000000000000000000 ) ) ;
#551 = CARTESIAN_POINT ( 'NONE',  ( 0.000000000000000000, -1.499999999999999778, -0.7499999999999998890 ) ) ;
#552 = LINE ( 'NONE', #396, #368 ) ;
#553 = CARTESIAN_POINT ( 'NONE',  ( 0.000000000000000000, 0.7499999999999995559, -1.499999999999999778 ) ) ;
#554 = AXIS2_PLACEMENT_3D ( 'NONE', #46, #214, #501 ) ;
#555 = FACE_OUTER_BOUND ( 'NONE', #210, .T. ) ;
#556 = DIRECTION ( 'NONE',  ( 0.000000000000000000, -1.000000000000000000, -0.000000000000000000 ) ) ;
#557 = CARTESIAN_POINT ( 'NONE',  ( 0.6550000000000000266, -1.499999999999999778, -1.500000000000000222 ) ) ;
#558 = EDGE_CURVE ( 'NONE', #247, #514, #325, .T. ) ;
#559 = FACE_OUTER_BOUND ( 'NONE', #15, .T. ) ;
#560 = VERTEX_POINT ( 'NONE', #637 ) ;
#561 = CIRCLE ( 'NONE', #418, 0.2500000000000000555 ) ;
#562 = DIRECTION ( 'NONE',  ( 0.000000000000000000, 1.000000000000000000, 0.000000000000000000 ) ) ;
#563 = APPROVAL_ROLE ( '' ) ;
#564 = ORIENTED_EDGE ( 'NONE', *, *, #506, .T. ) ;
#565 = DIRECTION ( 'NONE',  ( -0.000000000000000000, 1.000000000000000000, -0.000000000000000000 ) ) ;
#566 = VERTEX_POINT ( 'NONE', #59 ) ;
#567 = EDGE_LOOP ( 'NONE', ( #139, #384 ) ) ;
#568 = AXIS2_PLACEMENT_3D ( 'NONE', #551, #105, #152 ) ;
#569 = CC_DESIGN_SECURITY_CLASSIFICATION ( #259, ( #359 ) ) ;
#570 = LOCAL_TIME ( 9, 16, 20.00000000000000000, #411 ) ;
#571 = ORIENTED_EDGE ( 'NONE', *, *, #41, .T. ) ;
#572 = EDGE_CURVE ( 'NONE', #19, #199, #458, .T. ) ;
#573 = FACE_OUTER_BOUND ( 'NONE', #624, .T. ) ;
#574 = ORIENTED_EDGE ( 'NONE', *, *, #280, .F. ) ;
#575 = PLANE ( 'NONE',  #98 ) ;
#576 = MECHANICAL_CONTEXT ( 'NONE', #154, 'mechanical' ) ;
#577 = DIRECTION ( 'NONE',  ( 1.000000000000000000, 0.000000000000000000, 0.000000000000000000 ) ) ;
#578 = ORIENTED_EDGE ( 'NONE', *, *, #481, .T. ) ;
#579 = DIRECTION ( 'NONE',  ( 0.000000000000000000, -1.000000000000000000, -1.821231995776175479E-16 ) ) ;
#580 = CIRCLE ( 'NONE', #335, 0.1640000000000002289 ) ;
#581 = CC_DESIGN_PERSON_AND_ORGANIZATION_ASSIGNMENT ( #415, #472, ( #432 ) ) ;
#582 = VECTOR ( 'NONE', #20, 39.37007874015748143 ) ;
#583 = CARTESIAN_POINT ( 'NONE',  ( 0.6550000000000000266, -0.9379999999999998339, -1.249999999999999556 ) ) ;
#584 = ORIENTED_EDGE ( 'NONE', *, *, #234, .F. ) ;
#585 = CARTESIAN_POINT ( 'NONE',  ( 0.6550000000000000266, -1.499999999999999778, 1.250000000000000000 ) ) ;
#586 = ORIENTED_EDGE ( 'NONE', *, *, #510, .F. ) ;
#587 = CYLINDRICAL_SURFACE ( 'NONE', #480, 0.1640000000000002289 ) ;
#588 = DIRECTION ( 'NONE',  ( -0.000000000000000000, -0.000000000000000000, 1.000000000000000000 ) ) ;
#589 = VECTOR ( 'NONE', #511, 39.37007874015748143 ) ;
#590 = CARTESIAN_POINT ( 'NONE',  ( 0.6550000000000000266, -1.249999999999999778, 1.250000000000000000 ) ) ;
#591 = DIRECTION ( 'NONE',  ( 0.000000000000000000, 0.000000000000000000, 1.000000000000000000 ) ) ;
#592 = EDGE_CURVE ( 'NONE', #247, #271, #302, .T. ) ;
#593 = FACE_OUTER_BOUND ( 'NONE', #84, .T. ) ;
#594 = CARTESIAN_POINT ( 'NONE',  ( 0.6550000000000000266, -1.499999999999999778, 1.250000000000000000 ) ) ;
#595 = ADVANCED_FACE ( 'NONE', ( #256, #364, #559 ), #104, .F. ) ;
#596 = CYLINDRICAL_SURFACE ( 'NONE', #85, 0.1640000000000000069 ) ;
#597 = CYLINDRICAL_SURFACE ( 'NONE', #196, 0.2500000000000000555 ) ;
#598 = CARTESIAN_POINT ( 'NONE',  ( 0.000000000000000000, -0.7500000000000007772, -1.499999999999999778 ) ) ;
#599 = CC_DESIGN_PERSON_AND_ORGANIZATION_ASSIGNMENT ( #606, #146, ( #299 ) ) ;
#600 = DIRECTION ( 'NONE',  ( -0.000000000000000000, 1.821231995776175479E-16, -1.000000000000000000 ) ) ;
#601 = AXIS2_PLACEMENT_3D ( 'NONE', #338, #79, #286 ) ;
#602 = AXIS2_PLACEMENT_3D ( 'NONE', #313, #351, #183 ) ;
#603 = CYLINDRICAL_SURFACE ( 'NONE', #602, 0.2500000000000006106 ) ;
#604 = CARTESIAN_POINT ( 'NONE',  ( -0.1640000000000000069, -0.7500000000000007772, -1.500039370078740220 ) ) ;
#605 = CARTESIAN_POINT ( 'NONE',  ( 0.000000000000000000, -0.7500000000000007772, -1.499999999999999778 ) ) ;
#606 = PERSON_AND_ORGANIZATION ( #537, #459 ) ;
#607 = EDGE_LOOP ( 'NONE', ( #130, #1, #169, #77 ) ) ;
#608 = CALENDAR_DATE ( 2026, 18, 1 ) ;
#609 = VERTEX_POINT ( 'NONE', #518 ) ;
#610 = VECTOR ( 'NONE', #565, 39.37007874015748143 ) ;
#611 = LOCAL_TIME ( 9, 16, 20.00000000000000000, #348 ) ;
#612 = DIRECTION ( 'NONE',  ( 0.000000000000000000, 0.000000000000000000, 1.000000000000000000 ) ) ;
#613 = ORIENTED_EDGE ( 'NONE', *, *, #510, .T. ) ;
#614 = CYLINDRICAL_SURFACE ( 'NONE', #240, 0.1640000000000000069 ) ;
#615 = VERTEX_POINT ( 'NONE', #531 ) ;
#616 = EDGE_CURVE ( 'NONE', #527, #441, #34, .T. ) ;
#617 = ORIENTED_EDGE ( 'NONE', *, *, #347, .F. ) ;
#618 = AXIS2_PLACEMENT_3D ( 'NONE', #626, #192, #392 ) ;
#619 = VECTOR ( 'NONE', #309, 39.37007874015748143 ) ;
#620 = LINE ( 'NONE', #184, #166 ) ;
#621 = EDGE_LOOP ( 'NONE', ( #132, #574 ) ) ;
#622 = DIRECTION ( 'NONE',  ( 0.000000000000000000, 0.000000000000000000, 1.000000000000000000 ) ) ;
#623 = CARTESIAN_POINT ( 'NONE',  ( 0.6550000000000000266, 1.250000000000000000, -1.249999999999999556 ) ) ;
#624 = EDGE_LOOP ( 'NONE', ( #495, #326, #571, #329 ) ) ;
#625 = CARTESIAN_POINT ( 'NONE',  ( 2.008420750601660667E-17, -1.500039370078739998, 0.5860000000000000764 ) ) ;
#626 = CARTESIAN_POINT ( 'NONE',  ( 0.6550000000000000266, -0.9379999999999998339, -1.249999999999999556 ) ) ;
#627 = ORIENTED_EDGE ( 'NONE', *, *, #592, .F. ) ;
#628 = VECTOR ( 'NONE', #293, 39.37007874015748143 ) ;
#629 = AXIS2_PLACEMENT_3D ( 'NONE', #209, #315, #304 ) ;
#630 = DIRECTION ( 'NONE',  ( 1.000000000000000000, 0.000000000000000000, 0.000000000000000000 ) ) ;
#631 = ORIENTED_EDGE ( 'NONE', *, *, #129, .F. ) ;
#632 = FACE_BOUND ( 'NONE', #414, .T. ) ;
#633 = CARTESIAN_POINT ( 'NONE',  ( 0.6550000000000000266, -1.249999999999999778, 1.250000000000000000 ) ) ;
#634 = ORIENTED_EDGE ( 'NONE', *, *, #283, .T. ) ;
#635 = DATE_AND_TIME ( #395, #219 ) ;
#636 = DIRECTION ( 'NONE',  ( 1.000000000000000000, 0.000000000000000000, 0.000000000000000000 ) ) ;
#637 = CARTESIAN_POINT ( 'NONE',  ( 0.6550000000000000266, -0.9379999999999998339, -1.249999999999999556 ) ) ;
#638 = EDGE_CURVE ( 'NONE', #101, #483, #187, .T. ) ;
#639 = CIRCLE ( 'NONE', #568, 0.1640000000000000902 ) ;
#640 = DIRECTION ( 'NONE',  ( -0.000000000000000000, -0.000000000000000000, 1.000000000000000000 ) ) ;
#641 = DIRECTION ( 'NONE',  ( 0.000000000000000000, -1.821231995776175479E-16, 1.000000000000000000 ) ) ;
ENDSEC;
END-ISO-10303-21;
