ISO-10303-21;
HEADER;
FILE_DESCRIPTION (( 'STEP AP203' ),
    '1' );
FILE_NAME ('91292A114_NO THREADS_18-8 Stainless Steel Socket Head Screw.STEP',
    '2026-02-05T17:25:48',
    ( 'McMaster Carr Supply' ),
    ( 'McMaster Carr Supply' ),
    'SwSTEP 2.0',
    'SolidWorks 2024',
    '' );
FILE_SCHEMA (( 'CONFIG_CONTROL_DESIGN' ));
ENDSEC;

DATA;
#1 = TOROIDAL_SURFACE ( 'NONE', #149, 2.600000000000000089, 0.1500000000000006051 ) ;
#2 = CARTESIAN_POINT ( 'NONE',  ( -2.600000000000000089, -2.602085213965210642E-15, 7.350000000000000533 ) ) ;
#3 = AXIS2_PLACEMENT_3D ( 'NONE', #110, #545, #168 ) ;
#4 = CARTESIAN_POINT ( 'NONE',  ( 0.000000000000000000, -2.602085213965210642E-15, 7.350000000000001421 ) ) ;
#5 = EDGE_LOOP ( 'NONE', ( #240, #519, #147, #582, #414, #300, #239 ) ) ;
#6 = DIRECTION ( 'NONE',  ( -1.000000000000000000, 0.000000000000000000, 0.000000000000000000 ) ) ;
#7 = EDGE_CURVE ( 'NONE', #255, #625, #598, .T. ) ;
#8 = LINE ( 'NONE', #296, #161 ) ;
#9 = CARTESIAN_POINT ( 'NONE',  ( 1.249999999999996669, 3.895167804010575298E-13, 7.277058275389673092 ) ) ;
#10 = ORIENTED_EDGE ( 'NONE', *, *, #610, .F. ) ;
#11 = CARTESIAN_POINT ( 'NONE',  ( 2.750000000000000888, -2.265307344199688590E-15, -7.500000000000000888 ) ) ;
#12 = DIRECTION ( 'NONE',  ( -1.000000000000000000, 0.000000000000000000, 0.000000000000000000 ) ) ;
#13 = CONICAL_SURFACE ( 'NONE', #230, 1.000000000000003997, 0.7853981633974489451 ) ;
#14 = ADVANCED_FACE ( 'NONE', ( #183 ), #65, .T. ) ;
#15 = ORIENTED_EDGE ( 'NONE', *, *, #31, .F. ) ;
#16 = VERTEX_POINT ( 'NONE', #619 ) ;
#17 = LINE ( 'NONE', #69, #254 ) ;
#18 = ORIENTED_EDGE ( 'NONE', *, *, #215, .F. ) ;
#19 = CARTESIAN_POINT ( 'NONE',  ( 0.000000000000000000, -2.602085213965210642E-15, 7.350000000000000533 ) ) ;
#20 = ORIENTED_EDGE ( 'NONE', *, *, #121, .T. ) ;
#21 = PERSON_AND_ORGANIZATION ( #393, #587 ) ;
#22 = ADVANCED_FACE ( 'NONE', ( #304 ), #349, .T. ) ;
#23 = VERTEX_POINT ( 'NONE', #627 ) ;
#24 = DIRECTION ( 'NONE',  ( -1.000000000000000000, 0.000000000000000000, 0.000000000000000000 ) ) ;
#25 = DIRECTION ( 'NONE',  ( -0.000000000000000000, 0.000000000000000000, -1.000000000000000000 ) ) ;
#26 = AXIS2_PLACEMENT_3D ( 'NONE', #702, #48, #429 ) ;
#27 = APPROVAL_PERSON_ORGANIZATION ( #138, #591, #678 ) ;
#28 = PRODUCT_DEFINITION_SHAPE ( 'NONE', 'NONE',  #237 ) ;
#29 = VECTOR ( 'NONE', #484, 1000.000000000000000 ) ;
#30 = CARTESIAN_POINT ( 'NONE',  ( 0.4136428394890701021, 1.204558868246686343, 7.276902742966003146 ) ) ;
#31 = EDGE_CURVE ( 'NONE', #392, #248, #448, .T. ) ;
#32 = VERTEX_POINT ( 'NONE', #669 ) ;
#33 = DIRECTION ( 'NONE',  ( -0.000000000000000000, -0.000000000000000000, -1.000000000000000000 ) ) ;
#34 = ORIENTED_EDGE ( 'NONE', *, *, #570, .T. ) ;
#35 = CARTESIAN_POINT ( 'NONE',  ( -1.045899675263965989, -0.8395252139150687354, 7.320670330658451519 ) ) ;
#36 = EDGE_CURVE ( 'NONE', #16, #188, #350, .T. ) ;
#37 = DIRECTION ( 'NONE',  ( -0.000000000000000000, -0.000000000000000000, -1.000000000000000000 ) ) ;
#38 = LOCAL_TIME ( 11, 25, 48.00000000000000000, #133 ) ;
#39 = CARTESIAN_POINT ( 'NONE',  ( 1.249999999999996669, 3.895167804010575298E-13, 7.277058275389673092 ) ) ;
#40 = AXIS2_PLACEMENT_3D ( 'NONE', #43, #332, #60 ) ;
#41 = CARTESIAN_POINT ( 'NONE',  ( 0.000000000000000000, -2.602085213965210642E-15, -7.500000000000001776 ) ) ;
#42 = CARTESIAN_POINT ( 'NONE',  ( 0.000000000000000000, -2.602085213965210642E-15, -7.500000000000000888 ) ) ;
#43 = CARTESIAN_POINT ( 'NONE',  ( 0.000000000000000000, -2.602085213965210642E-15, 7.500000000000002665 ) ) ;
#44 = CARTESIAN_POINT ( 'NONE',  ( -1.249999999999997335, 0.2455944017520920730, 7.287814925921678899 ) ) ;
#45 = PLANE ( 'NONE',  #402 ) ;
#46 = CARTESIAN_POINT ( 'NONE',  ( 1.249999999999996669, -0.7216878364870291662, 7.388703772240051926 ) ) ;
#47 = UNCERTAINTY_MEASURE_WITH_UNIT (LENGTH_MEASURE( 1.000000000000000082E-05 ), #561, 'distance_accuracy_value', 'NONE');
#48 = DIRECTION ( 'NONE',  ( -1.000000000000000000, 0.000000000000000000, -0.000000000000000000 ) ) ;
#49 = TOROIDAL_SURFACE ( 'NONE', #686, 2.600000000000000533, 0.1500000000000003830 ) ;
#50 = LOCAL_TIME ( 11, 25, 48.00000000000000000, #479 ) ;
#51 = CARTESIAN_POINT ( 'NONE',  ( 1.249999999999996669, -0.4870599541435864932, 7.320972536724856816 ) ) ;
#52 = EDGE_CURVE ( 'NONE', #450, #490, #319, .T. ) ;
#53 = AXIS2_PLACEMENT_3D ( 'NONE', #338, #605, #647 ) ;
#54 = LINE ( 'NONE', #170, #29 ) ;
#55 = VERTEX_POINT ( 'NONE', #533 ) ;
#56 = LINE ( 'NONE', #177, #91 ) ;
#57 = EDGE_CURVE ( 'NONE', #374, #370, #308, .T. ) ;
#58 = EDGE_LOOP ( 'NONE', ( #10, #453, #98, #567 ) ) ;
#59 = EDGE_LOOP ( 'NONE', ( #72, #129, #407, #572 ) ) ;
#60 = DIRECTION ( 'NONE',  ( -1.000000000000000000, 0.000000000000000000, 0.000000000000000000 ) ) ;
#61 =( NAMED_UNIT ( * ) PLANE_ANGLE_UNIT ( ) SI_UNIT ( $, .RADIAN. ) );
#62 = EDGE_CURVE ( 'NONE', #132, #617, #436, .T. ) ;
#63 = ORIENTED_EDGE ( 'NONE', *, *, #261, .T. ) ;
#64 = EDGE_LOOP ( 'NONE', ( #18, #497 ) ) ;
#65 = TOROIDAL_SURFACE ( 'NONE', #403, 2.600000000000000533, 0.1500000000000003830 ) ;
#66 = DIRECTION ( 'NONE',  ( -1.000000000000000000, -1.224646799147362821E-16, 0.000000000000000000 ) ) ;
#67 = CIRCLE ( 'NONE', #313, 1.636146394145051586 ) ;
#68 = ORIENTED_EDGE ( 'NONE', *, *, #408, .F. ) ;
#69 = CARTESIAN_POINT ( 'NONE',  ( -1.000000000000003997, -2.479620534050474705E-15, -7.500000000000001776 ) ) ;
#70 = ORIENTED_EDGE ( 'NONE', *, *, #36, .F. ) ;
#71 = EDGE_LOOP ( 'NONE', ( #613, #354, #119, #76 ) ) ;
#72 = ORIENTED_EDGE ( 'NONE', *, *, #320, .T. ) ;
#73 = ORIENTED_EDGE ( 'NONE', *, *, #503, .T. ) ;
#74 = AXIS2_PLACEMENT_3D ( 'NONE', #696, #547, #609 ) ;
#75 = DATE_TIME_ROLE ( 'creation_date' ) ;
#76 = ORIENTED_EDGE ( 'NONE', *, *, #577, .F. ) ;
#77 = DIRECTION ( 'NONE',  ( -0.000000000000000000, -0.000000000000000000, -1.000000000000000000 ) ) ;
#78 = ADVANCED_BREP_SHAPE_REPRESENTATION ( '91292A114_NO THREADS_18-8 Stainless Steel Socket Head Screw', ( #644, #652 ), #445 ) ;
#79 = COORDINATED_UNIVERSAL_TIME_OFFSET ( 6, 0, .BEHIND. ) ;
#80 = DATE_AND_TIME ( #140, #50 ) ;
#81 = DIRECTION ( 'NONE',  ( 0.8660254037844387076, -0.4999999999999998890, 0.000000000000000000 ) ) ;
#82 = ORIENTED_EDGE ( 'NONE', *, *, #325, .F. ) ;
#83 = ORIENTED_EDGE ( 'NONE', *, *, #500, .F. ) ;
#84 = APPROVAL_STATUS ( 'not_yet_approved' ) ;
#85 = EDGE_CURVE ( 'NONE', #420, #450, #683, .T. ) ;
#86 = ORIENTED_EDGE ( 'NONE', *, *, #439, .T. ) ;
#87 = ORIENTED_EDGE ( 'NONE', *, *, #531, .F. ) ;
#88 = CARTESIAN_POINT ( 'NONE',  ( -7.120071990795405478E-17, 1.443375672974061885, 7.388703772240052814 ) ) ;
#89 = VECTOR ( 'NONE', #384, 1000.000000000000000 ) ;
#90 = APPROVAL_DATE_TIME ( #203, #591 ) ;
#91 = VECTOR ( 'NONE', #290, 1000.000000000000000 ) ;
#92 = VECTOR ( 'NONE', #451, 1000.000000000000000 ) ;
#93 = PRODUCT_RELATED_PRODUCT_CATEGORY ( 'detail', '', ( #554 ) ) ;
#94 = ORIENTED_EDGE ( 'NONE', *, *, #346, .T. ) ;
#95 = VERTEX_POINT ( 'NONE', #88 ) ;
#96 = AXIS2_PLACEMENT_3D ( 'NONE', #394, #614, #659 ) ;
#97 = CARTESIAN_POINT ( 'NONE',  ( -1.249999999999997335, -0.7216878364870311646, 7.388703772240052814 ) ) ;
#98 = ORIENTED_EDGE ( 'NONE', *, *, #549, .T. ) ;
#99 = CYLINDRICAL_SURFACE ( 'NONE', #434, 2.750000000000000888 ) ;
#100 = EDGE_CURVE ( 'NONE', #677, #420, #202, .T. ) ;
#101 = CYLINDRICAL_SURFACE ( 'NONE', #126, 1.500000000000004441 ) ;
#102 = CARTESIAN_POINT ( 'NONE',  ( 0.000000000000000000, -2.602085213965210642E-15, -7.500000000000000888 ) ) ;
#103 = DIRECTION ( 'NONE',  ( 0.000000000000000000, 0.000000000000000000, -1.000000000000000000 ) ) ;
#104 = CIRCLE ( 'NONE', #291, 1.000000000000003997 ) ;
#105 = ORIENTED_EDGE ( 'NONE', *, *, #52, .F. ) ;
#106 = CARTESIAN_POINT ( 'NONE',  ( 0.2041003247360302919, -1.325538295546023315, 7.320670330658448854 ) ) ;
#107 = AXIS2_PLACEMENT_3D ( 'NONE', #498, #546, #492 ) ;
#108 = LINE ( 'NONE', #701, #125 ) ;
#109 = DIRECTION ( 'NONE',  ( -0.000000000000000000, -0.000000000000000000, -1.000000000000000000 ) ) ;
#110 = CARTESIAN_POINT ( 'NONE',  ( 0.000000000000000000, 0.000000000000000000, 7.500000000000001776 ) ) ;
#111 = CARTESIAN_POINT ( 'NONE',  ( 1.249999999999996669, 0.7216878364870321638, 6.000000000000000000 ) ) ;
#112 = DIRECTION ( 'NONE',  ( -1.000000000000000000, 0.000000000000000000, 0.000000000000000000 ) ) ;
#113 = APPROVAL ( #360, 'UNSPECIFIED' ) ;
#114 = DIRECTION ( 'NONE',  ( -0.000000000000000000, -0.000000000000000000, 1.000000000000000000 ) ) ;
#115 = CARTESIAN_POINT ( 'NONE',  ( -2.600000000000000533, -2.602085213965210642E-15, 4.650000000000001243 ) ) ;
#116 = CARTESIAN_POINT ( 'NONE',  ( 0.000000000000000000, 0.000000000000000000, 7.500000000000001776 ) ) ;
#117 = EDGE_CURVE ( 'NONE', #585, #23, #565, .T. ) ;
#118 = CARTESIAN_POINT ( 'NONE',  ( 0.000000000000000000, -2.602085213965210642E-15, 4.650000000000000355 ) ) ;
#119 = ORIENTED_EDGE ( 'NONE', *, *, #117, .F. ) ;
#120 = LINE ( 'NONE', #441, #673 ) ;
#121 = EDGE_CURVE ( 'NONE', #392, #677, #422, .T. ) ;
#122 = DIRECTION ( 'NONE',  ( -1.224646799147353207E-16, 1.000000000000000000, 0.000000000000000000 ) ) ;
#123 = ORIENTED_EDGE ( 'NONE', *, *, #376, .F. ) ;
#124 = DIRECTION ( 'NONE',  ( -0.8660254037844397068, 1.060575238724908147E-16, 0.4999999999999979461 ) ) ;
#125 = VECTOR ( 'NONE', #114, 1000.000000000000000 ) ;
#126 = AXIS2_PLACEMENT_3D ( 'NONE', #266, #37, #112 ) ;
#127 = DIRECTION ( 'NONE',  ( -0.000000000000000000, -0.000000000000000000, -1.000000000000000000 ) ) ;
#128 = AXIS2_PLACEMENT_3D ( 'NONE', #634, #141, #148 ) ;
#129 = ORIENTED_EDGE ( 'NONE', *, *, #648, .T. ) ;
#130 = CYLINDRICAL_SURFACE ( 'NONE', #574, 1.500000000000004441 ) ;
#131 = ADVANCED_FACE ( 'NONE', ( #636, #590 ), #477, .T. ) ;
#132 = VERTEX_POINT ( 'NONE', #687 ) ;
#133 = COORDINATED_UNIVERSAL_TIME_OFFSET ( 6, 0, .BEHIND. ) ;
#134 = PERSON_AND_ORGANIZATION ( #393, #587 ) ;
#135 = CARTESIAN_POINT ( 'NONE',  ( 0.000000000000000000, -2.602085213965210642E-15, 4.650000000000001243 ) ) ;
#136 = ADVANCED_FACE ( 'NONE', ( #425 ), #99, .T. ) ;
#137 = LOCAL_TIME ( 11, 25, 48.00000000000000000, #423 ) ;
#138 = PERSON_AND_ORGANIZATION ( #393, #587 ) ;
#139 = AXIS2_PLACEMENT_3D ( 'NONE', #521, #25, #264 ) ;
#140 = CALENDAR_DATE ( 2026, 5, 2 ) ;
#141 = DIRECTION ( 'NONE',  ( 0.4999999999999997224, 0.8660254037844388186, 0.000000000000000000 ) ) ;
#142 = ADVANCED_FACE ( 'NONE', ( #307 ), #482, .F. ) ;
#143 = EDGE_LOOP ( 'NONE', ( #162, #399, #263, #34 ) ) ;
#144 = VERTEX_POINT ( 'NONE', #480 ) ;
#145 = CARTESIAN_POINT ( 'NONE',  ( 1.045899675263965545, 0.8395252139150697346, 7.320670330658451519 ) ) ;
#146 = B_SPLINE_CURVE_WITH_KNOTS ( 'NONE', 3,
 ( #491, #106, #700, #218, #437, #698 ),
 .UNSPECIFIED., .F., .F.,
 ( 4, 2, 4 ),
 ( 2.380763768061615772E-07, 0.0007291065797294578885, 0.001457975083082109578 ),
 .UNSPECIFIED. ) ;
#147 = ORIENTED_EDGE ( 'NONE', *, *, #166, .T. ) ;
#148 = DIRECTION ( 'NONE',  ( -0.8660254037844388186, 0.4999999999999997224, 0.000000000000000000 ) ) ;
#149 = AXIS2_PLACEMENT_3D ( 'NONE', #19, #227, #618 ) ;
#150 = CIRCLE ( 'NONE', #550, 2.750000000000000888 ) ;
#151 = EDGE_CURVE ( 'NONE', #677, #374, #199, .T. ) ;
#152 = CIRCLE ( 'NONE', #40, 2.600000000000000089 ) ;
#153 = CARTESIAN_POINT ( 'NONE',  ( 0.000000000000000000, 0.000000000000000000, 7.500000000000001776 ) ) ;
#154 = CARTESIAN_POINT ( 'NONE',  ( -1.249999999999997335, -0.7216878364870311646, 7.388703772240052814 ) ) ;
#155 = DIRECTION ( 'NONE',  ( 0.000000000000000000, -1.000000000000000000, 0.000000000000000000 ) ) ;
#156 = FACE_OUTER_BOUND ( 'NONE', #212, .T. ) ;
#157 = CARTESIAN_POINT ( 'NONE',  ( -1.249999999999997335, 0.7216878364870309426, 7.388703772240051926 ) ) ;
#158 = CARTESIAN_POINT ( 'NONE',  ( 0.000000000000000000, -2.602085213965210642E-15, 7.350000000000001421 ) ) ;
#159 = DIRECTION ( 'NONE',  ( 1.000000000000000000, 0.000000000000000000, 0.000000000000000000 ) ) ;
#160 = ORIENTED_EDGE ( 'NONE', *, *, #261, .F. ) ;
#161 = VECTOR ( 'NONE', #556, 1000.000000000000000 ) ;
#162 = ORIENTED_EDGE ( 'NONE', *, *, #564, .F. ) ;
#163 = FACE_OUTER_BOUND ( 'NONE', #336, .T. ) ;
#164 = AXIS2_PLACEMENT_3D ( 'NONE', #2, #286, #553 ) ;
#165 = LINE ( 'NONE', #334, #527 ) ;
#166 = EDGE_CURVE ( 'NONE', #637, #144, #67, .T. ) ;
#167 = CARTESIAN_POINT ( 'NONE',  ( -1.249999999999997558, 0.1219614842681972788, 7.277058275393790687 ) ) ;
#168 = DIRECTION ( 'NONE',  ( 1.000000000000000000, 0.000000000000000000, 0.000000000000000000 ) ) ;
#169 = DIRECTION ( 'NONE',  ( -0.000000000000000000, -0.000000000000000000, -1.000000000000000000 ) ) ;
#170 = CARTESIAN_POINT ( 'NONE',  ( 1.500000000000004441, -2.418388194093107131E-15, -7.500000000000000888 ) ) ;
#171 = DIRECTION ( 'NONE',  ( 1.000000000000000000, 0.000000000000000000, 0.000000000000000000 ) ) ;
#172 = DIRECTION ( 'NONE',  ( 0.5000000000000004441, -0.8660254037844383745, 0.000000000000000000 ) ) ;
#173 = ORIENTED_EDGE ( 'NONE', *, *, #353, .T. ) ;
#174 = AXIS2_PLACEMENT_3D ( 'NONE', #569, #391, #12 ) ;
#175 = APPROVAL ( #84, 'UNSPECIFIED' ) ;
#176 = CARTESIAN_POINT ( 'NONE',  ( 0.000000000000000000, -2.602085213965210642E-15, 4.500000000000003553 ) ) ;
#177 = CARTESIAN_POINT ( 'NONE',  ( 1.249999999999996669, -0.7216878364870292772, 6.000000000000000000 ) ) ;
#178 = ORIENTED_EDGE ( 'NONE', *, *, #424, .T. ) ;
#179 = CARTESIAN_POINT ( 'NONE',  ( -1.249999999999997335, 0.7216878364870310536, 6.000000000000000000 ) ) ;
#180 = FACE_OUTER_BOUND ( 'NONE', #681, .T. ) ;
#181 = ORIENTED_EDGE ( 'NONE', *, *, #503, .F. ) ;
#182 = EDGE_LOOP ( 'NONE', ( #632, #703, #510, #207 ) ) ;
#183 = FACE_OUTER_BOUND ( 'NONE', #58, .T. ) ;
#184 = PRODUCT_DEFINITION_FORMATION_WITH_SPECIFIED_SOURCE ( 'ANY', '', #554, .NOT_KNOWN. ) ;
#185 = PLANE ( 'NONE',  #459 ) ;
#186 = AXIS2_PLACEMENT_3D ( 'NONE', #116, #597, #171 ) ;
#187 = EDGE_CURVE ( 'NONE', #95, #248, #568, .T. ) ;
#188 = VERTEX_POINT ( 'NONE', #536 ) ;
#189 = EDGE_CURVE ( 'NONE', #192, #95, #528, .T. ) ;
#190 = DIRECTION ( 'NONE',  ( -1.000000000000000000, 0.000000000000000000, 0.000000000000000000 ) ) ;
#191 = PERSON_AND_ORGANIZATION ( #393, #587 ) ;
#192 = VERTEX_POINT ( 'NONE', #658 ) ;
#193 = CARTESIAN_POINT ( 'NONE',  ( -1.249999999999997335, 0.7216878364870310536, 6.000000000000000000 ) ) ;
#194 = ADVANCED_FACE ( 'NONE', ( #331 ), #540, .T. ) ;
#195 = LOCAL_TIME ( 11, 25, 48.00000000000000000, #314 ) ;
#196 = MECHANICAL_CONTEXT ( 'NONE', #232, 'mechanical' ) ;
#197 = AXIS2_PLACEMENT_3D ( 'NONE', #220, #611, #6 ) ;
#198 = ORIENTED_EDGE ( 'NONE', *, *, #316, .T. ) ;
#199 = LINE ( 'NONE', #471, #217 ) ;
#200 = PERSON_AND_ORGANIZATION ( #393, #587 ) ;
#201 = ORIENTED_EDGE ( 'NONE', *, *, #325, .T. ) ;
#202 = LINE ( 'NONE', #315, #523 ) ;
#203 = DATE_AND_TIME ( #690, #137 ) ;
#204 = CARTESIAN_POINT ( 'NONE',  ( -0.4136428394890712124, -1.204558868246685233, 7.276902742966003146 ) ) ;
#205 = VECTOR ( 'NONE', #124, 1000.000000000000114 ) ;
#206 = DIRECTION ( 'NONE',  ( -0.000000000000000000, -0.000000000000000000, -1.000000000000000000 ) ) ;
#207 = ORIENTED_EDGE ( 'NONE', *, *, #689, .F. ) ;
#208 = CARTESIAN_POINT ( 'NONE',  ( -7.120071990795405478E-17, 1.443375672974061885, 7.388703772240052814 ) ) ;
#209 = CARTESIAN_POINT ( 'NONE',  ( 1.249999999999996669, 0.6050052467938408229, 7.355020409955496774 ) ) ;
#210 = DIRECTION ( 'NONE',  ( 0.8660254037844387076, -0.4999999999999998890, 0.000000000000000000 ) ) ;
#211 = CARTESIAN_POINT ( 'NONE',  ( 1.249999999999996669, 0.4867671293393486254, 7.326959795950371834 ) ) ;
#212 = EDGE_LOOP ( 'NONE', ( #455, #475 ) ) ;
#213 = CARTESIAN_POINT ( 'NONE',  ( 1.249999999999996669, -0.7216878364870292772, 6.000000000000000000 ) ) ;
#214 = DIRECTION ( 'NONE',  ( -0.000000000000000000, -0.000000000000000000, -1.000000000000000000 ) ) ;
#215 = EDGE_CURVE ( 'NONE', #144, #637, #474, .T. ) ;
#216 = PLANE ( 'NONE',  #26 ) ;
#217 = VECTOR ( 'NONE', #361, 1000.000000000000000 ) ;
#218 = CARTESIAN_POINT ( 'NONE',  ( 0.8363571605109265672, -0.9605046412144053747, 7.276902742966002258 ) ) ;
#219 = VECTOR ( 'NONE', #443, 999.9999999999998863 ) ;
#220 = CARTESIAN_POINT ( 'NONE',  ( 0.000000000000000000, -2.602085213965210642E-15, 4.500000000000000000 ) ) ;
#221 = DIRECTION ( 'NONE',  ( -1.000000000000000000, 0.000000000000000000, 0.000000000000000000 ) ) ;
#222 = VERTEX_POINT ( 'NONE', #39 ) ;
#223 = DIRECTION ( 'NONE',  ( -0.000000000000000000, -0.000000000000000000, -1.000000000000000000 ) ) ;
#224 = DIRECTION ( 'NONE',  ( -0.000000000000000000, -0.000000000000000000, -1.000000000000000000 ) ) ;
#225 = ADVANCED_FACE ( 'NONE', ( #430 ), #45, .F. ) ;
#226 = CARTESIAN_POINT ( 'NONE',  ( 1.249999999999996669, 0.7216878364870321638, 6.000000000000000000 ) ) ;
#227 = DIRECTION ( 'NONE',  ( -0.000000000000000000, -0.000000000000000000, -1.000000000000000000 ) ) ;
#228 = CLOSED_SHELL ( 'NONE', ( #544, #628, #194, #294, #594, #389, #670, #473, #520, #131, #14, #136, #22, #514, #419, #447, #457, #225, #622, #234, #142, #270 ) ) ;
#229 = CARTESIAN_POINT ( 'NONE',  ( -2.750000000000000444, -2.602085213965210642E-15, 7.350000000000001421 ) ) ;
#230 = AXIS2_PLACEMENT_3D ( 'NONE', #41, #660, #159 ) ;
#231 = CARTESIAN_POINT ( 'NONE',  ( 0.000000000000000000, -2.602085213965210642E-15, -7.500000000000001776 ) ) ;
#232 = APPLICATION_CONTEXT ( 'configuration controlled 3d designs of mechanical parts and assemblies' ) ;
#233 = DIRECTION ( 'NONE',  ( -1.000000000000000000, 0.000000000000000000, 0.000000000000000000 ) ) ;
#234 = ADVANCED_FACE ( 'NONE', ( #275 ), #487, .F. ) ;
#235 = CARTESIAN_POINT ( 'NONE',  ( -1.500000000000003775, -2.602085213965210642E-15, 4.500000000000003553 ) ) ;
#236 = EDGE_LOOP ( 'NONE', ( #522, #571, #365, #668 ) ) ;
#237 = PRODUCT_DEFINITION ( 'UNKNOWN', '', #184, #242 ) ;
#238 = DIRECTION ( 'NONE',  ( -1.000000000000000000, 0.000000000000000000, 0.000000000000000000 ) ) ;
#239 = ORIENTED_EDGE ( 'NONE', *, *, #57, .F. ) ;
#240 = ORIENTED_EDGE ( 'NONE', *, *, #439, .F. ) ;
#241 = APPROVAL_PERSON_ORGANIZATION ( #317, #175, #638 ) ;
#242 = DESIGN_CONTEXT ( 'detailed design', #452, 'design' ) ;
#243 = APPROVAL_STATUS ( 'not_yet_approved' ) ;
#244 = CIRCLE ( 'NONE', #107, 1.500000000000005107 ) ;
#245 = EDGE_CURVE ( 'NONE', #370, #490, #146, .T. ) ;
#246 = ORIENTED_EDGE ( 'NONE', *, *, #62, .T. ) ;
#247 = APPLICATION_PROTOCOL_DEFINITION ( 'international standard', 'config_control_design', 1994, #232 ) ;
#248 = VERTEX_POINT ( 'NONE', #157 ) ;
#249 = CC_DESIGN_PERSON_AND_ORGANIZATION_ASSIGNMENT ( #629, #251, ( #237 ) ) ;
#250 = CARTESIAN_POINT ( 'NONE',  ( 1.249999999999996669, -0.7216878364870292772, 6.000000000000000000 ) ) ;
#251 = PERSON_AND_ORGANIZATION_ROLE ( 'creator' ) ;
#252 = EDGE_LOOP ( 'NONE', ( #68, #303, #559, #358 ) ) ;
#253 = CARTESIAN_POINT ( 'NONE',  ( -1.199795019843931365E-15, -1.443375672974060997, 7.388703772240051926 ) ) ;
#254 = VECTOR ( 'NONE', #499, 1000.000000000000114 ) ;
#255 = VERTEX_POINT ( 'NONE', #378 ) ;
#256 = CIRCLE ( 'NONE', #552, 2.750000000000000444 ) ;
#257 = CARTESIAN_POINT ( 'NONE',  ( 0.2043544017300746030, 1.325391604125118361, 7.320585638328529043 ) ) ;
#258 = B_SPLINE_CURVE_WITH_KNOTS ( 'NONE', 3,
 ( #46, #51, #282, #9 ),
 .UNSPECIFIED., .F., .F.,
 ( 4, 4 ),
 ( 0.001266401650815391277, 0.001996276118977972393 ),
 .UNSPECIFIED. ) ;
#259 = EDGE_LOOP ( 'NONE', ( #173, #20, #517, #672, #511, #63 ) ) ;
#260 = DIRECTION ( 'NONE',  ( -1.000000000000000000, 0.000000000000000000, 0.000000000000000000 ) ) ;
#261 = EDGE_CURVE ( 'NONE', #297, #348, #596, .T. ) ;
#262 = ORIENTED_EDGE ( 'NONE', *, *, #564, .T. ) ;
#263 = ORIENTED_EDGE ( 'NONE', *, *, #36, .T. ) ;
#264 = DIRECTION ( 'NONE',  ( -1.000000000000000000, 0.000000000000000000, 0.000000000000000000 ) ) ;
#265 = AXIS2_PLACEMENT_3D ( 'NONE', #293, #172, #442 ) ;
#266 = CARTESIAN_POINT ( 'NONE',  ( 0.000000000000000000, -2.602085213965210642E-15, -7.500000000000000888 ) ) ;
#267 = DIRECTION ( 'NONE',  ( -0.4999999999999998890, -0.8660254037844387076, 0.000000000000000000 ) ) ;
#268 = EDGE_LOOP ( 'NONE', ( #580, #651, #680, #602 ) ) ;
#269 = CARTESIAN_POINT ( 'NONE',  ( 1.249999999999996891, 0.1219614842681973482, 7.277058275393788911 ) ) ;
#270 = ADVANCED_FACE ( 'NONE', ( #163 ), #383, .F. ) ;
#271 = CARTESIAN_POINT ( 'NONE',  ( -1.249999999999997335, -0.7216878364870311646, 6.000000000000000000 ) ) ;
#272 = DIRECTION ( 'NONE',  ( -1.000000000000000000, 0.000000000000000000, 0.000000000000000000 ) ) ;
#273 = CARTESIAN_POINT ( 'NONE',  ( -1.249999999999997335, 3.896698600995778182E-13, 7.277058275389673092 ) ) ;
#274 = B_SPLINE_CURVE_WITH_KNOTS ( 'NONE', 3,
 ( #426, #330, #542, #44, #167, #273 ),
 .UNSPECIFIED., .F., .F.,
 ( 4, 2, 4 ),
 ( 0.003906549111595410476, 0.004271998222116542981, 0.004637447332637674620 ),
 .UNSPECIFIED. ) ;
#275 = FACE_OUTER_BOUND ( 'NONE', #299, .T. ) ;
#276 = DIRECTION ( 'NONE',  ( -1.000000000000000000, 0.000000000000000000, 0.000000000000000000 ) ) ;
#277 = FACE_OUTER_BOUND ( 'NONE', #259, .T. ) ;
#278 = CIRCLE ( 'NONE', #164, 0.1500000000000008271 ) ;
#279 = AXIS2_PLACEMENT_3D ( 'NONE', #456, #122, #671 ) ;
#280 = ORIENTED_EDGE ( 'NONE', *, *, #570, .F. ) ;
#281 = CIRCLE ( 'NONE', #292, 2.600000000000000089 ) ;
#282 = CARTESIAN_POINT ( 'NONE',  ( 1.249999999999996669, -0.2437931163921087663, 7.277058275393676112 ) ) ;
#283 = EDGE_CURVE ( 'NONE', #420, #370, #108, .T. ) ;
#284 = CARTESIAN_POINT ( 'NONE',  ( -1.249999999999997335, -0.2437931163921094602, 7.277058275393677000 ) ) ;
#285 = B_SPLINE_CURVE_WITH_KNOTS ( 'NONE', 3,
 ( #431, #284, #535, #154 ),
 .UNSPECIFIED., .F., .F.,
 ( 4, 4 ),
 ( 0.004637447332637674620, 0.005367956460761177592 ),
 .UNSPECIFIED. ) ;
#286 = DIRECTION ( 'NONE',  ( 0.000000000000000000, -1.000000000000000000, 0.000000000000000000 ) ) ;
#287 = CARTESIAN_POINT ( 'NONE',  ( -1.500000000000004441, -2.602085213965210642E-15, -7.500000000000000888 ) ) ;
#288 = VERTEX_POINT ( 'NONE', #558 ) ;
#289 = LINE ( 'NONE', #226, #89 ) ;
#290 = DIRECTION ( 'NONE',  ( 0.000000000000000000, 1.000000000000000000, 0.000000000000000000 ) ) ;
#291 = AXIS2_PLACEMENT_3D ( 'NONE', #231, #224, #664 ) ;
#292 = AXIS2_PLACEMENT_3D ( 'NONE', #373, #206, #601 ) ;
#293 = CARTESIAN_POINT ( 'NONE',  ( -1.156492327174005754E-15, -1.443375672974060997, 6.000000000000000000 ) ) ;
#294 = ADVANCED_FACE ( 'NONE', ( #653 ), #49, .T. ) ;
#295 = ORIENTED_EDGE ( 'NONE', *, *, #648, .F. ) ;
#296 = CARTESIAN_POINT ( 'NONE',  ( -2.750000000000000888, -2.602085213965210642E-15, -7.500000000000000888 ) ) ;
#297 = VERTEX_POINT ( 'NONE', #111 ) ;
#298 = EDGE_CURVE ( 'NONE', #409, #666, #256, .T. ) ;
#299 = EDGE_LOOP ( 'NONE', ( #623, #94, #178, #82, #616 ) ) ;
#300 = ORIENTED_EDGE ( 'NONE', *, *, #245, .F. ) ;
#301 = PERSON_AND_ORGANIZATION_ROLE ( 'design_owner' ) ;
#302 = CC_DESIGN_DATE_AND_TIME_ASSIGNMENT ( #411, #476, ( #368 ) ) ;
#303 = ORIENTED_EDGE ( 'NONE', *, *, #500, .T. ) ;
#304 = FACE_OUTER_BOUND ( 'NONE', #362, .T. ) ;
#305 = ORIENTED_EDGE ( 'NONE', *, *, #189, .T. ) ;
#306 = SHAPE_DEFINITION_REPRESENTATION ( #28, #78 ) ;
#307 = FACE_OUTER_BOUND ( 'NONE', #458, .T. ) ;
#308 = B_SPLINE_CURVE_WITH_KNOTS ( 'NONE', 3,
 ( #97, #35, #581, #204, #586, #253 ),
 .UNSPECIFIED., .F., .F.,
 ( 4, 2, 4 ),
 ( 2.380763768059688243E-07, 0.0007291065797294562622, 0.001457975083082106542 ),
 .UNSPECIFIED. ) ;
#309 = APPROVAL_DATE_TIME ( #80, #175 ) ;
#310 = DIRECTION ( 'NONE',  ( -0.000000000000000000, -0.000000000000000000, -1.000000000000000000 ) ) ;
#311 = AXIS2_PLACEMENT_3D ( 'NONE', #375, #33, #469 ) ;
#312 = CONICAL_SURFACE ( 'NONE', #74, 1.636146394145051586, 1.047197551196600074 ) ;
#313 = AXIS2_PLACEMENT_3D ( 'NONE', #153, #695, #323 ) ;
#314 = COORDINATED_UNIVERSAL_TIME_OFFSET ( 6, 0, .BEHIND. ) ;
#315 = CARTESIAN_POINT ( 'NONE',  ( -1.249999999999997335, -0.7216878364870311646, 6.000000000000000000 ) ) ;
#316 = EDGE_CURVE ( 'NONE', #222, #144, #165, .T. ) ;
#317 = PERSON_AND_ORGANIZATION ( #393, #587 ) ;
#318 = ORIENTED_EDGE ( 'NONE', *, *, #397, .F. ) ;
#319 = LINE ( 'NONE', #250, #416 ) ;
#320 = EDGE_CURVE ( 'NONE', #55, #32, #152, .T. ) ;
#321 = EDGE_LOOP ( 'NONE', ( #579, #262, #343, #70 ) ) ;
#322 = CARTESIAN_POINT ( 'NONE',  ( 1.249999999999996669, 0.2455944017520936273, 7.287814925921682452 ) ) ;
#323 = DIRECTION ( 'NONE',  ( 1.000000000000000000, 0.000000000000000000, 0.000000000000000000 ) ) ;
#324 = CC_DESIGN_APPROVAL ( #591, ( #184 ) ) ;
#325 = EDGE_CURVE ( 'NONE', #297, #192, #289, .T. ) ;
#326 = CARTESIAN_POINT ( 'NONE',  ( 0.000000000000000000, 0.000000000000000000, 6.000000000000000000 ) ) ;
#327 = CIRCLE ( 'NONE', #588, 1.000000000000003997 ) ;
#328 = DIRECTION ( 'NONE',  ( -0.000000000000000000, -0.000000000000000000, -1.000000000000000000 ) ) ;
#329 = CARTESIAN_POINT ( 'NONE',  ( -1.249999999999997335, 0.7216878364870310536, 6.000000000000000000 ) ) ;
#330 = CARTESIAN_POINT ( 'NONE',  ( -1.249999999999997335, 0.6050052467938396017, 7.355020409955496774 ) ) ;
#331 = FACE_OUTER_BOUND ( 'NONE', #71, .T. ) ;
#332 = DIRECTION ( 'NONE',  ( -0.000000000000000000, -0.000000000000000000, -1.000000000000000000 ) ) ;
#333 = FACE_OUTER_BOUND ( 'NONE', #5, .T. ) ;
#334 = CARTESIAN_POINT ( 'NONE',  ( 1.636146394145051586, 0.000000000000000000, 7.500000000000001776 ) ) ;
#335 = CARTESIAN_POINT ( 'NONE',  ( 1.249999999999996669, -0.7216878364870292772, 6.000000000000000000 ) ) ;
#336 = EDGE_LOOP ( 'NONE', ( #509, #603, #15, #657 ) ) ;
#337 = CIRCLE ( 'NONE', #405, 1.500000000000003775 ) ;
#338 = CARTESIAN_POINT ( 'NONE',  ( 7.229015468850090081E-17, 1.443375672974062107, 6.000000000000000000 ) ) ;
#339 = CC_DESIGN_PERSON_AND_ORGANIZATION_ASSIGNMENT ( #200, #589, ( #368 ) ) ;
#340 = CARTESIAN_POINT ( 'NONE',  ( -1.249999999999997335, -0.7216878364870311646, 6.000000000000000000 ) ) ;
#341 = CARTESIAN_POINT ( 'NONE',  ( 0.000000000000000000, -2.602085213965210642E-15, 4.650000000000001243 ) ) ;
#342 = DIRECTION ( 'NONE',  ( -0.000000000000000000, -0.000000000000000000, -1.000000000000000000 ) ) ;
#343 = ORIENTED_EDGE ( 'NONE', *, *, #356, .T. ) ;
#344 = EDGE_LOOP ( 'NONE', ( #534, #388 ) ) ;
#345 = PLANE ( 'NONE',  #265 ) ;
#346 = EDGE_CURVE ( 'NONE', #490, #222, #258, .T. ) ;
#347 = CIRCLE ( 'NONE', #174, 1.500000000000005107 ) ;
#348 = VERTEX_POINT ( 'NONE', #379 ) ;
#349 = TOROIDAL_SURFACE ( 'NONE', #563, 2.600000000000000089, 0.1500000000000006051 ) ;
#350 = LINE ( 'NONE', #643, #620 ) ;
#351 = CONICAL_SURFACE ( 'NONE', #186, 1.636146394145051586, 1.047197551196600074 ) ;
#352 = DIRECTION ( 'NONE',  ( -1.224646799147353207E-16, 1.000000000000000000, 0.000000000000000000 ) ) ;
#353 = EDGE_CURVE ( 'NONE', #348, #392, #488, .T. ) ;
#354 = ORIENTED_EDGE ( 'NONE', *, *, #408, .T. ) ;
#355 = ORIENTED_EDGE ( 'NONE', *, *, #85, .F. ) ;
#356 = EDGE_CURVE ( 'NONE', #524, #188, #244, .T. ) ;
#357 = APPROVAL_DATE_TIME ( #417, #113 ) ;
#358 = ORIENTED_EDGE ( 'NONE', *, *, #639, .F. ) ;
#359 = VECTOR ( 'NONE', #650, 1000.000000000000114 ) ;
#360 = APPROVAL_STATUS ( 'not_yet_approved' ) ;
#361 = DIRECTION ( 'NONE',  ( -0.000000000000000000, -0.000000000000000000, 1.000000000000000000 ) ) ;
#362 = EDGE_LOOP ( 'NONE', ( #295, #532, #382, #83 ) ) ;
#363 = DIRECTION ( 'NONE',  ( 0.7071067811865479058, 0.000000000000000000, 0.7071067811865470176 ) ) ;
#364 = EDGE_CURVE ( 'NONE', #55, #409, #278, .T. ) ;
#365 = ORIENTED_EDGE ( 'NONE', *, *, #283, .F. ) ;
#366 = CARTESIAN_POINT ( 'NONE',  ( -1.249999999999997335, 0.7216878364870309426, 7.388703772240051926 ) ) ;
#367 = AXIS2_PLACEMENT_3D ( 'NONE', #326, #656, #539 ) ;
#368 = SECURITY_CLASSIFICATION ( '', '', #630 ) ;
#369 = AXIS2_PLACEMENT_3D ( 'NONE', #385, #642, #606 ) ;
#370 = VERTEX_POINT ( 'NONE', #663 ) ;
#371 = CARTESIAN_POINT ( 'NONE',  ( 0.000000000000000000, -2.602085213965210642E-15, 4.650000000000000355 ) ) ;
#372 = EDGE_CURVE ( 'NONE', #625, #255, #494, .T. ) ;
#373 = CARTESIAN_POINT ( 'NONE',  ( 0.000000000000000000, -2.602085213965210642E-15, 7.500000000000002665 ) ) ;
#374 = VERTEX_POINT ( 'NONE', #506 ) ;
#375 = CARTESIAN_POINT ( 'NONE',  ( 0.000000000000000000, -2.602085213965210642E-15, 4.500000000000003553 ) ) ;
#376 = EDGE_CURVE ( 'NONE', #617, #132, #337, .T. ) ;
#377 = DIRECTION ( 'NONE',  ( 0.000000000000000000, -1.000000000000000000, 0.000000000000000000 ) ) ;
#378 = CARTESIAN_POINT ( 'NONE',  ( 2.600000000000000533, -2.274492195193293410E-15, 4.500000000000000000 ) ) ;
#379 = CARTESIAN_POINT ( 'NONE',  ( 7.229015468850090081E-17, 1.443375672974062107, 6.000000000000000000 ) ) ;
#380 = DIRECTION ( 'NONE',  ( -1.000000000000000000, 0.000000000000000000, 0.000000000000000000 ) ) ;
#381 = VECTOR ( 'NONE', #155, 1000.000000000000000 ) ;
#382 = ORIENTED_EDGE ( 'NONE', *, *, #364, .T. ) ;
#383 = PLANE ( 'NONE',  #53 ) ;
#384 = DIRECTION ( 'NONE',  ( -0.000000000000000000, -0.000000000000000000, 1.000000000000000000 ) ) ;
#385 = CARTESIAN_POINT ( 'NONE',  ( 0.000000000000000000, 2.599999999999997424, 7.500000000000001776 ) ) ;
#386 = DIRECTION ( 'NONE',  ( -0.000000000000000000, -0.000000000000000000, 1.000000000000000000 ) ) ;
#387 = PLANE ( 'NONE',  #369 ) ;
#388 = ORIENTED_EDGE ( 'NONE', *, *, #7, .T. ) ;
#389 = ADVANCED_FACE ( 'NONE', ( #438 ), #641, .T. ) ;
#390 = CARTESIAN_POINT ( 'NONE',  ( -1.156492327174005754E-15, -1.443375672974060997, 6.000000000000000000 ) ) ;
#391 = DIRECTION ( 'NONE',  ( -0.000000000000000000, -0.000000000000000000, -1.000000000000000000 ) ) ;
#392 = VERTEX_POINT ( 'NONE', #329 ) ;
#393 = PERSON ( 'UNSPECIFIED', 'UNSPECIFIED', 'UNSPECIFIED', ('UNSPECIFIED'), ('UNSPECIFIED'), ('UNSPECIFIED') ) ;
#394 = CARTESIAN_POINT ( 'NONE',  ( 0.000000000000000000, -2.602085213965210642E-15, -7.500000000000001776 ) ) ;
#395 = CARTESIAN_POINT ( 'NONE',  ( 0.000000000000000000, -2.602085213965210642E-15, -7.500000000000000888 ) ) ;
#396 = CARTESIAN_POINT ( 'NONE',  ( 0.000000000000000000, -2.602085213965210642E-15, 7.350000000000000533 ) ) ;
#397 = EDGE_CURVE ( 'NONE', #348, #95, #120, .T. ) ;
#398 = DIRECTION ( 'NONE',  ( -0.000000000000000000, 0.000000000000000000, -1.000000000000000000 ) ) ;
#399 = ORIENTED_EDGE ( 'NONE', *, *, #478, .F. ) ;
#400 = ORIENTED_EDGE ( 'NONE', *, *, #215, .T. ) ;
#401 = DIRECTION ( 'NONE',  ( -1.000000000000000000, 0.000000000000000000, 0.000000000000000000 ) ) ;
#402 = AXIS2_PLACEMENT_3D ( 'NONE', #271, #267, #210 ) ;
#403 = AXIS2_PLACEMENT_3D ( 'NONE', #135, #77, #233 ) ;
#404 = ORIENTED_EDGE ( 'NONE', *, *, #151, .F. ) ;
#405 = AXIS2_PLACEMENT_3D ( 'NONE', #176, #223, #272 ) ;
#406 = LINE ( 'NONE', #502, #205 ) ;
#407 = ORIENTED_EDGE ( 'NONE', *, *, #298, .F. ) ;
#408 = EDGE_CURVE ( 'NONE', #666, #23, #661, .T. ) ;
#409 = VERTEX_POINT ( 'NONE', #229 ) ;
#410 = APPLICATION_PROTOCOL_DEFINITION ( 'international standard', 'config_control_design', 1994, #452 ) ;
#411 = DATE_AND_TIME ( #583, #195 ) ;
#412 = ORIENTED_EDGE ( 'NONE', *, *, #245, .T. ) ;
#413 = CALENDAR_DATE ( 2026, 5, 2 ) ;
#414 = ORIENTED_EDGE ( 'NONE', *, *, #346, .F. ) ;
#415 = DIRECTION ( 'NONE',  ( -1.000000000000000000, 0.000000000000000000, 0.000000000000000000 ) ) ;
#416 = VECTOR ( 'NONE', #530, 1000.000000000000000 ) ;
#417 = DATE_AND_TIME ( #413, #38 ) ;
#418 = CARTESIAN_POINT ( 'NONE',  ( -1.045645598269922871, 0.8396719053359749108, 7.320585638328529043 ) ) ;
#419 = ADVANCED_FACE ( 'NONE', ( #608 ), #351, .F. ) ;
#420 = VERTEX_POINT ( 'NONE', #390 ) ;
#421 = ORIENTED_EDGE ( 'NONE', *, *, #62, .F. ) ;
#422 = LINE ( 'NONE', #193, #381 ) ;
#423 = COORDINATED_UNIVERSAL_TIME_OFFSET ( 6, 0, .BEHIND. ) ;
#424 = EDGE_CURVE ( 'NONE', #222, #192, #505, .T. ) ;
#425 = FACE_OUTER_BOUND ( 'NONE', #252, .T. ) ;
#426 = CARTESIAN_POINT ( 'NONE',  ( -1.249999999999997335, 0.7216878364870309426, 7.388703772240051926 ) ) ;
#427 = CC_DESIGN_DATE_AND_TIME_ASSIGNMENT ( #573, #75, ( #237 ) ) ;
#428 = CARTESIAN_POINT ( 'NONE',  ( -0.4112597317657571971, 1.205934756132248653, 7.277214682191648798 ) ) ;
#429 = DIRECTION ( 'NONE',  ( -0.000000000000000000, 0.000000000000000000, 1.000000000000000000 ) ) ;
#430 = FACE_OUTER_BOUND ( 'NONE', #236, .T. ) ;
#431 = CARTESIAN_POINT ( 'NONE',  ( -1.249999999999997335, 3.896698600995778182E-13, 7.277058275389673092 ) ) ;
#432 = CARTESIAN_POINT ( 'NONE',  ( 1.249999999999996669, 0.7216878364870321638, 6.000000000000000000 ) ) ;
#433 = DIRECTION ( 'NONE',  ( -1.000000000000000000, 0.000000000000000000, 0.000000000000000000 ) ) ;
#434 = AXIS2_PLACEMENT_3D ( 'NONE', #102, #310, #415 ) ;
#435 = FACE_BOUND ( 'NONE', #64, .T. ) ;
#436 = CIRCLE ( 'NONE', #311, 1.500000000000003775 ) ;
#437 = CARTESIAN_POINT ( 'NONE',  ( 1.045645598269922205, -0.8396719053359731344, 7.320585638328526379 ) ) ;
#438 = FACE_OUTER_BOUND ( 'NONE', #321, .T. ) ;
#439 = EDGE_CURVE ( 'NONE', #288, #374, #285, .T. ) ;
#440 = CARTESIAN_POINT ( 'NONE',  ( -1.000000000000003997, -2.449004364071790918E-15, -7.500000000000001776 ) ) ;
#441 = CARTESIAN_POINT ( 'NONE',  ( 7.229015468850090081E-17, 1.443375672974062107, 6.000000000000000000 ) ) ;
#442 = DIRECTION ( 'NONE',  ( 0.8660254037844383745, 0.5000000000000004441, 0.000000000000000000 ) ) ;
#443 = DIRECTION ( 'NONE',  ( -0.8660254037844385966, -0.5000000000000002220, 0.000000000000000000 ) ) ;
#444 = CARTESIAN_POINT ( 'NONE',  ( -2.750000000000000888, -2.602085213965210642E-15, 4.650000000000000355 ) ) ;
#445 =( GEOMETRIC_REPRESENTATION_CONTEXT ( 3 ) GLOBAL_UNCERTAINTY_ASSIGNED_CONTEXT ( ( #47 ) ) GLOBAL_UNIT_ASSIGNED_CONTEXT ( ( #561, #61, #626 ) ) REPRESENTATION_CONTEXT ( 'NONE', 'WORKASPACE' ) );
#446 = AXIS2_PLACEMENT_3D ( 'NONE', #213, #704, #485 ) ;
#447 = ADVANCED_FACE ( 'NONE', ( #277 ), #486, .T. ) ;
#448 = LINE ( 'NONE', #179, #92 ) ;
#449 = CARTESIAN_POINT ( 'NONE',  ( 2.600000000000000533, -2.283677046186898625E-15, 4.650000000000001243 ) ) ;
#450 = VERTEX_POINT ( 'NONE', #335 ) ;
#451 = DIRECTION ( 'NONE',  ( -0.000000000000000000, -0.000000000000000000, 1.000000000000000000 ) ) ;
#452 = APPLICATION_CONTEXT ( 'configuration controlled 3d designs of mechanical parts and assemblies' ) ;
#453 = ORIENTED_EDGE ( 'NONE', *, *, #639, .T. ) ;
#454 = CARTESIAN_POINT ( 'NONE',  ( -1.636146394145051586, 2.003701444526221268E-16, 7.500000000000001776 ) ) ;
#455 = ORIENTED_EDGE ( 'NONE', *, *, #320, .F. ) ;
#456 = CARTESIAN_POINT ( 'NONE',  ( 2.600000000000000089, -2.283677046186899020E-15, 7.350000000000000533 ) ) ;
#457 = ADVANCED_FACE ( 'NONE', ( #649 ), #216, .F. ) ;
#458 = EDGE_LOOP ( 'NONE', ( #201, #305, #318, #160 ) ) ;
#459 = AXIS2_PLACEMENT_3D ( 'NONE', #621, #398, #624 ) ;
#460 = EDGE_LOOP ( 'NONE', ( #87, #246, #665, #280 ) ) ;
#461 = ORIENTED_EDGE ( 'NONE', *, *, #283, .T. ) ;
#462 = CALENDAR_DATE ( 2026, 5, 2 ) ;
#463 = CC_DESIGN_PERSON_AND_ORGANIZATION_ASSIGNMENT ( #134, #516, ( #184 ) ) ;
#464 = ORIENTED_EDGE ( 'NONE', *, *, #478, .T. ) ;
#465 = EDGE_LOOP ( 'NONE', ( #694, #73, #86, #404, #468 ) ) ;
#466 = APPROVAL_ROLE ( '' ) ;
#467 = PERSON_AND_ORGANIZATION ( #393, #587 ) ;
#468 = ORIENTED_EDGE ( 'NONE', *, *, #121, .F. ) ;
#469 = DIRECTION ( 'NONE',  ( -1.000000000000000000, 0.000000000000000000, 0.000000000000000000 ) ) ;
#470 = CARTESIAN_POINT ( 'NONE',  ( 0.000000000000000000, 0.000000000000000000, 0.000000000000000000 ) ) ;
#471 = CARTESIAN_POINT ( 'NONE',  ( -1.249999999999997335, -0.7216878364870311646, 6.000000000000000000 ) ) ;
#472 = AXIS2_PLACEMENT_3D ( 'NONE', #449, #352, #66 ) ;
#473 = ADVANCED_FACE ( 'NONE', ( #496 ), #13, .T. ) ;
#474 = CIRCLE ( 'NONE', #3, 1.636146394145051586 ) ;
#475 = ORIENTED_EDGE ( 'NONE', *, *, #481, .F. ) ;
#476 = DATE_TIME_ROLE ( 'classification_date' ) ;
#477 = PLANE ( 'NONE',  #139 ) ;
#478 = EDGE_CURVE ( 'NONE', #16, #504, #327, .T. ) ;
#479 = COORDINATED_UNIVERSAL_TIME_OFFSET ( 6, 0, .BEHIND. ) ;
#480 = CARTESIAN_POINT ( 'NONE',  ( 1.636146394145051586, 0.000000000000000000, 7.500000000000001776 ) ) ;
#481 = EDGE_CURVE ( 'NONE', #32, #55, #281, .T. ) ;
#482 = PLANE ( 'NONE',  #128 ) ;
#483 = AXIS2_PLACEMENT_3D ( 'NONE', #115, #377, #103 ) ;
#484 = DIRECTION ( 'NONE',  ( -0.000000000000000000, -0.000000000000000000, -1.000000000000000000 ) ) ;
#485 = DIRECTION ( 'NONE',  ( 0.000000000000000000, 0.000000000000000000, -1.000000000000000000 ) ) ;
#486 = PLANE ( 'NONE',  #367 ) ;
#487 = PLANE ( 'NONE',  #446 ) ;
#488 = LINE ( 'NONE', #541, #219 ) ;
#489 = CARTESIAN_POINT ( 'NONE',  ( 1.249999999999996669, 3.895167804010575298E-13, 7.277058275389673092 ) ) ;
#490 = VERTEX_POINT ( 'NONE', #551 ) ;
#491 = CARTESIAN_POINT ( 'NONE',  ( -1.199795019843931365E-15, -1.443375672974060997, 7.388703772240051926 ) ) ;
#492 = DIRECTION ( 'NONE',  ( -1.000000000000000000, 0.000000000000000000, 0.000000000000000000 ) ) ;
#493 = CC_DESIGN_PERSON_AND_ORGANIZATION_ASSIGNMENT ( #191, #301, ( #554 ) ) ;
#494 = CIRCLE ( 'NONE', #197, 2.600000000000000533 ) ;
#495 = CIRCLE ( 'NONE', #472, 0.1500000000000003830 ) ;
#496 = FACE_OUTER_BOUND ( 'NONE', #143, .T. ) ;
#497 = ORIENTED_EDGE ( 'NONE', *, *, #166, .F. ) ;
#498 = CARTESIAN_POINT ( 'NONE',  ( 0.000000000000000000, -2.602085213965210642E-15, -7.000000000000000888 ) ) ;
#499 = DIRECTION ( 'NONE',  ( -0.7071067811865479058, 8.659560562354937789E-17, 0.7071067811865470176 ) ) ;
#500 = EDGE_CURVE ( 'NONE', #666, #409, #655, .T. ) ;
#501 = DIRECTION ( 'NONE',  ( -0.000000000000000000, -0.000000000000000000, -1.000000000000000000 ) ) ;
#502 = CARTESIAN_POINT ( 'NONE',  ( -1.636146394145051586, 2.003701444526221268E-16, 7.500000000000001776 ) ) ;
#503 = EDGE_CURVE ( 'NONE', #248, #288, #274, .T. ) ;
#504 = VERTEX_POINT ( 'NONE', #440 ) ;
#505 = B_SPLINE_CURVE_WITH_KNOTS ( 'NONE', 3,
 ( #489, #269, #322, #211, #209, #699 ),
 .UNSPECIFIED., .F., .F.,
 ( 4, 2, 4 ),
 ( 0.001996276118977972393, 0.002361407730498378196, 0.002726539342018783566 ),
 .UNSPECIFIED. ) ;
#506 = CARTESIAN_POINT ( 'NONE',  ( -1.249999999999997335, -0.7216878364870311646, 7.388703772240052814 ) ) ;
#507 = FACE_OUTER_BOUND ( 'NONE', #182, .T. ) ;
#508 = CC_DESIGN_APPROVAL ( #113, ( #237 ) ) ;
#509 = ORIENTED_EDGE ( 'NONE', *, *, #397, .T. ) ;
#510 = ORIENTED_EDGE ( 'NONE', *, *, #356, .F. ) ;
#511 = ORIENTED_EDGE ( 'NONE', *, *, #679, .T. ) ;
#512 = CARTESIAN_POINT ( 'NONE',  ( -2.600000000000000533, -2.602085213965210642E-15, 4.500000000000000000 ) ) ;
#513 = DIRECTION ( 'NONE',  ( -0.000000000000000000, -0.000000000000000000, -1.000000000000000000 ) ) ;
#514 = ADVANCED_FACE ( 'NONE', ( #435, #156 ), #387, .T. ) ;
#515 = ORIENTED_EDGE ( 'NONE', *, *, #187, .F. ) ;
#516 = PERSON_AND_ORGANIZATION_ROLE ( 'creator' ) ;
#517 = ORIENTED_EDGE ( 'NONE', *, *, #100, .T. ) ;
#518 = DIRECTION ( 'NONE',  ( -0.000000000000000000, -0.000000000000000000, -1.000000000000000000 ) ) ;
#519 = ORIENTED_EDGE ( 'NONE', *, *, #697, .T. ) ;
#520 = ADVANCED_FACE ( 'NONE', ( #645 ), #101, .T. ) ;
#521 = CARTESIAN_POINT ( 'NONE',  ( 0.000000000000000000, 1.500000000000001110, 4.500000000000002665 ) ) ;
#522 = ORIENTED_EDGE ( 'NONE', *, *, #151, .T. ) ;
#523 = VECTOR ( 'NONE', #81, 1000.000000000000114 ) ;
#524 = VERTEX_POINT ( 'NONE', #595 ) ;
#525 = CARTESIAN_POINT ( 'NONE',  ( 0.8387402682342401938, 0.9591287533288448408, 7.277214682191648798 ) ) ;
#526 = CC_DESIGN_APPROVAL ( #175, ( #368 ) ) ;
#527 = VECTOR ( 'NONE', #548, 1000.000000000000114 ) ;
#528 = B_SPLINE_CURVE_WITH_KNOTS ( 'NONE', 3,
 ( #635, #145, #525, #30, #257, #646 ),
 .UNSPECIFIED., .F., .F.,
 ( 4, 2, 4 ),
 ( 2.380763768061547216E-07, 0.0007291065797294565875, 0.001457975083082106976 ),
 .UNSPECIFIED. ) ;
#529 = EDGE_LOOP ( 'NONE', ( #461, #412, #105, #355 ) ) ;
#530 = DIRECTION ( 'NONE',  ( -0.000000000000000000, -0.000000000000000000, 1.000000000000000000 ) ) ;
#531 = EDGE_CURVE ( 'NONE', #132, #188, #54, .T. ) ;
#532 = ORIENTED_EDGE ( 'NONE', *, *, #481, .T. ) ;
#533 = CARTESIAN_POINT ( 'NONE',  ( -2.600000000000000089, -2.602085213965210642E-15, 7.500000000000002665 ) ) ;
#534 = ORIENTED_EDGE ( 'NONE', *, *, #372, .T. ) ;
#535 = CARTESIAN_POINT ( 'NONE',  ( -1.249999999999997335, -0.4870599541435878810, 7.320972536724856816 ) ) ;
#536 = CARTESIAN_POINT ( 'NONE',  ( 1.500000000000005107, -2.602085213965210642E-15, -7.000000000000000888 ) ) ;
#537 = CIRCLE ( 'NONE', #483, 0.1500000000000008271 ) ;
#538 = VECTOR ( 'NONE', #688, 1000.000000000000227 ) ;
#539 = DIRECTION ( 'NONE',  ( 1.000000000000000000, 0.000000000000000000, -0.000000000000000000 ) ) ;
#540 = CYLINDRICAL_SURFACE ( 'NONE', #705, 2.750000000000000888 ) ;
#541 = CARTESIAN_POINT ( 'NONE',  ( 7.229015468850090081E-17, 1.443375672974062107, 6.000000000000000000 ) ) ;
#542 = CARTESIAN_POINT ( 'NONE',  ( -1.249999999999997558, 0.4867671293393469045, 7.326959795950371834 ) ) ;
#543 = ORIENTED_EDGE ( 'NONE', *, *, #189, .F. ) ;
#544 = ADVANCED_FACE ( 'NONE', ( #333 ), #312, .F. ) ;
#545 = DIRECTION ( 'NONE',  ( 0.000000000000000000, 0.000000000000000000, 1.000000000000000000 ) ) ;
#546 = DIRECTION ( 'NONE',  ( -0.000000000000000000, -0.000000000000000000, -1.000000000000000000 ) ) ;
#547 = DIRECTION ( 'NONE',  ( -0.000000000000000000, -0.000000000000000000, 1.000000000000000000 ) ) ;
#548 = DIRECTION ( 'NONE',  ( 0.8660254037844397068, 0.000000000000000000, 0.4999999999999979461 ) ) ;
#549 = EDGE_CURVE ( 'NONE', #585, #625, #537, .T. ) ;
#550 = AXIS2_PLACEMENT_3D ( 'NONE', #118, #612, #238 ) ;
#551 = CARTESIAN_POINT ( 'NONE',  ( 1.249999999999996669, -0.7216878364870291662, 7.388703772240051926 ) ) ;
#552 = AXIS2_PLACEMENT_3D ( 'NONE', #158, #214, #433 ) ;
#553 = DIRECTION ( 'NONE',  ( 0.000000000000000000, 0.000000000000000000, -1.000000000000000000 ) ) ;
#554 = PRODUCT ( '91292A114_NO THREADS_18-8 Stainless Steel Socket Head Screw', '91292A114_NO THREADS_18-8 Stainless Steel Socket Head Screw', '', ( #196 ) ) ;
#555 = CC_DESIGN_PERSON_AND_ORGANIZATION_ASSIGNMENT ( #467, #682, ( #184 ) ) ;
#556 = DIRECTION ( 'NONE',  ( -0.000000000000000000, -0.000000000000000000, -1.000000000000000000 ) ) ;
#557 = EDGE_LOOP ( 'NONE', ( #607, #181, #515, #543, #633, #198, #400 ) ) ;
#558 = CARTESIAN_POINT ( 'NONE',  ( -1.249999999999997335, 3.896698600995778182E-13, 7.277058275389673092 ) ) ;
#559 = ORIENTED_EDGE ( 'NONE', *, *, #577, .T. ) ;
#560 = CARTESIAN_POINT ( 'NONE',  ( 0.000000000000000000, -2.602085213965210642E-15, 4.500000000000000000 ) ) ;
#561 =( LENGTH_UNIT ( ) NAMED_UNIT ( * ) SI_UNIT ( .MILLI., .METRE. ) );
#562 = CIRCLE ( 'NONE', #279, 0.1500000000000008271 ) ;
#563 = AXIS2_PLACEMENT_3D ( 'NONE', #396, #518, #24 ) ;
#564 = EDGE_CURVE ( 'NONE', #504, #524, #17, .T. ) ;
#565 = CIRCLE ( 'NONE', #584, 2.750000000000000888 ) ;
#566 = EDGE_LOOP ( 'NONE', ( #123, #421 ) ) ;
#567 = ORIENTED_EDGE ( 'NONE', *, *, #7, .F. ) ;
#568 = B_SPLINE_CURVE_WITH_KNOTS ( 'NONE', 3,
 ( #208, #691, #428, #593, #418, #366 ),
 .UNSPECIFIED., .F., .F.,
 ( 4, 2, 4 ),
 ( 2.380763768062920468E-07, 0.0007291065797294573464, 0.001457975083082108277 ),
 .UNSPECIFIED. ) ;
#569 = CARTESIAN_POINT ( 'NONE',  ( 0.000000000000000000, -2.602085213965210642E-15, -7.000000000000000888 ) ) ;
#570 = EDGE_CURVE ( 'NONE', #188, #524, #347, .T. ) ;
#571 = ORIENTED_EDGE ( 'NONE', *, *, #57, .T. ) ;
#572 = ORIENTED_EDGE ( 'NONE', *, *, #364, .F. ) ;
#573 = DATE_AND_TIME ( #462, #631 ) ;
#574 = AXIS2_PLACEMENT_3D ( 'NONE', #395, #127, #401 ) ;
#575 = ORIENTED_EDGE ( 'NONE', *, *, #600, .T. ) ;
#576 = DIRECTION ( 'NONE',  ( 1.000000000000000000, 0.000000000000000000, 0.000000000000000000 ) ) ;
#577 = EDGE_CURVE ( 'NONE', #409, #585, #8, .T. ) ;
#578 = CARTESIAN_POINT ( 'NONE',  ( -1.156492327174005754E-15, -1.443375672974060997, 6.000000000000000000 ) ) ;
#579 = ORIENTED_EDGE ( 'NONE', *, *, #600, .F. ) ;
#580 = ORIENTED_EDGE ( 'NONE', *, *, #117, .T. ) ;
#581 = CARTESIAN_POINT ( 'NONE',  ( -0.8387402682342411930, -0.9591287533288438416, 7.277214682191648798 ) ) ;
#582 = ORIENTED_EDGE ( 'NONE', *, *, #316, .F. ) ;
#583 = CALENDAR_DATE ( 2026, 5, 2 ) ;
#584 = AXIS2_PLACEMENT_3D ( 'NONE', #371, #640, #260 ) ;
#585 = VERTEX_POINT ( 'NONE', #444 ) ;
#586 = CARTESIAN_POINT ( 'NONE',  ( -0.2043544017300757687, -1.325391604125117473, 7.320585638328529043 ) ) ;
#587 = ORGANIZATION ( 'UNSPECIFIED', 'UNSPECIFIED', '' ) ;
#588 = AXIS2_PLACEMENT_3D ( 'NONE', #692, #592, #380 ) ;
#589 = PERSON_AND_ORGANIZATION_ROLE ( 'classification_officer' ) ;
#590 = FACE_BOUND ( 'NONE', #566, .T. ) ;
#591 = APPROVAL ( #243, 'UNSPECIFIED' ) ;
#592 = DIRECTION ( 'NONE',  ( -0.000000000000000000, -0.000000000000000000, -1.000000000000000000 ) ) ;
#593 = CARTESIAN_POINT ( 'NONE',  ( -0.8363571605109273444, 0.9605046412144070400, 7.276902742966003146 ) ) ;
#594 = ADVANCED_FACE ( 'NONE', ( #507 ), #130, .T. ) ;
#595 = CARTESIAN_POINT ( 'NONE',  ( -1.500000000000005107, -2.418388194093106736E-15, -7.000000000000000888 ) ) ;
#596 = LINE ( 'NONE', #432, #359 ) ;
#597 = DIRECTION ( 'NONE',  ( -0.000000000000000000, -0.000000000000000000, 1.000000000000000000 ) ) ;
#598 = CIRCLE ( 'NONE', #654, 2.600000000000000533 ) ;
#599 = VECTOR ( 'NONE', #169, 1000.000000000000000 ) ;
#600 = EDGE_CURVE ( 'NONE', #504, #16, #104, .T. ) ;
#601 = DIRECTION ( 'NONE',  ( -1.000000000000000000, 0.000000000000000000, 0.000000000000000000 ) ) ;
#602 = ORIENTED_EDGE ( 'NONE', *, *, #549, .F. ) ;
#603 = ORIENTED_EDGE ( 'NONE', *, *, #187, .T. ) ;
#604 = DIRECTION ( 'NONE',  ( -1.000000000000000000, 0.000000000000000000, 0.000000000000000000 ) ) ;
#605 = DIRECTION ( 'NONE',  ( -0.5000000000000001110, 0.8660254037844385966, 0.000000000000000000 ) ) ;
#606 = DIRECTION ( 'NONE',  ( 1.000000000000000000, 0.000000000000000000, -0.000000000000000000 ) ) ;
#607 = ORIENTED_EDGE ( 'NONE', *, *, #697, .F. ) ;
#608 = FACE_OUTER_BOUND ( 'NONE', #557, .T. ) ;
#609 = DIRECTION ( 'NONE',  ( 1.000000000000000000, 0.000000000000000000, 0.000000000000000000 ) ) ;
#610 = EDGE_CURVE ( 'NONE', #23, #255, #495, .T. ) ;
#611 = DIRECTION ( 'NONE',  ( -0.000000000000000000, -0.000000000000000000, -1.000000000000000000 ) ) ;
#612 = DIRECTION ( 'NONE',  ( -0.000000000000000000, -0.000000000000000000, -1.000000000000000000 ) ) ;
#613 = ORIENTED_EDGE ( 'NONE', *, *, #298, .T. ) ;
#614 = DIRECTION ( 'NONE',  ( 0.000000000000000000, 0.000000000000000000, 1.000000000000000000 ) ) ;
#615 = LINE ( 'NONE', #287, #685 ) ;
#616 = ORIENTED_EDGE ( 'NONE', *, *, #679, .F. ) ;
#617 = VERTEX_POINT ( 'NONE', #235 ) ;
#618 = DIRECTION ( 'NONE',  ( -1.000000000000000000, 0.000000000000000000, 0.000000000000000000 ) ) ;
#619 = CARTESIAN_POINT ( 'NONE',  ( 1.000000000000003997, -2.602085213965210642E-15, -7.500000000000001776 ) ) ;
#620 = VECTOR ( 'NONE', #363, 1000.000000000000114 ) ;
#621 = CARTESIAN_POINT ( 'NONE',  ( 0.000000000000000000, -2.602085213965210642E-15, -7.500000000000001776 ) ) ;
#622 = ADVANCED_FACE ( 'NONE', ( #667 ), #345, .F. ) ;
#623 = ORIENTED_EDGE ( 'NONE', *, *, #52, .T. ) ;
#624 = DIRECTION ( 'NONE',  ( -1.000000000000000000, 0.000000000000000000, 0.000000000000000000 ) ) ;
#625 = VERTEX_POINT ( 'NONE', #512 ) ;
#626 =( NAMED_UNIT ( * ) SI_UNIT ( $, .STERADIAN. ) SOLID_ANGLE_UNIT ( ) );
#627 = CARTESIAN_POINT ( 'NONE',  ( 2.750000000000000888, -2.265307344199688590E-15, 4.650000000000000355 ) ) ;
#628 = ADVANCED_FACE ( 'NONE', ( #662 ), #1, .T. ) ;
#629 = PERSON_AND_ORGANIZATION ( #393, #587 ) ;
#630 = SECURITY_CLASSIFICATION_LEVEL ( 'unclassified' ) ;
#631 = LOCAL_TIME ( 11, 25, 48.00000000000000000, #79 ) ;
#632 = ORIENTED_EDGE ( 'NONE', *, *, #376, .T. ) ;
#633 = ORIENTED_EDGE ( 'NONE', *, *, #424, .F. ) ;
#634 = CARTESIAN_POINT ( 'NONE',  ( 1.249999999999996669, 0.7216878364870321638, 6.000000000000000000 ) ) ;
#635 = CARTESIAN_POINT ( 'NONE',  ( 1.249999999999996669, 0.7216878364870322748, 7.388703772240052814 ) ) ;
#636 = FACE_OUTER_BOUND ( 'NONE', #344, .T. ) ;
#637 = VERTEX_POINT ( 'NONE', #454 ) ;
#638 = APPROVAL_ROLE ( '' ) ;
#639 = EDGE_CURVE ( 'NONE', #23, #585, #150, .T. ) ;
#640 = DIRECTION ( 'NONE',  ( -0.000000000000000000, -0.000000000000000000, -1.000000000000000000 ) ) ;
#641 = CONICAL_SURFACE ( 'NONE', #96, 1.000000000000003997, 0.7853981633974489451 ) ;
#642 = DIRECTION ( 'NONE',  ( 0.000000000000000000, 0.000000000000000000, 1.000000000000000000 ) ) ;
#643 = CARTESIAN_POINT ( 'NONE',  ( 1.000000000000003997, -2.602085213965210642E-15, -7.500000000000001776 ) ) ;
#644 = MANIFOLD_SOLID_BREP ( 'Cut-Extrude2', #228 ) ;
#645 = FACE_OUTER_BOUND ( 'NONE', #460, .T. ) ;
#646 = CARTESIAN_POINT ( 'NONE',  ( -7.120071990795405478E-17, 1.443375672974061885, 7.388703772240052814 ) ) ;
#647 = DIRECTION ( 'NONE',  ( -0.8660254037844385966, -0.5000000000000001110, 0.000000000000000000 ) ) ;
#648 = EDGE_CURVE ( 'NONE', #32, #666, #562, .T. ) ;
#649 = FACE_OUTER_BOUND ( 'NONE', #465, .T. ) ;
#650 = DIRECTION ( 'NONE',  ( -0.8660254037844388186, 0.4999999999999997780, 0.000000000000000000 ) ) ;
#651 = ORIENTED_EDGE ( 'NONE', *, *, #610, .T. ) ;
#652 = AXIS2_PLACEMENT_3D ( 'NONE', #470, #684, #576 ) ;
#653 = FACE_OUTER_BOUND ( 'NONE', #268, .T. ) ;
#654 = AXIS2_PLACEMENT_3D ( 'NONE', #560, #513, #190 ) ;
#655 = CIRCLE ( 'NONE', #676, 2.750000000000000444 ) ;
#656 = DIRECTION ( 'NONE',  ( 0.000000000000000000, 0.000000000000000000, 1.000000000000000000 ) ) ;
#657 = ORIENTED_EDGE ( 'NONE', *, *, #353, .F. ) ;
#658 = CARTESIAN_POINT ( 'NONE',  ( 1.249999999999996669, 0.7216878364870322748, 7.388703772240052814 ) ) ;
#659 = DIRECTION ( 'NONE',  ( 1.000000000000000000, 0.000000000000000000, 0.000000000000000000 ) ) ;
#660 = DIRECTION ( 'NONE',  ( 0.000000000000000000, 0.000000000000000000, 1.000000000000000000 ) ) ;
#661 = LINE ( 'NONE', #11, #599 ) ;
#662 = FACE_OUTER_BOUND ( 'NONE', #59, .T. ) ;
#663 = CARTESIAN_POINT ( 'NONE',  ( -1.199795019843931365E-15, -1.443375672974060997, 7.388703772240051926 ) ) ;
#664 = DIRECTION ( 'NONE',  ( -1.000000000000000000, 0.000000000000000000, 0.000000000000000000 ) ) ;
#665 = ORIENTED_EDGE ( 'NONE', *, *, #689, .T. ) ;
#666 = VERTEX_POINT ( 'NONE', #674 ) ;
#667 = FACE_OUTER_BOUND ( 'NONE', #529, .T. ) ;
#668 = ORIENTED_EDGE ( 'NONE', *, *, #100, .F. ) ;
#669 = CARTESIAN_POINT ( 'NONE',  ( 2.600000000000000089, -2.274492195193293805E-15, 7.500000000000002665 ) ) ;
#670 = ADVANCED_FACE ( 'NONE', ( #180 ), #185, .T. ) ;
#671 = DIRECTION ( 'NONE',  ( -1.000000000000000000, -1.224646799147359124E-16, 0.000000000000000000 ) ) ;
#672 = ORIENTED_EDGE ( 'NONE', *, *, #85, .T. ) ;
#673 = VECTOR ( 'NONE', #386, 1000.000000000000000 ) ;
#674 = CARTESIAN_POINT ( 'NONE',  ( 2.750000000000000444, -2.265307344199688590E-15, 7.350000000000001421 ) ) ;
#675 = CC_DESIGN_SECURITY_CLASSIFICATION ( #368, ( #184 ) ) ;
#676 = AXIS2_PLACEMENT_3D ( 'NONE', #4, #109, #221 ) ;
#677 = VERTEX_POINT ( 'NONE', #340 ) ;
#678 = APPROVAL_ROLE ( '' ) ;
#679 = EDGE_CURVE ( 'NONE', #450, #297, #56, .T. ) ;
#680 = ORIENTED_EDGE ( 'NONE', *, *, #372, .F. ) ;
#681 = EDGE_LOOP ( 'NONE', ( #464, #575 ) ) ;
#682 = PERSON_AND_ORGANIZATION_ROLE ( 'design_supplier' ) ;
#683 = LINE ( 'NONE', #578, #538 ) ;
#684 = DIRECTION ( 'NONE',  ( 0.000000000000000000, 0.000000000000000000, 1.000000000000000000 ) ) ;
#685 = VECTOR ( 'NONE', #342, 1000.000000000000000 ) ;
#686 = AXIS2_PLACEMENT_3D ( 'NONE', #341, #501, #276 ) ;
#687 = CARTESIAN_POINT ( 'NONE',  ( 1.500000000000003775, -2.418388194093107131E-15, 4.500000000000003553 ) ) ;
#688 = DIRECTION ( 'NONE',  ( 0.8660254037844383745, 0.5000000000000003331, 0.000000000000000000 ) ) ;
#689 = EDGE_CURVE ( 'NONE', #617, #524, #615, .T. ) ;
#690 = CALENDAR_DATE ( 2026, 5, 2 ) ;
#691 = CARTESIAN_POINT ( 'NONE',  ( -0.2041003247360316242, 1.325538295546024203, 7.320670330658451519 ) ) ;
#692 = CARTESIAN_POINT ( 'NONE',  ( 0.000000000000000000, -2.602085213965210642E-15, -7.500000000000001776 ) ) ;
#693 = APPROVAL_PERSON_ORGANIZATION ( #21, #113, #466 ) ;
#694 = ORIENTED_EDGE ( 'NONE', *, *, #31, .T. ) ;
#695 = DIRECTION ( 'NONE',  ( 0.000000000000000000, 0.000000000000000000, 1.000000000000000000 ) ) ;
#696 = CARTESIAN_POINT ( 'NONE',  ( 0.000000000000000000, 0.000000000000000000, 7.500000000000001776 ) ) ;
#697 = EDGE_CURVE ( 'NONE', #288, #637, #406, .T. ) ;
#698 = CARTESIAN_POINT ( 'NONE',  ( 1.249999999999996669, -0.7216878364870291662, 7.388703772240051926 ) ) ;
#699 = CARTESIAN_POINT ( 'NONE',  ( 1.249999999999996669, 0.7216878364870322748, 7.388703772240052814 ) ) ;
#700 = CARTESIAN_POINT ( 'NONE',  ( 0.4112597317657560869, -1.205934756132247765, 7.277214682191647022 ) ) ;
#701 = CARTESIAN_POINT ( 'NONE',  ( -1.156492327174005754E-15, -1.443375672974060997, 6.000000000000000000 ) ) ;
#702 = CARTESIAN_POINT ( 'NONE',  ( -1.249999999999997335, 0.7216878364870310536, 6.000000000000000000 ) ) ;
#703 = ORIENTED_EDGE ( 'NONE', *, *, #531, .T. ) ;
#704 = DIRECTION ( 'NONE',  ( 1.000000000000000000, -0.000000000000000000, 0.000000000000000000 ) ) ;
#705 = AXIS2_PLACEMENT_3D ( 'NONE', #42, #328, #604 ) ;
ENDSEC;
END-ISO-10303-21;
