ISO-10303-21;
HEADER;
FILE_DESCRIPTION (( 'STEP AP203' ),
    '1' );
FILE_NAME ('91131A028_Black-Oxide Steel Leveling Washer.STEP',
    '2026-01-08T04:59:54',
    ( 'McMaster Carr Supply' ),
    ( 'McMaster Carr Supply' ),
    'SwSTEP 2.0',
    'SolidWorks 2024',
    '' );
FILE_SCHEMA (( 'CONFIG_CONTROL_DESIGN' ));
ENDSEC;

DATA;
#1 = EDGE_CURVE ( 'NONE', #90, #476, #320, .T. ) ;
#2 = ORIENTED_EDGE ( 'NONE', *, *, #261, .T. ) ;
#3 = DESIGN_CONTEXT ( 'detailed design', #466, 'design' ) ;
#4 = DIRECTION ( 'NONE',  ( 1.836970198721029688E-16, -1.000000000000000000, -0.000000000000000000 ) ) ;
#5 = APPROVAL_STATUS ( 'not_yet_approved' ) ;
#6 = APPROVAL_ROLE ( '' ) ;
#7 = ORIENTED_EDGE ( 'NONE', *, *, #66, .T. ) ;
#8 = AXIS2_PLACEMENT_3D ( 'NONE', #53, #100, #191 ) ;
#9 = FACE_OUTER_BOUND ( 'NONE', #611, .T. ) ;
#10 = CIRCLE ( 'NONE', #86, 0.2449999999999999400 ) ;
#11 = DIRECTION ( 'NONE',  ( 1.836970198721029688E-16, -1.000000000000000000, -0.000000000000000000 ) ) ;
#12 = ORIENTED_EDGE ( 'NONE', *, *, #240, .T. ) ;
#13 = CARTESIAN_POINT ( 'NONE',  ( 0.000000000000000000, -0.1329999999999999793, 0.000000000000000000 ) ) ;
#14 = ORIENTED_EDGE ( 'NONE', *, *, #139, .T. ) ;
#15 = EDGE_CURVE ( 'NONE', #56, #471, #57, .T. ) ;
#16 = CARTESIAN_POINT ( 'NONE',  ( -0.2449999999999999400, -0.1280000000000000582, 3.000384657911014877E-17 ) ) ;
#17 = VERTEX_POINT ( 'NONE', #412 ) ;
#18 = CARTESIAN_POINT ( 'NONE',  ( 0.2187499999999998890, 0.03998543456039802685, 0.000000000000000000 ) ) ;
#19 = EDGE_CURVE ( 'NONE', #112, #90, #216, .T. ) ;
#20 = CIRCLE ( 'NONE', #208, 0.1285000000000000031 ) ;
#21 = LOCAL_TIME ( 22, 59, 54.00000000000000000, #317 ) ;
#22 = AXIS2_PLACEMENT_3D ( 'NONE', #464, #69, #116 ) ;
#23 = CARTESIAN_POINT ( 'NONE',  ( -3.414809992080329023E-17, 0.03998543456039797828, 0.000000000000000000 ) ) ;
#24 = CYLINDRICAL_SURFACE ( 'NONE', #22, 0.1284999999999999754 ) ;
#25 = EDGE_CURVE ( 'NONE', #443, #536, #505, .T. ) ;
#26 = CARTESIAN_POINT ( 'NONE',  ( -0.2187499999999999445, -0.1330000000000000071, 2.678914873134834756E-17 ) ) ;
#27 = FACE_OUTER_BOUND ( 'NONE', #146, .T. ) ;
#28 = CARTESIAN_POINT ( 'NONE',  ( -0.2500000000000000000, -0.1330000000000000349, 3.061616997868383018E-17 ) ) ;
#29 = APPROVAL ( #436, 'UNSPECIFIED' ) ;
#30 = CARTESIAN_POINT ( 'NONE',  ( -1.742557913251774227E-17, -0.03813956543960204254, 0.000000000000000000 ) ) ;
#31 = DIRECTION ( 'NONE',  ( 1.836970198721029688E-16, -1.000000000000000000, -0.000000000000000000 ) ) ;
#32 = FACE_OUTER_BOUND ( 'NONE', #49, .T. ) ;
#33 = EDGE_CURVE ( 'NONE', #329, #522, #299, .T. ) ;
#34 = AXIS2_PLACEMENT_3D ( 'NONE', #404, #294, #450 ) ;
#35 = DIMENSIONAL_EXPONENTS ( 1.000000000000000000, 0.000000000000000000, 0.000000000000000000, 0.000000000000000000, 0.000000000000000000, 0.000000000000000000, 0.000000000000000000 ) ;
#36 = DIRECTION ( 'NONE',  ( 1.000000000000000000, 1.328719841276392922E-16, 0.000000000000000000 ) ) ;
#37 = ORIENTED_EDGE ( 'NONE', *, *, #422, .T. ) ;
#38 = EDGE_CURVE ( 'NONE', #485, #40, #330, .T. ) ;
#39 = DIRECTION ( 'NONE',  ( 1.000000000000000000, 1.821231995776175725E-16, 0.000000000000000000 ) ) ;
#40 = VERTEX_POINT ( 'NONE', #266 ) ;
#41 = CARTESIAN_POINT ( 'NONE',  ( -1.742557913251774536E-17, -0.03813956543960202172, 0.000000000000000000 ) ) ;
#42 = CIRCLE ( 'NONE', #590, 0.07812500000000000000 ) ;
#43 = DIRECTION ( 'NONE',  ( 1.836970198721029688E-16, -1.000000000000000000, -0.000000000000000000 ) ) ;
#44 = ORIENTED_EDGE ( 'NONE', *, *, #298, .F. ) ;
#45 = EDGE_CURVE ( 'NONE', #329, #56, #162, .T. ) ;
#46 = UNCERTAINTY_MEASURE_WITH_UNIT (LENGTH_MEASURE( 1.000000000000000082E-05 ), #524, 'distance_accuracy_value', 'NONE');
#47 = CONICAL_SURFACE ( 'NONE', #110, 0.2137499999999999400, 0.7853981633974551624 ) ;
#48 = FACE_OUTER_BOUND ( 'NONE', #300, .T. ) ;
#49 = EDGE_LOOP ( 'NONE', ( #384, #587, #12, #481 ) ) ;
#50 = COORDINATED_UNIVERSAL_TIME_OFFSET ( 6, 0, .BEHIND. ) ;
#51 = CARTESIAN_POINT ( 'NONE',  ( -0.2137499999999999678, 0.1329999999999999238, 2.648298703156150685E-17 ) ) ;
#52 = ORIENTED_EDGE ( 'NONE', *, *, #601, .F. ) ;
#53 = CARTESIAN_POINT ( 'NONE',  ( 0.2449999999999999400, -0.1279999999999999472, 0.000000000000000000 ) ) ;
#54 = EDGE_CURVE ( 'NONE', #583, #331, #117, .T. ) ;
#55 = DIRECTION ( 'NONE',  ( -1.000000000000000000, -1.836970198721029688E-16, 0.000000000000000000 ) ) ;
#56 = VERTEX_POINT ( 'NONE', #161 ) ;
#57 = CIRCLE ( 'NONE', #136, 0.2500000000000000000 ) ;
#58 = LOCAL_TIME ( 22, 59, 54.00000000000000000, #591 ) ;
#59 = CARTESIAN_POINT ( 'NONE',  ( -0.2137499999999999678, 0.1329999999999999238, 2.617682533177466923E-17 ) ) ;
#60 = CIRCLE ( 'NONE', #137, 0.2137499999999999400 ) ;
#61 = DIRECTION ( 'NONE',  ( 0.000000000000000000, 0.000000000000000000, 1.000000000000000000 ) ) ;
#62 = ORIENTED_EDGE ( 'NONE', *, *, #440, .T. ) ;
#63 = FACE_OUTER_BOUND ( 'NONE', #479, .T. ) ;
#64 = LENGTH_MEASURE_WITH_UNIT ( LENGTH_MEASURE( 0.02539999999999999897 ), #574 );
#65 = ORIENTED_EDGE ( 'NONE', *, *, #530, .F. ) ;
#66 = EDGE_CURVE ( 'NONE', #323, #151, #500, .T. ) ;
#67 = CYLINDRICAL_SURFACE ( 'NONE', #172, 0.1406249999999999722 ) ;
#68 = DIRECTION ( 'NONE',  ( 1.000000000000000000, 2.048885995248197414E-16, 0.000000000000000000 ) ) ;
#69 = DIRECTION ( 'NONE',  ( 1.836970198721029688E-16, -1.000000000000000000, -0.000000000000000000 ) ) ;
#70 = VECTOR ( 'NONE', #560, 39.37007874015748143 ) ;
#71 = AXIS2_PLACEMENT_3D ( 'NONE', #389, #61, #445 ) ;
#72 = CARTESIAN_POINT ( 'NONE',  ( 4.664022597291006874E-33, -0.1329999999999999793, 0.000000000000000000 ) ) ;
#73 = CARTESIAN_POINT ( 'NONE',  ( -3.177690881002578594E-17, 0.03998543456039797828, 0.000000000000000000 ) ) ;
#74 = FACE_OUTER_BOUND ( 'NONE', #513, .T. ) ;
#75 = ADVANCED_FACE ( 'NONE', ( #74 ), #206, .F. ) ;
#76 = CARTESIAN_POINT ( 'NONE',  ( -1.148106374200642322E-17, -0.07050000000000003486, 0.000000000000000000 ) ) ;
#77 = VECTOR ( 'NONE', #613, 39.37007874015748143 ) ;
#78 = DIRECTION ( 'NONE',  ( 1.836970198721029688E-16, -1.000000000000000000, -0.000000000000000000 ) ) ;
#79 = FACE_OUTER_BOUND ( 'NONE', #135, .T. ) ;
#80 = LINE ( 'NONE', #369, #70 ) ;
#81 = DIRECTION ( 'NONE',  ( 1.000000000000000000, 2.428309327701567305E-16, 0.000000000000000000 ) ) ;
#82 = LINE ( 'NONE', #521, #547 ) ;
#83 = CC_DESIGN_PERSON_AND_ORGANIZATION_ASSIGNMENT ( #158, #214, ( #217 ) ) ;
#84 = CALENDAR_DATE ( 2026, 7, 1 ) ;
#85 = AXIS2_PLACEMENT_3D ( 'NONE', #292, #442, #198 ) ;
#86 = AXIS2_PLACEMENT_3D ( 'NONE', #269, #558, #419 ) ;
#87 = CARTESIAN_POINT ( 'NONE',  ( -3.414809992080329023E-17, 0.03998543456039797828, 0.000000000000000000 ) ) ;
#88 = ORIENTED_EDGE ( 'NONE', *, *, #396, .F. ) ;
#89 = DIRECTION ( 'NONE',  ( 1.836970198721029688E-16, -1.000000000000000000, -0.000000000000000000 ) ) ;
#90 = VERTEX_POINT ( 'NONE', #503 ) ;
#91 = APPROVAL ( #598, 'UNSPECIFIED' ) ;
#92 = ORIENTED_EDGE ( 'NONE', *, *, #33, .F. ) ;
#93 = AXIS2_PLACEMENT_3D ( 'NONE', #209, #435, #401 ) ;
#94 = DIRECTION ( 'NONE',  ( -1.836970198721029688E-16, 1.000000000000000000, 0.000000000000000000 ) ) ;
#95 = EDGE_LOOP ( 'NONE', ( #380, #281, #540, #325 ) ) ;
#96 = AXIS2_PLACEMENT_3D ( 'NONE', #365, #256, #212 ) ;
#97 = PERSON_AND_ORGANIZATION ( #265, #170 ) ;
#98 = VERTEX_POINT ( 'NONE', #595 ) ;
#99 = ADVANCED_FACE ( 'NONE', ( #124 ), #544, .T. ) ;
#100 = DIRECTION ( 'NONE',  ( 0.000000000000000000, 0.000000000000000000, -1.000000000000000000 ) ) ;
#101 = FACE_BOUND ( 'NONE', #562, .T. ) ;
#102 = ORIENTED_EDGE ( 'NONE', *, *, #597, .T. ) ;
#103 = DIRECTION ( 'NONE',  ( -0.7071067811865522357, -0.7071067811865427988, 8.659560562354992023E-17 ) ) ;
#104 = CC_DESIGN_DATE_AND_TIME_ASSIGNMENT ( #272, #473, ( #255 ) ) ;
#105 =( NAMED_UNIT ( * ) PLANE_ANGLE_UNIT ( ) SI_UNIT ( $, .RADIAN. ) );
#106 = ORIENTED_EDGE ( 'NONE', *, *, #315, .T. ) ;
#107 = AXIS2_PLACEMENT_3D ( 'NONE', #218, #304, #594 ) ;
#108 = CC_DESIGN_SECURITY_CLASSIFICATION ( #255, ( #217 ) ) ;
#109 = DIRECTION ( 'NONE',  ( 0.000000000000000000, 0.000000000000000000, -1.000000000000000000 ) ) ;
#110 = AXIS2_PLACEMENT_3D ( 'NONE', #283, #486, #286 ) ;
#111 = FACE_BOUND ( 'NONE', #575, .T. ) ;
#112 = VERTEX_POINT ( 'NONE', #220 ) ;
#113 = DIRECTION ( 'NONE',  ( 1.836970198721029688E-16, -1.000000000000000000, -0.000000000000000000 ) ) ;
#114 = ADVANCED_FACE ( 'NONE', ( #27 ), #612, .T. ) ;
#115 = EDGE_LOOP ( 'NONE', ( #186, #106, #618, #564 ) ) ;
#116 = DIRECTION ( 'NONE',  ( 1.000000000000000000, 1.328719841276392922E-16, 0.000000000000000000 ) ) ;
#117 = CIRCLE ( 'NONE', #526, 0.1284999999999999476 ) ;
#118 = CC_DESIGN_APPROVAL ( #29, ( #405 ) ) ;
#119 = TOROIDAL_SURFACE ( 'NONE', #472, 0.1406249999999999445, 0.07812500000000000000 ) ;
#120 = DATE_TIME_ROLE ( 'creation_date' ) ;
#121 = DIRECTION ( 'NONE',  ( 1.000000000000000000, 2.090699995151222450E-16, 0.000000000000000000 ) ) ;
#122 = DIRECTION ( 'NONE',  ( 1.836970198721029688E-16, -1.000000000000000000, -0.000000000000000000 ) ) ;
#123 = PRODUCT_RELATED_PRODUCT_CATEGORY ( 'detail', '', ( #316 ) ) ;
#124 = FACE_OUTER_BOUND ( 'NONE', #226, .T. ) ;
#125 = DIRECTION ( 'NONE',  ( 1.836970198721029688E-16, -1.000000000000000000, -0.000000000000000000 ) ) ;
#126 = AXIS2_PLACEMENT_3D ( 'NONE', #351, #363, #121 ) ;
#127 = CIRCLE ( 'NONE', #555, 0.2187499999999999445 ) ;
#128 = EDGE_CURVE ( 'NONE', #522, #329, #342, .T. ) ;
#129 = DIRECTION ( 'NONE',  ( 1.000000000000000000, 1.328719841276393168E-16, 0.000000000000000000 ) ) ;
#130 = CARTESIAN_POINT ( 'NONE',  ( -0.1406249999999999722, 0.03998543456039795746, 1.722159561300964562E-17 ) ) ;
#131 = ADVANCED_FACE ( 'NONE', ( #463 ), #233, .F. ) ;
#132 = DIRECTION ( 'NONE',  ( 1.836970198721029688E-16, -1.000000000000000000, -0.000000000000000000 ) ) ;
#133 = ORIENTED_EDGE ( 'NONE', *, *, #326, .T. ) ;
#134 = CARTESIAN_POINT ( 'NONE',  ( 0.000000000000000000, -0.1280000000000000027, 0.000000000000000000 ) ) ;
#135 = EDGE_LOOP ( 'NONE', ( #250, #202, #228, #533 ) ) ;
#136 = AXIS2_PLACEMENT_3D ( 'NONE', #550, #406, #361 ) ;
#137 = AXIS2_PLACEMENT_3D ( 'NONE', #426, #610, #178 ) ;
#138 = ORIENTED_EDGE ( 'NONE', *, *, #415, .F. ) ;
#139 = EDGE_CURVE ( 'NONE', #476, #90, #554, .T. ) ;
#140 = CYLINDRICAL_SURFACE ( 'NONE', #357, 0.1284999999999999754 ) ;
#141 = ORIENTED_EDGE ( 'NONE', *, *, #271, .F. ) ;
#142 = ADVANCED_BREP_SHAPE_REPRESENTATION ( '91131A028_Black-Oxide Steel Leveling Washer', ( #398, #392, #71 ), #514 ) ;
#143 = DIRECTION ( 'NONE',  ( 1.000000000000000000, 1.836970198721029688E-16, 0.000000000000000000 ) ) ;
#144 = ORIENTED_EDGE ( 'NONE', *, *, #518, .F. ) ;
#145 = PLANE ( 'NONE',  #431 ) ;
#146 = EDGE_LOOP ( 'NONE', ( #133, #334, #138, #141 ) ) ;
#147 = CARTESIAN_POINT ( 'NONE',  ( -4.794492218661887051E-17, 0.1280000000000000304, 0.000000000000000000 ) ) ;
#148 = EDGE_LOOP ( 'NONE', ( #400, #7, #424, #44 ) ) ;
#149 = EDGE_CURVE ( 'NONE', #295, #476, #80, .T. ) ;
#150 = FACE_OUTER_BOUND ( 'NONE', #242, .T. ) ;
#151 = VERTEX_POINT ( 'NONE', #311 ) ;
#152 = DIRECTION ( 'NONE',  ( 1.836970198721029688E-16, -1.000000000000000000, -0.000000000000000000 ) ) ;
#153 = PLANE ( 'NONE',  #309 ) ;
#154 = EDGE_LOOP ( 'NONE', ( #382, #37 ) ) ;
#155 = AXIS2_PLACEMENT_3D ( 'NONE', #23, #122, #305 ) ;
#156 = CARTESIAN_POINT ( 'NONE',  ( 0.1406249999999999445, -0.07050000000000002098, 0.000000000000000000 ) ) ;
#157 = EDGE_CURVE ( 'NONE', #199, #323, #576, .T. ) ;
#158 = PERSON_AND_ORGANIZATION ( #265, #170 ) ;
#159 = ORIENTED_EDGE ( 'NONE', *, *, #25, .T. ) ;
#160 = LINE ( 'NONE', #251, #386 ) ;
#161 = CARTESIAN_POINT ( 'NONE',  ( -0.2500000000000000000, -0.1280000000000000582, 3.061616997868383018E-17 ) ) ;
#162 = LINE ( 'NONE', #28, #182 ) ;
#163 = EDGE_CURVE ( 'NONE', #238, #199, #173, .T. ) ;
#164 = AXIS2_PLACEMENT_3D ( 'NONE', #502, #260, #457 ) ;
#165 = CIRCLE ( 'NONE', #321, 0.1406250000000000000 ) ;
#166 = CARTESIAN_POINT ( 'NONE',  ( -4.886340728597938338E-17, 0.1329999999999999793, 0.000000000000000000 ) ) ;
#167 = ADVANCED_FACE ( 'NONE', ( #247 ), #565, .T. ) ;
#168 = DIRECTION ( 'NONE',  ( -1.000000000000000000, -1.821231995776175725E-16, 0.000000000000000000 ) ) ;
#169 = ORIENTED_EDGE ( 'NONE', *, *, #1, .T. ) ;
#170 = ORGANIZATION ( 'UNSPECIFIED', 'UNSPECIFIED', '' ) ;
#171 = ADVANCED_FACE ( 'NONE', ( #593 ), #391, .F. ) ;
#172 = AXIS2_PLACEMENT_3D ( 'NONE', #296, #253, #263 ) ;
#173 = LINE ( 'NONE', #417, #451 ) ;
#174 = DIRECTION ( 'NONE',  ( 1.836970198721029688E-16, -1.000000000000000000, -0.000000000000000000 ) ) ;
#175 = ORIENTED_EDGE ( 'NONE', *, *, #298, .T. ) ;
#176 = DIRECTION ( 'NONE',  ( 1.836970198721029688E-16, -1.000000000000000000, -0.000000000000000000 ) ) ;
#177 = VERTEX_POINT ( 'NONE', #18 ) ;
#178 = DIRECTION ( 'NONE',  ( 1.000000000000000000, 1.597571926119452732E-16, 0.000000000000000000 ) ) ;
#179 = ORIENTED_EDGE ( 'NONE', *, *, #518, .T. ) ;
#180 = EDGE_CURVE ( 'NONE', #331, #223, #160, .T. ) ;
#181 = CALENDAR_DATE ( 2026, 7, 1 ) ;
#182 = VECTOR ( 'NONE', #596, 39.37007874015748143 ) ;
#183 = CC_DESIGN_APPROVAL ( #91, ( #217 ) ) ;
#184 = CIRCLE ( 'NONE', #388, 0.1406249999999999722 ) ;
#185 = DIRECTION ( 'NONE',  ( 1.000000000000000000, 1.561055996379579475E-16, 0.000000000000000000 ) ) ;
#186 = ORIENTED_EDGE ( 'NONE', *, *, #290, .F. ) ;
#187 = CARTESIAN_POINT ( 'NONE',  ( 0.2500000000000000000, -0.1279999999999999472, 0.000000000000000000 ) ) ;
#188 = EDGE_CURVE ( 'NONE', #471, #536, #270, .T. ) ;
#189 = CARTESIAN_POINT ( 'NONE',  ( -0.2449999999999999400, -0.1330000000000000626, 0.000000000000000000 ) ) ;
#190 = EDGE_LOOP ( 'NONE', ( #252, #236, #338, #494 ) ) ;
#191 = DIRECTION ( 'NONE',  ( -1.000000000000000000, 0.000000000000000000, 0.000000000000000000 ) ) ;
#192 = CC_DESIGN_PERSON_AND_ORGANIZATION_ASSIGNMENT ( #484, #585, ( #405 ) ) ;
#193 = LOCAL_TIME ( 22, 59, 54.00000000000000000, #416 ) ;
#194 = COORDINATED_UNIVERSAL_TIME_OFFSET ( 6, 0, .BEHIND. ) ;
#195 = ORIENTED_EDGE ( 'NONE', *, *, #415, .T. ) ;
#196 = CIRCLE ( 'NONE', #616, 0.1284999999999999476 ) ;
#197 = CARTESIAN_POINT ( 'NONE',  ( -0.1285000000000000031, -0.03813956543960204948, 0.000000000000000000 ) ) ;
#198 = DIRECTION ( 'NONE',  ( 1.000000000000000000, 1.836970198721029688E-16, 0.000000000000000000 ) ) ;
#199 = VERTEX_POINT ( 'NONE', #397 ) ;
#200 = ADVANCED_FACE ( 'NONE', ( #9 ), #447, .T. ) ;
#201 = DIRECTION ( 'NONE',  ( 1.836970198721029688E-16, -1.000000000000000000, -0.000000000000000000 ) ) ;
#202 = ORIENTED_EDGE ( 'NONE', *, *, #180, .T. ) ;
#203 = EDGE_CURVE ( 'NONE', #56, #443, #354, .T. ) ;
#204 = LINE ( 'NONE', #495, #366 ) ;
#205 = APPROVAL_DATE_TIME ( #549, #29 ) ;
#206 = CONICAL_SURFACE ( 'NONE', #430, 0.1406249999999999722, 0.7853981633974485010 ) ;
#207 = ORIENTED_EDGE ( 'NONE', *, *, #128, .T. ) ;
#208 = AXIS2_PLACEMENT_3D ( 'NONE', #30, #201, #584 ) ;
#209 = CARTESIAN_POINT ( 'NONE',  ( -1.742557913251774227E-17, -0.03813956543960204254, 0.000000000000000000 ) ) ;
#210 = VECTOR ( 'NONE', #103, 39.37007874015748143 ) ;
#211 = DIRECTION ( 'NONE',  ( -1.000000000000000000, -1.821231995776175725E-16, 0.000000000000000000 ) ) ;
#212 = DIRECTION ( 'NONE',  ( 1.000000000000000000, 1.597571926119452732E-16, 0.000000000000000000 ) ) ;
#213 = DIRECTION ( 'NONE',  ( 1.836970198721029688E-16, -1.000000000000000000, -0.000000000000000000 ) ) ;
#214 = PERSON_AND_ORGANIZATION_ROLE ( 'creator' ) ;
#215 = EDGE_CURVE ( 'NONE', #223, #288, #20, .T. ) ;
#216 = LINE ( 'NONE', #460, #409 ) ;
#217 = PRODUCT_DEFINITION_FORMATION_WITH_SPECIFIED_SOURCE ( 'ANY', '', #316, .NOT_KNOWN. ) ;
#218 = CARTESIAN_POINT ( 'NONE',  ( -2.870265935501606884E-17, 0.02324999999999993391, 0.000000000000000000 ) ) ;
#219 = DATE_AND_TIME ( #181, #21 ) ;
#220 = CARTESIAN_POINT ( 'NONE',  ( -0.1406249999999999722, -0.07050000000000006262, 1.722159561300965178E-17 ) ) ;
#221 = DIRECTION ( 'NONE',  ( 1.836970198721029688E-16, -1.000000000000000000, -0.000000000000000000 ) ) ;
#222 = DIRECTION ( 'NONE',  ( 1.836970198721029688E-16, -1.000000000000000000, -0.000000000000000000 ) ) ;
#223 = VERTEX_POINT ( 'NONE', #339 ) ;
#224 = AXIS2_PLACEMENT_3D ( 'NONE', #306, #506, #68 ) ;
#225 = CARTESIAN_POINT ( 'NONE',  ( -1.148106374200642322E-17, -0.07050000000000003486, 0.000000000000000000 ) ) ;
#226 = EDGE_LOOP ( 'NONE', ( #207, #488, #580, #498 ) ) ;
#227 = CARTESIAN_POINT ( 'NONE',  ( -3.177690881002578594E-17, 0.03998543456039797828, 0.000000000000000000 ) ) ;
#228 = ORIENTED_EDGE ( 'NONE', *, *, #215, .T. ) ;
#229 = CC_DESIGN_PERSON_AND_ORGANIZATION_ASSIGNMENT ( #347, #553, ( #255 ) ) ;
#230 = LINE ( 'NONE', #428, #77 ) ;
#231 = EDGE_LOOP ( 'NONE', ( #452, #446, #348, #245 ) ) ;
#232 = VECTOR ( 'NONE', #213, 39.37007874015748143 ) ;
#233 = CONICAL_SURFACE ( 'NONE', #501, 0.1406249999999999722, 0.7853981633974485010 ) ;
#234 = AXIS2_PLACEMENT_3D ( 'NONE', #582, #284, #343 ) ;
#235 = FACE_OUTER_BOUND ( 'NONE', #427, .T. ) ;
#236 = ORIENTED_EDGE ( 'NONE', *, *, #149, .T. ) ;
#237 = FACE_OUTER_BOUND ( 'NONE', #293, .T. ) ;
#238 = VERTEX_POINT ( 'NONE', #588 ) ;
#239 = DIRECTION ( 'NONE',  ( 1.224646799147353207E-16, 2.249639673992786412E-32, 1.000000000000000000 ) ) ;
#240 = EDGE_CURVE ( 'NONE', #583, #288, #204, .T. ) ;
#241 = MECHANICAL_CONTEXT ( 'NONE', #327, 'mechanical' ) ;
#242 = EDGE_LOOP ( 'NONE', ( #195, #102 ) ) ;
#243 = DIRECTION ( 'NONE',  ( 1.000000000000000000, 1.561055996379579475E-16, 0.000000000000000000 ) ) ;
#244 = FACE_OUTER_BOUND ( 'NONE', #344, .T. ) ;
#245 = ORIENTED_EDGE ( 'NONE', *, *, #25, .F. ) ;
#246 = CIRCLE ( 'NONE', #606, 0.2187499999999999167 ) ;
#247 = FACE_OUTER_BOUND ( 'NONE', #231, .T. ) ;
#248 = APPROVAL_DATE_TIME ( #219, #477 ) ;
#249 = EDGE_CURVE ( 'NONE', #288, #223, #308, .T. ) ;
#250 = ORIENTED_EDGE ( 'NONE', *, *, #422, .F. ) ;
#251 = CARTESIAN_POINT ( 'NONE',  ( -0.1284999999999999754, -0.1329999999999999793, 1.573671136904348776E-17 ) ) ;
#252 = ORIENTED_EDGE ( 'NONE', *, *, #601, .T. ) ;
#253 = DIRECTION ( 'NONE',  ( 1.836970198721029688E-16, -1.000000000000000000, -0.000000000000000000 ) ) ;
#254 = DIRECTION ( 'NONE',  ( -1.836970198721029688E-16, 1.000000000000000000, 0.000000000000000000 ) ) ;
#255 = SECURITY_CLASSIFICATION ( '', '', #448 ) ;
#256 = DIRECTION ( 'NONE',  ( 1.836970198721029688E-16, -1.000000000000000000, -0.000000000000000000 ) ) ;
#257 = AXIS2_PLACEMENT_3D ( 'NONE', #73, #125, #552 ) ;
#258 = ORIENTED_EDGE ( 'NONE', *, *, #45, .F. ) ;
#259 = ADVANCED_FACE ( 'NONE', ( #537, #150 ), #332, .F. ) ;
#260 = DIRECTION ( 'NONE',  ( 1.836970198721029688E-16, -1.000000000000000000, -0.000000000000000000 ) ) ;
#261 = EDGE_CURVE ( 'NONE', #323, #199, #127, .T. ) ;
#262 = CARTESIAN_POINT ( 'NONE',  ( -2.870265935501606884E-17, 0.02324999999999993391, 0.000000000000000000 ) ) ;
#263 = DIRECTION ( 'NONE',  ( 1.000000000000000000, 2.428309327701567798E-16, 0.000000000000000000 ) ) ;
#264 = AXIS2_PLACEMENT_3D ( 'NONE', #130, #480, #324 ) ;
#265 = PERSON ( 'UNSPECIFIED', 'UNSPECIFIED', 'UNSPECIFIED', ('UNSPECIFIED'), ('UNSPECIFIED'), ('UNSPECIFIED') ) ;
#266 = CARTESIAN_POINT ( 'NONE',  ( 0.1406250000000000000, -0.1329999999999999516, 0.000000000000000000 ) ) ;
#267 = CARTESIAN_POINT ( 'NONE',  ( -4.794492218661887051E-17, 0.1280000000000000304, 0.000000000000000000 ) ) ;
#268 = CARTESIAN_POINT ( 'NONE',  ( 0.000000000000000000, -0.1329999999999999793, 0.000000000000000000 ) ) ;
#269 = CARTESIAN_POINT ( 'NONE',  ( 1.368773886218877172E-32, -0.1330000000000000349, 0.000000000000000000 ) ) ;
#270 = CIRCLE ( 'NONE', #8, 0.005000000000000049544 ) ;
#271 = EDGE_CURVE ( 'NONE', #177, #17, #42, .T. ) ;
#272 = DATE_AND_TIME ( #84, #193 ) ;
#273 = AXIS2_PLACEMENT_3D ( 'NONE', #134, #470, #379 ) ;
#274 = DIRECTION ( 'NONE',  ( 1.836970198721029688E-16, -1.000000000000000000, -0.000000000000000000 ) ) ;
#275 = DIRECTION ( 'NONE',  ( 1.000000000000000000, 1.836970198721029688E-16, 0.000000000000000000 ) ) ;
#276 = ORIENTED_EDGE ( 'NONE', *, *, #290, .T. ) ;
#277 = CARTESIAN_POINT ( 'NONE',  ( -0.2449999999999999400, -0.1330000000000000904, 3.031000827889699256E-17 ) ) ;
#278 = AXIS2_PLACEMENT_3D ( 'NONE', #197, #336, #577 ) ;
#279 = APPROVAL_PERSON_ORGANIZATION ( #425, #477, #523 ) ;
#280 = AXIS2_PLACEMENT_3D ( 'NONE', #41, #43, #561 ) ;
#281 = ORIENTED_EDGE ( 'NONE', *, *, #203, .T. ) ;
#282 = ADVANCED_FACE ( 'NONE', ( #63 ), #47, .T. ) ;
#283 = CARTESIAN_POINT ( 'NONE',  ( -4.886340728597938338E-17, 0.1329999999999999793, 0.000000000000000000 ) ) ;
#284 = DIRECTION ( 'NONE',  ( 1.836970198721029688E-16, -1.000000000000000000, -0.000000000000000000 ) ) ;
#285 = ORIENTED_EDGE ( 'NONE', *, *, #530, .T. ) ;
#286 = DIRECTION ( 'NONE',  ( 1.000000000000000000, 1.597571926119452732E-16, 0.000000000000000000 ) ) ;
#287 = FACE_BOUND ( 'NONE', #154, .T. ) ;
#288 = VERTEX_POINT ( 'NONE', #489 ) ;
#289 = CARTESIAN_POINT ( 'NONE',  ( 0.2187499999999999445, -0.1329999999999999238, 0.000000000000000000 ) ) ;
#290 = EDGE_CURVE ( 'NONE', #614, #323, #534, .T. ) ;
#291 = APPROVAL_PERSON_ORGANIZATION ( #97, #29, #6 ) ;
#292 = CARTESIAN_POINT ( 'NONE',  ( -0.2500000000000000000, 0.02324999999999991657, 0.000000000000000000 ) ) ;
#293 = EDGE_LOOP ( 'NONE', ( #355, #92 ) ) ;
#294 = DIRECTION ( 'NONE',  ( 1.836970198721029688E-16, -1.000000000000000000, -0.000000000000000000 ) ) ;
#295 = VERTEX_POINT ( 'NONE', #156 ) ;
#296 = CARTESIAN_POINT ( 'NONE',  ( 0.000000000000000000, -0.1329999999999999793, 0.000000000000000000 ) ) ;
#297 = ORIENTED_EDGE ( 'NONE', *, *, #66, .F. ) ;
#298 = EDGE_CURVE ( 'NONE', #199, #177, #345, .T. ) ;
#299 = CIRCLE ( 'NONE', #164, 0.2499999999999999722 ) ;
#300 = EDGE_LOOP ( 'NONE', ( #449, #159 ) ) ;
#301 = LOCAL_TIME ( 22, 59, 54.00000000000000000, #194 ) ;
#302 = ADVANCED_FACE ( 'NONE', ( #444 ), #67, .F. ) ;
#303 = PERSON_AND_ORGANIZATION ( #265, #170 ) ;
#304 = DIRECTION ( 'NONE',  ( 1.836970198721029688E-16, -1.000000000000000000, -0.000000000000000000 ) ) ;
#305 = DIRECTION ( 'NONE',  ( 1.000000000000000000, 1.836970198721029688E-16, 0.000000000000000000 ) ) ;
#306 = CARTESIAN_POINT ( 'NONE',  ( 0.000000000000000000, -0.1329999999999999793, 0.000000000000000000 ) ) ;
#307 = CARTESIAN_POINT ( 'NONE',  ( -0.2500000000000000000, 0.02324999999999988534, 3.061616997868383018E-17 ) ) ;
#308 = CIRCLE ( 'NONE', #93, 0.1285000000000000031 ) ;
#309 = AXIS2_PLACEMENT_3D ( 'NONE', #539, #490, #143 ) ;
#310 = CIRCLE ( 'NONE', #483, 0.1406249999999999445 ) ;
#311 = CARTESIAN_POINT ( 'NONE',  ( -0.2187499999999999445, 0.03998543456039793664, 2.678914873134834756E-17 ) ) ;
#312 = CYLINDRICAL_SURFACE ( 'NONE', #462, 0.2187499999999999445 ) ;
#313 = DIRECTION ( 'NONE',  ( 1.836970198721029688E-16, -1.000000000000000000, -0.000000000000000000 ) ) ;
#314 = ORIENTED_EDGE ( 'NONE', *, *, #350, .F. ) ;
#315 = EDGE_CURVE ( 'NONE', #614, #238, #378, .T. ) ;
#316 = PRODUCT ( '91131A028_Black-Oxide Steel Leveling Washer', '91131A028_Black-Oxide Steel Leveling Washer', '', ( #241 ) ) ;
#317 = COORDINATED_UNIVERSAL_TIME_OFFSET ( 6, 0, .BEHIND. ) ;
#318 = CARTESIAN_POINT ( 'NONE',  ( 0.2499999999999999167, 0.02324999999999997902, 0.000000000000000000 ) ) ;
#319 = ORIENTED_EDGE ( 'NONE', *, *, #163, .F. ) ;
#320 = CIRCLE ( 'NONE', #107, 0.2343749999999999722 ) ;
#321 = AXIS2_PLACEMENT_3D ( 'NONE', #519, #511, #81 ) ;
#322 = DIRECTION ( 'NONE',  ( 1.836970198721029688E-16, -1.000000000000000000, -0.000000000000000000 ) ) ;
#323 = VERTEX_POINT ( 'NONE', #362 ) ;
#324 = DIRECTION ( 'NONE',  ( 1.000000000000000000, 0.000000000000000000, -1.224646799147353207E-16 ) ) ;
#325 = ORIENTED_EDGE ( 'NONE', *, *, #188, .F. ) ;
#326 = EDGE_CURVE ( 'NONE', #177, #151, #559, .T. ) ;
#327 = APPLICATION_CONTEXT ( 'configuration controlled 3d designs of mechanical parts and assemblies' ) ;
#328 = CARTESIAN_POINT ( 'NONE',  ( -1.148106374200642322E-17, -0.07050000000000003486, 0.000000000000000000 ) ) ;
#329 = VERTEX_POINT ( 'NONE', #307 ) ;
#330 = CIRCLE ( 'NONE', #418, 0.1406250000000000000 ) ;
#331 = VERTEX_POINT ( 'NONE', #507 ) ;
#332 = PLANE ( 'NONE',  #278 ) ;
#333 = APPLICATION_PROTOCOL_DEFINITION ( 'international standard', 'config_control_design', 1994, #466 ) ;
#334 = ORIENTED_EDGE ( 'NONE', *, *, #350, .T. ) ;
#335 = ADVANCED_FACE ( 'NONE', ( #79 ), #24, .F. ) ;
#336 = DIRECTION ( 'NONE',  ( -1.836970198721029688E-16, 1.000000000000000000, 0.000000000000000000 ) ) ;
#337 = CARTESIAN_POINT ( 'NONE',  ( -1.742557913251774536E-17, -0.03813956543960202172, 0.000000000000000000 ) ) ;
#338 = ORIENTED_EDGE ( 'NONE', *, *, #1, .F. ) ;
#339 = CARTESIAN_POINT ( 'NONE',  ( -0.1285000000000000031, -0.03813956543960206336, 1.573671136904348776E-17 ) ) ;
#340 = ADVANCED_FACE ( 'NONE', ( #414 ), #421, .T. ) ;
#341 = CALENDAR_DATE ( 2026, 7, 1 ) ;
#342 = CIRCLE ( 'NONE', #589, 0.2499999999999999722 ) ;
#343 = DIRECTION ( 'NONE',  ( 1.000000000000000000, 2.048885995248197414E-16, 0.000000000000000000 ) ) ;
#344 = EDGE_LOOP ( 'NONE', ( #65, #548 ) ) ;
#345 = LINE ( 'NONE', #289, #453 ) ;
#346 = ADVANCED_FACE ( 'NONE', ( #512 ), #312, .T. ) ;
#347 = PERSON_AND_ORGANIZATION ( #265, #170 ) ;
#348 = ORIENTED_EDGE ( 'NONE', *, *, #188, .T. ) ;
#349 = DIRECTION ( 'NONE',  ( 1.000000000000000000, 1.561055996379579475E-16, 0.000000000000000000 ) ) ;
#350 = EDGE_CURVE ( 'NONE', #151, #98, #528, .T. ) ;
#351 = CARTESIAN_POINT ( 'NONE',  ( 1.368773886218877172E-32, -0.1330000000000000349, 0.000000000000000000 ) ) ;
#352 = DIRECTION ( 'NONE',  ( 1.836970198721029688E-16, -1.000000000000000000, -0.000000000000000000 ) ) ;
#353 = APPROVAL_ROLE ( '' ) ;
#354 = CIRCLE ( 'NONE', #482, 0.005000000000000049544 ) ;
#355 = ORIENTED_EDGE ( 'NONE', *, *, #128, .F. ) ;
#356 = AXIS2_PLACEMENT_3D ( 'NONE', #328, #11, #579 ) ;
#357 = AXIS2_PLACEMENT_3D ( 'NONE', #475, #322, #36 ) ;
#358 = SHAPE_DEFINITION_REPRESENTATION ( #381, #142 ) ;
#359 = CARTESIAN_POINT ( 'NONE',  ( -2.870265935501606884E-17, 0.02324999999999993391, 0.000000000000000000 ) ) ;
#360 = APPROVAL_DATE_TIME ( #456, #91 ) ;
#361 = DIRECTION ( 'NONE',  ( 1.000000000000000000, 2.048885995248197414E-16, 0.000000000000000000 ) ) ;
#362 = CARTESIAN_POINT ( 'NONE',  ( -0.2187500000000000000, 0.1280000000000000027, 2.678914873134834756E-17 ) ) ;
#363 = DIRECTION ( 'NONE',  ( 1.836970198721029688E-16, -1.000000000000000000, -0.000000000000000000 ) ) ;
#364 = AXIS2_PLACEMENT_3D ( 'NONE', #267, #221, #509 ) ;
#365 = CARTESIAN_POINT ( 'NONE',  ( -4.886340728597938338E-17, 0.1329999999999999793, 0.000000000000000000 ) ) ;
#366 = VECTOR ( 'NONE', #152, 39.37007874015748143 ) ;
#367 = CC_DESIGN_APPROVAL ( #477, ( #255 ) ) ;
#368 = EDGE_CURVE ( 'NONE', #295, #112, #184, .T. ) ;
#369 = CARTESIAN_POINT ( 'NONE',  ( 0.1406249999999999445, -0.07050000000000002098, 1.722159561300965178E-17 ) ) ;
#370 = DIRECTION ( 'NONE',  ( 1.000000000000000000, 1.951319995474474467E-16, 0.000000000000000000 ) ) ;
#371 = ORIENTED_EDGE ( 'NONE', *, *, #271, .T. ) ;
#372 = ADVANCED_FACE ( 'NONE', ( #607 ), #119, .T. ) ;
#373 = CARTESIAN_POINT ( 'NONE',  ( 0.2343749999999999722, 0.02324999999999998249, 2.870265935501609349E-17 ) ) ;
#374 = ORIENTED_EDGE ( 'NONE', *, *, #38, .F. ) ;
#375 = CARTESIAN_POINT ( 'NONE',  ( 0.000000000000000000, -0.1329999999999999793, 0.000000000000000000 ) ) ;
#376 = ORIENTED_EDGE ( 'NONE', *, *, #33, .T. ) ;
#377 = ADVANCED_FACE ( 'NONE', ( #235 ), #515, .T. ) ;
#378 = CIRCLE ( 'NONE', #578, 0.2137499999999999400 ) ;
#379 = DIRECTION ( 'NONE',  ( 1.000000000000000000, 1.836970198721029934E-16, 0.000000000000000000 ) ) ;
#380 = ORIENTED_EDGE ( 'NONE', *, *, #573, .T. ) ;
#381 = PRODUCT_DEFINITION_SHAPE ( 'NONE', 'NONE',  #405 ) ;
#382 = ORIENTED_EDGE ( 'NONE', *, *, #54, .T. ) ;
#383 =( NAMED_UNIT ( * ) SI_UNIT ( $, .STERADIAN. ) SOLID_ANGLE_UNIT ( ) );
#384 = ORIENTED_EDGE ( 'NONE', *, *, #180, .F. ) ;
#385 = DIRECTION ( 'NONE',  ( 1.000000000000000000, 0.000000000000000000, -1.224646799147353454E-16 ) ) ;
#386 = VECTOR ( 'NONE', #541, 39.37007874015748143 ) ;
#387 = CIRCLE ( 'NONE', #356, 0.1406249999999999722 ) ;
#388 = AXIS2_PLACEMENT_3D ( 'NONE', #225, #478, #39 ) ;
#389 = CARTESIAN_POINT ( 'NONE',  ( 0.000000000000000000, 0.000000000000000000, 0.000000000000000000 ) ) ;
#390 = EDGE_LOOP ( 'NONE', ( #314, #437, #371, #433 ) ) ;
#391 = CYLINDRICAL_SURFACE ( 'NONE', #546, 0.1406249999999999722 ) ;
#392 = MANIFOLD_SOLID_BREP ( 'Revolve2', #439 ) ;
#393 = DATE_AND_TIME ( #341, #527 ) ;
#394 = PLANE ( 'NONE',  #85 ) ;
#395 = ORIENTED_EDGE ( 'NONE', *, *, #440, .F. ) ;
#396 = EDGE_CURVE ( 'NONE', #151, #177, #246, .T. ) ;
#397 = CARTESIAN_POINT ( 'NONE',  ( 0.2187499999999999167, 0.1280000000000000582, 0.000000000000000000 ) ) ;
#398 = MANIFOLD_SOLID_BREP ( 'Revolve1', #603 ) ;
#399 = PERSON_AND_ORGANIZATION ( #265, #170 ) ;
#400 = ORIENTED_EDGE ( 'NONE', *, *, #157, .T. ) ;
#401 = DIRECTION ( 'NONE',  ( 1.000000000000000000, 1.993079761914588767E-16, 0.000000000000000000 ) ) ;
#402 = AXIS2_PLACEMENT_3D ( 'NONE', #13, #581, #243 ) ;
#403 = ORIENTED_EDGE ( 'NONE', *, *, #474, .T. ) ;
#404 = CARTESIAN_POINT ( 'NONE',  ( 0.000000000000000000, -0.1280000000000000027, 0.000000000000000000 ) ) ;
#405 = PRODUCT_DEFINITION ( 'UNKNOWN', '', #217, #3 ) ;
#406 = DIRECTION ( 'NONE',  ( 1.836970198721029688E-16, -1.000000000000000000, -0.000000000000000000 ) ) ;
#407 = CARTESIAN_POINT ( 'NONE',  ( -1.148106374200642322E-17, -0.07050000000000003486, 0.000000000000000000 ) ) ;
#408 = PERSON_AND_ORGANIZATION ( #265, #170 ) ;
#409 = VECTOR ( 'NONE', #454, 39.37007874015748143 ) ;
#410 = DIRECTION ( 'NONE',  ( -1.836970198721029688E-16, 1.000000000000000000, 0.000000000000000000 ) ) ;
#411 = AXIS2_PLACEMENT_3D ( 'NONE', #375, #274, #605 ) ;
#412 = CARTESIAN_POINT ( 'NONE',  ( 0.1406249999999999167, -0.03813956543960199397, 0.000000000000000000 ) ) ;
#413 = DIRECTION ( 'NONE',  ( 1.836970198721029688E-16, -1.000000000000000000, -0.000000000000000000 ) ) ;
#414 = FACE_OUTER_BOUND ( 'NONE', #115, .T. ) ;
#415 = EDGE_CURVE ( 'NONE', #17, #98, #517, .T. ) ;
#416 = COORDINATED_UNIVERSAL_TIME_OFFSET ( 6, 0, .BEHIND. ) ;
#417 = CARTESIAN_POINT ( 'NONE',  ( 0.2137499999999999123, 0.1330000000000000071, 0.000000000000000000 ) ) ;
#418 = AXIS2_PLACEMENT_3D ( 'NONE', #72, #551, #557 ) ;
#419 = DIRECTION ( 'NONE',  ( 1.000000000000000000, 2.090699995151222450E-16, 0.000000000000000000 ) ) ;
#420 = ORIENTED_EDGE ( 'NONE', *, *, #19, .T. ) ;
#421 = CONICAL_SURFACE ( 'NONE', #96, 0.2137499999999999400, 0.7853981633974551624 ) ;
#422 = EDGE_CURVE ( 'NONE', #331, #583, #196, .T. ) ;
#423 = LINE ( 'NONE', #569, #441 ) ;
#424 = ORIENTED_EDGE ( 'NONE', *, *, #326, .F. ) ;
#425 = PERSON_AND_ORGANIZATION ( #265, #170 ) ;
#426 = CARTESIAN_POINT ( 'NONE',  ( -4.886340728597938338E-17, 0.1329999999999999793, 0.000000000000000000 ) ) ;
#427 = EDGE_LOOP ( 'NONE', ( #258, #376, #520, #525 ) ) ;
#428 = CARTESIAN_POINT ( 'NONE',  ( 0.2500000000000000000, -0.1329999999999999238, 0.000000000000000000 ) ) ;
#429 = EDGE_LOOP ( 'NONE', ( #542, #516 ) ) ;
#430 = AXIS2_PLACEMENT_3D ( 'NONE', #407, #410, #168 ) ;
#431 = AXIS2_PLACEMENT_3D ( 'NONE', #189, #94, #55 ) ;
#432 = CARTESIAN_POINT ( 'NONE',  ( -4.886340728597938338E-17, 0.1329999999999999793, 0.000000000000000000 ) ) ;
#433 = ORIENTED_EDGE ( 'NONE', *, *, #597, .F. ) ;
#434 = ORIENTED_EDGE ( 'NONE', *, *, #38, .T. ) ;
#435 = DIRECTION ( 'NONE',  ( 1.836970198721029688E-16, -1.000000000000000000, -0.000000000000000000 ) ) ;
#436 = APPROVAL_STATUS ( 'not_yet_approved' ) ;
#437 = ORIENTED_EDGE ( 'NONE', *, *, #396, .T. ) ;
#438 = DIRECTION ( 'NONE',  ( 1.000000000000000000, 2.428309327701567798E-16, 0.000000000000000000 ) ) ;
#439 = CLOSED_SHELL ( 'NONE', ( #335, #114, #346, #282, #340, #200, #372, #259, #459, #609 ) ) ;
#440 = EDGE_CURVE ( 'NONE', #112, #485, #82, .T. ) ;
#441 = VECTOR ( 'NONE', #313, 39.37007874015748143 ) ;
#442 = DIRECTION ( 'NONE',  ( 1.836970198721029688E-16, -1.000000000000000000, -0.000000000000000000 ) ) ;
#443 = VERTEX_POINT ( 'NONE', #277 ) ;
#444 = FACE_OUTER_BOUND ( 'NONE', #602, .T. ) ;
#445 = DIRECTION ( 'NONE',  ( 1.000000000000000000, 0.000000000000000000, 0.000000000000000000 ) ) ;
#446 = ORIENTED_EDGE ( 'NONE', *, *, #15, .T. ) ;
#447 = CYLINDRICAL_SURFACE ( 'NONE', #402, 0.2187499999999999445 ) ;
#448 = SECURITY_CLASSIFICATION_LEVEL ( 'unclassified' ) ;
#449 = ORIENTED_EDGE ( 'NONE', *, *, #465, .T. ) ;
#450 = DIRECTION ( 'NONE',  ( 1.000000000000000000, 1.836970198721029934E-16, 0.000000000000000000 ) ) ;
#451 = VECTOR ( 'NONE', #604, 39.37007874015748143 ) ;
#452 = ORIENTED_EDGE ( 'NONE', *, *, #203, .F. ) ;
#453 = VECTOR ( 'NONE', #492, 39.37007874015748143 ) ;
#454 = DIRECTION ( 'NONE',  ( -0.7071067811865477948, 0.7071067811865472397, 0.000000000000000000 ) ) ;
#455 = ADVANCED_FACE ( 'NONE', ( #468 ), #538, .T. ) ;
#456 = DATE_AND_TIME ( #458, #58 ) ;
#457 = DIRECTION ( 'NONE',  ( 1.000000000000000000, 1.878145495644181086E-16, 0.000000000000000000 ) ) ;
#458 = CALENDAR_DATE ( 2026, 7, 1 ) ;
#459 = ADVANCED_FACE ( 'NONE', ( #32 ), #140, .F. ) ;
#460 = CARTESIAN_POINT ( 'NONE',  ( -0.1406249999999999722, -0.07050000000000006262, 0.000000000000000000 ) ) ;
#461 = CARTESIAN_POINT ( 'NONE',  ( -4.886340728597938338E-17, 0.1329999999999999793, 0.000000000000000000 ) ) ;
#462 = AXIS2_PLACEMENT_3D ( 'NONE', #268, #174, #185 ) ;
#463 = FACE_OUTER_BOUND ( 'NONE', #190, .T. ) ;
#464 = CARTESIAN_POINT ( 'NONE',  ( 0.000000000000000000, -0.1329999999999999793, 0.000000000000000000 ) ) ;
#465 = EDGE_CURVE ( 'NONE', #536, #443, #10, .T. ) ;
#466 = APPLICATION_CONTEXT ( 'configuration controlled 3d designs of mechanical parts and assemblies' ) ;
#467 = DIRECTION ( 'NONE',  ( 1.000000000000000000, 1.821231995776175725E-16, 0.000000000000000000 ) ) ;
#468 = FACE_OUTER_BOUND ( 'NONE', #95, .T. ) ;
#469 = AXIS2_PLACEMENT_3D ( 'NONE', #262, #31, #467 ) ;
#470 = DIRECTION ( 'NONE',  ( 1.836970198721029688E-16, -1.000000000000000000, -0.000000000000000000 ) ) ;
#471 = VERTEX_POINT ( 'NONE', #187 ) ;
#472 = AXIS2_PLACEMENT_3D ( 'NONE', #87, #222, #275 ) ;
#473 = DATE_TIME_ROLE ( 'classification_date' ) ;
#474 = EDGE_CURVE ( 'NONE', #295, #40, #423, .T. ) ;
#475 = CARTESIAN_POINT ( 'NONE',  ( 0.000000000000000000, -0.1329999999999999793, 0.000000000000000000 ) ) ;
#476 = VERTEX_POINT ( 'NONE', #373 ) ;
#477 = APPROVAL ( #5, 'UNSPECIFIED' ) ;
#478 = DIRECTION ( 'NONE',  ( 1.836970198721029688E-16, -1.000000000000000000, -0.000000000000000000 ) ) ;
#479 = EDGE_LOOP ( 'NONE', ( #285, #276, #491, #319 ) ) ;
#480 = DIRECTION ( 'NONE',  ( 1.224646799147353207E-16, 2.249639673992786412E-32, 1.000000000000000000 ) ) ;
#481 = ORIENTED_EDGE ( 'NONE', *, *, #249, .T. ) ;
#482 = AXIS2_PLACEMENT_3D ( 'NONE', #16, #239, #385 ) ;
#483 = AXIS2_PLACEMENT_3D ( 'NONE', #337, #535, #487 ) ;
#484 = PERSON_AND_ORGANIZATION ( #265, #170 ) ;
#485 = VERTEX_POINT ( 'NONE', #563 ) ;
#486 = DIRECTION ( 'NONE',  ( 1.836970198721029688E-16, -1.000000000000000000, -0.000000000000000000 ) ) ;
#487 = DIRECTION ( 'NONE',  ( 1.000000000000000000, 1.821231995776176219E-16, 0.000000000000000000 ) ) ;
#488 = ORIENTED_EDGE ( 'NONE', *, *, #45, .T. ) ;
#489 = CARTESIAN_POINT ( 'NONE',  ( 0.1284999999999999754, -0.03813956543960201478, 0.000000000000000000 ) ) ;
#490 = DIRECTION ( 'NONE',  ( 1.836970198721029688E-16, -1.000000000000000000, -0.000000000000000000 ) ) ;
#491 = ORIENTED_EDGE ( 'NONE', *, *, #157, .F. ) ;
#492 = DIRECTION ( 'NONE',  ( 1.836970198721029688E-16, -1.000000000000000000, -0.000000000000000000 ) ) ;
#493 = APPLICATION_PROTOCOL_DEFINITION ( 'international standard', 'config_control_design', 1994, #327 ) ;
#494 = ORIENTED_EDGE ( 'NONE', *, *, #19, .F. ) ;
#495 = CARTESIAN_POINT ( 'NONE',  ( 0.1284999999999999754, -0.1329999999999999516, 0.000000000000000000 ) ) ;
#496 = PERSON_AND_ORGANIZATION_ROLE ( 'design_supplier' ) ;
#497 = CC_DESIGN_PERSON_AND_ORGANIZATION_ASSIGNMENT ( #408, #496, ( #217 ) ) ;
#498 = ORIENTED_EDGE ( 'NONE', *, *, #545, .F. ) ;
#499 = CARTESIAN_POINT ( 'NONE',  ( 0.000000000000000000, -0.1329999999999999793, 0.000000000000000000 ) ) ;
#500 = LINE ( 'NONE', #26, #232 ) ;
#501 = AXIS2_PLACEMENT_3D ( 'NONE', #76, #254, #211 ) ;
#502 = CARTESIAN_POINT ( 'NONE',  ( -2.870265935501606884E-17, 0.02324999999999993391, 0.000000000000000000 ) ) ;
#503 = CARTESIAN_POINT ( 'NONE',  ( -0.2343749999999999722, 0.02324999999999988187, 0.000000000000000000 ) ) ;
#504 = DIRECTION ( 'NONE',  ( 1.000000000000000000, 1.878145495644181086E-16, 0.000000000000000000 ) ) ;
#505 = CIRCLE ( 'NONE', #126, 0.2449999999999999400 ) ;
#506 = DIRECTION ( 'NONE',  ( 1.836970198721029688E-16, -1.000000000000000000, -0.000000000000000000 ) ) ;
#507 = CARTESIAN_POINT ( 'NONE',  ( -0.1285000000000000031, 0.1329999999999999516, 1.573671136904348776E-17 ) ) ;
#508 = CIRCLE ( 'NONE', #234, 0.2500000000000000000 ) ;
#509 = DIRECTION ( 'NONE',  ( 1.000000000000000000, 1.561055996379579475E-16, 0.000000000000000000 ) ) ;
#510 = CC_DESIGN_DATE_AND_TIME_ASSIGNMENT ( #393, #120, ( #405 ) ) ;
#511 = DIRECTION ( 'NONE',  ( 1.836970198721029688E-16, -1.000000000000000000, -0.000000000000000000 ) ) ;
#512 = FACE_OUTER_BOUND ( 'NONE', #148, .T. ) ;
#513 = EDGE_LOOP ( 'NONE', ( #592, #529, #420, #570 ) ) ;
#514 =( GEOMETRIC_REPRESENTATION_CONTEXT ( 3 ) GLOBAL_UNCERTAINTY_ASSIGNED_CONTEXT ( ( #46 ) ) GLOBAL_UNIT_ASSIGNED_CONTEXT ( ( #524, #105, #383 ) ) REPRESENTATION_CONTEXT ( 'NONE', 'WORKASPACE' ) );
#515 = CYLINDRICAL_SURFACE ( 'NONE', #411, 0.2500000000000000000 ) ;
#516 = ORIENTED_EDGE ( 'NONE', *, *, #215, .F. ) ;
#517 = CIRCLE ( 'NONE', #280, 0.1406249999999999445 ) ;
#518 = EDGE_CURVE ( 'NONE', #40, #485, #165, .T. ) ;
#519 = CARTESIAN_POINT ( 'NONE',  ( 4.664022597291006874E-33, -0.1329999999999999793, 0.000000000000000000 ) ) ;
#520 = ORIENTED_EDGE ( 'NONE', *, *, #545, .T. ) ;
#521 = CARTESIAN_POINT ( 'NONE',  ( -0.1406249999999999722, -0.1330000000000000071, 1.722159561300965178E-17 ) ) ;
#522 = VERTEX_POINT ( 'NONE', #318 ) ;
#523 = APPROVAL_ROLE ( '' ) ;
#524 =( CONVERSION_BASED_UNIT ( 'INCH', #64 ) LENGTH_UNIT ( ) NAMED_UNIT ( #35 ) );
#525 = ORIENTED_EDGE ( 'NONE', *, *, #15, .F. ) ;
#526 = AXIS2_PLACEMENT_3D ( 'NONE', #166, #413, #129 ) ;
#527 = LOCAL_TIME ( 22, 59, 54.00000000000000000, #50 ) ;
#528 = CIRCLE ( 'NONE', #264, 0.07812500000000000000 ) ;
#529 = ORIENTED_EDGE ( 'NONE', *, *, #368, .T. ) ;
#530 = EDGE_CURVE ( 'NONE', #238, #614, #60, .T. ) ;
#531 = CARTESIAN_POINT ( 'NONE',  ( 0.1406249999999998890, 0.03998543456039800603, 0.000000000000000000 ) ) ;
#532 = CALENDAR_DATE ( 2026, 7, 1 ) ;
#533 = ORIENTED_EDGE ( 'NONE', *, *, #240, .F. ) ;
#534 = LINE ( 'NONE', #59, #210 ) ;
#535 = DIRECTION ( 'NONE',  ( 1.836970198721029688E-16, -1.000000000000000000, -0.000000000000000000 ) ) ;
#536 = VERTEX_POINT ( 'NONE', #566 ) ;
#537 = FACE_BOUND ( 'NONE', #429, .T. ) ;
#538 = TOROIDAL_SURFACE ( 'NONE', #273, 0.2449999999999999400, 0.005000000000000040870 ) ;
#539 = CARTESIAN_POINT ( 'NONE',  ( -0.2137499999999999678, 0.1329999999999999516, 0.000000000000000000 ) ) ;
#540 = ORIENTED_EDGE ( 'NONE', *, *, #465, .F. ) ;
#541 = DIRECTION ( 'NONE',  ( 1.836970198721029688E-16, -1.000000000000000000, -0.000000000000000000 ) ) ;
#542 = ORIENTED_EDGE ( 'NONE', *, *, #249, .F. ) ;
#543 = DIRECTION ( 'NONE',  ( -1.000000000000000000, 0.000000000000000000, 0.000000000000000000 ) ) ;
#544 = CYLINDRICAL_SURFACE ( 'NONE', #224, 0.2500000000000000000 ) ;
#545 = EDGE_CURVE ( 'NONE', #522, #471, #230, .T. ) ;
#546 = AXIS2_PLACEMENT_3D ( 'NONE', #499, #4, #438 ) ;
#547 = VECTOR ( 'NONE', #132, 39.37007874015748143 ) ;
#548 = ORIENTED_EDGE ( 'NONE', *, *, #315, .F. ) ;
#549 = DATE_AND_TIME ( #532, #301 ) ;
#550 = CARTESIAN_POINT ( 'NONE',  ( -9.184850993605070938E-19, -0.1280000000000000027, 0.000000000000000000 ) ) ;
#551 = DIRECTION ( 'NONE',  ( 1.836970198721029688E-16, -1.000000000000000000, -0.000000000000000000 ) ) ;
#552 = DIRECTION ( 'NONE',  ( 1.000000000000000000, 1.951319995474474467E-16, 0.000000000000000000 ) ) ;
#553 = PERSON_AND_ORGANIZATION_ROLE ( 'classification_officer' ) ;
#554 = CIRCLE ( 'NONE', #469, 0.2343749999999999722 ) ;
#555 = AXIS2_PLACEMENT_3D ( 'NONE', #147, #113, #349 ) ;
#556 = APPROVAL_PERSON_ORGANIZATION ( #303, #91, #353 ) ;
#557 = DIRECTION ( 'NONE',  ( 1.000000000000000000, 2.428309327701567305E-16, 0.000000000000000000 ) ) ;
#558 = DIRECTION ( 'NONE',  ( 1.836970198721029688E-16, -1.000000000000000000, -0.000000000000000000 ) ) ;
#559 = CIRCLE ( 'NONE', #257, 0.2187499999999999167 ) ;
#560 = DIRECTION ( 'NONE',  ( 0.7071067811865475727, 0.7071067811865474617, 8.659560562354935323E-17 ) ) ;
#561 = DIRECTION ( 'NONE',  ( 1.000000000000000000, 1.821231995776176219E-16, 0.000000000000000000 ) ) ;
#562 = EDGE_LOOP ( 'NONE', ( #144, #374 ) ) ;
#563 = CARTESIAN_POINT ( 'NONE',  ( -0.1406250000000000278, -0.1330000000000000349, 1.722159561300965486E-17 ) ) ;
#564 = ORIENTED_EDGE ( 'NONE', *, *, #261, .F. ) ;
#565 = TOROIDAL_SURFACE ( 'NONE', #34, 0.2449999999999999400, 0.005000000000000040870 ) ;
#566 = CARTESIAN_POINT ( 'NONE',  ( 0.2449999999999999400, -0.1329999999999999793, 0.000000000000000000 ) ) ;
#567 = ORIENTED_EDGE ( 'NONE', *, *, #474, .F. ) ;
#568 = CC_DESIGN_PERSON_AND_ORGANIZATION_ASSIGNMENT ( #399, #586, ( #316 ) ) ;
#569 = CARTESIAN_POINT ( 'NONE',  ( 0.1406249999999999722, -0.1329999999999999238, 0.000000000000000000 ) ) ;
#570 = ORIENTED_EDGE ( 'NONE', *, *, #139, .F. ) ;
#571 = ADVANCED_FACE ( 'NONE', ( #101, #48 ), #145, .F. ) ;
#572 = CARTESIAN_POINT ( 'NONE',  ( 0.1284999999999999198, 0.1329999999999999793, 0.000000000000000000 ) ) ;
#573 = EDGE_CURVE ( 'NONE', #471, #56, #508, .T. ) ;
#574 =( LENGTH_UNIT ( ) NAMED_UNIT ( * ) SI_UNIT ( $, .METRE. ) );
#575 = EDGE_LOOP ( 'NONE', ( #169, #14 ) ) ;
#576 = CIRCLE ( 'NONE', #364, 0.2187499999999999445 ) ;
#577 = DIRECTION ( 'NONE',  ( -1.000000000000000000, -1.836970198721029688E-16, 0.000000000000000000 ) ) ;
#578 = AXIS2_PLACEMENT_3D ( 'NONE', #461, #352, #600 ) ;
#579 = DIRECTION ( 'NONE',  ( 1.000000000000000000, 1.821231995776175725E-16, 0.000000000000000000 ) ) ;
#580 = ORIENTED_EDGE ( 'NONE', *, *, #573, .F. ) ;
#581 = DIRECTION ( 'NONE',  ( 1.836970198721029688E-16, -1.000000000000000000, -0.000000000000000000 ) ) ;
#582 = CARTESIAN_POINT ( 'NONE',  ( -9.184850993605070938E-19, -0.1280000000000000027, 0.000000000000000000 ) ) ;
#583 = VERTEX_POINT ( 'NONE', #572 ) ;
#584 = DIRECTION ( 'NONE',  ( 1.000000000000000000, 1.993079761914588767E-16, 0.000000000000000000 ) ) ;
#585 = PERSON_AND_ORGANIZATION_ROLE ( 'creator' ) ;
#586 = PERSON_AND_ORGANIZATION_ROLE ( 'design_owner' ) ;
#587 = ORIENTED_EDGE ( 'NONE', *, *, #54, .F. ) ;
#588 = CARTESIAN_POINT ( 'NONE',  ( 0.2137499999999999123, 0.1330000000000000071, 0.000000000000000000 ) ) ;
#589 = AXIS2_PLACEMENT_3D ( 'NONE', #359, #78, #504 ) ;
#590 = AXIS2_PLACEMENT_3D ( 'NONE', #531, #109, #543 ) ;
#591 = COORDINATED_UNIVERSAL_TIME_OFFSET ( 6, 0, .BEHIND. ) ;
#592 = ORIENTED_EDGE ( 'NONE', *, *, #149, .F. ) ;
#593 = FACE_OUTER_BOUND ( 'NONE', #608, .T. ) ;
#594 = DIRECTION ( 'NONE',  ( 1.000000000000000000, 1.821231995776175725E-16, 0.000000000000000000 ) ) ;
#595 = CARTESIAN_POINT ( 'NONE',  ( -0.1406249999999999445, -0.03813956543960204948, 2.200537217217899659E-17 ) ) ;
#596 = DIRECTION ( 'NONE',  ( 1.836970198721029688E-16, -1.000000000000000000, -0.000000000000000000 ) ) ;
#597 = EDGE_CURVE ( 'NONE', #98, #17, #310, .T. ) ;
#598 = APPROVAL_STATUS ( 'not_yet_approved' ) ;
#599 = ORIENTED_EDGE ( 'NONE', *, *, #368, .F. ) ;
#600 = DIRECTION ( 'NONE',  ( 1.000000000000000000, 1.597571926119452732E-16, 0.000000000000000000 ) ) ;
#601 = EDGE_CURVE ( 'NONE', #112, #295, #387, .T. ) ;
#602 = EDGE_LOOP ( 'NONE', ( #52, #62, #434, #567 ) ) ;
#603 = CLOSED_SHELL ( 'NONE', ( #455, #99, #131, #302, #571, #171, #75, #615, #377, #167 ) ) ;
#604 = DIRECTION ( 'NONE',  ( 0.7071067811865524577, -0.7071067811865425767, 0.000000000000000000 ) ) ;
#605 = DIRECTION ( 'NONE',  ( 1.000000000000000000, 2.048885995248197414E-16, 0.000000000000000000 ) ) ;
#606 = AXIS2_PLACEMENT_3D ( 'NONE', #227, #176, #370 ) ;
#607 = FACE_OUTER_BOUND ( 'NONE', #390, .T. ) ;
#608 = EDGE_LOOP ( 'NONE', ( #395, #599, #403, #179 ) ) ;
#609 = ADVANCED_FACE ( 'NONE', ( #244, #287 ), #153, .F. ) ;
#610 = DIRECTION ( 'NONE',  ( 1.836970198721029688E-16, -1.000000000000000000, -0.000000000000000000 ) ) ;
#611 = EDGE_LOOP ( 'NONE', ( #297, #2, #175, #88 ) ) ;
#612 = TOROIDAL_SURFACE ( 'NONE', #155, 0.1406249999999999445, 0.07812500000000000000 ) ;
#613 = DIRECTION ( 'NONE',  ( 1.836970198721029688E-16, -1.000000000000000000, -0.000000000000000000 ) ) ;
#614 = VERTEX_POINT ( 'NONE', #51 ) ;
#615 = ADVANCED_FACE ( 'NONE', ( #237, #111 ), #394, .F. ) ;
#616 = AXIS2_PLACEMENT_3D ( 'NONE', #432, #89, #617 ) ;
#617 = DIRECTION ( 'NONE',  ( 1.000000000000000000, 1.328719841276393168E-16, 0.000000000000000000 ) ) ;
#618 = ORIENTED_EDGE ( 'NONE', *, *, #163, .T. ) ;
ENDSEC;
END-ISO-10303-21;
