ISO-10303-21;
HEADER;
FILE_DESCRIPTION (( 'STEP AP203' ),
    '1' );
FILE_NAME ('91585A351_18-8 Stainless Steel Dowel Pin.STEP',
    '2026-01-07T20:44:45',
    ( 'McMaster Carr Supply' ),
    ( 'McMaster Carr Supply' ),
    'SwSTEP 2.0',
    'SolidWorks 2024',
    '' );
FILE_SCHEMA (( 'CONFIG_CONTROL_DESIGN' ));
ENDSEC;

DATA;
#1 = MANIFOLD_SOLID_BREP ( 'Extrude3', #200 ) ;
#2 = CC_DESIGN_APPROVAL ( #48, ( #231 ) ) ;
#3 = DIRECTION ( 'NONE',  ( -1.000000000000000000, 0.000000000000000000, 0.000000000000000000 ) ) ;
#4 = EDGE_CURVE ( 'NONE', #246, #110, #138, .T. ) ;
#5 = DIRECTION ( 'NONE',  ( 1.000000000000000000, 0.000000000000000000, 0.000000000000000000 ) ) ;
#6 = DIRECTION ( 'NONE',  ( 1.000000000000000000, 0.000000000000000000, 0.000000000000000000 ) ) ;
#7 = EDGE_CURVE ( 'NONE', #153, #49, #70, .T. ) ;
#8 = FACE_OUTER_BOUND ( 'NONE', #216, .T. ) ;
#9 = VERTEX_POINT ( 'NONE', #89 ) ;
#10 = ORIENTED_EDGE ( 'NONE', *, *, #104, .F. ) ;
#11 = CALENDAR_DATE ( 2026, 7, 1 ) ;
#12 = CC_DESIGN_APPROVAL ( #274, ( #34 ) ) ;
#13 = APPLICATION_PROTOCOL_DEFINITION ( 'international standard', 'config_control_design', 1994, #250 ) ;
#14 = CIRCLE ( 'NONE', #36, 1.366025403784439485 ) ;
#15 =( NAMED_UNIT ( * ) PLANE_ANGLE_UNIT ( ) SI_UNIT ( $, .RADIAN. ) );
#16 = APPROVAL_ROLE ( '' ) ;
#17 = DIRECTION ( 'NONE',  ( 0.000000000000000000, 0.000000000000000000, -1.000000000000000000 ) ) ;
#18 = DATE_TIME_ROLE ( 'classification_date' ) ;
#19 = PRODUCT_DEFINITION_FORMATION_WITH_SPECIFIED_SOURCE ( 'ANY', '', #245, .NOT_KNOWN. ) ;
#20 = DIRECTION ( 'NONE',  ( 0.000000000000000000, 0.000000000000000000, -1.000000000000000000 ) ) ;
#21 = CC_DESIGN_PERSON_AND_ORGANIZATION_ASSIGNMENT ( #56, #270, ( #245 ) ) ;
#22 = AXIS2_PLACEMENT_3D ( 'NONE', #219, #6, #67 ) ;
#23 = DIRECTION ( 'NONE',  ( -0.9659258262890680902, -3.169619151431772337E-17, 0.2588190451025213501 ) ) ;
#24 = EDGE_LOOP ( 'NONE', ( #156, #237, #197, #115 ) ) ;
#25 = DIRECTION ( 'NONE',  ( 0.000000000000000000, 0.000000000000000000, 1.000000000000000000 ) ) ;
#26 = ORIENTED_EDGE ( 'NONE', *, *, #39, .F. ) ;
#27 = CARTESIAN_POINT ( 'NONE',  ( -4.500000000000003553, 0.000000000000000000, 1.500000000000001332 ) ) ;
#28 = EDGE_LOOP ( 'NONE', ( #242, #95 ) ) ;
#29 = APPROVAL_STATUS ( 'not_yet_approved' ) ;
#30 = EDGE_LOOP ( 'NONE', ( #175, #90 ) ) ;
#31 = CALENDAR_DATE ( 2026, 7, 1 ) ;
#32 = FACE_OUTER_BOUND ( 'NONE', #265, .T. ) ;
#33 = APPROVAL_DATE_TIME ( #74, #48 ) ;
#34 = SECURITY_CLASSIFICATION ( '', '', #142 ) ;
#35 = DIRECTION ( 'NONE',  ( 0.000000000000000000, 0.000000000000000000, -1.000000000000000000 ) ) ;
#36 = AXIS2_PLACEMENT_3D ( 'NONE', #195, #3, #217 ) ;
#37 = APPROVAL_DATE_TIME ( #209, #272 ) ;
#38 = CARTESIAN_POINT ( 'NONE',  ( -4.500000000000003553, 1.836970198721031413E-16, 1.500000000000001332 ) ) ;
#39 = EDGE_CURVE ( 'NONE', #49, #110, #134, .T. ) ;
#40 = AXIS2_PLACEMENT_3D ( 'NONE', #253, #75, #207 ) ;
#41 = DESIGN_CONTEXT ( 'detailed design', #259, 'design' ) ;
#42 = FACE_OUTER_BOUND ( 'NONE', #218, .T. ) ;
#43 = CARTESIAN_POINT ( 'NONE',  ( 4.500000000000007105, 0.000000000000000000, 0.000000000000000000 ) ) ;
#44 = EDGE_LOOP ( 'NONE', ( #160, #46, #199, #52 ) ) ;
#45 = LINE ( 'NONE', #240, #120 ) ;
#46 = ORIENTED_EDGE ( 'NONE', *, *, #85, .F. ) ;
#47 = DIRECTION ( 'NONE',  ( 1.000000000000000000, 0.000000000000000000, 0.000000000000000000 ) ) ;
#48 = APPROVAL ( #180, 'UNSPECIFIED' ) ;
#49 = VERTEX_POINT ( 'NONE', #232 ) ;
#50 = DIRECTION ( 'NONE',  ( 0.000000000000000000, 0.000000000000000000, -1.000000000000000000 ) ) ;
#51 = LOCAL_TIME ( 14, 44, 45.00000000000000000, #206 ) ;
#52 = ORIENTED_EDGE ( 'NONE', *, *, #224, .T. ) ;
#53 = APPROVAL_ROLE ( '' ) ;
#54 = CYLINDRICAL_SURFACE ( 'NONE', #40, 1.500000000000001332 ) ;
#55 = DATE_TIME_ROLE ( 'creation_date' ) ;
#56 = PERSON_AND_ORGANIZATION ( #208, #102 ) ;
#57 = PERSON_AND_ORGANIZATION ( #208, #102 ) ;
#58 = APPLICATION_PROTOCOL_DEFINITION ( 'international standard', 'config_control_design', 1994, #259 ) ;
#59 = CC_DESIGN_PERSON_AND_ORGANIZATION_ASSIGNMENT ( #249, #116, ( #19 ) ) ;
#60 = VECTOR ( 'NONE', #198, 1000.000000000000000 ) ;
#61 = CARTESIAN_POINT ( 'NONE',  ( -4.500000000000003553, 0.000000000000000000, 0.000000000000000000 ) ) ;
#62 = ADVANCED_FACE ( 'NONE', ( #42 ), #176, .T. ) ;
#63 = CONICAL_SURFACE ( 'NONE', #220, 1.500000000000001332, 0.2617993877991500740 ) ;
#64 = VECTOR ( 'NONE', #152, 1000.000000000000000 ) ;
#65 = CARTESIAN_POINT ( 'NONE',  ( 4.500000000000007105, 0.000000000000000000, -1.500000000000001332 ) ) ;
#66 = ORIENTED_EDGE ( 'NONE', *, *, #4, .T. ) ;
#67 = DIRECTION ( 'NONE',  ( 0.000000000000000000, 0.000000000000000000, -1.000000000000000000 ) ) ;
#68 = AXIS2_PLACEMENT_3D ( 'NONE', #83, #141, #17 ) ;
#69 = ORIENTED_EDGE ( 'NONE', *, *, #171, .F. ) ;
#70 = CIRCLE ( 'NONE', #165, 1.366025403784440595 ) ;
#71 = DIRECTION ( 'NONE',  ( 1.000000000000000000, 0.000000000000000000, 0.000000000000000000 ) ) ;
#72 = FACE_OUTER_BOUND ( 'NONE', #24, .T. ) ;
#73 = ORIENTED_EDGE ( 'NONE', *, *, #104, .T. ) ;
#74 = DATE_AND_TIME ( #31, #51 ) ;
#75 = DIRECTION ( 'NONE',  ( 1.000000000000000000, 0.000000000000000000, 0.000000000000000000 ) ) ;
#76 = CIRCLE ( 'NONE', #105, 1.366025403784439485 ) ;
#77 = AXIS2_PLACEMENT_3D ( 'NONE', #129, #47, #196 ) ;
#78 = EDGE_CURVE ( 'NONE', #239, #177, #212, .T. ) ;
#79 = SHAPE_DEFINITION_REPRESENTATION ( #214, #103 ) ;
#80 = DIRECTION ( 'NONE',  ( 0.000000000000000000, 0.000000000000000000, 1.000000000000000000 ) ) ;
#81 = PERSON_AND_ORGANIZATION ( #208, #102 ) ;
#82 = CALENDAR_DATE ( 2026, 7, 1 ) ;
#83 = CARTESIAN_POINT ( 'NONE',  ( 5.000000000000004441, 0.000000000000000000, 0.000000000000000000 ) ) ;
#84 = VECTOR ( 'NONE', #112, 1000.000000000000000 ) ;
#85 = EDGE_CURVE ( 'NONE', #49, #153, #275, .T. ) ;
#86 = FACE_OUTER_BOUND ( 'NONE', #30, .T. ) ;
#87 = CARTESIAN_POINT ( 'NONE',  ( 4.500000000000007105, 0.000000000000000000, -1.500000000000001332 ) ) ;
#88 = ORIENTED_EDGE ( 'NONE', *, *, #224, .F. ) ;
#89 = CARTESIAN_POINT ( 'NONE',  ( -5.000000000000004441, 0.000000000000000000, 1.366025403784439485 ) ) ;
#90 = ORIENTED_EDGE ( 'NONE', *, *, #7, .T. ) ;
#91 = DIRECTION ( 'NONE',  ( -1.000000000000000000, -0.000000000000000000, -0.000000000000000000 ) ) ;
#92 = EDGE_LOOP ( 'NONE', ( #179, #182, #88, #113 ) ) ;
#93 = PERSON_AND_ORGANIZATION_ROLE ( 'creator' ) ;
#94 = DIRECTION ( 'NONE',  ( 1.000000000000000000, -0.000000000000000000, -0.000000000000000000 ) ) ;
#95 = ORIENTED_EDGE ( 'NONE', *, *, #192, .T. ) ;
#96 = DATE_AND_TIME ( #82, #189 ) ;
#97 = MECHANICAL_CONTEXT ( 'NONE', #250, 'mechanical' ) ;
#98 = CONICAL_SURFACE ( 'NONE', #235, 1.500000000000001332, 0.2617993877991500740 ) ;
#99 = FACE_OUTER_BOUND ( 'NONE', #28, .T. ) ;
#100 = PERSON_AND_ORGANIZATION ( #208, #102 ) ;
#101 = CARTESIAN_POINT ( 'NONE',  ( -5.000000000000004441, 0.000000000000000000, 0.000000000000000000 ) ) ;
#102 = ORGANIZATION ( 'UNSPECIFIED', 'UNSPECIFIED', '' ) ;
#103 = ADVANCED_BREP_SHAPE_REPRESENTATION ( '91585A351_18-8 Stainless Steel Dowel Pin', ( #1, #146 ), #136 ) ;
#104 = EDGE_CURVE ( 'NONE', #177, #110, #213, .T. ) ;
#105 = AXIS2_PLACEMENT_3D ( 'NONE', #101, #204, #187 ) ;
#106 = CONICAL_SURFACE ( 'NONE', #255, 1.500000000000001332, 0.2617993877991500740 ) ;
#107 = CARTESIAN_POINT ( 'NONE',  ( -4.500000000000003553, -1.836970198721031413E-16, -1.500000000000001332 ) ) ;
#108 = LINE ( 'NONE', #107, #190 ) ;
#109 = PLANE ( 'NONE',  #68 ) ;
#110 = VERTEX_POINT ( 'NONE', #87 ) ;
#111 = CC_DESIGN_DATE_AND_TIME_ASSIGNMENT ( #96, #18, ( #34 ) ) ;
#112 = DIRECTION ( 'NONE',  ( 0.9659258262890680902, 0.000000000000000000, 0.2588190451025213501 ) ) ;
#113 = ORIENTED_EDGE ( 'NONE', *, *, #4, .F. ) ;
#114 = DATE_AND_TIME ( #121, #150 ) ;
#115 = ORIENTED_EDGE ( 'NONE', *, *, #264, .T. ) ;
#116 = PERSON_AND_ORGANIZATION_ROLE ( 'design_supplier' ) ;
#117 = DIRECTION ( 'NONE',  ( 1.000000000000000000, 0.000000000000000000, 0.000000000000000000 ) ) ;
#118 = CC_DESIGN_APPROVAL ( #272, ( #19 ) ) ;
#119 = DIRECTION ( 'NONE',  ( -1.000000000000000000, 0.000000000000000000, 0.000000000000000000 ) ) ;
#120 = VECTOR ( 'NONE', #23, 1000.000000000000000 ) ;
#121 = CALENDAR_DATE ( 2026, 7, 1 ) ;
#122 = FACE_OUTER_BOUND ( 'NONE', #92, .T. ) ;
#123 = PERSON_AND_ORGANIZATION_ROLE ( 'creator' ) ;
#124 = PLANE ( 'NONE',  #268 ) ;
#125 = LOCAL_TIME ( 14, 44, 45.00000000000000000, #163 ) ;
#126 = ADVANCED_FACE ( 'NONE', ( #8 ), #151, .T. ) ;
#127 = CC_DESIGN_DATE_AND_TIME_ASSIGNMENT ( #144, #55, ( #231 ) ) ;
#128 = ADVANCED_FACE ( 'NONE', ( #72 ), #98, .T. ) ;
#129 = CARTESIAN_POINT ( 'NONE',  ( 4.500000000000007105, 0.000000000000000000, 0.000000000000000000 ) ) ;
#130 = CIRCLE ( 'NONE', #205, 1.500000000000001332 ) ;
#131 = CARTESIAN_POINT ( 'NONE',  ( 5.000000000000004441, 0.000000000000000000, 0.000000000000000000 ) ) ;
#132 = ADVANCED_FACE ( 'NONE', ( #262 ), #106, .T. ) ;
#133 = DIRECTION ( 'NONE',  ( 0.9659258262890680902, -3.169619151431772337E-17, -0.2588190451025213501 ) ) ;
#134 = LINE ( 'NONE', #65, #60 ) ;
#135 = ORIENTED_EDGE ( 'NONE', *, *, #7, .F. ) ;
#136 =( GEOMETRIC_REPRESENTATION_CONTEXT ( 3 ) GLOBAL_UNCERTAINTY_ASSIGNED_CONTEXT ( ( #167 ) ) GLOBAL_UNIT_ASSIGNED_CONTEXT ( ( #271, #15, #185 ) ) REPRESENTATION_CONTEXT ( 'NONE', 'WORKASPACE' ) );
#137 = CARTESIAN_POINT ( 'NONE',  ( 4.500000000000007105, 0.000000000000000000, 0.000000000000000000 ) ) ;
#138 = LINE ( 'NONE', #258, #191 ) ;
#139 = DIRECTION ( 'NONE',  ( -1.000000000000000000, 0.000000000000000000, 0.000000000000000000 ) ) ;
#140 = PERSON_AND_ORGANIZATION_ROLE ( 'classification_officer' ) ;
#141 = DIRECTION ( 'NONE',  ( 1.000000000000000000, 0.000000000000000000, 0.000000000000000000 ) ) ;
#142 = SECURITY_CLASSIFICATION_LEVEL ( 'unclassified' ) ;
#143 = PERSON_AND_ORGANIZATION ( #208, #102 ) ;
#144 = DATE_AND_TIME ( #11, #158 ) ;
#145 = DIRECTION ( 'NONE',  ( 0.000000000000000000, 0.000000000000000000, 1.000000000000000000 ) ) ;
#146 = AXIS2_PLACEMENT_3D ( 'NONE', #251, #244, #117 ) ;
#147 = AXIS2_PLACEMENT_3D ( 'NONE', #43, #91, #20 ) ;
#148 = CARTESIAN_POINT ( 'NONE',  ( -4.500000000000003553, 0.000000000000000000, 0.000000000000000000 ) ) ;
#149 = CARTESIAN_POINT ( 'NONE',  ( -4.500000000000003553, 0.000000000000000000, 0.000000000000000000 ) ) ;
#150 = LOCAL_TIME ( 14, 44, 45.00000000000000000, #243 ) ;
#151 = CONICAL_SURFACE ( 'NONE', #147, 1.500000000000001332, 0.2617993877991500740 ) ;
#152 = DIRECTION ( 'NONE',  ( 1.000000000000000000, 0.000000000000000000, 0.000000000000000000 ) ) ;
#153 = VERTEX_POINT ( 'NONE', #238 ) ;
#154 = DIRECTION ( 'NONE',  ( -1.000000000000000000, -0.000000000000000000, -0.000000000000000000 ) ) ;
#155 = CARTESIAN_POINT ( 'NONE',  ( 4.500000000000007105, 1.836970198721031413E-16, 1.500000000000001332 ) ) ;
#156 = ORIENTED_EDGE ( 'NONE', *, *, #188, .F. ) ;
#157 = CALENDAR_DATE ( 2026, 7, 1 ) ;
#158 = LOCAL_TIME ( 14, 44, 45.00000000000000000, #266 ) ;
#159 = DIRECTION ( 'NONE',  ( 0.000000000000000000, 0.000000000000000000, 1.000000000000000000 ) ) ;
#160 = ORIENTED_EDGE ( 'NONE', *, *, #184, .F. ) ;
#161 = PERSON_AND_ORGANIZATION ( #208, #102 ) ;
#162 = APPROVAL_DATE_TIME ( #114, #274 ) ;
#163 = COORDINATED_UNIVERSAL_TIME_OFFSET ( 6, 0, .BEHIND. ) ;
#164 = DIRECTION ( 'NONE',  ( 1.000000000000000000, 0.000000000000000000, 0.000000000000000000 ) ) ;
#165 = AXIS2_PLACEMENT_3D ( 'NONE', #131, #174, #172 ) ;
#166 = EDGE_CURVE ( 'NONE', #9, #239, #257, .T. ) ;
#167 = UNCERTAINTY_MEASURE_WITH_UNIT (LENGTH_MEASURE( 1.000000000000000082E-05 ), #271, 'distance_accuracy_value', 'NONE');
#168 = APPROVAL_PERSON_ORGANIZATION ( #81, #274, #223 ) ;
#169 = CC_DESIGN_PERSON_AND_ORGANIZATION_ASSIGNMENT ( #57, #123, ( #231 ) ) ;
#170 = AXIS2_PLACEMENT_3D ( 'NONE', #61, #119, #159 ) ;
#171 = EDGE_CURVE ( 'NONE', #246, #239, #130, .T. ) ;
#172 = DIRECTION ( 'NONE',  ( 0.000000000000000000, 0.000000000000000000, -1.000000000000000000 ) ) ;
#173 = CC_DESIGN_PERSON_AND_ORGANIZATION_ASSIGNMENT ( #100, #93, ( #19 ) ) ;
#174 = DIRECTION ( 'NONE',  ( 1.000000000000000000, 0.000000000000000000, 0.000000000000000000 ) ) ;
#175 = ORIENTED_EDGE ( 'NONE', *, *, #85, .T. ) ;
#176 = CYLINDRICAL_SURFACE ( 'NONE', #227, 1.500000000000001332 ) ;
#177 = VERTEX_POINT ( 'NONE', #155 ) ;
#178 = DIRECTION ( 'NONE',  ( 0.000000000000000000, 0.000000000000000000, -1.000000000000000000 ) ) ;
#179 = ORIENTED_EDGE ( 'NONE', *, *, #264, .F. ) ;
#180 = APPROVAL_STATUS ( 'not_yet_approved' ) ;
#181 = CARTESIAN_POINT ( 'NONE',  ( 4.500000000000007105, 0.000000000000000000, 0.000000000000000000 ) ) ;
#182 = ORIENTED_EDGE ( 'NONE', *, *, #78, .T. ) ;
#183 = CIRCLE ( 'NONE', #170, 1.500000000000001332 ) ;
#184 = EDGE_CURVE ( 'NONE', #153, #177, #45, .T. ) ;
#185 =( NAMED_UNIT ( * ) SI_UNIT ( $, .STERADIAN. ) SOLID_ANGLE_UNIT ( ) );
#186 = PERSON_AND_ORGANIZATION ( #208, #102 ) ;
#187 = DIRECTION ( 'NONE',  ( 0.000000000000000000, 0.000000000000000000, 1.000000000000000000 ) ) ;
#188 = EDGE_CURVE ( 'NONE', #234, #246, #108, .T. ) ;
#189 = LOCAL_TIME ( 14, 44, 45.00000000000000000, #225 ) ;
#190 = VECTOR ( 'NONE', #133, 1000.000000000000000 ) ;
#191 = VECTOR ( 'NONE', #71, 1000.000000000000000 ) ;
#192 = EDGE_CURVE ( 'NONE', #234, #9, #14, .T. ) ;
#193 = ADVANCED_FACE ( 'NONE', ( #86 ), #109, .T. ) ;
#194 = CIRCLE ( 'NONE', #229, 1.500000000000001332 ) ;
#195 = CARTESIAN_POINT ( 'NONE',  ( -5.000000000000004441, 0.000000000000000000, 0.000000000000000000 ) ) ;
#196 = DIRECTION ( 'NONE',  ( 0.000000000000000000, 0.000000000000000000, -1.000000000000000000 ) ) ;
#197 = ORIENTED_EDGE ( 'NONE', *, *, #166, .T. ) ;
#198 = DIRECTION ( 'NONE',  ( -0.9659258262890680902, 0.000000000000000000, -0.2588190451025213501 ) ) ;
#199 = ORIENTED_EDGE ( 'NONE', *, *, #39, .T. ) ;
#200 = CLOSED_SHELL ( 'NONE', ( #210, #126, #254, #62, #132, #193, #128, #273 ) ) ;
#201 = DIRECTION ( 'NONE',  ( -1.000000000000000000, 0.000000000000000000, 0.000000000000000000 ) ) ;
#202 = ORIENTED_EDGE ( 'NONE', *, *, #188, .T. ) ;
#203 = ORIENTED_EDGE ( 'NONE', *, *, #184, .T. ) ;
#204 = DIRECTION ( 'NONE',  ( -1.000000000000000000, 0.000000000000000000, 0.000000000000000000 ) ) ;
#205 = AXIS2_PLACEMENT_3D ( 'NONE', #148, #201, #25 ) ;
#206 = COORDINATED_UNIVERSAL_TIME_OFFSET ( 6, 0, .BEHIND. ) ;
#207 = DIRECTION ( 'NONE',  ( 0.000000000000000000, 0.000000000000000000, -1.000000000000000000 ) ) ;
#208 = PERSON ( 'UNSPECIFIED', 'UNSPECIFIED', 'UNSPECIFIED', ('UNSPECIFIED'), ('UNSPECIFIED'), ('UNSPECIFIED') ) ;
#209 = DATE_AND_TIME ( #157, #125 ) ;
#210 = ADVANCED_FACE ( 'NONE', ( #32 ), #63, .T. ) ;
#211 = CC_DESIGN_PERSON_AND_ORGANIZATION_ASSIGNMENT ( #161, #140, ( #34 ) ) ;
#212 = LINE ( 'NONE', #263, #64 ) ;
#213 = CIRCLE ( 'NONE', #77, 1.500000000000001332 ) ;
#214 = PRODUCT_DEFINITION_SHAPE ( 'NONE', 'NONE',  #231 ) ;
#215 = DIRECTION ( 'NONE',  ( 1.000000000000000000, -0.000000000000000000, -0.000000000000000000 ) ) ;
#216 = EDGE_LOOP ( 'NONE', ( #135, #203, #73, #26 ) ) ;
#217 = DIRECTION ( 'NONE',  ( 0.000000000000000000, 0.000000000000000000, 1.000000000000000000 ) ) ;
#218 = EDGE_LOOP ( 'NONE', ( #269, #69, #66, #10 ) ) ;
#219 = CARTESIAN_POINT ( 'NONE',  ( 5.000000000000004441, 0.000000000000000000, 0.000000000000000000 ) ) ;
#220 = AXIS2_PLACEMENT_3D ( 'NONE', #226, #94, #80 ) ;
#221 = ORIENTED_EDGE ( 'NONE', *, *, #166, .F. ) ;
#222 = ORIENTED_EDGE ( 'NONE', *, *, #171, .T. ) ;
#223 = APPROVAL_ROLE ( '' ) ;
#224 = EDGE_CURVE ( 'NONE', #110, #177, #194, .T. ) ;
#225 = COORDINATED_UNIVERSAL_TIME_OFFSET ( 6, 0, .BEHIND. ) ;
#226 = CARTESIAN_POINT ( 'NONE',  ( -4.500000000000003553, 0.000000000000000000, 0.000000000000000000 ) ) ;
#227 = AXIS2_PLACEMENT_3D ( 'NONE', #233, #5, #178 ) ;
#228 = CARTESIAN_POINT ( 'NONE',  ( -5.000000000000004441, -1.754934418509808020E-16, -1.366025403784439485 ) ) ;
#229 = AXIS2_PLACEMENT_3D ( 'NONE', #181, #164, #35 ) ;
#230 = EDGE_CURVE ( 'NONE', #9, #234, #76, .T. ) ;
#231 = PRODUCT_DEFINITION ( 'UNKNOWN', '', #19, #41 ) ;
#232 = CARTESIAN_POINT ( 'NONE',  ( 5.000000000000004441, 0.000000000000000000, -1.366025403784440595 ) ) ;
#233 = CARTESIAN_POINT ( 'NONE',  ( -4.500000000000003553, 0.000000000000000000, 0.000000000000000000 ) ) ;
#234 = VERTEX_POINT ( 'NONE', #228 ) ;
#235 = AXIS2_PLACEMENT_3D ( 'NONE', #149, #215, #236 ) ;
#236 = DIRECTION ( 'NONE',  ( 0.000000000000000000, 0.000000000000000000, 1.000000000000000000 ) ) ;
#237 = ORIENTED_EDGE ( 'NONE', *, *, #230, .F. ) ;
#238 = CARTESIAN_POINT ( 'NONE',  ( 5.000000000000004441, -1.754934418509808513E-16, 1.366025403784440595 ) ) ;
#239 = VERTEX_POINT ( 'NONE', #38 ) ;
#240 = CARTESIAN_POINT ( 'NONE',  ( 4.500000000000007105, -1.836970198721031413E-16, 1.500000000000001332 ) ) ;
#241 = APPROVAL_PERSON_ORGANIZATION ( #186, #272, #53 ) ;
#242 = ORIENTED_EDGE ( 'NONE', *, *, #230, .T. ) ;
#243 = COORDINATED_UNIVERSAL_TIME_OFFSET ( 6, 0, .BEHIND. ) ;
#244 = DIRECTION ( 'NONE',  ( 0.000000000000000000, 0.000000000000000000, 1.000000000000000000 ) ) ;
#245 = PRODUCT ( '91585A351_18-8 Stainless Steel Dowel Pin', '91585A351_18-8 Stainless Steel Dowel Pin', '', ( #97 ) ) ;
#246 = VERTEX_POINT ( 'NONE', #267 ) ;
#247 = APPROVAL_STATUS ( 'not_yet_approved' ) ;
#248 = CARTESIAN_POINT ( 'NONE',  ( -5.000000000000004441, 0.000000000000000000, 0.000000000000000000 ) ) ;
#249 = PERSON_AND_ORGANIZATION ( #208, #102 ) ;
#250 = APPLICATION_CONTEXT ( 'configuration controlled 3d designs of mechanical parts and assemblies' ) ;
#251 = CARTESIAN_POINT ( 'NONE',  ( 0.000000000000000000, 0.000000000000000000, 0.000000000000000000 ) ) ;
#252 = CC_DESIGN_SECURITY_CLASSIFICATION ( #34, ( #19 ) ) ;
#253 = CARTESIAN_POINT ( 'NONE',  ( -4.500000000000003553, 0.000000000000000000, 0.000000000000000000 ) ) ;
#254 = ADVANCED_FACE ( 'NONE', ( #122 ), #54, .T. ) ;
#255 = AXIS2_PLACEMENT_3D ( 'NONE', #137, #154, #50 ) ;
#256 = APPROVAL_PERSON_ORGANIZATION ( #143, #48, #16 ) ;
#257 = LINE ( 'NONE', #27, #84 ) ;
#258 = CARTESIAN_POINT ( 'NONE',  ( -4.500000000000003553, 0.000000000000000000, -1.500000000000001332 ) ) ;
#259 = APPLICATION_CONTEXT ( 'configuration controlled 3d designs of mechanical parts and assemblies' ) ;
#260 = ORIENTED_EDGE ( 'NONE', *, *, #192, .F. ) ;
#261 = PRODUCT_RELATED_PRODUCT_CATEGORY ( 'detail', '', ( #245 ) ) ;
#262 = FACE_OUTER_BOUND ( 'NONE', #44, .T. ) ;
#263 = CARTESIAN_POINT ( 'NONE',  ( -4.500000000000003553, 1.836970198721031413E-16, 1.500000000000001332 ) ) ;
#264 = EDGE_CURVE ( 'NONE', #239, #246, #183, .T. ) ;
#265 = EDGE_LOOP ( 'NONE', ( #260, #202, #222, #221 ) ) ;
#266 = COORDINATED_UNIVERSAL_TIME_OFFSET ( 6, 0, .BEHIND. ) ;
#267 = CARTESIAN_POINT ( 'NONE',  ( -4.500000000000003553, 0.000000000000000000, -1.500000000000001332 ) ) ;
#268 = AXIS2_PLACEMENT_3D ( 'NONE', #248, #139, #145 ) ;
#269 = ORIENTED_EDGE ( 'NONE', *, *, #78, .F. ) ;
#270 = PERSON_AND_ORGANIZATION_ROLE ( 'design_owner' ) ;
#271 =( LENGTH_UNIT ( ) NAMED_UNIT ( * ) SI_UNIT ( .MILLI., .METRE. ) );
#272 = APPROVAL ( #247, 'UNSPECIFIED' ) ;
#273 = ADVANCED_FACE ( 'NONE', ( #99 ), #124, .T. ) ;
#274 = APPROVAL ( #29, 'UNSPECIFIED' ) ;
#275 = CIRCLE ( 'NONE', #22, 1.366025403784440595 ) ;
ENDSEC;
END-ISO-10303-21;
