ISO-10303-21;
HEADER;
FILE_DESCRIPTION (( 'STEP AP203' ),
    '1' );
FILE_NAME ('91828A211_NO THREADS_Corrosion-Resistant 18-8 Stainless Steel Hex Nut.STEP',
    '2026-07-29T20:48:36',
    ( 'McMaster Carr Supply' ),
    ( 'McMaster Carr Supply' ),
    'SwSTEP 2.0',
    'SolidWorks 2024',
    '' );
FILE_SCHEMA (( 'CONFIG_CONTROL_DESIGN' ));
ENDSEC;

DATA;
#1 = CARTESIAN_POINT ( 'NONE',  ( 2.749999999999999112, 0.000000000000000000, -1.199999999999999956 ) ) ;
#2 = ORIENTED_EDGE ( 'NONE', *, *, #361, .T. ) ;
#3 = CARTESIAN_POINT ( 'NONE',  ( 2.749999999999988454, -1.540081843063600964, -0.9679740571892624379 ) ) ;
#4 = B_SPLINE_CURVE_WITH_KNOTS ( 'NONE', 3,
 ( #866, #510, #961, #1138, #780, #255 ),
 .UNSPECIFIED., .F., .F.,
 ( 4, 2, 4 ),
 ( 0.001606744326298680794, 0.002382488635482275623, 0.003158232944665870234 ),
 .UNSPECIFIED. ) ;
#5 = EDGE_CURVE ( 'NONE', #1082, #161, #781, .T. ) ;
#6 = LINE ( 'NONE', #246, #660 ) ;
#7 = ORIENTED_EDGE ( 'NONE', *, *, #974, .F. ) ;
#8 = ORIENTED_EDGE ( 'NONE', *, *, #854, .T. ) ;
#9 = COORDINATED_UNIVERSAL_TIME_OFFSET ( 6, 0, .BEHIND. ) ;
#10 = CARTESIAN_POINT ( 'NONE',  ( -2.708749999999261249, 1.611528938875959494, 0.9679740571895776302 ) ) ;
#11 = ADVANCED_FACE ( 'NONE', ( #299 ), #562, .T. ) ;
#12 = CARTESIAN_POINT ( 'NONE',  ( 0.03426813488802190472, -3.155641763640708586, -0.9656997233043908002 ) ) ;
#13 = ORIENTED_EDGE ( 'NONE', *, *, #974, .T. ) ;
#14 = PERSON_AND_ORGANIZATION ( #1083, #641 ) ;
#15 = CARTESIAN_POINT ( 'NONE',  ( 2.743870966847170134, -1.572378856922913570, -0.9618675882328104887 ) ) ;
#16 = CARTESIAN_POINT ( 'NONE',  ( -1.148762382836928442, -2.512188209577117082, 1.200000000000005285 ) ) ;
#17 = CONICAL_SURFACE ( 'NONE', #70, 1.675000000000000266, 0.7853981633974496113 ) ;
#18 = AXIS2_PLACEMENT_3D ( 'NONE', #1057, #174, #69 ) ;
#19 = LOCAL_TIME ( 15, 48, 36.00000000000000000, #9 ) ;
#20 = LINE ( 'NONE', #894, #824 ) ;
#21 = EDGE_LOOP ( 'NONE', ( #789, #998, #453, #909 ) ) ;
#22 = ORIENTED_EDGE ( 'NONE', *, *, #724, .T. ) ;
#23 = APPROVAL_ROLE ( '' ) ;
#24 = B_SPLINE_CURVE_WITH_KNOTS ( 'NONE', 3,
 ( #319, #848, #61, #1123 ),
 .UNSPECIFIED., .F., .F.,
 ( 4, 4 ),
 ( 4.931862769767401451E-05, 0.001606744326298678409 ),
 .UNSPECIFIED. ) ;
#25 = ORIENTED_EDGE ( 'NONE', *, *, #595, .F. ) ;
#26 = CARTESIAN_POINT ( 'NONE',  ( 2.727992043256478816, -1.596179638943869383, 0.9629091386531049013 ) ) ;
#27 = EDGE_LOOP ( 'NONE', ( #538, #469, #355, #602 ) ) ;
#28 = EDGE_CURVE ( 'NONE', #263, #965, #359, .T. ) ;
#29 = ORIENTED_EDGE ( 'NONE', *, *, #569, .T. ) ;
#30 = EDGE_CURVE ( 'NONE', #794, #715, #725, .T. ) ;
#31 = CARTESIAN_POINT ( 'NONE',  ( 2.715731865112110732, -1.607497957173614989, 0.9656997233096793476 ) ) ;
#32 = CARTESIAN_POINT ( 'NONE',  ( -1.374999999999997113, -2.381569860407199979, 1.199999999999999956 ) ) ;
#33 = ORIENTED_EDGE ( 'NONE', *, *, #962, .T. ) ;
#34 = AXIS2_PLACEMENT_3D ( 'NONE', #667, #139, #841 ) ;
#35 = DIRECTION ( 'NONE',  ( 1.000000000000000000, 0.000000000000000000, 0.000000000000000000 ) ) ;
#36 = CARTESIAN_POINT ( 'NONE',  ( -2.746328137957062765, -1.564420591310111242, 0.9629091386530916896 ) ) ;
#37 = CIRCLE ( 'NONE', #677, 2.749999999999999112 ) ;
#38 = VECTOR ( 'NONE', #997, 1000.000000000000000 ) ;
#39 = PERSON_AND_ORGANIZATION ( #1083, #641 ) ;
#40 = ORIENTED_EDGE ( 'NONE', *, *, #172, .T. ) ;
#41 = FACE_OUTER_BOUND ( 'NONE', #440, .T. ) ;
#42 = DIRECTION ( 'NONE',  ( 1.000000000000000000, 0.000000000000000000, 0.000000000000000000 ) ) ;
#43 = CARTESIAN_POINT ( 'NONE',  ( -0.04125000000000189626, 3.151610781938859684, 0.9679740571893400425 ) ) ;
#44 = CARTESIAN_POINT ( 'NONE',  ( 2.733655517892229714, -1.590072533534997223, 0.9618675882328104887 ) ) ;
#45 = CARTESIAN_POINT ( 'NONE',  ( 2.742087663019653121, 1.575337062893366280, -0.9619045962810814920 ) ) ;
#46 = EDGE_LOOP ( 'NONE', ( #778, #214, #983, #468, #883, #565 ) ) ;
#47 = CARTESIAN_POINT ( 'NONE',  ( 0.9207932790627527675, -2.643806233008056505, 1.200000000000003952 ) ) ;
#48 = CYLINDRICAL_SURFACE ( 'NONE', #860, 0.08249999999999997613 ) ;
#49 = B_SPLINE_CURVE_WITH_KNOTS ( 'NONE', 3,
 ( #537, #266, #541, #354, #613, #451 ),
 .UNSPECIFIED., .F., .F.,
 ( 4, 2, 4 ),
 ( 0.001606744326298680794, 0.002382488635484324331, 0.003158232944669966784 ),
 .UNSPECIFIED. ) ;
#50 = CARTESIAN_POINT ( 'NONE',  ( 0.000000000000000000, 0.000000000000000000, -1.199999999999999956 ) ) ;
#51 = DIRECTION ( 'NONE',  ( 0.000000000000000000, 0.000000000000000000, -1.000000000000000000 ) ) ;
#52 = CARTESIAN_POINT ( 'NONE',  ( 2.747918668180364676, 1.560130021431747060, -0.9633404825873045363 ) ) ;
#53 = CARTESIAN_POINT ( 'NONE',  ( -2.749999999999989786, 0.2605709942457479777, -1.200000000000005285 ) ) ;
#54 = CARTESIAN_POINT ( 'NONE',  ( -2.749999999999999112, -1.502314598737161595E-15, -1.199999999999999956 ) ) ;
#55 = CARTESIAN_POINT ( 'NONE',  ( -0.04124999999995631467, 3.151610781938885442, -0.9679740571893251655 ) ) ;
#56 = FACE_OUTER_BOUND ( 'NONE', #813, .T. ) ;
#57 = CONICAL_SURFACE ( 'NONE', #497, 2.749999999999999112, 1.047197551196600074 ) ;
#58 = DIRECTION ( 'NONE',  ( 0.000000000000000000, 0.000000000000000000, -1.000000000000000000 ) ) ;
#59 = CARTESIAN_POINT ( 'NONE',  ( -1.829206720937254227, -2.119333487806336791, -1.200000000000005285 ) ) ;
#60 = CARTESIAN_POINT ( 'NONE',  ( 0.03426813488787427975, 3.155641763640787190, 0.9656997233096814570 ) ) ;
#61 = CARTESIAN_POINT ( 'NONE',  ( -0.9207932790627381126, 2.643806233008061835, -1.200000000000005951 ) ) ;
#62 = CARTESIAN_POINT ( 'NONE',  ( 0.000000000000000000, 8.673617379884035472E-16, 1.024999999999999245 ) ) ;
#63 = CARTESIAN_POINT ( 'NONE',  ( -2.715731865111967291, -1.607497957173694259, -0.9656997233043925766 ) ) ;
#64 = B_SPLINE_CURVE_WITH_KNOTS ( 'NONE', 3,
 ( #579, #493, #500, #1113 ),
 .UNSPECIFIED., .F., .F.,
 ( 4, 4 ),
 ( 4.931862769772825172E-05, 0.001606744326298680577 ),
 .UNSPECIFIED. ) ;
#65 = CARTESIAN_POINT ( 'NONE',  ( 1.374999999999999556, 2.381569860407205308, -1.199999999999999956 ) ) ;
#66 = EDGE_CURVE ( 'NONE', #362, #650, #210, .T. ) ;
#67 = CARTESIAN_POINT ( 'NONE',  ( 2.749999999999988010, -1.290315930460754545, 1.038434694367732725 ) ) ;
#68 = CARTESIAN_POINT ( 'NONE',  ( 0.04124999999999658107, 3.151610781938858352, 1.199999999999999956 ) ) ;
#69 = DIRECTION ( 'NONE',  ( 0.8660254037844384856, 0.5000000000000002220, 0.000000000000000000 ) ) ;
#70 = AXIS2_PLACEMENT_3D ( 'NONE', #405, #1047, #736 ) ;
#71 = DIRECTION ( 'NONE',  ( -0.000000000000000000, -0.000000000000000000, -1.000000000000000000 ) ) ;
#72 = EDGE_CURVE ( 'NONE', #970, #175, #819, .T. ) ;
#73 = CONICAL_SURFACE ( 'NONE', #387, 2.749999999999999112, 1.047197551196600074 ) ;
#74 = B_SPLINE_CURVE_WITH_KNOTS ( 'NONE', 3,
 ( #395, #1098, #917, #737 ),
 .UNSPECIFIED., .F., .F.,
 ( 4, 4 ),
 ( 4.931862769772825172E-05, 0.001606744326298677542 ),
 .UNSPECIFIED. ) ;
#75 = DESIGN_CONTEXT ( 'detailed design', #94, 'design' ) ;
#76 = CARTESIAN_POINT ( 'NONE',  ( 0.000000000000000000, 0.000000000000000000, -1.199999999999999956 ) ) ;
#77 = CARTESIAN_POINT ( 'NONE',  ( 0.000000000000000000, 8.673617379884035472E-16, 1.199999999999999956 ) ) ;
#78 = CARTESIAN_POINT ( 'NONE',  ( 0.04124999999999850314, -3.151610781938863237, 0.9679740571893377110 ) ) ;
#79 = DIRECTION ( 'NONE',  ( -0.000000000000000000, -0.000000000000000000, -1.000000000000000000 ) ) ;
#80 = ORIENTED_EDGE ( 'NONE', *, *, #743, .F. ) ;
#81 = ORIENTED_EDGE ( 'NONE', *, *, #769, .T. ) ;
#82 = CARTESIAN_POINT ( 'NONE',  ( 0.03774832236949610814, -3.153632476461448952, 0.9668333900522001478 ) ) ;
#83 = DIRECTION ( 'NONE',  ( 0.000000000000000000, 0.000000000000000000, -1.000000000000000000 ) ) ;
#84 = ORIENTED_EDGE ( 'NONE', *, *, #1104, .F. ) ;
#85 = B_SPLINE_CURVE_WITH_KNOTS ( 'NONE', 3,
 ( #250, #597, #692, #853, #1056, #259 ),
 .UNSPECIFIED., .F., .F.,
 ( 4, 2, 4 ),
 ( 0.004334883647982927177, 0.005116217417000743992, 0.005897551186018560807 ),
 .UNSPECIFIED. ) ;
#86 = PLANE ( 'NONE',  #615 ) ;
#87 = AXIS2_PLACEMENT_3D ( 'NONE', #438, #71, #519 ) ;
#88 = EDGE_CURVE ( 'NONE', #553, #616, #145, .T. ) ;
#89 = DIRECTION ( 'NONE',  ( 1.000000000000000000, 0.000000000000000000, 0.000000000000000000 ) ) ;
#90 = ORIENTED_EDGE ( 'NONE', *, *, #421, .T. ) ;
#91 = ORIENTED_EDGE ( 'NONE', *, *, #735, .F. ) ;
#92 = PERSON_AND_ORGANIZATION ( #1083, #641 ) ;
#93 = DIRECTION ( 'NONE',  ( 1.000000000000000000, 0.000000000000000000, 0.000000000000000000 ) ) ;
#94 = APPLICATION_CONTEXT ( 'configuration controlled 3d designs of mechanical parts and assemblies' ) ;
#95 = DIRECTION ( 'NONE',  ( -0.000000000000000000, -0.000000000000000000, 1.000000000000000000 ) ) ;
#96 = ORIENTED_EDGE ( 'NONE', *, *, #172, .F. ) ;
#97 = VERTEX_POINT ( 'NONE', #626 ) ;
#98 = DATE_AND_TIME ( #979, #290 ) ;
#99 = DIRECTION ( 'NONE',  ( 1.000000000000000000, 0.000000000000000000, 0.000000000000000000 ) ) ;
#100 = B_SPLINE_CURVE_WITH_KNOTS ( 'NONE', 3,
 ( #224, #576, #930, #136, #664, #836, #45, #947, #52, #590, #1108, #935, #222 ),
 .UNSPECIFIED., .F., .F.,
 ( 4, 3, 3, 3, 4 ),
 ( 5.275866358427884962E-17, 2.512987538536012592E-05, 5.034224660910344531E-05, 7.461817198639322205E-05, 8.709110078520634923E-05 ),
 .UNSPECIFIED. ) ;
#101 = CARTESIAN_POINT ( 'NONE',  ( 2.715648843032787862, 1.607200157558716036, 0.9658253715514866222 ) ) ;
#102 = VERTEX_POINT ( 'NONE', #722 ) ;
#103 = VERTEX_POINT ( 'NONE', #463 ) ;
#104 =( NAMED_UNIT ( * ) SI_UNIT ( $, .STERADIAN. ) SOLID_ANGLE_UNIT ( ) );
#105 = EDGE_CURVE ( 'NONE', #188, #97, #568, .T. ) ;
#106 = CIRCLE ( 'NONE', #747, 2.749999999999999112 ) ;
#107 = PRODUCT_DEFINITION_FORMATION_WITH_SPECIFIED_SOURCE ( 'ANY', '', #717, .NOT_KNOWN. ) ;
#108 = ADVANCED_FACE ( 'NONE', ( #1002 ), #329, .T. ) ;
#109 = ADVANCED_FACE ( 'NONE', ( #144 ), #956, .F. ) ;
#110 = ORIENTED_EDGE ( 'NONE', *, *, #609, .F. ) ;
#111 = EDGE_LOOP ( 'NONE', ( #268, #33, #436, #1136, #204, #351 ) ) ;
#112 = DATE_AND_TIME ( #190, #388 ) ;
#113 = ORIENTED_EDGE ( 'NONE', *, *, #1038, .F. ) ;
#114 = DIRECTION ( 'NONE',  ( -1.000000000000000000, 0.000000000000000000, 0.000000000000000000 ) ) ;
#115 = ORIENTED_EDGE ( 'NONE', *, *, #609, .T. ) ;
#116 = EDGE_LOOP ( 'NONE', ( #517, #621, #543, #644 ) ) ;
#117 = EDGE_CURVE ( 'NONE', #614, #817, #270, .T. ) ;
#118 = DIRECTION ( 'NONE',  ( 1.000000000000000000, 0.000000000000000000, 0.000000000000000000 ) ) ;
#119 = CARTESIAN_POINT ( 'NONE',  ( 2.747918668180463264, -1.560130021431359815, 0.9633404825873654875 ) ) ;
#120 = CARTESIAN_POINT ( 'NONE',  ( -1.374999999999999778, -2.381569860407205308, -1.199999999999999956 ) ) ;
#121 = EDGE_LOOP ( 'NONE', ( #488, #526, #639, #372 ) ) ;
#122 = CARTESIAN_POINT ( 'NONE',  ( -2.749999999999999112, -1.502314598737161595E-15, -1.199999999999999956 ) ) ;
#123 = DIRECTION ( 'NONE',  ( -1.000000000000000000, 0.000000000000000000, 0.000000000000000000 ) ) ;
#124 = ADVANCED_FACE ( 'NONE', ( #325 ), #941, .F. ) ;
#125 = CARTESIAN_POINT ( 'NONE',  ( 2.708749999999988667, 1.611528938875535610, 1.199999999999999956 ) ) ;
#126 = CARTESIAN_POINT ( 'NONE',  ( -2.749999999999989786, 0.5242533151560778704, 1.177708175733297891 ) ) ;
#127 = VECTOR ( 'NONE', #95, 1000.000000000000000 ) ;
#128 = CC_DESIGN_APPROVAL ( #1137, ( #107 ) ) ;
#129 = CARTESIAN_POINT ( 'NONE',  ( 2.749999999999988010, -1.037719433354775234, 1.096720533069997394 ) ) ;
#130 = VERTEX_POINT ( 'NONE', #589 ) ;
#131 = CARTESIAN_POINT ( 'NONE',  ( 0.9227286955537414848, 2.642688819775983688, -1.177916437459965326 ) ) ;
#132 = CARTESIAN_POINT ( 'NONE',  ( 2.708749999999990887, 1.611528938875534500, 0.9679740571893414858 ) ) ;
#133 = DIRECTION ( 'NONE',  ( 1.000000000000000000, 0.000000000000000000, 0.000000000000000000 ) ) ;
#134 = CARTESIAN_POINT ( 'NONE',  ( -2.749999999999990230, 1.540081843063339395, 0.9679740571893353795 ) ) ;
#135 = CARTESIAN_POINT ( 'NONE',  ( 2.749999999999988454, -1.540081843063344946, 0.9679740571893346024 ) ) ;
#136 = CARTESIAN_POINT ( 'NONE',  ( 2.727992043256860732, 1.596179638943449275, -0.9629091386530373997 ) ) ;
#137 = DIRECTION ( 'NONE',  ( 1.000000000000000000, 0.000000000000000000, 0.000000000000000000 ) ) ;
#138 = DIRECTION ( 'NONE',  ( -0.7071067811865483499, 0.000000000000000000, -0.7071067811865465735 ) ) ;
#139 = DIRECTION ( 'NONE',  ( 0.000000000000000000, 0.000000000000000000, 1.000000000000000000 ) ) ;
#140 = DIRECTION ( 'NONE',  ( -1.000000000000000000, 0.000000000000000000, 0.000000000000000000 ) ) ;
#141 = CARTESIAN_POINT ( 'NONE',  ( -2.749700586928600199, 1.548220807044806469, 0.9658253715514975024 ) ) ;
#142 = CARTESIAN_POINT ( 'NONE',  ( 0.03774832237001719826, 3.153632476461201151, -0.9668333900523398139 ) ) ;
#143 = CARTESIAN_POINT ( 'NONE',  ( -2.749999999999990230, 1.540081843063594746, -0.9679740571892635481 ) ) ;
#144 = FACE_OUTER_BOUND ( 'NONE', #223, .T. ) ;
#145 = CIRCLE ( 'NONE', #217, 2.749999999999999112 ) ;
#146 = CC_DESIGN_PERSON_AND_ORGANIZATION_ASSIGNMENT ( #14, #1094, ( #107 ) ) ;
#147 = AXIS2_PLACEMENT_3D ( 'NONE', #958, #680, #777 ) ;
#148 = FACE_OUTER_BOUND ( 'NONE', #1072, .T. ) ;
#149 = CARTESIAN_POINT ( 'NONE',  ( 0.04125000000072531758, 3.151610781938437356, 0.9679740571895781853 ) ) ;
#150 = CARTESIAN_POINT ( 'NONE',  ( 0.000000000000000000, 0.000000000000000000, 1.199999999999999956 ) ) ;
#151 = DIRECTION ( 'NONE',  ( 0.000000000000000000, 0.000000000000000000, 1.000000000000000000 ) ) ;
#152 = CARTESIAN_POINT ( 'NONE',  ( -2.747918668180364676, -1.560130021431752168, -0.9633404825873028710 ) ) ;
#153 = CARTESIAN_POINT ( 'NONE',  ( -2.749999999999990230, 1.540081843063339395, 0.9679740571893353795 ) ) ;
#154 = B_SPLINE_CURVE_WITH_KNOTS ( 'NONE', 3,
 ( #924, #1067, #269, #443 ),
 .UNSPECIFIED., .F., .F.,
 ( 4, 4 ),
 ( 0.005897551186018559072, 0.007470924193605493063 ),
 .UNSPECIFIED. ) ;
#155 = EDGE_CURVE ( 'NONE', #1065, #474, #946, .T. ) ;
#156 = CARTESIAN_POINT ( 'NONE',  ( 0.04124999999999850314, -3.151610781938863237, 0.9679740571893377110 ) ) ;
#157 = DIRECTION ( 'NONE',  ( -0.8660254037844384856, 0.5000000000000002220, 0.000000000000000000 ) ) ;
#158 = CLOSED_SHELL ( 'NONE', ( #109, #907, #346, #981, #929, #999, #968, #297, #349, #234, #842, #1001, #470, #376, #1020, #755, #799, #173, #433, #108, #827, #696, #531, #551, #11, #291, #839, #858, #889, #530, #229, #124 ) ) ;
#159 = CARTESIAN_POINT ( 'NONE',  ( 0.000000000000000000, 0.000000000000000000, -1.199999999999999956 ) ) ;
#160 = AXIS2_PLACEMENT_3D ( 'NONE', #681, #431, #1043 ) ;
#161 = VERTEX_POINT ( 'NONE', #1032 ) ;
#162 = VECTOR ( 'NONE', #1075, 1000.000000000000000 ) ;
#163 = CARTESIAN_POINT ( 'NONE',  ( -2.730722557071842527, 1.593696551849779430, -0.9622772721604896384 ) ) ;
#164 = DIRECTION ( 'NONE',  ( -0.000000000000000000, -0.000000000000000000, -1.000000000000000000 ) ) ;
#165 = ORIENTED_EDGE ( 'NONE', *, *, #1061, .F. ) ;
#166 = EDGE_LOOP ( 'NONE', ( #91, #779, #705, #1058 ) ) ;
#167 = CARTESIAN_POINT ( 'NONE',  ( 0.02284710232392065873, -3.159832384893464408, 0.9633404825873641553 ) ) ;
#168 = DIRECTION ( 'NONE',  ( -0.5000000000000001110, -0.8660254037844385966, 0.000000000000000000 ) ) ;
#169 = ORIENTED_EDGE ( 'NONE', *, *, #318, .T. ) ;
#170 = ORIENTED_EDGE ( 'NONE', *, *, #669, .T. ) ;
#171 = DIRECTION ( 'NONE',  ( -0.000000000000000000, -0.000000000000000000, 1.000000000000000000 ) ) ;
#172 = EDGE_CURVE ( 'NONE', #274, #614, #64, .T. ) ;
#173 = ADVANCED_FACE ( 'NONE', ( #56 ), #545, .T. ) ;
#174 = DIRECTION ( 'NONE',  ( 0.5000000000000003331, -0.8660254037844385966, 0.000000000000000000 ) ) ;
#175 = VERTEX_POINT ( 'NONE', #313 ) ;
#176 = ORIENTED_EDGE ( 'NONE', *, *, #502, .T. ) ;
#177 = CARTESIAN_POINT ( 'NONE',  ( 2.748780270388321068, -1.556478644928298349, -0.9639485532685715397 ) ) ;
#178 = AXIS2_PLACEMENT_3D ( 'NONE', #298, #828, #118 ) ;
#179 = CIRCLE ( 'NONE', #571, 1.675000000000000266 ) ;
#180 = CARTESIAN_POINT ( 'NONE',  ( -2.708750000002711378, 1.611528938873967309, -0.9679740571884606348 ) ) ;
#181 = ORIENTED_EDGE ( 'NONE', *, *, #233, .T. ) ;
#182 = ORIENTED_EDGE ( 'NONE', *, *, #1063, .T. ) ;
#183 = SHAPE_DEFINITION_REPRESENTATION ( #293, #462 ) ;
#184 = CARTESIAN_POINT ( 'NONE',  ( 0.000000000000000000, 0.000000000000000000, 1.199999999999999956 ) ) ;
#185 = CARTESIAN_POINT ( 'NONE',  ( -1.601237617163064675, 2.250951511237281988, 1.200000000000005951 ) ) ;
#186 = CARTESIAN_POINT ( 'NONE',  ( 2.735325747498462690, 1.587049044132504028, 0.9619045962810961470 ) ) ;
#187 = ORIENTED_EDGE ( 'NONE', *, *, #117, .F. ) ;
#188 = VERTEX_POINT ( 'NONE', #759 ) ;
#189 = EDGE_CURVE ( 'NONE', #699, #721, #506, .T. ) ;
#190 = CALENDAR_DATE ( 2026, 29, 7 ) ;
#191 = FACE_OUTER_BOUND ( 'NONE', #166, .T. ) ;
#192 = CARTESIAN_POINT ( 'NONE',  ( -0.4785057453749660406, -2.899161059641913951, 1.097229345705548198 ) ) ;
#193 = CARTESIAN_POINT ( 'NONE',  ( 0.000000000000000000, 8.673617379884035472E-16, -1.199999999999999956 ) ) ;
#194 = CARTESIAN_POINT ( 'NONE',  ( -2.749999999999990230, 1.290315930460749438, 1.038434694367732947 ) ) ;
#195 = ORIENTED_EDGE ( 'NONE', *, *, #653, .T. ) ;
#196 = VERTEX_POINT ( 'NONE', #323 ) ;
#197 = AXIS2_PLACEMENT_3D ( 'NONE', #496, #742, #504 ) ;
#198 = CONICAL_SURFACE ( 'NONE', #994, 2.749999999999999112, 1.047197551196600074 ) ;
#199 = LOCAL_TIME ( 15, 48, 36.00000000000000000, #985 ) ;
#200 = CARTESIAN_POINT ( 'NONE',  ( 2.745542978361630748, -1.568026829186145887, 0.9622772721605302726 ) ) ;
#201 = ORIENTED_EDGE ( 'NONE', *, *, #564, .T. ) ;
#202 = DATE_AND_TIME ( #465, #529 ) ;
#203 = CARTESIAN_POINT ( 'NONE',  ( -0.9227286955549313108, -2.642688819775301567, 1.177916437460081012 ) ) ;
#204 = ORIENTED_EDGE ( 'NONE', *, *, #72, .T. ) ;
#205 = CARTESIAN_POINT ( 'NONE',  ( 2.272235961018162165, 1.863550436786743703, -1.110167962998521718 ) ) ;
#206 = EDGE_CURVE ( 'NONE', #362, #803, #1135, .T. ) ;
#207 = CARTESIAN_POINT ( 'NONE',  ( 2.749999999999988454, -1.540081843063328071, 1.199999999999999956 ) ) ;
#208 = VERTEX_POINT ( 'NONE', #54 ) ;
#209 = CARTESIAN_POINT ( 'NONE',  ( -2.727992043256480592, 1.596179638943863610, 0.9629091386531057895 ) ) ;
#210 = B_SPLINE_CURVE_WITH_KNOTS ( 'NONE', 3,
 ( #134, #194, #898, #126, #390, #655 ),
 .UNSPECIFIED., .F., .F.,
 ( 4, 2, 4 ),
 ( 0.004334883647983195191, 0.005116217417000877565, 0.005897551186018559072 ),
 .UNSPECIFIED. ) ;
#211 = FACE_OUTER_BOUND ( 'NONE', #338, .T. ) ;
#212 = DIRECTION ( 'NONE',  ( -0.000000000000000000, -0.000000000000000000, 1.000000000000000000 ) ) ;
#213 = FACE_OUTER_BOUND ( 'NONE', #483, .T. ) ;
#214 = ORIENTED_EDGE ( 'NONE', *, *, #1104, .T. ) ;
#215 = CARTESIAN_POINT ( 'NONE',  ( -2.742087663019828092, 1.575337062893002571, 0.9619045962810983674 ) ) ;
#216 = DIRECTION ( 'NONE',  ( 1.000000000000000000, 0.000000000000000000, 0.000000000000000000 ) ) ;
#217 = AXIS2_PLACEMENT_3D ( 'NONE', #745, #278, #634 ) ;
#218 = AXIS2_PLACEMENT_3D ( 'NONE', #394, #239, #137 ) ;
#219 = CARTESIAN_POINT ( 'NONE',  ( -1.675000000000000266, 8.673617379884035472E-16, -1.199999999999999956 ) ) ;
#220 = CARTESIAN_POINT ( 'NONE',  ( 2.667499999999988436, -1.540081843063328071, 1.199999999999999956 ) ) ;
#221 = CIRCLE ( 'NONE', #369, 1.675000000000000266 ) ;
#222 = CARTESIAN_POINT ( 'NONE',  ( 2.749999999999988454, 1.540081843065818301, -0.9679740571886435996 ) ) ;
#223 = EDGE_LOOP ( 'NONE', ( #808, #295, #1085, #784 ) ) ;
#224 = CARTESIAN_POINT ( 'NONE',  ( 2.708750000000035740, 1.611528938875508521, -0.9679740571893266088 ) ) ;
#225 = CARTESIAN_POINT ( 'NONE',  ( 0.04125000000072531758, 3.151610781938437356, 0.9679740571895781853 ) ) ;
#226 = LINE ( 'NONE', #938, #768 ) ;
#227 = CARTESIAN_POINT ( 'NONE',  ( -2.708749999999990887, 1.611528938875538497, 1.199999999999999956 ) ) ;
#228 = DIRECTION ( 'NONE',  ( 0.000000000000000000, 0.000000000000000000, -1.000000000000000000 ) ) ;
#229 = ADVANCED_FACE ( 'NONE', ( #303 ), #17, .F. ) ;
#230 = CARTESIAN_POINT ( 'NONE',  ( -2.749999999999989786, 0.5242533151561670213, -1.177708175733290341 ) ) ;
#231 = CARTESIAN_POINT ( 'NONE',  ( 0.02644008823898493302, 3.158752866041671492, 0.9639485532686966618 ) ) ;
#232 = EDGE_CURVE ( 'NONE', #1109, #448, #648, .T. ) ;
#233 = EDGE_CURVE ( 'NONE', #1055, #518, #1069, .T. ) ;
#234 = ADVANCED_FACE ( 'NONE', ( #414 ), #937, .F. ) ;
#235 = CARTESIAN_POINT ( 'NONE',  ( 1.675000000000000266, 8.673617379884035472E-16, 1.199999999999999956 ) ) ;
#236 = DIRECTION ( 'NONE',  ( 1.000000000000000000, 0.000000000000000000, 0.000000000000000000 ) ) ;
#237 = CARTESIAN_POINT ( 'NONE',  ( -3.550762114890027021E-15, 3.080163686126641931, 1.199999999999999956 ) ) ;
#238 = CARTESIAN_POINT ( 'NONE',  ( 0.04124999999727501504, 3.151610781940429540, -0.9679740571884609679 ) ) ;
#239 = DIRECTION ( 'NONE',  ( 0.000000000000000000, 0.000000000000000000, 1.000000000000000000 ) ) ;
#240 = CARTESIAN_POINT ( 'NONE',  ( 0.01482042128965122690, 3.161723381036305458, -0.9622772721604905266 ) ) ;
#241 = AXIS2_PLACEMENT_3D ( 'NONE', #685, #171, #93 ) ;
#242 = AXIS2_PLACEMENT_3D ( 'NONE', #482, #228, #580 ) ;
#243 = CARTESIAN_POINT ( 'NONE',  ( -2.738504478027738998, -1.582917823870112040, -0.9615181289153424959 ) ) ;
#244 = CARTESIAN_POINT ( 'NONE',  ( -0.04125000000072899520, -3.151610781938440908, 0.9679740571895758539 ) ) ;
#245 = EDGE_CURVE ( 'NONE', #715, #794, #588, .T. ) ;
#246 = CARTESIAN_POINT ( 'NONE',  ( 1.675000000000000266, 1.072490076845585236E-15, -1.199999999999999956 ) ) ;
#247 = EDGE_CURVE ( 'NONE', #650, #553, #879, .T. ) ;
#248 = CARTESIAN_POINT ( 'NONE',  ( -2.718868458807248256, 1.604638263656219088, -0.9649763189096648430 ) ) ;
#249 = CARTESIAN_POINT ( 'NONE',  ( 2.749999999999988454, 1.587713240271463544, 1.199999999999999956 ) ) ;
#250 = CARTESIAN_POINT ( 'NONE',  ( 2.749999999999988454, -1.540081843063600964, -0.9679740571892624379 ) ) ;
#251 = CYLINDRICAL_SURFACE ( 'NONE', #527, 1.499999999999999556 ) ;
#252 = CARTESIAN_POINT ( 'NONE',  ( 2.749999999999988454, 1.540081843062725664, 0.9679740571895304457 ) ) ;
#253 = VERTEX_POINT ( 'NONE', #252 ) ;
#254 = CONICAL_SURFACE ( 'NONE', #289, 2.749999999999999112, 1.047197551196600074 ) ;
#255 = CARTESIAN_POINT ( 'NONE',  ( 2.708749999999259472, -1.611528938875965267, 0.9679740571895768531 ) ) ;
#256 = FACE_BOUND ( 'NONE', #718, .T. ) ;
#257 = ORIENTED_EDGE ( 'NONE', *, *, #627, .F. ) ;
#258 = EDGE_LOOP ( 'NONE', ( #513, #601, #995, #1064 ) ) ;
#259 = CARTESIAN_POINT ( 'NONE',  ( 2.749999999999999112, 0.000000000000000000, -1.199999999999999956 ) ) ;
#260 = CC_DESIGN_DATE_AND_TIME_ASSIGNMENT ( #112, #713, ( #1039 ) ) ;
#261 = PLANE ( 'NONE',  #147 ) ;
#262 = B_SPLINE_CURVE_WITH_KNOTS ( 'NONE', 3,
 ( #774, #337, #923, #683 ),
 .UNSPECIFIED., .F., .F.,
 ( 4, 4 ),
 ( 0.005897551186018563409, 0.007470924193605493063 ),
 .UNSPECIFIED. ) ;
#263 = VERTEX_POINT ( 'NONE', #567 ) ;
#264 = ORIENTED_EDGE ( 'NONE', *, *, #1090, .F. ) ;
#265 = CARTESIAN_POINT ( 'NONE',  ( 0.000000000000000000, 0.000000000000000000, -1.199999999999999956 ) ) ;
#266 = CARTESIAN_POINT ( 'NONE',  ( 1.601237617163661087, -2.250951511236940927, -1.200000000000003730 ) ) ;
#267 = ORIENTED_EDGE ( 'NONE', *, *, #873, .T. ) ;
#268 = ORIENTED_EDGE ( 'NONE', *, *, #1061, .T. ) ;
#269 = CARTESIAN_POINT ( 'NONE',  ( -2.749999999999988898, -1.036231657445908283, 1.110113569947990042 ) ) ;
#270 = CIRCLE ( 'NONE', #686, 2.749999999999999112 ) ;
#271 = AXIS2_PLACEMENT_3D ( 'NONE', #50, #840, #1026 ) ;
#272 = EDGE_CURVE ( 'NONE', #690, #253, #262, .T. ) ;
#273 = CARTESIAN_POINT ( 'NONE',  ( 0.001594808560825842873, -3.163073358284525405, -0.9615181289153406086 ) ) ;
#274 = VERTEX_POINT ( 'NONE', #132 ) ;
#275 = DIRECTION ( 'NONE',  ( 0.000000000000000000, 0.000000000000000000, -1.000000000000000000 ) ) ;
#276 = CARTESIAN_POINT ( 'NONE',  ( -0.04125000000072899520, -3.151610781938440908, 0.9679740571895758539 ) ) ;
#277 = CARTESIAN_POINT ( 'NONE',  ( 2.748780270388451186, 1.556478644927713928, 0.9639485532686727920 ) ) ;
#278 = DIRECTION ( 'NONE',  ( 0.000000000000000000, 0.000000000000000000, 1.000000000000000000 ) ) ;
#279 = ORIENTED_EDGE ( 'NONE', *, *, #962, .F. ) ;
#280 = PERSON_AND_ORGANIZATION_ROLE ( 'classification_officer' ) ;
#281 = CARTESIAN_POINT ( 'NONE',  ( -0.04124999999727803346, -3.151610781940433537, -0.9679740571884586364 ) ) ;
#282 = ORIENTED_EDGE ( 'NONE', *, *, #1068, .T. ) ;
#283 = EDGE_LOOP ( 'NONE', ( #267, #539, #446, #882, #1141, #533 ) ) ;
#284 = ORIENTED_EDGE ( 'NONE', *, *, #877, .F. ) ;
#285 = DATE_AND_TIME ( #806, #199 ) ;
#286 = CARTESIAN_POINT ( 'NONE',  ( -0.04125000000072899520, -3.151610781938440908, 0.9679740571895758539 ) ) ;
#287 = ORIENTED_EDGE ( 'NONE', *, *, #926, .F. ) ;
#288 = AXIS2_PLACEMENT_3D ( 'NONE', #535, #702, #304 ) ;
#289 = AXIS2_PLACEMENT_3D ( 'NONE', #489, #397, #574 ) ;
#290 = LOCAL_TIME ( 15, 48, 36.00000000000000000, #622 ) ;
#291 = ADVANCED_FACE ( 'NONE', ( #485 ), #48, .T. ) ;
#292 = CARTESIAN_POINT ( 'NONE',  ( -2.708749999999990443, -1.611528938875539607, 0.9679740571893398204 ) ) ;
#293 = PRODUCT_DEFINITION_SHAPE ( 'NONE', 'NONE',  #672 ) ;
#294 = CARTESIAN_POINT ( 'NONE',  ( 2.749999999999988454, 1.540081843063319189, 1.199999999999999956 ) ) ;
#295 = ORIENTED_EDGE ( 'NONE', *, *, #1000, .T. ) ;
#296 = CARTESIAN_POINT ( 'NONE',  ( 0.000000000000000000, 8.673617379884035472E-16, -1.024999999999999689 ) ) ;
#297 = ADVANCED_FACE ( 'NONE', ( #310 ), #1019, .F. ) ;
#298 = CARTESIAN_POINT ( 'NONE',  ( 0.000000000000000000, 0.000000000000000000, -1.199999999999999956 ) ) ;
#299 = FACE_OUTER_BOUND ( 'NONE', #984, .T. ) ;
#300 = CARTESIAN_POINT ( 'NONE',  ( 0.000000000000000000, 8.673617379884035472E-16, -1.199999999999999956 ) ) ;
#301 = ORIENTED_EDGE ( 'NONE', *, *, #569, .F. ) ;
#302 = CARTESIAN_POINT ( 'NONE',  ( -2.715731865112112509, 1.607497957173608993, 0.9656997233096803468 ) ) ;
#303 = FACE_OUTER_BOUND ( 'NONE', #385, .T. ) ;
#304 = DIRECTION ( 'NONE',  ( -1.000000000000000000, 0.000000000000000000, 0.000000000000000000 ) ) ;
#305 = DIRECTION ( 'NONE',  ( 1.000000000000000000, 0.000000000000000000, 0.000000000000000000 ) ) ;
#306 = B_SPLINE_CURVE_WITH_KNOTS ( 'NONE', 3,
 ( #1115, #63, #1028, #331, #1008, #243, #1125, #668, #152, #1128, #761, #501, #507 ),
 .UNSPECIFIED., .F., .F.,
 ( 4, 3, 3, 3, 4 ),
 ( 5.275866358427884962E-17, 2.512987538536008526E-05, 5.034224660910339110E-05, 7.461817198639314073E-05, 8.709110078520676936E-05 ),
 .UNSPECIFIED. ) ;
#307 = CARTESIAN_POINT ( 'NONE',  ( -2.708749999999988667, -1.611528938875540717, 1.199999999999999956 ) ) ;
#308 = ORIENTED_EDGE ( 'NONE', *, *, #247, .F. ) ;
#309 = DIRECTION ( 'NONE',  ( 1.000000000000000000, 0.000000000000000000, 0.000000000000000000 ) ) ;
#310 = FACE_OUTER_BOUND ( 'NONE', #657, .T. ) ;
#311 = APPLICATION_CONTEXT ( 'configuration controlled 3d designs of mechanical parts and assemblies' ) ;
#312 = DIRECTION ( 'NONE',  ( -0.000000000000000000, -0.000000000000000000, -1.000000000000000000 ) ) ;
#313 = CARTESIAN_POINT ( 'NONE',  ( 0.04124999999995321298, -3.151610781938889438, -0.9679740571893230561 ) ) ;
#314 = DIRECTION ( 'NONE',  ( 0.000000000000000000, 0.000000000000000000, -1.000000000000000000 ) ) ;
#315 = CARTESIAN_POINT ( 'NONE',  ( -2.749999999999989342, 1.544125232108504164, 0.9668333900522001478 ) ) ;
#316 = EDGE_CURVE ( 'NONE', #796, #208, #676, .T. ) ;
#317 = CARTESIAN_POINT ( 'NONE',  ( -2.748780270388322844, 1.556478644928292354, -0.9639485532685724278 ) ) ;
#318 = EDGE_CURVE ( 'NONE', #803, #1065, #432, .T. ) ;
#319 = CARTESIAN_POINT ( 'NONE',  ( -0.04124999999995631467, 3.151610781938885442, -0.9679740571893251655 ) ) ;
#320 = CARTESIAN_POINT ( 'NONE',  ( 0.006761915521003192264, 3.162386107025608073, -0.9619045962810800487 ) ) ;
#321 = CYLINDRICAL_SURFACE ( 'NONE', #408, 0.08249999999999999001 ) ;
#322 = CARTESIAN_POINT ( 'NONE',  ( 0.000000000000000000, 0.000000000000000000, 1.199999999999999956 ) ) ;
#323 = CARTESIAN_POINT ( 'NONE',  ( 2.749999999999988454, -1.540081843063600964, -0.9679740571892624379 ) ) ;
#324 = CARTESIAN_POINT ( 'NONE',  ( -2.749999999999988454, -1.540081843065822964, -0.9679740571886420453 ) ) ;
#325 = FACE_OUTER_BOUND ( 'NONE', #823, .T. ) ;
#326 = CARTESIAN_POINT ( 'NONE',  ( 2.749999999999988454, -0.2605709942457059003, 1.200000000000006173 ) ) ;
#327 = DIRECTION ( 'NONE',  ( 0.5000000000000003331, 0.8660254037844385966, -0.000000000000000000 ) ) ;
#328 = EDGE_CURVE ( 'NONE', #518, #430, #872, .T. ) ;
#329 = CONICAL_SURFACE ( 'NONE', #570, 2.749999999999999112, 1.047197551196600074 ) ;
#330 = CIRCLE ( 'NONE', #727, 2.749999999999999112 ) ;
#331 = CARTESIAN_POINT ( 'NONE',  ( -2.727992043256860732, -1.596179638943454382, -0.9629091386530358454 ) ) ;
#332 = CARTESIAN_POINT ( 'NONE',  ( -2.735325747498650539, 1.587049044132238018, -0.9619045962810793826 ) ) ;
#333 = B_SPLINE_CURVE_WITH_KNOTS ( 'NONE', 3,
 ( #413, #756, #1030, #1024, #586, #149 ),
 .UNSPECIFIED., .F., .F.,
 ( 4, 2, 4 ),
 ( 0.001606744326298680577, 0.002382488635482279092, 0.003158232944665877173 ),
 .UNSPECIFIED. ) ;
#334 = CARTESIAN_POINT ( 'NONE',  ( 0.000000000000000000, 0.000000000000000000, 1.199999999999999956 ) ) ;
#335 = FACE_OUTER_BOUND ( 'NONE', #258, .T. ) ;
#336 = FACE_OUTER_BOUND ( 'NONE', #381, .T. ) ;
#337 = CARTESIAN_POINT ( 'NONE',  ( 2.749999999999988454, 0.5247122102782237896, 1.200000000000005951 ) ) ;
#338 = EDGE_LOOP ( 'NONE', ( #631, #29, #165, #287 ) ) ;
#339 = CARTESIAN_POINT ( 'NONE',  ( 1.499999999999999556, 1.051058757860506467E-15, -1.024999999999999689 ) ) ;
#340 = FACE_OUTER_BOUND ( 'NONE', #283, .T. ) ;
#341 = EDGE_LOOP ( 'NONE', ( #522, #456, #1054, #441 ) ) ;
#342 = CONICAL_SURFACE ( 'NONE', #637, 2.749999999999999112, 1.047197551196600074 ) ;
#343 = VERTEX_POINT ( 'NONE', #591 ) ;
#344 = CONICAL_SURFACE ( 'NONE', #975, 2.749999999999999112, 1.047197551196600074 ) ;
#345 = DIRECTION ( 'NONE',  ( 1.000000000000000000, 0.000000000000000000, 0.000000000000000000 ) ) ;
#346 = ADVANCED_FACE ( 'NONE', ( #952 ), #763, .F. ) ;
#347 = CC_DESIGN_APPROVAL ( #893, ( #672 ) ) ;
#348 = B_SPLINE_CURVE_WITH_KNOTS ( 'NONE', 3,
 ( #490, #1005, #47, #1010 ),
 .UNSPECIFIED., .F., .F.,
 ( 4, 4 ),
 ( 4.931862769772757410E-05, 0.001606744326298680794 ),
 .UNSPECIFIED. ) ;
#349 = ADVANCED_FACE ( 'NONE', ( #607 ), #86, .F. ) ;
#350 = FACE_OUTER_BOUND ( 'NONE', #1073, .T. ) ;
#351 = ORIENTED_EDGE ( 'NONE', *, *, #735, .T. ) ;
#352 = ORIENTED_EDGE ( 'NONE', *, *, #632, .T. ) ;
#353 = CARTESIAN_POINT ( 'NONE',  ( 2.730722557071840750, -1.593696551849784981, -0.9622772721604887503 ) ) ;
#354 = CARTESIAN_POINT ( 'NONE',  ( 2.271494254627355769, -1.863978661171143303, -1.097229345705027059 ) ) ;
#355 = ORIENTED_EDGE ( 'NONE', *, *, #800, .F. ) ;
#356 = ORIENTED_EDGE ( 'NONE', *, *, #1051, .F. ) ;
#357 = CARTESIAN_POINT ( 'NONE',  ( -0.04125000000000372813, 3.151610781938858352, 1.199999999999999956 ) ) ;
#358 = EDGE_CURVE ( 'NONE', #616, #1082, #4, .T. ) ;
#359 = B_SPLINE_CURVE_WITH_KNOTS ( 'NONE', 3,
 ( #925, #205, #1084, #472 ),
 .UNSPECIFIED., .F., .F.,
 ( 4, 4 ),
 ( 4.931862769767456339E-05, 0.001606744326298680577 ),
 .UNSPECIFIED. ) ;
#360 = CARTESIAN_POINT ( 'NONE',  ( 0.02644008823829075566, -3.158752866041892648, -0.9639485532685719837 ) ) ;
#361 = EDGE_CURVE ( 'NONE', #1078, #970, #422, .T. ) ;
#362 = VERTEX_POINT ( 'NONE', #153 ) ;
#363 = ORIENTED_EDGE ( 'NONE', *, *, #437, .F. ) ;
#364 = PERSON_AND_ORGANIZATION_ROLE ( 'creator' ) ;
#365 = CARTESIAN_POINT ( 'NONE',  ( -0.9207932790627542108, 2.643806233008052953, 1.200000000000005729 ) ) ;
#366 = VECTOR ( 'NONE', #51, 1000.000000000000000 ) ;
#367 = DIRECTION ( 'NONE',  ( 0.000000000000000000, 0.000000000000000000, 1.000000000000000000 ) ) ;
#368 = VECTOR ( 'NONE', #58, 1000.000000000000000 ) ;
#369 = AXIS2_PLACEMENT_3D ( 'NONE', #300, #367, #374 ) ;
#370 = DIRECTION ( 'NONE',  ( 1.000000000000000000, 0.000000000000000000, 0.000000000000000000 ) ) ;
#371 = ORIENTED_EDGE ( 'NONE', *, *, #629, .F. ) ;
#372 = ORIENTED_EDGE ( 'NONE', *, *, #627, .T. ) ;
#373 = PERSON_AND_ORGANIZATION ( #1083, #641 ) ;
#374 = DIRECTION ( 'NONE',  ( 1.000000000000000000, 0.000000000000000000, 0.000000000000000000 ) ) ;
#375 = ORIENTED_EDGE ( 'NONE', *, *, #766, .F. ) ;
#376 = ADVANCED_FACE ( 'NONE', ( #335 ), #342, .T. ) ;
#377 = ORIENTED_EDGE ( 'NONE', *, *, #820, .F. ) ;
#378 = ORIENTED_EDGE ( 'NONE', *, *, #447, .T. ) ;
#379 = CALENDAR_DATE ( 2026, 29, 7 ) ;
#380 = CARTESIAN_POINT ( 'NONE',  ( -0.03774832237002020280, -3.153632476461205147, -0.9668333900523374824 ) ) ;
#381 = EDGE_LOOP ( 'NONE', ( #363, #865, #960, #911, #13, #896 ) ) ;
#382 = CARTESIAN_POINT ( 'NONE',  ( 2.749999999999988454, -1.540081843063344946, 0.9679740571893346024 ) ) ;
#383 = EDGE_CURVE ( 'NONE', #518, #1055, #598, .T. ) ;
#384 = APPROVAL_STATUS ( 'not_yet_approved' ) ;
#385 = EDGE_LOOP ( 'NONE', ( #113, #257, #352, #264 ) ) ;
#386 = CIRCLE ( 'NONE', #821, 2.749999999999999112 ) ;
#387 = AXIS2_PLACEMENT_3D ( 'NONE', #693, #83, #89 ) ;
#388 = LOCAL_TIME ( 15, 48, 36.00000000000000000, #1087 ) ;
#389 = DIRECTION ( 'NONE',  ( -0.000000000000000000, -0.000000000000000000, 1.000000000000000000 ) ) ;
#390 = CARTESIAN_POINT ( 'NONE',  ( -2.749999999999989786, 0.2605709942457038464, 1.200000000000005507 ) ) ;
#391 = CARTESIAN_POINT ( 'NONE',  ( -1.374999999999996447, 2.381569860407198647, 1.199999999999999956 ) ) ;
#392 = EDGE_LOOP ( 'NONE', ( #575, #559 ) ) ;
#393 = CARTESIAN_POINT ( 'NONE',  ( -2.708749999999261249, 1.611528938875959494, 0.9679740571895776302 ) ) ;
#394 = CARTESIAN_POINT ( 'NONE',  ( 0.000000000000000000, 8.673617379884035472E-16, 1.024999999999999245 ) ) ;
#395 = CARTESIAN_POINT ( 'NONE',  ( -2.708749999999990443, -1.611528938875539607, 0.9679740571893398204 ) ) ;
#396 = CARTESIAN_POINT ( 'NONE',  ( 2.742087663019826316, -1.575337062893008566, 0.9619045962810974792 ) ) ;
#397 = DIRECTION ( 'NONE',  ( -0.000000000000000000, -0.000000000000000000, 1.000000000000000000 ) ) ;
#398 = ORIENTED_EDGE ( 'NONE', *, *, #447, .F. ) ;
#399 = CARTESIAN_POINT ( 'NONE',  ( -2.749999999999990230, 1.037719433354944654, -1.096720533069964532 ) ) ;
#400 = CARTESIAN_POINT ( 'NONE',  ( 0.01021544895506661284, 3.162451390457672762, 0.9618675882328119320 ) ) ;
#401 = CARTESIAN_POINT ( 'NONE',  ( -1.374999999999999778, 2.381569860407205308, -1.199999999999999956 ) ) ;
#402 = DIRECTION ( 'NONE',  ( -0.000000000000000000, -0.000000000000000000, -1.000000000000000000 ) ) ;
#403 = CARTESIAN_POINT ( 'NONE',  ( -2.667499999999988436, -1.540081843063324740, 1.199999999999999956 ) ) ;
#404 = CARTESIAN_POINT ( 'NONE',  ( -1.675000000000000266, 1.072490076845585236E-15, 1.199999999999999956 ) ) ;
#405 = CARTESIAN_POINT ( 'NONE',  ( 0.000000000000000000, 8.673617379884035472E-16, -1.199999999999999956 ) ) ;
#406 = VECTOR ( 'NONE', #603, 1000.000000000000000 ) ;
#407 = B_SPLINE_CURVE_WITH_KNOTS ( 'NONE', 3,
 ( #484, #495, #560, #581 ),
 .UNSPECIFIED., .F., .F.,
 ( 4, 4 ),
 ( 4.931862769767370958E-05, 0.001606744326298680794 ),
 .UNSPECIFIED. ) ;
#408 = AXIS2_PLACEMENT_3D ( 'NONE', #237, #585, #417 ) ;
#409 = CARTESIAN_POINT ( 'NONE',  ( 0.04124999999727501504, 3.151610781940429540, -0.9679740571884609679 ) ) ;
#410 = DIRECTION ( 'NONE',  ( 0.000000000000000000, 0.000000000000000000, -1.000000000000000000 ) ) ;
#411 = B_SPLINE_CURVE_WITH_KNOTS ( 'NONE', 3,
 ( #393, #302, #1102, #209, #825, #845, #215, #1121, #922, #832, #141, #315, #418 ),
 .UNSPECIFIED., .F., .F.,
 ( 4, 3, 3, 3, 4 ),
 ( 2.090234940171482677E-16, 2.512987538587770032E-05, 5.034224661021965855E-05, 7.461817198714216180E-05, 8.709110078788897711E-05 ),
 .UNSPECIFIED. ) ;
#412 = CARTESIAN_POINT ( 'NONE',  ( 2.749999999999988454, 1.540081843065818301, -0.9679740571886435996 ) ) ;
#413 = CARTESIAN_POINT ( 'NONE',  ( 1.374999999999994005, 2.381569860407195538, 1.199999999999999956 ) ) ;
#414 = FACE_OUTER_BOUND ( 'NONE', #111, .T. ) ;
#415 = DIRECTION ( 'NONE',  ( 0.000000000000000000, 0.000000000000000000, 1.000000000000000000 ) ) ;
#416 = CARTESIAN_POINT ( 'NONE',  ( -0.01021544895481828370, 3.162451390457673206, -0.9618675882328118210 ) ) ;
#417 = DIRECTION ( 'NONE',  ( -1.000000000000000000, 0.000000000000000000, 0.000000000000000000 ) ) ;
#418 = CARTESIAN_POINT ( 'NONE',  ( -2.749999999999990230, 1.540081843063339395, 0.9679740571893353795 ) ) ;
#419 = EDGE_CURVE ( 'NONE', #196, #464, #85, .T. ) ;
#420 = CARTESIAN_POINT ( 'NONE',  ( -2.749999999999990230, 1.540081843063594746, -0.9679740571892635481 ) ) ;
#421 = EDGE_CURVE ( 'NONE', #721, #1109, #954, .T. ) ;
#422 = B_SPLINE_CURVE_WITH_KNOTS ( 'NONE', 3,
 ( #244, #1127, #1041, #514, #675, #594, #427, #772, #167, #776, #1133, #82, #78 ),
 .UNSPECIFIED., .F., .F.,
 ( 4, 3, 3, 3, 4 ),
 ( 2.086483423767825406E-16, 2.512987538587713789E-05, 5.034224661021934684E-05, 7.461817198714178233E-05, 8.709110078790422370E-05 ),
 .UNSPECIFIED. ) ;
#423 = DIRECTION ( 'NONE',  ( -0.000000000000000000, -0.000000000000000000, 1.000000000000000000 ) ) ;
#424 = VECTOR ( 'NONE', #757, 1000.000000000000000 ) ;
#425 = CONICAL_SURFACE ( 'NONE', #1114, 2.749999999999999112, 1.047197551196600074 ) ;
#426 = CARTESIAN_POINT ( 'NONE',  ( 0.000000000000000000, 8.673617379884035472E-16, -1.199999999999999956 ) ) ;
#427 = CARTESIAN_POINT ( 'NONE',  ( 0.006761915521411045703, -3.162386107025579207, 0.9619045962810963690 ) ) ;
#428 = LINE ( 'NONE', #445, #548 ) ;
#429 = DIRECTION ( 'NONE',  ( 0.000000000000000000, 0.000000000000000000, -1.000000000000000000 ) ) ;
#430 = VERTEX_POINT ( 'NONE', #339 ) ;
#431 = DIRECTION ( 'NONE',  ( 0.000000000000000000, 0.000000000000000000, 1.000000000000000000 ) ) ;
#432 = B_SPLINE_CURVE_WITH_KNOTS ( 'NONE', 3,
 ( #838, #1117, #317, #1129, #1036, #523, #332, #163, #878, #248, #765, #859, #1049 ),
 .UNSPECIFIED., .F., .F.,
 ( 4, 3, 3, 3, 4 ),
 ( 2.639755325268206473E-16, 2.512987538535425768E-05, 5.034224660909103797E-05, 7.461817198638442646E-05, 8.709110078454672063E-05 ),
 .UNSPECIFIED. ) ;
#433 = ADVANCED_FACE ( 'NONE', ( #967 ), #992, .T. ) ;
#434 = DIRECTION ( 'NONE',  ( 1.000000000000000000, 1.776356839400250465E-15, 0.000000000000000000 ) ) ;
#435 = EDGE_LOOP ( 'NONE', ( #195, #921, #457, #398, #875, #170 ) ) ;
#436 = ORIENTED_EDGE ( 'NONE', *, *, #358, .F. ) ;
#437 = EDGE_CURVE ( 'NONE', #464, #965, #106, .T. ) ;
#438 = CARTESIAN_POINT ( 'NONE',  ( 0.000000000000000000, 8.673617379884035472E-16, 1.199999999999999956 ) ) ;
#439 = DIRECTION ( 'NONE',  ( -0.000000000000000000, -0.000000000000000000, -1.000000000000000000 ) ) ;
#440 = EDGE_LOOP ( 'NONE', ( #176, #459, #869, #308 ) ) ;
#441 = ORIENTED_EDGE ( 'NONE', *, *, #1029, .F. ) ;
#442 = AXIS2_PLACEMENT_3D ( 'NONE', #403, #314, #140 ) ;
#443 = CARTESIAN_POINT ( 'NONE',  ( -2.749999999999988454, -1.540081843062731881, 0.9679740571895287804 ) ) ;
#444 = APPROVAL_PERSON_ORGANIZATION ( #92, #633, #811 ) ;
#445 = CARTESIAN_POINT ( 'NONE',  ( 2.708749999999988223, -1.611528938875544714, 1.199999999999999956 ) ) ;
#446 = ORIENTED_EDGE ( 'NONE', *, *, #117, .T. ) ;
#447 = EDGE_CURVE ( 'NONE', #448, #817, #762, .T. ) ;
#448 = VERTEX_POINT ( 'NONE', #1012 ) ;
#449 = CARTESIAN_POINT ( 'NONE',  ( 0.000000000000000000, 0.000000000000000000, -1.199999999999999956 ) ) ;
#450 = CC_DESIGN_DATE_AND_TIME_ASSIGNMENT ( #98, #701, ( #672 ) ) ;
#451 = CARTESIAN_POINT ( 'NONE',  ( 2.708750000002710046, -1.611528938873973305, -0.9679740571884595246 ) ) ;
#452 = EDGE_LOOP ( 'NONE', ( #694, #282, #790, #25, #8, #1140 ) ) ;
#453 = ORIENTED_EDGE ( 'NONE', *, *, #950, .F. ) ;
#454 = CARTESIAN_POINT ( 'NONE',  ( 2.749999999999988454, -1.548143806467019212, -0.9656997233043307372 ) ) ;
#455 = DIRECTION ( 'NONE',  ( 0.000000000000000000, 0.000000000000000000, 1.000000000000000000 ) ) ;
#456 = ORIENTED_EDGE ( 'NONE', *, *, #189, .T. ) ;
#457 = ORIENTED_EDGE ( 'NONE', *, *, #1091, .F. ) ;
#458 = AXIS2_PLACEMENT_3D ( 'NONE', #77, #1011, #216 ) ;
#459 = ORIENTED_EDGE ( 'NONE', *, *, #105, .T. ) ;
#460 = AXIS2_PLACEMENT_3D ( 'NONE', #663, #927, #739 ) ;
#461 = AXIS2_PLACEMENT_3D ( 'NONE', #812, #554, #908 ) ;
#462 = ADVANCED_BREP_SHAPE_REPRESENTATION ( '91828A211_NO THREADS_Corrosion-Resistant 18-8 Stainless Steel Hex Nut', ( #770, #461 ), #945 ) ;
#463 = CARTESIAN_POINT ( 'NONE',  ( -2.708750000000035740, -1.611528938875513628, -0.9679740571893249435 ) ) ;
#464 = VERTEX_POINT ( 'NONE', #572 ) ;
#465 = CALENDAR_DATE ( 2026, 29, 7 ) ;
#466 = ORIENTED_EDGE ( 'NONE', *, *, #820, .T. ) ;
#467 = CARTESIAN_POINT ( 'NONE',  ( -2.718868458806991129, -1.604638263656425146, 0.9649763189097325666 ) ) ;
#468 = ORIENTED_EDGE ( 'NONE', *, *, #950, .T. ) ;
#469 = ORIENTED_EDGE ( 'NONE', *, *, #1126, .F. ) ;
#470 = ADVANCED_FACE ( 'NONE', ( #612 ), #57, .T. ) ;
#471 = DIRECTION ( 'NONE',  ( 1.000000000000000000, 0.000000000000000000, 0.000000000000000000 ) ) ;
#472 = CARTESIAN_POINT ( 'NONE',  ( 1.374999999999999556, 2.381569860407205308, -1.199999999999999956 ) ) ;
#473 = PERSON_AND_ORGANIZATION_ROLE ( 'design_owner' ) ;
#474 = VERTEX_POINT ( 'NONE', #10 ) ;
#475 = CARTESIAN_POINT ( 'NONE',  ( 0.4785057453726298538, 2.899161059643257765, -1.097229345705029502 ) ) ;
#476 = CARTESIAN_POINT ( 'NONE',  ( -2.749999999999990230, 1.587713240271466875, 1.199999999999999956 ) ) ;
#477 = VECTOR ( 'NONE', #673, 1000.000000000000000 ) ;
#478 = CONICAL_SURFACE ( 'NONE', #899, 1.675000000000000266, 0.7853981633974496113 ) ;
#479 = CC_DESIGN_APPROVAL ( #633, ( #1039 ) ) ;
#480 = CYLINDRICAL_SURFACE ( 'NONE', #288, 0.08250000000000010103 ) ;
#481 = CARTESIAN_POINT ( 'NONE',  ( 2.722340182149496357, -1.602274221114108999, 0.9639485532686951075 ) ) ;
#482 = CARTESIAN_POINT ( 'NONE',  ( -2.667499999999990212, 1.540081843063322298, 1.199999999999999956 ) ) ;
#483 = EDGE_LOOP ( 'NONE', ( #684, #80, #377, #900 ) ) ;
#484 = CARTESIAN_POINT ( 'NONE',  ( 0.04124999999995321298, -3.151610781938889438, -0.9679740571893230561 ) ) ;
#485 = FACE_OUTER_BOUND ( 'NONE', #977, .T. ) ;
#486 = CC_DESIGN_PERSON_AND_ORGANIZATION_ASSIGNMENT ( #723, #364, ( #107 ) ) ;
#487 = FACE_OUTER_BOUND ( 'NONE', #1101, .T. ) ;
#488 = ORIENTED_EDGE ( 'NONE', *, *, #328, .F. ) ;
#489 = CARTESIAN_POINT ( 'NONE',  ( 0.000000000000000000, 0.000000000000000000, -1.199999999999999956 ) ) ;
#490 = CARTESIAN_POINT ( 'NONE',  ( 0.04124999999999850314, -3.151610781938863237, 0.9679740571893377110 ) ) ;
#491 = DIRECTION ( 'NONE',  ( -0.000000000000000000, -0.000000000000000000, -1.000000000000000000 ) ) ;
#492 = CARTESIAN_POINT ( 'NONE',  ( 2.749999999999988454, 0.000000000000000000, 1.199999999999999956 ) ) ;
#493 = CARTESIAN_POINT ( 'NONE',  ( 2.272235961018132411, 1.863550436786761244, 1.110167962998527935 ) ) ;
#494 = FACE_OUTER_BOUND ( 'NONE', #46, .T. ) ;
#495 = CARTESIAN_POINT ( 'NONE',  ( 0.4777640389818267330, -2.899589284027654479, -1.110167962998517943 ) ) ;
#496 = CARTESIAN_POINT ( 'NONE',  ( 8.496153738073918332E-16, -3.175426480542933749, 1.199999999999999956 ) ) ;
#497 = AXIS2_PLACEMENT_3D ( 'NONE', #184, #646, #471 ) ;
#498 = AXIS2_PLACEMENT_3D ( 'NONE', #661, #415, #133 ) ;
#499 = CARTESIAN_POINT ( 'NONE',  ( -2.749999999999988898, -0.5247122102793007059, -1.200000000000005285 ) ) ;
#500 = CARTESIAN_POINT ( 'NONE',  ( 1.829206720937237129, 2.119333487806341232, 1.200000000000007727 ) ) ;
#501 = CARTESIAN_POINT ( 'NONE',  ( -2.750000000000029310, -1.544125232108066959, -0.9668333900523037316 ) ) ;
#502 = EDGE_CURVE ( 'NONE', #650, #188, #154, .T. ) ;
#503 = DIRECTION ( 'NONE',  ( 1.000000000000000000, 0.000000000000000000, 0.000000000000000000 ) ) ;
#504 = DIRECTION ( 'NONE',  ( -0.8660254037844389297, -0.4999999999999994449, 0.000000000000000000 ) ) ;
#505 = B_SPLINE_CURVE_WITH_KNOTS ( 'NONE', 3,
 ( #135, #67, #129, #1023, #326, #656 ),
 .UNSPECIFIED., .F., .F.,
 ( 4, 2, 4 ),
 ( 0.004334883647983195191, 0.005116217417000879300, 0.005897551186018563409 ),
 .UNSPECIFIED. ) ;
#506 = B_SPLINE_CURVE_WITH_KNOTS ( 'NONE', 3,
 ( #662, #849, #584, #1119, #416, #1124, #320, #240, #1025, #659, #1122, #142, #943 ),
 .UNSPECIFIED., .F., .F.,
 ( 4, 3, 3, 3, 4 ),
 ( 5.305616888353419469E-17, 2.512987538535989553E-05, 5.034224660910343175E-05, 7.461817198639297810E-05, 8.709110078454829272E-05 ),
 .UNSPECIFIED. ) ;
#507 = CARTESIAN_POINT ( 'NONE',  ( -2.749999999999988454, -1.540081843065822964, -0.9679740571886420453 ) ) ;
#508 = DIRECTION ( 'NONE',  ( 0.000000000000000000, 0.000000000000000000, -1.000000000000000000 ) ) ;
#509 = CARTESIAN_POINT ( 'NONE',  ( 2.749999999999988454, 1.548143806467144445, 0.9656997233086034305 ) ) ;
#510 = CARTESIAN_POINT ( 'NONE',  ( 1.601237617163064453, -2.250951511237286873, 1.200000000000004174 ) ) ;
#511 = AXIS2_PLACEMENT_3D ( 'NONE', #846, #491, #42 ) ;
#512 = CARTESIAN_POINT ( 'NONE',  ( -1.499999999999999556, 8.673617379884035472E-16, 1.199999999999999956 ) ) ;
#513 = ORIENTED_EDGE ( 'NONE', *, *, #358, .T. ) ;
#514 = CARTESIAN_POINT ( 'NONE',  ( -0.01833609470061768262, -3.160600230253864051, 0.9629091386531041241 ) ) ;
#515 = EDGE_CURVE ( 'NONE', #448, #699, #654, .T. ) ;
#516 = DIRECTION ( 'NONE',  ( -0.000000000000000000, -0.000000000000000000, -1.000000000000000000 ) ) ;
#517 = ORIENTED_EDGE ( 'NONE', *, *, #232, .F. ) ;
#518 = VERTEX_POINT ( 'NONE', #885 ) ;
#519 = DIRECTION ( 'NONE',  ( -1.000000000000000000, 0.000000000000000000, 0.000000000000000000 ) ) ;
#520 = DIRECTION ( 'NONE',  ( 0.8660254037844385966, -0.5000000000000001110, 0.000000000000000000 ) ) ;
#521 = ORIENTED_EDGE ( 'NONE', *, *, #272, .T. ) ;
#522 = ORIENTED_EDGE ( 'NONE', *, *, #669, .F. ) ;
#523 = CARTESIAN_POINT ( 'NONE',  ( -2.740099286588566052, 1.580155534414413587, -0.9615181289153426070 ) ) ;
#524 = FACE_OUTER_BOUND ( 'NONE', #121, .T. ) ;
#525 = ORIENTED_EDGE ( 'NONE', *, *, #632, .F. ) ;
#526 = ORIENTED_EDGE ( 'NONE', *, *, #383, .T. ) ;
#527 = AXIS2_PLACEMENT_3D ( 'NONE', #596, #953, #874 ) ;
#528 = CARTESIAN_POINT ( 'NONE',  ( -0.4777640389818598732, 2.899589284027633163, 1.110167962998525937 ) ) ;
#529 = LOCAL_TIME ( 15, 48, 36.00000000000000000, #544 ) ;
#530 = ADVANCED_FACE ( 'NONE', ( #1006 ), #480, .T. ) ;
#531 = ADVANCED_FACE ( 'NONE', ( #191 ), #1035, .T. ) ;
#532 = LINE ( 'NONE', #886, #127 ) ;
#533 = ORIENTED_EDGE ( 'NONE', *, *, #88, .T. ) ;
#534 = ORIENTED_EDGE ( 'NONE', *, *, #28, .T. ) ;
#535 = CARTESIAN_POINT ( 'NONE',  ( 2.667499999999988436, 1.540081843063319411, 1.199999999999999956 ) ) ;
#536 = CARTESIAN_POINT ( 'NONE',  ( -1.827271304445061251, 2.120450901039096614, 1.177916437460081456 ) ) ;
#537 = CARTESIAN_POINT ( 'NONE',  ( 1.374999999999998002, -2.381569860407206196, -1.199999999999999956 ) ) ;
#538 = ORIENTED_EDGE ( 'NONE', *, *, #1045, .F. ) ;
#539 = ORIENTED_EDGE ( 'NONE', *, *, #629, .T. ) ;
#540 = CARTESIAN_POINT ( 'NONE',  ( -0.04124999999727803346, -3.151610781940433537, -0.9679740571884586364 ) ) ;
#541 = CARTESIAN_POINT ( 'NONE',  ( 1.827271304446246969, -2.120450901038416713, -1.177916437459961774 ) ) ;
#542 = CARTESIAN_POINT ( 'NONE',  ( -2.748780270388450742, -1.556478644927719479, 0.9639485532686712377 ) ) ;
#543 = ORIENTED_EDGE ( 'NONE', *, *, #189, .F. ) ;
#544 = COORDINATED_UNIVERSAL_TIME_OFFSET ( 6, 0, .BEHIND. ) ;
#545 = CONICAL_SURFACE ( 'NONE', #919, 2.749999999999999112, 1.047197551196600074 ) ;
#546 = CARTESIAN_POINT ( 'NONE',  ( -0.03405174389594468887, -3.155420964603540490, -0.9658253715515037197 ) ) ;
#547 = VERTEX_POINT ( 'NONE', #219 ) ;
#548 = VECTOR ( 'NONE', #969, 1000.000000000000000 ) ;
#549 = EDGE_CURVE ( 'NONE', #130, #796, #386, .T. ) ;
#550 = B_SPLINE_CURVE_WITH_KNOTS ( 'NONE', 3,
 ( #65, #915, #131, #475, #837, #238 ),
 .UNSPECIFIED., .F., .F.,
 ( 4, 2, 4 ),
 ( 0.001606744326298680577, 0.002382488635484327801, 0.003158232944669974590 ),
 .UNSPECIFIED. ) ;
#551 = ADVANCED_FACE ( 'NONE', ( #211 ), #344, .T. ) ;
#552 = VERTEX_POINT ( 'NONE', #618 ) ;
#553 = VERTEX_POINT ( 'NONE', #972 ) ;
#554 = DIRECTION ( 'NONE',  ( 0.000000000000000000, 0.000000000000000000, 1.000000000000000000 ) ) ;
#555 = ORIENTED_EDGE ( 'NONE', *, *, #653, .F. ) ;
#556 = CARTESIAN_POINT ( 'NONE',  ( 1.374999999999994005, 2.381569860407195538, 1.199999999999999956 ) ) ;
#557 = EDGE_LOOP ( 'NONE', ( #181, #635, #81, #732 ) ) ;
#558 = PERSON_AND_ORGANIZATION ( #1083, #641 ) ;
#559 = ORIENTED_EDGE ( 'NONE', *, *, #30, .T. ) ;
#560 = CARTESIAN_POINT ( 'NONE',  ( 0.9207932790627370023, -2.643806233008065831, -1.200000000000003952 ) ) ;
#561 = CARTESIAN_POINT ( 'NONE',  ( 2.712251677630020730, -1.609507244353289401, -0.9668333900523380375 ) ) ;
#562 = CYLINDRICAL_SURFACE ( 'NONE', #844, 0.08250000000000010103 ) ;
#563 = CYLINDRICAL_SURFACE ( 'NONE', #442, 0.08250000000000010103 ) ;
#564 = EDGE_CURVE ( 'NONE', #274, #263, #980, .T. ) ;
#565 = ORIENTED_EDGE ( 'NONE', *, *, #272, .F. ) ;
#566 = LINE ( 'NONE', #936, #1143 ) ;
#567 = CARTESIAN_POINT ( 'NONE',  ( 2.708750000000035740, 1.611528938875508521, -0.9679740571893266088 ) ) ;
#568 = B_SPLINE_CURVE_WITH_KNOTS ( 'NONE', 3,
 ( #1099, #989, #542, #36, #993, #647, #918, #809, #904, #467, #814, #1093, #292 ),
 .UNSPECIFIED., .F., .F.,
 ( 4, 3, 3, 3, 4 ),
 ( 2.400137606363752682E-16, 2.512987538577159081E-05, 5.034224660999139333E-05, 7.461817198698869299E-05, 8.709110078787425907E-05 ),
 .UNSPECIFIED. ) ;
#569 = EDGE_CURVE ( 'NONE', #196, #775, #914, .T. ) ;
#570 = AXIS2_PLACEMENT_3D ( 'NONE', #1007, #212, #829 ) ;
#571 = AXIS2_PLACEMENT_3D ( 'NONE', #193, #455, #370 ) ;
#572 = CARTESIAN_POINT ( 'NONE',  ( 2.749999999999999112, 0.000000000000000000, -1.199999999999999956 ) ) ;
#573 = CARTESIAN_POINT ( 'NONE',  ( 0.000000000000000000, 8.673617379884035472E-16, 1.199999999999999956 ) ) ;
#574 = DIRECTION ( 'NONE',  ( 1.000000000000000000, 0.000000000000000000, 0.000000000000000000 ) ) ;
#575 = ORIENTED_EDGE ( 'NONE', *, *, #245, .T. ) ;
#576 = CARTESIAN_POINT ( 'NONE',  ( 2.715731865111967291, 1.607497957173689151, -0.9656997233043943529 ) ) ;
#577 = DIRECTION ( 'NONE',  ( 1.000000000000000000, 5.462962177226044315E-16, -0.000000000000000000 ) ) ;
#578 = CARTESIAN_POINT ( 'NONE',  ( -2.749999999999988898, -1.036231657448001275, -1.110113569947617229 ) ) ;
#579 = CARTESIAN_POINT ( 'NONE',  ( 2.708749999999990887, 1.611528938875534500, 0.9679740571893414858 ) ) ;
#580 = DIRECTION ( 'NONE',  ( -1.000000000000000000, 0.000000000000000000, 0.000000000000000000 ) ) ;
#581 = CARTESIAN_POINT ( 'NONE',  ( 1.374999999999998002, -2.381569860407206196, -1.199999999999999956 ) ) ;
#582 = CARTESIAN_POINT ( 'NONE',  ( -0.03022327080759683662, 3.156928286703280850, 0.9649763189097497751 ) ) ;
#583 = CARTESIAN_POINT ( 'NONE',  ( 1.374999999999996225, -2.381569860407203532, 1.199999999999999956 ) ) ;
#584 = CARTESIAN_POINT ( 'NONE',  ( -0.02644008823829394755, 3.158752866041888652, -0.9639485532685742042 ) ) ;
#585 = DIRECTION ( 'NONE',  ( 0.000000000000000000, 0.000000000000000000, -1.000000000000000000 ) ) ;
#586 = CARTESIAN_POINT ( 'NONE',  ( 0.2589747118149510197, 3.025907360963260739, 1.038897611529872922 ) ) ;
#587 = DIRECTION ( 'NONE',  ( 0.000000000000000000, 0.000000000000000000, 1.000000000000000000 ) ) ;
#588 = CIRCLE ( 'NONE', #458, 1.675000000000000266 ) ;
#589 = CARTESIAN_POINT ( 'NONE',  ( 1.374999999999998002, -2.381569860407206196, -1.199999999999999956 ) ) ;
#590 = CARTESIAN_POINT ( 'NONE',  ( 2.749091729614459911, 1.552290023047206313, -0.9649763189096677296 ) ) ;
#591 = CARTESIAN_POINT ( 'NONE',  ( -1.499999999999999556, 8.673617379884035472E-16, -1.024999999999999689 ) ) ;
#592 = DIRECTION ( 'NONE',  ( 0.7071067811865483499, 8.659560562354942719E-17, -0.7071067811865465735 ) ) ;
#593 = B_SPLINE_CURVE_WITH_KNOTS ( 'NONE', 3,
 ( #120, #624, #1003, #720, #649, #281 ),
 .UNSPECIFIED., .F., .F.,
 ( 4, 2, 4 ),
 ( 0.001606744326298678409, 0.002382488635484324765, 0.003158232944669971121 ),
 .UNSPECIFIED. ) ;
#594 = CARTESIAN_POINT ( 'NONE',  ( -0.001594808560734202419, -3.163073358284559156, 0.9615181289153215127 ) ) ;
#595 = EDGE_CURVE ( 'NONE', #97, #553, #74, .T. ) ;
#596 = CARTESIAN_POINT ( 'NONE',  ( 0.000000000000000000, 8.673617379884035472E-16, 1.199999999999999956 ) ) ;
#597 = CARTESIAN_POINT ( 'NONE',  ( 2.749999999999988010, -1.290315930460969707, -1.038434694367680766 ) ) ;
#598 = CIRCLE ( 'NONE', #160, 1.499999999999999556 ) ;
#599 = AXIS2_PLACEMENT_3D ( 'NONE', #1021, #312, #933 ) ;
#600 = PLANE ( 'NONE',  #1130 ) ;
#601 = ORIENTED_EDGE ( 'NONE', *, *, #5, .T. ) ;
#602 = ORIENTED_EDGE ( 'NONE', *, *, #564, .F. ) ;
#603 = DIRECTION ( 'NONE',  ( -0.000000000000000000, -0.000000000000000000, -1.000000000000000000 ) ) ;
#604 = CARTESIAN_POINT ( 'NONE',  ( -0.04124999999727803346, -3.151610781940433537, -0.9679740571884586364 ) ) ;
#605 = ORIENTED_EDGE ( 'NONE', *, *, #1045, .T. ) ;
#606 = ORIENTED_EDGE ( 'NONE', *, *, #318, .F. ) ;
#607 = FACE_OUTER_BOUND ( 'NONE', #452, .T. ) ;
#608 = CARTESIAN_POINT ( 'NONE',  ( 2.749999999999988454, 1.540081843065818301, -0.9679740571886435996 ) ) ;
#609 = EDGE_CURVE ( 'NONE', #208, #712, #856, .T. ) ;
#610 = ORIENTED_EDGE ( 'NONE', *, *, #5, .F. ) ;
#611 = ORIENTED_EDGE ( 'NONE', *, *, #316, .F. ) ;
#612 = FACE_OUTER_BOUND ( 'NONE', #871, .T. ) ;
#613 = CARTESIAN_POINT ( 'NONE',  ( 2.491025288187928233, -1.737232359849471219, -1.038897611529067788 ) ) ;
#614 = VERTEX_POINT ( 'NONE', #556 ) ;
#615 = AXIS2_PLACEMENT_3D ( 'NONE', #949, #327, #157 ) ;
#616 = VERTEX_POINT ( 'NONE', #583 ) ;
#617 = APPROVAL_STATUS ( 'not_yet_approved' ) ;
#618 = CARTESIAN_POINT ( 'NONE',  ( 1.675000000000000266, 1.072490076845585236E-15, -1.199999999999999956 ) ) ;
#619 = CARTESIAN_POINT ( 'NONE',  ( 2.712251677630516333, 1.609507244352935018, 0.9668333900521962621 ) ) ;
#620 = ORIENTED_EDGE ( 'NONE', *, *, #502, .F. ) ;
#621 = ORIENTED_EDGE ( 'NONE', *, *, #421, .F. ) ;
#622 = COORDINATED_UNIVERSAL_TIME_OFFSET ( 6, 0, .BEHIND. ) ;
#623 = CARTESIAN_POINT ( 'NONE',  ( 2.718868458807246924, -1.604638263656224861, -0.9649763189096639548 ) ) ;
#624 = CARTESIAN_POINT ( 'NONE',  ( -1.148762382836330254, -2.512188209577461695, -1.200000000000005507 ) ) ;
#625 = CARTESIAN_POINT ( 'NONE',  ( 2.708749999999990887, 1.611528938875534500, 0.9679740571893414858 ) ) ;
#626 = CARTESIAN_POINT ( 'NONE',  ( -2.708749999999990443, -1.611528938875539607, 0.9679740571893398204 ) ) ;
#627 = EDGE_CURVE ( 'NONE', #343, #430, #862, .T. ) ;
#628 = ORIENTED_EDGE ( 'NONE', *, *, #361, .F. ) ;
#629 = EDGE_CURVE ( 'NONE', #690, #614, #957, .T. ) ;
#630 = LINE ( 'NONE', #294, #38 ) ;
#631 = ORIENTED_EDGE ( 'NONE', *, *, #419, .F. ) ;
#632 = EDGE_CURVE ( 'NONE', #343, #547, #226, .T. ) ;
#633 = APPROVAL ( #901, 'UNSPECIFIED' ) ;
#634 = DIRECTION ( 'NONE',  ( 1.000000000000000000, 0.000000000000000000, 0.000000000000000000 ) ) ;
#635 = ORIENTED_EDGE ( 'NONE', *, *, #328, .T. ) ;
#636 = PERSON_AND_ORGANIZATION ( #1083, #641 ) ;
#637 = AXIS2_PLACEMENT_3D ( 'NONE', #1142, #508, #345 ) ;
#638 = CARTESIAN_POINT ( 'NONE',  ( -2.491025288185036324, 1.737232359851136110, 1.038897611529871812 ) ) ;
#639 = ORIENTED_EDGE ( 'NONE', *, *, #948, .T. ) ;
#640 = CIRCLE ( 'NONE', #706, 2.749999999999999112 ) ;
#641 = ORGANIZATION ( 'UNSPECIFIED', 'UNSPECIFIED', '' ) ;
#642 = DIRECTION ( 'NONE',  ( 0.000000000000000000, 0.000000000000000000, -1.000000000000000000 ) ) ;
#643 = CARTESIAN_POINT ( 'NONE',  ( -0.03022327080721618625, -3.156928286703432729, -0.9649763189096639548 ) ) ;
#644 = ORIENTED_EDGE ( 'NONE', *, *, #515, .F. ) ;
#645 = CARTESIAN_POINT ( 'NONE',  ( 2.708750000002710046, -1.611528938873973305, -0.9679740571884595246 ) ) ;
#646 = DIRECTION ( 'NONE',  ( 0.000000000000000000, 0.000000000000000000, -1.000000000000000000 ) ) ;
#647 = CARTESIAN_POINT ( 'NONE',  ( -2.740099286588551397, -1.580155534414492857, 0.9615181289153275079 ) ) ;
#648 = B_SPLINE_CURVE_WITH_KNOTS ( 'NONE', 3,
 ( #225, #60, #231, #1103, #400, #931, #916, #652, #671, #582, #1031, #833, #749 ),
 .UNSPECIFIED., .F., .F.,
 ( 4, 3, 3, 3, 4 ),
 ( 2.093629233450931838E-16, 2.512987538587710740E-05, 5.034224661021926553E-05, 7.461817198714175523E-05, 8.709110078790442699E-05 ),
 .UNSPECIFIED. ) ;
#649 = CARTESIAN_POINT ( 'NONE',  ( -0.2589747118120597769, -3.025907360964935400, -1.038897611529067566 ) ) ;
#650 = VERTEX_POINT ( 'NONE', #752 ) ;
#651 = DIRECTION ( 'NONE',  ( -0.000000000000000000, -0.000000000000000000, 1.000000000000000000 ) ) ;
#652 = CARTESIAN_POINT ( 'NONE',  ( -0.01482042129006036837, 3.161723381036232627, 0.9622772721605314938 ) ) ;
#653 = EDGE_CURVE ( 'NONE', #102, #1065, #955, .T. ) ;
#654 = LINE ( 'NONE', #357, #897 ) ;
#655 = CARTESIAN_POINT ( 'NONE',  ( -2.749999999999989342, -1.502314598737156270E-15, 1.199999999999999956 ) ) ;
#656 = CARTESIAN_POINT ( 'NONE',  ( 2.749999999999988454, 0.000000000000000000, 1.199999999999999956 ) ) ;
#657 = EDGE_LOOP ( 'NONE', ( #115, #991, #620, #913, #876, #22 ) ) ;
#658 = DIRECTION ( 'NONE',  ( 0.000000000000000000, 0.000000000000000000, -1.000000000000000000 ) ) ;
#659 = CARTESIAN_POINT ( 'NONE',  ( 0.03022327080721307763, 3.156928286703429176, -0.9649763189096665084 ) ) ;
#660 = VECTOR ( 'NONE', #592, 1000.000000000000114 ) ;
#661 = CARTESIAN_POINT ( 'NONE',  ( 0.000000000000000000, 0.000000000000000000, 1.199999999999999956 ) ) ;
#662 = CARTESIAN_POINT ( 'NONE',  ( -0.04124999999995631467, 3.151610781938885442, -0.9679740571893251655 ) ) ;
#663 = CARTESIAN_POINT ( 'NONE',  ( 2.749999999999988454, -1.587713240271472204, 1.199999999999999956 ) ) ;
#664 = CARTESIAN_POINT ( 'NONE',  ( 2.733655517892357167, 1.590072533534767629, -0.9618675882328131532 ) ) ;
#665 = CARTESIAN_POINT ( 'NONE',  ( -2.749999999999990230, 1.540081843063322298, 1.199999999999999956 ) ) ;
#666 = CARTESIAN_POINT ( 'NONE',  ( -2.708750000002711378, 1.611528938873967309, -0.9679740571884606348 ) ) ;
#667 = CARTESIAN_POINT ( 'NONE',  ( 0.000000000000000000, 8.673617379884035472E-16, 1.024999999999999245 ) ) ;
#668 = CARTESIAN_POINT ( 'NONE',  ( -2.745542978361493081, -1.568026829186527360, -0.9622772721604900825 ) ) ;
#669 = EDGE_CURVE ( 'NONE', #699, #102, #24, .T. ) ;
#670 = CARTESIAN_POINT ( 'NONE',  ( -2.272235961018162609, -1.863550436786748810, -1.110167962998519497 ) ) ;
#671 = CARTESIAN_POINT ( 'NONE',  ( -0.02284710232392357307, 3.159832384893460411, 0.9633404825873665978 ) ) ;
#672 = PRODUCT_DEFINITION ( 'UNKNOWN', '', #107, #75 ) ;
#673 = DIRECTION ( 'NONE',  ( -0.000000000000000000, -0.000000000000000000, 1.000000000000000000 ) ) ;
#674 = DIRECTION ( 'NONE',  ( 1.000000000000000000, 0.000000000000000000, 0.000000000000000000 ) ) ;
#675 = CARTESIAN_POINT ( 'NONE',  ( -0.01021544895506953238, -3.162451390457676759, 0.9618675882328096005 ) ) ;
#676 = CIRCLE ( 'NONE', #511, 2.749999999999999112 ) ;
#677 = AXIS2_PLACEMENT_3D ( 'NONE', #159, #164, #788 ) ;
#678 = FACE_OUTER_BOUND ( 'NONE', #435, .T. ) ;
#679 = CARTESIAN_POINT ( 'NONE',  ( 1.499999999999999556, 1.051058757860506467E-15, 1.199999999999999956 ) ) ;
#680 = DIRECTION ( 'NONE',  ( 0.000000000000000000, 0.000000000000000000, 1.000000000000000000 ) ) ;
#681 = CARTESIAN_POINT ( 'NONE',  ( 0.000000000000000000, 8.673617379884035472E-16, 1.024999999999999245 ) ) ;
#682 = LINE ( 'NONE', #1040, #944 ) ;
#683 = CARTESIAN_POINT ( 'NONE',  ( 2.749999999999988454, 1.540081843062725664, 0.9679740571895304457 ) ) ;
#684 = ORIENTED_EDGE ( 'NONE', *, *, #105, .F. ) ;
#685 = CARTESIAN_POINT ( 'NONE',  ( 0.000000000000000000, 0.000000000000000000, -1.199999999999999956 ) ) ;
#686 = AXIS2_PLACEMENT_3D ( 'NONE', #1027, #934, #236 ) ;
#687 = CIRCLE ( 'NONE', #1037, 2.749999999999999112 ) ;
#688 = APPROVAL_PERSON_ORGANIZATION ( #39, #893, #23 ) ;
#689 = CARTESIAN_POINT ( 'NONE',  ( 0.000000000000000000, 0.000000000000000000, -1.199999999999999956 ) ) ;
#690 = VERTEX_POINT ( 'NONE', #492 ) ;
#691 = ORIENTED_EDGE ( 'NONE', *, *, #1068, .F. ) ;
#692 = CARTESIAN_POINT ( 'NONE',  ( 2.749999999999988010, -1.037719433354949761, -1.096720533069963865 ) ) ;
#693 = CARTESIAN_POINT ( 'NONE',  ( 0.000000000000000000, 0.000000000000000000, 1.199999999999999956 ) ) ;
#694 = ORIENTED_EDGE ( 'NONE', *, *, #1107, .T. ) ;
#695 = CARTESIAN_POINT ( 'NONE',  ( 2.725071565856840294, -1.599702363461828147, -0.9633404825873010946 ) ) ;
#696 = ADVANCED_FACE ( 'NONE', ( #487 ), #847, .T. ) ;
#697 = B_SPLINE_CURVE_WITH_KNOTS ( 'NONE', 3,
 ( #793, #12, #360, #703, #1071, #273, #1088, #912, #798, #643, #546, #380, #540 ),
 .UNSPECIFIED., .F., .F.,
 ( 4, 3, 3, 3, 4 ),
 ( 5.288001288156575814E-17, 2.512987538535982099E-05, 5.034224660910327590E-05, 7.461817198639270705E-05, 8.709110078454795391E-05 ),
 .UNSPECIFIED. ) ;
#698 = CARTESIAN_POINT ( 'NONE',  ( 2.746328137957063209, 1.564420591310105690, 0.9629091386530932439 ) ) ;
#699 = VERTEX_POINT ( 'NONE', #55 ) ;
#700 = EDGE_LOOP ( 'NONE', ( #1009, #1048, #356, #525 ) ) ;
#701 = DATE_TIME_ROLE ( 'creation_date' ) ;
#702 = DIRECTION ( 'NONE',  ( 0.000000000000000000, 0.000000000000000000, -1.000000000000000000 ) ) ;
#703 = CARTESIAN_POINT ( 'NONE',  ( 0.01833609470007107473, -3.160600230253988840, -0.9629091386530337360 ) ) ;
#704 = ORIENTED_EDGE ( 'NONE', *, *, #751, .F. ) ;
#705 = ORIENTED_EDGE ( 'NONE', *, *, #1107, .F. ) ;
#706 = AXIS2_PLACEMENT_3D ( 'NONE', #689, #1134, #434 ) ;
#707 = CARTESIAN_POINT ( 'NONE',  ( 2.740099286588564276, -1.580155534414419138, -0.9615181289153419408 ) ) ;
#708 = CARTESIAN_POINT ( 'NONE',  ( -2.271494254625025633, 1.863978661172484896, 1.097229345705549752 ) ) ;
#709 = B_SPLINE_CURVE_WITH_KNOTS ( 'NONE', 3,
 ( #32, #16, #203, #192, #987, #276 ),
 .UNSPECIFIED., .F., .F.,
 ( 4, 2, 4 ),
 ( 0.001606744326298677542, 0.002382488635482275189, 0.003158232944665872836 ),
 .UNSPECIFIED. ) ;
#710 = CARTESIAN_POINT ( 'NONE',  ( 2.730722557071627588, 1.593696551850028342, 0.9622772721605244994 ) ) ;
#711 = ORIENTED_EDGE ( 'NONE', *, *, #206, .F. ) ;
#712 = VERTEX_POINT ( 'NONE', #834 ) ;
#713 = DATE_TIME_ROLE ( 'classification_date' ) ;
#714 = CARTESIAN_POINT ( 'NONE',  ( -2.708749999999261249, 1.611528938875959494, 0.9679740571895776302 ) ) ;
#715 = VERTEX_POINT ( 'NONE', #235 ) ;
#716 = CARTESIAN_POINT ( 'NONE',  ( 2.749091729614519863, -1.552290023046814627, 0.9649763189097488869 ) ) ;
#717 = PRODUCT ( '91828A211_NO THREADS_Corrosion-Resistant 18-8 Stainless Steel Hex Nut', '91828A211_NO THREADS_Corrosion-Resistant 18-8 Stainless Steel Hex Nut', '', ( #731 ) ) ;
#718 = EDGE_LOOP ( 'NONE', ( #978, #815 ) ) ;
#719 = APPROVAL_DATE_TIME ( #202, #633 ) ;
#720 = CARTESIAN_POINT ( 'NONE',  ( -0.4785057453726326293, -2.899161059643261762, -1.097229345705027281 ) ) ;
#721 = VERTEX_POINT ( 'NONE', #409 ) ;
#722 = CARTESIAN_POINT ( 'NONE',  ( -1.374999999999999778, 2.381569860407205308, -1.199999999999999956 ) ) ;
#723 = PERSON_AND_ORGANIZATION ( #1083, #641 ) ;
#724 = EDGE_CURVE ( 'NONE', #803, #208, #870, .T. ) ;
#725 = CIRCLE ( 'NONE', #767, 1.675000000000000266 ) ;
#726 = ORIENTED_EDGE ( 'NONE', *, *, #383, .F. ) ;
#727 = AXIS2_PLACEMENT_3D ( 'NONE', #940, #850, #674 ) ;
#728 = EDGE_CURVE ( 'NONE', #965, #721, #550, .T. ) ;
#729 = CARTESIAN_POINT ( 'NONE',  ( 0.000000000000000000, 0.000000000000000000, -1.199999999999999956 ) ) ;
#730 = CARTESIAN_POINT ( 'NONE',  ( 2.738504478027813605, -1.582917823870053642, 0.9615181289153226230 ) ) ;
#731 = MECHANICAL_CONTEXT ( 'NONE', #311, 'mechanical' ) ;
#732 = ORIENTED_EDGE ( 'NONE', *, *, #948, .F. ) ;
#733 = EDGE_CURVE ( 'NONE', #474, #362, #411, .T. ) ;
#734 = CARTESIAN_POINT ( 'NONE',  ( -1.374999999999999778, -2.381569860407205308, -1.199999999999999956 ) ) ;
#735 = EDGE_CURVE ( 'NONE', #175, #130, #407, .T. ) ;
#736 = DIRECTION ( 'NONE',  ( -1.000000000000000000, 0.000000000000000000, 0.000000000000000000 ) ) ;
#737 = CARTESIAN_POINT ( 'NONE',  ( -1.374999999999997113, -2.381569860407199979, 1.199999999999999956 ) ) ;
#738 = CARTESIAN_POINT ( 'NONE',  ( 2.749700586928598423, -1.548220807044812686, 0.9658253715514969473 ) ) ;
#739 = DIRECTION ( 'NONE',  ( 0.000000000000000000, 0.000000000000000000, 1.000000000000000000 ) ) ;
#740 = ORIENTED_EDGE ( 'NONE', *, *, #766, .T. ) ;
#741 = FACE_OUTER_BOUND ( 'NONE', #966, .T. ) ;
#742 = DIRECTION ( 'NONE',  ( -0.4999999999999995004, 0.8660254037844390407, 0.000000000000000000 ) ) ;
#743 = EDGE_CURVE ( 'NONE', #712, #188, #566, .T. ) ;
#744 = CARTESIAN_POINT ( 'NONE',  ( -2.271494254627357545, 1.863978661171138640, -1.097229345705028392 ) ) ;
#745 = CARTESIAN_POINT ( 'NONE',  ( 0.000000000000000000, 0.000000000000000000, 1.199999999999999956 ) ) ;
#746 = CARTESIAN_POINT ( 'NONE',  ( -1.374999999999996447, 2.381569860407198647, 1.199999999999999956 ) ) ;
#747 = AXIS2_PLACEMENT_3D ( 'NONE', #449, #891, #910 ) ;
#748 = CARTESIAN_POINT ( 'NONE',  ( -1.374999999999999778, -2.381569860407205308, -1.199999999999999956 ) ) ;
#749 = CARTESIAN_POINT ( 'NONE',  ( -0.04125000000000189626, 3.151610781938859684, 0.9679740571893400425 ) ) ;
#750 = CIRCLE ( 'NONE', #804, 1.499999999999999556 ) ;
#751 = EDGE_CURVE ( 'NONE', #103, #796, #795, .T. ) ;
#752 = CARTESIAN_POINT ( 'NONE',  ( -2.749999999999989342, -1.502314598737156270E-15, 1.199999999999999956 ) ) ;
#753 = DIRECTION ( 'NONE',  ( 1.000000000000000000, 0.000000000000000000, 0.000000000000000000 ) ) ;
#754 = DIRECTION ( 'NONE',  ( 1.000000000000000000, 0.000000000000000000, 0.000000000000000000 ) ) ;
#755 = ADVANCED_FACE ( 'NONE', ( #41 ), #198, .T. ) ;
#756 = CARTESIAN_POINT ( 'NONE',  ( 1.148762382836925111, 2.512188209577113085, 1.200000000000007949 ) ) ;
#757 = DIRECTION ( 'NONE',  ( 0.000000000000000000, 0.000000000000000000, -1.000000000000000000 ) ) ;
#758 = CARTESIAN_POINT ( 'NONE',  ( -1.827271304446247413, 2.120450901038413161, -1.177916437459962884 ) ) ;
#759 = CARTESIAN_POINT ( 'NONE',  ( -2.749999999999988454, -1.540081843062731881, 0.9679740571895287804 ) ) ;
#760 = B_SPLINE_CURVE_WITH_KNOTS ( 'NONE', 3,
 ( #391, #185, #536, #708, #638, #714 ),
 .UNSPECIFIED., .F., .F.,
 ( 4, 2, 4 ),
 ( 0.001606744326298678843, 0.002382488635482273888, 0.003158232944665870234 ),
 .UNSPECIFIED. ) ;
#761 = CARTESIAN_POINT ( 'NONE',  ( -2.749700586928621071, -1.548220807044793590, -0.9658253715514908411 ) ) ;
#762 = B_SPLINE_CURVE_WITH_KNOTS ( 'NONE', 3,
 ( #43, #528, #365, #792 ),
 .UNSPECIFIED., .F., .F.,
 ( 4, 4 ),
 ( 4.931862769772815008E-05, 0.001606744326298678843 ),
 .UNSPECIFIED. ) ;
#763 = CYLINDRICAL_SURFACE ( 'NONE', #87, 1.499999999999999556 ) ;
#764 = CYLINDRICAL_SURFACE ( 'NONE', #242, 0.08250000000000010103 ) ;
#765 = CARTESIAN_POINT ( 'NONE',  ( -2.715648843032690607, 1.607200157558817954, -0.9658253715515048299 ) ) ;
#766 = EDGE_CURVE ( 'NONE', #614, #1109, #333, .T. ) ;
#767 = AXIS2_PLACEMENT_3D ( 'NONE', #573, #402, #305 ) ;
#768 = VECTOR ( 'NONE', #138, 1000.000000000000114 ) ;
#769 = EDGE_CURVE ( 'NONE', #430, #343, #750, .T. ) ;
#770 = MANIFOLD_SOLID_BREP ( 'Chamfer1', #158 ) ;
#771 = LINE ( 'NONE', #512, #1017 ) ;
#772 = CARTESIAN_POINT ( 'NONE',  ( 0.01482042129005746271, -3.161723381036236180, 0.9622772721605292734 ) ) ;
#773 = PLANE ( 'NONE',  #18 ) ;
#774 = CARTESIAN_POINT ( 'NONE',  ( 2.749999999999988454, 0.000000000000000000, 1.199999999999999956 ) ) ;
#775 = VERTEX_POINT ( 'NONE', #645 ) ;
#776 = CARTESIAN_POINT ( 'NONE',  ( 0.03022327080759390841, -3.156928286703284847, 0.9649763189097475546 ) ) ;
#777 = DIRECTION ( 'NONE',  ( 1.000000000000000000, 0.000000000000000000, -0.000000000000000000 ) ) ;
#778 = ORIENTED_EDGE ( 'NONE', *, *, #855, .F. ) ;
#779 = ORIENTED_EDGE ( 'NONE', *, *, #1076, .T. ) ;
#780 = CARTESIAN_POINT ( 'NONE',  ( 2.491025288185033659, -1.737232359851140995, 1.038897611529870479 ) ) ;
#781 = B_SPLINE_CURVE_WITH_KNOTS ( 'NONE', 3,
 ( #1013, #31, #481, #26, #44, #730, #396, #200, #119, #716, #738, #1106, #382 ),
 .UNSPECIFIED., .F., .F.,
 ( 4, 3, 3, 3, 4 ),
 ( 2.088910691654865880E-16, 2.512987538587767999E-05, 5.034224661021963822E-05, 7.461817198714221602E-05, 8.709110078788926171E-05 ),
 .UNSPECIFIED. ) ;
#782 = VECTOR ( 'NONE', #786, 1000.000000000000000 ) ;
#783 = DIRECTION ( 'NONE',  ( 1.000000000000000000, 0.000000000000000000, 0.000000000000000000 ) ) ;
#784 = ORIENTED_EDGE ( 'NONE', *, *, #1063, .F. ) ;
#785 = ORIENTED_EDGE ( 'NONE', *, *, #1091, .T. ) ;
#786 = DIRECTION ( 'NONE',  ( 0.000000000000000000, 0.000000000000000000, -1.000000000000000000 ) ) ;
#787 = EDGE_CURVE ( 'NONE', #970, #616, #348, .T. ) ;
#788 = DIRECTION ( 'NONE',  ( 1.000000000000000000, -8.881784197001252323E-16, 0.000000000000000000 ) ) ;
#789 = ORIENTED_EDGE ( 'NONE', *, *, #28, .F. ) ;
#790 = ORIENTED_EDGE ( 'NONE', *, *, #1086, .F. ) ;
#791 = SECURITY_CLASSIFICATION_LEVEL ( 'unclassified' ) ;
#792 = CARTESIAN_POINT ( 'NONE',  ( -1.374999999999996447, 2.381569860407198647, 1.199999999999999956 ) ) ;
#793 = CARTESIAN_POINT ( 'NONE',  ( 0.04124999999995321298, -3.151610781938889438, -0.9679740571893230561 ) ) ;
#794 = VERTEX_POINT ( 'NONE', #404 ) ;
#795 = B_SPLINE_CURVE_WITH_KNOTS ( 'NONE', 3,
 ( #1097, #670, #59, #734 ),
 .UNSPECIFIED., .F., .F.,
 ( 4, 4 ),
 ( 4.931862769767454983E-05, 0.001606744326298678409 ),
 .UNSPECIFIED. ) ;
#796 = VERTEX_POINT ( 'NONE', #748 ) ;
#797 = CARTESIAN_POINT ( 'NONE',  ( 2.746328137956929094, -1.564420591310547559, -0.9629091386530338470 ) ) ;
#798 = CARTESIAN_POINT ( 'NONE',  ( -0.02284710232352736570, -3.159832384893577206, -0.9633404825873007615 ) ) ;
#799 = ADVANCED_FACE ( 'NONE', ( #741 ), #425, .T. ) ;
#800 = EDGE_CURVE ( 'NONE', #263, #831, #100, .T. ) ;
#801 = CARTESIAN_POINT ( 'NONE',  ( 2.740099286588551397, 1.580155534414487750, 0.9615181289153289512 ) ) ;
#802 = PRODUCT_RELATED_PRODUCT_CATEGORY ( 'detail', '', ( #717 ) ) ;
#803 = VERTEX_POINT ( 'NONE', #420 ) ;
#804 = AXIS2_PLACEMENT_3D ( 'NONE', #296, #851, #309 ) ;
#805 = ORIENTED_EDGE ( 'NONE', *, *, #724, .F. ) ;
#806 = CALENDAR_DATE ( 2026, 29, 7 ) ;
#807 =( NAMED_UNIT ( * ) PLANE_ANGLE_UNIT ( ) SI_UNIT ( $, .RADIAN. ) );
#808 = ORIENTED_EDGE ( 'NONE', *, *, #233, .F. ) ;
#809 = CARTESIAN_POINT ( 'NONE',  ( -2.730722557071627588, -1.593696551850033449, 0.9622772721605229451 ) ) ;
#810 = ORIENTED_EDGE ( 'NONE', *, *, #30, .F. ) ;
#811 = APPROVAL_ROLE ( '' ) ;
#812 = CARTESIAN_POINT ( 'NONE',  ( 0.000000000000000000, 0.000000000000000000, 0.000000000000000000 ) ) ;
#813 = EDGE_LOOP ( 'NONE', ( #740, #905, #378, #187 ) ) ;
#814 = CARTESIAN_POINT ( 'NONE',  ( -2.715648843032787862, -1.607200157558721365, 0.9658253715514851789 ) ) ;
#815 = ORIENTED_EDGE ( 'NONE', *, *, #1090, .T. ) ;
#816 = CARTESIAN_POINT ( 'NONE',  ( 2.708749999999259472, -1.611528938875965267, 0.9679740571895768531 ) ) ;
#817 = VERTEX_POINT ( 'NONE', #746 ) ;
#818 = DIRECTION ( 'NONE',  ( -0.000000000000000000, -0.000000000000000000, -1.000000000000000000 ) ) ;
#819 = LINE ( 'NONE', #835, #366 ) ;
#820 = EDGE_CURVE ( 'NONE', #103, #712, #306, .T. ) ;
#821 = AXIS2_PLACEMENT_3D ( 'NONE', #265, #818, #35 ) ;
#822 = APPLICATION_PROTOCOL_DEFINITION ( 'international standard', 'config_control_design', 1994, #94 ) ;
#823 = EDGE_LOOP ( 'NONE', ( #888, #726, #182, #810 ) ) ;
#824 = VECTOR ( 'NONE', #982, 1000.000000000000114 ) ;
#825 = CARTESIAN_POINT ( 'NONE',  ( -2.733655517892231490, 1.590072533534991450, 0.9618675882328113769 ) ) ;
#826 = DIRECTION ( 'NONE',  ( -5.462962177226044315E-16, 1.000000000000000000, 0.000000000000000000 ) ) ;
#827 = ADVANCED_FACE ( 'NONE', ( #148 ), #254, .T. ) ;
#828 = DIRECTION ( 'NONE',  ( -0.000000000000000000, -0.000000000000000000, 1.000000000000000000 ) ) ;
#829 = DIRECTION ( 'NONE',  ( 1.000000000000000000, 0.000000000000000000, 0.000000000000000000 ) ) ;
#830 = CARTESIAN_POINT ( 'NONE',  ( 0.000000000000000000, 0.000000000000000000, 1.199999999999999956 ) ) ;
#831 = VERTEX_POINT ( 'NONE', #412 ) ;
#832 = CARTESIAN_POINT ( 'NONE',  ( -2.749091729614521640, 1.552290023046808853, 0.9649763189097494420 ) ) ;
#833 = CARTESIAN_POINT ( 'NONE',  ( -0.03774832236949930003, 3.153632476461444956, 0.9668333900522023683 ) ) ;
#834 = CARTESIAN_POINT ( 'NONE',  ( -2.749999999999988454, -1.540081843065822964, -0.9679740571886420453 ) ) ;
#835 = CARTESIAN_POINT ( 'NONE',  ( 0.04125000000000041134, -3.151610781938862349, 1.199999999999999956 ) ) ;
#836 = CARTESIAN_POINT ( 'NONE',  ( 2.738504478027738998, 1.582917823870106711, -0.9615181289153442723 ) ) ;
#837 = CARTESIAN_POINT ( 'NONE',  ( 0.2589747118120571123, 3.025907360964931403, -1.038897611529070009 ) ) ;
#838 = CARTESIAN_POINT ( 'NONE',  ( -2.749999999999990230, 1.540081843063594746, -0.9679740571892635481 ) ) ;
#839 = ADVANCED_FACE ( 'NONE', ( #213 ), #563, .T. ) ;
#840 = DIRECTION ( 'NONE',  ( -0.000000000000000000, -0.000000000000000000, 1.000000000000000000 ) ) ;
#841 = DIRECTION ( 'NONE',  ( 1.000000000000000000, 0.000000000000000000, 0.000000000000000000 ) ) ;
#842 = ADVANCED_FACE ( 'NONE', ( #494 ), #852, .F. ) ;
#843 = DIRECTION ( 'NONE',  ( 0.000000000000000000, 0.000000000000000000, 1.000000000000000000 ) ) ;
#844 = AXIS2_PLACEMENT_3D ( 'NONE', #220, #642, #114 ) ;
#845 = CARTESIAN_POINT ( 'NONE',  ( -2.738504478027815381, 1.582917823870047869, 0.9615181289153235111 ) ) ;
#846 = CARTESIAN_POINT ( 'NONE',  ( 0.000000000000000000, 0.000000000000000000, -1.199999999999999956 ) ) ;
#847 = CONICAL_SURFACE ( 'NONE', #271, 2.749999999999999112, 1.047197551196600074 ) ;
#848 = CARTESIAN_POINT ( 'NONE',  ( -0.4777640389818289535, 2.899589284027650482, -1.110167962998519720 ) ) ;
#849 = CARTESIAN_POINT ( 'NONE',  ( -0.03426813488802520763, 3.155641763640704589, -0.9656997233043927986 ) ) ;
#850 = DIRECTION ( 'NONE',  ( 0.000000000000000000, 0.000000000000000000, 1.000000000000000000 ) ) ;
#851 = DIRECTION ( 'NONE',  ( -0.000000000000000000, -0.000000000000000000, -1.000000000000000000 ) ) ;
#852 = PLANE ( 'NONE',  #460 ) ;
#853 = CARTESIAN_POINT ( 'NONE',  ( 2.749999999999988010, -0.5242533151561705740, -1.177708175733290563 ) ) ;
#854 = EDGE_CURVE ( 'NONE', #97, #103, #920, .T. ) ;
#855 = EDGE_CURVE ( 'NONE', #161, #690, #505, .T. ) ;
#856 = B_SPLINE_CURVE_WITH_KNOTS ( 'NONE', 3,
 ( #1105, #499, #578, #324 ),
 .UNSPECIFIED., .F., .F.,
 ( 4, 4 ),
 ( 0.005897551186018558204, 0.007470924193608711843 ),
 .UNSPECIFIED. ) ;
#857 = CARTESIAN_POINT ( 'NONE',  ( 2.749999999999988454, 1.036231657447997279, -1.110113569947617895 ) ) ;
#858 = ADVANCED_FACE ( 'NONE', ( #1015 ), #764, .T. ) ;
#859 = CARTESIAN_POINT ( 'NONE',  ( -2.712251677630022506, 1.609507244353283406, -0.9668333900523390367 ) ) ;
#860 = AXIS2_PLACEMENT_3D ( 'NONE', #1111, #429, #123 ) ;
#861 = AXIS2_PLACEMENT_3D ( 'NONE', #150, #587, #864 ) ;
#862 = CIRCLE ( 'NONE', #599, 1.499999999999999556 ) ;
#863 = CARTESIAN_POINT ( 'NONE',  ( 2.749999999999988454, 0.5247122102792978193, -1.200000000000005951 ) ) ;
#864 = DIRECTION ( 'NONE',  ( 1.000000000000000000, 0.000000000000000000, 0.000000000000000000 ) ) ;
#865 = ORIENTED_EDGE ( 'NONE', *, *, #926, .T. ) ;
#866 = CARTESIAN_POINT ( 'NONE',  ( 1.374999999999996225, -2.381569860407203532, 1.199999999999999956 ) ) ;
#867 = B_SPLINE_CURVE_WITH_KNOTS ( 'NONE', 3,
 ( #951, #509, #277, #698, #1062, #801, #186, #710, #1077, #988, #101, #619, #625 ),
 .UNSPECIFIED., .F., .F.,
 ( 4, 3, 3, 3, 4 ),
 ( 2.398037570995558000E-16, 2.512987538577164502E-05, 5.034224660999186090E-05, 7.461817198698901825E-05, 8.709110078787450301E-05 ),
 .UNSPECIFIED. ) ;
#868 = DIRECTION ( 'NONE',  ( 0.000000000000000000, 0.000000000000000000, 1.000000000000000000 ) ) ;
#869 = ORIENTED_EDGE ( 'NONE', *, *, #595, .T. ) ;
#870 = B_SPLINE_CURVE_WITH_KNOTS ( 'NONE', 3,
 ( #143, #1116, #399, #230, #53, #122 ),
 .UNSPECIFIED., .F., .F.,
 ( 4, 2, 4 ),
 ( 0.004334883647982928044, 0.005116217417000743124, 0.005897551186018558204 ),
 .UNSPECIFIED. ) ;
#871 = EDGE_LOOP ( 'NONE', ( #521, #605, #40, #371 ) ) ;
#872 = LINE ( 'NONE', #679, #406 ) ;
#873 = EDGE_CURVE ( 'NONE', #616, #690, #330, .T. ) ;
#874 = DIRECTION ( 'NONE',  ( -1.000000000000000000, 0.000000000000000000, 0.000000000000000000 ) ) ;
#875 = ORIENTED_EDGE ( 'NONE', *, *, #515, .T. ) ;
#876 = ORIENTED_EDGE ( 'NONE', *, *, #206, .T. ) ;
#877 = EDGE_CURVE ( 'NONE', #817, #650, #687, .T. ) ;
#878 = CARTESIAN_POINT ( 'NONE',  ( -2.725071565856841627, 1.599702363461822152, -0.9633404825873019828 ) ) ;
#879 = CIRCLE ( 'NONE', #861, 2.749999999999999112 ) ;
#880 = CIRCLE ( 'NONE', #1052, 2.749999999999999112 ) ;
#881 = FACE_BOUND ( 'NONE', #392, .T. ) ;
#882 = ORIENTED_EDGE ( 'NONE', *, *, #877, .T. ) ;
#883 = ORIENTED_EDGE ( 'NONE', *, *, #1126, .T. ) ;
#884 = APPROVAL_ROLE ( '' ) ;
#885 = CARTESIAN_POINT ( 'NONE',  ( 1.499999999999999556, 1.051058757860506467E-15, 1.024999999999999245 ) ) ;
#886 = CARTESIAN_POINT ( 'NONE',  ( -0.04124999999999919009, -3.151610781938861905, 1.199999999999999956 ) ) ;
#887 = ORIENTED_EDGE ( 'NONE', *, *, #787, .T. ) ;
#888 = ORIENTED_EDGE ( 'NONE', *, *, #1000, .F. ) ;
#889 = ADVANCED_FACE ( 'NONE', ( #1120 ), #321, .T. ) ;
#890 = APPROVAL_DATE_TIME ( #996, #1137 ) ;
#891 = DIRECTION ( 'NONE',  ( 0.000000000000000000, 0.000000000000000000, 1.000000000000000000 ) ) ;
#892 = CARTESIAN_POINT ( 'NONE',  ( 0.04125000000072531758, 3.151610781938437356, 0.9679740571895781853 ) ) ;
#893 = APPROVAL ( #384, 'UNSPECIFIED' ) ;
#894 = CARTESIAN_POINT ( 'NONE',  ( 1.499999999999999556, 8.673617379884035472E-16, 1.024999999999999245 ) ) ;
#895 = ORIENTED_EDGE ( 'NONE', *, *, #733, .T. ) ;
#896 = ORIENTED_EDGE ( 'NONE', *, *, #1029, .T. ) ;
#897 = VECTOR ( 'NONE', #275, 1000.000000000000000 ) ;
#898 = CARTESIAN_POINT ( 'NONE',  ( -2.749999999999990230, 1.037719433354770571, 1.096720533069997616 ) ) ;
#899 = AXIS2_PLACEMENT_3D ( 'NONE', #426, #439, #1139 ) ;
#900 = ORIENTED_EDGE ( 'NONE', *, *, #854, .F. ) ;
#901 = APPROVAL_STATUS ( 'not_yet_approved' ) ;
#902 = APPLICATION_PROTOCOL_DEFINITION ( 'international standard', 'config_control_design', 1994, #311 ) ;
#903 = ORIENTED_EDGE ( 'NONE', *, *, #728, .T. ) ;
#904 = CARTESIAN_POINT ( 'NONE',  ( -2.725071565856603151, -1.599702363462053301, 0.9633404825873534971 ) ) ;
#905 = ORIENTED_EDGE ( 'NONE', *, *, #232, .T. ) ;
#906 = PERSON_AND_ORGANIZATION ( #1083, #641 ) ;
#907 = ADVANCED_FACE ( 'NONE', ( #1034 ), #478, .F. ) ;
#908 = DIRECTION ( 'NONE',  ( 1.000000000000000000, 0.000000000000000000, 0.000000000000000000 ) ) ;
#909 = ORIENTED_EDGE ( 'NONE', *, *, #437, .T. ) ;
#910 = DIRECTION ( 'NONE',  ( 1.000000000000000000, 0.000000000000000000, 0.000000000000000000 ) ) ;
#911 = ORIENTED_EDGE ( 'NONE', *, *, #316, .T. ) ;
#912 = CARTESIAN_POINT ( 'NONE',  ( -0.01482042128965434247, -3.161723381036309455, -0.9622772721604883062 ) ) ;
#913 = ORIENTED_EDGE ( 'NONE', *, *, #66, .F. ) ;
#914 = B_SPLINE_CURVE_WITH_KNOTS ( 'NONE', 3,
 ( #3, #454, #177, #797, #15, #707, #1074, #353, #695, #623, #986, #561, #1060 ),
 .UNSPECIFIED., .F., .F.,
 ( 4, 3, 3, 3, 4 ),
 ( 2.641855435480187948E-16, 2.512987538535399340E-05, 5.034224660909082113E-05, 7.461817198638407409E-05, 8.709110078454647668E-05 ),
 .UNSPECIFIED. ) ;
#915 = CARTESIAN_POINT ( 'NONE',  ( 1.148762382836328477, 2.512188209577459030, -1.200000000000007949 ) ) ;
#916 = CARTESIAN_POINT ( 'NONE',  ( -0.006761915521413939222, 3.162386107025575210, 0.9619045962810987005 ) ) ;
#917 = CARTESIAN_POINT ( 'NONE',  ( -1.829206720937239128, -2.119333487806345229, 1.200000000000004841 ) ) ;
#918 = CARTESIAN_POINT ( 'NONE',  ( -2.735325747498462690, -1.587049044132509135, 0.9619045962810947037 ) ) ;
#919 = AXIS2_PLACEMENT_3D ( 'NONE', #939, #410, #753 ) ;
#920 = LINE ( 'NONE', #307, #368 ) ;
#921 = ORIENTED_EDGE ( 'NONE', *, *, #155, .T. ) ;
#922 = CARTESIAN_POINT ( 'NONE',  ( -2.747918668180465041, 1.560130021431354042, 0.9633404825873660426 ) ) ;
#923 = CARTESIAN_POINT ( 'NONE',  ( 2.749999999999988454, 1.036231657445903620, 1.110113569947991152 ) ) ;
#924 = CARTESIAN_POINT ( 'NONE',  ( -2.749999999999989342, -1.502314598737156270E-15, 1.199999999999999956 ) ) ;
#925 = CARTESIAN_POINT ( 'NONE',  ( 2.708750000000035740, 1.611528938875508521, -0.9679740571893266088 ) ) ;
#926 = EDGE_CURVE ( 'NONE', #464, #130, #880, .T. ) ;
#927 = DIRECTION ( 'NONE',  ( -1.000000000000000000, 0.000000000000000000, 0.000000000000000000 ) ) ;
#928 = ORIENTED_EDGE ( 'NONE', *, *, #1076, .F. ) ;
#929 = ADVANCED_FACE ( 'NONE', ( #881, #340 ), #600, .T. ) ;
#930 = CARTESIAN_POINT ( 'NONE',  ( 2.722340182150033261, 1.602274221113604291, -0.9639485532685755365 ) ) ;
#931 = CARTESIAN_POINT ( 'NONE',  ( 0.001594808560731298709, 3.163073358284555603, 0.9615181289153238442 ) ) ;
#932 = B_SPLINE_CURVE_WITH_KNOTS ( 'NONE', 3,
 ( #1, #863, #857, #608 ),
 .UNSPECIFIED., .F., .F.,
 ( 4, 4 ),
 ( 0.005897551186018560807, 0.007470924193608710975 ),
 .UNSPECIFIED. ) ;
#933 = DIRECTION ( 'NONE',  ( 1.000000000000000000, 0.000000000000000000, 0.000000000000000000 ) ) ;
#934 = DIRECTION ( 'NONE',  ( 0.000000000000000000, 0.000000000000000000, 1.000000000000000000 ) ) ;
#935 = CARTESIAN_POINT ( 'NONE',  ( 2.750000000000029310, 1.544125232108061407, -0.9668333900523052860 ) ) ;
#936 = CARTESIAN_POINT ( 'NONE',  ( -2.749999999999988454, -1.540081843063324518, 1.199999999999999956 ) ) ;
#937 = PLANE ( 'NONE',  #197 ) ;
#938 = CARTESIAN_POINT ( 'NONE',  ( -1.675000000000000266, 8.673617379884035472E-16, -1.199999999999999956 ) ) ;
#939 = CARTESIAN_POINT ( 'NONE',  ( 0.000000000000000000, 0.000000000000000000, 1.199999999999999956 ) ) ;
#940 = CARTESIAN_POINT ( 'NONE',  ( 0.000000000000000000, 0.000000000000000000, 1.199999999999999956 ) ) ;
#941 = CONICAL_SURFACE ( 'NONE', #973, 1.499999999999999556, 0.7853981633974482790 ) ;
#942 = DIRECTION ( 'NONE',  ( 0.000000000000000000, 0.000000000000000000, -1.000000000000000000 ) ) ;
#943 = CARTESIAN_POINT ( 'NONE',  ( 0.04124999999727501504, 3.151610781940429540, -0.9679740571884609679 ) ) ;
#944 = VECTOR ( 'NONE', #1046, 1000.000000000000114 ) ;
#945 =( GEOMETRIC_REPRESENTATION_CONTEXT ( 3 ) GLOBAL_UNCERTAINTY_ASSIGNED_CONTEXT ( ( #1044 ) ) GLOBAL_UNIT_ASSIGNED_CONTEXT ( ( #1100, #807, #104 ) ) REPRESENTATION_CONTEXT ( 'NONE', 'WORKASPACE' ) );
#946 = LINE ( 'NONE', #227, #477 ) ;
#947 = CARTESIAN_POINT ( 'NONE',  ( 2.745542978361493081, 1.568026829186522031, -0.9622772721604919699 ) ) ;
#948 = EDGE_CURVE ( 'NONE', #1055, #343, #771, .T. ) ;
#949 = CARTESIAN_POINT ( 'NONE',  ( -2.749999999999988454, -1.587713240271468651, 1.199999999999999956 ) ) ;
#950 = EDGE_CURVE ( 'NONE', #464, #831, #932, .T. ) ;
#951 = CARTESIAN_POINT ( 'NONE',  ( 2.749999999999988454, 1.540081843062725664, 0.9679740571895304457 ) ) ;
#952 = FACE_OUTER_BOUND ( 'NONE', #557, .T. ) ;
#953 = DIRECTION ( 'NONE',  ( -0.000000000000000000, -0.000000000000000000, -1.000000000000000000 ) ) ;
#954 = LINE ( 'NONE', #68, #1050 ) ;
#955 = B_SPLINE_CURVE_WITH_KNOTS ( 'NONE', 3,
 ( #401, #1118, #758, #744, #1112, #666 ),
 .UNSPECIFIED., .F., .F.,
 ( 4, 2, 4 ),
 ( 0.001606744326298678409, 0.002382488635484322163, 0.003158232944669966784 ),
 .UNSPECIFIED. ) ;
#956 = CONICAL_SURFACE ( 'NONE', #34, 1.499999999999999556, 0.7853981633974482790 ) ;
#957 = CIRCLE ( 'NONE', #498, 2.749999999999999112 ) ;
#958 = CARTESIAN_POINT ( 'NONE',  ( 0.000000000000000000, 0.000000000000000000, -1.199999999999999956 ) ) ;
#959 = ORIENTED_EDGE ( 'NONE', *, *, #155, .F. ) ;
#960 = ORIENTED_EDGE ( 'NONE', *, *, #549, .T. ) ;
#961 = CARTESIAN_POINT ( 'NONE',  ( 1.827271304445060585, -2.120450901039101499, 1.177916437460079901 ) ) ;
#962 = EDGE_CURVE ( 'NONE', #775, #1082, #428, .T. ) ;
#963 = CC_DESIGN_PERSON_AND_ORGANIZATION_ASSIGNMENT ( #558, #473, ( #717 ) ) ;
#964 = DIRECTION ( 'NONE',  ( 1.000000000000000000, 0.000000000000000000, -0.000000000000000000 ) ) ;
#965 = VERTEX_POINT ( 'NONE', #1132 ) ;
#966 = EDGE_LOOP ( 'NONE', ( #785, #895, #1079, #284 ) ) ;
#967 = FACE_OUTER_BOUND ( 'NONE', #21, .T. ) ;
#968 = ADVANCED_FACE ( 'NONE', ( #678 ), #773, .F. ) ;
#969 = DIRECTION ( 'NONE',  ( -0.000000000000000000, -0.000000000000000000, 1.000000000000000000 ) ) ;
#970 = VERTEX_POINT ( 'NONE', #156 ) ;
#971 = ORIENTED_EDGE ( 'NONE', *, *, #88, .F. ) ;
#972 = CARTESIAN_POINT ( 'NONE',  ( -1.374999999999997113, -2.381569860407199979, 1.199999999999999956 ) ) ;
#973 = AXIS2_PLACEMENT_3D ( 'NONE', #62, #151, #1022 ) ;
#974 = EDGE_CURVE ( 'NONE', #208, #102, #640, .T. ) ;
#975 = AXIS2_PLACEMENT_3D ( 'NONE', #729, #389, #99 ) ;
#976 = CARTESIAN_POINT ( 'NONE',  ( -1.499999999999999556, 8.673617379884035472E-16, 1.024999999999999245 ) ) ;
#977 = EDGE_LOOP ( 'NONE', ( #628, #691, #928, #1059 ) ) ;
#978 = ORIENTED_EDGE ( 'NONE', *, *, #1051, .T. ) ;
#979 = CALENDAR_DATE ( 2026, 29, 7 ) ;
#980 = LINE ( 'NONE', #125, #782 ) ;
#981 = ADVANCED_FACE ( 'NONE', ( #256, #336 ), #261, .F. ) ;
#982 = DIRECTION ( 'NONE',  ( 0.7071067811865474617, 0.000000000000000000, 0.7071067811865474617 ) ) ;
#983 = ORIENTED_EDGE ( 'NONE', *, *, #419, .T. ) ;
#984 = EDGE_LOOP ( 'NONE', ( #610, #279, #301, #84 ) ) ;
#985 = COORDINATED_UNIVERSAL_TIME_OFFSET ( 6, 0, .BEHIND. ) ;
#986 = CARTESIAN_POINT ( 'NONE',  ( 2.715648843032689275, -1.607200157558823950, -0.9658253715515039417 ) ) ;
#987 = CARTESIAN_POINT ( 'NONE',  ( -0.2589747118149547389, -3.025907360963264736, 1.038897611529870701 ) ) ;
#988 = CARTESIAN_POINT ( 'NONE',  ( 2.718868458806991129, 1.604638263656419817, 0.9649763189097341209 ) ) ;
#989 = CARTESIAN_POINT ( 'NONE',  ( -2.749999999999988454, -1.548143806467149552, 0.9656997233085992116 ) ) ;
#990 = EDGE_LOOP ( 'NONE', ( #903, #90, #375, #96, #201, #534 ) ) ;
#991 = ORIENTED_EDGE ( 'NONE', *, *, #743, .T. ) ;
#992 = CONICAL_SURFACE ( 'NONE', #241, 2.749999999999999112, 1.047197551196600074 ) ;
#993 = CARTESIAN_POINT ( 'NONE',  ( -2.743870966847273163, -1.572378856922731938, 0.9618675882328115989 ) ) ;
#994 = AXIS2_PLACEMENT_3D ( 'NONE', #322, #942, #503 ) ;
#995 = ORIENTED_EDGE ( 'NONE', *, *, #855, .T. ) ;
#996 = DATE_AND_TIME ( #379, #19 ) ;
#997 = DIRECTION ( 'NONE',  ( -0.000000000000000000, -0.000000000000000000, 1.000000000000000000 ) ) ;
#998 = ORIENTED_EDGE ( 'NONE', *, *, #800, .T. ) ;
#999 = ADVANCED_FACE ( 'NONE', ( #1042 ), #1053, .F. ) ;
#1000 = EDGE_CURVE ( 'NONE', #1055, #794, #682, .T. ) ;
#1001 = ADVANCED_FACE ( 'NONE', ( #524 ), #251, .F. ) ;
#1002 = FACE_OUTER_BOUND ( 'NONE', #341, .T. ) ;
#1003 = CARTESIAN_POINT ( 'NONE',  ( -0.9227286955537439272, -2.642688819775988129, -1.177916437459962440 ) ) ;
#1004 = ORIENTED_EDGE ( 'NONE', *, *, #1086, .T. ) ;
#1005 = CARTESIAN_POINT ( 'NONE',  ( 0.4777640389818574307, -2.899589284027636271, 1.110167962998523938 ) ) ;
#1006 = FACE_OUTER_BOUND ( 'NONE', #27, .T. ) ;
#1007 = CARTESIAN_POINT ( 'NONE',  ( 0.000000000000000000, 0.000000000000000000, -1.199999999999999956 ) ) ;
#1008 = CARTESIAN_POINT ( 'NONE',  ( -2.733655517892357167, -1.590072533534772958, -0.9618675882328117099 ) ) ;
#1009 = ORIENTED_EDGE ( 'NONE', *, *, #769, .F. ) ;
#1010 = CARTESIAN_POINT ( 'NONE',  ( 1.374999999999996225, -2.381569860407203532, 1.199999999999999956 ) ) ;
#1011 = DIRECTION ( 'NONE',  ( -0.000000000000000000, -0.000000000000000000, -1.000000000000000000 ) ) ;
#1012 = CARTESIAN_POINT ( 'NONE',  ( -0.04125000000000189626, 3.151610781938859684, 0.9679740571893400425 ) ) ;
#1013 = CARTESIAN_POINT ( 'NONE',  ( 2.708749999999259472, -1.611528938875965267, 0.9679740571895768531 ) ) ;
#1014 = AXIS2_PLACEMENT_3D ( 'NONE', #476, #577, #826 ) ;
#1015 = FACE_OUTER_BOUND ( 'NONE', #1096, .T. ) ;
#1016 = VERTEX_POINT ( 'NONE', #604 ) ;
#1017 = VECTOR ( 'NONE', #79, 1000.000000000000000 ) ;
#1018 = DIRECTION ( 'NONE',  ( 1.000000000000000000, 0.000000000000000000, 0.000000000000000000 ) ) ;
#1019 = PLANE ( 'NONE',  #1014 ) ;
#1020 = ADVANCED_FACE ( 'NONE', ( #350 ), #73, .T. ) ;
#1021 = CARTESIAN_POINT ( 'NONE',  ( 0.000000000000000000, 8.673617379884035472E-16, -1.024999999999999689 ) ) ;
#1022 = DIRECTION ( 'NONE',  ( 1.000000000000000000, 0.000000000000000000, 0.000000000000000000 ) ) ;
#1023 = CARTESIAN_POINT ( 'NONE',  ( 2.749999999999988010, -0.5242533151560813121, 1.177708175733298113 ) ) ;
#1024 = CARTESIAN_POINT ( 'NONE',  ( 0.4785057453749626544, 2.899161059641911731, 1.097229345705550863 ) ) ;
#1025 = CARTESIAN_POINT ( 'NONE',  ( 0.02284710232352423973, 3.159832384893573209, -0.9633404825873033150 ) ) ;
#1026 = DIRECTION ( 'NONE',  ( 1.000000000000000000, 0.000000000000000000, 0.000000000000000000 ) ) ;
#1027 = CARTESIAN_POINT ( 'NONE',  ( 0.000000000000000000, 0.000000000000000000, 1.199999999999999956 ) ) ;
#1028 = CARTESIAN_POINT ( 'NONE',  ( -2.722340182150033261, -1.602274221113609620, -0.9639485532685739821 ) ) ;
#1029 = EDGE_CURVE ( 'NONE', #102, #965, #37, .T. ) ;
#1030 = CARTESIAN_POINT ( 'NONE',  ( 0.9227286955549283132, 2.642688819775298015, 1.177916437460083010 ) ) ;
#1031 = CARTESIAN_POINT ( 'NONE',  ( -0.03405174389586011069, 3.155420964603550260, 0.9658253715514988347 ) ) ;
#1032 = CARTESIAN_POINT ( 'NONE',  ( 2.749999999999988454, -1.540081843063344946, 0.9679740571893346024 ) ) ;
#1033 = CC_DESIGN_PERSON_AND_ORGANIZATION_ASSIGNMENT ( #906, #1080, ( #672 ) ) ;
#1034 = FACE_OUTER_BOUND ( 'NONE', #700, .T. ) ;
#1035 = CONICAL_SURFACE ( 'NONE', #178, 2.749999999999999112, 1.047197551196600074 ) ;
#1036 = CARTESIAN_POINT ( 'NONE',  ( -2.743870966847171911, 1.572378856922908019, -0.9618675882328113769 ) ) ;
#1037 = AXIS2_PLACEMENT_3D ( 'NONE', #830, #843, #754 ) ;
#1038 = EDGE_CURVE ( 'NONE', #430, #552, #6, .T. ) ;
#1039 = SECURITY_CLASSIFICATION ( '', '', #791 ) ;
#1040 = CARTESIAN_POINT ( 'NONE',  ( -1.499999999999999556, 1.051058757860506467E-15, 1.024999999999999245 ) ) ;
#1041 = CARTESIAN_POINT ( 'NONE',  ( -0.02644008823898787858, -3.158752866041675489, 0.9639485532686943303 ) ) ;
#1042 = FACE_OUTER_BOUND ( 'NONE', #990, .T. ) ;
#1043 = DIRECTION ( 'NONE',  ( 1.000000000000000000, 0.000000000000000000, 0.000000000000000000 ) ) ;
#1044 = UNCERTAINTY_MEASURE_WITH_UNIT (LENGTH_MEASURE( 1.000000000000000082E-05 ), #1100, 'distance_accuracy_value', 'NONE');
#1045 = EDGE_CURVE ( 'NONE', #253, #274, #867, .T. ) ;
#1046 = DIRECTION ( 'NONE',  ( -0.7071067811865474617, 8.659560562354932858E-17, 0.7071067811865474617 ) ) ;
#1047 = DIRECTION ( 'NONE',  ( -0.000000000000000000, -0.000000000000000000, -1.000000000000000000 ) ) ;
#1048 = ORIENTED_EDGE ( 'NONE', *, *, #1038, .T. ) ;
#1049 = CARTESIAN_POINT ( 'NONE',  ( -2.708750000002711378, 1.611528938873967309, -0.9679740571884606348 ) ) ;
#1050 = VECTOR ( 'NONE', #423, 1000.000000000000000 ) ;
#1051 = EDGE_CURVE ( 'NONE', #547, #552, #179, .T. ) ;
#1052 = AXIS2_PLACEMENT_3D ( 'NONE', #76, #516, #783 ) ;
#1053 = PLANE ( 'NONE',  #1070 ) ;
#1054 = ORIENTED_EDGE ( 'NONE', *, *, #728, .F. ) ;
#1055 = VERTEX_POINT ( 'NONE', #976 ) ;
#1056 = CARTESIAN_POINT ( 'NONE',  ( 2.749999999999988454, -0.2605709942457503092, -1.200000000000005951 ) ) ;
#1057 = CARTESIAN_POINT ( 'NONE',  ( -3.737170935591942065E-15, 3.175426480542930197, 1.199999999999999956 ) ) ;
#1058 = ORIENTED_EDGE ( 'NONE', *, *, #549, .F. ) ;
#1059 = ORIENTED_EDGE ( 'NONE', *, *, #72, .F. ) ;
#1060 = CARTESIAN_POINT ( 'NONE',  ( 2.708750000002710046, -1.611528938873973305, -0.9679740571884595246 ) ) ;
#1061 = EDGE_CURVE ( 'NONE', #130, #775, #49, .T. ) ;
#1062 = CARTESIAN_POINT ( 'NONE',  ( 2.743870966847273607, 1.572378856922726609, 0.9618675882328130422 ) ) ;
#1063 = EDGE_CURVE ( 'NONE', #518, #715, #20, .T. ) ;
#1064 = ORIENTED_EDGE ( 'NONE', *, *, #873, .F. ) ;
#1065 = VERTEX_POINT ( 'NONE', #180 ) ;
#1066 = APPROVAL_DATE_TIME ( #285, #893 ) ;
#1067 = CARTESIAN_POINT ( 'NONE',  ( -2.749999999999988898, -0.5247122102782267872, 1.200000000000005285 ) ) ;
#1068 = EDGE_CURVE ( 'NONE', #1016, #1078, #532, .T. ) ;
#1069 = CIRCLE ( 'NONE', #218, 1.499999999999999556 ) ;
#1070 = AXIS2_PLACEMENT_3D ( 'NONE', #249, #168, #520 ) ;
#1071 = CARTESIAN_POINT ( 'NONE',  ( 0.01021544895481511436, -3.162451390457677203, -0.9618675882328094895 ) ) ;
#1072 = EDGE_LOOP ( 'NONE', ( #805, #169, #555, #7 ) ) ;
#1073 = EDGE_LOOP ( 'NONE', ( #1004, #2, #887, #971 ) ) ;
#1074 = CARTESIAN_POINT ( 'NONE',  ( 2.735325747498648763, -1.587049044132243791, -0.9619045962810786055 ) ) ;
#1075 = DIRECTION ( 'NONE',  ( 0.000000000000000000, 0.000000000000000000, -1.000000000000000000 ) ) ;
#1076 = EDGE_CURVE ( 'NONE', #175, #1016, #697, .T. ) ;
#1077 = CARTESIAN_POINT ( 'NONE',  ( 2.725071565856603151, 1.599702363462048194, 0.9633404825873549404 ) ) ;
#1078 = VERTEX_POINT ( 'NONE', #286 ) ;
#1079 = ORIENTED_EDGE ( 'NONE', *, *, #66, .T. ) ;
#1080 = PERSON_AND_ORGANIZATION_ROLE ( 'creator' ) ;
#1081 = LINE ( 'NONE', #207, #162 ) ;
#1082 = VERTEX_POINT ( 'NONE', #816 ) ;
#1083 = PERSON ( 'UNSPECIFIED', 'UNSPECIFIED', 'UNSPECIFIED', ('UNSPECIFIED'), ('UNSPECIFIED'), ('UNSPECIFIED') ) ;
#1084 = CARTESIAN_POINT ( 'NONE',  ( 1.829206720937252673, 2.119333487806331906, -1.200000000000007727 ) ) ;
#1085 = ORIENTED_EDGE ( 'NONE', *, *, #245, .F. ) ;
#1086 = EDGE_CURVE ( 'NONE', #553, #1078, #709, .T. ) ;
#1087 = COORDINATED_UNIVERSAL_TIME_OFFSET ( 6, 0, .BEHIND. ) ;
#1088 = CARTESIAN_POINT ( 'NONE',  ( -0.006761915521006328644, -3.162386107025612070, -0.9619045962810777173 ) ) ;
#1089 = ORIENTED_EDGE ( 'NONE', *, *, #733, .F. ) ;
#1090 = EDGE_CURVE ( 'NONE', #552, #547, #221, .T. ) ;
#1091 = EDGE_CURVE ( 'NONE', #817, #474, #760, .T. ) ;
#1092 = CC_DESIGN_PERSON_AND_ORGANIZATION_ASSIGNMENT ( #373, #280, ( #1039 ) ) ;
#1093 = CARTESIAN_POINT ( 'NONE',  ( -2.712251677630516333, -1.609507244352940347, 0.9668333900521947077 ) ) ;
#1094 = PERSON_AND_ORGANIZATION_ROLE ( 'design_supplier' ) ;
#1095 = CC_DESIGN_SECURITY_CLASSIFICATION ( #1039, ( #107 ) ) ;
#1096 = EDGE_LOOP ( 'NONE', ( #1089, #959, #606, #711 ) ) ;
#1097 = CARTESIAN_POINT ( 'NONE',  ( -2.708750000000035740, -1.611528938875513628, -0.9679740571893249435 ) ) ;
#1098 = CARTESIAN_POINT ( 'NONE',  ( -2.272235961018132411, -1.863550436786766129, 1.110167962998525493 ) ) ;
#1099 = CARTESIAN_POINT ( 'NONE',  ( -2.749999999999988454, -1.540081843062731881, 0.9679740571895287804 ) ) ;
#1100 =( LENGTH_UNIT ( ) NAMED_UNIT ( * ) SI_UNIT ( .MILLI., .METRE. ) );
#1101 = EDGE_LOOP ( 'NONE', ( #704, #466, #110, #611 ) ) ;
#1102 = CARTESIAN_POINT ( 'NONE',  ( -2.722340182149498133, 1.602274221114103003, 0.9639485532686959957 ) ) ;
#1103 = CARTESIAN_POINT ( 'NONE',  ( 0.01833609470061475094, 3.160600230253860055, 0.9629091386531064556 ) ) ;
#1104 = EDGE_CURVE ( 'NONE', #161, #196, #1081, .T. ) ;
#1105 = CARTESIAN_POINT ( 'NONE',  ( -2.749999999999999112, -1.502314598737161595E-15, -1.199999999999999956 ) ) ;
#1106 = CARTESIAN_POINT ( 'NONE',  ( 2.749999999999987566, -1.544125232108510160, 0.9668333900521993707 ) ) ;
#1107 = EDGE_CURVE ( 'NONE', #796, #1016, #593, .T. ) ;
#1108 = CARTESIAN_POINT ( 'NONE',  ( 2.749700586928621071, 1.548220807044788261, -0.9658253715514926174 ) ) ;
#1109 = VERTEX_POINT ( 'NONE', #892 ) ;
#1110 = CARTESIAN_POINT ( 'NONE',  ( 0.000000000000000000, 0.000000000000000000, 1.199999999999999956 ) ) ;
#1111 = CARTESIAN_POINT ( 'NONE',  ( 5.488773498207866197E-16, -3.080163686126645928, 1.199999999999999956 ) ) ;
#1112 = CARTESIAN_POINT ( 'NONE',  ( -2.491025288187929121, 1.737232359849466334, -1.038897611529069342 ) ) ;
#1113 = CARTESIAN_POINT ( 'NONE',  ( 1.374999999999994005, 2.381569860407195538, 1.199999999999999956 ) ) ;
#1114 = AXIS2_PLACEMENT_3D ( 'NONE', #1110, #658, #1018 ) ;
#1115 = CARTESIAN_POINT ( 'NONE',  ( -2.708750000000035740, -1.611528938875513628, -0.9679740571893249435 ) ) ;
#1116 = CARTESIAN_POINT ( 'NONE',  ( -2.749999999999990230, 1.290315930460964600, -1.038434694367681432 ) ) ;
#1117 = CARTESIAN_POINT ( 'NONE',  ( -2.749999999999990230, 1.548143806467013439, -0.9656997233043316253 ) ) ;
#1118 = CARTESIAN_POINT ( 'NONE',  ( -1.601237617163661531, 2.250951511236936042, -1.200000000000005729 ) ) ;
#1119 = CARTESIAN_POINT ( 'NONE',  ( -0.01833609470007424927, 3.160600230253985288, -0.9629091386530360674 ) ) ;
#1120 = FACE_OUTER_BOUND ( 'NONE', #116, .T. ) ;
#1121 = CARTESIAN_POINT ( 'NONE',  ( -2.745542978361632080, 1.568026829186140336, 0.9622772721605311608 ) ) ;
#1122 = CARTESIAN_POINT ( 'NONE',  ( 0.03405174389594160106, 3.155420964603536937, -0.9658253715515062732 ) ) ;
#1123 = CARTESIAN_POINT ( 'NONE',  ( -1.374999999999999778, 2.381569860407205308, -1.199999999999999956 ) ) ;
#1124 = CARTESIAN_POINT ( 'NONE',  ( -0.001594808560828991180, 3.163073358284520964, -0.9615181289153428290 ) ) ;
#1125 = CARTESIAN_POINT ( 'NONE',  ( -2.742087663019653121, -1.575337062893371609, -0.9619045962810796047 ) ) ;
#1126 = EDGE_CURVE ( 'NONE', #831, #253, #630, .T. ) ;
#1127 = CARTESIAN_POINT ( 'NONE',  ( -0.03426813488787723572, -3.155641763640791186, 0.9656997233096791255 ) ) ;
#1128 = CARTESIAN_POINT ( 'NONE',  ( -2.749091729614459911, -1.552290023047211420, -0.9649763189096660643 ) ) ;
#1129 = CARTESIAN_POINT ( 'NONE',  ( -2.746328137956930870, 1.564420591310542008, -0.9629091386530347352 ) ) ;
#1130 = AXIS2_PLACEMENT_3D ( 'NONE', #334, #868, #964 ) ;
#1131 = APPROVAL_PERSON_ORGANIZATION ( #636, #1137, #884 ) ;
#1132 = CARTESIAN_POINT ( 'NONE',  ( 1.374999999999999556, 2.381569860407205308, -1.199999999999999956 ) ) ;
#1133 = CARTESIAN_POINT ( 'NONE',  ( 0.03405174389585708533, -3.155420964603554257, 0.9658253715514965032 ) ) ;
#1134 = DIRECTION ( 'NONE',  ( -0.000000000000000000, -0.000000000000000000, -1.000000000000000000 ) ) ;
#1135 = LINE ( 'NONE', #665, #424 ) ;
#1136 = ORIENTED_EDGE ( 'NONE', *, *, #787, .F. ) ;
#1137 = APPROVAL ( #617, 'UNSPECIFIED' ) ;
#1138 = CARTESIAN_POINT ( 'NONE',  ( 2.271494254625023856, -1.863978661172489559, 1.097229345705548420 ) ) ;
#1139 = DIRECTION ( 'NONE',  ( -1.000000000000000000, 0.000000000000000000, 0.000000000000000000 ) ) ;
#1140 = ORIENTED_EDGE ( 'NONE', *, *, #751, .T. ) ;
#1141 = ORIENTED_EDGE ( 'NONE', *, *, #247, .T. ) ;
#1142 = CARTESIAN_POINT ( 'NONE',  ( 0.000000000000000000, 0.000000000000000000, 1.199999999999999956 ) ) ;
#1143 = VECTOR ( 'NONE', #651, 1000.000000000000000 ) ;
ENDSEC;
END-ISO-10303-21;
