ISO-10303-21;
HEADER;
FILE_DESCRIPTION (( 'STEP AP203' ),
    '1' );
FILE_NAME ('8215K2_Load-Rated Adhesive-Back Sorbothane Bumper.STEP',
    '2026-01-06T14:14:43',
    ( 'McMaster Carr Supply' ),
    ( 'McMaster Carr Supply' ),
    'SwSTEP 2.0',
    'SolidWorks 2024',
    '' );
FILE_SCHEMA (( 'CONFIG_CONTROL_DESIGN' ));
ENDSEC;

DATA;
#1 = DIRECTION ( 'NONE',  ( 0.000000000000000000, 0.000000000000000000, 1.000000000000000000 ) ) ;
#2 = APPROVAL_ROLE ( '' ) ;
#3 = CARTESIAN_POINT ( 'NONE',  ( 0.000000000000000000, -0.3125000000000000555, -5.122214988120494151E-17 ) ) ;
#4 = SPHERICAL_SURFACE ( 'NONE', #88, 0.6250000000000000000 ) ;
#5 = AXIS2_PLACEMENT_3D ( 'NONE', #136, #153, #104 ) ;
#6 =( GEOMETRIC_REPRESENTATION_CONTEXT ( 3 ) GLOBAL_UNCERTAINTY_ASSIGNED_CONTEXT ( ( #67 ) ) GLOBAL_UNIT_ASSIGNED_CONTEXT ( ( #96, #143, #92 ) ) REPRESENTATION_CONTEXT ( 'NONE', 'WORKASPACE' ) );
#7 = ADVANCED_BREP_SHAPE_REPRESENTATION ( '8215K2_Load-Rated Adhesive-Back Sorbothane Bumper', ( #101, #111 ), #6 ) ;
#8 = PERSON_AND_ORGANIZATION_ROLE ( 'classification_officer' ) ;
#9 = LOCAL_TIME ( 8, 14, 42.00000000000000000, #142 ) ;
#10 = CC_DESIGN_PERSON_AND_ORGANIZATION_ASSIGNMENT ( #58, #43, ( #53 ) ) ;
#11 = VERTEX_POINT ( 'NONE', #90 ) ;
#12 = VERTEX_POINT ( 'NONE', #57 ) ;
#13 = DIMENSIONAL_EXPONENTS ( 1.000000000000000000, 0.000000000000000000, 0.000000000000000000, 0.000000000000000000, 0.000000000000000000, 0.000000000000000000, 0.000000000000000000 ) ;
#14 = DATE_AND_TIME ( #33, #9 ) ;
#15 = CC_DESIGN_APPROVAL ( #29, ( #70 ) ) ;
#16 = PERSON_AND_ORGANIZATION ( #93, #44 ) ;
#17 = DATE_TIME_ROLE ( 'creation_date' ) ;
#18 = PERSON_AND_ORGANIZATION ( #93, #44 ) ;
#19 = CIRCLE ( 'NONE', #61, 0.6250000000000000000 ) ;
#20 = APPROVAL_DATE_TIME ( #150, #29 ) ;
#21 = EDGE_CURVE ( 'NONE', #112, #12, #76, .T. ) ;
#22 = CC_DESIGN_PERSON_AND_ORGANIZATION_ASSIGNMENT ( #41, #107, ( #134 ) ) ;
#23 = CLOSED_SHELL ( 'NONE', ( #36, #138, #123 ) ) ;
#24 = AXIS2_PLACEMENT_3D ( 'NONE', #3, #40, #48 ) ;
#25 = ORIENTED_EDGE ( 'NONE', *, *, #21, .T. ) ;
#26 = ORIENTED_EDGE ( 'NONE', *, *, #21, .F. ) ;
#27 = CC_DESIGN_SECURITY_CLASSIFICATION ( #70, ( #37 ) ) ;
#28 = CARTESIAN_POINT ( 'NONE',  ( 0.000000000000000000, -0.3125000000000000000, -5.122214988120493535E-17 ) ) ;
#29 = APPROVAL ( #100, 'UNSPECIFIED' ) ;
#30 = MECHANICAL_CONTEXT ( 'NONE', #77, 'mechanical' ) ;
#31 = APPROVAL_STATUS ( 'not_yet_approved' ) ;
#32 = DATE_AND_TIME ( #94, #115 ) ;
#33 = CALENDAR_DATE ( 2026, 6, 1 ) ;
#34 = APPROVAL_PERSON_ORGANIZATION ( #80, #89, #2 ) ;
#35 = COORDINATED_UNIVERSAL_TIME_OFFSET ( 6, 0, .BEHIND. ) ;
#36 = ADVANCED_FACE ( 'NONE', ( #122 ), #79, .T. ) ;
#37 = PRODUCT_DEFINITION_FORMATION_WITH_SPECIFIED_SOURCE ( 'ANY', '', #134, .NOT_KNOWN. ) ;
#38 = ORIENTED_EDGE ( 'NONE', *, *, #106, .T. ) ;
#39 = DIRECTION ( 'NONE',  ( 1.000000000000000000, -0.000000000000000000, 0.000000000000000000 ) ) ;
#40 = DIRECTION ( 'NONE',  ( 0.000000000000000000, -1.000000000000000000, -1.224646799147353207E-16 ) ) ;
#41 = PERSON_AND_ORGANIZATION ( #93, #44 ) ;
#42 = CARTESIAN_POINT ( 'NONE',  ( 0.000000000000000000, 0.3125000000000000000, 3.827021247335478926E-17 ) ) ;
#43 = PERSON_AND_ORGANIZATION_ROLE ( 'creator' ) ;
#44 = ORGANIZATION ( 'UNSPECIFIED', 'UNSPECIFIED', '' ) ;
#45 = CC_DESIGN_PERSON_AND_ORGANIZATION_ASSIGNMENT ( #147, #8, ( #70 ) ) ;
#46 = AXIS2_PLACEMENT_3D ( 'NONE', #120, #39, #54 ) ;
#47 = DIRECTION ( 'NONE',  ( -1.000000000000000000, 0.000000000000000000, 0.000000000000000000 ) ) ;
#48 = DIRECTION ( 'NONE',  ( 0.000000000000000000, 1.224646799147353207E-16, -1.000000000000000000 ) ) ;
#49 = EDGE_CURVE ( 'NONE', #112, #11, #19, .T. ) ;
#50 = CARTESIAN_POINT ( 'NONE',  ( 0.000000000000000000, -0.3125000000000000000, 0.000000000000000000 ) ) ;
#51 = AXIS2_PLACEMENT_3D ( 'NONE', #28, #55, #146 ) ;
#52 = DESIGN_CONTEXT ( 'detailed design', #109, 'design' ) ;
#53 = PRODUCT_DEFINITION ( 'UNKNOWN', '', #37, #52 ) ;
#54 = DIRECTION ( 'NONE',  ( 0.000000000000000000, 1.092739197465705287E-16, -1.000000000000000000 ) ) ;
#55 = DIRECTION ( 'NONE',  ( -0.000000000000000000, -1.000000000000000000, -1.224646799147353207E-16 ) ) ;
#56 = PLANE ( 'NONE',  #24 ) ;
#57 = CARTESIAN_POINT ( 'NONE',  ( 0.000000000000000000, -0.3124999999999999445, -0.6250000000000000000 ) ) ;
#58 = PERSON_AND_ORGANIZATION ( #93, #44 ) ;
#59 = APPROVAL_STATUS ( 'not_yet_approved' ) ;
#60 = FACE_OUTER_BOUND ( 'NONE', #121, .T. ) ;
#61 = AXIS2_PLACEMENT_3D ( 'NONE', #105, #137, #81 ) ;
#62 = DIRECTION ( 'NONE',  ( 0.000000000000000000, 0.000000000000000000, 1.000000000000000000 ) ) ;
#63 = LOCAL_TIME ( 8, 14, 42.00000000000000000, #91 ) ;
#64 = CALENDAR_DATE ( 2026, 6, 1 ) ;
#65 = ORIENTED_EDGE ( 'NONE', *, *, #83, .F. ) ;
#66 = CC_DESIGN_DATE_AND_TIME_ASSIGNMENT ( #14, #17, ( #53 ) ) ;
#67 = UNCERTAINTY_MEASURE_WITH_UNIT (LENGTH_MEASURE( 1.000000000000000082E-05 ), #96, 'distance_accuracy_value', 'NONE');
#68 = EDGE_LOOP ( 'NONE', ( #140, #38 ) ) ;
#69 = EDGE_LOOP ( 'NONE', ( #26, #102, #65 ) ) ;
#70 = SECURITY_CLASSIFICATION ( '', '', #85 ) ;
#71 = CARTESIAN_POINT ( 'NONE',  ( 0.000000000000000000, -0.3125000000000000000, 0.000000000000000000 ) ) ;
#72 = CIRCLE ( 'NONE', #51, 0.6250000000000000000 ) ;
#73 = APPLICATION_PROTOCOL_DEFINITION ( 'international standard', 'config_control_design', 1994, #77 ) ;
#74 = APPROVAL_DATE_TIME ( #32, #89 ) ;
#75 = DATE_TIME_ROLE ( 'classification_date' ) ;
#76 = CIRCLE ( 'NONE', #133, 0.6250000000000000000 ) ;
#77 = APPLICATION_CONTEXT ( 'configuration controlled 3d designs of mechanical parts and assemblies' ) ;
#78 = CC_DESIGN_DATE_AND_TIME_ASSIGNMENT ( #86, #75, ( #70 ) ) ;
#79 = SPHERICAL_SURFACE ( 'NONE', #46, 0.6250000000000000000 ) ;
#80 = PERSON_AND_ORGANIZATION ( #93, #44 ) ;
#81 = DIRECTION ( 'NONE',  ( -1.224646799147353207E-16, 0.000000000000000000, -1.000000000000000000 ) ) ;
#82 = DIRECTION ( 'NONE',  ( 0.000000000000000000, 1.092739197465705287E-16, -1.000000000000000000 ) ) ;
#83 = EDGE_CURVE ( 'NONE', #12, #11, #72, .T. ) ;
#84 = LOCAL_TIME ( 8, 14, 42.00000000000000000, #135 ) ;
#85 = SECURITY_CLASSIFICATION_LEVEL ( 'unclassified' ) ;
#86 = DATE_AND_TIME ( #149, #84 ) ;
#87 = ORIENTED_EDGE ( 'NONE', *, *, #106, .F. ) ;
#88 = AXIS2_PLACEMENT_3D ( 'NONE', #50, #127, #82 ) ;
#89 = APPROVAL ( #59, 'UNSPECIFIED' ) ;
#90 = CARTESIAN_POINT ( 'NONE',  ( 7.654042494670957853E-17, -0.3125000000000000555, 0.6250000000000000000 ) ) ;
#91 = COORDINATED_UNIVERSAL_TIME_OFFSET ( 6, 0, .BEHIND. ) ;
#92 =( NAMED_UNIT ( * ) SI_UNIT ( $, .STERADIAN. ) SOLID_ANGLE_UNIT ( ) );
#93 = PERSON ( 'UNSPECIFIED', 'UNSPECIFIED', 'UNSPECIFIED', ('UNSPECIFIED'), ('UNSPECIFIED'), ('UNSPECIFIED') ) ;
#94 = CALENDAR_DATE ( 2026, 6, 1 ) ;
#95 = LOCAL_TIME ( 8, 14, 42.00000000000000000, #35 ) ;
#96 =( CONVERSION_BASED_UNIT ( 'INCH', #124 ) LENGTH_UNIT ( ) NAMED_UNIT ( #13 ) );
#97 = APPROVAL_ROLE ( '' ) ;
#98 = SHAPE_DEFINITION_REPRESENTATION ( #152, #7 ) ;
#99 = PERSON_AND_ORGANIZATION_ROLE ( 'creator' ) ;
#100 = APPROVAL_STATUS ( 'not_yet_approved' ) ;
#101 = MANIFOLD_SOLID_BREP ( 'Revolve1', #23 ) ;
#102 = ORIENTED_EDGE ( 'NONE', *, *, #49, .T. ) ;
#103 = CC_DESIGN_PERSON_AND_ORGANIZATION_ASSIGNMENT ( #18, #99, ( #37 ) ) ;
#104 = DIRECTION ( 'NONE',  ( 0.000000000000000000, 1.092739197465705287E-16, -1.000000000000000000 ) ) ;
#105 = CARTESIAN_POINT ( 'NONE',  ( 0.000000000000000000, -0.3125000000000000000, 0.000000000000000000 ) ) ;
#106 = EDGE_CURVE ( 'NONE', #11, #12, #139, .T. ) ;
#107 = PERSON_AND_ORGANIZATION_ROLE ( 'design_owner' ) ;
#108 = FACE_OUTER_BOUND ( 'NONE', #68, .T. ) ;
#109 = APPLICATION_CONTEXT ( 'configuration controlled 3d designs of mechanical parts and assemblies' ) ;
#110 = APPROVAL_ROLE ( '' ) ;
#111 = AXIS2_PLACEMENT_3D ( 'NONE', #114, #62, #126 ) ;
#112 = VERTEX_POINT ( 'NONE', #42 ) ;
#113 = ORIENTED_EDGE ( 'NONE', *, *, #49, .F. ) ;
#114 = CARTESIAN_POINT ( 'NONE',  ( 0.000000000000000000, 0.000000000000000000, 0.000000000000000000 ) ) ;
#115 = LOCAL_TIME ( 8, 14, 42.00000000000000000, #117 ) ;
#116 = CALENDAR_DATE ( 2026, 6, 1 ) ;
#117 = COORDINATED_UNIVERSAL_TIME_OFFSET ( 6, 0, .BEHIND. ) ;
#118 = PRODUCT_RELATED_PRODUCT_CATEGORY ( 'detail', '', ( #134 ) ) ;
#119 = CC_DESIGN_APPROVAL ( #145, ( #53 ) ) ;
#120 = CARTESIAN_POINT ( 'NONE',  ( 0.000000000000000000, -0.3125000000000000000, 0.000000000000000000 ) ) ;
#121 = EDGE_LOOP ( 'NONE', ( #113, #25, #87 ) ) ;
#122 = FACE_OUTER_BOUND ( 'NONE', #69, .T. ) ;
#123 = ADVANCED_FACE ( 'NONE', ( #60 ), #4, .T. ) ;
#124 = LENGTH_MEASURE_WITH_UNIT ( LENGTH_MEASURE( 0.02539999999999999897 ), #128 );
#125 = APPROVAL_PERSON_ORGANIZATION ( #16, #145, #97 ) ;
#126 = DIRECTION ( 'NONE',  ( 1.000000000000000000, 0.000000000000000000, 0.000000000000000000 ) ) ;
#127 = DIRECTION ( 'NONE',  ( 1.000000000000000000, -0.000000000000000000, 0.000000000000000000 ) ) ;
#128 =( LENGTH_UNIT ( ) NAMED_UNIT ( * ) SI_UNIT ( $, .METRE. ) );
#129 = DATE_AND_TIME ( #116, #63 ) ;
#130 = CC_DESIGN_PERSON_AND_ORGANIZATION_ASSIGNMENT ( #131, #151, ( #37 ) ) ;
#131 = PERSON_AND_ORGANIZATION ( #93, #44 ) ;
#132 = PERSON_AND_ORGANIZATION ( #93, #44 ) ;
#133 = AXIS2_PLACEMENT_3D ( 'NONE', #71, #47, #1 ) ;
#134 = PRODUCT ( '8215K2_Load-Rated Adhesive-Back Sorbothane Bumper', '8215K2_Load-Rated Adhesive-Back Sorbothane Bumper', '', ( #30 ) ) ;
#135 = COORDINATED_UNIVERSAL_TIME_OFFSET ( 6, 0, .BEHIND. ) ;
#136 = CARTESIAN_POINT ( 'NONE',  ( 0.000000000000000000, -0.3125000000000000000, -5.122214988120493535E-17 ) ) ;
#137 = DIRECTION ( 'NONE',  ( 1.000000000000000000, 1.499759782661857608E-32, -1.224646799147353207E-16 ) ) ;
#138 = ADVANCED_FACE ( 'NONE', ( #108 ), #56, .T. ) ;
#139 = CIRCLE ( 'NONE', #5, 0.6250000000000000000 ) ;
#140 = ORIENTED_EDGE ( 'NONE', *, *, #83, .T. ) ;
#141 = APPLICATION_PROTOCOL_DEFINITION ( 'international standard', 'config_control_design', 1994, #109 ) ;
#142 = COORDINATED_UNIVERSAL_TIME_OFFSET ( 6, 0, .BEHIND. ) ;
#143 =( NAMED_UNIT ( * ) PLANE_ANGLE_UNIT ( ) SI_UNIT ( $, .RADIAN. ) );
#144 = APPROVAL_DATE_TIME ( #129, #145 ) ;
#145 = APPROVAL ( #31, 'UNSPECIFIED' ) ;
#146 = DIRECTION ( 'NONE',  ( 0.000000000000000000, 1.092739197465705287E-16, -1.000000000000000000 ) ) ;
#147 = PERSON_AND_ORGANIZATION ( #93, #44 ) ;
#148 = APPROVAL_PERSON_ORGANIZATION ( #132, #29, #110 ) ;
#149 = CALENDAR_DATE ( 2026, 6, 1 ) ;
#150 = DATE_AND_TIME ( #64, #95 ) ;
#151 = PERSON_AND_ORGANIZATION_ROLE ( 'design_supplier' ) ;
#152 = PRODUCT_DEFINITION_SHAPE ( 'NONE', 'NONE',  #53 ) ;
#153 = DIRECTION ( 'NONE',  ( -0.000000000000000000, -1.000000000000000000, -1.224646799147353207E-16 ) ) ;
#154 = CC_DESIGN_APPROVAL ( #89, ( #37 ) ) ;
ENDSEC;
END-ISO-10303-21;
