ISO-10303-21;
HEADER;
FILE_DESCRIPTION (( 'STEP AP203' ),
    '1' );
FILE_NAME ('96659A134_18-8 Stainless Steel SAE Washer.STEP',
    '2026-06-30T13:42:09',
    ( 'McMaster Carr Supply' ),
    ( 'McMaster Carr Supply' ),
    'SwSTEP 2.0',
    'SolidWorks 2024',
    '' );
FILE_SCHEMA (( 'CONFIG_CONTROL_DESIGN' ));
ENDSEC;

DATA;
#1 = CIRCLE ( 'NONE', #361, 0.1788800000000000112 ) ;
#2 = ORIENTED_EDGE ( 'NONE', *, *, #424, .F. ) ;
#3 = CARTESIAN_POINT ( 'NONE',  ( 0.000000000000000000, 0.000000000000000000, 0.03275000000000003603 ) ) ;
#4 = PERSON_AND_ORGANIZATION ( #387, #395 ) ;
#5 = ADVANCED_FACE ( 'NONE', ( #218, #185 ), #315, .T. ) ;
#6 = AXIS2_PLACEMENT_3D ( 'NONE', #66, #235, #450 ) ;
#7 = ORIENTED_EDGE ( 'NONE', *, *, #345, .F. ) ;
#8 = DIRECTION ( 'NONE',  ( 0.000000000000000000, -1.000000000000000000, 0.000000000000000000 ) ) ;
#9 = ORIENTED_EDGE ( 'NONE', *, *, #170, .F. ) ;
#10 = CARTESIAN_POINT ( 'NONE',  ( 0.1788800000000000112, 0.000000000000000000, 0.02587000000000003186 ) ) ;
#11 = EDGE_CURVE ( 'NONE', #251, #41, #225, .T. ) ;
#12 = DIRECTION ( 'NONE',  ( 1.000000000000000000, 0.000000000000000000, 0.000000000000000000 ) ) ;
#13 = CARTESIAN_POINT ( 'NONE',  ( 0.3440000000000000280, 0.000000000000000000, 0.02587000000000003186 ) ) ;
#14 = EDGE_CURVE ( 'NONE', #311, #457, #178, .T. ) ;
#15 = DIRECTION ( 'NONE',  ( -0.000000000000000000, -0.000000000000000000, -1.000000000000000000 ) ) ;
#16 = TOROIDAL_SURFACE ( 'NONE', #55, 0.1788800000000000112, 0.006879999999999999831 ) ;
#17 = CARTESIAN_POINT ( 'NONE',  ( -0.3371199999999999752, 4.170657139176225377E-17, -0.03274999999999996664 ) ) ;
#18 = CARTESIAN_POINT ( 'NONE',  ( 0.000000000000000000, 0.000000000000000000, 0.02587000000000003186 ) ) ;
#19 = FACE_OUTER_BOUND ( 'NONE', #212, .T. ) ;
#20 = LINE ( 'NONE', #437, #343 ) ;
#21 =( NAMED_UNIT ( * ) PLANE_ANGLE_UNIT ( ) SI_UNIT ( $, .RADIAN. ) );
#22 = DIRECTION ( 'NONE',  ( 1.000000000000000000, 0.000000000000000000, 0.000000000000000000 ) ) ;
#23 = APPROVAL_PERSON_ORGANIZATION ( #4, #275, #312 ) ;
#24 = DIRECTION ( 'NONE',  ( 0.000000000000000000, 0.000000000000000000, 1.000000000000000000 ) ) ;
#25 = DIRECTION ( 'NONE',  ( 1.000000000000000000, 0.000000000000000000, 0.000000000000000000 ) ) ;
#26 = TOROIDAL_SURFACE ( 'NONE', #346, 0.3371199999999999752, 0.006879999999999999831 ) ;
#27 = ORIENTED_EDGE ( 'NONE', *, *, #399, .F. ) ;
#28 = DATE_AND_TIME ( #446, #438 ) ;
#29 = ADVANCED_FACE ( 'NONE', ( #165 ), #204, .T. ) ;
#30 = CARTESIAN_POINT ( 'NONE',  ( 0.1720000000000000140, 0.000000000000000000, -0.02586999999999996594 ) ) ;
#31 = EDGE_CURVE ( 'NONE', #238, #455, #1, .T. ) ;
#32 = ORIENTED_EDGE ( 'NONE', *, *, #181, .F. ) ;
#33 = CIRCLE ( 'NONE', #6, 0.1720000000000000140 ) ;
#34 = AXIS2_PLACEMENT_3D ( 'NONE', #84, #266, #124 ) ;
#35 = CIRCLE ( 'NONE', #414, 0.3371199999999999752 ) ;
#36 = CIRCLE ( 'NONE', #368, 0.3440000000000000280 ) ;
#37 = DATE_AND_TIME ( #249, #149 ) ;
#38 = EDGE_LOOP ( 'NONE', ( #277, #282 ) ) ;
#39 = CIRCLE ( 'NONE', #216, 0.006880000000000009372 ) ;
#40 = ORIENTED_EDGE ( 'NONE', *, *, #431, .T. ) ;
#41 = VERTEX_POINT ( 'NONE', #407 ) ;
#42 = DESIGN_CONTEXT ( 'detailed design', #279, 'design' ) ;
#43 = ORIENTED_EDGE ( 'NONE', *, *, #444, .T. ) ;
#44 = CC_DESIGN_PERSON_AND_ORGANIZATION_ASSIGNMENT ( #99, #334, ( #370 ) ) ;
#45 = VECTOR ( 'NONE', #290, 39.37007874015748143 ) ;
#46 = AXIS2_PLACEMENT_3D ( 'NONE', #63, #383, #205 ) ;
#47 = EDGE_LOOP ( 'NONE', ( #254, #321, #393, #248 ) ) ;
#48 = DIRECTION ( 'NONE',  ( -1.000000000000000000, 1.224646799147354193E-16, 0.000000000000000000 ) ) ;
#49 = CARTESIAN_POINT ( 'NONE',  ( -0.3440000000000000280, 4.212784989066894949E-17, -0.03274999999999996664 ) ) ;
#50 = CARTESIAN_POINT ( 'NONE',  ( -0.3371199999999999752, 4.170657139176225377E-17, 0.03275000000000003603 ) ) ;
#51 = CC_DESIGN_PERSON_AND_ORGANIZATION_ASSIGNMENT ( #342, #272, ( #108 ) ) ;
#52 = CARTESIAN_POINT ( 'NONE',  ( 0.000000000000000000, 0.000000000000000000, -0.02586999999999996594 ) ) ;
#53 = CARTESIAN_POINT ( 'NONE',  ( 0.3440000000000000280, 0.000000000000000000, -0.03274999999999996664 ) ) ;
#54 = CYLINDRICAL_SURFACE ( 'NONE', #135, 0.3440000000000000280 ) ;
#55 = AXIS2_PLACEMENT_3D ( 'NONE', #404, #83, #296 ) ;
#56 = DIRECTION ( 'NONE',  ( 1.224646799147353207E-16, 1.000000000000000000, -0.000000000000000000 ) ) ;
#57 = DIRECTION ( 'NONE',  ( 1.000000000000000000, 0.000000000000000000, -0.000000000000000000 ) ) ;
#58 = DIRECTION ( 'NONE',  ( 1.000000000000000000, 0.000000000000000000, 0.000000000000000000 ) ) ;
#59 =( NAMED_UNIT ( * ) SI_UNIT ( $, .STERADIAN. ) SOLID_ANGLE_UNIT ( ) );
#60 = CARTESIAN_POINT ( 'NONE',  ( 0.000000000000000000, 0.000000000000000000, 0.02587000000000003186 ) ) ;
#61 = AXIS2_PLACEMENT_3D ( 'NONE', #411, #253, #91 ) ;
#62 = APPROVAL_ROLE ( '' ) ;
#63 = CARTESIAN_POINT ( 'NONE',  ( 0.000000000000000000, 0.000000000000000000, -0.03274999999999996664 ) ) ;
#64 = ORIENTED_EDGE ( 'NONE', *, *, #366, .F. ) ;
#65 = CARTESIAN_POINT ( 'NONE',  ( 0.000000000000000000, 0.000000000000000000, 0.000000000000000000 ) ) ;
#66 = CARTESIAN_POINT ( 'NONE',  ( 0.000000000000000000, 0.000000000000000000, -0.02586999999999996594 ) ) ;
#67 = PERSON_AND_ORGANIZATION ( #387, #395 ) ;
#68 = EDGE_CURVE ( 'NONE', #182, #457, #371, .T. ) ;
#69 = VERTEX_POINT ( 'NONE', #93 ) ;
#70 = APPROVAL_PERSON_ORGANIZATION ( #452, #147, #62 ) ;
#71 = ORIENTED_EDGE ( 'NONE', *, *, #320, .T. ) ;
#72 = EDGE_LOOP ( 'NONE', ( #354, #386, #220, #32 ) ) ;
#73 = CALENDAR_DATE ( 2026, 30, 6 ) ;
#74 = ORIENTED_EDGE ( 'NONE', *, *, #106, .F. ) ;
#75 = CIRCLE ( 'NONE', #138, 0.3440000000000000280 ) ;
#76 = AXIS2_PLACEMENT_3D ( 'NONE', #261, #408, #288 ) ;
#77 = ORIENTED_EDGE ( 'NONE', *, *, #170, .T. ) ;
#78 = EDGE_CURVE ( 'NONE', #400, #426, #35, .T. ) ;
#79 = EDGE_LOOP ( 'NONE', ( #184, #71, #429, #158 ) ) ;
#80 = ORIENTED_EDGE ( 'NONE', *, *, #11, .F. ) ;
#81 = DIRECTION ( 'NONE',  ( 1.000000000000000000, 0.000000000000000000, 0.000000000000000000 ) ) ;
#82 = CIRCLE ( 'NONE', #114, 0.006880000000000000698 ) ;
#83 = DIRECTION ( 'NONE',  ( 0.000000000000000000, 0.000000000000000000, 1.000000000000000000 ) ) ;
#84 = CARTESIAN_POINT ( 'NONE',  ( 0.000000000000000000, 0.000000000000000000, 0.02587000000000003186 ) ) ;
#85 = AXIS2_PLACEMENT_3D ( 'NONE', #126, #374, #198 ) ;
#86 = CARTESIAN_POINT ( 'NONE',  ( 0.1720000000000000140, 0.000000000000000000, 0.02587000000000003186 ) ) ;
#87 = DIRECTION ( 'NONE',  ( -0.000000000000000000, -0.000000000000000000, -1.000000000000000000 ) ) ;
#88 = DIRECTION ( 'NONE',  ( 1.000000000000000000, 0.000000000000000000, 0.000000000000000000 ) ) ;
#89 = EDGE_CURVE ( 'NONE', #314, #247, #211, .T. ) ;
#90 = DIRECTION ( 'NONE',  ( 0.000000000000000000, 0.000000000000000000, 1.000000000000000000 ) ) ;
#91 = DIRECTION ( 'NONE',  ( -1.000000000000000000, 1.224646799147354193E-16, 0.000000000000000000 ) ) ;
#92 = ADVANCED_FACE ( 'NONE', ( #129 ), #54, .T. ) ;
#93 = CARTESIAN_POINT ( 'NONE',  ( 0.3440000000000000280, 0.000000000000000000, -0.02586999999999996594 ) ) ;
#94 = PERSON_AND_ORGANIZATION_ROLE ( 'design_supplier' ) ;
#95 = FACE_OUTER_BOUND ( 'NONE', #215, .T. ) ;
#96 = ADVANCED_FACE ( 'NONE', ( #224 ), #104, .T. ) ;
#97 =( LENGTH_UNIT ( ) NAMED_UNIT ( * ) SI_UNIT ( $, .METRE. ) );
#98 = DIRECTION ( 'NONE',  ( 0.000000000000000000, 0.000000000000000000, 1.000000000000000000 ) ) ;
#99 = PERSON_AND_ORGANIZATION ( #387, #395 ) ;
#100 = ADVANCED_FACE ( 'NONE', ( #326 ), #26, .T. ) ;
#101 = DIRECTION ( 'NONE',  ( 1.000000000000000000, 0.000000000000000000, 0.000000000000000000 ) ) ;
#102 = VECTOR ( 'NONE', #169, 39.37007874015748143 ) ;
#103 = COORDINATED_UNIVERSAL_TIME_OFFSET ( 6, 0, .BEHIND. ) ;
#104 = TOROIDAL_SURFACE ( 'NONE', #397, 0.1788800000000000112, 0.006879999999999999831 ) ;
#105 =( CONVERSION_BASED_UNIT ( 'INCH', #137 ) LENGTH_UNIT ( ) NAMED_UNIT ( #121 ) );
#106 = EDGE_CURVE ( 'NONE', #154, #111, #372, .T. ) ;
#107 = EDGE_LOOP ( 'NONE', ( #43, #435 ) ) ;
#108 = SECURITY_CLASSIFICATION ( '', '', #208 ) ;
#109 = AXIS2_PLACEMENT_3D ( 'NONE', #226, #363, #48 ) ;
#110 = CLOSED_SHELL ( 'NONE', ( #358, #163, #112, #96, #233, #210, #92, #456, #5, #286, #29, #100, #177, #355 ) ) ;
#111 = VERTEX_POINT ( 'NONE', #364 ) ;
#112 = ADVANCED_FACE ( 'NONE', ( #295 ), #258, .T. ) ;
#113 = ORIENTED_EDGE ( 'NONE', *, *, #14, .T. ) ;
#114 = AXIS2_PLACEMENT_3D ( 'NONE', #10, #187, #436 ) ;
#115 = ORIENTED_EDGE ( 'NONE', *, *, #11, .T. ) ;
#116 = ORIENTED_EDGE ( 'NONE', *, *, #444, .F. ) ;
#117 = DIRECTION ( 'NONE',  ( 0.000000000000000000, 0.000000000000000000, 1.000000000000000000 ) ) ;
#118 = ORIENTED_EDGE ( 'NONE', *, *, #213, .F. ) ;
#119 = DIRECTION ( 'NONE',  ( 0.000000000000000000, 0.000000000000000000, 1.000000000000000000 ) ) ;
#120 = VECTOR ( 'NONE', #329, 39.37007874015748143 ) ;
#121 = DIMENSIONAL_EXPONENTS ( 1.000000000000000000, 0.000000000000000000, 0.000000000000000000, 0.000000000000000000, 0.000000000000000000, 0.000000000000000000, 0.000000000000000000 ) ;
#122 = CARTESIAN_POINT ( 'NONE',  ( 0.1788800000000000112, 0.000000000000000000, -0.03274999999999996664 ) ) ;
#123 = DIRECTION ( 'NONE',  ( -1.000000000000000000, 1.224646799147354193E-16, 0.000000000000000000 ) ) ;
#124 = DIRECTION ( 'NONE',  ( 1.000000000000000000, 0.000000000000000000, 0.000000000000000000 ) ) ;
#125 = DIRECTION ( 'NONE',  ( -0.000000000000000000, -0.000000000000000000, -1.000000000000000000 ) ) ;
#126 = CARTESIAN_POINT ( 'NONE',  ( 0.000000000000000000, 0.000000000000000000, -0.02586999999999996594 ) ) ;
#127 = CARTESIAN_POINT ( 'NONE',  ( -0.1720000000000000140, 2.106392494533447474E-17, -0.02586999999999996594 ) ) ;
#128 = EDGE_CURVE ( 'NONE', #247, #390, #442, .T. ) ;
#129 = FACE_OUTER_BOUND ( 'NONE', #186, .T. ) ;
#130 = CIRCLE ( 'NONE', #350, 0.006880000000000009372 ) ;
#131 = DIRECTION ( 'NONE',  ( 1.000000000000000000, 0.000000000000000000, 0.000000000000000000 ) ) ;
#132 = AXIS2_PLACEMENT_3D ( 'NONE', #232, #333, #263 ) ;
#133 = EDGE_CURVE ( 'NONE', #314, #188, #20, .T. ) ;
#134 = CARTESIAN_POINT ( 'NONE',  ( 0.000000000000000000, 0.000000000000000000, -0.03274999999999996664 ) ) ;
#135 = AXIS2_PLACEMENT_3D ( 'NONE', #293, #229, #58 ) ;
#136 = DIRECTION ( 'NONE',  ( 1.000000000000000000, 0.000000000000000000, 0.000000000000000000 ) ) ;
#137 = LENGTH_MEASURE_WITH_UNIT ( LENGTH_MEASURE( 0.02539999999999999897 ), #97 );
#138 = AXIS2_PLACEMENT_3D ( 'NONE', #298, #203, #416 ) ;
#139 = CYLINDRICAL_SURFACE ( 'NONE', #175, 0.1720000000000000140 ) ;
#140 = CIRCLE ( 'NONE', #195, 0.3371199999999999752 ) ;
#141 = EDGE_LOOP ( 'NONE', ( #80, #317, #9, #7 ) ) ;
#142 = FACE_BOUND ( 'NONE', #38, .T. ) ;
#143 = EDGE_LOOP ( 'NONE', ( #313, #150, #451, #64 ) ) ;
#144 = APPROVAL_STATUS ( 'not_yet_approved' ) ;
#145 = ORIENTED_EDGE ( 'NONE', *, *, #379, .T. ) ;
#146 = PRODUCT_DEFINITION_SHAPE ( 'NONE', 'NONE',  #370 ) ;
#147 = APPROVAL ( #144, 'UNSPECIFIED' ) ;
#148 = ORIENTED_EDGE ( 'NONE', *, *, #221, .F. ) ;
#149 = LOCAL_TIME ( 8, 42, 9.000000000000000000, #425 ) ;
#150 = ORIENTED_EDGE ( 'NONE', *, *, #14, .F. ) ;
#151 = APPLICATION_CONTEXT ( 'configuration controlled 3d designs of mechanical parts and assemblies' ) ;
#152 = ORIENTED_EDGE ( 'NONE', *, *, #300, .F. ) ;
#153 = COORDINATED_UNIVERSAL_TIME_OFFSET ( 6, 0, .BEHIND. ) ;
#154 = VERTEX_POINT ( 'NONE', #122 ) ;
#155 = AXIS2_PLACEMENT_3D ( 'NONE', #65, #310, #131 ) ;
#156 = ORIENTED_EDGE ( 'NONE', *, *, #68, .T. ) ;
#157 = CARTESIAN_POINT ( 'NONE',  ( 0.1788800000000000112, 0.000000000000000000, -0.02586999999999996594 ) ) ;
#158 = ORIENTED_EDGE ( 'NONE', *, *, #385, .F. ) ;
#159 = DIRECTION ( 'NONE',  ( 0.000000000000000000, 0.000000000000000000, -1.000000000000000000 ) ) ;
#160 = DIRECTION ( 'NONE',  ( 0.000000000000000000, 0.000000000000000000, 1.000000000000000000 ) ) ;
#161 = DIRECTION ( 'NONE',  ( 0.000000000000000000, -1.000000000000000000, 0.000000000000000000 ) ) ;
#162 = DIRECTION ( 'NONE',  ( 0.000000000000000000, 0.000000000000000000, 1.000000000000000000 ) ) ;
#163 = ADVANCED_FACE ( 'NONE', ( #257 ), #327, .T. ) ;
#164 = DIRECTION ( 'NONE',  ( -1.000000000000000000, 1.224646799147354193E-16, 0.000000000000000000 ) ) ;
#165 = FACE_OUTER_BOUND ( 'NONE', #432, .T. ) ;
#166 = DIRECTION ( 'NONE',  ( 0.000000000000000000, 0.000000000000000000, 1.000000000000000000 ) ) ;
#167 = PERSON_AND_ORGANIZATION_ROLE ( 'design_owner' ) ;
#168 = AXIS2_PLACEMENT_3D ( 'NONE', #319, #119, #223 ) ;
#169 = DIRECTION ( 'NONE',  ( 0.000000000000000000, 0.000000000000000000, 1.000000000000000000 ) ) ;
#170 = EDGE_CURVE ( 'NONE', #69, #182, #75, .T. ) ;
#171 = DIRECTION ( 'NONE',  ( 1.000000000000000000, 0.000000000000000000, 0.000000000000000000 ) ) ;
#172 = PERSON_AND_ORGANIZATION ( #387, #395 ) ;
#173 = CARTESIAN_POINT ( 'NONE',  ( -0.1720000000000000140, 2.106392494533447474E-17, 0.02587000000000003186 ) ) ;
#174 = PERSON_AND_ORGANIZATION ( #387, #395 ) ;
#175 = AXIS2_PLACEMENT_3D ( 'NONE', #240, #341, #270 ) ;
#176 = ORIENTED_EDGE ( 'NONE', *, *, #379, .F. ) ;
#177 = ADVANCED_FACE ( 'NONE', ( #207 ), #201, .T. ) ;
#178 = CIRCLE ( 'NONE', #34, 0.3440000000000000280 ) ;
#179 = EDGE_LOOP ( 'NONE', ( #309, #252, #454, #460 ) ) ;
#180 = CC_DESIGN_PERSON_AND_ORGANIZATION_ASSIGNMENT ( #421, #384, ( #245 ) ) ;
#181 = EDGE_CURVE ( 'NONE', #311, #400, #243, .T. ) ;
#182 = VERTEX_POINT ( 'NONE', #381 ) ;
#183 = APPROVAL_PERSON_ORGANIZATION ( #172, #459, #236 ) ;
#184 = ORIENTED_EDGE ( 'NONE', *, *, #31, .F. ) ;
#185 = FACE_OUTER_BOUND ( 'NONE', #287, .T. ) ;
#186 = EDGE_LOOP ( 'NONE', ( #356, #40, #145, #113 ) ) ;
#187 = DIRECTION ( 'NONE',  ( 0.000000000000000000, -1.000000000000000000, 0.000000000000000000 ) ) ;
#188 = VERTEX_POINT ( 'NONE', #173 ) ;
#189 = AXIS2_PLACEMENT_3D ( 'NONE', #360, #160, #332 ) ;
#190 = DIRECTION ( 'NONE',  ( 0.000000000000000000, 0.000000000000000000, 1.000000000000000000 ) ) ;
#191 = DIRECTION ( 'NONE',  ( 1.000000000000000000, 0.000000000000000000, 0.000000000000000000 ) ) ;
#192 = CARTESIAN_POINT ( 'NONE',  ( 0.000000000000000000, 0.000000000000000000, -0.03274999999999996664 ) ) ;
#193 = DIRECTION ( 'NONE',  ( 0.000000000000000000, 0.000000000000000000, 1.000000000000000000 ) ) ;
#194 = CARTESIAN_POINT ( 'NONE',  ( 0.000000000000000000, 0.000000000000000000, 0.03275000000000003603 ) ) ;
#195 = AXIS2_PLACEMENT_3D ( 'NONE', #194, #443, #81 ) ;
#196 = DIRECTION ( 'NONE',  ( 0.000000000000000000, 0.000000000000000000, 1.000000000000000000 ) ) ;
#197 = CARTESIAN_POINT ( 'NONE',  ( -0.3371199999999999752, 4.128529289285557038E-17, -0.02586999999999996594 ) ) ;
#198 = DIRECTION ( 'NONE',  ( 1.000000000000000000, 0.000000000000000000, 0.000000000000000000 ) ) ;
#199 = EDGE_CURVE ( 'NONE', #457, #311, #36, .T. ) ;
#200 = DATE_TIME_ROLE ( 'creation_date' ) ;
#201 = TOROIDAL_SURFACE ( 'NONE', #262, 0.3371199999999999752, 0.006879999999999999831 ) ;
#202 = CC_DESIGN_SECURITY_CLASSIFICATION ( #108, ( #245 ) ) ;
#203 = DIRECTION ( 'NONE',  ( 0.000000000000000000, 0.000000000000000000, 1.000000000000000000 ) ) ;
#204 = TOROIDAL_SURFACE ( 'NONE', #132, 0.1788800000000000112, 0.006879999999999999831 ) ;
#205 = DIRECTION ( 'NONE',  ( 1.000000000000000000, 0.000000000000000000, 0.000000000000000000 ) ) ;
#206 = EDGE_LOOP ( 'NONE', ( #402, #115 ) ) ;
#207 = FACE_OUTER_BOUND ( 'NONE', #337, .T. ) ;
#208 = SECURITY_CLASSIFICATION_LEVEL ( 'unclassified' ) ;
#209 = TOROIDAL_SURFACE ( 'NONE', #276, 0.1788800000000000112, 0.006879999999999999831 ) ;
#210 = ADVANCED_FACE ( 'NONE', ( #95 ), #448, .T. ) ;
#211 = CIRCLE ( 'NONE', #85, 0.1720000000000000140 ) ;
#212 = EDGE_LOOP ( 'NONE', ( #423, #351, #74, #27 ) ) ;
#213 = EDGE_CURVE ( 'NONE', #41, #251, #410, .T. ) ;
#214 = AXIS2_PLACEMENT_3D ( 'NONE', #52, #193, #25 ) ;
#215 = EDGE_LOOP ( 'NONE', ( #77, #156, #246, #176 ) ) ;
#216 = AXIS2_PLACEMENT_3D ( 'NONE', #197, #294, #123 ) ;
#217 = AXIS2_PLACEMENT_3D ( 'NONE', #409, #162, #367 ) ;
#218 = FACE_BOUND ( 'NONE', #107, .T. ) ;
#219 = ORIENTED_EDGE ( 'NONE', *, *, #440, .F. ) ;
#220 = ORIENTED_EDGE ( 'NONE', *, *, #78, .F. ) ;
#221 = EDGE_CURVE ( 'NONE', #247, #314, #33, .T. ) ;
#222 = LOCAL_TIME ( 8, 42, 9.000000000000000000, #153 ) ;
#223 = DIRECTION ( 'NONE',  ( 1.000000000000000000, 0.000000000000000000, 0.000000000000000000 ) ) ;
#224 = FACE_OUTER_BOUND ( 'NONE', #79, .T. ) ;
#225 = CIRCLE ( 'NONE', #322, 0.3371199999999999752 ) ;
#226 = CARTESIAN_POINT ( 'NONE',  ( -0.3371199999999999752, 4.128529289285557038E-17, 0.02587000000000003186 ) ) ;
#227 = DIRECTION ( 'NONE',  ( 0.000000000000000000, 0.000000000000000000, 1.000000000000000000 ) ) ;
#228 = CARTESIAN_POINT ( 'NONE',  ( 0.000000000000000000, 0.000000000000000000, -0.02586999999999996594 ) ) ;
#229 = DIRECTION ( 'NONE',  ( 0.000000000000000000, 0.000000000000000000, 1.000000000000000000 ) ) ;
#230 = LINE ( 'NONE', #53, #120 ) ;
#231 = AXIS2_PLACEMENT_3D ( 'NONE', #157, #161, #359 ) ;
#232 = CARTESIAN_POINT ( 'NONE',  ( 0.000000000000000000, 0.000000000000000000, 0.02587000000000003186 ) ) ;
#233 = ADVANCED_FACE ( 'NONE', ( #339 ), #139, .F. ) ;
#234 = DATE_AND_TIME ( #305, #265 ) ;
#235 = DIRECTION ( 'NONE',  ( -0.000000000000000000, -0.000000000000000000, -1.000000000000000000 ) ) ;
#236 = APPROVAL_ROLE ( '' ) ;
#237 = CARTESIAN_POINT ( 'NONE',  ( 0.3371199999999999752, 0.000000000000000000, 0.02587000000000003186 ) ) ;
#238 = VERTEX_POINT ( 'NONE', #418 ) ;
#239 = COORDINATED_UNIVERSAL_TIME_OFFSET ( 6, 0, .BEHIND. ) ;
#240 = CARTESIAN_POINT ( 'NONE',  ( 0.000000000000000000, 0.000000000000000000, -0.03274999999999996664 ) ) ;
#241 = APPROVAL_DATE_TIME ( #419, #147 ) ;
#242 = PRODUCT_RELATED_PRODUCT_CATEGORY ( 'detail', '', ( #394 ) ) ;
#243 = CIRCLE ( 'NONE', #297, 0.006880000000000000698 ) ;
#244 = CARTESIAN_POINT ( 'NONE',  ( 0.000000000000000000, 0.000000000000000000, -0.03274999999999996664 ) ) ;
#245 = PRODUCT_DEFINITION_FORMATION_WITH_SPECIFIED_SOURCE ( 'ANY', '', #394, .NOT_KNOWN. ) ;
#246 = ORIENTED_EDGE ( 'NONE', *, *, #199, .T. ) ;
#247 = VERTEX_POINT ( 'NONE', #30 ) ;
#248 = ORIENTED_EDGE ( 'NONE', *, *, #128, .F. ) ;
#249 = CALENDAR_DATE ( 2026, 30, 6 ) ;
#250 = AXIS2_PLACEMENT_3D ( 'NONE', #306, #304, #136 ) ;
#251 = VERTEX_POINT ( 'NONE', #17 ) ;
#252 = ORIENTED_EDGE ( 'NONE', *, *, #89, .T. ) ;
#253 = DIRECTION ( 'NONE',  ( 1.224646799147353207E-16, 1.000000000000000000, -0.000000000000000000 ) ) ;
#254 = ORIENTED_EDGE ( 'NONE', *, *, #221, .T. ) ;
#255 = CIRCLE ( 'NONE', #168, 0.1720000000000000140 ) ;
#256 = FACE_OUTER_BOUND ( 'NONE', #179, .T. ) ;
#257 = FACE_OUTER_BOUND ( 'NONE', #141, .T. ) ;
#258 = TOROIDAL_SURFACE ( 'NONE', #189, 0.3371199999999999752, 0.006879999999999999831 ) ;
#259 = CARTESIAN_POINT ( 'NONE',  ( 0.3371199999999999752, 0.000000000000000000, -0.02586999999999996594 ) ) ;
#260 = CARTESIAN_POINT ( 'NONE',  ( 0.000000000000000000, 0.000000000000000000, 0.03275000000000003603 ) ) ;
#261 = CARTESIAN_POINT ( 'NONE',  ( 0.000000000000000000, 0.000000000000000000, 0.02587000000000003186 ) ) ;
#262 = AXIS2_PLACEMENT_3D ( 'NONE', #268, #98, #171 ) ;
#263 = DIRECTION ( 'NONE',  ( 1.000000000000000000, 0.000000000000000000, 0.000000000000000000 ) ) ;
#264 = CYLINDRICAL_SURFACE ( 'NONE', #445, 0.1720000000000000140 ) ;
#265 = LOCAL_TIME ( 8, 42, 9.000000000000000000, #103 ) ;
#266 = DIRECTION ( 'NONE',  ( -0.000000000000000000, -0.000000000000000000, -1.000000000000000000 ) ) ;
#267 = CARTESIAN_POINT ( 'NONE',  ( -0.3440000000000000280, 4.212784989066894949E-17, 0.02587000000000003186 ) ) ;
#268 = CARTESIAN_POINT ( 'NONE',  ( 0.000000000000000000, 0.000000000000000000, -0.02586999999999996594 ) ) ;
#269 = AXIS2_PLACEMENT_3D ( 'NONE', #441, #125, #285 ) ;
#270 = DIRECTION ( 'NONE',  ( 1.000000000000000000, 0.000000000000000000, 0.000000000000000000 ) ) ;
#271 = APPROVAL_STATUS ( 'not_yet_approved' ) ;
#272 = PERSON_AND_ORGANIZATION_ROLE ( 'classification_officer' ) ;
#273 = EDGE_CURVE ( 'NONE', #390, #188, #357, .T. ) ;
#274 = EDGE_LOOP ( 'NONE', ( #2, #148, #353, #152 ) ) ;
#275 = APPROVAL ( #347, 'UNSPECIFIED' ) ;
#276 = AXIS2_PLACEMENT_3D ( 'NONE', #365, #406, #88 ) ;
#277 = ORIENTED_EDGE ( 'NONE', *, *, #106, .T. ) ;
#278 = ORIENTED_EDGE ( 'NONE', *, *, #385, .T. ) ;
#279 = APPLICATION_CONTEXT ( 'configuration controlled 3d designs of mechanical parts and assemblies' ) ;
#280 = DATE_AND_TIME ( #73, #222 ) ;
#281 = UNCERTAINTY_MEASURE_WITH_UNIT (LENGTH_MEASURE( 1.000000000000000082E-05 ), #105, 'distance_accuracy_value', 'NONE');
#282 = ORIENTED_EDGE ( 'NONE', *, *, #300, .T. ) ;
#283 = CIRCLE ( 'NONE', #269, 0.1788800000000000112 ) ;
#284 = ORIENTED_EDGE ( 'NONE', *, *, #392, .F. ) ;
#285 = DIRECTION ( 'NONE',  ( 1.000000000000000000, 0.000000000000000000, 0.000000000000000000 ) ) ;
#286 = ADVANCED_FACE ( 'NONE', ( #256 ), #264, .F. ) ;
#287 = EDGE_LOOP ( 'NONE', ( #398, #307 ) ) ;
#288 = DIRECTION ( 'NONE',  ( 1.000000000000000000, 0.000000000000000000, 0.000000000000000000 ) ) ;
#289 = CC_DESIGN_DATE_AND_TIME_ASSIGNMENT ( #234, #200, ( #370 ) ) ;
#290 = DIRECTION ( 'NONE',  ( 0.000000000000000000, 0.000000000000000000, 1.000000000000000000 ) ) ;
#291 = CIRCLE ( 'NONE', #302, 0.1788800000000000112 ) ;
#292 = DIRECTION ( 'NONE',  ( 1.000000000000000000, 0.000000000000000000, 0.000000000000000000 ) ) ;
#293 = CARTESIAN_POINT ( 'NONE',  ( 0.000000000000000000, 0.000000000000000000, -0.03274999999999996664 ) ) ;
#294 = DIRECTION ( 'NONE',  ( 1.224646799147353207E-16, 1.000000000000000000, -0.000000000000000000 ) ) ;
#295 = FACE_OUTER_BOUND ( 'NONE', #72, .T. ) ;
#296 = DIRECTION ( 'NONE',  ( 1.000000000000000000, 0.000000000000000000, 0.000000000000000000 ) ) ;
#297 = AXIS2_PLACEMENT_3D ( 'NONE', #237, #415, #377 ) ;
#298 = CARTESIAN_POINT ( 'NONE',  ( 0.000000000000000000, 0.000000000000000000, -0.02586999999999996594 ) ) ;
#299 = APPLICATION_PROTOCOL_DEFINITION ( 'international standard', 'config_control_design', 1994, #279 ) ;
#300 = EDGE_CURVE ( 'NONE', #111, #154, #291, .T. ) ;
#301 = CC_DESIGN_APPROVAL ( #147, ( #245 ) ) ;
#302 = AXIS2_PLACEMENT_3D ( 'NONE', #192, #190, #373 ) ;
#303 = DIRECTION ( 'NONE',  ( 1.000000000000000000, 0.000000000000000000, 0.000000000000000000 ) ) ;
#304 = DIRECTION ( 'NONE',  ( 0.000000000000000000, 0.000000000000000000, 1.000000000000000000 ) ) ;
#305 = CALENDAR_DATE ( 2026, 30, 6 ) ;
#306 = CARTESIAN_POINT ( 'NONE',  ( 0.000000000000000000, 0.000000000000000000, -0.03274999999999996664 ) ) ;
#307 = ORIENTED_EDGE ( 'NONE', *, *, #366, .T. ) ;
#308 = COORDINATED_UNIVERSAL_TIME_OFFSET ( 6, 0, .BEHIND. ) ;
#309 = ORIENTED_EDGE ( 'NONE', *, *, #133, .F. ) ;
#310 = DIRECTION ( 'NONE',  ( 0.000000000000000000, 0.000000000000000000, 1.000000000000000000 ) ) ;
#311 = VERTEX_POINT ( 'NONE', #13 ) ;
#312 = APPROVAL_ROLE ( '' ) ;
#313 = ORIENTED_EDGE ( 'NONE', *, *, #375, .F. ) ;
#314 = VERTEX_POINT ( 'NONE', #127 ) ;
#315 = PLANE ( 'NONE',  #362 ) ;
#316 = CC_DESIGN_DATE_AND_TIME_ASSIGNMENT ( #280, #430, ( #108 ) ) ;
#317 = ORIENTED_EDGE ( 'NONE', *, *, #440, .T. ) ;
#318 = LOCAL_TIME ( 8, 42, 9.000000000000000000, #239 ) ;
#319 = CARTESIAN_POINT ( 'NONE',  ( 0.000000000000000000, 0.000000000000000000, 0.02587000000000003186 ) ) ;
#320 = EDGE_CURVE ( 'NONE', #238, #188, #458, .T. ) ;
#321 = ORIENTED_EDGE ( 'NONE', *, *, #133, .T. ) ;
#322 = AXIS2_PLACEMENT_3D ( 'NONE', #134, #87, #324 ) ;
#323 = CARTESIAN_POINT ( 'NONE',  ( 0.000000000000000000, 0.000000000000000000, -0.03274999999999996664 ) ) ;
#324 = DIRECTION ( 'NONE',  ( 1.000000000000000000, 0.000000000000000000, 0.000000000000000000 ) ) ;
#325 = CARTESIAN_POINT ( 'NONE',  ( 0.3371199999999999752, 0.000000000000000000, 0.03275000000000003603 ) ) ;
#326 = FACE_OUTER_BOUND ( 'NONE', #143, .T. ) ;
#327 = TOROIDAL_SURFACE ( 'NONE', #214, 0.3371199999999999752, 0.006879999999999999831 ) ;
#328 = CIRCLE ( 'NONE', #428, 0.006880000000000000698 ) ;
#329 = DIRECTION ( 'NONE',  ( 0.000000000000000000, 0.000000000000000000, 1.000000000000000000 ) ) ;
#330 = CARTESIAN_POINT ( 'NONE',  ( 0.000000000000000000, 0.000000000000000000, 0.02587000000000003186 ) ) ;
#331 = DIRECTION ( 'NONE',  ( 1.000000000000000000, 0.000000000000000000, 0.000000000000000000 ) ) ;
#332 = DIRECTION ( 'NONE',  ( 1.000000000000000000, 0.000000000000000000, 0.000000000000000000 ) ) ;
#333 = DIRECTION ( 'NONE',  ( 0.000000000000000000, 0.000000000000000000, 1.000000000000000000 ) ) ;
#334 = PERSON_AND_ORGANIZATION_ROLE ( 'creator' ) ;
#335 = AXIS2_PLACEMENT_3D ( 'NONE', #244, #24, #449 ) ;
#336 = DIRECTION ( 'NONE',  ( -0.000000000000000000, -0.000000000000000000, -1.000000000000000000 ) ) ;
#337 = EDGE_LOOP ( 'NONE', ( #219, #118, #420, #348 ) ) ;
#338 = FACE_OUTER_BOUND ( 'NONE', #206, .T. ) ;
#339 = FACE_OUTER_BOUND ( 'NONE', #47, .T. ) ;
#340 = PLANE ( 'NONE',  #335 ) ;
#341 = DIRECTION ( 'NONE',  ( 0.000000000000000000, 0.000000000000000000, 1.000000000000000000 ) ) ;
#342 = PERSON_AND_ORGANIZATION ( #387, #395 ) ;
#343 = VECTOR ( 'NONE', #166, 39.37007874015748143 ) ;
#344 = CC_DESIGN_APPROVAL ( #459, ( #370 ) ) ;
#345 = EDGE_CURVE ( 'NONE', #41, #69, #328, .T. ) ;
#346 = AXIS2_PLACEMENT_3D ( 'NONE', #18, #90, #22 ) ;
#347 = APPROVAL_STATUS ( 'not_yet_approved' ) ;
#348 = ORIENTED_EDGE ( 'NONE', *, *, #431, .F. ) ;
#349 = SHAPE_DEFINITION_REPRESENTATION ( #146, #427 ) ;
#350 = AXIS2_PLACEMENT_3D ( 'NONE', #369, #56, #164 ) ;
#351 = ORIENTED_EDGE ( 'NONE', *, *, #424, .T. ) ;
#352 = APPROVAL_DATE_TIME ( #37, #275 ) ;
#353 = ORIENTED_EDGE ( 'NONE', *, *, #399, .T. ) ;
#354 = ORIENTED_EDGE ( 'NONE', *, *, #199, .F. ) ;
#355 = ADVANCED_FACE ( 'NONE', ( #401 ), #209, .T. ) ;
#356 = ORIENTED_EDGE ( 'NONE', *, *, #68, .F. ) ;
#357 = CIRCLE ( 'NONE', #76, 0.1720000000000000140 ) ;
#358 = ADVANCED_FACE ( 'NONE', ( #19 ), #16, .T. ) ;
#359 = DIRECTION ( 'NONE',  ( 0.000000000000000000, 0.000000000000000000, -1.000000000000000000 ) ) ;
#360 = CARTESIAN_POINT ( 'NONE',  ( 0.000000000000000000, 0.000000000000000000, 0.02587000000000003186 ) ) ;
#361 = AXIS2_PLACEMENT_3D ( 'NONE', #260, #15, #303 ) ;
#362 = AXIS2_PLACEMENT_3D ( 'NONE', #3, #412, #57 ) ;
#363 = DIRECTION ( 'NONE',  ( 1.224646799147353207E-16, 1.000000000000000000, -0.000000000000000000 ) ) ;
#364 = CARTESIAN_POINT ( 'NONE',  ( -0.1788800000000000112, 2.190648194314785694E-17, -0.03274999999999996664 ) ) ;
#365 = CARTESIAN_POINT ( 'NONE',  ( 0.000000000000000000, 0.000000000000000000, -0.02586999999999996594 ) ) ;
#366 = EDGE_CURVE ( 'NONE', #426, #400, #140, .T. ) ;
#367 = DIRECTION ( 'NONE',  ( 1.000000000000000000, 0.000000000000000000, 0.000000000000000000 ) ) ;
#368 = AXIS2_PLACEMENT_3D ( 'NONE', #60, #336, #101 ) ;
#369 = CARTESIAN_POINT ( 'NONE',  ( -0.1788800000000000112, 2.190648194314785694E-17, -0.02586999999999996594 ) ) ;
#370 = PRODUCT_DEFINITION ( 'UNKNOWN', '', #245, #42 ) ;
#371 = LINE ( 'NONE', #49, #102 ) ;
#372 = CIRCLE ( 'NONE', #217, 0.1788800000000000112 ) ;
#373 = DIRECTION ( 'NONE',  ( 1.000000000000000000, 0.000000000000000000, 0.000000000000000000 ) ) ;
#374 = DIRECTION ( 'NONE',  ( -0.000000000000000000, -0.000000000000000000, -1.000000000000000000 ) ) ;
#375 = EDGE_CURVE ( 'NONE', #457, #426, #453, .T. ) ;
#376 = MECHANICAL_CONTEXT ( 'NONE', #151, 'mechanical' ) ;
#377 = DIRECTION ( 'NONE',  ( 0.000000000000000000, 0.000000000000000000, -1.000000000000000000 ) ) ;
#378 = APPROVAL_DATE_TIME ( #28, #459 ) ;
#379 = EDGE_CURVE ( 'NONE', #69, #311, #230, .T. ) ;
#380 =( GEOMETRIC_REPRESENTATION_CONTEXT ( 3 ) GLOBAL_UNCERTAINTY_ASSIGNED_CONTEXT ( ( #281 ) ) GLOBAL_UNIT_ASSIGNED_CONTEXT ( ( #105, #21, #59 ) ) REPRESENTATION_CONTEXT ( 'NONE', 'WORKASPACE' ) );
#381 = CARTESIAN_POINT ( 'NONE',  ( -0.3440000000000000280, 4.212784989066894949E-17, -0.02586999999999996594 ) ) ;
#382 = CALENDAR_DATE ( 2026, 30, 6 ) ;
#383 = DIRECTION ( 'NONE',  ( -0.000000000000000000, -0.000000000000000000, -1.000000000000000000 ) ) ;
#384 = PERSON_AND_ORGANIZATION_ROLE ( 'creator' ) ;
#385 = EDGE_CURVE ( 'NONE', #455, #390, #82, .T. ) ;
#386 = ORIENTED_EDGE ( 'NONE', *, *, #375, .T. ) ;
#387 = PERSON ( 'UNSPECIFIED', 'UNSPECIFIED', 'UNSPECIFIED', ('UNSPECIFIED'), ('UNSPECIFIED'), ('UNSPECIFIED') ) ;
#388 = CIRCLE ( 'NONE', #422, 0.3440000000000000280 ) ;
#389 = CC_DESIGN_PERSON_AND_ORGANIZATION_ASSIGNMENT ( #67, #94, ( #245 ) ) ;
#390 = VERTEX_POINT ( 'NONE', #86 ) ;
#391 = MANIFOLD_SOLID_BREP ( 'Fillet1', #110 ) ;
#392 = EDGE_CURVE ( 'NONE', #188, #390, #255, .T. ) ;
#393 = ORIENTED_EDGE ( 'NONE', *, *, #392, .T. ) ;
#394 = PRODUCT ( '96659A134_18-8 Stainless Steel SAE Washer', '96659A134_18-8 Stainless Steel SAE Washer', '', ( #376 ) ) ;
#395 = ORGANIZATION ( 'UNSPECIFIED', 'UNSPECIFIED', '' ) ;
#396 = ORIENTED_EDGE ( 'NONE', *, *, #320, .F. ) ;
#397 = AXIS2_PLACEMENT_3D ( 'NONE', #330, #196, #191 ) ;
#398 = ORIENTED_EDGE ( 'NONE', *, *, #78, .T. ) ;
#399 = EDGE_CURVE ( 'NONE', #247, #154, #417, .T. ) ;
#400 = VERTEX_POINT ( 'NONE', #325 ) ;
#401 = FACE_OUTER_BOUND ( 'NONE', #274, .T. ) ;
#402 = ORIENTED_EDGE ( 'NONE', *, *, #213, .T. ) ;
#403 = CC_DESIGN_APPROVAL ( #275, ( #108 ) ) ;
#404 = CARTESIAN_POINT ( 'NONE',  ( 0.000000000000000000, 0.000000000000000000, -0.02586999999999996594 ) ) ;
#405 = CARTESIAN_POINT ( 'NONE',  ( 0.1720000000000000140, 0.000000000000000000, -0.03274999999999996664 ) ) ;
#406 = DIRECTION ( 'NONE',  ( 0.000000000000000000, 0.000000000000000000, 1.000000000000000000 ) ) ;
#407 = CARTESIAN_POINT ( 'NONE',  ( 0.3371199999999999752, 0.000000000000000000, -0.03274999999999996664 ) ) ;
#408 = DIRECTION ( 'NONE',  ( 0.000000000000000000, 0.000000000000000000, 1.000000000000000000 ) ) ;
#409 = CARTESIAN_POINT ( 'NONE',  ( 0.000000000000000000, 0.000000000000000000, -0.03274999999999996664 ) ) ;
#410 = CIRCLE ( 'NONE', #46, 0.3371199999999999752 ) ;
#411 = CARTESIAN_POINT ( 'NONE',  ( -0.1788800000000000112, 2.190648194314785694E-17, 0.02587000000000003186 ) ) ;
#412 = DIRECTION ( 'NONE',  ( 0.000000000000000000, 0.000000000000000000, 1.000000000000000000 ) ) ;
#413 = APPLICATION_PROTOCOL_DEFINITION ( 'international standard', 'config_control_design', 1994, #151 ) ;
#414 = AXIS2_PLACEMENT_3D ( 'NONE', #447, #227, #12 ) ;
#415 = DIRECTION ( 'NONE',  ( 0.000000000000000000, -1.000000000000000000, 0.000000000000000000 ) ) ;
#416 = DIRECTION ( 'NONE',  ( 1.000000000000000000, 0.000000000000000000, 0.000000000000000000 ) ) ;
#417 = CIRCLE ( 'NONE', #231, 0.006880000000000000698 ) ;
#418 = CARTESIAN_POINT ( 'NONE',  ( -0.1788800000000000112, 2.190648194314785694E-17, 0.03275000000000003603 ) ) ;
#419 = DATE_AND_TIME ( #382, #318 ) ;
#420 = ORIENTED_EDGE ( 'NONE', *, *, #345, .T. ) ;
#421 = PERSON_AND_ORGANIZATION ( #387, #395 ) ;
#422 = AXIS2_PLACEMENT_3D ( 'NONE', #228, #439, #292 ) ;
#423 = ORIENTED_EDGE ( 'NONE', *, *, #89, .F. ) ;
#424 = EDGE_CURVE ( 'NONE', #314, #111, #130, .T. ) ;
#425 = COORDINATED_UNIVERSAL_TIME_OFFSET ( 6, 0, .BEHIND. ) ;
#426 = VERTEX_POINT ( 'NONE', #50 ) ;
#427 = ADVANCED_BREP_SHAPE_REPRESENTATION ( '96659A134_18-8 Stainless Steel SAE Washer', ( #391, #155 ), #380 ) ;
#428 = AXIS2_PLACEMENT_3D ( 'NONE', #259, #8, #159 ) ;
#429 = ORIENTED_EDGE ( 'NONE', *, *, #273, .F. ) ;
#430 = DATE_TIME_ROLE ( 'classification_date' ) ;
#431 = EDGE_CURVE ( 'NONE', #182, #69, #388, .T. ) ;
#432 = EDGE_LOOP ( 'NONE', ( #396, #116, #278, #284 ) ) ;
#433 = CARTESIAN_POINT ( 'NONE',  ( 0.1788800000000000112, 0.000000000000000000, 0.03275000000000003603 ) ) ;
#434 = CC_DESIGN_PERSON_AND_ORGANIZATION_ASSIGNMENT ( #174, #167, ( #394 ) ) ;
#435 = ORIENTED_EDGE ( 'NONE', *, *, #31, .T. ) ;
#436 = DIRECTION ( 'NONE',  ( 0.000000000000000000, 0.000000000000000000, -1.000000000000000000 ) ) ;
#437 = CARTESIAN_POINT ( 'NONE',  ( -0.1720000000000000140, 2.106392494533447474E-17, -0.03274999999999996664 ) ) ;
#438 = LOCAL_TIME ( 8, 42, 9.000000000000000000, #308 ) ;
#439 = DIRECTION ( 'NONE',  ( 0.000000000000000000, 0.000000000000000000, 1.000000000000000000 ) ) ;
#440 = EDGE_CURVE ( 'NONE', #251, #182, #39, .T. ) ;
#441 = CARTESIAN_POINT ( 'NONE',  ( 0.000000000000000000, 0.000000000000000000, 0.03275000000000003603 ) ) ;
#442 = LINE ( 'NONE', #405, #45 ) ;
#443 = DIRECTION ( 'NONE',  ( 0.000000000000000000, 0.000000000000000000, 1.000000000000000000 ) ) ;
#444 = EDGE_CURVE ( 'NONE', #455, #238, #283, .T. ) ;
#445 = AXIS2_PLACEMENT_3D ( 'NONE', #323, #117, #331 ) ;
#446 = CALENDAR_DATE ( 2026, 30, 6 ) ;
#447 = CARTESIAN_POINT ( 'NONE',  ( 0.000000000000000000, 0.000000000000000000, 0.03275000000000003603 ) ) ;
#448 = CYLINDRICAL_SURFACE ( 'NONE', #250, 0.3440000000000000280 ) ;
#449 = DIRECTION ( 'NONE',  ( 1.000000000000000000, 0.000000000000000000, -0.000000000000000000 ) ) ;
#450 = DIRECTION ( 'NONE',  ( 1.000000000000000000, 0.000000000000000000, 0.000000000000000000 ) ) ;
#451 = ORIENTED_EDGE ( 'NONE', *, *, #181, .T. ) ;
#452 = PERSON_AND_ORGANIZATION ( #387, #395 ) ;
#453 = CIRCLE ( 'NONE', #109, 0.006880000000000009372 ) ;
#454 = ORIENTED_EDGE ( 'NONE', *, *, #128, .T. ) ;
#455 = VERTEX_POINT ( 'NONE', #433 ) ;
#456 = ADVANCED_FACE ( 'NONE', ( #338, #142 ), #340, .F. ) ;
#457 = VERTEX_POINT ( 'NONE', #267 ) ;
#458 = CIRCLE ( 'NONE', #61, 0.006880000000000009372 ) ;
#459 = APPROVAL ( #271, 'UNSPECIFIED' ) ;
#460 = ORIENTED_EDGE ( 'NONE', *, *, #273, .T. ) ;
ENDSEC;
END-ISO-10303-21;
