ISO-10303-21;
HEADER;
FILE_DESCRIPTION (( 'STEP AP203' ),
    '1' );
FILE_NAME ('91585A457_18-8 Stainless Steel Dowel Pin.STEP',
    '2026-01-07T20:45:59',
    ( 'McMaster Carr Supply' ),
    ( 'McMaster Carr Supply' ),
    'SwSTEP 2.0',
    'SolidWorks 2024',
    '' );
FILE_SCHEMA (( 'CONFIG_CONTROL_DESIGN' ));
ENDSEC;

DATA;
#1 = CC_DESIGN_SECURITY_CLASSIFICATION ( #95, ( #272 ) ) ;
#2 = LOCAL_TIME ( 14, 45, 59.00000000000000000, #137 ) ;
#3 = APPROVAL_ROLE ( '' ) ;
#4 = PERSON_AND_ORGANIZATION ( #217, #187 ) ;
#5 = APPROVAL_DATE_TIME ( #27, #190 ) ;
#6 = CIRCLE ( 'NONE', #107, 1.831192008768391943 ) ;
#7 = PRODUCT_DEFINITION_SHAPE ( 'NONE', 'NONE',  #64 ) ;
#8 = ADVANCED_FACE ( 'NONE', ( #70 ), #32, .T. ) ;
#9 = ORIENTED_EDGE ( 'NONE', *, *, #214, .F. ) ;
#10 = DIRECTION ( 'NONE',  ( 0.000000000000000000, 0.000000000000000000, -1.000000000000000000 ) ) ;
#11 = AXIS2_PLACEMENT_3D ( 'NONE', #37, #194, #191 ) ;
#12 = CYLINDRICAL_SURFACE ( 'NONE', #228, 1.999999999999998224 ) ;
#13 = APPROVAL ( #112, 'UNSPECIFIED' ) ;
#14 = CARTESIAN_POINT ( 'NONE',  ( -9.370000000000004547, 0.000000000000000000, 0.000000000000000000 ) ) ;
#15 = DIRECTION ( 'NONE',  ( 0.000000000000000000, 0.000000000000000000, -1.000000000000000000 ) ) ;
#16 = DIRECTION ( 'NONE',  ( -1.000000000000000000, 0.000000000000000000, 0.000000000000000000 ) ) ;
#17 = CC_DESIGN_PERSON_AND_ORGANIZATION_ASSIGNMENT ( #19, #102, ( #64 ) ) ;
#18 = APPROVAL_PERSON_ORGANIZATION ( #4, #13, #117 ) ;
#19 = PERSON_AND_ORGANIZATION ( #217, #187 ) ;
#20 = DIRECTION ( 'NONE',  ( 0.000000000000000000, 0.000000000000000000, -1.000000000000000000 ) ) ;
#21 = CARTESIAN_POINT ( 'NONE',  ( 10.00000000000000178, 0.000000000000000000, -1.831192008768391943 ) ) ;
#22 = AXIS2_PLACEMENT_3D ( 'NONE', #231, #94, #121 ) ;
#23 = PERSON_AND_ORGANIZATION ( #217, #187 ) ;
#24 = COORDINATED_UNIVERSAL_TIME_OFFSET ( 6, 0, .BEHIND. ) ;
#25 = CIRCLE ( 'NONE', #238, 1.831192008768391943 ) ;
#26 = COORDINATED_UNIVERSAL_TIME_OFFSET ( 6, 0, .BEHIND. ) ;
#27 = DATE_AND_TIME ( #223, #2 ) ;
#28 = AXIS2_PLACEMENT_3D ( 'NONE', #128, #189, #270 ) ;
#29 = UNCERTAINTY_MEASURE_WITH_UNIT (LENGTH_MEASURE( 1.000000000000000082E-05 ), #82, 'distance_accuracy_value', 'NONE');
#30 = CARTESIAN_POINT ( 'NONE',  ( 10.00000000000000178, -2.345928515228563978E-16, 1.831192008768391943 ) ) ;
#31 = CONICAL_SURFACE ( 'NONE', #22, 1.999999999999998224, 0.2617993877991500740 ) ;
#32 = PLANE ( 'NONE',  #199 ) ;
#33 = CARTESIAN_POINT ( 'NONE',  ( 10.00000000000000178, 0.000000000000000000, 0.000000000000000000 ) ) ;
#34 = DIRECTION ( 'NONE',  ( -1.000000000000000000, -0.000000000000000000, -0.000000000000000000 ) ) ;
#35 = ORIENTED_EDGE ( 'NONE', *, *, #247, .T. ) ;
#36 = AXIS2_PLACEMENT_3D ( 'NONE', #267, #97, #165 ) ;
#37 = CARTESIAN_POINT ( 'NONE',  ( 9.370000000000006324, 0.000000000000000000, 0.000000000000000000 ) ) ;
#38 = APPLICATION_CONTEXT ( 'configuration controlled 3d designs of mechanical parts and assemblies' ) ;
#39 = CIRCLE ( 'NONE', #28, 1.831192008768391943 ) ;
#40 = CARTESIAN_POINT ( 'NONE',  ( -10.00000000000000000, -2.345928515228563978E-16, -1.831192008768391943 ) ) ;
#41 = PERSON_AND_ORGANIZATION ( #217, #187 ) ;
#42 = CIRCLE ( 'NONE', #246, 1.999999999999998224 ) ;
#43 = CALENDAR_DATE ( 2026, 7, 1 ) ;
#44 = CC_DESIGN_APPROVAL ( #13, ( #272 ) ) ;
#45 = ADVANCED_FACE ( 'NONE', ( #185 ), #53, .T. ) ;
#46 = CARTESIAN_POINT ( 'NONE',  ( -10.00000000000000000, 0.000000000000000000, 1.831192008768391943 ) ) ;
#47 = DIRECTION ( 'NONE',  ( 1.000000000000000000, 0.000000000000000000, 0.000000000000000000 ) ) ;
#48 = ORIENTED_EDGE ( 'NONE', *, *, #195, .F. ) ;
#49 = VECTOR ( 'NONE', #242, 1000.000000000000000 ) ;
#50 = CARTESIAN_POINT ( 'NONE',  ( -9.370000000000004547, 0.000000000000000000, 1.999999999999998224 ) ) ;
#51 = ADVANCED_FACE ( 'NONE', ( #211 ), #181, .T. ) ;
#52 = EDGE_LOOP ( 'NONE', ( #111, #72, #220, #139 ) ) ;
#53 = CYLINDRICAL_SURFACE ( 'NONE', #218, 1.999999999999998224 ) ;
#54 = DIRECTION ( 'NONE',  ( 0.9659258262890680902, -3.169619151431772337E-17, -0.2588190451025213501 ) ) ;
#55 = VECTOR ( 'NONE', #152, 1000.000000000000000 ) ;
#56 = CALENDAR_DATE ( 2026, 7, 1 ) ;
#57 = CARTESIAN_POINT ( 'NONE',  ( -9.370000000000004547, 0.000000000000000000, 0.000000000000000000 ) ) ;
#58 = ORIENTED_EDGE ( 'NONE', *, *, #237, .T. ) ;
#59 = AXIS2_PLACEMENT_3D ( 'NONE', #174, #255, #252 ) ;
#60 = DIRECTION ( 'NONE',  ( 1.000000000000000000, 0.000000000000000000, 0.000000000000000000 ) ) ;
#61 = DATE_TIME_ROLE ( 'classification_date' ) ;
#62 = ORIENTED_EDGE ( 'NONE', *, *, #92, .T. ) ;
#63 = DATE_AND_TIME ( #169, #140 ) ;
#64 = PRODUCT_DEFINITION ( 'UNKNOWN', '', #272, #68 ) ;
#65 = VECTOR ( 'NONE', #148, 1000.000000000000000 ) ;
#66 = EDGE_CURVE ( 'NONE', #98, #254, #183, .T. ) ;
#67 = AXIS2_PLACEMENT_3D ( 'NONE', #188, #79, #168 ) ;
#68 = DESIGN_CONTEXT ( 'detailed design', #258, 'design' ) ;
#69 = DIRECTION ( 'NONE',  ( 0.000000000000000000, 0.000000000000000000, -1.000000000000000000 ) ) ;
#70 = FACE_OUTER_BOUND ( 'NONE', #172, .T. ) ;
#71 = ORIENTED_EDGE ( 'NONE', *, *, #66, .F. ) ;
#72 = ORIENTED_EDGE ( 'NONE', *, *, #240, .T. ) ;
#73 = CC_DESIGN_PERSON_AND_ORGANIZATION_ASSIGNMENT ( #200, #222, ( #272 ) ) ;
#74 = CC_DESIGN_PERSON_AND_ORGANIZATION_ASSIGNMENT ( #177, #201, ( #272 ) ) ;
#75 = APPROVAL ( #219, 'UNSPECIFIED' ) ;
#76 =( GEOMETRIC_REPRESENTATION_CONTEXT ( 3 ) GLOBAL_UNCERTAINTY_ASSIGNED_CONTEXT ( ( #29 ) ) GLOBAL_UNIT_ASSIGNED_CONTEXT ( ( #82, #129, #156 ) ) REPRESENTATION_CONTEXT ( 'NONE', 'WORKASPACE' ) );
#77 = DIRECTION ( 'NONE',  ( 0.000000000000000000, 0.000000000000000000, 1.000000000000000000 ) ) ;
#78 = VERTEX_POINT ( 'NONE', #269 ) ;
#79 = DIRECTION ( 'NONE',  ( 1.000000000000000000, 0.000000000000000000, 0.000000000000000000 ) ) ;
#80 = COORDINATED_UNIVERSAL_TIME_OFFSET ( 6, 0, .BEHIND. ) ;
#81 = APPROVAL_ROLE ( '' ) ;
#82 =( LENGTH_UNIT ( ) NAMED_UNIT ( * ) SI_UNIT ( .MILLI., .METRE. ) );
#83 = EDGE_CURVE ( 'NONE', #141, #98, #245, .T. ) ;
#84 = ORIENTED_EDGE ( 'NONE', *, *, #195, .T. ) ;
#85 = DIRECTION ( 'NONE',  ( -0.9659258262890680902, -3.169619151431772337E-17, 0.2588190451025213501 ) ) ;
#86 = APPROVAL_DATE_TIME ( #110, #75 ) ;
#87 = COORDINATED_UNIVERSAL_TIME_OFFSET ( 6, 0, .BEHIND. ) ;
#88 = APPROVAL_DATE_TIME ( #239, #13 ) ;
#89 = EDGE_CURVE ( 'NONE', #254, #163, #147, .T. ) ;
#90 = ORIENTED_EDGE ( 'NONE', *, *, #214, .T. ) ;
#91 = PERSON_AND_ORGANIZATION ( #217, #187 ) ;
#92 = EDGE_CURVE ( 'NONE', #248, #163, #229, .T. ) ;
#93 = EDGE_CURVE ( 'NONE', #78, #163, #192, .T. ) ;
#94 = DIRECTION ( 'NONE',  ( 1.000000000000000000, -0.000000000000000000, -0.000000000000000000 ) ) ;
#95 = SECURITY_CLASSIFICATION ( '', '', #179 ) ;
#96 = DIRECTION ( 'NONE',  ( -1.000000000000000000, -0.000000000000000000, -0.000000000000000000 ) ) ;
#97 = DIRECTION ( 'NONE',  ( -1.000000000000000000, 0.000000000000000000, 0.000000000000000000 ) ) ;
#98 = VERTEX_POINT ( 'NONE', #184 ) ;
#99 = APPROVAL_PERSON_ORGANIZATION ( #131, #75, #81 ) ;
#100 = FACE_OUTER_BOUND ( 'NONE', #273, .T. ) ;
#101 = ORIENTED_EDGE ( 'NONE', *, *, #109, .T. ) ;
#102 = PERSON_AND_ORGANIZATION_ROLE ( 'creator' ) ;
#103 = ORIENTED_EDGE ( 'NONE', *, *, #89, .F. ) ;
#104 = CARTESIAN_POINT ( 'NONE',  ( -9.370000000000004547, 2.449293598294704442E-16, 1.999999999999998224 ) ) ;
#105 = EDGE_LOOP ( 'NONE', ( #71, #58, #205, #103 ) ) ;
#106 = CARTESIAN_POINT ( 'NONE',  ( 10.00000000000000178, 0.000000000000000000, 0.000000000000000000 ) ) ;
#107 = AXIS2_PLACEMENT_3D ( 'NONE', #33, #47, #15 ) ;
#108 = CARTESIAN_POINT ( 'NONE',  ( -9.370000000000004547, 0.000000000000000000, 0.000000000000000000 ) ) ;
#109 = EDGE_CURVE ( 'NONE', #161, #248, #6, .T. ) ;
#110 = DATE_AND_TIME ( #56, #256 ) ;
#111 = ORIENTED_EDGE ( 'NONE', *, *, #109, .F. ) ;
#112 = APPROVAL_STATUS ( 'not_yet_approved' ) ;
#113 = VECTOR ( 'NONE', #54, 1000.000000000000000 ) ;
#114 = PERSON_AND_ORGANIZATION_ROLE ( 'classification_officer' ) ;
#115 = EDGE_LOOP ( 'NONE', ( #48, #264, #119, #153 ) ) ;
#116 = ADVANCED_FACE ( 'NONE', ( #144 ), #118, .T. ) ;
#117 = APPROVAL_ROLE ( '' ) ;
#118 = CONICAL_SURFACE ( 'NONE', #235, 1.999999999999998224, 0.2617993877991500740 ) ;
#119 = ORIENTED_EDGE ( 'NONE', *, *, #83, .T. ) ;
#120 = CARTESIAN_POINT ( 'NONE',  ( 9.370000000000006324, 0.000000000000000000, -1.999999999999998224 ) ) ;
#121 = DIRECTION ( 'NONE',  ( 0.000000000000000000, 0.000000000000000000, 1.000000000000000000 ) ) ;
#122 = CARTESIAN_POINT ( 'NONE',  ( 9.370000000000006324, 0.000000000000000000, 0.000000000000000000 ) ) ;
#123 = CARTESIAN_POINT ( 'NONE',  ( -10.00000000000000000, 0.000000000000000000, 0.000000000000000000 ) ) ;
#124 = CC_DESIGN_APPROVAL ( #190, ( #95 ) ) ;
#125 = DIRECTION ( 'NONE',  ( 1.000000000000000000, 0.000000000000000000, 0.000000000000000000 ) ) ;
#126 = CARTESIAN_POINT ( 'NONE',  ( -9.370000000000004547, 0.000000000000000000, -1.999999999999998224 ) ) ;
#127 = ORIENTED_EDGE ( 'NONE', *, *, #93, .F. ) ;
#128 = CARTESIAN_POINT ( 'NONE',  ( -10.00000000000000000, 0.000000000000000000, 0.000000000000000000 ) ) ;
#129 =( NAMED_UNIT ( * ) PLANE_ANGLE_UNIT ( ) SI_UNIT ( $, .RADIAN. ) );
#130 = AXIS2_PLACEMENT_3D ( 'NONE', #243, #96, #249 ) ;
#131 = PERSON_AND_ORGANIZATION ( #217, #187 ) ;
#132 = ADVANCED_BREP_SHAPE_REPRESENTATION ( '91585A457_18-8 Stainless Steel Dowel Pin', ( #136, #59 ), #76 ) ;
#133 = CALENDAR_DATE ( 2026, 7, 1 ) ;
#134 = CIRCLE ( 'NONE', #146, 1.831192008768391943 ) ;
#135 = EDGE_CURVE ( 'NONE', #141, #203, #25, .T. ) ;
#136 = MANIFOLD_SOLID_BREP ( 'Extrude3', #158 ) ;
#137 = COORDINATED_UNIVERSAL_TIME_OFFSET ( 6, 0, .BEHIND. ) ;
#138 = CC_DESIGN_PERSON_AND_ORGANIZATION_ASSIGNMENT ( #91, #114, ( #95 ) ) ;
#139 = ORIENTED_EDGE ( 'NONE', *, *, #92, .F. ) ;
#140 = LOCAL_TIME ( 14, 45, 59.00000000000000000, #80 ) ;
#141 = VERTEX_POINT ( 'NONE', #46 ) ;
#142 = DIRECTION ( 'NONE',  ( 1.000000000000000000, -0.000000000000000000, -0.000000000000000000 ) ) ;
#143 = ORIENTED_EDGE ( 'NONE', *, *, #197, .T. ) ;
#144 = FACE_OUTER_BOUND ( 'NONE', #52, .T. ) ;
#145 = ADVANCED_FACE ( 'NONE', ( #100 ), #227, .T. ) ;
#146 = AXIS2_PLACEMENT_3D ( 'NONE', #106, #60, #253 ) ;
#147 = LINE ( 'NONE', #230, #166 ) ;
#148 = DIRECTION ( 'NONE',  ( 0.9659258262890680902, 0.000000000000000000, 0.2588190451025213501 ) ) ;
#149 = FACE_OUTER_BOUND ( 'NONE', #115, .T. ) ;
#150 = ADVANCED_FACE ( 'NONE', ( #149 ), #31, .T. ) ;
#151 = AXIS2_PLACEMENT_3D ( 'NONE', #122, #250, #164 ) ;
#152 = DIRECTION ( 'NONE',  ( 1.000000000000000000, 0.000000000000000000, 0.000000000000000000 ) ) ;
#153 = ORIENTED_EDGE ( 'NONE', *, *, #66, .T. ) ;
#154 = PRODUCT_RELATED_PRODUCT_CATEGORY ( 'detail', '', ( #204 ) ) ;
#155 = ADVANCED_FACE ( 'NONE', ( #208 ), #232, .T. ) ;
#156 =( NAMED_UNIT ( * ) SI_UNIT ( $, .STERADIAN. ) SOLID_ANGLE_UNIT ( ) );
#157 = PERSON_AND_ORGANIZATION_ROLE ( 'design_owner' ) ;
#158 = CLOSED_SHELL ( 'NONE', ( #155, #116, #45, #173, #51, #145, #150, #8 ) ) ;
#159 = DATE_AND_TIME ( #133, #212 ) ;
#160 = CC_DESIGN_APPROVAL ( #75, ( #64 ) ) ;
#161 = VERTEX_POINT ( 'NONE', #30 ) ;
#162 = DIRECTION ( 'NONE',  ( 1.000000000000000000, 0.000000000000000000, 0.000000000000000000 ) ) ;
#163 = VERTEX_POINT ( 'NONE', #120 ) ;
#164 = DIRECTION ( 'NONE',  ( 0.000000000000000000, 0.000000000000000000, -1.000000000000000000 ) ) ;
#165 = DIRECTION ( 'NONE',  ( 0.000000000000000000, 0.000000000000000000, 1.000000000000000000 ) ) ;
#166 = VECTOR ( 'NONE', #162, 1000.000000000000000 ) ;
#167 = CARTESIAN_POINT ( 'NONE',  ( -10.00000000000000000, 0.000000000000000000, 0.000000000000000000 ) ) ;
#168 = DIRECTION ( 'NONE',  ( 0.000000000000000000, 0.000000000000000000, -1.000000000000000000 ) ) ;
#169 = CALENDAR_DATE ( 2026, 7, 1 ) ;
#170 = ORIENTED_EDGE ( 'NONE', *, *, #237, .F. ) ;
#171 = DIRECTION ( 'NONE',  ( 1.000000000000000000, 0.000000000000000000, 0.000000000000000000 ) ) ;
#172 = EDGE_LOOP ( 'NONE', ( #263, #35 ) ) ;
#173 = ADVANCED_FACE ( 'NONE', ( #207 ), #12, .T. ) ;
#174 = CARTESIAN_POINT ( 'NONE',  ( 0.000000000000000000, 0.000000000000000000, 0.000000000000000000 ) ) ;
#175 = EDGE_LOOP ( 'NONE', ( #170, #9, #244, #127 ) ) ;
#176 = DIRECTION ( 'NONE',  ( 0.000000000000000000, 0.000000000000000000, 1.000000000000000000 ) ) ;
#177 = PERSON_AND_ORGANIZATION ( #217, #187 ) ;
#178 = ORIENTED_EDGE ( 'NONE', *, *, #260, .T. ) ;
#179 = SECURITY_CLASSIFICATION_LEVEL ( 'unclassified' ) ;
#180 = SHAPE_DEFINITION_REPRESENTATION ( #7, #132 ) ;
#181 = CONICAL_SURFACE ( 'NONE', #130, 1.999999999999998224, 0.2617993877991500740 ) ;
#182 = CARTESIAN_POINT ( 'NONE',  ( -9.370000000000004547, 0.000000000000000000, 0.000000000000000000 ) ) ;
#183 = CIRCLE ( 'NONE', #36, 1.999999999999998224 ) ;
#184 = CARTESIAN_POINT ( 'NONE',  ( -9.370000000000004547, 2.449293598294704442E-16, 1.999999999999998224 ) ) ;
#185 = FACE_OUTER_BOUND ( 'NONE', #105, .T. ) ;
#186 = CARTESIAN_POINT ( 'NONE',  ( 9.370000000000006324, 0.000000000000000000, -1.999999999999998224 ) ) ;
#187 = ORGANIZATION ( 'UNSPECIFIED', 'UNSPECIFIED', '' ) ;
#188 = CARTESIAN_POINT ( 'NONE',  ( 10.00000000000000178, 0.000000000000000000, 0.000000000000000000 ) ) ;
#189 = DIRECTION ( 'NONE',  ( -1.000000000000000000, 0.000000000000000000, 0.000000000000000000 ) ) ;
#190 = APPROVAL ( #202, 'UNSPECIFIED' ) ;
#191 = DIRECTION ( 'NONE',  ( 0.000000000000000000, 0.000000000000000000, -1.000000000000000000 ) ) ;
#192 = CIRCLE ( 'NONE', #151, 1.999999999999998224 ) ;
#193 = ORIENTED_EDGE ( 'NONE', *, *, #240, .F. ) ;
#194 = DIRECTION ( 'NONE',  ( 1.000000000000000000, 0.000000000000000000, 0.000000000000000000 ) ) ;
#195 = EDGE_CURVE ( 'NONE', #203, #254, #216, .T. ) ;
#196 = CARTESIAN_POINT ( 'NONE',  ( -9.370000000000004547, -2.449293598294704442E-16, -1.999999999999998224 ) ) ;
#197 = EDGE_CURVE ( 'NONE', #248, #161, #134, .T. ) ;
#198 = LINE ( 'NONE', #215, #262 ) ;
#199 = AXIS2_PLACEMENT_3D ( 'NONE', #167, #266, #209 ) ;
#200 = PERSON_AND_ORGANIZATION ( #217, #187 ) ;
#201 = PERSON_AND_ORGANIZATION_ROLE ( 'design_supplier' ) ;
#202 = APPROVAL_STATUS ( 'not_yet_approved' ) ;
#203 = VERTEX_POINT ( 'NONE', #40 ) ;
#204 = PRODUCT ( '91585A457_18-8 Stainless Steel Dowel Pin', '91585A457_18-8 Stainless Steel Dowel Pin', '', ( #234 ) ) ;
#205 = ORIENTED_EDGE ( 'NONE', *, *, #260, .F. ) ;
#206 = CC_DESIGN_DATE_AND_TIME_ASSIGNMENT ( #63, #257, ( #64 ) ) ;
#207 = FACE_OUTER_BOUND ( 'NONE', #175, .T. ) ;
#208 = FACE_OUTER_BOUND ( 'NONE', #251, .T. ) ;
#209 = DIRECTION ( 'NONE',  ( 0.000000000000000000, 0.000000000000000000, 1.000000000000000000 ) ) ;
#210 = ORIENTED_EDGE ( 'NONE', *, *, #83, .F. ) ;
#211 = FACE_OUTER_BOUND ( 'NONE', #271, .T. ) ;
#212 = LOCAL_TIME ( 14, 45, 59.00000000000000000, #26 ) ;
#213 = APPLICATION_PROTOCOL_DEFINITION ( 'international standard', 'config_control_design', 1994, #38 ) ;
#214 = EDGE_CURVE ( 'NONE', #254, #98, #42, .T. ) ;
#215 = CARTESIAN_POINT ( 'NONE',  ( 9.370000000000006324, -2.449293598294704442E-16, 1.999999999999998224 ) ) ;
#216 = LINE ( 'NONE', #196, #113 ) ;
#217 = PERSON ( 'UNSPECIFIED', 'UNSPECIFIED', 'UNSPECIFIED', ('UNSPECIFIED'), ('UNSPECIFIED'), ('UNSPECIFIED') ) ;
#218 = AXIS2_PLACEMENT_3D ( 'NONE', #14, #125, #69 ) ;
#219 = APPROVAL_STATUS ( 'not_yet_approved' ) ;
#220 = ORIENTED_EDGE ( 'NONE', *, *, #93, .T. ) ;
#221 = LOCAL_TIME ( 14, 45, 59.00000000000000000, #87 ) ;
#222 = PERSON_AND_ORGANIZATION_ROLE ( 'creator' ) ;
#223 = CALENDAR_DATE ( 2026, 7, 1 ) ;
#224 = CIRCLE ( 'NONE', #11, 1.999999999999998224 ) ;
#225 = ORIENTED_EDGE ( 'NONE', *, *, #197, .F. ) ;
#226 = DIRECTION ( 'NONE',  ( 0.000000000000000000, 0.000000000000000000, 1.000000000000000000 ) ) ;
#227 = PLANE ( 'NONE',  #67 ) ;
#228 = AXIS2_PLACEMENT_3D ( 'NONE', #57, #171, #20 ) ;
#229 = LINE ( 'NONE', #186, #49 ) ;
#230 = CARTESIAN_POINT ( 'NONE',  ( -9.370000000000004547, 0.000000000000000000, -1.999999999999998224 ) ) ;
#231 = CARTESIAN_POINT ( 'NONE',  ( -9.370000000000004547, 0.000000000000000000, 0.000000000000000000 ) ) ;
#232 = CONICAL_SURFACE ( 'NONE', #259, 1.999999999999998224, 0.2617993877991500740 ) ;
#233 = LINE ( 'NONE', #104, #55 ) ;
#234 = MECHANICAL_CONTEXT ( 'NONE', #38, 'mechanical' ) ;
#235 = AXIS2_PLACEMENT_3D ( 'NONE', #268, #34, #10 ) ;
#236 = APPLICATION_PROTOCOL_DEFINITION ( 'international standard', 'config_control_design', 1994, #258 ) ;
#237 = EDGE_CURVE ( 'NONE', #98, #78, #233, .T. ) ;
#238 = AXIS2_PLACEMENT_3D ( 'NONE', #123, #16, #77 ) ;
#239 = DATE_AND_TIME ( #43, #221 ) ;
#240 = EDGE_CURVE ( 'NONE', #161, #78, #198, .T. ) ;
#241 = APPROVAL_PERSON_ORGANIZATION ( #41, #190, #3 ) ;
#242 = DIRECTION ( 'NONE',  ( -0.9659258262890680902, 0.000000000000000000, -0.2588190451025213501 ) ) ;
#243 = CARTESIAN_POINT ( 'NONE',  ( 9.370000000000006324, 0.000000000000000000, 0.000000000000000000 ) ) ;
#244 = ORIENTED_EDGE ( 'NONE', *, *, #89, .T. ) ;
#245 = LINE ( 'NONE', #50, #65 ) ;
#246 = AXIS2_PLACEMENT_3D ( 'NONE', #108, #275, #176 ) ;
#247 = EDGE_CURVE ( 'NONE', #203, #141, #39, .T. ) ;
#248 = VERTEX_POINT ( 'NONE', #21 ) ;
#249 = DIRECTION ( 'NONE',  ( 0.000000000000000000, 0.000000000000000000, -1.000000000000000000 ) ) ;
#250 = DIRECTION ( 'NONE',  ( 1.000000000000000000, 0.000000000000000000, 0.000000000000000000 ) ) ;
#251 = EDGE_LOOP ( 'NONE', ( #274, #84, #90, #210 ) ) ;
#252 = DIRECTION ( 'NONE',  ( 1.000000000000000000, 0.000000000000000000, 0.000000000000000000 ) ) ;
#253 = DIRECTION ( 'NONE',  ( 0.000000000000000000, 0.000000000000000000, -1.000000000000000000 ) ) ;
#254 = VERTEX_POINT ( 'NONE', #126 ) ;
#255 = DIRECTION ( 'NONE',  ( 0.000000000000000000, 0.000000000000000000, 1.000000000000000000 ) ) ;
#256 = LOCAL_TIME ( 14, 45, 59.00000000000000000, #24 ) ;
#257 = DATE_TIME_ROLE ( 'creation_date' ) ;
#258 = APPLICATION_CONTEXT ( 'configuration controlled 3d designs of mechanical parts and assemblies' ) ;
#259 = AXIS2_PLACEMENT_3D ( 'NONE', #182, #142, #226 ) ;
#260 = EDGE_CURVE ( 'NONE', #163, #78, #224, .T. ) ;
#261 = CC_DESIGN_PERSON_AND_ORGANIZATION_ASSIGNMENT ( #23, #157, ( #204 ) ) ;
#262 = VECTOR ( 'NONE', #85, 1000.000000000000000 ) ;
#263 = ORIENTED_EDGE ( 'NONE', *, *, #135, .T. ) ;
#264 = ORIENTED_EDGE ( 'NONE', *, *, #135, .F. ) ;
#265 = CC_DESIGN_DATE_AND_TIME_ASSIGNMENT ( #159, #61, ( #95 ) ) ;
#266 = DIRECTION ( 'NONE',  ( -1.000000000000000000, 0.000000000000000000, 0.000000000000000000 ) ) ;
#267 = CARTESIAN_POINT ( 'NONE',  ( -9.370000000000004547, 0.000000000000000000, 0.000000000000000000 ) ) ;
#268 = CARTESIAN_POINT ( 'NONE',  ( 9.370000000000006324, 0.000000000000000000, 0.000000000000000000 ) ) ;
#269 = CARTESIAN_POINT ( 'NONE',  ( 9.370000000000006324, 2.449293598294704442E-16, 1.999999999999998224 ) ) ;
#270 = DIRECTION ( 'NONE',  ( 0.000000000000000000, 0.000000000000000000, 1.000000000000000000 ) ) ;
#271 = EDGE_LOOP ( 'NONE', ( #193, #225, #62, #178 ) ) ;
#272 = PRODUCT_DEFINITION_FORMATION_WITH_SPECIFIED_SOURCE ( 'ANY', '', #204, .NOT_KNOWN. ) ;
#273 = EDGE_LOOP ( 'NONE', ( #143, #101 ) ) ;
#274 = ORIENTED_EDGE ( 'NONE', *, *, #247, .F. ) ;
#275 = DIRECTION ( 'NONE',  ( -1.000000000000000000, 0.000000000000000000, 0.000000000000000000 ) ) ;
ENDSEC;
END-ISO-10303-21;
