ISO-10303-21;
HEADER;
FILE_DESCRIPTION (( 'STEP AP203' ),
    '1' );
FILE_NAME ('92290A265_NO THREADS_Super-Corrosion-Resistant 316 Stainless Steel Socket Head Screw.STEP',
    '2026-01-08T20:15:12',
    ( 'McMaster Carr Supply' ),
    ( 'McMaster Carr Supply' ),
    'SwSTEP 2.0',
    'SolidWorks 2024',
    '' );
FILE_SCHEMA (( 'CONFIG_CONTROL_DESIGN' ));
ENDSEC;

DATA;
#1 = CARTESIAN_POINT ( 'NONE',  ( 2.000000000000000000, -1.154700538379251684, 24.50000000000000355 ) ) ;
#2 = DIRECTION ( 'NONE',  ( -0.8660254037844388186, 0.4999999999999995559, 0.000000000000000000 ) ) ;
#3 = FACE_OUTER_BOUND ( 'NONE', #171, .T. ) ;
#4 = CARTESIAN_POINT ( 'NONE',  ( -1.999999999999999556, -1.154700538379252350, 24.50000000000000355 ) ) ;
#5 = DIRECTION ( 'NONE',  ( -0.4999999999999997224, -0.8660254037844388186, 0.000000000000000000 ) ) ;
#6 = DIRECTION ( 'NONE',  ( 0.000000000000000000, 0.000000000000000000, 1.000000000000000000 ) ) ;
#7 = EDGE_CURVE ( 'NONE', #776, #144, #317, .T. ) ;
#8 = CIRCLE ( 'NONE', #84, 4.249999999999996447 ) ;
#9 = AXIS2_PLACEMENT_3D ( 'NONE', #119, #478, #718 ) ;
#10 = DATE_TIME_ROLE ( 'classification_date' ) ;
#11 = CARTESIAN_POINT ( 'NONE',  ( -1.999999999999999112, -1.154700538379255681, 27.50000000000000355 ) ) ;
#12 = ORIENTED_EDGE ( 'NONE', *, *, #707, .F. ) ;
#13 = APPROVAL_ROLE ( '' ) ;
#14 = CYLINDRICAL_SURFACE ( 'NONE', #268, 2.499999999999996891 ) ;
#15 = ORIENTED_EDGE ( 'NONE', *, *, #550, .T. ) ;
#16 = APPROVAL_DATE_TIME ( #264, #624 ) ;
#17 = ADVANCED_FACE ( 'NONE', ( #3 ), #511, .F. ) ;
#18 = DIRECTION ( 'NONE',  ( 0.000000000000000000, 0.000000000000000000, 1.000000000000000000 ) ) ;
#19 = ORIENTED_EDGE ( 'NONE', *, *, #515, .T. ) ;
#20 = CONICAL_SURFACE ( 'NONE', #457, 2.309401076758503368, 1.047197551196600074 ) ;
#21 = VERTEX_POINT ( 'NONE', #242 ) ;
#22 = AXIS2_PLACEMENT_3D ( 'NONE', #193, #142, #313 ) ;
#23 = AXIS2_PLACEMENT_3D ( 'NONE', #245, #481, #774 ) ;
#24 = LINE ( 'NONE', #503, #31 ) ;
#25 = ORIENTED_EDGE ( 'NONE', *, *, #27, .F. ) ;
#26 = CARTESIAN_POINT ( 'NONE',  ( -4.037499999999981881, -4.636053539022200025E-15, 22.50000000000000000 ) ) ;
#27 = EDGE_CURVE ( 'NONE', #648, #680, #266, .T. ) ;
#28 = ORIENTED_EDGE ( 'NONE', *, *, #573, .T. ) ;
#29 = EDGE_CURVE ( 'NONE', #21, #724, #652, .T. ) ;
#30 = DIRECTION ( 'NONE',  ( -0.000000000000000000, -0.000000000000000000, -1.000000000000000000 ) ) ;
#31 = VECTOR ( 'NONE', #562, 1000.000000000000114 ) ;
#32 = CARTESIAN_POINT ( 'NONE',  ( 1.899999999999993028, -5.143516556418882533E-15, -27.50000000000000000 ) ) ;
#33 = VECTOR ( 'NONE', #346, 1000.000000000000000 ) ;
#34 = PLANE ( 'NONE',  #729 ) ;
#35 = CC_DESIGN_APPROVAL ( #624, ( #747 ) ) ;
#36 = CARTESIAN_POINT ( 'NONE',  ( 2.499999999999997335, -4.837354856632045452E-15, 22.50000000000000355 ) ) ;
#37 = CARTESIAN_POINT ( 'NONE',  ( 0.000000000000000000, -2.805907722635941134E-15, 27.50000000000000355 ) ) ;
#38 = EDGE_LOOP ( 'NONE', ( #353, #232, #406 ) ) ;
#39 = CARTESIAN_POINT ( 'NONE',  ( 0.000000000000000000, -5.143516556418882533E-15, -27.50000000000000000 ) ) ;
#40 = EDGE_CURVE ( 'NONE', #695, #273, #312, .T. ) ;
#41 = DIRECTION ( 'NONE',  ( 1.000000000000000000, 0.000000000000000000, 0.000000000000000000 ) ) ;
#42 = ORIENTED_EDGE ( 'NONE', *, *, #634, .T. ) ;
#43 = DIRECTION ( 'NONE',  ( 1.000000000000000000, 0.000000000000000000, -0.000000000000000000 ) ) ;
#44 = CARTESIAN_POINT ( 'NONE',  ( 0.000000000000000000, -5.143516556418882533E-15, 27.07500000000001350 ) ) ;
#45 = ORIENTED_EDGE ( 'NONE', *, *, #186, .F. ) ;
#46 = AXIS2_PLACEMENT_3D ( 'NONE', #606, #189, #551 ) ;
#47 = AXIS2_PLACEMENT_3D ( 'NONE', #219, #451, #96 ) ;
#48 = CARTESIAN_POINT ( 'NONE',  ( 0.8318705521472827824, 1.829120389545344727, 27.32124300597936895 ) ) ;
#49 = CARTESIAN_POINT ( 'NONE',  ( -2.000000000000000000, 1.154700538379250130, 24.50000000000000355 ) ) ;
#50 = ORIENTED_EDGE ( 'NONE', *, *, #158, .T. ) ;
#51 = EDGE_CURVE ( 'NONE', #538, #376, #103, .T. ) ;
#52 = ADVANCED_FACE ( 'NONE', ( #746 ), #20, .F. ) ;
#53 = APPLICATION_PROTOCOL_DEFINITION ( 'international standard', 'config_control_design', 1994, #708 ) ;
#54 = CC_DESIGN_PERSON_AND_ORGANIZATION_ASSIGNMENT ( #666, #731, ( #747 ) ) ;
#55 = DIRECTION ( 'NONE',  ( -1.000000000000000000, 0.000000000000000000, 0.000000000000000000 ) ) ;
#56 = ORIENTED_EDGE ( 'NONE', *, *, #414, .F. ) ;
#57 = B_SPLINE_CURVE_WITH_KNOTS ( 'NONE', 3,
 ( #241, #420, #657, #366, #534, #594 ),
 .UNSPECIFIED., .F., .F.,
 ( 4, 2, 4 ),
 ( 0.003147490468270959952, 0.003731462685805886532, 0.004315434903340813547 ),
 .UNSPECIFIED. ) ;
#58 = FACE_OUTER_BOUND ( 'NONE', #556, .T. ) ;
#59 = FACE_OUTER_BOUND ( 'NONE', #476, .T. ) ;
#60 = ORIENTED_EDGE ( 'NONE', *, *, #380, .T. ) ;
#61 = VECTOR ( 'NONE', #104, 1000.000000000000000 ) ;
#62 = CONICAL_SURFACE ( 'NONE', #500, 4.249999999999996447, 0.7853981633974401744 ) ;
#63 = DIRECTION ( 'NONE',  ( 0.000000000000000000, 0.000000000000000000, 1.000000000000000000 ) ) ;
#64 = DIRECTION ( 'NONE',  ( 1.000000000000000000, 0.000000000000000000, 0.000000000000000000 ) ) ;
#65 = VERTEX_POINT ( 'NONE', #157 ) ;
#66 = DIRECTION ( 'NONE',  ( -1.000000000000000000, 0.000000000000000000, 0.000000000000000000 ) ) ;
#67 = CARTESIAN_POINT ( 'NONE',  ( 4.037499999999981881, -5.143516556418882533E-15, 22.50000000000000000 ) ) ;
#68 = LINE ( 'NONE', #651, #328 ) ;
#69 = DIRECTION ( 'NONE',  ( 1.000000000000000000, 0.000000000000000000, 0.000000000000000000 ) ) ;
#70 = DIRECTION ( 'NONE',  ( -1.000000000000000000, 0.000000000000000000, 0.000000000000000000 ) ) ;
#71 = CARTESIAN_POINT ( 'NONE',  ( -1.999999999999998668, 1.154700538379250796, 27.50000000000000355 ) ) ;
#72 = AXIS2_PLACEMENT_3D ( 'NONE', #93, #684, #672 ) ;
#73 = CONICAL_SURFACE ( 'NONE', #510, 4.037499999999985434, 0.7853981633974645993 ) ;
#74 = DATE_AND_TIME ( #298, #375 ) ;
#75 = LINE ( 'NONE', #602, #305 ) ;
#76 = ADVANCED_FACE ( 'NONE', ( #331 ), #283, .T. ) ;
#77 = VERTEX_POINT ( 'NONE', #442 ) ;
#78 = DATE_TIME_ROLE ( 'creation_date' ) ;
#79 = CARTESIAN_POINT ( 'NONE',  ( -1.999999999999999556, -0.7747317738535988152, 27.40034011840714001 ) ) ;
#80 = ORIENTED_EDGE ( 'NONE', *, *, #383, .T. ) ;
#81 = DIRECTION ( 'NONE',  ( 1.000000000000000000, 0.000000000000000000, 0.000000000000000000 ) ) ;
#82 = CARTESIAN_POINT ( 'NONE',  ( 0.3265611723794571986, -2.120860895978344374, 27.39114627587168727 ) ) ;
#83 = ORIENTED_EDGE ( 'NONE', *, *, #603, .F. ) ;
#84 = AXIS2_PLACEMENT_3D ( 'NONE', #196, #6, #66 ) ;
#85 = CC_DESIGN_APPROVAL ( #399, ( #94 ) ) ;
#86 = CARTESIAN_POINT ( 'NONE',  ( 1.671665528003487999, -1.344264534170671599, 27.40053673133941459 ) ) ;
#87 = ADVANCED_FACE ( 'NONE', ( #209 ), #240, .T. ) ;
#88 = ORIENTED_EDGE ( 'NONE', *, *, #272, .F. ) ;
#89 = CC_DESIGN_DATE_AND_TIME_ASSIGNMENT ( #544, #78, ( #94 ) ) ;
#90 = DIRECTION ( 'NONE',  ( -0.000000000000000000, -0.000000000000000000, 1.000000000000000000 ) ) ;
#91 = ORIENTED_EDGE ( 'NONE', *, *, #563, .T. ) ;
#92 = LINE ( 'NONE', #625, #216 ) ;
#93 = CARTESIAN_POINT ( 'NONE',  ( 0.000000000000000000, -5.143516556418882533E-15, 22.50000000000000355 ) ) ;
#94 = PRODUCT_DEFINITION ( 'UNKNOWN', '', #747, #106 ) ;
#95 = AXIS2_PLACEMENT_3D ( 'NONE', #412, #475, #303 ) ;
#96 = DIRECTION ( 'NONE',  ( -1.000000000000000000, 0.000000000000000000, 0.000000000000000000 ) ) ;
#97 = AXIS2_PLACEMENT_3D ( 'NONE', #311, #247, #251 ) ;
#98 = CARTESIAN_POINT ( 'NONE',  ( -0.6620079119860226013, -1.927190630567710894, 27.33829109969720861 ) ) ;
#99 = ADVANCED_FACE ( 'NONE', ( #151 ), #342, .F. ) ;
#100 = FACE_OUTER_BOUND ( 'NONE', #470, .T. ) ;
#101 = CARTESIAN_POINT ( 'NONE',  ( 0.000000000000000000, -5.143516556418882533E-15, 27.07500000000001350 ) ) ;
#102 = EDGE_LOOP ( 'NONE', ( #325, #28, #236, #564 ) ) ;
#103 = B_SPLINE_CURVE_WITH_KNOTS ( 'NONE', 3,
 ( #206, #280, #276, #622, #98, #450, #617, #626 ),
 .UNSPECIFIED., .F., .F.,
 ( 4, 2, 2, 4 ),
 ( 2.380749485096931716E-07, 0.001166425106128750984, 0.001749518621718871517, 0.002332612137308992268 ),
 .UNSPECIFIED. ) ;
#104 = DIRECTION ( 'NONE',  ( -0.000000000000000000, -0.000000000000000000, 1.000000000000000000 ) ) ;
#105 = LINE ( 'NONE', #49, #434 ) ;
#106 = DESIGN_CONTEXT ( 'detailed design', #708, 'design' ) ;
#107 = ORIENTED_EDGE ( 'NONE', *, *, #347, .T. ) ;
#108 = EDGE_CURVE ( 'NONE', #643, #669, #410, .T. ) ;
#109 = CARTESIAN_POINT ( 'NONE',  ( 2.000000000000000000, 1.154700538379249020, 27.50000000000000355 ) ) ;
#110 = CARTESIAN_POINT ( 'NONE',  ( -3.035766082959412415E-15, 2.309401076758500260, 27.50000000000000355 ) ) ;
#111 = ORIENTED_EDGE ( 'NONE', *, *, #563, .F. ) ;
#112 = AXIS2_PLACEMENT_3D ( 'NONE', #392, #154, #343 ) ;
#113 = ADVANCED_FACE ( 'NONE', ( #508 ), #34, .F. ) ;
#114 = CIRCLE ( 'NONE', #546, 2.309401076758503368 ) ;
#115 = ADVANCED_BREP_SHAPE_REPRESENTATION ( '92290A265_NO THREADS_Super-Corrosion-Resistant 316 Stainless Steel Socket Head Screw', ( #197, #23 ), #278 ) ;
#116 = DIRECTION ( 'NONE',  ( 0.8660254037844397068, 0.000000000000000000, 0.4999999999999979461 ) ) ;
#117 = EDGE_LOOP ( 'NONE', ( #238, #756 ) ) ;
#118 = EDGE_CURVE ( 'NONE', #144, #146, #452, .T. ) ;
#119 = CARTESIAN_POINT ( 'NONE',  ( 0.000000000000000000, 1.899999999999987921, -27.50000000000000000 ) ) ;
#120 = CARTESIAN_POINT ( 'NONE',  ( 0.000000000000000000, -5.143516556418882533E-15, 22.50000000000000355 ) ) ;
#121 = ORIENTED_EDGE ( 'NONE', *, *, #29, .T. ) ;
#122 = PERSON_AND_ORGANIZATION ( #269, #488 ) ;
#123 = DIRECTION ( 'NONE',  ( -0.8660254037844389297, 0.4999999999999995559, 0.000000000000000000 ) ) ;
#124 = VERTEX_POINT ( 'NONE', #274 ) ;
#125 = CARTESIAN_POINT ( 'NONE',  ( 2.000000000000000000, -2.805907727437362755E-15, 27.32136720504592375 ) ) ;
#126 = AXIS2_PLACEMENT_3D ( 'NONE', #405, #222, #462 ) ;
#127 = LOCAL_TIME ( 14, 15, 12.00000000000000000, #136 ) ;
#128 = EDGE_CURVE ( 'NONE', #376, #77, #486, .T. ) ;
#129 = DIRECTION ( 'NONE',  ( -0.000000000000000000, 0.000000000000000000, -1.000000000000000000 ) ) ;
#130 = DIRECTION ( 'NONE',  ( 0.000000000000000000, 0.000000000000000000, 1.000000000000000000 ) ) ;
#131 = DIRECTION ( 'NONE',  ( 1.000000000000000000, 0.000000000000000000, 0.000000000000000000 ) ) ;
#132 = DIRECTION ( 'NONE',  ( 1.000000000000000000, 0.000000000000000000, 0.000000000000000000 ) ) ;
#133 = FACE_OUTER_BOUND ( 'NONE', #184, .T. ) ;
#134 = UNCERTAINTY_MEASURE_WITH_UNIT (LENGTH_MEASURE( 1.000000000000000082E-05 ), #697, 'distance_accuracy_value', 'NONE');
#135 = ORIENTED_EDGE ( 'NONE', *, *, #347, .F. ) ;
#136 = COORDINATED_UNIVERSAL_TIME_OFFSET ( 6, 0, .BEHIND. ) ;
#137 = CARTESIAN_POINT ( 'NONE',  ( 0.000000000000000000, -5.143516556418882533E-15, 22.50000000000000000 ) ) ;
#138 = EDGE_CURVE ( 'NONE', #520, #124, #24, .T. ) ;
#139 = AXIS2_PLACEMENT_3D ( 'NONE', #137, #658, #372 ) ;
#140 = ORIENTED_EDGE ( 'NONE', *, *, #484, .F. ) ;
#141 = CALENDAR_DATE ( 2026, 8, 1 ) ;
#142 = DIRECTION ( 'NONE',  ( 0.000000000000000000, 0.000000000000000000, 1.000000000000000000 ) ) ;
#143 = ORIENTED_EDGE ( 'NONE', *, *, #623, .T. ) ;
#144 = VERTEX_POINT ( 'NONE', #26 ) ;
#145 = CARTESIAN_POINT ( 'NONE',  ( 2.000000000000000000, -1.154700538379251684, 24.50000000000000355 ) ) ;
#146 = VERTEX_POINT ( 'NONE', #737 ) ;
#147 = CARTESIAN_POINT ( 'NONE',  ( -4.037499999999985434, -4.649065411263141108E-15, 22.50000000000000355 ) ) ;
#148 = VERTEX_POINT ( 'NONE', #676 ) ;
#149 = AXIS2_PLACEMENT_3D ( 'NONE', #720, #18, #316 ) ;
#150 = EDGE_CURVE ( 'NONE', #273, #762, #246, .T. ) ;
#151 = FACE_OUTER_BOUND ( 'NONE', #691, .T. ) ;
#152 = EDGE_CURVE ( 'NONE', #669, #643, #773, .T. ) ;
#153 = ORIENTED_EDGE ( 'NONE', *, *, #484, .T. ) ;
#154 = DIRECTION ( 'NONE',  ( -0.000000000000000000, -0.000000000000000000, 1.000000000000000000 ) ) ;
#155 = CARTESIAN_POINT ( 'NONE',  ( 1.836516031997542209, -1.249088051313659076, 27.44550534399825636 ) ) ;
#156 = DIRECTION ( 'NONE',  ( 0.000000000000000000, 0.000000000000000000, 1.000000000000000000 ) ) ;
#157 = CARTESIAN_POINT ( 'NONE',  ( 2.309401076758503368, -2.805907722635941134E-15, 27.50000000000000355 ) ) ;
#158 = EDGE_CURVE ( 'NONE', #670, #204, #509, .T. ) ;
#159 = AXIS2_PLACEMENT_3D ( 'NONE', #432, #665, #81 ) ;
#160 = CARTESIAN_POINT ( 'NONE',  ( -2.499999999999997335, -5.143516556418882533E-15, 22.50000000000000355 ) ) ;
#161 = VECTOR ( 'NONE', #660, 1000.000000000000114 ) ;
#162 = FACE_OUTER_BOUND ( 'NONE', #734, .T. ) ;
#163 = LOCAL_TIME ( 14, 15, 12.00000000000000000, #256 ) ;
#164 = ORIENTED_EDGE ( 'NONE', *, *, #332, .F. ) ;
#165 = DIRECTION ( 'NONE',  ( -0.000000000000000000, -0.000000000000000000, -1.000000000000000000 ) ) ;
#166 = DIRECTION ( 'NONE',  ( -0.000000000000000000, -0.000000000000000000, 1.000000000000000000 ) ) ;
#167 = ORIENTED_EDGE ( 'NONE', *, *, #675, .F. ) ;
#168 = EDGE_CURVE ( 'NONE', #148, #21, #214, .T. ) ;
#169 = DIRECTION ( 'NONE',  ( -1.000000000000000000, 0.000000000000000000, 0.000000000000000000 ) ) ;
#170 = PLANE ( 'NONE',  #95 ) ;
#171 = EDGE_LOOP ( 'NONE', ( #413, #636 ) ) ;
#172 = FACE_OUTER_BOUND ( 'NONE', #38, .T. ) ;
#173 = AXIS2_PLACEMENT_3D ( 'NONE', #524, #231, #291 ) ;
#174 = DIRECTION ( 'NONE',  ( -0.5000000000000001110, 0.8660254037844385966, 0.000000000000000000 ) ) ;
#175 = EDGE_LOOP ( 'NONE', ( #646, #324, #687, #517, #444, #402, #56 ) ) ;
#176 = AXIS2_PLACEMENT_3D ( 'NONE', #344, #576, #286 ) ;
#177 = VECTOR ( 'NONE', #595, 1000.000000000000000 ) ;
#178 = CARTESIAN_POINT ( 'NONE',  ( 4.249999999999996447, -4.623041666781258154E-15, 22.71250000000000568 ) ) ;
#179 = CARTESIAN_POINT ( 'NONE',  ( -4.249999999999996447, -5.143516556418882533E-15, 27.07500000000001350 ) ) ;
#180 = ORIENTED_EDGE ( 'NONE', *, *, #118, .T. ) ;
#181 = B_SPLINE_CURVE_WITH_KNOTS ( 'NONE', 3,
 ( #109, #404, #407, #48, #627, #575, #294, #282 ),
 .UNSPECIFIED., .F., .F.,
 ( 4, 2, 2, 4 ),
 ( 2.380749485063396093E-07, 0.001166425106128747514, 0.001749518621718868265, 0.002332612137308987931 ),
 .UNSPECIFIED. ) ;
#182 = APPLICATION_PROTOCOL_DEFINITION ( 'international standard', 'config_control_design', 1994, #306 ) ;
#183 = CARTESIAN_POINT ( 'NONE',  ( 2.000000000000000444, -0.3888276056266736225, 27.33811100097360480 ) ) ;
#184 = EDGE_LOOP ( 'NONE', ( #504, #356 ) ) ;
#185 = EDGE_CURVE ( 'NONE', #287, #677, #637, .T. ) ;
#186 = EDGE_CURVE ( 'NONE', #148, #146, #589, .T. ) ;
#187 = DIRECTION ( 'NONE',  ( -0.000000000000000000, -0.000000000000000000, 1.000000000000000000 ) ) ;
#188 = CARTESIAN_POINT ( 'NONE',  ( 0.000000000000000000, -5.143516556418882533E-15, 27.50000000000000355 ) ) ;
#189 = DIRECTION ( 'NONE',  ( 0.000000000000000000, 0.000000000000000000, 1.000000000000000000 ) ) ;
#190 = LOCAL_TIME ( 14, 15, 12.00000000000000000, #726 ) ;
#191 = DIRECTION ( 'NONE',  ( -1.000000000000000000, 0.000000000000000000, 0.000000000000000000 ) ) ;
#192 = CARTESIAN_POINT ( 'NONE',  ( 6.071532165918824830E-15, -2.309401076758505589, 27.50000000000000355 ) ) ;
#193 = CARTESIAN_POINT ( 'NONE',  ( 0.000000000000000000, -2.805907722635941134E-15, 27.50000000000000355 ) ) ;
#194 = APPROVAL_ROLE ( '' ) ;
#195 = EDGE_CURVE ( 'NONE', #762, #538, #371, .T. ) ;
#196 = CARTESIAN_POINT ( 'NONE',  ( 0.000000000000000000, -5.143516556418882533E-15, 22.71250000000000568 ) ) ;
#197 = MANIFOLD_SOLID_BREP ( 'Chamfer2', #640 ) ;
#198 = ORIENTED_EDGE ( 'NONE', *, *, #138, .T. ) ;
#199 = COORDINATED_UNIVERSAL_TIME_OFFSET ( 6, 0, .BEHIND. ) ;
#200 = CARTESIAN_POINT ( 'NONE',  ( 0.000000000000000000, -5.143516556418882533E-15, -27.50000000000000000 ) ) ;
#201 = AXIS2_PLACEMENT_3D ( 'NONE', #44, #768, #41 ) ;
#202 = EDGE_LOOP ( 'NONE', ( #25, #259, #525, #765 ) ) ;
#203 = VECTOR ( 'NONE', #494, 999.9999999999998863 ) ;
#204 = VERTEX_POINT ( 'NONE', #635 ) ;
#205 = PERSON_AND_ORGANIZATION_ROLE ( 'design_supplier' ) ;
#206 = CARTESIAN_POINT ( 'NONE',  ( -1.999999999999999112, -1.154700538379255681, 27.50000000000000355 ) ) ;
#207 = ORIENTED_EDGE ( 'NONE', *, *, #456, .T. ) ;
#208 = ORIENTED_EDGE ( 'NONE', *, *, #118, .F. ) ;
#209 = FACE_OUTER_BOUND ( 'NONE', #223, .T. ) ;
#210 = ORIENTED_EDGE ( 'NONE', *, *, #255, .T. ) ;
#211 = EDGE_CURVE ( 'NONE', #620, #520, #105, .T. ) ;
#212 = CARTESIAN_POINT ( 'NONE',  ( -1.168129447852716218, 1.634981225592406995, 27.32124300597935829 ) ) ;
#213 = EDGE_LOOP ( 'NONE', ( #561, #229, #466, #263 ) ) ;
#214 = CIRCLE ( 'NONE', #201, 4.249999999999996447 ) ;
#215 = CONICAL_SURFACE ( 'NONE', #112, 2.309401076758503368, 1.047197551196600074 ) ;
#216 = VECTOR ( 'NONE', #567, 1000.000000000000000 ) ;
#217 = CARTESIAN_POINT ( 'NONE',  ( 3.825000000000012612, -4.649065411263138742E-15, 27.50000000000000355 ) ) ;
#218 = CARTESIAN_POINT ( 'NONE',  ( -1.999999999999998668, 1.154700538379250796, 27.50000000000000355 ) ) ;
#219 = CARTESIAN_POINT ( 'NONE',  ( 0.000000000000000000, -5.143516556418882533E-15, -27.50000000000000000 ) ) ;
#220 = DIRECTION ( 'NONE',  ( 1.000000000000000000, -0.000000000000000000, 0.000000000000000000 ) ) ;
#221 = CARTESIAN_POINT ( 'NONE',  ( -2.000000000000000000, 1.154700538379250130, 24.50000000000000355 ) ) ;
#222 = DIRECTION ( 'NONE',  ( -0.000000000000000000, -0.000000000000000000, 1.000000000000000000 ) ) ;
#223 = EDGE_LOOP ( 'NONE', ( #448, #385, #50, #362 ) ) ;
#224 = VECTOR ( 'NONE', #642, 1000.000000000000114 ) ;
#225 = CARTESIAN_POINT ( 'NONE',  ( 0.000000000000000000, -5.143516556418882533E-15, 22.50000000000000355 ) ) ;
#226 = AXIS2_PLACEMENT_3D ( 'NONE', #489, #727, #69 ) ;
#227 = DIRECTION ( 'NONE',  ( 1.000000000000000000, 0.000000000000000000, 0.000000000000000000 ) ) ;
#228 = APPROVAL_PERSON_ORGANIZATION ( #377, #624, #194 ) ;
#229 = ORIENTED_EDGE ( 'NONE', *, *, #108, .T. ) ;
#230 = CARTESIAN_POINT ( 'NONE',  ( 2.499999999999996891, -4.837354856632045452E-15, -27.50000000000000000 ) ) ;
#231 = DIRECTION ( 'NONE',  ( -0.000000000000000000, -0.000000000000000000, -1.000000000000000000 ) ) ;
#232 = ORIENTED_EDGE ( 'NONE', *, *, #272, .T. ) ;
#233 = CARTESIAN_POINT ( 'NONE',  ( -1.999999999999998668, 1.154700538379250796, 27.50000000000000355 ) ) ;
#234 = CARTESIAN_POINT ( 'NONE',  ( -4.249999999999996447, -5.143516556418882533E-15, -27.50000000000000000 ) ) ;
#235 = ADVANCED_FACE ( 'NONE', ( #59 ), #170, .F. ) ;
#236 = ORIENTED_EDGE ( 'NONE', *, *, #158, .F. ) ;
#237 = LINE ( 'NONE', #179, #224 ) ;
#238 = ORIENTED_EDGE ( 'NONE', *, *, #281, .T. ) ;
#239 = AXIS2_PLACEMENT_3D ( 'NONE', #454, #352, #528 ) ;
#240 = CONICAL_SURFACE ( 'NONE', #742, 1.899999999999993028, 0.7853981633974547183 ) ;
#241 = CARTESIAN_POINT ( 'NONE',  ( 2.000000000000000000, -2.805907727437362755E-15, 27.32136720504592375 ) ) ;
#242 = CARTESIAN_POINT ( 'NONE',  ( 4.249999999999996447, -4.623041666781258154E-15, 27.07500000000001350 ) ) ;
#243 = ADVANCED_FACE ( 'NONE', ( #162 ), #581, .F. ) ;
#244 = EDGE_CURVE ( 'NONE', #669, #670, #469, .T. ) ;
#245 = CARTESIAN_POINT ( 'NONE',  ( 0.000000000000000000, 0.000000000000000000, 0.000000000000000000 ) ) ;
#246 = B_SPLINE_CURVE_WITH_KNOTS ( 'NONE', 3,
 ( #505, #739, #393, #212, #447, #390, #337, #218 ),
 .UNSPECIFIED., .F., .F.,
 ( 4, 2, 2, 4 ),
 ( 2.380749485095487525E-07, 0.001166425106128746647, 0.001749518621718864795, 0.002332612137308983594 ),
 .UNSPECIFIED. ) ;
#247 = DIRECTION ( 'NONE',  ( 0.000000000000000000, 0.000000000000000000, 1.000000000000000000 ) ) ;
#248 = CARTESIAN_POINT ( 'NONE',  ( 4.249999999999996447, -4.623041666781258154E-15, -27.50000000000000000 ) ) ;
#249 = LINE ( 'NONE', #547, #424 ) ;
#250 = COORDINATED_UNIVERSAL_TIME_OFFSET ( 6, 0, .BEHIND. ) ;
#251 = DIRECTION ( 'NONE',  ( 1.000000000000000000, 0.000000000000000000, 0.000000000000000000 ) ) ;
#252 = CARTESIAN_POINT ( 'NONE',  ( 1.899999999999993028, -5.143516556418882533E-15, -27.50000000000000000 ) ) ;
#253 = CIRCLE ( 'NONE', #732, 4.249999999999996447 ) ;
#254 = SECURITY_CLASSIFICATION ( '', '', #441 ) ;
#255 = EDGE_CURVE ( 'NONE', #680, #148, #237, .T. ) ;
#256 = COORDINATED_UNIVERSAL_TIME_OFFSET ( 6, 0, .BEHIND. ) ;
#257 = ADVANCED_FACE ( 'NONE', ( #698 ), #667, .F. ) ;
#258 = FACE_OUTER_BOUND ( 'NONE', #496, .T. ) ;
#259 = ORIENTED_EDGE ( 'NONE', *, *, #759, .T. ) ;
#260 = APPROVAL_DATE_TIME ( #74, #399 ) ;
#261 = DIRECTION ( 'NONE',  ( -1.000000000000000000, 0.000000000000000000, 0.000000000000000000 ) ) ;
#262 = ORIENTED_EDGE ( 'NONE', *, *, #152, .F. ) ;
#263 = ORIENTED_EDGE ( 'NONE', *, *, #467, .F. ) ;
#264 = DATE_AND_TIME ( #430, #190 ) ;
#265 = DIRECTION ( 'NONE',  ( -0.000000000000000000, -0.000000000000000000, -1.000000000000000000 ) ) ;
#266 = CIRCLE ( 'NONE', #688, 3.825000000000012612 ) ;
#267 = ORIENTED_EDGE ( 'NONE', *, *, #326, .T. ) ;
#268 = AXIS2_PLACEMENT_3D ( 'NONE', #200, #600, #261 ) ;
#269 = PERSON ( 'UNSPECIFIED', 'UNSPECIFIED', 'UNSPECIFIED', ('UNSPECIFIED'), ('UNSPECIFIED'), ('UNSPECIFIED') ) ;
#270 = ORIENTED_EDGE ( 'NONE', *, *, #634, .F. ) ;
#271 = CARTESIAN_POINT ( 'NONE',  ( 0.6580159112963328560, -1.929495413240509105, 27.32161770587748606 ) ) ;
#272 = EDGE_CURVE ( 'NONE', #409, #65, #686, .T. ) ;
#273 = VERTEX_POINT ( 'NONE', #110 ) ;
#274 = CARTESIAN_POINT ( 'NONE',  ( 2.313572001446708657E-16, -2.309401076758503368, 24.50000000000000355 ) ) ;
#275 = ORIENTED_EDGE ( 'NONE', *, *, #507, .F. ) ;
#276 = CARTESIAN_POINT ( 'NONE',  ( -1.341984088703666034, -1.534606201897247280, 27.32161770587747540 ) ) ;
#277 = AXIS2_PLACEMENT_3D ( 'NONE', #295, #166, #227 ) ;
#278 =( GEOMETRIC_REPRESENTATION_CONTEXT ( 3 ) GLOBAL_UNCERTAINTY_ASSIGNED_CONTEXT ( ( #134 ) ) GLOBAL_UNIT_ASSIGNED_CONTEXT ( ( #697, #419, #598 ) ) REPRESENTATION_CONTEXT ( 'NONE', 'WORKASPACE' ) );
#279 = CARTESIAN_POINT ( 'NONE',  ( -3.825000000000012612, -5.143516556418882533E-15, 27.50000000000000355 ) ) ;
#280 = CARTESIAN_POINT ( 'NONE',  ( -1.673438827620541858, -1.343240719159412011, 27.39114627587169082 ) ) ;
#281 = EDGE_CURVE ( 'NONE', #677, #287, #757, .T. ) ;
#282 = CARTESIAN_POINT ( 'NONE',  ( -3.035766082959412415E-15, 2.309401076758500260, 27.50000000000000355 ) ) ;
#283 = CYLINDRICAL_SURFACE ( 'NONE', #340, 4.249999999999996447 ) ;
#284 = ORIENTED_EDGE ( 'NONE', *, *, #211, .F. ) ;
#285 = LINE ( 'NONE', #518, #638 ) ;
#286 = DIRECTION ( 'NONE',  ( 1.000000000000000000, 0.000000000000000000, 0.000000000000000000 ) ) ;
#287 = VERTEX_POINT ( 'NONE', #348 ) ;
#288 = VECTOR ( 'NONE', #645, 1000.000000000000000 ) ;
#289 = LINE ( 'NONE', #464, #389 ) ;
#290 = VECTOR ( 'NONE', #649, 1000.000000000000114 ) ;
#291 = DIRECTION ( 'NONE',  ( -1.000000000000000000, 0.000000000000000000, 0.000000000000000000 ) ) ;
#292 = ORIENTED_EDGE ( 'NONE', *, *, #27, .T. ) ;
#293 = ADVANCED_FACE ( 'NONE', ( #586 ), #579, .F. ) ;
#294 = CARTESIAN_POINT ( 'NONE',  ( 0.1634839680024562647, 2.215013563824095311, 27.44550534399825636 ) ) ;
#295 = CARTESIAN_POINT ( 'NONE',  ( 0.000000000000000000, -2.805907722635941134E-15, 27.50000000000000355 ) ) ;
#296 = ORIENTED_EDGE ( 'NONE', *, *, #40, .T. ) ;
#297 = ADVANCED_FACE ( 'NONE', ( #401 ), #591, .T. ) ;
#298 = CALENDAR_DATE ( 2026, 8, 1 ) ;
#299 = DIRECTION ( 'NONE',  ( 0.000000000000000000, 0.000000000000000000, 1.000000000000000000 ) ) ;
#300 = ORIENTED_EDGE ( 'NONE', *, *, #759, .F. ) ;
#301 = EDGE_CURVE ( 'NONE', #77, #65, #363, .T. ) ;
#302 = AXIS2_PLACEMENT_3D ( 'NONE', #513, #445, #327 ) ;
#303 = DIRECTION ( 'NONE',  ( 0.8660254037844384856, 0.5000000000000002220, 0.000000000000000000 ) ) ;
#304 = DIRECTION ( 'NONE',  ( -1.000000000000000000, 0.000000000000000000, 0.000000000000000000 ) ) ;
#305 = VECTOR ( 'NONE', #540, 1000.000000000000227 ) ;
#306 = APPLICATION_CONTEXT ( 'configuration controlled 3d designs of mechanical parts and assemblies' ) ;
#307 = ADVANCED_FACE ( 'NONE', ( #761 ), #465, .F. ) ;
#308 = VECTOR ( 'NONE', #187, 1000.000000000000000 ) ;
#309 = CC_DESIGN_DATE_AND_TIME_ASSIGNMENT ( #493, #10, ( #254 ) ) ;
#310 = CARTESIAN_POINT ( 'NONE',  ( 0.000000000000000000, -2.805907722635941134E-15, 27.50000000000000355 ) ) ;
#311 = CARTESIAN_POINT ( 'NONE',  ( 0.000000000000000000, -2.805907722635941134E-15, 27.50000000000000355 ) ) ;
#312 = LINE ( 'NONE', #679, #703 ) ;
#313 = DIRECTION ( 'NONE',  ( 1.000000000000000000, 0.000000000000000000, 0.000000000000000000 ) ) ;
#314 = CARTESIAN_POINT ( 'NONE',  ( 2.000000000000000000, 1.154700538379250796, 24.50000000000000355 ) ) ;
#315 = DIRECTION ( 'NONE',  ( -1.000000000000000000, 0.000000000000000000, 0.000000000000000000 ) ) ;
#316 = DIRECTION ( 'NONE',  ( 1.000000000000000000, 0.000000000000000000, 0.000000000000000000 ) ) ;
#317 = CIRCLE ( 'NONE', #748, 4.037499999999981881 ) ;
#318 = VERTEX_POINT ( 'NONE', #314 ) ;
#319 = CALENDAR_DATE ( 2026, 8, 1 ) ;
#320 = DIRECTION ( 'NONE',  ( -0.8660254037844385966, -0.5000000000000001110, 0.000000000000000000 ) ) ;
#321 = EDGE_LOOP ( 'NONE', ( #296, #699, #111, #673 ) ) ;
#322 = PERSON_AND_ORGANIZATION ( #269, #488 ) ;
#323 = LINE ( 'NONE', #555, #772 ) ;
#324 = ORIENTED_EDGE ( 'NONE', *, *, #459, .F. ) ;
#325 = ORIENTED_EDGE ( 'NONE', *, *, #152, .T. ) ;
#326 = EDGE_CURVE ( 'NONE', #538, #376, #654, .T. ) ;
#327 = DIRECTION ( 'NONE',  ( 1.877893248421449775E-16, -1.000000000000000000, 0.000000000000000000 ) ) ;
#328 = VECTOR ( 'NONE', #123, 1000.000000000000000 ) ;
#329 = ORIENTED_EDGE ( 'NONE', *, *, #380, .F. ) ;
#330 = CC_DESIGN_APPROVAL ( #650, ( #254 ) ) ;
#331 = FACE_OUTER_BOUND ( 'NONE', #477, .T. ) ;
#332 = EDGE_CURVE ( 'NONE', #680, #648, #701, .T. ) ;
#333 = ORIENTED_EDGE ( 'NONE', *, *, #186, .T. ) ;
#334 = CARTESIAN_POINT ( 'NONE',  ( 0.000000000000000000, -5.143516556418882533E-15, -27.50000000000000000 ) ) ;
#335 = ADVANCED_FACE ( 'NONE', ( #487 ), #719, .F. ) ;
#336 = FACE_OUTER_BOUND ( 'NONE', #359, .T. ) ;
#337 = CARTESIAN_POINT ( 'NONE',  ( -1.836516031997540210, 1.249088051313658410, 27.44550534399825636 ) ) ;
#338 = AXIS2_PLACEMENT_3D ( 'NONE', #39, #165, #169 ) ;
#339 = CONICAL_SURFACE ( 'NONE', #702, 4.037499999999985434, 0.7853981633974645993 ) ;
#340 = AXIS2_PLACEMENT_3D ( 'NONE', #334, #30, #516 ) ;
#341 = CARTESIAN_POINT ( 'NONE',  ( 2.000000000000000000, 1.154700538379249020, 27.50000000000000355 ) ) ;
#342 = PLANE ( 'NONE',  #302 ) ;
#343 = DIRECTION ( 'NONE',  ( 1.000000000000000000, 0.000000000000000000, 0.000000000000000000 ) ) ;
#344 = CARTESIAN_POINT ( 'NONE',  ( 0.000000000000000000, -2.805907722635941134E-15, 27.50000000000000355 ) ) ;
#345 = EDGE_LOOP ( 'NONE', ( #492, #529, #333, #15 ) ) ;
#346 = DIRECTION ( 'NONE',  ( -0.000000000000000000, -0.000000000000000000, -1.000000000000000000 ) ) ;
#347 = EDGE_CURVE ( 'NONE', #77, #409, #374, .T. ) ;
#348 = CARTESIAN_POINT ( 'NONE',  ( -1.899999999999993028, -4.874094260606465523E-15, -27.50000000000000000 ) ) ;
#349 = EDGE_LOOP ( 'NONE', ( #262, #388 ) ) ;
#350 = AXIS2_PLACEMENT_3D ( 'NONE', #764, #174, #705 ) ;
#351 = DIRECTION ( 'NONE',  ( 1.000000000000000000, 0.000000000000000000, 0.000000000000000000 ) ) ;
#352 = DIRECTION ( 'NONE',  ( -0.000000000000000000, -0.000000000000000000, -1.000000000000000000 ) ) ;
#353 = ORIENTED_EDGE ( 'NONE', *, *, #383, .F. ) ;
#354 = MECHANICAL_CONTEXT ( 'NONE', #306, 'mechanical' ) ;
#355 = DIRECTION ( 'NONE',  ( -0.000000000000000000, -0.000000000000000000, -1.000000000000000000 ) ) ;
#356 = ORIENTED_EDGE ( 'NONE', *, *, #570, .F. ) ;
#357 = EDGE_CURVE ( 'NONE', #318, #695, #68, .T. ) ;
#358 = DIRECTION ( 'NONE',  ( -1.000000000000000000, 0.000000000000000000, 0.000000000000000000 ) ) ;
#359 = EDGE_LOOP ( 'NONE', ( #607, #207, #725, #198, #153, #418 ) ) ;
#360 = DIRECTION ( 'NONE',  ( -0.000000000000000000, -0.000000000000000000, -1.000000000000000000 ) ) ;
#361 = CARTESIAN_POINT ( 'NONE',  ( 4.037499999999985434, -5.143516556418882533E-15, 22.50000000000000355 ) ) ;
#362 = ORIENTED_EDGE ( 'NONE', *, *, #437, .F. ) ;
#363 = CIRCLE ( 'NONE', #176, 2.309401076758503368 ) ;
#364 = PLANE ( 'NONE',  #373 ) ;
#365 = FACE_OUTER_BOUND ( 'NONE', #117, .T. ) ;
#366 = CARTESIAN_POINT ( 'NONE',  ( 2.000000000000000000, 0.7788056360995988525, 27.40119933952586706 ) ) ;
#367 = CARTESIAN_POINT ( 'NONE',  ( -2.000000000000000000, 0.9680648709273264041, 27.44612292357812677 ) ) ;
#368 = CARTESIAN_POINT ( 'NONE',  ( 0.000000000000000000, 4.249999999999992006, 22.50000000000000000 ) ) ;
#369 = CARTESIAN_POINT ( 'NONE',  ( 0.000000000000000000, -2.805907722635941134E-15, 27.50000000000000355 ) ) ;
#370 = APPROVAL_DATE_TIME ( #490, #650 ) ;
#371 = CIRCLE ( 'NONE', #471, 2.309401076758503368 ) ;
#372 = DIRECTION ( 'NONE',  ( -1.000000000000000000, 0.000000000000000000, 0.000000000000000000 ) ) ;
#373 = AXIS2_PLACEMENT_3D ( 'NONE', #715, #661, #491 ) ;
#374 = B_SPLINE_CURVE_WITH_KNOTS ( 'NONE', 3,
 ( #542, #714, #710, #183, #425, #775 ),
 .UNSPECIFIED., .F., .F.,
 ( 4, 2, 4 ),
 ( 0.001980088446305319164, 0.002563789457288139558, 0.003147490468270959952 ),
 .UNSPECIFIED. ) ;
#375 = LOCAL_TIME ( 14, 15, 12.00000000000000000, #250 ) ;
#376 = VERTEX_POINT ( 'NONE', #192 ) ;
#377 = PERSON_AND_ORGANIZATION ( #269, #488 ) ;
#378 = CARTESIAN_POINT ( 'NONE',  ( -2.000000000000000000, -0.1947097303742642560, 27.32135192156439985 ) ) ;
#379 = EDGE_LOOP ( 'NONE', ( #753, #709, #735, #706 ) ) ;
#380 = EDGE_CURVE ( 'NONE', #776, #724, #428, .T. ) ;
#381 = CARTESIAN_POINT ( 'NONE',  ( 0.000000000000000000, -5.143516556418882533E-15, 22.50000000000000000 ) ) ;
#382 = PRODUCT_DEFINITION_SHAPE ( 'NONE', 'NONE',  #94 ) ;
#383 = EDGE_CURVE ( 'NONE', #409, #580, #57, .T. ) ;
#384 = DIRECTION ( 'NONE',  ( -0.7071067811865591191, 8.659560562355074607E-17, 0.7071067811865360264 ) ) ;
#385 = ORIENTED_EDGE ( 'NONE', *, *, #526, .T. ) ;
#386 = DIRECTION ( 'NONE',  ( 1.000000000000000000, 0.000000000000000000, 0.000000000000000000 ) ) ;
#387 = AXIS2_PLACEMENT_3D ( 'NONE', #369, #663, #131 ) ;
#388 = ORIENTED_EDGE ( 'NONE', *, *, #108, .F. ) ;
#389 = VECTOR ( 'NONE', #527, 1000.000000000000000 ) ;
#390 = CARTESIAN_POINT ( 'NONE',  ( -1.671665528003486667, 1.344264534170670711, 27.40053673133941814 ) ) ;
#391 = ORIENTED_EDGE ( 'NONE', *, *, #128, .F. ) ;
#392 = CARTESIAN_POINT ( 'NONE',  ( 0.000000000000000000, -2.805907722635941134E-15, 27.50000000000000355 ) ) ;
#393 = CARTESIAN_POINT ( 'NONE',  ( -0.6580159112963323009, 1.929495413240507329, 27.32161770587748251 ) ) ;
#394 = DIRECTION ( 'NONE',  ( 0.000000000000000000, 0.000000000000000000, 1.000000000000000000 ) ) ;
#395 = CARTESIAN_POINT ( 'NONE',  ( 1.337992088013973957, -1.536910984570045713, 27.33829109969720150 ) ) ;
#396 = AXIS2_PLACEMENT_3D ( 'NONE', #120, #519, #631 ) ;
#397 = AXIS2_PLACEMENT_3D ( 'NONE', #101, #355, #55 ) ;
#398 = CONICAL_SURFACE ( 'NONE', #655, 2.309401076758503368, 1.047197551196600074 ) ;
#399 = APPROVAL ( #593, 'UNSPECIFIED' ) ;
#400 = LINE ( 'NONE', #683, #522 ) ;
#401 = FACE_OUTER_BOUND ( 'NONE', #202, .T. ) ;
#402 = ORIENTED_EDGE ( 'NONE', *, *, #195, .F. ) ;
#403 = ADVANCED_FACE ( 'NONE', ( #599 ), #745, .T. ) ;
#404 = CARTESIAN_POINT ( 'NONE',  ( 1.673438827620545410, 1.343240719159408458, 27.39114627587169437 ) ) ;
#405 = CARTESIAN_POINT ( 'NONE',  ( 0.000000000000000000, -2.805907722635941134E-15, 27.50000000000000355 ) ) ;
#406 = ORIENTED_EDGE ( 'NONE', *, *, #459, .T. ) ;
#407 = CARTESIAN_POINT ( 'NONE',  ( 1.341984088703668920, 1.534606201897244171, 27.32161770587747895 ) ) ;
#408 = CARTESIAN_POINT ( 'NONE',  ( 2.309401076758503368, -2.805907722635941134E-15, 27.50000000000000355 ) ) ;
#409 = VERTEX_POINT ( 'NONE', #125 ) ;
#410 = CIRCLE ( 'NONE', #72, 2.499999999999997335 ) ;
#411 = CIRCLE ( 'NONE', #717, 2.309401076758503368 ) ;
#412 = CARTESIAN_POINT ( 'NONE',  ( 2.313572001446708657E-16, -2.309401076758503368, 24.50000000000000355 ) ) ;
#413 = ORIENTED_EDGE ( 'NONE', *, *, #414, .T. ) ;
#414 = EDGE_CURVE ( 'NONE', #273, #762, #545, .T. ) ;
#415 = DIRECTION ( 'NONE',  ( 1.000000000000000000, 0.000000000000000000, 0.000000000000000000 ) ) ;
#416 = DIRECTION ( 'NONE',  ( -0.000000000000000000, -0.000000000000000000, -1.000000000000000000 ) ) ;
#417 = ORIENTED_EDGE ( 'NONE', *, *, #515, .F. ) ;
#418 = ORIENTED_EDGE ( 'NONE', *, *, #674, .T. ) ;
#419 =( NAMED_UNIT ( * ) PLANE_ANGLE_UNIT ( ) SI_UNIT ( $, .RADIAN. ) );
#420 = CARTESIAN_POINT ( 'NONE',  ( 2.000000000000000000, 0.1950257849354090633, 27.32136720504591310 ) ) ;
#421 = DIRECTION ( 'NONE',  ( 1.000000000000000000, 0.000000000000000000, 0.000000000000000000 ) ) ;
#422 = FACE_BOUND ( 'NONE', #175, .T. ) ;
#423 = DIRECTION ( 'NONE',  ( -0.000000000000000000, -0.000000000000000000, 1.000000000000000000 ) ) ;
#424 = VECTOR ( 'NONE', #483, 999.9999999999998863 ) ;
#425 = CARTESIAN_POINT ( 'NONE',  ( 2.000000000000000000, -0.1949352116699138993, 27.32136720504592020 ) ) ;
#426 = CARTESIAN_POINT ( 'NONE',  ( -2.000000000000000000, 0.1952531712946853903, 27.32138250984092309 ) ) ;
#427 = ADVANCED_FACE ( 'NONE', ( #431 ), #14, .T. ) ;
#428 = LINE ( 'NONE', #361, #161 ) ;
#429 = DIRECTION ( 'NONE',  ( -0.000000000000000000, -0.000000000000000000, -1.000000000000000000 ) ) ;
#430 = CALENDAR_DATE ( 2026, 8, 1 ) ;
#431 = FACE_OUTER_BOUND ( 'NONE', #102, .T. ) ;
#432 = CARTESIAN_POINT ( 'NONE',  ( 0.000000000000000000, -2.805907722635941134E-15, 27.50000000000000355 ) ) ;
#433 = PERSON_AND_ORGANIZATION ( #269, #488 ) ;
#434 = VECTOR ( 'NONE', #583, 1000.000000000000000 ) ;
#435 = CARTESIAN_POINT ( 'NONE',  ( 0.000000000000000000, -5.143516556418882533E-15, 27.07500000000001350 ) ) ;
#436 = AXIS2_PLACEMENT_3D ( 'NONE', #694, #537, #2 ) ;
#437 = EDGE_CURVE ( 'NONE', #677, #204, #610, .T. ) ;
#438 = ORIENTED_EDGE ( 'NONE', *, *, #548, .T. ) ;
#439 = ORIENTED_EDGE ( 'NONE', *, *, #539, .T. ) ;
#440 = CC_DESIGN_PERSON_AND_ORGANIZATION_ASSIGNMENT ( #433, #662, ( #254 ) ) ;
#441 = SECURITY_CLASSIFICATION_LEVEL ( 'unclassified' ) ;
#442 = CARTESIAN_POINT ( 'NONE',  ( 2.000000000000000000, -1.154700538379251684, 27.50000000000000355 ) ) ;
#443 = ORIENTED_EDGE ( 'NONE', *, *, #437, .T. ) ;
#444 = ORIENTED_EDGE ( 'NONE', *, *, #326, .F. ) ;
#445 = DIRECTION ( 'NONE',  ( -1.000000000000000000, -1.877893248421449775E-16, 0.000000000000000000 ) ) ;
#446 = ORIENTED_EDGE ( 'NONE', *, *, #674, .F. ) ;
#447 = CARTESIAN_POINT ( 'NONE',  ( -1.337992088013972625, 1.536910984570045047, 27.33829109969720506 ) ) ;
#448 = ORIENTED_EDGE ( 'NONE', *, *, #185, .F. ) ;
#449 = CARTESIAN_POINT ( 'NONE',  ( -2.499999999999996891, -5.143516556418882533E-15, -26.90000000000000213 ) ) ;
#450 = CARTESIAN_POINT ( 'NONE',  ( -0.3283344719965073932, -2.119837080967086340, 27.40053673133941814 ) ) ;
#451 = DIRECTION ( 'NONE',  ( -0.000000000000000000, -0.000000000000000000, -1.000000000000000000 ) ) ;
#452 = LINE ( 'NONE', #147, #771 ) ;
#453 = LINE ( 'NONE', #693, #61 ) ;
#454 = CARTESIAN_POINT ( 'NONE',  ( 0.000000000000000000, -5.143516556418882533E-15, -27.50000000000000000 ) ) ;
#455 = ORIENTED_EDGE ( 'NONE', *, *, #548, .F. ) ;
#456 = EDGE_CURVE ( 'NONE', #695, #620, #323, .T. ) ;
#457 = AXIS2_PLACEMENT_3D ( 'NONE', #37, #619, #565 ) ;
#458 = CIRCLE ( 'NONE', #716, 2.499999999999996891 ) ;
#459 = EDGE_CURVE ( 'NONE', #65, #580, #472, .T. ) ;
#460 = AXIS2_PLACEMENT_3D ( 'NONE', #368, #129, #191 ) ;
#461 = CYLINDRICAL_SURFACE ( 'NONE', #338, 4.249999999999996447 ) ;
#462 = DIRECTION ( 'NONE',  ( 1.000000000000000000, 0.000000000000000000, 0.000000000000000000 ) ) ;
#463 = ORIENTED_EDGE ( 'NONE', *, *, #195, .T. ) ;
#464 = CARTESIAN_POINT ( 'NONE',  ( 2.000000000000000000, -1.154700538379251684, 24.50000000000000355 ) ) ;
#465 = PLANE ( 'NONE',  #436 ) ;
#466 = ORIENTED_EDGE ( 'NONE', *, *, #244, .T. ) ;
#467 = EDGE_CURVE ( 'NONE', #204, #670, #458, .T. ) ;
#468 = FACE_OUTER_BOUND ( 'NONE', #632, .T. ) ;
#469 = LINE ( 'NONE', #752, #288 ) ;
#470 = EDGE_LOOP ( 'NONE', ( #88, #135, #608 ) ) ;
#471 = AXIS2_PLACEMENT_3D ( 'NONE', #628, #299, #755 ) ;
#472 = CIRCLE ( 'NONE', #226, 2.309401076758503368 ) ;
#473 = LINE ( 'NONE', #641, #290 ) ;
#474 = APPROVAL_PERSON_ORGANIZATION ( #554, #650, #13 ) ;
#475 = DIRECTION ( 'NONE',  ( 0.5000000000000003331, -0.8660254037844385966, 0.000000000000000000 ) ) ;
#476 = EDGE_LOOP ( 'NONE', ( #557, #552, #270, #140 ) ) ;
#477 = EDGE_LOOP ( 'NONE', ( #664, #121, #439, #45 ) ) ;
#478 = DIRECTION ( 'NONE',  ( -0.000000000000000000, 0.000000000000000000, -1.000000000000000000 ) ) ;
#479 = CARTESIAN_POINT ( 'NONE',  ( -1.999999999999999556, -1.154700538379252350, 24.50000000000000355 ) ) ;
#480 = ORIENTED_EDGE ( 'NONE', *, *, #7, .T. ) ;
#481 = DIRECTION ( 'NONE',  ( 0.000000000000000000, 0.000000000000000000, 1.000000000000000000 ) ) ;
#482 = DIRECTION ( 'NONE',  ( 0.8660254037844388186, -0.4999999999999997224, 0.000000000000000000 ) ) ;
#483 = DIRECTION ( 'NONE',  ( -0.7071067811865520136, 8.659560562354989558E-17, 0.7071067811865431318 ) ) ;
#484 = EDGE_CURVE ( 'NONE', #124, #769, #75, .T. ) ;
#485 = AXIS2_PLACEMENT_3D ( 'NONE', #760, #394, #43 ) ;
#486 = B_SPLINE_CURVE_WITH_KNOTS ( 'NONE', 3,
 ( #613, #82, #271, #682, #395, #86, #155, #558 ),
 .UNSPECIFIED., .F., .F.,
 ( 4, 2, 2, 4 ),
 ( 2.380749485111655001E-07, 0.001166425106128748381, 0.001749518621718866964, 0.002332612137308985763 ),
 .UNSPECIFIED. ) ;
#487 = FACE_OUTER_BOUND ( 'NONE', #502, .T. ) ;
#488 = ORGANIZATION ( 'UNSPECIFIED', 'UNSPECIFIED', '' ) ;
#489 = CARTESIAN_POINT ( 'NONE',  ( 0.000000000000000000, -2.805907722635941134E-15, 27.50000000000000355 ) ) ;
#490 = DATE_AND_TIME ( #141, #163 ) ;
#491 = DIRECTION ( 'NONE',  ( 1.000000000000000000, 0.000000000000000000, -0.000000000000000000 ) ) ;
#492 = ORIENTED_EDGE ( 'NONE', *, *, #29, .F. ) ;
#493 = DATE_AND_TIME ( #609, #639 ) ;
#494 = DIRECTION ( 'NONE',  ( 0.7071067811865520136, 0.000000000000000000, 0.7071067811865431318 ) ) ;
#495 = ORIENTED_EDGE ( 'NONE', *, *, #467, .T. ) ;
#496 = EDGE_LOOP ( 'NONE', ( #618, #292 ) ) ;
#497 = APPROVAL_STATUS ( 'not_yet_approved' ) ;
#498 = PRODUCT ( '92290A265_NO THREADS_Super-Corrosion-Resistant 316 Stainless Steel Socket Head Screw', '92290A265_NO THREADS_Super-Corrosion-Resistant 316 Stainless Steel Socket Head Screw', '', ( #354 ) ) ;
#499 = CARTESIAN_POINT ( 'NONE',  ( -1.999999999999999556, -0.9670747002288436756, 27.44583708591845550 ) ) ;
#500 = AXIS2_PLACEMENT_3D ( 'NONE', #601, #360, #70 ) ;
#501 = ORIENTED_EDGE ( 'NONE', *, *, #51, .T. ) ;
#502 = EDGE_LOOP ( 'NONE', ( #584, #501, #167, #730 ) ) ;
#503 = CARTESIAN_POINT ( 'NONE',  ( -1.999999999999999556, -1.154700538379252350, 24.50000000000000355 ) ) ;
#504 = ORIENTED_EDGE ( 'NONE', *, *, #647, .T. ) ;
#505 = CARTESIAN_POINT ( 'NONE',  ( -3.035766082959412415E-15, 2.309401076758500260, 27.50000000000000355 ) ) ;
#506 = ORIENTED_EDGE ( 'NONE', *, *, #550, .F. ) ;
#507 = EDGE_CURVE ( 'NONE', #21, #148, #253, .T. ) ;
#508 = FACE_OUTER_BOUND ( 'NONE', #740, .T. ) ;
#509 = CIRCLE ( 'NONE', #535, 2.499999999999996891 ) ;
#510 = AXIS2_PLACEMENT_3D ( 'NONE', #225, #514, #751 ) ;
#511 = CONICAL_SURFACE ( 'NONE', #159, 2.309401076758503368, 1.047197551196600074 ) ;
#512 = FACE_OUTER_BOUND ( 'NONE', #213, .T. ) ;
#513 = CARTESIAN_POINT ( 'NONE',  ( -2.000000000000000000, 1.154700538379250130, 24.50000000000000355 ) ) ;
#514 = DIRECTION ( 'NONE',  ( 0.000000000000000000, 0.000000000000000000, 1.000000000000000000 ) ) ;
#515 = EDGE_CURVE ( 'NONE', #762, #538, #743, .T. ) ;
#516 = DIRECTION ( 'NONE',  ( -1.000000000000000000, 0.000000000000000000, 0.000000000000000000 ) ) ;
#517 = ORIENTED_EDGE ( 'NONE', *, *, #623, .F. ) ;
#518 = CARTESIAN_POINT ( 'NONE',  ( -1.999999999999999556, -1.154700538379252350, 24.50000000000000355 ) ) ;
#519 = DIRECTION ( 'NONE',  ( -0.000000000000000000, -0.000000000000000000, -1.000000000000000000 ) ) ;
#520 = VERTEX_POINT ( 'NONE', #4 ) ;
#521 = AXIS2_PLACEMENT_3D ( 'NONE', #188, #130, #64 ) ;
#522 = VECTOR ( 'NONE', #621, 1000.000000000000000 ) ;
#523 = FACE_OUTER_BOUND ( 'NONE', #738, .T. ) ;
#524 = CARTESIAN_POINT ( 'NONE',  ( 0.000000000000000000, -5.143516556418882533E-15, -27.50000000000000000 ) ) ;
#525 = ORIENTED_EDGE ( 'NONE', *, *, #168, .F. ) ;
#526 = EDGE_CURVE ( 'NONE', #287, #670, #249, .T. ) ;
#527 = DIRECTION ( 'NONE',  ( -0.000000000000000000, -0.000000000000000000, 1.000000000000000000 ) ) ;
#528 = DIRECTION ( 'NONE',  ( -1.000000000000000000, 0.000000000000000000, 0.000000000000000000 ) ) ;
#529 = ORIENTED_EDGE ( 'NONE', *, *, #507, .T. ) ;
#530 = PERSON_AND_ORGANIZATION ( #269, #488 ) ;
#531 = DIRECTION ( 'NONE',  ( -0.000000000000000000, -0.000000000000000000, -1.000000000000000000 ) ) ;
#532 = ADVANCED_FACE ( 'NONE', ( #258, #422 ), #364, .T. ) ;
#533 = EDGE_LOOP ( 'NONE', ( #267, #577 ) ) ;
#534 = CARTESIAN_POINT ( 'NONE',  ( 2.000000000000000000, 0.9680215224847706912, 27.44611040996063878 ) ) ;
#535 = AXIS2_PLACEMENT_3D ( 'NONE', #690, #531, #358 ) ;
#536 = CARTESIAN_POINT ( 'NONE',  ( 0.000000000000000000, -5.143516556418882533E-15, 27.50000000000000355 ) ) ;
#537 = DIRECTION ( 'NONE',  ( 0.4999999999999996114, 0.8660254037844389297, 0.000000000000000000 ) ) ;
#538 = VERTEX_POINT ( 'NONE', #597 ) ;
#539 = EDGE_CURVE ( 'NONE', #724, #146, #8, .T. ) ;
#540 = DIRECTION ( 'NONE',  ( 0.8660254037844384856, 0.5000000000000001110, 0.000000000000000000 ) ) ;
#541 = ADVANCED_FACE ( 'NONE', ( #133 ), #569, .F. ) ;
#542 = CARTESIAN_POINT ( 'NONE',  ( 2.000000000000000000, -1.154700538379251684, 27.50000000000000355 ) ) ;
#543 = CARTESIAN_POINT ( 'NONE',  ( -1.999999999999999556, 0.3928791449542615721, 27.33856631894722611 ) ) ;
#544 = DATE_AND_TIME ( #319, #127 ) ;
#545 = CIRCLE ( 'NONE', #22, 2.309401076758503368 ) ;
#546 = AXIS2_PLACEMENT_3D ( 'NONE', #633, #156, #351 ) ;
#547 = CARTESIAN_POINT ( 'NONE',  ( -1.899999999999993028, -4.910833664580886383E-15, -27.50000000000000000 ) ) ;
#548 = EDGE_CURVE ( 'NONE', #144, #776, #559, .T. ) ;
#549 = APPROVAL_STATUS ( 'not_yet_approved' ) ;
#550 = EDGE_CURVE ( 'NONE', #146, #724, #616, .T. ) ;
#551 = DIRECTION ( 'NONE',  ( -1.000000000000000000, 0.000000000000000000, 0.000000000000000000 ) ) ;
#552 = ORIENTED_EDGE ( 'NONE', *, *, #128, .T. ) ;
#553 = ORIENTED_EDGE ( 'NONE', *, *, #281, .F. ) ;
#554 = PERSON_AND_ORGANIZATION ( #269, #488 ) ;
#555 = CARTESIAN_POINT ( 'NONE',  ( -8.999094290051373065E-16, 2.309401076758501592, 24.50000000000000355 ) ) ;
#556 = EDGE_LOOP ( 'NONE', ( #300, #164, #210, #275 ) ) ;
#557 = ORIENTED_EDGE ( 'NONE', *, *, #675, .T. ) ;
#558 = CARTESIAN_POINT ( 'NONE',  ( 2.000000000000000000, -1.154700538379251684, 27.50000000000000355 ) ) ;
#559 = CIRCLE ( 'NONE', #139, 4.037499999999981881 ) ;
#560 = APPROVAL_PERSON_ORGANIZATION ( #530, #399, #713 ) ;
#561 = ORIENTED_EDGE ( 'NONE', *, *, #573, .F. ) ;
#562 = DIRECTION ( 'NONE',  ( 0.8660254037844388186, -0.4999999999999997224, 0.000000000000000000 ) ) ;
#563 = EDGE_CURVE ( 'NONE', #620, #762, #453, .T. ) ;
#564 = ORIENTED_EDGE ( 'NONE', *, *, #244, .F. ) ;
#565 = DIRECTION ( 'NONE',  ( 1.000000000000000000, 0.000000000000000000, 0.000000000000000000 ) ) ;
#566 = ADVANCED_FACE ( 'NONE', ( #336 ), #578, .T. ) ;
#567 = DIRECTION ( 'NONE',  ( -0.000000000000000000, -0.000000000000000000, 1.000000000000000000 ) ) ;
#568 = CARTESIAN_POINT ( 'NONE',  ( 0.000000000000000000, -5.143516556418882533E-15, -27.50000000000000000 ) ) ;
#569 = CONICAL_SURFACE ( 'NONE', #387, 2.309401076758503368, 1.047197551196600074 ) ;
#570 = EDGE_CURVE ( 'NONE', #580, #273, #181, .T. ) ;
#571 = CARTESIAN_POINT ( 'NONE',  ( -8.999094290051373065E-16, 2.309401076758501592, 24.50000000000000355 ) ) ;
#572 = DIRECTION ( 'NONE',  ( 0.000000000000000000, 0.000000000000000000, -1.000000000000000000 ) ) ;
#573 = EDGE_CURVE ( 'NONE', #643, #204, #681, .T. ) ;
#574 = CC_DESIGN_PERSON_AND_ORGANIZATION_ASSIGNMENT ( #322, #205, ( #747 ) ) ;
#575 = CARTESIAN_POINT ( 'NONE',  ( 0.3283344719965110015, 2.119837080967081899, 27.40053673133942169 ) ) ;
#576 = DIRECTION ( 'NONE',  ( 0.000000000000000000, 0.000000000000000000, 1.000000000000000000 ) ) ;
#577 = ORIENTED_EDGE ( 'NONE', *, *, #51, .F. ) ;
#578 = PLANE ( 'NONE',  #485 ) ;
#579 = PLANE ( 'NONE',  #350 ) ;
#580 = VERTEX_POINT ( 'NONE', #341 ) ;
#581 = CONICAL_SURFACE ( 'NONE', #277, 2.309401076758503368, 1.047197551196600074 ) ;
#582 = DIRECTION ( 'NONE',  ( -0.000000000000000000, -0.000000000000000000, 1.000000000000000000 ) ) ;
#583 = DIRECTION ( 'NONE',  ( 1.877893248421449775E-16, -1.000000000000000000, 0.000000000000000000 ) ) ;
#584 = ORIENTED_EDGE ( 'NONE', *, *, #603, .T. ) ;
#585 = PERSON_AND_ORGANIZATION_ROLE ( 'design_owner' ) ;
#586 = FACE_OUTER_BOUND ( 'NONE', #321, .T. ) ;
#587 = EDGE_LOOP ( 'NONE', ( #208, #629, #60, #506 ) ) ;
#588 = FACE_BOUND ( 'NONE', #349, .T. ) ;
#589 = LINE ( 'NONE', #234, #700 ) ;
#590 = ORIENTED_EDGE ( 'NONE', *, *, #539, .F. ) ;
#591 = CONICAL_SURFACE ( 'NONE', #397, 4.249999999999996447, 0.7853981633974401744 ) ;
#592 = ADVANCED_FACE ( 'NONE', ( #100 ), #215, .F. ) ;
#593 = APPROVAL_STATUS ( 'not_yet_approved' ) ;
#594 = CARTESIAN_POINT ( 'NONE',  ( 2.000000000000000000, 1.154700538379249020, 27.50000000000000355 ) ) ;
#595 = DIRECTION ( 'NONE',  ( -0.000000000000000000, -0.000000000000000000, -1.000000000000000000 ) ) ;
#596 = ADVANCED_FACE ( 'NONE', ( #685 ), #461, .T. ) ;
#597 = CARTESIAN_POINT ( 'NONE',  ( -1.999999999999999112, -1.154700538379255681, 27.50000000000000355 ) ) ;
#598 =( NAMED_UNIT ( * ) SI_UNIT ( $, .STERADIAN. ) SOLID_ANGLE_UNIT ( ) );
#599 = FACE_OUTER_BOUND ( 'NONE', #728, .T. ) ;
#600 = DIRECTION ( 'NONE',  ( -0.000000000000000000, -0.000000000000000000, -1.000000000000000000 ) ) ;
#601 = CARTESIAN_POINT ( 'NONE',  ( 0.000000000000000000, -5.143516556418882533E-15, 27.07500000000001350 ) ) ;
#602 = CARTESIAN_POINT ( 'NONE',  ( 2.313572001446708657E-16, -2.309401076758503368, 24.50000000000000355 ) ) ;
#603 = EDGE_CURVE ( 'NONE', #520, #538, #285, .T. ) ;
#604 = SHAPE_DEFINITION_REPRESENTATION ( #382, #115 ) ;
#605 = AXIS2_PLACEMENT_3D ( 'NONE', #479, #5, #482 ) ;
#606 = CARTESIAN_POINT ( 'NONE',  ( 0.000000000000000000, -5.143516556418882533E-15, 22.71250000000000568 ) ) ;
#607 = ORIENTED_EDGE ( 'NONE', *, *, #357, .T. ) ;
#608 = ORIENTED_EDGE ( 'NONE', *, *, #301, .T. ) ;
#609 = CALENDAR_DATE ( 2026, 8, 1 ) ;
#610 = LINE ( 'NONE', #252, #203 ) ;
#611 = ORIENTED_EDGE ( 'NONE', *, *, #526, .F. ) ;
#612 = DIRECTION ( 'NONE',  ( -0.000000000000000000, -0.000000000000000000, -1.000000000000000000 ) ) ;
#613 = CARTESIAN_POINT ( 'NONE',  ( 6.071532165918824830E-15, -2.309401076758505589, 27.50000000000000355 ) ) ;
#614 = EDGE_LOOP ( 'NONE', ( #143, #391 ) ) ;
#615 = ADVANCED_FACE ( 'NONE', ( #523 ), #73, .T. ) ;
#616 = CIRCLE ( 'NONE', #46, 4.249999999999996447 ) ;
#617 = CARTESIAN_POINT ( 'NONE',  ( -0.1634839680024521846, -2.215013563824098419, 27.44550534399825281 ) ) ;
#618 = ORIENTED_EDGE ( 'NONE', *, *, #332, .T. ) ;
#619 = DIRECTION ( 'NONE',  ( -0.000000000000000000, -0.000000000000000000, 1.000000000000000000 ) ) ;
#620 = VERTEX_POINT ( 'NONE', #221 ) ;
#621 = DIRECTION ( 'NONE',  ( 0.000000000000000000, 1.000000000000000000, 0.000000000000000000 ) ) ;
#622 = CARTESIAN_POINT ( 'NONE',  ( -0.8318705521472798958, -1.829120389545348280, 27.32124300597936539 ) ) ;
#623 = EDGE_CURVE ( 'NONE', #376, #77, #411, .T. ) ;
#624 = APPROVAL ( #497, 'UNSPECIFIED' ) ;
#625 = CARTESIAN_POINT ( 'NONE',  ( 2.313572001446708657E-16, -2.309401076758503368, 24.50000000000000355 ) ) ;
#626 = CARTESIAN_POINT ( 'NONE',  ( 6.071532165918824830E-15, -2.309401076758505589, 27.50000000000000355 ) ) ;
#627 = CARTESIAN_POINT ( 'NONE',  ( 0.6620079119860261541, 1.927190630567707341, 27.33829109969720861 ) ) ;
#628 = CARTESIAN_POINT ( 'NONE',  ( 0.000000000000000000, -2.805907722635941134E-15, 27.50000000000000355 ) ) ;
#629 = ORIENTED_EDGE ( 'NONE', *, *, #7, .F. ) ;
#630 = DIRECTION ( 'NONE',  ( 1.000000000000000000, 0.000000000000000000, 0.000000000000000000 ) ) ;
#631 = DIRECTION ( 'NONE',  ( -1.000000000000000000, 0.000000000000000000, 0.000000000000000000 ) ) ;
#632 = EDGE_LOOP ( 'NONE', ( #480, #438 ) ) ;
#633 = CARTESIAN_POINT ( 'NONE',  ( 0.000000000000000000, -2.805907722635941134E-15, 27.50000000000000355 ) ) ;
#634 = EDGE_CURVE ( 'NONE', #769, #77, #289, .T. ) ;
#635 = CARTESIAN_POINT ( 'NONE',  ( 2.499999999999996891, -4.837354856632045452E-15, -26.90000000000000213 ) ) ;
#636 = ORIENTED_EDGE ( 'NONE', *, *, #150, .F. ) ;
#637 = CIRCLE ( 'NONE', #173, 1.899999999999993028 ) ;
#638 = VECTOR ( 'NONE', #582, 1000.000000000000000 ) ;
#639 = LOCAL_TIME ( 14, 15, 12.00000000000000000, #199 ) ;
#640 = CLOSED_SHELL ( 'NONE', ( #615, #297, #721, #87, #427, #76, #532, #596, #741, #692, #403, #766, #17, #243, #52, #257, #592, #541, #566, #293, #99, #335, #235, #113, #307, #770, #712 ) ) ;
#641 = CARTESIAN_POINT ( 'NONE',  ( 4.249999999999996447, -4.623041666781258154E-15, 27.07500000000001350 ) ) ;
#642 = DIRECTION ( 'NONE',  ( -0.7071067811865416886, 0.000000000000000000, -0.7071067811865532349 ) ) ;
#643 = VERTEX_POINT ( 'NONE', #36 ) ;
#644 = PLANE ( 'NONE',  #460 ) ;
#645 = DIRECTION ( 'NONE',  ( -0.000000000000000000, -0.000000000000000000, -1.000000000000000000 ) ) ;
#646 = ORIENTED_EDGE ( 'NONE', *, *, #647, .F. ) ;
#647 = EDGE_CURVE ( 'NONE', #580, #273, #114, .T. ) ;
#648 = VERTEX_POINT ( 'NONE', #217 ) ;
#649 = DIRECTION ( 'NONE',  ( 0.7071067811865416886, 8.659560562354862600E-17, -0.7071067811865532349 ) ) ;
#650 = APPROVAL ( #549, 'UNSPECIFIED' ) ;
#651 = CARTESIAN_POINT ( 'NONE',  ( 2.000000000000000000, 1.154700538379250796, 24.50000000000000355 ) ) ;
#652 = LINE ( 'NONE', #248, #177 ) ;
#653 = CARTESIAN_POINT ( 'NONE',  ( 0.000000000000000000, -5.143516556418882533E-15, -26.90000000000000213 ) ) ;
#654 = CIRCLE ( 'NONE', #97, 2.309401076758503368 ) ;
#655 = AXIS2_PLACEMENT_3D ( 'NONE', #310, #423, #132 ) ;
#656 = FACE_OUTER_BOUND ( 'NONE', #587, .T. ) ;
#657 = CARTESIAN_POINT ( 'NONE',  ( 2.000000000000000000, 0.3926980414910277162, 27.33854355070655728 ) ) ;
#658 = DIRECTION ( 'NONE',  ( -0.000000000000000000, -0.000000000000000000, -1.000000000000000000 ) ) ;
#659 = CARTESIAN_POINT ( 'NONE',  ( 2.000000000000000000, 1.154700538379250796, 24.50000000000000355 ) ) ;
#660 = DIRECTION ( 'NONE',  ( 0.7071067811865591191, 0.000000000000000000, 0.7071067811865360264 ) ) ;
#661 = DIRECTION ( 'NONE',  ( 0.000000000000000000, 0.000000000000000000, 1.000000000000000000 ) ) ;
#662 = PERSON_AND_ORGANIZATION_ROLE ( 'classification_officer' ) ;
#663 = DIRECTION ( 'NONE',  ( -0.000000000000000000, -0.000000000000000000, 1.000000000000000000 ) ) ;
#664 = ORIENTED_EDGE ( 'NONE', *, *, #168, .T. ) ;
#665 = DIRECTION ( 'NONE',  ( -0.000000000000000000, -0.000000000000000000, 1.000000000000000000 ) ) ;
#666 = PERSON_AND_ORGANIZATION ( #269, #488 ) ;
#667 = CONICAL_SURFACE ( 'NONE', #126, 2.309401076758503368, 1.047197551196600074 ) ;
#668 = DIRECTION ( 'NONE',  ( 1.000000000000000000, 0.000000000000000000, 0.000000000000000000 ) ) ;
#669 = VERTEX_POINT ( 'NONE', #160 ) ;
#670 = VERTEX_POINT ( 'NONE', #449 ) ;
#671 = PERSON_AND_ORGANIZATION ( #269, #488 ) ;
#672 = DIRECTION ( 'NONE',  ( -1.000000000000000000, 0.000000000000000000, 0.000000000000000000 ) ) ;
#673 = ORIENTED_EDGE ( 'NONE', *, *, #456, .F. ) ;
#674 = EDGE_CURVE ( 'NONE', #769, #318, #400, .T. ) ;
#675 = EDGE_CURVE ( 'NONE', #124, #376, #92, .T. ) ;
#676 = CARTESIAN_POINT ( 'NONE',  ( -4.249999999999996447, -5.143516556418882533E-15, 27.07500000000001350 ) ) ;
#677 = VERTEX_POINT ( 'NONE', #32 ) ;
#678 = VECTOR ( 'NONE', #116, 1000.000000000000114 ) ;
#679 = CARTESIAN_POINT ( 'NONE',  ( -8.999094290051373065E-16, 2.309401076758501592, 24.50000000000000355 ) ) ;
#680 = VERTEX_POINT ( 'NONE', #279 ) ;
#681 = LINE ( 'NONE', #230, #33 ) ;
#682 = CARTESIAN_POINT ( 'NONE',  ( 1.168129447852717107, -1.634981225592408105, 27.32124300597936895 ) ) ;
#683 = CARTESIAN_POINT ( 'NONE',  ( 2.000000000000000000, -1.154700538379251684, 24.50000000000000355 ) ) ;
#684 = DIRECTION ( 'NONE',  ( -0.000000000000000000, -0.000000000000000000, -1.000000000000000000 ) ) ;
#685 = FACE_OUTER_BOUND ( 'NONE', #345, .T. ) ;
#686 = LINE ( 'NONE', #408, #678 ) ;
#687 = ORIENTED_EDGE ( 'NONE', *, *, #301, .F. ) ;
#688 = AXIS2_PLACEMENT_3D ( 'NONE', #536, #711, #421 ) ;
#689 = CARTESIAN_POINT ( 'NONE',  ( 0.000000000000000000, -2.805907722635941134E-15, 27.50000000000000355 ) ) ;
#690 = CARTESIAN_POINT ( 'NONE',  ( 0.000000000000000000, -5.143516556418882533E-15, -26.90000000000000213 ) ) ;
#691 = EDGE_LOOP ( 'NONE', ( #91, #19, #83, #284 ) ) ;
#692 = ADVANCED_FACE ( 'NONE', ( #512 ), #749, .T. ) ;
#693 = CARTESIAN_POINT ( 'NONE',  ( -2.000000000000000000, 1.154700538379250130, 24.50000000000000355 ) ) ;
#694 = CARTESIAN_POINT ( 'NONE',  ( 2.000000000000000000, 1.154700538379250796, 24.50000000000000355 ) ) ;
#695 = VERTEX_POINT ( 'NONE', #571 ) ;
#696 = CC_DESIGN_PERSON_AND_ORGANIZATION_ASSIGNMENT ( #671, #722, ( #94 ) ) ;
#697 =( LENGTH_UNIT ( ) NAMED_UNIT ( * ) SI_UNIT ( .MILLI., .METRE. ) );
#698 = FACE_OUTER_BOUND ( 'NONE', #614, .T. ) ;
#699 = ORIENTED_EDGE ( 'NONE', *, *, #150, .T. ) ;
#700 = VECTOR ( 'NONE', #416, 1000.000000000000000 ) ;
#701 = CIRCLE ( 'NONE', #521, 3.825000000000012612 ) ;
#702 = AXIS2_PLACEMENT_3D ( 'NONE', #763, #63, #415 ) ;
#703 = VECTOR ( 'NONE', #90, 1000.000000000000000 ) ;
#704 = LINE ( 'NONE', #659, #308 ) ;
#705 = DIRECTION ( 'NONE',  ( -0.8660254037844385966, -0.5000000000000001110, 0.000000000000000000 ) ) ;
#706 = ORIENTED_EDGE ( 'NONE', *, *, #357, .F. ) ;
#707 = EDGE_CURVE ( 'NONE', #318, #580, #704, .T. ) ;
#708 = APPLICATION_CONTEXT ( 'configuration controlled 3d designs of mechanical parts and assemblies' ) ;
#709 = ORIENTED_EDGE ( 'NONE', *, *, #570, .T. ) ;
#710 = CARTESIAN_POINT ( 'NONE',  ( 2.000000000000000444, -0.7748210373917208127, 27.40036114778518694 ) ) ;
#711 = DIRECTION ( 'NONE',  ( 0.000000000000000000, 0.000000000000000000, 1.000000000000000000 ) ) ;
#712 = ADVANCED_FACE ( 'NONE', ( #656 ), #339, .T. ) ;
#713 = APPROVAL_ROLE ( '' ) ;
#714 = CARTESIAN_POINT ( 'NONE',  ( 2.000000000000000444, -0.9671182786507896978, 27.44584966592527309 ) ) ;
#715 = CARTESIAN_POINT ( 'NONE',  ( 0.000000000000000000, 4.249999999999992006, 27.50000000000000355 ) ) ;
#716 = AXIS2_PLACEMENT_3D ( 'NONE', #653, #429, #315 ) ;
#717 = AXIS2_PLACEMENT_3D ( 'NONE', #689, #754, #630 ) ;
#718 = DIRECTION ( 'NONE',  ( -1.000000000000000000, 0.000000000000000000, 0.000000000000000000 ) ) ;
#719 = PLANE ( 'NONE',  #605 ) ;
#720 = CARTESIAN_POINT ( 'NONE',  ( 0.000000000000000000, -5.143516556418882533E-15, -27.50000000000000000 ) ) ;
#721 = ADVANCED_FACE ( 'NONE', ( #172 ), #398, .F. ) ;
#722 = PERSON_AND_ORGANIZATION_ROLE ( 'creator' ) ;
#723 = CARTESIAN_POINT ( 'NONE',  ( -2.000000000000000000, 0.7788935037131612393, 27.40122022330599805 ) ) ;
#724 = VERTEX_POINT ( 'NONE', #178 ) ;
#725 = ORIENTED_EDGE ( 'NONE', *, *, #211, .T. ) ;
#726 = COORDINATED_UNIVERSAL_TIME_OFFSET ( 6, 0, .BEHIND. ) ;
#727 = DIRECTION ( 'NONE',  ( 0.000000000000000000, 0.000000000000000000, 1.000000000000000000 ) ) ;
#728 = EDGE_LOOP ( 'NONE', ( #611, #553, #443, #495 ) ) ;
#729 = AXIS2_PLACEMENT_3D ( 'NONE', #145, #220, #572 ) ;
#730 = ORIENTED_EDGE ( 'NONE', *, *, #138, .F. ) ;
#731 = PERSON_AND_ORGANIZATION_ROLE ( 'creator' ) ;
#732 = AXIS2_PLACEMENT_3D ( 'NONE', #435, #265, #668 ) ;
#733 = CARTESIAN_POINT ( 'NONE',  ( -2.000000000000000000, -0.3886478511485346177, 27.33808864975271646 ) ) ;
#734 = EDGE_LOOP ( 'NONE', ( #463, #417 ) ) ;
#735 = ORIENTED_EDGE ( 'NONE', *, *, #40, .F. ) ;
#736 = PRODUCT_RELATED_PRODUCT_CATEGORY ( 'detail', '', ( #498 ) ) ;
#737 = CARTESIAN_POINT ( 'NONE',  ( -4.249999999999996447, -5.143516556418882533E-15, 22.71250000000000568 ) ) ;
#738 = EDGE_LOOP ( 'NONE', ( #455, #180, #590, #329 ) ) ;
#739 = CARTESIAN_POINT ( 'NONE',  ( -0.3265611723794570320, 2.120860895978343041, 27.39114627587169792 ) ) ;
#740 = EDGE_LOOP ( 'NONE', ( #42, #107, #80, #12, #446 ) ) ;
#741 = ADVANCED_FACE ( 'NONE', ( #468, #588 ), #644, .T. ) ;
#742 = AXIS2_PLACEMENT_3D ( 'NONE', #568, #750, #386 ) ;
#743 = B_SPLINE_CURVE_WITH_KNOTS ( 'NONE', 3,
 ( #71, #367, #723, #543, #426, #378, #733, #79, #499, #11 ),
 .UNSPECIFIED., .F., .F.,
 ( 4, 2, 2, 2, 4 ),
 ( 0.006184514843718233630, 0.006769127462703781323, 0.007353740081689328148, 0.007938352700674876708, 0.008522965319660423533 ),
 .UNSPECIFIED. ) ;
#744 = CC_DESIGN_PERSON_AND_ORGANIZATION_ASSIGNMENT ( #122, #585, ( #498 ) ) ;
#745 = CONICAL_SURFACE ( 'NONE', #149, 1.899999999999993028, 0.7853981633974547183 ) ;
#746 = FACE_OUTER_BOUND ( 'NONE', #533, .T. ) ;
#747 = PRODUCT_DEFINITION_FORMATION_WITH_SPECIFIED_SOURCE ( 'ANY', '', #498, .NOT_KNOWN. ) ;
#748 = AXIS2_PLACEMENT_3D ( 'NONE', #381, #612, #304 ) ;
#749 = CYLINDRICAL_SURFACE ( 'NONE', #47, 2.499999999999996891 ) ;
#750 = DIRECTION ( 'NONE',  ( 0.000000000000000000, 0.000000000000000000, 1.000000000000000000 ) ) ;
#751 = DIRECTION ( 'NONE',  ( 1.000000000000000000, 0.000000000000000000, 0.000000000000000000 ) ) ;
#752 = CARTESIAN_POINT ( 'NONE',  ( -2.499999999999996891, -5.143516556418882533E-15, -27.50000000000000000 ) ) ;
#753 = ORIENTED_EDGE ( 'NONE', *, *, #707, .T. ) ;
#754 = DIRECTION ( 'NONE',  ( 0.000000000000000000, 0.000000000000000000, 1.000000000000000000 ) ) ;
#755 = DIRECTION ( 'NONE',  ( 1.000000000000000000, 0.000000000000000000, 0.000000000000000000 ) ) ;
#756 = ORIENTED_EDGE ( 'NONE', *, *, #185, .T. ) ;
#757 = CIRCLE ( 'NONE', #239, 1.899999999999993028 ) ;
#758 = CC_DESIGN_SECURITY_CLASSIFICATION ( #254, ( #747 ) ) ;
#759 = EDGE_CURVE ( 'NONE', #648, #21, #473, .T. ) ;
#760 = CARTESIAN_POINT ( 'NONE',  ( 0.000000000000000000, 0.000000000000000000, 24.50000000000000355 ) ) ;
#761 = FACE_OUTER_BOUND ( 'NONE', #379, .T. ) ;
#762 = VERTEX_POINT ( 'NONE', #233 ) ;
#763 = CARTESIAN_POINT ( 'NONE',  ( 0.000000000000000000, -5.143516556418882533E-15, 22.50000000000000355 ) ) ;
#764 = CARTESIAN_POINT ( 'NONE',  ( -8.999094290051373065E-16, 2.309401076758501592, 24.50000000000000355 ) ) ;
#765 = ORIENTED_EDGE ( 'NONE', *, *, #255, .F. ) ;
#766 = ADVANCED_FACE ( 'NONE', ( #365 ), #767, .T. ) ;
#767 = PLANE ( 'NONE',  #9 ) ;
#768 = DIRECTION ( 'NONE',  ( -0.000000000000000000, -0.000000000000000000, -1.000000000000000000 ) ) ;
#769 = VERTEX_POINT ( 'NONE', #1 ) ;
#770 = ADVANCED_FACE ( 'NONE', ( #58 ), #62, .T. ) ;
#771 = VECTOR ( 'NONE', #384, 1000.000000000000114 ) ;
#772 = VECTOR ( 'NONE', #320, 1000.000000000000000 ) ;
#773 = CIRCLE ( 'NONE', #396, 2.499999999999997335 ) ;
#774 = DIRECTION ( 'NONE',  ( 1.000000000000000000, 0.000000000000000000, 0.000000000000000000 ) ) ;
#775 = CARTESIAN_POINT ( 'NONE',  ( 2.000000000000000000, -2.805907727437362755E-15, 27.32136720504592375 ) ) ;
#776 = VERTEX_POINT ( 'NONE', #67 ) ;
ENDSEC;
END-ISO-10303-21;
