ISO-10303-21;
HEADER;
FILE_DESCRIPTION (( 'STEP AP203' ),
    '1' );
FILE_NAME ('98164A527_NO THREADS_316 Stainless Steel Button Head Hex-Drive Screw.STEP',
    '2026-06-02T19:26:00',
    ( 'McMaster Carr Supply' ),
    ( 'McMaster Carr Supply' ),
    'SwSTEP 2.0',
    'SolidWorks 2024',
    '' );
FILE_SCHEMA (( 'CONFIG_CONTROL_DESIGN' ));
ENDSEC;

DATA;
#1 =( GEOMETRIC_REPRESENTATION_CONTEXT ( 3 ) GLOBAL_UNCERTAINTY_ASSIGNED_CONTEXT ( ( #230 ) ) GLOBAL_UNIT_ASSIGNED_CONTEXT ( ( #609, #85, #678 ) ) REPRESENTATION_CONTEXT ( 'NONE', 'WORKASPACE' ) );
#2 = PRODUCT_DEFINITION_SHAPE ( 'NONE', 'NONE',  #133 ) ;
#3 = VERTEX_POINT ( 'NONE', #72 ) ;
#4 = CIRCLE ( 'NONE', #486, 0.1082531754730552548 ) ;
#5 = CARTESIAN_POINT ( 'NONE',  ( 0.000000000000000000, 0.1164581754730547175, 0.8535000000000000364 ) ) ;
#6 = CIRCLE ( 'NONE', #632, 0.2724282433902219802 ) ;
#7 = ADVANCED_FACE ( 'NONE', ( #342 ), #590, .T. ) ;
#8 = CARTESIAN_POINT ( 'NONE',  ( -0.08638195342894004758, 0.05838053140773064031, 0.8492460563287824726 ) ) ;
#9 = EDGE_CURVE ( 'NONE', #568, #642, #713, .T. ) ;
#10 = PERSON_AND_ORGANIZATION ( #191, #195 ) ;
#11 = EDGE_LOOP ( 'NONE', ( #58, #252, #814, #551 ) ) ;
#12 = DIRECTION ( 'NONE',  ( 0.000000000000000000, -1.000000000000000000, 0.000000000000000000 ) ) ;
#13 = EDGE_CURVE ( 'NONE', #269, #454, #218, .T. ) ;
#14 = CARTESIAN_POINT ( 'NONE',  ( 0.000000000000000000, -3.061616997868373773E-17, 0.6874999999999998890 ) ) ;
#15 = LOCAL_TIME ( 14, 26, 0.000000000000000000, #743 ) ;
#16 = DATE_AND_TIME ( #550, #838 ) ;
#17 = FACE_OUTER_BOUND ( 'NONE', #772, .T. ) ;
#18 = AXIS2_PLACEMENT_3D ( 'NONE', #468, #615, #485 ) ;
#19 = PERSON_AND_ORGANIZATION ( #191, #195 ) ;
#20 = CC_DESIGN_PERSON_AND_ORGANIZATION_ASSIGNMENT ( #10, #145, ( #133 ) ) ;
#21 = APPLICATION_CONTEXT ( 'configuration controlled 3d designs of mechanical parts and assemblies' ) ;
#22 = DIRECTION ( 'NONE',  ( -0.000000000000000000, -4.350774375908397289E-16, 1.000000000000000000 ) ) ;
#23 = APPROVAL_ROLE ( '' ) ;
#24 = CARTESIAN_POINT ( 'NONE',  ( 1.916572240665606299E-17, 0.1564999999999999447, 0.6875000000000000000 ) ) ;
#25 = CARTESIAN_POINT ( 'NONE',  ( 0.000000000000000000, -3.061616997868379936E-17, 0.6875000000000000000 ) ) ;
#26 = ORIENTED_EDGE ( 'NONE', *, *, #611, .F. ) ;
#27 = PERSON_AND_ORGANIZATION ( #191, #195 ) ;
#28 = AXIS2_PLACEMENT_3D ( 'NONE', #354, #30, #285 ) ;
#29 = ORIENTED_EDGE ( 'NONE', *, *, #434, .T. ) ;
#30 = DIRECTION ( 'NONE',  ( 0.4999999999999998890, -0.8660254037844387076, 0.000000000000000000 ) ) ;
#31 = CIRCLE ( 'NONE', #265, 0.1164581754730548147 ) ;
#32 = EDGE_CURVE ( 'NONE', #335, #843, #614, .T. ) ;
#33 = CARTESIAN_POINT ( 'NONE',  ( 0.000000000000000000, -6.829619984160658046E-17, 0.5659416960826109122 ) ) ;
#34 = MANIFOLD_SOLID_BREP ( 'Fillet1', #542 ) ;
#35 = VERTEX_POINT ( 'NONE', #24 ) ;
#36 = CARTESIAN_POINT ( 'NONE',  ( -2.461025194972817583E-17, -0.1082531754730555740, 0.7373000000000000664 ) ) ;
#37 = ORIENTED_EDGE ( 'NONE', *, *, #245, .F. ) ;
#38 = CARTESIAN_POINT ( 'NONE',  ( -0.03081907291078602937, -0.09045977543183857106, 0.8404078827389269701 ) ) ;
#39 = ORIENTED_EDGE ( 'NONE', *, *, #453, .F. ) ;
#40 = ADVANCED_FACE ( 'NONE', ( #489 ), #817, .F. ) ;
#41 = CARTESIAN_POINT ( 'NONE',  ( -0.05113969645128516039, -0.07872765796063033172, 0.8390070829467626279 ) ) ;
#42 = VECTOR ( 'NONE', #798, 39.37007874015748854 ) ;
#43 = AXIS2_PLACEMENT_3D ( 'NONE', #530, #728, #784 ) ;
#44 = VECTOR ( 'NONE', #360, 39.37007874015748854 ) ;
#45 = ORIENTED_EDGE ( 'NONE', *, *, #555, .T. ) ;
#46 = ORIENTED_EDGE ( 'NONE', *, *, #584, .T. ) ;
#47 = CARTESIAN_POINT ( 'NONE',  ( 0.08642512298473407906, 0.05835560745307214608, 0.8492709802834557120 ) ) ;
#48 = ORIENTED_EDGE ( 'NONE', *, *, #735, .F. ) ;
#49 = DIRECTION ( 'NONE',  ( 0.7071067811865486830, 0.000000000000000000, 0.7071067811865462405 ) ) ;
#50 = ORIENTED_EDGE ( 'NONE', *, *, #538, .T. ) ;
#51 = DIRECTION ( 'NONE',  ( 0.000000000000000000, 4.350774375908397289E-16, -1.000000000000000000 ) ) ;
#52 = ORIENTED_EDGE ( 'NONE', *, *, #364, .F. ) ;
#53 = PLANE ( 'NONE',  #279 ) ;
#54 = CARTESIAN_POINT ( 'NONE',  ( 0.09375000000000029143, -3.713385929965635761E-16, 0.8389968245269451286 ) ) ;
#55 = ORIENTED_EDGE ( 'NONE', *, *, #434, .F. ) ;
#56 = CARTESIAN_POINT ( 'NONE',  ( 0.03039877957151658830, -0.09070243190440434311, 0.8407971146513557592 ) ) ;
#57 = ADVANCED_FACE ( 'NONE', ( #810 ), #223, .T. ) ;
#58 = ORIENTED_EDGE ( 'NONE', *, *, #193, .T. ) ;
#59 = AXIS2_PLACEMENT_3D ( 'NONE', #416, #608, #203 ) ;
#60 = EDGE_LOOP ( 'NONE', ( #182, #577 ) ) ;
#61 = CARTESIAN_POINT ( 'NONE',  ( 0.09375000000000029143, -0.05412658773652798128, 0.7373000000000000664 ) ) ;
#62 = ORIENTED_EDGE ( 'NONE', *, *, #9, .F. ) ;
#63 = DIRECTION ( 'NONE',  ( 0.000000000000000000, -1.000000000000000000, 0.000000000000000000 ) ) ;
#64 = ORIENTED_EDGE ( 'NONE', *, *, #645, .T. ) ;
#65 = CARTESIAN_POINT ( 'NONE',  ( 0.007324877015266221050, -0.1040241557565106945, 0.8492709802834551569 ) ) ;
#66 = ORIENTED_EDGE ( 'NONE', *, *, #80, .F. ) ;
#67 = FACE_OUTER_BOUND ( 'NONE', #228, .T. ) ;
#68 = CARTESIAN_POINT ( 'NONE',  ( 0.000000000000000000, -4.053508165780865806E-17, 0.7102980373655986002 ) ) ;
#69 = DIRECTION ( 'NONE',  ( 1.000000000000000000, 0.000000000000000000, -0.000000000000000000 ) ) ;
#70 = EDGE_CURVE ( 'NONE', #778, #750, #472, .T. ) ;
#71 = VECTOR ( 'NONE', #130, 39.37007874015748854 ) ;
#72 = CARTESIAN_POINT ( 'NONE',  ( 0.000000000000000000, -0.2727349481675381271, 0.7102980373655984891 ) ) ;
#73 = PRODUCT_DEFINITION_FORMATION_WITH_SPECIFIED_SOURCE ( 'ANY', '', #131, .NOT_KNOWN. ) ;
#74 = CONICAL_SURFACE ( 'NONE', #420, 0.1564999999999997504, 0.7853981633974497223 ) ;
#75 = DIRECTION ( 'NONE',  ( -0.000000000000000000, -0.000000000000000000, 1.000000000000000000 ) ) ;
#76 = AXIS2_PLACEMENT_3D ( 'NONE', #736, #150, #172 ) ;
#77 = CARTESIAN_POINT ( 'NONE',  ( 0.000000000000000000, 5.494870801422907997E-16, -0.6458333333329999704 ) ) ;
#78 = DATE_TIME_ROLE ( 'classification_date' ) ;
#79 = CARTESIAN_POINT ( 'NONE',  ( 0.000000000000000000, -3.278285561788612339E-17, 0.6924799999999997624 ) ) ;
#80 = EDGE_CURVE ( 'NONE', #186, #261, #822, .T. ) ;
#81 = COORDINATED_UNIVERSAL_TIME_OFFSET ( 6, 0, .BEHIND. ) ;
#82 = CARTESIAN_POINT ( 'NONE',  ( -2.461025194972817583E-17, -0.1082531754730555740, 0.7373000000000000664 ) ) ;
#83 = DIRECTION ( 'NONE',  ( -0.000000000000000000, -0.000000000000000000, 1.000000000000000000 ) ) ;
#84 = VECTOR ( 'NONE', #776, 39.37007874015748143 ) ;
#85 =( NAMED_UNIT ( * ) PLANE_ANGLE_UNIT ( ) SI_UNIT ( $, .RADIAN. ) );
#86 = CARTESIAN_POINT ( 'NONE',  ( 0.000000000000000000, -0.2656297768780010449, 0.6907767396862378728 ) ) ;
#87 = CONICAL_SURFACE ( 'NONE', #528, 0.1082531754730552548, 0.7853981633974500554 ) ;
#88 = ORIENTED_EDGE ( 'NONE', *, *, #373, .T. ) ;
#89 = DIRECTION ( 'NONE',  ( -1.224646799147357398E-16, 1.000000000000000000, 0.000000000000000000 ) ) ;
#90 = VECTOR ( 'NONE', #317, 39.37007874015748143 ) ;
#91 = DIMENSIONAL_EXPONENTS ( 1.000000000000000000, 0.000000000000000000, 0.000000000000000000, 0.000000000000000000, 0.000000000000000000, 0.000000000000000000, 0.000000000000000000 ) ;
#92 = DIRECTION ( 'NONE',  ( 0.000000000000000000, -1.000000000000000000, 0.000000000000000000 ) ) ;
#93 = CARTESIAN_POINT ( 'NONE',  ( 0.000000000000000000, 0.000000000000000000, 0.000000000000000000 ) ) ;
#94 = CARTESIAN_POINT ( 'NONE',  ( 6.236215755072429743E-19, 0.1082531754730548385, 0.8535000000000000364 ) ) ;
#95 = DIRECTION ( 'NONE',  ( 0.000000000000000000, 4.350774375908397289E-16, -1.000000000000000000 ) ) ;
#96 = PERSON_AND_ORGANIZATION ( #191, #195 ) ;
#97 = EDGE_CURVE ( 'NONE', #335, #312, #807, .T. ) ;
#98 = CARTESIAN_POINT ( 'NONE',  ( 0.000000000000000000, -3.061616997868376855E-17, 0.6874999999999998890 ) ) ;
#99 = CARTESIAN_POINT ( 'NONE',  ( 0.09375000000000029143, 0.05412658773652728045, 0.7373000000000000664 ) ) ;
#100 = CARTESIAN_POINT ( 'NONE',  ( -0.01495450093053912570, -0.09961919033521231259, 0.8455985108849232157 ) ) ;
#101 = DIRECTION ( 'NONE',  ( -0.4999999999999998890, -0.8660254037844387076, 0.000000000000000000 ) ) ;
#102 = ADVANCED_FACE ( 'NONE', ( #175 ), #74, .T. ) ;
#103 = CARTESIAN_POINT ( 'NONE',  ( -0.09375000000000033307, 0.03694468103452352992, 0.8456380575121591470 ) ) ;
#104 = LINE ( 'NONE', #99, #667 ) ;
#105 = DIRECTION ( 'NONE',  ( -0.000000000000000000, -0.000000000000000000, 1.000000000000000000 ) ) ;
#106 = FACE_OUTER_BOUND ( 'NONE', #60, .T. ) ;
#107 = DIRECTION ( 'NONE',  ( -1.000000000000000000, 1.224646799147353207E-16, 5.328161913268542493E-32 ) ) ;
#108 = AXIS2_PLACEMENT_3D ( 'NONE', #25, #490, #12 ) ;
#109 = CIRCLE ( 'NONE', #386, 0.1082531754730552548 ) ;
#110 = ORIENTED_EDGE ( 'NONE', *, *, #330, .T. ) ;
#111 = DIRECTION ( 'NONE',  ( 0.000000000000000000, -1.000000000000000000, -4.350774375908397289E-16 ) ) ;
#112 = ADVANCED_FACE ( 'NONE', ( #321 ), #154, .T. ) ;
#113 = FACE_BOUND ( 'NONE', #661, .T. ) ;
#114 = ORIENTED_EDGE ( 'NONE', *, *, #318, .F. ) ;
#115 = CARTESIAN_POINT ( 'NONE',  ( 0.09375000000000029143, -0.05412658773652809230, 0.8535000000000000364 ) ) ;
#116 = EDGE_CURVE ( 'NONE', #673, #642, #845, .T. ) ;
#117 = ORIENTED_EDGE ( 'NONE', *, *, #424, .T. ) ;
#118 = CARTESIAN_POINT ( 'NONE',  ( 0.09375000000000029143, -3.713385929965635761E-16, 0.8389968245269451286 ) ) ;
#119 = DIRECTION ( 'NONE',  ( 0.000000000000000000, 4.350774375908397289E-16, -1.000000000000000000 ) ) ;
#120 = VERTEX_POINT ( 'NONE', #534 ) ;
#121 = CIRCLE ( 'NONE', #613, 0.1148333333329992767 ) ;
#122 = FACE_OUTER_BOUND ( 'NONE', #435, .T. ) ;
#123 = VECTOR ( 'NONE', #408, 39.37007874015748854 ) ;
#124 = CARTESIAN_POINT ( 'NONE',  ( 0.000000000000000000, 5.494870801422907997E-16, -0.6458333333329999704 ) ) ;
#125 = ORIENTED_EDGE ( 'NONE', *, *, #668, .T. ) ;
#126 = CARTESIAN_POINT ( 'NONE',  ( 1.916572240665608148E-17, 0.1565000000000003055, -0.6458333333329999704 ) ) ;
#127 = ADVANCED_FACE ( 'NONE', ( #134 ), #368, .T. ) ;
#128 = DIRECTION ( 'NONE',  ( 0.000000000000000000, 1.000000000000000000, 4.350774375908397289E-16 ) ) ;
#129 = ORIENTED_EDGE ( 'NONE', *, *, #453, .T. ) ;
#130 = DIRECTION ( 'NONE',  ( -0.8660254037844385966, -0.4999999999999998335, 0.000000000000000000 ) ) ;
#131 = PRODUCT ( '98164A527_NO THREADS_316 Stainless Steel Button Head Hex-Drive Screw', '98164A527_NO THREADS_316 Stainless Steel Button Head Hex-Drive Screw', '', ( #355 ) ) ;
#132 = LINE ( 'NONE', #303, #266 ) ;
#133 = PRODUCT_DEFINITION ( 'UNKNOWN', '', #73, #170 ) ;
#134 = FACE_OUTER_BOUND ( 'NONE', #326, .T. ) ;
#135 = LINE ( 'NONE', #649, #71 ) ;
#136 = CONICAL_SURFACE ( 'NONE', #458, 0.2644371411667715277, 0.3490658503988613992 ) ;
#137 = APPROVAL_PERSON_ORGANIZATION ( #27, #844, #23 ) ;
#138 = CARTESIAN_POINT ( 'NONE',  ( 0.000000000000000000, -6.829619984160658046E-17, 0.5659416960826109122 ) ) ;
#139 = AXIS2_PLACEMENT_3D ( 'NONE', #374, #626, #507 ) ;
#140 = EDGE_CURVE ( 'NONE', #312, #3, #569, .T. ) ;
#141 = DIRECTION ( 'NONE',  ( -1.000000000000000000, 0.000000000000000000, 0.000000000000000000 ) ) ;
#142 = APPROVAL_DATE_TIME ( #16, #844 ) ;
#143 = CARTESIAN_POINT ( 'NONE',  ( 0.09375000000000029143, 0.05412658773652728045, 0.7373000000000000664 ) ) ;
#144 = FACE_OUTER_BOUND ( 'NONE', #663, .T. ) ;
#145 = PERSON_AND_ORGANIZATION_ROLE ( 'creator' ) ;
#146 = ORIENTED_EDGE ( 'NONE', *, *, #393, .F. ) ;
#147 = DIRECTION ( 'NONE',  ( 1.000000000000000000, -0.000000000000000000, 0.000000000000000000 ) ) ;
#148 = ADVANCED_FACE ( 'NONE', ( #795 ), #465, .T. ) ;
#149 = CARTESIAN_POINT ( 'NONE',  ( 0.000000000000000000, 5.676153067087209388E-16, -0.6875000000000002220 ) ) ;
#150 = DIRECTION ( 'NONE',  ( 1.000000000000000000, -1.224646799147353207E-16, -5.328161913268542493E-32 ) ) ;
#151 = AXIS2_PLACEMENT_3D ( 'NONE', #98, #618, #670 ) ;
#152 = CARTESIAN_POINT ( 'NONE',  ( 0.000000000000000000, 5.676153067087209388E-16, -0.6875000000000002220 ) ) ;
#153 =( LENGTH_UNIT ( ) NAMED_UNIT ( * ) SI_UNIT ( $, .METRE. ) );
#154 = TOROIDAL_SURFACE ( 'NONE', #179, 0.2680552789160242089, 0.004980000000000000052 ) ;
#155 = LINE ( 'NONE', #414, #42 ) ;
#156 = VECTOR ( 'NONE', #566, 39.37007874015748854 ) ;
#157 = ADVANCED_FACE ( 'NONE', ( #476 ), #636, .T. ) ;
#158 = DIRECTION ( 'NONE',  ( -0.000000000000000000, -4.350774375908397289E-16, 1.000000000000000000 ) ) ;
#159 = ORIENTED_EDGE ( 'NONE', *, *, #627, .T. ) ;
#160 = ORIENTED_EDGE ( 'NONE', *, *, #9, .T. ) ;
#161 = DIRECTION ( 'NONE',  ( -0.8660254037844388186, 0.4999999999999998335, 0.000000000000000000 ) ) ;
#162 = DATE_AND_TIME ( #691, #806 ) ;
#163 = DIRECTION ( 'NONE',  ( -0.000000000000000000, -4.350774375908397289E-16, 1.000000000000000000 ) ) ;
#164 = CARTESIAN_POINT ( 'NONE',  ( -0.09375000000000031919, 0.01880593010291110867, 0.8404684250731677686 ) ) ;
#165 = ADVANCED_FACE ( 'NONE', ( #197 ), #267, .F. ) ;
#166 = AXIS2_PLACEMENT_3D ( 'NONE', #692, #362, #292 ) ;
#167 = DIRECTION ( 'NONE',  ( 1.000000000000000000, 0.000000000000000000, 0.000000000000000000 ) ) ;
#168 = CARTESIAN_POINT ( 'NONE',  ( 0.09375000000000029143, 0.05412658773652735678, 0.8535000000000000364 ) ) ;
#169 = DIRECTION ( 'NONE',  ( 0.000000000000000000, 1.000000000000000000, 4.350774375908397289E-16 ) ) ;
#170 = DESIGN_CONTEXT ( 'detailed design', #21, 'design' ) ;
#171 = CARTESIAN_POINT ( 'NONE',  ( 0.06335122042848369273, 0.07167733130517849049, 0.8407971146513562033 ) ) ;
#172 = DIRECTION ( 'NONE',  ( 1.224646799147357398E-16, 1.000000000000000000, 0.000000000000000000 ) ) ;
#173 = CARTESIAN_POINT ( 'NONE',  ( 0.000000000000000000, -3.713385929837817121E-16, 0.8535000000000000364 ) ) ;
#174 = VERTEX_POINT ( 'NONE', #461 ) ;
#175 = FACE_OUTER_BOUND ( 'NONE', #717, .T. ) ;
#176 = ORIENTED_EDGE ( 'NONE', *, *, #116, .T. ) ;
#177 = DIRECTION ( 'NONE',  ( -0.000000000000000000, -4.350774375908397289E-16, 1.000000000000000000 ) ) ;
#178 = CC_DESIGN_APPROVAL ( #844, ( #133 ) ) ;
#179 = AXIS2_PLACEMENT_3D ( 'NONE', #450, #209, #128 ) ;
#180 = AXIS2_PLACEMENT_3D ( 'NONE', #173, #377, #308 ) ;
#181 = ADVANCED_FACE ( 'NONE', ( #144 ), #473, .T. ) ;
#182 = ORIENTED_EDGE ( 'NONE', *, *, #491, .T. ) ;
#183 = CARTESIAN_POINT ( 'NONE',  ( -0.09375000000000033307, -0.01881719170370682939, 0.8404726216972450148 ) ) ;
#184 = DIRECTION ( 'NONE',  ( -1.000000000000000000, 0.000000000000000000, 0.000000000000000000 ) ) ;
#185 = VERTEX_POINT ( 'NONE', #545 ) ;
#186 = VERTEX_POINT ( 'NONE', #799 ) ;
#187 = CARTESIAN_POINT ( 'NONE',  ( 0.000000000000000000, -0.1564999999999991953, -0.6458333333329999704 ) ) ;
#188 = ORIENTED_EDGE ( 'NONE', *, *, #193, .F. ) ;
#189 = ORIENTED_EDGE ( 'NONE', *, *, #850, .F. ) ;
#190 = ORIENTED_EDGE ( 'NONE', *, *, #225, .T. ) ;
#191 = PERSON ( 'UNSPECIFIED', 'UNSPECIFIED', 'UNSPECIFIED', ('UNSPECIFIED'), ('UNSPECIFIED'), ('UNSPECIFIED') ) ;
#192 = PLANE ( 'NONE',  #586 ) ;
#193 = EDGE_CURVE ( 'NONE', #503, #281, #737, .T. ) ;
#194 = ORIENTED_EDGE ( 'NONE', *, *, #352, .F. ) ;
#195 = ORGANIZATION ( 'UNSPECIFIED', 'UNSPECIFIED', '' ) ;
#196 = TOROIDAL_SURFACE ( 'NONE', #676, 0.2680552789160242089, 0.004980000000000000052 ) ;
#197 = FACE_OUTER_BOUND ( 'NONE', #337, .T. ) ;
#198 = ORIENTED_EDGE ( 'NONE', *, *, #797, .T. ) ;
#199 = PLANE ( 'NONE',  #725 ) ;
#200 = APPROVAL ( #204, 'UNSPECIFIED' ) ;
#201 = DIRECTION ( 'NONE',  ( -0.000000000000000000, -0.000000000000000000, 1.000000000000000000 ) ) ;
#202 = DATE_AND_TIME ( #546, #15 ) ;
#203 = DIRECTION ( 'NONE',  ( -0.8660254037844385966, -0.4999999999999998335, 0.000000000000000000 ) ) ;
#204 = APPROVAL_STATUS ( 'not_yet_approved' ) ;
#205 = EDGE_CURVE ( 'NONE', #818, #699, #121, .T. ) ;
#206 = DIRECTION ( 'NONE',  ( 0.000000000000000000, -1.000000000000000000, 0.000000000000000000 ) ) ;
#207 = B_SPLINE_CURVE_WITH_KNOTS ( 'NONE', 3,
 ( #390, #700, #103, #164, #571, #513, #183, #501, #684, #823 ),
 .UNSPECIFIED., .F., .F.,
 ( 4, 2, 2, 2, 4 ),
 ( 0.001492838585966330817, 0.002204878526530082081, 0.002916918467093832911, 0.003628958407657583742, 0.004340998348221335006 ),
 .UNSPECIFIED. ) ;
#208 = DIRECTION ( 'NONE',  ( 0.000000000000000000, -1.000000000000000000, -5.234425880319071252E-16 ) ) ;
#209 = DIRECTION ( 'NONE',  ( 0.000000000000000000, 4.350774375908397289E-16, -1.000000000000000000 ) ) ;
#210 = FACE_OUTER_BOUND ( 'NONE', #11, .T. ) ;
#211 = CARTESIAN_POINT ( 'NONE',  ( -2.461025194972817583E-17, -0.1082531754730555740, 0.7373000000000000664 ) ) ;
#212 = DATE_AND_TIME ( #723, #484 ) ;
#213 = ORIENTED_EDGE ( 'NONE', *, *, #746, .T. ) ;
#214 = CARTESIAN_POINT ( 'NONE',  ( 1.916572240665604758E-17, 0.1564999999999996394, 0.8535000000000000364 ) ) ;
#215 = EDGE_CURVE ( 'NONE', #843, #405, #31, .T. ) ;
#216 = AXIS2_PLACEMENT_3D ( 'NONE', #734, #683, #680 ) ;
#217 = DIRECTION ( 'NONE',  ( 0.000000000000000000, 0.000000000000000000, 1.000000000000000000 ) ) ;
#218 = CIRCLE ( 'NONE', #351, 0.1082531754730552548 ) ;
#219 = DIRECTION ( 'NONE',  ( 0.000000000000000000, -1.000000000000000000, -4.350774375908397289E-16 ) ) ;
#220 = AXIS2_PLACEMENT_3D ( 'NONE', #777, #533, #89 ) ;
#221 = ORIENTED_EDGE ( 'NONE', *, *, #464, .T. ) ;
#222 = APPROVAL ( #672, 'UNSPECIFIED' ) ;
#223 = CYLINDRICAL_SURFACE ( 'NONE', #233, 0.1564999999999997504 ) ;
#224 = CARTESIAN_POINT ( 'NONE',  ( 6.236215755072429743E-19, 0.1082531754730548385, 0.7373000000000000664 ) ) ;
#225 = EDGE_CURVE ( 'NONE', #642, #256, #4, .T. ) ;
#226 = ORIENTED_EDGE ( 'NONE', *, *, #205, .T. ) ;
#227 = LINE ( 'NONE', #36, #156 ) ;
#228 = EDGE_LOOP ( 'NONE', ( #294, #481, #333, #576 ) ) ;
#229 = APPROVAL_ROLE ( '' ) ;
#230 = UNCERTAINTY_MEASURE_WITH_UNIT (LENGTH_MEASURE( 1.000000000000000082E-05 ), #609, 'distance_accuracy_value', 'NONE');
#231 = CIRCLE ( 'NONE', #711, 0.1082531754730552548 ) ;
#232 = LINE ( 'NONE', #239, #90 ) ;
#233 = AXIS2_PLACEMENT_3D ( 'NONE', #255, #575, #63 ) ;
#234 = ORIENTED_EDGE ( 'NONE', *, *, #330, .F. ) ;
#235 = AXIS2_PLACEMENT_3D ( 'NONE', #79, #805, #219 ) ;
#236 = DIRECTION ( 'NONE',  ( -0.000000000000000000, -4.350774375908397289E-16, 1.000000000000000000 ) ) ;
#237 = ORIENTED_EDGE ( 'NONE', *, *, #70, .T. ) ;
#238 = CARTESIAN_POINT ( 'NONE',  ( 0.09375000000000029143, -0.05412658773652809230, 0.8535000000000000364 ) ) ;
#239 = CARTESIAN_POINT ( 'NONE',  ( 1.916572240665604758E-17, 0.1565000000000003055, -0.6458333333329999704 ) ) ;
#240 = ORIENTED_EDGE ( 'NONE', *, *, #140, .T. ) ;
#241 = CARTESIAN_POINT ( 'NONE',  ( 0.1082531754730552548, -3.713385929837817121E-16, 0.8535000000000000364 ) ) ;
#242 = CARTESIAN_POINT ( 'NONE',  ( 0.09375000000000027756, 0.009532572888226224783, 0.8389968245269452396 ) ) ;
#243 = ORIENTED_EDGE ( 'NONE', *, *, #318, .T. ) ;
#244 = CARTESIAN_POINT ( 'NONE',  ( -0.09375000000000033307, 0.05412658773652723881, 0.7373000000000000664 ) ) ;
#245 = EDGE_CURVE ( 'NONE', #185, #312, #471, .T. ) ;
#246 = ORIENTED_EDGE ( 'NONE', *, *, #298, .T. ) ;
#247 = ORIENTED_EDGE ( 'NONE', *, *, #786, .F. ) ;
#248 = CARTESIAN_POINT ( 'NONE',  ( -0.09375000000000033307, -0.05412658773652798128, 0.7373000000000000664 ) ) ;
#249 = CIRCLE ( 'NONE', #804, 0.1565000000000000002 ) ;
#250 = VERTEX_POINT ( 'NONE', #86 ) ;
#251 = CARTESIAN_POINT ( 'NONE',  ( 0.09375000000000029143, -0.03691202869806745751, 0.8456280035131022998 ) ) ;
#252 = ORIENTED_EDGE ( 'NONE', *, *, #812, .T. ) ;
#253 = CARTESIAN_POINT ( 'NONE',  ( 0.09375000000000029143, -0.05412658773652798128, 0.7373000000000000664 ) ) ;
#254 = ORIENTED_EDGE ( 'NONE', *, *, #13, .F. ) ;
#255 = CARTESIAN_POINT ( 'NONE',  ( 0.000000000000000000, -1.028390246187632102E-16, 0.8535000000000000364 ) ) ;
#256 = VERTEX_POINT ( 'NONE', #726 ) ;
#257 = CARTESIAN_POINT ( 'NONE',  ( 6.236215755072429743E-19, 0.1082531754730548385, 0.8535000000000000364 ) ) ;
#258 = EDGE_CURVE ( 'NONE', #186, #454, #706, .T. ) ;
#259 = ORIENTED_EDGE ( 'NONE', *, *, #426, .T. ) ;
#260 = CARTESIAN_POINT ( 'NONE',  ( 0.09375000000000029143, 0.03694285000162731564, 0.8456372964715137552 ) ) ;
#261 = VERTEX_POINT ( 'NONE', #596 ) ;
#262 = CARTESIAN_POINT ( 'NONE',  ( 0.07879549906946110849, -0.06276057287437129817, 0.8455985108849228826 ) ) ;
#263 = TOROIDAL_SURFACE ( 'NONE', #235, 0.2609501076264871822, 0.004980000000000000052 ) ;
#264 = CC_DESIGN_APPROVAL ( #200, ( #440 ) ) ;
#265 = AXIS2_PLACEMENT_3D ( 'NONE', #286, #544, #549 ) ;
#266 = VECTOR ( 'NONE', #366, 39.37007874015748143 ) ;
#267 = PLANE ( 'NONE',  #59 ) ;
#268 = CARTESIAN_POINT ( 'NONE',  ( -0.01481498904627150635, 0.09969973755914864066, 0.8456752591565332988 ) ) ;
#269 = VERTEX_POINT ( 'NONE', #238 ) ;
#270 = EDGE_CURVE ( 'NONE', #405, #843, #655, .T. ) ;
#271 = CARTESIAN_POINT ( 'NONE',  ( 0.000000000000000000, 0.1565000000000000835, -0.6875000000000002220 ) ) ;
#272 = DIRECTION ( 'NONE',  ( 0.000000000000000000, 4.350774375908397289E-16, -1.000000000000000000 ) ) ;
#273 = DIRECTION ( 'NONE',  ( 0.000000000000000000, 1.000000000000000000, 5.013885417436705494E-16 ) ) ;
#274 = ADVANCED_FACE ( 'NONE', ( #113, #122 ), #53, .F. ) ;
#275 = DIRECTION ( 'NONE',  ( 0.000000000000000000, -1.000000000000000000, -5.165401466697485305E-16 ) ) ;
#276 = FACE_OUTER_BOUND ( 'NONE', #716, .T. ) ;
#277 = DIRECTION ( 'NONE',  ( 0.000000000000000000, -1.000000000000000000, 0.000000000000000000 ) ) ;
#278 = APPROVAL_PERSON_ORGANIZATION ( #423, #222, #796 ) ;
#279 = AXIS2_PLACEMENT_3D ( 'NONE', #324, #657, #169 ) ;
#280 = DATE_AND_TIME ( #417, #541 ) ;
#281 = VERTEX_POINT ( 'NONE', #767 ) ;
#282 = DIRECTION ( 'NONE',  ( 0.000000000000000000, 1.000000000000000000, 5.142209630584737091E-16 ) ) ;
#283 = DIRECTION ( 'NONE',  ( -0.000000000000000000, -0.000000000000000000, 1.000000000000000000 ) ) ;
#284 = ADVANCED_FACE ( 'NONE', ( #652 ), #87, .F. ) ;
#285 = DIRECTION ( 'NONE',  ( 0.8660254037844385966, 0.4999999999999998335, 0.000000000000000000 ) ) ;
#286 = CARTESIAN_POINT ( 'NONE',  ( 0.000000000000000000, -1.028390246187631979E-16, 0.8535000000000000364 ) ) ;
#287 = CARTESIAN_POINT ( 'NONE',  ( 0.000000000000000000, -3.061616997868376855E-17, 0.6874999999999998890 ) ) ;
#288 = CARTESIAN_POINT ( 'NONE',  ( 0.000000000000000000, -3.061616997868379936E-17, 0.6875000000000000000 ) ) ;
#289 = CC_DESIGN_PERSON_AND_ORGANIZATION_ASSIGNMENT ( #96, #800, ( #73 ) ) ;
#290 = AXIS2_PLACEMENT_3D ( 'NONE', #287, #794, #208 ) ;
#291 = PERSON_AND_ORGANIZATION ( #191, #195 ) ;
#292 = DIRECTION ( 'NONE',  ( -0.000000000000000000, 0.000000000000000000, 1.000000000000000000 ) ) ;
#293 = AXIS2_PLACEMENT_3D ( 'NONE', #537, #163, #500 ) ;
#294 = ORIENTED_EDGE ( 'NONE', *, *, #378, .F. ) ;
#295 = CARTESIAN_POINT ( 'NONE',  ( 0.000000000000000000, -3.061616997868373773E-17, 0.6874999999999998890 ) ) ;
#296 = AXIS2_PLACEMENT_3D ( 'NONE', #33, #107, #831 ) ;
#297 = ORIENTED_EDGE ( 'NONE', *, *, #735, .T. ) ;
#298 = EDGE_CURVE ( 'NONE', #269, #186, #580, .T. ) ;
#299 = B_SPLINE_CURVE_WITH_KNOTS ( 'NONE', 3,
 ( #643, #323, #383, #379, #693, #747, #41, #309, #38, #100, #497, #752 ),
 .UNSPECIFIED., .F., .F.,
 ( 4, 2, 2, 2, 2, 4 ),
 ( 2.544342315337601721E-07, 0.0007103180709363563286, 0.001065349889288767999, 0.001420381707641179669, 0.002130445344346003876, 0.002840508981050828517 ),
 .UNSPECIFIED. ) ;
#300 = COORDINATED_UNIVERSAL_TIME_OFFSET ( 6, 0, .BEHIND. ) ;
#301 = ORIENTED_EDGE ( 'NONE', *, *, #80, .T. ) ;
#302 = DIRECTION ( 'NONE',  ( 0.000000000000000000, 1.000000000000000000, 4.350774375908397289E-16 ) ) ;
#303 = CARTESIAN_POINT ( 'NONE',  ( -0.09375000000000033307, 0.05412658773652723881, 0.7373000000000000664 ) ) ;
#304 = VERTEX_POINT ( 'NONE', #591 ) ;
#305 = CARTESIAN_POINT ( 'NONE',  ( 0.000000000000000000, 0.2724282433902218692, 0.7143840653363935367 ) ) ;
#306 = EDGE_CURVE ( 'NONE', #250, #185, #748, .T. ) ;
#307 = LINE ( 'NONE', #370, #783 ) ;
#308 = DIRECTION ( 'NONE',  ( 1.000000000000000000, 0.000000000000000000, 0.000000000000000000 ) ) ;
#309 = CARTESIAN_POINT ( 'NONE',  ( -0.03886348446349791735, -0.08581533225640822216, 0.8389769434127337666 ) ) ;
#310 = ADVANCED_FACE ( 'NONE', ( #685 ), #311, .F. ) ;
#311 = CONICAL_SURFACE ( 'NONE', #762, 0.1082531754730552548, 0.7853981633974500554 ) ;
#312 = VERTEX_POINT ( 'NONE', #826 ) ;
#313 = CIRCLE ( 'NONE', #820, 0.1148333333329992767 ) ;
#314 = DIRECTION ( 'NONE',  ( 0.000000000000000000, 1.000000000000000000, 5.013885417436705494E-16 ) ) ;
#315 = ORIENTED_EDGE ( 'NONE', *, *, #617, .F. ) ;
#316 = ORIENTED_EDGE ( 'NONE', *, *, #258, .T. ) ;
#317 = DIRECTION ( 'NONE',  ( 8.659560562354946417E-17, 0.7071067811865482389, 0.7071067811865469066 ) ) ;
#318 = EDGE_CURVE ( 'NONE', #750, #778, #675, .T. ) ;
#319 = DIRECTION ( 'NONE',  ( 0.000000000000000000, -1.000000000000000000, 0.000000000000000000 ) ) ;
#320 = EDGE_LOOP ( 'NONE', ( #653, #125, #444, #247 ) ) ;
#321 = FACE_OUTER_BOUND ( 'NONE', #821, .T. ) ;
#322 = ORIENTED_EDGE ( 'NONE', *, *, #364, .T. ) ;
#323 = CARTESIAN_POINT ( 'NONE',  ( -0.08642512298473410681, -0.05835560745307285385, 0.8492709802834557120 ) ) ;
#324 = CARTESIAN_POINT ( 'NONE',  ( 0.000000000000000000, 1.102232241075566674E-32, 0.8535000000000000364 ) ) ;
#325 = CARTESIAN_POINT ( 'NONE',  ( 0.09375000000000029143, 0.04575195356703321697, 0.8493126829152530810 ) ) ;
#326 = EDGE_LOOP ( 'NONE', ( #37, #129, #297, #430 ) ) ;
#327 = DIRECTION ( 'NONE',  ( 0.8660254037844385966, -0.4999999999999998335, 0.000000000000000000 ) ) ;
#328 = AXIS2_PLACEMENT_3D ( 'NONE', #707, #524, #504 ) ;
#329 = DIRECTION ( 'NONE',  ( -0.000000000000000000, -4.350774375908397289E-16, 1.000000000000000000 ) ) ;
#330 = EDGE_CURVE ( 'NONE', #582, #250, #411, .T. ) ;
#331 = ORIENTED_EDGE ( 'NONE', *, *, #671, .T. ) ;
#332 = DIRECTION ( 'NONE',  ( 1.000000000000000000, 0.000000000000000000, 0.000000000000000000 ) ) ;
#333 = ORIENTED_EDGE ( 'NONE', *, *, #32, .T. ) ;
#334 = ADVANCED_BREP_SHAPE_REPRESENTATION ( '98164A527_NO THREADS_316 Stainless Steel Button Head Hex-Drive Screw', ( #34, #428 ), #1 ) ;
#335 = VERTEX_POINT ( 'NONE', #305 ) ;
#336 = DIRECTION ( 'NONE',  ( 0.000000000000000000, 0.000000000000000000, 1.000000000000000000 ) ) ;
#337 = EDGE_LOOP ( 'NONE', ( #46, #358, #553, #369 ) ) ;
#338 = CARTESIAN_POINT ( 'NONE',  ( 0.08638195342893996431, -0.05838053140773140359, 0.8492460563287824726 ) ) ;
#339 = ADVANCED_FACE ( 'NONE', ( #816 ), #557, .F. ) ;
#340 = AXIS2_PLACEMENT_3D ( 'NONE', #620, #547, #801 ) ;
#341 = AXIS2_PLACEMENT_3D ( 'NONE', #14, #600, #275 ) ;
#342 = FACE_OUTER_BOUND ( 'NONE', #648, .T. ) ;
#343 = VECTOR ( 'NONE', #177, 39.37007874015748143 ) ;
#344 = CARTESIAN_POINT ( 'NONE',  ( -0.07879549906946112237, 0.06276057287437053489, 0.8455985108849229936 ) ) ;
#345 = EDGE_CURVE ( 'NONE', #335, #658, #421, .T. ) ;
#346 = DIRECTION ( 'NONE',  ( 0.000000000000000000, -1.000000000000000000, 0.000000000000000000 ) ) ;
#347 = APPLICATION_PROTOCOL_DEFINITION ( 'international standard', 'config_control_design', 1994, #502 ) ;
#348 = DIRECTION ( 'NONE',  ( 0.000000000000000000, 0.000000000000000000, -1.000000000000000000 ) ) ;
#349 = DIRECTION ( 'NONE',  ( 1.000000000000000000, 0.000000000000000000, 0.000000000000000000 ) ) ;
#350 = FACE_OUTER_BOUND ( 'NONE', #381, .T. ) ;
#351 = AXIS2_PLACEMENT_3D ( 'NONE', #492, #429, #167 ) ;
#352 = EDGE_CURVE ( 'NONE', #512, #261, #104, .T. ) ;
#353 = CONICAL_SURFACE ( 'NONE', #739, 0.1082531754730552548, 0.7853981633974500554 ) ;
#354 = CARTESIAN_POINT ( 'NONE',  ( -2.461025194972817583E-17, -0.1082531754730555740, 0.7373000000000000664 ) ) ;
#355 = MECHANICAL_CONTEXT ( 'NONE', #502, 'mechanical' ) ;
#356 = CC_DESIGN_DATE_AND_TIME_ASSIGNMENT ( #212, #78, ( #440 ) ) ;
#357 = DIRECTION ( 'NONE',  ( 1.000000000000000000, 0.000000000000000000, 0.000000000000000000 ) ) ;
#358 = ORIENTED_EDGE ( 'NONE', *, *, #850, .T. ) ;
#359 = FACE_OUTER_BOUND ( 'NONE', #437, .T. ) ;
#360 = DIRECTION ( 'NONE',  ( 0.000000000000000000, -0.7071067811865487940, 0.7071067811865461294 ) ) ;
#361 = SECURITY_CLASSIFICATION_LEVEL ( 'unclassified' ) ;
#362 = DIRECTION ( 'NONE',  ( -1.000000000000000000, 0.000000000000000000, -0.000000000000000000 ) ) ;
#363 = PLANE ( 'NONE',  #28 ) ;
#364 = EDGE_CURVE ( 'NONE', #256, #281, #526, .T. ) ;
#365 = DIRECTION ( 'NONE',  ( 1.000000000000000000, 0.000000000000000000, 0.000000000000000000 ) ) ;
#366 = DIRECTION ( 'NONE',  ( 0.000000000000000000, -1.000000000000000000, 0.000000000000000000 ) ) ;
#367 = CC_DESIGN_SECURITY_CLASSIFICATION ( #440, ( #73 ) ) ;
#368 = CONICAL_SURFACE ( 'NONE', #341, 0.2644371411667715277, 0.3490658503988613992 ) ;
#369 = ORIENTED_EDGE ( 'NONE', *, *, #724, .F. ) ;
#370 = CARTESIAN_POINT ( 'NONE',  ( -0.09375000000000033307, -0.05412658773652798128, 0.7373000000000000664 ) ) ;
#371 = ORIENTED_EDGE ( 'NONE', *, *, #656, .T. ) ;
#372 = CARTESIAN_POINT ( 'NONE',  ( 0.000000000000000000, -3.713385929837817121E-16, 0.8535000000000000364 ) ) ;
#373 = EDGE_CURVE ( 'NONE', #454, #261, #109, .T. ) ;
#374 = CARTESIAN_POINT ( 'NONE',  ( 0.000000000000000000, -0.2609501076264871822, 0.6924799999999996514 ) ) ;
#375 = DIRECTION ( 'NONE',  ( 0.000000000000000000, 0.000000000000000000, -1.000000000000000000 ) ) ;
#376 = DIRECTION ( 'NONE',  ( -0.000000000000000000, -0.000000000000000000, 1.000000000000000000 ) ) ;
#377 = DIRECTION ( 'NONE',  ( -0.000000000000000000, -0.000000000000000000, 1.000000000000000000 ) ) ;
#378 = EDGE_CURVE ( 'NONE', #658, #405, #742, .T. ) ;
#379 = CARTESIAN_POINT ( 'NONE',  ( -0.06729793629279216816, -0.06939869383850574835, 0.8418220706506055473 ) ) ;
#380 = DIRECTION ( 'NONE',  ( 0.000000000000000000, 0.000000000000000000, 1.000000000000000000 ) ) ;
#381 = EDGE_LOOP ( 'NONE', ( #768, #517, #240, #48 ) ) ;
#382 = ADVANCED_FACE ( 'NONE', ( #67 ), #842, .T. ) ;
#383 = CARTESIAN_POINT ( 'NONE',  ( -0.07893501095372880416, -0.06268002565043420682, 0.8456752591565332988 ) ) ;
#384 = VECTOR ( 'NONE', #479, 39.37007874015748143 ) ;
#385 = CARTESIAN_POINT ( 'NONE',  ( 0.000000000000000000, 5.494870801422907997E-16, -0.6458333333329999704 ) ) ;
#386 = AXIS2_PLACEMENT_3D ( 'NONE', #573, #443, #365 ) ;
#387 = EDGE_LOOP ( 'NONE', ( #64, #159, #188, #515 ) ) ;
#388 = DIRECTION ( 'NONE',  ( 0.000000000000000000, -1.000000000000000000, 0.000000000000000000 ) ) ;
#389 = ORIENTED_EDGE ( 'NONE', *, *, #710, .T. ) ;
#390 = CARTESIAN_POINT ( 'NONE',  ( -0.09375000000000036082, 0.05412658773652724575, 0.8535000000000000364 ) ) ;
#391 = ORIENTED_EDGE ( 'NONE', *, *, #215, .T. ) ;
#392 = CARTESIAN_POINT ( 'NONE',  ( 0.000000000000000000, -4.053508165780865806E-17, 0.7102980373655986002 ) ) ;
#393 = EDGE_CURVE ( 'NONE', #658, #335, #6, .T. ) ;
#394 = ORIENTED_EDGE ( 'NONE', *, *, #797, .F. ) ;
#395 = CARTESIAN_POINT ( 'NONE',  ( 0.09375000000000027756, -0.04574121483110397263, 0.8493073135472881674 ) ) ;
#396 = ORIENTED_EDGE ( 'NONE', *, *, #825, .F. ) ;
#397 = DIRECTION ( 'NONE',  ( 0.000000000000000000, 1.000000000000000000, 5.008247039880858752E-16 ) ) ;
#398 = AXIS2_PLACEMENT_3D ( 'NONE', #77, #732, #346 ) ;
#399 = ORIENTED_EDGE ( 'NONE', *, *, #617, .T. ) ;
#400 = ORIENTED_EDGE ( 'NONE', *, *, #668, .F. ) ;
#401 = DIRECTION ( 'NONE',  ( 0.000000000000000000, -1.000000000000000000, -4.350774375908397289E-16 ) ) ;
#402 = ADVANCED_FACE ( 'NONE', ( #731 ), #602, .F. ) ;
#403 = EDGE_LOOP ( 'NONE', ( #146, #445, #766, #581 ) ) ;
#404 = CARTESIAN_POINT ( 'NONE',  ( 0.000000000000000000, -3.713385929837817121E-16, 0.8535000000000000364 ) ) ;
#405 = VERTEX_POINT ( 'NONE', #548 ) ;
#406 = LINE ( 'NONE', #659, #84 ) ;
#407 = EDGE_CURVE ( 'NONE', #673, #455, #132, .T. ) ;
#408 = DIRECTION ( 'NONE',  ( 4.188538737676939380E-17, 0.3420201433256640500, 0.9396926207859099822 ) ) ;
#409 = CIRCLE ( 'NONE', #108, 0.1565000000000000002 ) ;
#410 = DIRECTION ( 'NONE',  ( 1.000000000000000000, 0.000000000000000000, 0.000000000000000000 ) ) ;
#411 = CIRCLE ( 'NONE', #139, 0.004979999999999955816 ) ;
#412 = DIRECTION ( 'NONE',  ( 0.000000000000000000, 1.000000000000000000, 4.402719439387488242E-16 ) ) ;
#413 = CARTESIAN_POINT ( 'NONE',  ( 3.238420985055635543E-17, 0.2644371411667715277, 0.6875000000000000000 ) ) ;
#414 = CARTESIAN_POINT ( 'NONE',  ( -0.09375000000000033307, -0.05412658773652798128, 0.7373000000000000664 ) ) ;
#415 = EDGE_CURVE ( 'NONE', #174, #582, #487, .T. ) ;
#416 = CARTESIAN_POINT ( 'NONE',  ( 6.236215755072429743E-19, 0.1082531754730548385, 0.7373000000000000664 ) ) ;
#417 = CALENDAR_DATE ( 2026, 2, 6 ) ;
#418 = DIRECTION ( 'NONE',  ( -0.000000000000000000, -0.000000000000000000, 1.000000000000000000 ) ) ;
#419 = CIRCLE ( 'NONE', #220, 0.004979999999999990511 ) ;
#420 = AXIS2_PLACEMENT_3D ( 'NONE', #587, #592, #388 ) ;
#421 = CIRCLE ( 'NONE', #665, 0.2724282433902219802 ) ;
#422 = CARTESIAN_POINT ( 'NONE',  ( 0.09375000000000029143, -0.05412658773652798128, 0.7373000000000000664 ) ) ;
#423 = PERSON_AND_ORGANIZATION ( #191, #195 ) ;
#424 = EDGE_CURVE ( 'NONE', #699, #818, #313, .T. ) ;
#425 = DIRECTION ( 'NONE',  ( 0.4999999999999998335, 0.8660254037844388186, 0.000000000000000000 ) ) ;
#426 = EDGE_CURVE ( 'NONE', #699, #778, #824, .T. ) ;
#427 = DIRECTION ( 'NONE',  ( -0.000000000000000000, -0.000000000000000000, 1.000000000000000000 ) ) ;
#428 = AXIS2_PLACEMENT_3D ( 'NONE', #93, #616, #349 ) ;
#429 = DIRECTION ( 'NONE',  ( 0.000000000000000000, 0.000000000000000000, 1.000000000000000000 ) ) ;
#430 = ORIENTED_EDGE ( 'NONE', *, *, #825, .T. ) ;
#431 = CARTESIAN_POINT ( 'NONE',  ( 0.000000000000000000, 0.2644371411667715277, 0.6875000000000000000 ) ) ;
#432 = CARTESIAN_POINT ( 'NONE',  ( 0.07893501095372880416, 0.06268002565043348517, 0.8456752591565331878 ) ) ;
#433 = DIRECTION ( 'NONE',  ( -0.000000000000000000, -0.000000000000000000, 1.000000000000000000 ) ) ;
#434 = EDGE_CURVE ( 'NONE', #174, #185, #758, .T. ) ;
#435 = EDGE_LOOP ( 'NONE', ( #391, #494 ) ) ;
#436 = CARTESIAN_POINT ( 'NONE',  ( 0.000000000000000000, -3.713385929837817121E-16, 0.8535000000000000364 ) ) ;
#437 = EDGE_LOOP ( 'NONE', ( #593, #29, #628, #234 ) ) ;
#438 = CARTESIAN_POINT ( 'NONE',  ( 0.05113969645128519509, 0.07872765796062959620, 0.8390070829467627389 ) ) ;
#439 = AXIS2_PLACEMENT_3D ( 'NONE', #422, #147, #348 ) ;
#440 = SECURITY_CLASSIFICATION ( '', '', #361 ) ;
#441 = EDGE_LOOP ( 'NONE', ( #371, #198, #560, #708, #771, #660 ) ) ;
#442 = DIRECTION ( 'NONE',  ( 0.000000000000000000, -4.350774375908397289E-16, 1.000000000000000000 ) ) ;
#443 = DIRECTION ( 'NONE',  ( 0.000000000000000000, 0.000000000000000000, 1.000000000000000000 ) ) ;
#444 = ORIENTED_EDGE ( 'NONE', *, *, #584, .F. ) ;
#445 = ORIENTED_EDGE ( 'NONE', *, *, #447, .T. ) ;
#446 = FACE_OUTER_BOUND ( 'NONE', #509, .T. ) ;
#447 = EDGE_CURVE ( 'NONE', #658, #3, #419, .T. ) ;
#448 = DIRECTION ( 'NONE',  ( 0.000000000000000000, 1.000000000000000000, 4.402719439387488242E-16 ) ) ;
#449 = ORIENTED_EDGE ( 'NONE', *, *, #70, .F. ) ;
#450 = CARTESIAN_POINT ( 'NONE',  ( 0.000000000000000000, -1.318434370398592690E-16, 0.7120012976793603787 ) ) ;
#451 = ORIENTED_EDGE ( 'NONE', *, *, #746, .F. ) ;
#452 = CARTESIAN_POINT ( 'NONE',  ( 0.01481498904627148380, -0.09969973755914940394, 0.8456752591565331878 ) ) ;
#453 = EDGE_CURVE ( 'NONE', #185, #250, #695, .T. ) ;
#454 = VERTEX_POINT ( 'NONE', #543 ) ;
#455 = VERTEX_POINT ( 'NONE', #674 ) ;
#456 = CARTESIAN_POINT ( 'NONE',  ( 0.02645206370720809552, -0.09298106937107780690, 0.8418220706506049922 ) ) ;
#457 = AXIS2_PLACEMENT_3D ( 'NONE', #68, #787, #721 ) ;
#458 = AXIS2_PLACEMENT_3D ( 'NONE', #295, #22, #612 ) ;
#459 = ORIENTED_EDGE ( 'NONE', *, *, #671, .F. ) ;
#460 = EDGE_CURVE ( 'NONE', #455, #503, #155, .T. ) ;
#461 = CARTESIAN_POINT ( 'NONE',  ( 3.224371850269021743E-17, 0.2609501076264871267, 0.6875000000000000000 ) ) ;
#462 = ORIENTED_EDGE ( 'NONE', *, *, #645, .F. ) ;
#463 = CARTESIAN_POINT ( 'NONE',  ( 0.03845909677168210528, -0.08604880559913503923, 0.8393868269678824712 ) ) ;
#464 = EDGE_CURVE ( 'NONE', #523, #35, #409, .T. ) ;
#465 = SPHERICAL_SURFACE ( 'NONE', #793, 0.3102455233945501378 ) ;
#466 = EDGE_LOOP ( 'NONE', ( #213, #400 ) ) ;
#467 = FACE_OUTER_BOUND ( 'NONE', #441, .T. ) ;
#468 = CARTESIAN_POINT ( 'NONE',  ( 0.000000000000000000, -3.204180548502446606E-17, 0.6907767396862379838 ) ) ;
#469 = COORDINATED_UNIVERSAL_TIME_OFFSET ( 6, 0, .BEHIND. ) ;
#470 = ORIENTED_EDGE ( 'NONE', *, *, #97, .T. ) ;
#471 = LINE ( 'NONE', #413, #123 ) ;
#472 = CIRCLE ( 'NONE', #727, 0.1564999999999997504 ) ;
#473 = CYLINDRICAL_SURFACE ( 'NONE', #43, 0.1564999999999997504 ) ;
#474 = ADVANCED_FACE ( 'NONE', ( #210 ), #363, .F. ) ;
#475 = LINE ( 'NONE', #224, #851 ) ;
#476 = FACE_OUTER_BOUND ( 'NONE', #585, .T. ) ;
#477 = PERSON_AND_ORGANIZATION ( #191, #195 ) ;
#478 = DIRECTION ( 'NONE',  ( 1.000000000000000000, 0.000000000000000000, 0.000000000000000000 ) ) ;
#479 = DIRECTION ( 'NONE',  ( -0.000000000000000000, -0.000000000000000000, 1.000000000000000000 ) ) ;
#480 = APPLICATION_PROTOCOL_DEFINITION ( 'international standard', 'config_control_design', 1994, #21 ) ;
#481 = ORIENTED_EDGE ( 'NONE', *, *, #393, .T. ) ;
#482 = DIRECTION ( 'NONE',  ( -0.000000000000000000, -4.350774375908397289E-16, 1.000000000000000000 ) ) ;
#483 = AXIS2_PLACEMENT_3D ( 'NONE', #690, #418, #410 ) ;
#484 = LOCAL_TIME ( 14, 26, 0.000000000000000000, #469 ) ;
#485 = DIRECTION ( 'NONE',  ( 0.000000000000000000, 1.000000000000000000, 5.142209630584737091E-16 ) ) ;
#486 = AXIS2_PLACEMENT_3D ( 'NONE', #532, #536, #789 ) ;
#487 = CIRCLE ( 'NONE', #290, 0.2609501076264871822 ) ;
#488 = DATE_TIME_ROLE ( 'creation_date' ) ;
#489 = FACE_OUTER_BOUND ( 'NONE', #499, .T. ) ;
#490 = DIRECTION ( 'NONE',  ( -0.000000000000000000, -4.350774375908397289E-16, 1.000000000000000000 ) ) ;
#491 = EDGE_CURVE ( 'NONE', #582, #174, #510, .T. ) ;
#492 = CARTESIAN_POINT ( 'NONE',  ( 0.000000000000000000, -3.713385929837817121E-16, 0.8535000000000000364 ) ) ;
#493 = DIRECTION ( 'NONE',  ( -0.000000000000000000, -0.000000000000000000, 1.000000000000000000 ) ) ;
#494 = ORIENTED_EDGE ( 'NONE', *, *, #270, .T. ) ;
#495 = CARTESIAN_POINT ( 'NONE',  ( 0.03081907291078605018, 0.09045977543183780778, 0.8404078827389269701 ) ) ;
#496 = SHAPE_DEFINITION_REPRESENTATION ( #2, #334 ) ;
#497 = CARTESIAN_POINT ( 'NONE',  ( -0.007368046571060300233, -0.1039992318018522072, 0.8492460563287822506 ) ) ;
#498 = ADVANCED_FACE ( 'NONE', ( #276 ), #353, .F. ) ;
#499 = EDGE_LOOP ( 'NONE', ( #176, #829, #462, #597 ) ) ;
#500 = DIRECTION ( 'NONE',  ( 0.000000000000000000, -1.000000000000000000, -4.350774375908397289E-16 ) ) ;
#501 = CARTESIAN_POINT ( 'NONE',  ( -0.09375000000000034694, -0.03691020645536401829, 0.8456272463415731577 ) ) ;
#502 = APPLICATION_CONTEXT ( 'configuration controlled 3d designs of mechanical parts and assemblies' ) ;
#503 = VERTEX_POINT ( 'NONE', #82 ) ;
#504 = DIRECTION ( 'NONE',  ( 0.000000000000000000, 0.000000000000000000, 1.000000000000000000 ) ) ;
#505 = ORIENTED_EDGE ( 'NONE', *, *, #627, .F. ) ;
#506 = FACE_BOUND ( 'NONE', #601, .T. ) ;
#507 = DIRECTION ( 'NONE',  ( 0.000000000000000000, 0.000000000000000000, 1.000000000000000000 ) ) ;
#508 = ADVANCED_FACE ( 'NONE', ( #350 ), #136, .T. ) ;
#509 = EDGE_LOOP ( 'NONE', ( #322, #505 ) ) ;
#510 = CIRCLE ( 'NONE', #151, 0.2609501076264871822 ) ;
#511 = CONICAL_SURFACE ( 'NONE', #686, 0.1082531754730552548, 0.7853981633974500554 ) ;
#512 = VERTEX_POINT ( 'NONE', #792 ) ;
#513 = CARTESIAN_POINT ( 'NONE',  ( -0.09375000000000031919, -0.009525580708549660422, 0.8389962247294548980 ) ) ;
#514 = VECTOR ( 'NONE', #283, 39.37007874015748143 ) ;
#515 = ORIENTED_EDGE ( 'NONE', *, *, #460, .F. ) ;
#516 = CARTESIAN_POINT ( 'NONE',  ( 0.09375000000000029143, -0.01882097047866789982, 0.8404734603060320941 ) ) ;
#517 = ORIENTED_EDGE ( 'NONE', *, *, #245, .T. ) ;
#518 = DIRECTION ( 'NONE',  ( 0.000000000000000000, 1.000000000000000000, 0.000000000000000000 ) ) ;
#519 = EDGE_LOOP ( 'NONE', ( #827, #835, #754, #595 ) ) ;
#520 = ORIENTED_EDGE ( 'NONE', *, *, #464, .F. ) ;
#521 = CARTESIAN_POINT ( 'NONE',  ( -0.05488651553650238102, 0.07656443095317462533, 0.8389769434127338776 ) ) ;
#522 = ADVANCED_FACE ( 'NONE', ( #540 ), #722, .F. ) ;
#523 = VERTEX_POINT ( 'NONE', #811 ) ;
#524 = DIRECTION ( 'NONE',  ( -1.000000000000000000, 0.000000000000000000, 0.000000000000000000 ) ) ;
#525 = EDGE_LOOP ( 'NONE', ( #190, #26 ) ) ;
#526 = CIRCLE ( 'NONE', #554, 0.1082531754730552548 ) ;
#527 = FACE_OUTER_BOUND ( 'NONE', #588, .T. ) ;
#528 = AXIS2_PLACEMENT_3D ( 'NONE', #436, #105, #635 ) ;
#529 = EDGE_CURVE ( 'NONE', #281, #269, #622, .T. ) ;
#530 = CARTESIAN_POINT ( 'NONE',  ( 0.000000000000000000, -1.028390246187632102E-16, 0.8535000000000000364 ) ) ;
#531 = CARTESIAN_POINT ( 'NONE',  ( -0.03039877957151660912, 0.09070243190440363534, 0.8407971146513560923 ) ) ;
#532 = CARTESIAN_POINT ( 'NONE',  ( 0.000000000000000000, -3.713385929837817121E-16, 0.8535000000000000364 ) ) ;
#533 = DIRECTION ( 'NONE',  ( 1.000000000000000000, 1.224646799147353207E-16, 5.328161913268542493E-32 ) ) ;
#534 = CARTESIAN_POINT ( 'NONE',  ( 0.09375000000000029143, -0.05412658773652798128, 0.7373000000000000664 ) ) ;
#535 = DIRECTION ( 'NONE',  ( 0.000000000000000000, 0.000000000000000000, 1.000000000000000000 ) ) ;
#536 = DIRECTION ( 'NONE',  ( 0.000000000000000000, 0.000000000000000000, 1.000000000000000000 ) ) ;
#537 = CARTESIAN_POINT ( 'NONE',  ( 0.000000000000000000, -3.278285561788612339E-17, 0.6924799999999997624 ) ) ;
#538 = EDGE_CURVE ( 'NONE', #750, #35, #730, .T. ) ;
#539 = PERSON_AND_ORGANIZATION ( #191, #195 ) ;
#540 = FACE_OUTER_BOUND ( 'NONE', #651, .T. ) ;
#541 = LOCAL_TIME ( 14, 26, 0.000000000000000000, #803 ) ;
#542 = CLOSED_SHELL ( 'NONE', ( #619, #579, #157, #498, #148, #508, #57, #770, #181, #677, #127, #382, #274, #310, #402, #522, #284, #753, #339, #809, #565, #599, #165, #40, #697, #474, #102, #7, #112 ) ) ;
#543 = CARTESIAN_POINT ( 'NONE',  ( 0.1082531754730552548, -3.713385929837817121E-16, 0.8535000000000000364 ) ) ;
#544 = DIRECTION ( 'NONE',  ( -0.000000000000000000, -4.350774375908397289E-16, 1.000000000000000000 ) ) ;
#545 = CARTESIAN_POINT ( 'NONE',  ( 3.296533186504321817E-17, 0.2656297768780009338, 0.6907767396862380949 ) ) ;
#546 = CALENDAR_DATE ( 2026, 2, 6 ) ;
#547 = DIRECTION ( 'NONE',  ( 0.000000000000000000, 0.000000000000000000, 1.000000000000000000 ) ) ;
#548 = CARTESIAN_POINT ( 'NONE',  ( -2.381242540463943423E-17, -0.1164581754730549257, 0.8535000000000000364 ) ) ;
#549 = DIRECTION ( 'NONE',  ( 0.000000000000000000, -1.000000000000000000, 0.000000000000000000 ) ) ;
#550 = CALENDAR_DATE ( 2026, 2, 6 ) ;
#551 = ORIENTED_EDGE ( 'NONE', *, *, #656, .F. ) ;
#552 = PLANE ( 'NONE',  #715 ) ;
#553 = ORIENTED_EDGE ( 'NONE', *, *, #116, .F. ) ;
#554 = AXIS2_PLACEMENT_3D ( 'NONE', #623, #380, #759 ) ;
#555 = EDGE_CURVE ( 'NONE', #35, #523, #249, .T. ) ;
#556 = VECTOR ( 'NONE', #49, 39.37007874015748854 ) ;
#557 = CONICAL_SURFACE ( 'NONE', #180, 0.1082531754730552548, 0.7853981633974500554 ) ;
#558 = PERSON_AND_ORGANIZATION_ROLE ( 'classification_officer' ) ;
#559 = CARTESIAN_POINT ( 'NONE',  ( 0.000000000000000000, -3.713385929837817121E-16, 0.8535000000000000364 ) ) ;
#560 = ORIENTED_EDGE ( 'NONE', *, *, #786, .T. ) ;
#561 = DIRECTION ( 'NONE',  ( 1.000000000000000000, 0.000000000000000000, 0.000000000000000000 ) ) ;
#562 = CARTESIAN_POINT ( 'NONE',  ( 0.05529090322831815840, 0.07633095761044783600, 0.8393868269678826932 ) ) ;
#563 = ORIENTED_EDGE ( 'NONE', *, *, #538, .F. ) ;
#564 = B_SPLINE_CURVE_WITH_KNOTS ( 'NONE', 3,
 ( #168, #47, #432, #625, #171, #562, #438, #815, #495, #638, #830, #689 ),
 .UNSPECIFIED., .F., .F.,
 ( 4, 2, 2, 2, 2, 4 ),
 ( 2.544342315337601721E-07, 0.0007103180709363573044, 0.001065349889288769083, 0.001420381707641180970, 0.002130445344346003876, 0.002840508981050826783 ),
 .UNSPECIFIED. ) ;
#565 = ADVANCED_FACE ( 'NONE', ( #17 ), #740, .F. ) ;
#566 = DIRECTION ( 'NONE',  ( 0.8660254037844385966, 0.4999999999999998335, 0.000000000000000000 ) ) ;
#567 = CIRCLE ( 'NONE', #741, 0.2727349481675380161 ) ;
#568 = VERTEX_POINT ( 'NONE', #94 ) ;
#569 = CIRCLE ( 'NONE', #457, 0.2727349481675380161 ) ;
#570 = VECTOR ( 'NONE', #482, 39.37007874015748143 ) ;
#571 = CARTESIAN_POINT ( 'NONE',  ( -0.09375000000000033307, 0.009537383369974247391, 0.8389974246959099879 ) ) ;
#572 = DIRECTION ( 'NONE',  ( 1.000000000000000000, 0.000000000000000000, 0.000000000000000000 ) ) ;
#573 = CARTESIAN_POINT ( 'NONE',  ( 0.000000000000000000, -3.713385929837817121E-16, 0.8535000000000000364 ) ) ;
#574 = ORIENTED_EDGE ( 'NONE', *, *, #555, .F. ) ;
#575 = DIRECTION ( 'NONE',  ( -0.000000000000000000, -4.350774375908397289E-16, 1.000000000000000000 ) ) ;
#576 = ORIENTED_EDGE ( 'NONE', *, *, #270, .F. ) ;
#577 = ORIENTED_EDGE ( 'NONE', *, *, #415, .T. ) ;
#578 = CARTESIAN_POINT ( 'NONE',  ( 0.000000000000000000, -1.318434370398592690E-16, 0.7120012976793603787 ) ) ;
#579 = ADVANCED_FACE ( 'NONE', ( #359 ), #263, .T. ) ;
#580 = B_SPLINE_CURVE_WITH_KNOTS ( 'NONE', 3,
 ( #839, #395, #251, #516, #773, #118 ),
 .UNSPECIFIED., .F., .F.,
 ( 4, 2, 4 ),
 ( 0.001625995063605307957, 0.002338358620633498169, 0.003050722177661687948 ),
 .UNSPECIFIED. ) ;
#581 = ORIENTED_EDGE ( 'NONE', *, *, #97, .F. ) ;
#582 = VERTEX_POINT ( 'NONE', #610 ) ;
#583 = FACE_OUTER_BOUND ( 'NONE', #387, .T. ) ;
#584 = EDGE_CURVE ( 'NONE', #304, #568, #475, .T. ) ;
#585 = EDGE_LOOP ( 'NONE', ( #846, #399, #449, #703 ) ) ;
#586 = AXIS2_PLACEMENT_3D ( 'NONE', #253, #535, #69 ) ;
#587 = CARTESIAN_POINT ( 'NONE',  ( 0.000000000000000000, 5.494870801422907997E-16, -0.6458333333329999704 ) ) ;
#588 = EDGE_LOOP ( 'NONE', ( #117, #226 ) ) ;
#589 = CARTESIAN_POINT ( 'NONE',  ( 0.000000000000000000, -0.1148333333329987216, -0.6875000000000002220 ) ) ;
#590 = TOROIDAL_SURFACE ( 'NONE', #293, 0.2609501076264871822, 0.004980000000000000052 ) ;
#591 = CARTESIAN_POINT ( 'NONE',  ( 6.236215755072429743E-19, 0.1082531754730548385, 0.7373000000000000664 ) ) ;
#592 = DIRECTION ( 'NONE',  ( -0.000000000000000000, -4.350774375908384470E-16, 1.000000000000000000 ) ) ;
#593 = ORIENTED_EDGE ( 'NONE', *, *, #415, .F. ) ;
#594 = CARTESIAN_POINT ( 'NONE',  ( -0.02645206370720814062, 0.09298106937107708525, 0.8418220706506054363 ) ) ;
#595 = ORIENTED_EDGE ( 'NONE', *, *, #32, .F. ) ;
#596 = CARTESIAN_POINT ( 'NONE',  ( 0.09375000000000029143, 0.05412658773652735678, 0.8535000000000000364 ) ) ;
#597 = ORIENTED_EDGE ( 'NONE', *, *, #407, .F. ) ;
#598 = CARTESIAN_POINT ( 'NONE',  ( 6.829619984160658046E-17, -0.1082531754730556295, 0.8535000000000000364 ) ) ;
#599 = ADVANCED_FACE ( 'NONE', ( #745 ), #552, .F. ) ;
#600 = DIRECTION ( 'NONE',  ( -0.000000000000000000, -4.350774375908397289E-16, 1.000000000000000000 ) ) ;
#601 = EDGE_LOOP ( 'NONE', ( #221, #45 ) ) ;
#602 = CONICAL_SURFACE ( 'NONE', #483, 0.1082531754730552548, 0.7853981633974500554 ) ;
#603 = CARTESIAN_POINT ( 'NONE',  ( 0.09375000000000029143, -0.05412658773652798128, 0.7373000000000000664 ) ) ;
#604 = VECTOR ( 'NONE', #518, 39.37007874015748143 ) ;
#605 = AXIS2_PLACEMENT_3D ( 'NONE', #701, #751, #834 ) ;
#606 = AXIS2_PLACEMENT_3D ( 'NONE', #248, #101, #327 ) ;
#607 = CARTESIAN_POINT ( 'NONE',  ( 0.000000000000000000, -0.2644371411667715832, 0.6874999999999996669 ) ) ;
#608 = DIRECTION ( 'NONE',  ( -0.4999999999999998890, 0.8660254037844387076, 0.000000000000000000 ) ) ;
#609 =( CONVERSION_BASED_UNIT ( 'INCH', #669 ) LENGTH_UNIT ( ) NAMED_UNIT ( #91 ) );
#610 = CARTESIAN_POINT ( 'NONE',  ( 0.000000000000000000, -0.2609501076264871822, 0.6874999999999996669 ) ) ;
#611 = EDGE_CURVE ( 'NONE', #642, #256, #207, .T. ) ;
#612 = DIRECTION ( 'NONE',  ( 0.000000000000000000, -1.000000000000000000, -5.165401466697485305E-16 ) ) ;
#613 = AXIS2_PLACEMENT_3D ( 'NONE', #152, #272, #277 ) ;
#614 = CIRCLE ( 'NONE', #687, 0.3102455233945501378 ) ;
#615 = DIRECTION ( 'NONE',  ( -0.000000000000000000, -4.350774375908397289E-16, 1.000000000000000000 ) ) ;
#616 = DIRECTION ( 'NONE',  ( 0.000000000000000000, 0.000000000000000000, 1.000000000000000000 ) ) ;
#617 = EDGE_CURVE ( 'NONE', #818, #750, #232, .T. ) ;
#618 = DIRECTION ( 'NONE',  ( 0.000000000000000000, 4.350774375908397289E-16, -1.000000000000000000 ) ) ;
#619 = ADVANCED_FACE ( 'NONE', ( #631 ), #196, .T. ) ;
#620 = CARTESIAN_POINT ( 'NONE',  ( 0.000000000000000000, -3.713385929837817121E-16, 0.8535000000000000364 ) ) ;
#621 = DIRECTION ( 'NONE',  ( -0.000000000000000000, -4.350774375908397289E-16, 1.000000000000000000 ) ) ;
#622 = CIRCLE ( 'NONE', #340, 0.1082531754730552548 ) ;
#623 = CARTESIAN_POINT ( 'NONE',  ( 0.000000000000000000, -3.713385929837817121E-16, 0.8535000000000000364 ) ) ;
#624 = CARTESIAN_POINT ( 'NONE',  ( 0.000000000000000000, -3.713385929837817121E-16, 0.8535000000000000364 ) ) ;
#625 = CARTESIAN_POINT ( 'NONE',  ( 0.06729793629279216816, 0.06939869383850501283, 0.8418220706506054363 ) ) ;
#626 = DIRECTION ( 'NONE',  ( -1.000000000000000000, 0.000000000000000000, -0.000000000000000000 ) ) ;
#627 = EDGE_CURVE ( 'NONE', #256, #281, #299, .T. ) ;
#628 = ORIENTED_EDGE ( 'NONE', *, *, #306, .F. ) ;
#629 = ORIENTED_EDGE ( 'NONE', *, *, #491, .F. ) ;
#630 = CARTESIAN_POINT ( 'NONE',  ( 0.000000000000000000, -0.1564999999999998614, 0.8535000000000000364 ) ) ;
#631 = FACE_OUTER_BOUND ( 'NONE', #403, .T. ) ;
#632 = AXIS2_PLACEMENT_3D ( 'NONE', #705, #329, #273 ) ;
#633 = APPROVAL_PERSON_ORGANIZATION ( #539, #200, #229 ) ;
#634 = EDGE_LOOP ( 'NONE', ( #237, #50, #520, #459 ) ) ;
#635 = DIRECTION ( 'NONE',  ( 1.000000000000000000, 0.000000000000000000, 0.000000000000000000 ) ) ;
#636 = CONICAL_SURFACE ( 'NONE', #398, 0.1564999999999997504, 0.7853981633974497223 ) ;
#637 = AXIS2_PLACEMENT_3D ( 'NONE', #431, #442, #111 ) ;
#638 = CARTESIAN_POINT ( 'NONE',  ( 0.01495450093053915866, 0.09961919033521154931, 0.8455985108849229936 ) ) ;
#639 = DIRECTION ( 'NONE',  ( -0.000000000000000000, -4.350774375908384470E-16, 1.000000000000000000 ) ) ;
#640 = ORIENTED_EDGE ( 'NONE', *, *, #529, .T. ) ;
#641 = APPROVAL_DATE_TIME ( #162, #200 ) ;
#642 = VERTEX_POINT ( 'NONE', #764 ) ;
#643 = CARTESIAN_POINT ( 'NONE',  ( -0.09375000000000033307, -0.05412658773652803679, 0.8535000000000000364 ) ) ;
#644 = CARTESIAN_POINT ( 'NONE',  ( 0.000000000000000000, -0.1564999999999991953, -0.6458333333329999704 ) ) ;
#645 = EDGE_CURVE ( 'NONE', #455, #256, #307, .T. ) ;
#646 = ORIENTED_EDGE ( 'NONE', *, *, #447, .F. ) ;
#647 = B_SPLINE_CURVE_WITH_KNOTS ( 'NONE', 3,
 ( #257, #718, #268, #594, #531, #847, #785, #521, #666, #344, #8, #738 ),
 .UNSPECIFIED., .F., .F.,
 ( 4, 2, 2, 2, 2, 4 ),
 ( 2.544342315326205952E-07, 0.0007103180709363563286, 0.001065349889288767782, 0.001420381707641179452, 0.002130445344346003009, 0.002840508981050826783 ),
 .UNSPECIFIED. ) ;
#648 = EDGE_LOOP ( 'NONE', ( #55, #629, #110, #39 ) ) ;
#649 = CARTESIAN_POINT ( 'NONE',  ( 6.236215755072429743E-19, 0.1082531754730548385, 0.7373000000000000664 ) ) ;
#650 = CC_DESIGN_DATE_AND_TIME_ASSIGNMENT ( #280, #488, ( #133 ) ) ;
#651 = EDGE_LOOP ( 'NONE', ( #160, #189 ) ) ;
#652 = FACE_OUTER_BOUND ( 'NONE', #525, .T. ) ;
#653 = ORIENTED_EDGE ( 'NONE', *, *, #352, .T. ) ;
#654 = CARTESIAN_POINT ( 'NONE',  ( 0.000000000000000000, -3.713385929837817121E-16, 0.8535000000000000364 ) ) ;
#655 = CIRCLE ( 'NONE', #605, 0.1164581754730548147 ) ;
#656 = EDGE_CURVE ( 'NONE', #503, #120, #227, .T. ) ;
#657 = DIRECTION ( 'NONE',  ( 0.000000000000000000, 4.350774375908397289E-16, -1.000000000000000000 ) ) ;
#658 = VERTEX_POINT ( 'NONE', #749 ) ;
#659 = CARTESIAN_POINT ( 'NONE',  ( 0.09375000000000029143, 0.05412658773652728045, 0.7373000000000000664 ) ) ;
#660 = ORIENTED_EDGE ( 'NONE', *, *, #460, .T. ) ;
#661 = EDGE_LOOP ( 'NONE', ( #62, #451, #840, #254, #763, #52, #756 ) ) ;
#662 = DIRECTION ( 'NONE',  ( 1.000000000000000000, 0.000000000000000000, 0.000000000000000000 ) ) ;
#663 = EDGE_LOOP ( 'NONE', ( #563, #243, #331, #574 ) ) ;
#664 = CARTESIAN_POINT ( 'NONE',  ( -0.09375000000000033307, 0.05412658773652723881, 0.7373000000000000664 ) ) ;
#665 = AXIS2_PLACEMENT_3D ( 'NONE', #819, #236, #314 ) ;
#666 = CARTESIAN_POINT ( 'NONE',  ( -0.06293092708921424472, 0.07191998777774430418, 0.8404078827389270812 ) ) ;
#667 = VECTOR ( 'NONE', #433, 39.37007874015748143 ) ;
#668 = EDGE_CURVE ( 'NONE', #261, #568, #564, .T. ) ;
#669 = LENGTH_MEASURE_WITH_UNIT ( LENGTH_MEASURE( 0.02539999999999999897 ), #153 );
#670 = DIRECTION ( 'NONE',  ( 0.000000000000000000, -1.000000000000000000, -5.234425880319071252E-16 ) ) ;
#671 = EDGE_CURVE ( 'NONE', #778, #523, #694, .T. ) ;
#672 = APPROVAL_STATUS ( 'not_yet_approved' ) ;
#673 = VERTEX_POINT ( 'NONE', #244 ) ;
#674 = CARTESIAN_POINT ( 'NONE',  ( -0.09375000000000033307, -0.05412658773652798128, 0.7373000000000000664 ) ) ;
#675 = CIRCLE ( 'NONE', #781, 0.1564999999999997504 ) ;
#676 = AXIS2_PLACEMENT_3D ( 'NONE', #578, #51, #302 ) ;
#677 = ADVANCED_FACE ( 'NONE', ( #106, #506 ), #757, .F. ) ;
#678 =( NAMED_UNIT ( * ) SI_UNIT ( $, .STERADIAN. ) SOLID_ANGLE_UNIT ( ) );
#679 = ORIENTED_EDGE ( 'NONE', *, *, #812, .F. ) ;
#680 = DIRECTION ( 'NONE',  ( 1.000000000000000000, 0.000000000000000000, 0.000000000000000000 ) ) ;
#681 = APPROVAL_DATE_TIME ( #202, #222 ) ;
#682 = CC_DESIGN_PERSON_AND_ORGANIZATION_ASSIGNMENT ( #477, #733, ( #73 ) ) ;
#683 = DIRECTION ( 'NONE',  ( -0.000000000000000000, -0.000000000000000000, 1.000000000000000000 ) ) ;
#684 = CARTESIAN_POINT ( 'NONE',  ( -0.09375000000000033307, -0.04574034945873798469, 0.8493068808611048404 ) ) ;
#685 = FACE_OUTER_BOUND ( 'NONE', #712, .T. ) ;
#686 = AXIS2_PLACEMENT_3D ( 'NONE', #654, #75, #332 ) ;
#687 = AXIS2_PLACEMENT_3D ( 'NONE', #688, #561, #375 ) ;
#688 = CARTESIAN_POINT ( 'NONE',  ( 0.000000000000000000, -6.829619984160658046E-17, 0.5659416960826109122 ) ) ;
#689 = CARTESIAN_POINT ( 'NONE',  ( 6.236215755072429743E-19, 0.1082531754730548385, 0.8535000000000000364 ) ) ;
#690 = CARTESIAN_POINT ( 'NONE',  ( 0.000000000000000000, -3.713385929837817121E-16, 0.8535000000000000364 ) ) ;
#691 = CALENDAR_DATE ( 2026, 2, 6 ) ;
#692 = CARTESIAN_POINT ( 'NONE',  ( -0.09375000000000033307, 0.05412658773652723881, 0.7373000000000000664 ) ) ;
#693 = CARTESIAN_POINT ( 'NONE',  ( -0.06335122042848372048, -0.07167733130517922602, 0.8407971146513562033 ) ) ;
#694 = LINE ( 'NONE', #630, #343 ) ;
#695 = CIRCLE ( 'NONE', #808, 0.2656297768780009894 ) ;
#696 = AXIS2_PLACEMENT_3D ( 'NONE', #624, #217, #357 ) ;
#697 = ADVANCED_FACE ( 'NONE', ( #583 ), #836, .F. ) ;
#698 = VECTOR ( 'NONE', #201, 39.37007874015748143 ) ;
#699 = VERTEX_POINT ( 'NONE', #589 ) ;
#700 = CARTESIAN_POINT ( 'NONE',  ( -0.09375000000000033307, 0.04575281765281149354, 0.8493131149581422124 ) ) ;
#701 = CARTESIAN_POINT ( 'NONE',  ( 0.000000000000000000, -1.028390246187631979E-16, 0.8535000000000000364 ) ) ;
#702 = DIRECTION ( 'NONE',  ( 0.000000000000000000, -1.000000000000000000, 0.000000000000000000 ) ) ;
#703 = ORIENTED_EDGE ( 'NONE', *, *, #426, .F. ) ;
#704 = CARTESIAN_POINT ( 'NONE',  ( 0.04261030354871508247, -0.08365210524895323740, 0.8390070829467626279 ) ) ;
#705 = CARTESIAN_POINT ( 'NONE',  ( 0.000000000000000000, -1.328801254864555184E-16, 0.7143840653363934257 ) ) ;
#706 = LINE ( 'NONE', #241, #556 ) ;
#707 = CARTESIAN_POINT ( 'NONE',  ( 0.000000000000000000, 0.2680552789160240978, 0.7120012976793606008 ) ) ;
#708 = ORIENTED_EDGE ( 'NONE', *, *, #724, .T. ) ;
#709 = CARTESIAN_POINT ( 'NONE',  ( 0.05488651553650234632, -0.07656443095317538861, 0.8389769434127340997 ) ) ;
#710 = EDGE_CURVE ( 'NONE', #120, #269, #788, .T. ) ;
#711 = AXIS2_PLACEMENT_3D ( 'NONE', #404, #336, #662 ) ;
#712 = EDGE_LOOP ( 'NONE', ( #780, #833, #761 ) ) ;
#713 = CIRCLE ( 'NONE', #696, 0.1082531754730552548 ) ;
#714 = DIRECTION ( 'NONE',  ( 0.000000000000000000, -0.3420201433256648271, 0.9396926207859097602 ) ) ;
#715 = AXIS2_PLACEMENT_3D ( 'NONE', #143, #425, #161 ) ;
#716 = EDGE_LOOP ( 'NONE', ( #66, #316, #88 ) ) ;
#717 = EDGE_LOOP ( 'NONE', ( #315, #813, #259, #114 ) ) ;
#718 = CARTESIAN_POINT ( 'NONE',  ( -0.007324877015266217581, 0.1040241557565100144, 0.8492709802834553789 ) ) ;
#719 = B_SPLINE_CURVE_WITH_KNOTS ( 'NONE', 3,
 ( #598, #65, #452, #456, #56, #463, #704, #709, #849, #262, #338, #115 ),
 .UNSPECIFIED., .F., .F.,
 ( 4, 2, 2, 2, 2, 4 ),
 ( 2.544342315342170405E-07, 0.0007103180709363569791, 0.001065349889288768866, 0.001420381707641180536, 0.002130445344346002575, 0.002840508981050825481 ),
 .UNSPECIFIED. ) ;
#720 = LINE ( 'NONE', #61, #604 ) ;
#721 = DIRECTION ( 'NONE',  ( 0.000000000000000000, 1.000000000000000000, 5.008247039880858752E-16 ) ) ;
#722 = CONICAL_SURFACE ( 'NONE', #216, 0.1082531754730552548, 0.7853981633974500554 ) ;
#723 = CALENDAR_DATE ( 2026, 2, 6 ) ;
#724 = EDGE_CURVE ( 'NONE', #304, #673, #135, .T. ) ;
#725 = AXIS2_PLACEMENT_3D ( 'NONE', #271, #769, #401 ) ;
#726 = CARTESIAN_POINT ( 'NONE',  ( -0.09375000000000033307, -0.05412658773652803679, 0.8535000000000000364 ) ) ;
#727 = AXIS2_PLACEMENT_3D ( 'NONE', #124, #828, #702 ) ;
#728 = DIRECTION ( 'NONE',  ( -0.000000000000000000, -4.350774375908397289E-16, 1.000000000000000000 ) ) ;
#729 = APPROVAL_STATUS ( 'not_yet_approved' ) ;
#730 = LINE ( 'NONE', #214, #570 ) ;
#731 = FACE_OUTER_BOUND ( 'NONE', #466, .T. ) ;
#732 = DIRECTION ( 'NONE',  ( -0.000000000000000000, -4.350774375908384470E-16, 1.000000000000000000 ) ) ;
#733 = PERSON_AND_ORGANIZATION_ROLE ( 'creator' ) ;
#734 = CARTESIAN_POINT ( 'NONE',  ( 0.000000000000000000, -3.713385929837817121E-16, 0.8535000000000000364 ) ) ;
#735 = EDGE_CURVE ( 'NONE', #250, #3, #841, .T. ) ;
#736 = CARTESIAN_POINT ( 'NONE',  ( 3.195717140419347992E-17, 0.2609501076264871267, 0.6924799999999999844 ) ) ;
#737 = LINE ( 'NONE', #211, #384 ) ;
#738 = CARTESIAN_POINT ( 'NONE',  ( -0.09375000000000036082, 0.05412658773652724575, 0.8535000000000000364 ) ) ;
#739 = AXIS2_PLACEMENT_3D ( 'NONE', #559, #427, #478 ) ;
#740 = PLANE ( 'NONE',  #439 ) ;
#741 = AXIS2_PLACEMENT_3D ( 'NONE', #392, #119, #397 ) ;
#742 = CIRCLE ( 'NONE', #296, 0.3102455233945501378 ) ;
#743 = COORDINATED_UNIVERSAL_TIME_OFFSET ( 6, 0, .BEHIND. ) ;
#744 = CARTESIAN_POINT ( 'NONE',  ( 0.000000000000000000, -3.204180548502446606E-17, 0.6907767396862379838 ) ) ;
#745 = FACE_OUTER_BOUND ( 'NONE', #320, .T. ) ;
#746 = EDGE_CURVE ( 'NONE', #261, #568, #231, .T. ) ;
#747 = CARTESIAN_POINT ( 'NONE',  ( -0.05529090322831814452, -0.07633095761044852989, 0.8393868269678822491 ) ) ;
#748 = CIRCLE ( 'NONE', #18, 0.2656297768780009894 ) ;
#749 = CARTESIAN_POINT ( 'NONE',  ( -3.336283762651714408E-17, -0.2724282433902221467, 0.7143840653363932036 ) ) ;
#750 = VERTEX_POINT ( 'NONE', #126 ) ;
#751 = DIRECTION ( 'NONE',  ( -0.000000000000000000, -4.350774375908397289E-16, 1.000000000000000000 ) ) ;
#752 = CARTESIAN_POINT ( 'NONE',  ( 6.829619984160658046E-17, -0.1082531754730556295, 0.8535000000000000364 ) ) ;
#753 = ADVANCED_FACE ( 'NONE', ( #446 ), #511, .F. ) ;
#754 = ORIENTED_EDGE ( 'NONE', *, *, #215, .F. ) ;
#755 = CARTESIAN_POINT ( 'NONE',  ( 0.09375000000000029143, 0.01880214593319480543, 0.8404675858277436129 ) ) ;
#756 = ORIENTED_EDGE ( 'NONE', *, *, #225, .F. ) ;
#757 = PLANE ( 'NONE',  #637 ) ;
#758 = CIRCLE ( 'NONE', #76, 0.004979999999999990511 ) ;
#759 = DIRECTION ( 'NONE',  ( 1.000000000000000000, 0.000000000000000000, 0.000000000000000000 ) ) ;
#760 = CC_DESIGN_APPROVAL ( #222, ( #73 ) ) ;
#761 = ORIENTED_EDGE ( 'NONE', *, *, #13, .T. ) ;
#762 = AXIS2_PLACEMENT_3D ( 'NONE', #372, #83, #572 ) ;
#763 = ORIENTED_EDGE ( 'NONE', *, *, #529, .F. ) ;
#764 = CARTESIAN_POINT ( 'NONE',  ( -0.09375000000000036082, 0.05412658773652724575, 0.8535000000000000364 ) ) ;
#765 = CARTESIAN_POINT ( 'NONE',  ( 0.000000000000000000, -6.829619984160658046E-17, 0.5659416960826109122 ) ) ;
#766 = ORIENTED_EDGE ( 'NONE', *, *, #140, .F. ) ;
#767 = CARTESIAN_POINT ( 'NONE',  ( 6.829619984160658046E-17, -0.1082531754730556295, 0.8535000000000000364 ) ) ;
#768 = ORIENTED_EDGE ( 'NONE', *, *, #306, .T. ) ;
#769 = DIRECTION ( 'NONE',  ( 0.000000000000000000, -4.350774375908397289E-16, 1.000000000000000000 ) ) ;
#770 = ADVANCED_FACE ( 'NONE', ( #527 ), #199, .F. ) ;
#771 = ORIENTED_EDGE ( 'NONE', *, *, #407, .T. ) ;
#772 = EDGE_LOOP ( 'NONE', ( #389, #246, #301, #194, #394 ) ) ;
#773 = CARTESIAN_POINT ( 'NONE',  ( 0.09375000000000029143, -0.009530605766918281638, 0.8389968245269451286 ) ) ;
#774 = CARTESIAN_POINT ( 'NONE',  ( 0.09375000000000029143, 0.05412658773652735678, 0.8535000000000000364 ) ) ;
#775 = ORIENTED_EDGE ( 'NONE', *, *, #345, .F. ) ;
#776 = DIRECTION ( 'NONE',  ( -0.8660254037844388186, 0.4999999999999998335, 0.000000000000000000 ) ) ;
#777 = CARTESIAN_POINT ( 'NONE',  ( 3.282730393190600638E-17, -0.2680552789160243754, 0.7120012976793602677 ) ) ;
#778 = VERTEX_POINT ( 'NONE', #187 ) ;
#779 = AXIS2_PLACEMENT_3D ( 'NONE', #765, #184, #448 ) ;
#780 = ORIENTED_EDGE ( 'NONE', *, *, #258, .F. ) ;
#781 = AXIS2_PLACEMENT_3D ( 'NONE', #385, #639, #319 ) ;
#782 = CARTESIAN_POINT ( 'NONE',  ( 1.661437490841195607E-17, 0.1148333333329998457, -0.6875000000000002220 ) ) ;
#783 = VECTOR ( 'NONE', #376, 39.37007874015748143 ) ;
#784 = DIRECTION ( 'NONE',  ( 0.000000000000000000, -1.000000000000000000, 0.000000000000000000 ) ) ;
#785 = CARTESIAN_POINT ( 'NONE',  ( -0.04261030354871512410, 0.08365210524895248800, 0.8390070829467626279 ) ) ;
#786 = EDGE_CURVE ( 'NONE', #512, #304, #406, .T. ) ;
#787 = DIRECTION ( 'NONE',  ( 0.000000000000000000, 4.350774375908397289E-16, -1.000000000000000000 ) ) ;
#788 = LINE ( 'NONE', #603, #698 ) ;
#789 = DIRECTION ( 'NONE',  ( 1.000000000000000000, 0.000000000000000000, 0.000000000000000000 ) ) ;
#790 = CC_DESIGN_PERSON_AND_ORGANIZATION_ASSIGNMENT ( #19, #791, ( #131 ) ) ;
#791 = PERSON_AND_ORGANIZATION_ROLE ( 'design_owner' ) ;
#792 = CARTESIAN_POINT ( 'NONE',  ( 0.09375000000000029143, 0.05412658773652728045, 0.7373000000000000664 ) ) ;
#793 = AXIS2_PLACEMENT_3D ( 'NONE', #138, #141, #412 ) ;
#794 = DIRECTION ( 'NONE',  ( 0.000000000000000000, 4.350774375908397289E-16, -1.000000000000000000 ) ) ;
#795 = FACE_OUTER_BOUND ( 'NONE', #519, .T. ) ;
#796 = APPROVAL_ROLE ( '' ) ;
#797 = EDGE_CURVE ( 'NONE', #120, #512, #720, .T. ) ;
#798 = DIRECTION ( 'NONE',  ( 0.8660254037844385966, -0.4999999999999998335, 0.000000000000000000 ) ) ;
#799 = CARTESIAN_POINT ( 'NONE',  ( 0.09375000000000029143, -3.713385929965635761E-16, 0.8389968245269451286 ) ) ;
#800 = PERSON_AND_ORGANIZATION_ROLE ( 'design_supplier' ) ;
#801 = DIRECTION ( 'NONE',  ( 1.000000000000000000, 0.000000000000000000, 0.000000000000000000 ) ) ;
#802 = CC_DESIGN_PERSON_AND_ORGANIZATION_ASSIGNMENT ( #291, #558, ( #440 ) ) ;
#803 = COORDINATED_UNIVERSAL_TIME_OFFSET ( 6, 0, .BEHIND. ) ;
#804 = AXIS2_PLACEMENT_3D ( 'NONE', #288, #158, #206 ) ;
#805 = DIRECTION ( 'NONE',  ( -0.000000000000000000, -4.350774375908397289E-16, 1.000000000000000000 ) ) ;
#806 = LOCAL_TIME ( 14, 26, 0.000000000000000000, #300 ) ;
#807 = CIRCLE ( 'NONE', #328, 0.004979999999999955816 ) ;
#808 = AXIS2_PLACEMENT_3D ( 'NONE', #744, #621, #282 ) ;
#809 = ADVANCED_FACE ( 'NONE', ( #467 ), #192, .T. ) ;
#810 = FACE_OUTER_BOUND ( 'NONE', #634, .T. ) ;
#811 = CARTESIAN_POINT ( 'NONE',  ( 0.000000000000000000, -0.1565000000000000280, 0.6875000000000000000 ) ) ;
#812 = EDGE_CURVE ( 'NONE', #281, #269, #719, .T. ) ;
#813 = ORIENTED_EDGE ( 'NONE', *, *, #424, .F. ) ;
#814 = ORIENTED_EDGE ( 'NONE', *, *, #710, .F. ) ;
#815 = CARTESIAN_POINT ( 'NONE',  ( 0.03886348446349793123, 0.08581533225640748663, 0.8389769434127340997 ) ) ;
#816 = FACE_OUTER_BOUND ( 'NONE', #848, .T. ) ;
#817 = PLANE ( 'NONE',  #166 ) ;
#818 = VERTEX_POINT ( 'NONE', #782 ) ;
#819 = CARTESIAN_POINT ( 'NONE',  ( 0.000000000000000000, -1.328801254864555184E-16, 0.7143840653363934257 ) ) ;
#820 = AXIS2_PLACEMENT_3D ( 'NONE', #149, #95, #92 ) ;
#821 = EDGE_LOOP ( 'NONE', ( #646, #775, #470, #396 ) ) ;
#822 = B_SPLINE_CURVE_WITH_KNOTS ( 'NONE', 3,
 ( #54, #242, #755, #260, #325, #774 ),
 .UNSPECIFIED., .F., .F.,
 ( 4, 2, 4 ),
 ( 0.003050722177661687948, 0.003763232766847834400, 0.004475743356033980852 ),
 .UNSPECIFIED. ) ;
#823 = CARTESIAN_POINT ( 'NONE',  ( -0.09375000000000033307, -0.05412658773652803679, 0.8535000000000000364 ) ) ;
#824 = LINE ( 'NONE', #644, #44 ) ;
#825 = EDGE_CURVE ( 'NONE', #3, #312, #567, .T. ) ;
#826 = CARTESIAN_POINT ( 'NONE',  ( 3.340039812889947524E-17, 0.2727349481675380161, 0.7102980373655988222 ) ) ;
#827 = ORIENTED_EDGE ( 'NONE', *, *, #345, .T. ) ;
#828 = DIRECTION ( 'NONE',  ( -0.000000000000000000, -4.350774375908384470E-16, 1.000000000000000000 ) ) ;
#829 = ORIENTED_EDGE ( 'NONE', *, *, #611, .T. ) ;
#830 = CARTESIAN_POINT ( 'NONE',  ( 0.007368046571060321050, 0.1039992318018514578, 0.8492460563287822506 ) ) ;
#831 = DIRECTION ( 'NONE',  ( -1.224646799147353207E-16, -1.000000000000000000, 0.000000000000000000 ) ) ;
#832 = PRODUCT_RELATED_PRODUCT_CATEGORY ( 'detail', '', ( #131 ) ) ;
#833 = ORIENTED_EDGE ( 'NONE', *, *, #298, .F. ) ;
#834 = DIRECTION ( 'NONE',  ( 0.000000000000000000, -1.000000000000000000, 0.000000000000000000 ) ) ;
#835 = ORIENTED_EDGE ( 'NONE', *, *, #378, .T. ) ;
#836 = PLANE ( 'NONE',  #606 ) ;
#837 = VECTOR ( 'NONE', #714, 39.37007874015748854 ) ;
#838 = LOCAL_TIME ( 14, 26, 0.000000000000000000, #81 ) ;
#839 = CARTESIAN_POINT ( 'NONE',  ( 0.09375000000000029143, -0.05412658773652809230, 0.8535000000000000364 ) ) ;
#840 = ORIENTED_EDGE ( 'NONE', *, *, #373, .F. ) ;
#841 = LINE ( 'NONE', #607, #837 ) ;
#842 = SPHERICAL_SURFACE ( 'NONE', #779, 0.3102455233945501378 ) ;
#843 = VERTEX_POINT ( 'NONE', #5 ) ;
#844 = APPROVAL ( #729, 'UNSPECIFIED' ) ;
#845 = LINE ( 'NONE', #664, #514 ) ;
#846 = ORIENTED_EDGE ( 'NONE', *, *, #205, .F. ) ;
#847 = CARTESIAN_POINT ( 'NONE',  ( -0.03845909677168214691, 0.08604880559913427596, 0.8393868269678821381 ) ) ;
#848 = EDGE_LOOP ( 'NONE', ( #640, #679 ) ) ;
#849 = CARTESIAN_POINT ( 'NONE',  ( 0.06293092708921423084, -0.07191998777774503970, 0.8404078827389271922 ) ) ;
#850 = EDGE_CURVE ( 'NONE', #568, #642, #647, .T. ) ;
#851 = VECTOR ( 'NONE', #493, 39.37007874015748143 ) ;
ENDSEC;
END-ISO-10303-21;
