ISO-10303-21;
HEADER;
FILE_DESCRIPTION (( 'STEP AP203' ),
    '1' );
FILE_NAME ('93475A240_18-8 Stainless Steel General Purpose Washer.STEP',
    '2026-09-24T14:59:53',
    ( 'McMaster Carr Supply' ),
    ( 'McMaster Carr Supply' ),
    'SwSTEP 2.0',
    'SolidWorks 2024',
    '' );
FILE_SCHEMA (( 'CONFIG_CONTROL_DESIGN' ));
ENDSEC;

DATA;
#1 = FACE_OUTER_BOUND ( 'NONE', #73, .T. ) ;
#2 = EDGE_CURVE ( 'NONE', #183, #438, #64, .T. ) ;
#3 = ORIENTED_EDGE ( 'NONE', *, *, #5, .F. ) ;
#4 = AXIS2_PLACEMENT_3D ( 'NONE', #29, #28, #308 ) ;
#5 = EDGE_CURVE ( 'NONE', #69, #455, #144, .T. ) ;
#6 = PERSON_AND_ORGANIZATION_ROLE ( 'design_owner' ) ;
#7 = ORIENTED_EDGE ( 'NONE', *, *, #172, .F. ) ;
#8 = APPROVAL_STATUS ( 'not_yet_approved' ) ;
#9 = CARTESIAN_POINT ( 'NONE',  ( 4.939999999999999503, 0.000000000000000000, -0.4999999999999993339 ) ) ;
#10 = EDGE_CURVE ( 'NONE', #332, #69, #329, .T. ) ;
#11 = CIRCLE ( 'NONE', #84, 5.000000000000000000 ) ;
#12 = CIRCLE ( 'NONE', #125, 0.06000000000000015737 ) ;
#13 = CARTESIAN_POINT ( 'NONE',  ( 0.000000000000000000, 0.000000000000000000, 0.4400000000000007239 ) ) ;
#14 = CC_DESIGN_DATE_AND_TIME_ASSIGNMENT ( #123, #190, ( #280 ) ) ;
#15 = LINE ( 'NONE', #151, #202 ) ;
#16 = APPROVAL_DATE_TIME ( #326, #314 ) ;
#17 = DESIGN_CONTEXT ( 'detailed design', #409, 'design' ) ;
#18 = VERTEX_POINT ( 'NONE', #435 ) ;
#19 = CARTESIAN_POINT ( 'NONE',  ( 0.000000000000000000, 0.000000000000000000, 0.4400000000000007239 ) ) ;
#20 = DIRECTION ( 'NONE',  ( 0.000000000000000000, 0.000000000000000000, 1.000000000000000000 ) ) ;
#21 = CARTESIAN_POINT ( 'NONE',  ( 0.000000000000000000, 0.000000000000000000, -0.4999999999999993339 ) ) ;
#22 = DIRECTION ( 'NONE',  ( 1.000000000000000000, 0.000000000000000000, -0.000000000000000000 ) ) ;
#23 = CARTESIAN_POINT ( 'NONE',  ( 0.000000000000000000, 0.000000000000000000, -0.4999999999999993339 ) ) ;
#24 = DIRECTION ( 'NONE',  ( 0.000000000000000000, 0.000000000000000000, 1.000000000000000000 ) ) ;
#25 = DIRECTION ( 'NONE',  ( 1.000000000000000000, 0.000000000000000000, 0.000000000000000000 ) ) ;
#26 = CIRCLE ( 'NONE', #299, 2.709999999999999964 ) ;
#27 = APPROVAL_PERSON_ORGANIZATION ( #184, #314, #397 ) ;
#28 = DIRECTION ( 'NONE',  ( 0.000000000000000000, 0.000000000000000000, 1.000000000000000000 ) ) ;
#29 = CARTESIAN_POINT ( 'NONE',  ( 0.000000000000000000, 0.000000000000000000, 0.5000000000000006661 ) ) ;
#30 = DIRECTION ( 'NONE',  ( 1.000000000000000000, 0.000000000000000000, 0.000000000000000000 ) ) ;
#31 = EDGE_CURVE ( 'NONE', #191, #438, #45, .T. ) ;
#32 = CIRCLE ( 'NONE', #83, 4.939999999999999503 ) ;
#33 = CIRCLE ( 'NONE', #393, 0.05999999999999999778 ) ;
#34 = VERTEX_POINT ( 'NONE', #9 ) ;
#35 = DIRECTION ( 'NONE',  ( -1.000000000000000000, 1.224646799147351482E-16, 0.000000000000000000 ) ) ;
#36 = ORIENTED_EDGE ( 'NONE', *, *, #79, .F. ) ;
#37 = FACE_OUTER_BOUND ( 'NONE', #81, .T. ) ;
#38 = EDGE_LOOP ( 'NONE', ( #281, #7, #319, #3 ) ) ;
#39 = CARTESIAN_POINT ( 'NONE',  ( 5.000000000000000000, 0.000000000000000000, -0.4399999999999993916 ) ) ;
#40 = ORIENTED_EDGE ( 'NONE', *, *, #116, .F. ) ;
#41 = AXIS2_PLACEMENT_3D ( 'NONE', #86, #368, #292 ) ;
#42 = AXIS2_PLACEMENT_3D ( 'NONE', #320, #72, #347 ) ;
#43 = ORIENTED_EDGE ( 'NONE', *, *, #2, .F. ) ;
#44 = APPROVAL_ROLE ( '' ) ;
#45 = LINE ( 'NONE', #439, #370 ) ;
#46 = EDGE_CURVE ( 'NONE', #69, #214, #15, .T. ) ;
#47 = CARTESIAN_POINT ( 'NONE',  ( -5.000000000000000000, 6.123233995736766282E-16, -0.4399999999999993916 ) ) ;
#48 = PERSON_AND_ORGANIZATION ( #405, #400 ) ;
#49 = CIRCLE ( 'NONE', #343, 5.000000000000000000 ) ;
#50 = ORIENTED_EDGE ( 'NONE', *, *, #131, .F. ) ;
#51 = ADVANCED_FACE ( 'NONE', ( #295 ), #450, .T. ) ;
#52 = DIRECTION ( 'NONE',  ( 1.000000000000000000, 0.000000000000000000, 0.000000000000000000 ) ) ;
#53 = ORIENTED_EDGE ( 'NONE', *, *, #388, .F. ) ;
#54 = DIRECTION ( 'NONE',  ( 1.000000000000000000, 0.000000000000000000, -0.000000000000000000 ) ) ;
#55 = CC_DESIGN_APPROVAL ( #247, ( #351 ) ) ;
#56 = DIRECTION ( 'NONE',  ( -0.000000000000000000, -0.000000000000000000, -1.000000000000000000 ) ) ;
#57 = DIRECTION ( 'NONE',  ( 0.000000000000000000, 0.000000000000000000, 1.000000000000000000 ) ) ;
#58 = DIRECTION ( 'NONE',  ( 0.000000000000000000, 0.000000000000000000, 1.000000000000000000 ) ) ;
#59 = EDGE_CURVE ( 'NONE', #34, #455, #102, .T. ) ;
#60 = DIRECTION ( 'NONE',  ( 1.224646799147353207E-16, 1.000000000000000000, -0.000000000000000000 ) ) ;
#61 = DIRECTION ( 'NONE',  ( 0.000000000000000000, 0.000000000000000000, 1.000000000000000000 ) ) ;
#62 = ADVANCED_FACE ( 'NONE', ( #330 ), #132, .T. ) ;
#63 = PLANE ( 'NONE',  #205 ) ;
#64 = CIRCLE ( 'NONE', #68, 2.649999999999999911 ) ;
#65 = DIRECTION ( 'NONE',  ( 0.000000000000000000, -1.000000000000000000, 0.000000000000000000 ) ) ;
#66 = MECHANICAL_CONTEXT ( 'NONE', #119, 'mechanical' ) ;
#67 = DIRECTION ( 'NONE',  ( -0.000000000000000000, -0.000000000000000000, -1.000000000000000000 ) ) ;
#68 = AXIS2_PLACEMENT_3D ( 'NONE', #19, #298, #402 ) ;
#69 = VERTEX_POINT ( 'NONE', #47 ) ;
#70 = CARTESIAN_POINT ( 'NONE',  ( 2.709999999999999964, 0.000000000000000000, 0.5000000000000006661 ) ) ;
#71 = ORIENTED_EDGE ( 'NONE', *, *, #2, .T. ) ;
#72 = DIRECTION ( 'NONE',  ( -0.000000000000000000, -0.000000000000000000, -1.000000000000000000 ) ) ;
#73 = EDGE_LOOP ( 'NONE', ( #245, #173, #109, #286 ) ) ;
#74 = ORIENTED_EDGE ( 'NONE', *, *, #392, .F. ) ;
#75 = AXIS2_PLACEMENT_3D ( 'NONE', #13, #433, #364 ) ;
#76 = LOCAL_TIME ( 9, 59, 53.00000000000000000, #252 ) ;
#77 = ORIENTED_EDGE ( 'NONE', *, *, #188, .F. ) ;
#78 = CALENDAR_DATE ( 2026, 24, 9 ) ;
#79 = EDGE_CURVE ( 'NONE', #122, #18, #93, .T. ) ;
#80 = APPROVAL_DATE_TIME ( #288, #256 ) ;
#81 = EDGE_LOOP ( 'NONE', ( #211, #254, #175, #36 ) ) ;
#82 = PERSON_AND_ORGANIZATION ( #405, #400 ) ;
#83 = AXIS2_PLACEMENT_3D ( 'NONE', #21, #199, #162 ) ;
#84 = AXIS2_PLACEMENT_3D ( 'NONE', #410, #403, #194 ) ;
#85 = AXIS2_PLACEMENT_3D ( 'NONE', #352, #415, #140 ) ;
#86 = CARTESIAN_POINT ( 'NONE',  ( 0.000000000000000000, 0.000000000000000000, -0.4399999999999993916 ) ) ;
#87 = EDGE_CURVE ( 'NONE', #428, #214, #170, .T. ) ;
#88 = PERSON_AND_ORGANIZATION ( #405, #400 ) ;
#89 = DIRECTION ( 'NONE',  ( 0.000000000000000000, 0.000000000000000000, 1.000000000000000000 ) ) ;
#90 = FACE_OUTER_BOUND ( 'NONE', #357, .T. ) ;
#91 = ORIENTED_EDGE ( 'NONE', *, *, #417, .T. ) ;
#92 = CARTESIAN_POINT ( 'NONE',  ( -5.000000000000000000, 6.123233995736766282E-16, 0.4400000000000007239 ) ) ;
#93 = CIRCLE ( 'NONE', #279, 2.709999999999999964 ) ;
#94 = AXIS2_PLACEMENT_3D ( 'NONE', #198, #24, #338 ) ;
#95 = CIRCLE ( 'NONE', #181, 0.05999999999999999778 ) ;
#96 = CARTESIAN_POINT ( 'NONE',  ( 0.000000000000000000, 0.000000000000000000, 0.4400000000000007239 ) ) ;
#97 = CARTESIAN_POINT ( 'NONE',  ( -2.709999999999999964, 3.318792825689326992E-16, -0.4399999999999993916 ) ) ;
#98 = CC_DESIGN_PERSON_AND_ORGANIZATION_ASSIGNMENT ( #150, #427, ( #273 ) ) ;
#99 = DIRECTION ( 'NONE',  ( 0.000000000000000000, 0.000000000000000000, 1.000000000000000000 ) ) ;
#100 = CARTESIAN_POINT ( 'NONE',  ( 0.000000000000000000, 0.000000000000000000, 0.5000000000000006661 ) ) ;
#101 = CARTESIAN_POINT ( 'NONE',  ( 4.939999999999999503, 0.000000000000000000, 0.4400000000000007239 ) ) ;
#102 = CIRCLE ( 'NONE', #355, 0.05999999999999999778 ) ;
#103 = TOROIDAL_SURFACE ( 'NONE', #156, 2.709999999999999964, 0.05999999999999999778 ) ;
#104 = AXIS2_PLACEMENT_3D ( 'NONE', #278, #105, #239 ) ;
#105 = DIRECTION ( 'NONE',  ( 0.000000000000000000, 0.000000000000000000, 1.000000000000000000 ) ) ;
#106 = ORIENTED_EDGE ( 'NONE', *, *, #31, .F. ) ;
#107 = DIRECTION ( 'NONE',  ( 1.224646799147353207E-16, 1.000000000000000000, -0.000000000000000000 ) ) ;
#108 = AXIS2_PLACEMENT_3D ( 'NONE', #128, #134, #406 ) ;
#109 = ORIENTED_EDGE ( 'NONE', *, *, #312, .F. ) ;
#110 = CIRCLE ( 'NONE', #224, 0.06000000000000015737 ) ;
#111 = ORIENTED_EDGE ( 'NONE', *, *, #253, .F. ) ;
#112 = ORIENTED_EDGE ( 'NONE', *, *, #265, .F. ) ;
#113 = APPROVAL_STATUS ( 'not_yet_approved' ) ;
#114 = AXIS2_PLACEMENT_3D ( 'NONE', #376, #56, #159 ) ;
#115 = CALENDAR_DATE ( 2026, 24, 9 ) ;
#116 = EDGE_CURVE ( 'NONE', #366, #426, #323, .T. ) ;
#117 = VERTEX_POINT ( 'NONE', #407 ) ;
#118 = PERSON_AND_ORGANIZATION_ROLE ( 'creator' ) ;
#119 = APPLICATION_CONTEXT ( 'configuration controlled 3d designs of mechanical parts and assemblies' ) ;
#120 = ORIENTED_EDGE ( 'NONE', *, *, #143, .F. ) ;
#121 = DATE_AND_TIME ( #262, #381 ) ;
#122 = VERTEX_POINT ( 'NONE', #165 ) ;
#123 = DATE_AND_TIME ( #115, #238 ) ;
#124 = CIRCLE ( 'NONE', #408, 2.649999999999999911 ) ;
#125 = AXIS2_PLACEMENT_3D ( 'NONE', #387, #282, #35 ) ;
#126 = ORIENTED_EDGE ( 'NONE', *, *, #304, .F. ) ;
#127 = ORIENTED_EDGE ( 'NONE', *, *, #176, .F. ) ;
#128 = CARTESIAN_POINT ( 'NONE',  ( 0.000000000000000000, 0.000000000000000000, 0.5000000000000006661 ) ) ;
#129 = CARTESIAN_POINT ( 'NONE',  ( 0.000000000000000000, 0.000000000000000000, 0.5000000000000006661 ) ) ;
#130 = DIRECTION ( 'NONE',  ( 0.000000000000000000, 0.000000000000000000, -1.000000000000000000 ) ) ;
#131 = EDGE_CURVE ( 'NONE', #455, #428, #374, .T. ) ;
#132 = TOROIDAL_SURFACE ( 'NONE', #75, 4.939999999999999503, 0.05999999999999999778 ) ;
#133 = CARTESIAN_POINT ( 'NONE',  ( 0.000000000000000000, 0.000000000000000000, -0.4399999999999993916 ) ) ;
#134 = DIRECTION ( 'NONE',  ( 0.000000000000000000, 0.000000000000000000, 1.000000000000000000 ) ) ;
#135 = CARTESIAN_POINT ( 'NONE',  ( 2.709999999999999964, 0.000000000000000000, -0.4399999999999993916 ) ) ;
#136 = APPLICATION_PROTOCOL_DEFINITION ( 'international standard', 'config_control_design', 1994, #119 ) ;
#137 = PRODUCT ( '93475A240_18-8 Stainless Steel General Purpose Washer', '93475A240_18-8 Stainless Steel General Purpose Washer', '', ( #66 ) ) ;
#138 =( NAMED_UNIT ( * ) PLANE_ANGLE_UNIT ( ) SI_UNIT ( $, .RADIAN. ) );
#139 = ADVANCED_BREP_SHAPE_REPRESENTATION ( '93475A240_18-8 Stainless Steel General Purpose Washer', ( #360, #104 ), #232 ) ;
#140 = DIRECTION ( 'NONE',  ( 1.000000000000000000, 0.000000000000000000, 0.000000000000000000 ) ) ;
#141 = ORIENTED_EDGE ( 'NONE', *, *, #116, .T. ) ;
#142 = CARTESIAN_POINT ( 'NONE',  ( -2.709999999999999964, 3.318792825689326499E-16, 0.5000000000000006661 ) ) ;
#143 = EDGE_CURVE ( 'NONE', #287, #183, #445, .T. ) ;
#144 = CIRCLE ( 'NONE', #437, 5.000000000000000000 ) ;
#145 = EDGE_LOOP ( 'NONE', ( #348, #180, #328, #149 ) ) ;
#146 = TOROIDAL_SURFACE ( 'NONE', #309, 2.709999999999999964, 0.05999999999999999778 ) ;
#147 = EDGE_LOOP ( 'NONE', ( #120, #251, #294, #390 ) ) ;
#148 = PERSON_AND_ORGANIZATION ( #405, #400 ) ;
#149 = ORIENTED_EDGE ( 'NONE', *, *, #87, .T. ) ;
#150 = PERSON_AND_ORGANIZATION ( #405, #400 ) ;
#151 = CARTESIAN_POINT ( 'NONE',  ( -5.000000000000000000, 6.123233995736766282E-16, -0.4999999999999993339 ) ) ;
#152 = AXIS2_PLACEMENT_3D ( 'NONE', #341, #163, #161 ) ;
#153 = PERSON_AND_ORGANIZATION_ROLE ( 'classification_officer' ) ;
#154 = EDGE_LOOP ( 'NONE', ( #386, #207 ) ) ;
#155 = ORIENTED_EDGE ( 'NONE', *, *, #388, .T. ) ;
#156 = AXIS2_PLACEMENT_3D ( 'NONE', #349, #246, #382 ) ;
#157 = CARTESIAN_POINT ( 'NONE',  ( -4.939999999999999503, 6.049755187787924760E-16, -0.4399999999999993916 ) ) ;
#158 = DIRECTION ( 'NONE',  ( 1.000000000000000000, 0.000000000000000000, 0.000000000000000000 ) ) ;
#159 = DIRECTION ( 'NONE',  ( 1.000000000000000000, 0.000000000000000000, 0.000000000000000000 ) ) ;
#160 = ADVANCED_FACE ( 'NONE', ( #274 ), #335, .T. ) ;
#161 = DIRECTION ( 'NONE',  ( 1.000000000000000000, 0.000000000000000000, 0.000000000000000000 ) ) ;
#162 = DIRECTION ( 'NONE',  ( 1.000000000000000000, 0.000000000000000000, 0.000000000000000000 ) ) ;
#163 = DIRECTION ( 'NONE',  ( -0.000000000000000000, -0.000000000000000000, -1.000000000000000000 ) ) ;
#164 = CIRCLE ( 'NONE', #42, 4.939999999999999503 ) ;
#165 = CARTESIAN_POINT ( 'NONE',  ( -2.709999999999999964, 3.318792825689326499E-16, -0.4999999999999993339 ) ) ;
#166 = DIRECTION ( 'NONE',  ( 0.000000000000000000, 0.000000000000000000, -1.000000000000000000 ) ) ;
#167 = EDGE_CURVE ( 'NONE', #287, #191, #250, .T. ) ;
#168 = DIRECTION ( 'NONE',  ( 1.000000000000000000, 0.000000000000000000, 0.000000000000000000 ) ) ;
#169 = DIRECTION ( 'NONE',  ( 0.000000000000000000, 0.000000000000000000, -1.000000000000000000 ) ) ;
#170 = CIRCLE ( 'NONE', #261, 5.000000000000000000 ) ;
#171 = LOCAL_TIME ( 9, 59, 53.00000000000000000, #220 ) ;
#172 = EDGE_CURVE ( 'NONE', #34, #332, #32, .T. ) ;
#173 = ORIENTED_EDGE ( 'NONE', *, *, #235, .T. ) ;
#174 = CARTESIAN_POINT ( 'NONE',  ( 5.000000000000000000, 0.000000000000000000, 0.4400000000000007239 ) ) ;
#175 = ORIENTED_EDGE ( 'NONE', *, *, #293, .T. ) ;
#176 = EDGE_CURVE ( 'NONE', #455, #69, #49, .T. ) ;
#177 = DIRECTION ( 'NONE',  ( 0.000000000000000000, -1.000000000000000000, 0.000000000000000000 ) ) ;
#178 = ORIENTED_EDGE ( 'NONE', *, *, #143, .T. ) ;
#179 = CIRCLE ( 'NONE', #108, 4.939999999999999503 ) ;
#180 = ORIENTED_EDGE ( 'NONE', *, *, #5, .T. ) ;
#181 = AXIS2_PLACEMENT_3D ( 'NONE', #204, #177, #169 ) ;
#182 = ADVANCED_FACE ( 'NONE', ( #303 ), #442, .F. ) ;
#183 = VERTEX_POINT ( 'NONE', #313 ) ;
#184 = PERSON_AND_ORGANIZATION ( #405, #400 ) ;
#185 = EDGE_LOOP ( 'NONE', ( #217, #178, #71, #106 ) ) ;
#186 = ORIENTED_EDGE ( 'NONE', *, *, #212, .F. ) ;
#187 = AXIS2_PLACEMENT_3D ( 'NONE', #129, #337, #196 ) ;
#188 = EDGE_CURVE ( 'NONE', #428, #325, #33, .T. ) ;
#189 = CIRCLE ( 'NONE', #446, 0.05999999999999999778 ) ;
#190 = DATE_TIME_ROLE ( 'classification_date' ) ;
#191 = VERTEX_POINT ( 'NONE', #449 ) ;
#192 = DIRECTION ( 'NONE',  ( 0.000000000000000000, 0.000000000000000000, 1.000000000000000000 ) ) ;
#193 = DIRECTION ( 'NONE',  ( 1.224646799147353207E-16, 1.000000000000000000, -0.000000000000000000 ) ) ;
#194 = DIRECTION ( 'NONE',  ( 1.000000000000000000, 0.000000000000000000, 0.000000000000000000 ) ) ;
#195 = AXIS2_PLACEMENT_3D ( 'NONE', #283, #243, #422 ) ;
#196 = DIRECTION ( 'NONE',  ( 1.000000000000000000, 0.000000000000000000, 0.000000000000000000 ) ) ;
#197 = CYLINDRICAL_SURFACE ( 'NONE', #94, 5.000000000000000000 ) ;
#198 = CARTESIAN_POINT ( 'NONE',  ( 0.000000000000000000, 0.000000000000000000, -0.4999999999999993339 ) ) ;
#199 = DIRECTION ( 'NONE',  ( -0.000000000000000000, -0.000000000000000000, -1.000000000000000000 ) ) ;
#200 = ADVANCED_FACE ( 'NONE', ( #344, #203 ), #63, .F. ) ;
#201 = DIRECTION ( 'NONE',  ( 1.000000000000000000, 0.000000000000000000, 0.000000000000000000 ) ) ;
#202 = VECTOR ( 'NONE', #227, 1000.000000000000000 ) ;
#203 = FACE_BOUND ( 'NONE', #154, .T. ) ;
#204 = CARTESIAN_POINT ( 'NONE',  ( 2.709999999999999964, 0.000000000000000000, 0.4400000000000007239 ) ) ;
#205 = AXIS2_PLACEMENT_3D ( 'NONE', #369, #266, #54 ) ;
#206 = EDGE_CURVE ( 'NONE', #325, #117, #451, .T. ) ;
#207 = ORIENTED_EDGE ( 'NONE', *, *, #79, .T. ) ;
#208 = DIRECTION ( 'NONE',  ( 1.000000000000000000, 0.000000000000000000, 0.000000000000000000 ) ) ;
#209 = EDGE_LOOP ( 'NONE', ( #186, #155, #401, #77 ) ) ;
#210 = DIRECTION ( 'NONE',  ( 0.000000000000000000, 0.000000000000000000, 1.000000000000000000 ) ) ;
#211 = ORIENTED_EDGE ( 'NONE', *, *, #235, .F. ) ;
#212 = EDGE_CURVE ( 'NONE', #214, #428, #11, .T. ) ;
#213 = CIRCLE ( 'NONE', #324, 2.649999999999999911 ) ;
#214 = VERTEX_POINT ( 'NONE', #92 ) ;
#215 = CC_DESIGN_SECURITY_CLASSIFICATION ( #280, ( #273 ) ) ;
#216 = CALENDAR_DATE ( 2026, 24, 9 ) ;
#217 = ORIENTED_EDGE ( 'NONE', *, *, #377, .T. ) ;
#218 = ADVANCED_FACE ( 'NONE', ( #443 ), #197, .T. ) ;
#219 = DIRECTION ( 'NONE',  ( 0.000000000000000000, -1.000000000000000000, 0.000000000000000000 ) ) ;
#220 = COORDINATED_UNIVERSAL_TIME_OFFSET ( 6, 0, .BEHIND. ) ;
#221 = DIRECTION ( 'NONE',  ( -1.000000000000000000, 1.224646799147343346E-16, 0.000000000000000000 ) ) ;
#222 = TOROIDAL_SURFACE ( 'NONE', #414, 4.939999999999999503, 0.05999999999999999778 ) ;
#223 = SHAPE_DEFINITION_REPRESENTATION ( #436, #139 ) ;
#224 = AXIS2_PLACEMENT_3D ( 'NONE', #419, #107, #416 ) ;
#225 = CARTESIAN_POINT ( 'NONE',  ( 0.000000000000000000, 0.000000000000000000, -0.4999999999999993339 ) ) ;
#226 = CALENDAR_DATE ( 2026, 24, 9 ) ;
#227 = DIRECTION ( 'NONE',  ( 0.000000000000000000, 0.000000000000000000, 1.000000000000000000 ) ) ;
#228 = FACE_BOUND ( 'NONE', #421, .T. ) ;
#229 = ADVANCED_FACE ( 'NONE', ( #90, #228 ), #336, .T. ) ;
#230 = CARTESIAN_POINT ( 'NONE',  ( 0.000000000000000000, 0.000000000000000000, 0.4400000000000007239 ) ) ;
#231 = CYLINDRICAL_SURFACE ( 'NONE', #356, 5.000000000000000000 ) ;
#232 =( GEOMETRIC_REPRESENTATION_CONTEXT ( 3 ) GLOBAL_UNCERTAINTY_ASSIGNED_CONTEXT ( ( #259 ) ) GLOBAL_UNIT_ASSIGNED_CONTEXT ( ( #453, #138, #424 ) ) REPRESENTATION_CONTEXT ( 'NONE', 'WORKASPACE' ) );
#233 = DIRECTION ( 'NONE',  ( -0.000000000000000000, -0.000000000000000000, -1.000000000000000000 ) ) ;
#234 = DIRECTION ( 'NONE',  ( 1.000000000000000000, 0.000000000000000000, 0.000000000000000000 ) ) ;
#235 = EDGE_CURVE ( 'NONE', #287, #122, #372, .T. ) ;
#236 = FACE_OUTER_BOUND ( 'NONE', #38, .T. ) ;
#237 = CARTESIAN_POINT ( 'NONE',  ( 0.000000000000000000, 0.000000000000000000, -0.4999999999999993339 ) ) ;
#238 = LOCAL_TIME ( 9, 59, 53.00000000000000000, #429 ) ;
#239 = DIRECTION ( 'NONE',  ( 1.000000000000000000, 0.000000000000000000, 0.000000000000000000 ) ) ;
#240 = CARTESIAN_POINT ( 'NONE',  ( 0.000000000000000000, 0.000000000000000000, -0.4399999999999993916 ) ) ;
#241 = PRODUCT_RELATED_PRODUCT_CATEGORY ( 'detail', '', ( #137 ) ) ;
#242 = ORIENTED_EDGE ( 'NONE', *, *, #206, .T. ) ;
#243 = DIRECTION ( 'NONE',  ( 0.000000000000000000, 0.000000000000000000, 1.000000000000000000 ) ) ;
#244 = TOROIDAL_SURFACE ( 'NONE', #307, 2.709999999999999964, 0.05999999999999999778 ) ;
#245 = ORIENTED_EDGE ( 'NONE', *, *, #167, .F. ) ;
#246 = DIRECTION ( 'NONE',  ( 0.000000000000000000, 0.000000000000000000, 1.000000000000000000 ) ) ;
#247 = APPROVAL ( #8, 'UNSPECIFIED' ) ;
#248 = ORIENTED_EDGE ( 'NONE', *, *, #379, .F. ) ;
#249 = EDGE_LOOP ( 'NONE', ( #248, #40, #317, #43 ) ) ;
#250 = CIRCLE ( 'NONE', #114, 2.649999999999999911 ) ;
#251 = ORIENTED_EDGE ( 'NONE', *, *, #167, .T. ) ;
#252 = COORDINATED_UNIVERSAL_TIME_OFFSET ( 6, 0, .BEHIND. ) ;
#253 = EDGE_CURVE ( 'NONE', #426, #366, #271, .T. ) ;
#254 = ORIENTED_EDGE ( 'NONE', *, *, #377, .F. ) ;
#255 = DATE_TIME_ROLE ( 'creation_date' ) ;
#256 = APPROVAL ( #113, 'UNSPECIFIED' ) ;
#257 = ORIENTED_EDGE ( 'NONE', *, *, #176, .T. ) ;
#258 = COORDINATED_UNIVERSAL_TIME_OFFSET ( 6, 0, .BEHIND. ) ;
#259 = UNCERTAINTY_MEASURE_WITH_UNIT (LENGTH_MEASURE( 1.000000000000000082E-05 ), #453, 'distance_accuracy_value', 'NONE');
#260 = EDGE_LOOP ( 'NONE', ( #111, #394, #112, #74 ) ) ;
#261 = AXIS2_PLACEMENT_3D ( 'NONE', #96, #233, #342 ) ;
#262 = CALENDAR_DATE ( 2026, 24, 9 ) ;
#263 = CC_DESIGN_APPROVAL ( #314, ( #273 ) ) ;
#264 = EDGE_LOOP ( 'NONE', ( #257, #322, #418, #50 ) ) ;
#265 = EDGE_CURVE ( 'NONE', #438, #183, #124, .T. ) ;
#266 = DIRECTION ( 'NONE',  ( 0.000000000000000000, 0.000000000000000000, 1.000000000000000000 ) ) ;
#267 = ORIENTED_EDGE ( 'NONE', *, *, #10, .T. ) ;
#268 = DIRECTION ( 'NONE',  ( 0.000000000000000000, 0.000000000000000000, 1.000000000000000000 ) ) ;
#269 = DIRECTION ( 'NONE',  ( 0.000000000000000000, 0.000000000000000000, 1.000000000000000000 ) ) ;
#270 = CLOSED_SHELL ( 'NONE', ( #346, #297, #51, #160, #182, #321, #218, #200, #229, #432, #62, #276, #447, #384 ) ) ;
#271 = CIRCLE ( 'NONE', #152, 2.709999999999999964 ) ;
#272 = DIRECTION ( 'NONE',  ( 0.000000000000000000, 0.000000000000000000, 1.000000000000000000 ) ) ;
#273 = PRODUCT_DEFINITION_FORMATION_WITH_SPECIFIED_SOURCE ( 'ANY', '', #137, .NOT_KNOWN. ) ;
#274 = FACE_OUTER_BOUND ( 'NONE', #209, .T. ) ;
#275 = CARTESIAN_POINT ( 'NONE',  ( 0.000000000000000000, 0.000000000000000000, -0.4999999999999993339 ) ) ;
#276 = ADVANCED_FACE ( 'NONE', ( #236 ), #222, .T. ) ;
#277 = DIRECTION ( 'NONE',  ( 0.000000000000000000, -1.000000000000000000, 0.000000000000000000 ) ) ;
#278 = CARTESIAN_POINT ( 'NONE',  ( 0.000000000000000000, 0.000000000000000000, 0.000000000000000000 ) ) ;
#279 = AXIS2_PLACEMENT_3D ( 'NONE', #225, #333, #25 ) ;
#280 = SECURITY_CLASSIFICATION ( '', '', #399 ) ;
#281 = ORIENTED_EDGE ( 'NONE', *, *, #10, .F. ) ;
#282 = DIRECTION ( 'NONE',  ( 1.224646799147353207E-16, 1.000000000000000000, -0.000000000000000000 ) ) ;
#283 = CARTESIAN_POINT ( 'NONE',  ( 0.000000000000000000, 0.000000000000000000, -0.4999999999999993339 ) ) ;
#284 = VECTOR ( 'NONE', #310, 1000.000000000000000 ) ;
#285 = AXIS2_PLACEMENT_3D ( 'NONE', #23, #269, #306 ) ;
#286 = ORIENTED_EDGE ( 'NONE', *, *, #293, .F. ) ;
#287 = VERTEX_POINT ( 'NONE', #302 ) ;
#288 = DATE_AND_TIME ( #226, #76 ) ;
#289 = EDGE_LOOP ( 'NONE', ( #350, #267, #127, #457 ) ) ;
#290 = PERSON_AND_ORGANIZATION ( #405, #400 ) ;
#291 = AXIS2_PLACEMENT_3D ( 'NONE', #97, #60, #448 ) ;
#292 = DIRECTION ( 'NONE',  ( 1.000000000000000000, 0.000000000000000000, 0.000000000000000000 ) ) ;
#293 = EDGE_CURVE ( 'NONE', #191, #18, #189, .T. ) ;
#294 = ORIENTED_EDGE ( 'NONE', *, *, #31, .T. ) ;
#295 = FACE_OUTER_BOUND ( 'NONE', #289, .T. ) ;
#296 = COORDINATED_UNIVERSAL_TIME_OFFSET ( 6, 0, .BEHIND. ) ;
#297 = ADVANCED_FACE ( 'NONE', ( #345 ), #244, .T. ) ;
#298 = DIRECTION ( 'NONE',  ( 0.000000000000000000, 0.000000000000000000, 1.000000000000000000 ) ) ;
#299 = AXIS2_PLACEMENT_3D ( 'NONE', #275, #272, #412 ) ;
#300 = TOROIDAL_SURFACE ( 'NONE', #85, 2.709999999999999964, 0.05999999999999999778 ) ;
#301 = ORIENTED_EDGE ( 'NONE', *, *, #172, .T. ) ;
#302 = CARTESIAN_POINT ( 'NONE',  ( -2.649999999999999911, 3.245314017740485962E-16, -0.4399999999999993916 ) ) ;
#303 = FACE_OUTER_BOUND ( 'NONE', #185, .T. ) ;
#304 = EDGE_CURVE ( 'NONE', #117, #325, #179, .T. ) ;
#305 = CARTESIAN_POINT ( 'NONE',  ( 0.000000000000000000, 0.000000000000000000, 0.4400000000000007239 ) ) ;
#306 = DIRECTION ( 'NONE',  ( 1.000000000000000000, 0.000000000000000000, 0.000000000000000000 ) ) ;
#307 = AXIS2_PLACEMENT_3D ( 'NONE', #413, #57, #441 ) ;
#308 = DIRECTION ( 'NONE',  ( 1.000000000000000000, 0.000000000000000000, 0.000000000000000000 ) ) ;
#309 = AXIS2_PLACEMENT_3D ( 'NONE', #240, #210, #30 ) ;
#310 = DIRECTION ( 'NONE',  ( 0.000000000000000000, 0.000000000000000000, 1.000000000000000000 ) ) ;
#311 = DIRECTION ( 'NONE',  ( 0.000000000000000000, 0.000000000000000000, 1.000000000000000000 ) ) ;
#312 = EDGE_CURVE ( 'NONE', #18, #122, #26, .T. ) ;
#313 = CARTESIAN_POINT ( 'NONE',  ( -2.649999999999999911, 3.245314017740485962E-16, 0.4400000000000007239 ) ) ;
#314 = APPROVAL ( #395, 'UNSPECIFIED' ) ;
#315 = FACE_OUTER_BOUND ( 'NONE', #249, .T. ) ;
#316 = AXIS2_PLACEMENT_3D ( 'NONE', #100, #311, #22 ) ;
#317 = ORIENTED_EDGE ( 'NONE', *, *, #392, .T. ) ;
#318 = FACE_OUTER_BOUND ( 'NONE', #147, .T. ) ;
#319 = ORIENTED_EDGE ( 'NONE', *, *, #59, .T. ) ;
#320 = CARTESIAN_POINT ( 'NONE',  ( 0.000000000000000000, 0.000000000000000000, -0.4999999999999993339 ) ) ;
#321 = ADVANCED_FACE ( 'NONE', ( #378 ), #231, .T. ) ;
#322 = ORIENTED_EDGE ( 'NONE', *, *, #46, .T. ) ;
#323 = CIRCLE ( 'NONE', #187, 2.709999999999999964 ) ;
#324 = AXIS2_PLACEMENT_3D ( 'NONE', #383, #67, #208 ) ;
#325 = VERTEX_POINT ( 'NONE', #373 ) ;
#326 = DATE_AND_TIME ( #78, #171 ) ;
#327 = CC_DESIGN_PERSON_AND_ORGANIZATION_ASSIGNMENT ( #82, #391, ( #351 ) ) ;
#328 = ORIENTED_EDGE ( 'NONE', *, *, #131, .T. ) ;
#329 = CIRCLE ( 'NONE', #362, 0.06000000000000015737 ) ;
#330 = FACE_OUTER_BOUND ( 'NONE', #361, .T. ) ;
#331 = PERSON_AND_ORGANIZATION ( #405, #400 ) ;
#332 = VERTEX_POINT ( 'NONE', #389 ) ;
#333 = DIRECTION ( 'NONE',  ( 0.000000000000000000, 0.000000000000000000, 1.000000000000000000 ) ) ;
#334 = DIRECTION ( 'NONE',  ( 0.000000000000000000, 0.000000000000000000, -1.000000000000000000 ) ) ;
#335 = TOROIDAL_SURFACE ( 'NONE', #430, 4.939999999999999503, 0.05999999999999999778 ) ;
#336 = PLANE ( 'NONE',  #316 ) ;
#337 = DIRECTION ( 'NONE',  ( -0.000000000000000000, -0.000000000000000000, -1.000000000000000000 ) ) ;
#338 = DIRECTION ( 'NONE',  ( 1.000000000000000000, 0.000000000000000000, 0.000000000000000000 ) ) ;
#339 = DIRECTION ( 'NONE',  ( 1.000000000000000000, 0.000000000000000000, 0.000000000000000000 ) ) ;
#340 = CC_DESIGN_DATE_AND_TIME_ASSIGNMENT ( #358, #255, ( #351 ) ) ;
#341 = CARTESIAN_POINT ( 'NONE',  ( 0.000000000000000000, 0.000000000000000000, 0.5000000000000006661 ) ) ;
#342 = DIRECTION ( 'NONE',  ( 1.000000000000000000, 0.000000000000000000, 0.000000000000000000 ) ) ;
#343 = AXIS2_PLACEMENT_3D ( 'NONE', #133, #61, #339 ) ;
#344 = FACE_OUTER_BOUND ( 'NONE', #353, .T. ) ;
#345 = FACE_OUTER_BOUND ( 'NONE', #260, .T. ) ;
#346 = ADVANCED_FACE ( 'NONE', ( #1 ), #103, .T. ) ;
#347 = DIRECTION ( 'NONE',  ( 1.000000000000000000, 0.000000000000000000, 0.000000000000000000 ) ) ;
#348 = ORIENTED_EDGE ( 'NONE', *, *, #46, .F. ) ;
#349 = CARTESIAN_POINT ( 'NONE',  ( 0.000000000000000000, 0.000000000000000000, -0.4399999999999993916 ) ) ;
#350 = ORIENTED_EDGE ( 'NONE', *, *, #417, .F. ) ;
#351 = PRODUCT_DEFINITION ( 'UNKNOWN', '', #273, #17 ) ;
#352 = CARTESIAN_POINT ( 'NONE',  ( 0.000000000000000000, 0.000000000000000000, 0.4400000000000007239 ) ) ;
#353 = EDGE_LOOP ( 'NONE', ( #301, #91 ) ) ;
#354 = CYLINDRICAL_SURFACE ( 'NONE', #195, 2.649999999999999911 ) ;
#355 = AXIS2_PLACEMENT_3D ( 'NONE', #396, #219, #334 ) ;
#356 = AXIS2_PLACEMENT_3D ( 'NONE', #237, #380, #168 ) ;
#357 = EDGE_LOOP ( 'NONE', ( #242, #404 ) ) ;
#358 = DATE_AND_TIME ( #216, #363 ) ;
#359 = ORIENTED_EDGE ( 'NONE', *, *, #253, .T. ) ;
#360 = MANIFOLD_SOLID_BREP ( 'Fillet1', #270 ) ;
#361 = EDGE_LOOP ( 'NONE', ( #53, #423, #385, #126 ) ) ;
#362 = AXIS2_PLACEMENT_3D ( 'NONE', #157, #193, #221 ) ;
#363 = LOCAL_TIME ( 9, 59, 53.00000000000000000, #258 ) ;
#364 = DIRECTION ( 'NONE',  ( 1.000000000000000000, 0.000000000000000000, 0.000000000000000000 ) ) ;
#365 = APPROVAL_DATE_TIME ( #121, #247 ) ;
#366 = VERTEX_POINT ( 'NONE', #70 ) ;
#367 = APPLICATION_PROTOCOL_DEFINITION ( 'international standard', 'config_control_design', 1994, #409 ) ;
#368 = DIRECTION ( 'NONE',  ( 0.000000000000000000, 0.000000000000000000, 1.000000000000000000 ) ) ;
#369 = CARTESIAN_POINT ( 'NONE',  ( 0.000000000000000000, 0.000000000000000000, -0.4999999999999993339 ) ) ;
#370 = VECTOR ( 'NONE', #89, 1000.000000000000000 ) ;
#371 = CARTESIAN_POINT ( 'NONE',  ( 5.000000000000000000, 0.000000000000000000, -0.4999999999999993339 ) ) ;
#372 = CIRCLE ( 'NONE', #291, 0.06000000000000015737 ) ;
#373 = CARTESIAN_POINT ( 'NONE',  ( 4.939999999999999503, 0.000000000000000000, 0.5000000000000006661 ) ) ;
#374 = LINE ( 'NONE', #371, #444 ) ;
#375 = CARTESIAN_POINT ( 'NONE',  ( 0.000000000000000000, 0.000000000000000000, -0.4399999999999993916 ) ) ;
#376 = CARTESIAN_POINT ( 'NONE',  ( 0.000000000000000000, 0.000000000000000000, -0.4399999999999993916 ) ) ;
#377 = EDGE_CURVE ( 'NONE', #191, #287, #213, .T. ) ;
#378 = FACE_OUTER_BOUND ( 'NONE', #264, .T. ) ;
#379 = EDGE_CURVE ( 'NONE', #426, #183, #12, .T. ) ;
#380 = DIRECTION ( 'NONE',  ( 0.000000000000000000, 0.000000000000000000, 1.000000000000000000 ) ) ;
#381 = LOCAL_TIME ( 9, 59, 53.00000000000000000, #296 ) ;
#382 = DIRECTION ( 'NONE',  ( 1.000000000000000000, 0.000000000000000000, 0.000000000000000000 ) ) ;
#383 = CARTESIAN_POINT ( 'NONE',  ( 0.000000000000000000, 0.000000000000000000, -0.4399999999999993916 ) ) ;
#384 = ADVANCED_FACE ( 'NONE', ( #37 ), #146, .T. ) ;
#385 = ORIENTED_EDGE ( 'NONE', *, *, #188, .T. ) ;
#386 = ORIENTED_EDGE ( 'NONE', *, *, #312, .T. ) ;
#387 = CARTESIAN_POINT ( 'NONE',  ( -2.709999999999999964, 3.318792825689326992E-16, 0.4400000000000007239 ) ) ;
#388 = EDGE_CURVE ( 'NONE', #214, #117, #110, .T. ) ;
#389 = CARTESIAN_POINT ( 'NONE',  ( -4.939999999999999503, 6.086494591762346014E-16, -0.4999999999999993339 ) ) ;
#390 = ORIENTED_EDGE ( 'NONE', *, *, #265, .T. ) ;
#391 = PERSON_AND_ORGANIZATION_ROLE ( 'creator' ) ;
#392 = EDGE_CURVE ( 'NONE', #366, #438, #95, .T. ) ;
#393 = AXIS2_PLACEMENT_3D ( 'NONE', #101, #65, #166 ) ;
#394 = ORIENTED_EDGE ( 'NONE', *, *, #379, .T. ) ;
#395 = APPROVAL_STATUS ( 'not_yet_approved' ) ;
#396 = CARTESIAN_POINT ( 'NONE',  ( 4.939999999999999503, 0.000000000000000000, -0.4399999999999993916 ) ) ;
#397 = APPROVAL_ROLE ( '' ) ;
#398 = CARTESIAN_POINT ( 'NONE',  ( 0.000000000000000000, 0.000000000000000000, -0.4399999999999993916 ) ) ;
#399 = SECURITY_CLASSIFICATION_LEVEL ( 'unclassified' ) ;
#400 = ORGANIZATION ( 'UNSPECIFIED', 'UNSPECIFIED', '' ) ;
#401 = ORIENTED_EDGE ( 'NONE', *, *, #206, .F. ) ;
#402 = DIRECTION ( 'NONE',  ( 1.000000000000000000, 0.000000000000000000, 0.000000000000000000 ) ) ;
#403 = DIRECTION ( 'NONE',  ( -0.000000000000000000, -0.000000000000000000, -1.000000000000000000 ) ) ;
#404 = ORIENTED_EDGE ( 'NONE', *, *, #304, .T. ) ;
#405 = PERSON ( 'UNSPECIFIED', 'UNSPECIFIED', 'UNSPECIFIED', ('UNSPECIFIED'), ('UNSPECIFIED'), ('UNSPECIFIED') ) ;
#406 = DIRECTION ( 'NONE',  ( 1.000000000000000000, 0.000000000000000000, 0.000000000000000000 ) ) ;
#407 = CARTESIAN_POINT ( 'NONE',  ( -4.939999999999999503, 6.086494591762346014E-16, 0.5000000000000006661 ) ) ;
#408 = AXIS2_PLACEMENT_3D ( 'NONE', #305, #268, #201 ) ;
#409 = APPLICATION_CONTEXT ( 'configuration controlled 3d designs of mechanical parts and assemblies' ) ;
#410 = CARTESIAN_POINT ( 'NONE',  ( 0.000000000000000000, 0.000000000000000000, 0.4400000000000007239 ) ) ;
#411 = CARTESIAN_POINT ( 'NONE',  ( -2.649999999999999911, 3.245314017740485962E-16, -0.4999999999999993339 ) ) ;
#412 = DIRECTION ( 'NONE',  ( 1.000000000000000000, 0.000000000000000000, 0.000000000000000000 ) ) ;
#413 = CARTESIAN_POINT ( 'NONE',  ( 0.000000000000000000, 0.000000000000000000, 0.4400000000000007239 ) ) ;
#414 = AXIS2_PLACEMENT_3D ( 'NONE', #375, #20, #158 ) ;
#415 = DIRECTION ( 'NONE',  ( 0.000000000000000000, 0.000000000000000000, 1.000000000000000000 ) ) ;
#416 = DIRECTION ( 'NONE',  ( -1.000000000000000000, 1.224646799147343346E-16, 0.000000000000000000 ) ) ;
#417 = EDGE_CURVE ( 'NONE', #332, #34, #164, .T. ) ;
#418 = ORIENTED_EDGE ( 'NONE', *, *, #212, .T. ) ;
#419 = CARTESIAN_POINT ( 'NONE',  ( -4.939999999999999503, 6.049755187787924760E-16, 0.4400000000000007239 ) ) ;
#420 = CC_DESIGN_PERSON_AND_ORGANIZATION_ASSIGNMENT ( #48, #6, ( #137 ) ) ;
#421 = EDGE_LOOP ( 'NONE', ( #141, #359 ) ) ;
#422 = DIRECTION ( 'NONE',  ( 1.000000000000000000, 0.000000000000000000, 0.000000000000000000 ) ) ;
#423 = ORIENTED_EDGE ( 'NONE', *, *, #87, .F. ) ;
#424 =( NAMED_UNIT ( * ) SI_UNIT ( $, .STERADIAN. ) SOLID_ANGLE_UNIT ( ) );
#425 = CC_DESIGN_PERSON_AND_ORGANIZATION_ASSIGNMENT ( #148, #153, ( #280 ) ) ;
#426 = VERTEX_POINT ( 'NONE', #142 ) ;
#427 = PERSON_AND_ORGANIZATION_ROLE ( 'design_supplier' ) ;
#428 = VERTEX_POINT ( 'NONE', #174 ) ;
#429 = COORDINATED_UNIVERSAL_TIME_OFFSET ( 6, 0, .BEHIND. ) ;
#430 = AXIS2_PLACEMENT_3D ( 'NONE', #230, #99, #234 ) ;
#431 = CC_DESIGN_APPROVAL ( #256, ( #280 ) ) ;
#432 = ADVANCED_FACE ( 'NONE', ( #318 ), #354, .F. ) ;
#433 = DIRECTION ( 'NONE',  ( 0.000000000000000000, 0.000000000000000000, 1.000000000000000000 ) ) ;
#434 = APPROVAL_ROLE ( '' ) ;
#435 = CARTESIAN_POINT ( 'NONE',  ( 2.709999999999999964, 0.000000000000000000, -0.4999999999999993339 ) ) ;
#436 = PRODUCT_DEFINITION_SHAPE ( 'NONE', 'NONE',  #351 ) ;
#437 = AXIS2_PLACEMENT_3D ( 'NONE', #398, #192, #52 ) ;
#438 = VERTEX_POINT ( 'NONE', #456 ) ;
#439 = CARTESIAN_POINT ( 'NONE',  ( 2.649999999999999911, 0.000000000000000000, -0.4999999999999993339 ) ) ;
#440 = CC_DESIGN_PERSON_AND_ORGANIZATION_ASSIGNMENT ( #88, #118, ( #273 ) ) ;
#441 = DIRECTION ( 'NONE',  ( 1.000000000000000000, 0.000000000000000000, 0.000000000000000000 ) ) ;
#442 = CYLINDRICAL_SURFACE ( 'NONE', #285, 2.649999999999999911 ) ;
#443 = FACE_OUTER_BOUND ( 'NONE', #145, .T. ) ;
#444 = VECTOR ( 'NONE', #58, 1000.000000000000000 ) ;
#445 = LINE ( 'NONE', #411, #284 ) ;
#446 = AXIS2_PLACEMENT_3D ( 'NONE', #135, #277, #130 ) ;
#447 = ADVANCED_FACE ( 'NONE', ( #315 ), #300, .T. ) ;
#448 = DIRECTION ( 'NONE',  ( -1.000000000000000000, 1.224646799147351482E-16, 0.000000000000000000 ) ) ;
#449 = CARTESIAN_POINT ( 'NONE',  ( 2.649999999999999911, 0.000000000000000000, -0.4399999999999993916 ) ) ;
#450 = TOROIDAL_SURFACE ( 'NONE', #41, 4.939999999999999503, 0.05999999999999999778 ) ;
#451 = CIRCLE ( 'NONE', #4, 4.939999999999999503 ) ;
#452 = APPROVAL_PERSON_ORGANIZATION ( #331, #256, #434 ) ;
#453 =( LENGTH_UNIT ( ) NAMED_UNIT ( * ) SI_UNIT ( .MILLI., .METRE. ) );
#454 = APPROVAL_PERSON_ORGANIZATION ( #290, #247, #44 ) ;
#455 = VERTEX_POINT ( 'NONE', #39 ) ;
#456 = CARTESIAN_POINT ( 'NONE',  ( 2.649999999999999911, 0.000000000000000000, 0.4400000000000007239 ) ) ;
#457 = ORIENTED_EDGE ( 'NONE', *, *, #59, .F. ) ;
ENDSEC;
END-ISO-10303-21;
