ISO-10303-21;
HEADER;
FILE_DESCRIPTION (( 'STEP AP203' ),
    '1' );
FILE_NAME ('91116A350_18-8 Stainless Steel Oversized Washer.STEP',
    '2026-06-05T18:59:52',
    ( 'McMaster Carr Supply' ),
    ( 'McMaster Carr Supply' ),
    'SwSTEP 2.0',
    'SolidWorks 2024',
    '' );
FILE_SCHEMA (( 'CONFIG_CONTROL_DESIGN' ));
ENDSEC;

DATA;
#1 = APPROVAL_ROLE ( '' ) ;
#2 = AXIS2_PLACEMENT_3D ( 'NONE', #107, #347, #278 ) ;
#3 = ORIENTED_EDGE ( 'NONE', *, *, #354, .F. ) ;
#4 = EDGE_LOOP ( 'NONE', ( #245, #237, #242, #104 ) ) ;
#5 = DIRECTION ( 'NONE',  ( 0.000000000000000000, 0.000000000000000000, 1.000000000000000000 ) ) ;
#6 = PERSON_AND_ORGANIZATION_ROLE ( 'creator' ) ;
#7 = EDGE_CURVE ( 'NONE', #331, #46, #318, .T. ) ;
#8 = CARTESIAN_POINT ( 'NONE',  ( 2.725000000000000089, 0.000000000000000000, 0.5999999999999990896 ) ) ;
#9 = AXIS2_PLACEMENT_3D ( 'NONE', #339, #165, #95 ) ;
#10 = PERSON_AND_ORGANIZATION ( #437, #375 ) ;
#11 = FACE_OUTER_BOUND ( 'NONE', #457, .T. ) ;
#12 = AXIS2_PLACEMENT_3D ( 'NONE', #365, #111, #295 ) ;
#13 = DIRECTION ( 'NONE',  ( 1.000000000000000000, 0.000000000000000000, 0.000000000000000000 ) ) ;
#14 = ORIENTED_EDGE ( 'NONE', *, *, #382, .F. ) ;
#15 = CARTESIAN_POINT ( 'NONE',  ( 0.000000000000000000, 0.000000000000000000, -0.5250000000000007994 ) ) ;
#16 = TOROIDAL_SURFACE ( 'NONE', #280, 2.725000000000000089, 0.07499999999999999722 ) ;
#17 = LOCAL_TIME ( 13, 59, 52.00000000000000000, #251 ) ;
#18 = CYLINDRICAL_SURFACE ( 'NONE', #290, 7.500000000000000000 ) ;
#19 = AXIS2_PLACEMENT_3D ( 'NONE', #400, #300, #154 ) ;
#20 = DIRECTION ( 'NONE',  ( 0.000000000000000000, 0.000000000000000000, -1.000000000000000000 ) ) ;
#21 = CARTESIAN_POINT ( 'NONE',  ( 0.000000000000000000, 0.000000000000000000, 0.5249999999999991340 ) ) ;
#22 = AXIS2_PLACEMENT_3D ( 'NONE', #234, #439, #235 ) ;
#23 = DIRECTION ( 'NONE',  ( 1.000000000000000000, 0.000000000000000000, 0.000000000000000000 ) ) ;
#24 = PERSON_AND_ORGANIZATION_ROLE ( 'design_owner' ) ;
#25 = FACE_OUTER_BOUND ( 'NONE', #170, .T. ) ;
#26 = ADVANCED_FACE ( 'NONE', ( #282 ), #144, .F. ) ;
#27 = ORIENTED_EDGE ( 'NONE', *, *, #442, .T. ) ;
#28 = AXIS2_PLACEMENT_3D ( 'NONE', #357, #207, #141 ) ;
#29 = COORDINATED_UNIVERSAL_TIME_OFFSET ( 6, 0, .BEHIND. ) ;
#30 = ORIENTED_EDGE ( 'NONE', *, *, #204, .T. ) ;
#31 = ORIENTED_EDGE ( 'NONE', *, *, #140, .T. ) ;
#32 = DIRECTION ( 'NONE',  ( 0.000000000000000000, 0.000000000000000000, 1.000000000000000000 ) ) ;
#33 = ORIENTED_EDGE ( 'NONE', *, *, #430, .F. ) ;
#34 = ORIENTED_EDGE ( 'NONE', *, *, #382, .T. ) ;
#35 =( LENGTH_UNIT ( ) NAMED_UNIT ( * ) SI_UNIT ( .MILLI., .METRE. ) );
#36 = ORIENTED_EDGE ( 'NONE', *, *, #65, .F. ) ;
#37 = VECTOR ( 'NONE', #32, 1000.000000000000000 ) ;
#38 = SECURITY_CLASSIFICATION ( '', '', #219 ) ;
#39 = VERTEX_POINT ( 'NONE', #359 ) ;
#40 = ADVANCED_FACE ( 'NONE', ( #25, #167 ), #448, .T. ) ;
#41 = COORDINATED_UNIVERSAL_TIME_OFFSET ( 6, 0, .BEHIND. ) ;
#42 = CARTESIAN_POINT ( 'NONE',  ( -2.725000000000000089, 3.337162527676537619E-16, -0.5250000000000007994 ) ) ;
#43 = VERTEX_POINT ( 'NONE', #210 ) ;
#44 = FACE_OUTER_BOUND ( 'NONE', #422, .T. ) ;
#45 = APPROVAL_DATE_TIME ( #122, #291 ) ;
#46 = VERTEX_POINT ( 'NONE', #255 ) ;
#47 = DIRECTION ( 'NONE',  ( -0.000000000000000000, -0.000000000000000000, -1.000000000000000000 ) ) ;
#48 = AXIS2_PLACEMENT_3D ( 'NONE', #15, #97, #240 ) ;
#49 = DATE_AND_TIME ( #72, #364 ) ;
#50 = DIRECTION ( 'NONE',  ( 1.000000000000000000, 0.000000000000000000, 0.000000000000000000 ) ) ;
#51 = VERTEX_POINT ( 'NONE', #8 ) ;
#52 = ADVANCED_FACE ( 'NONE', ( #153 ), #164, .T. ) ;
#53 = CARTESIAN_POINT ( 'NONE',  ( -2.725000000000000089, 3.337162527676537619E-16, 0.5249999999999991340 ) ) ;
#54 = DIRECTION ( 'NONE',  ( -1.000000000000000000, 1.224646799147353207E-16, 0.000000000000000000 ) ) ;
#55 = CIRCLE ( 'NONE', #98, 7.424999999999998934 ) ;
#56 = ADVANCED_FACE ( 'NONE', ( #262 ), #366, .T. ) ;
#57 = CARTESIAN_POINT ( 'NONE',  ( 7.424999999999998934, 0.000000000000000000, -0.5250000000000007994 ) ) ;
#58 = ORIENTED_EDGE ( 'NONE', *, *, #121, .T. ) ;
#59 = CC_DESIGN_PERSON_AND_ORGANIZATION_ASSIGNMENT ( #66, #24, ( #177 ) ) ;
#60 = DIRECTION ( 'NONE',  ( 0.000000000000000000, 0.000000000000000000, 1.000000000000000000 ) ) ;
#61 = CARTESIAN_POINT ( 'NONE',  ( 0.000000000000000000, 0.000000000000000000, -0.6000000000000008660 ) ) ;
#62 = CIRCLE ( 'NONE', #2, 7.424999999999998934 ) ;
#63 = LOCAL_TIME ( 13, 59, 52.00000000000000000, #41 ) ;
#64 = ORIENTED_EDGE ( 'NONE', *, *, #350, .T. ) ;
#65 = EDGE_CURVE ( 'NONE', #67, #215, #232, .T. ) ;
#66 = PERSON_AND_ORGANIZATION ( #437, #375 ) ;
#67 = VERTEX_POINT ( 'NONE', #330 ) ;
#68 = CC_DESIGN_PERSON_AND_ORGANIZATION_ASSIGNMENT ( #189, #6, ( #381 ) ) ;
#69 = APPROVAL_ROLE ( '' ) ;
#70 = ORIENTED_EDGE ( 'NONE', *, *, #127, .T. ) ;
#71 = AXIS2_PLACEMENT_3D ( 'NONE', #21, #444, #269 ) ;
#72 = CALENDAR_DATE ( 2026, 5, 6 ) ;
#73 = ORIENTED_EDGE ( 'NONE', *, *, #442, .F. ) ;
#74 = DIRECTION ( 'NONE',  ( 1.000000000000000000, 0.000000000000000000, 0.000000000000000000 ) ) ;
#75 = CC_DESIGN_DATE_AND_TIME_ASSIGNMENT ( #49, #113, ( #426 ) ) ;
#76 = ORIENTED_EDGE ( 'NONE', *, *, #325, .F. ) ;
#77 = DIRECTION ( 'NONE',  ( 0.000000000000000000, 0.000000000000000000, 1.000000000000000000 ) ) ;
#78 = UNCERTAINTY_MEASURE_WITH_UNIT (LENGTH_MEASURE( 1.000000000000000082E-05 ), #35, 'distance_accuracy_value', 'NONE');
#79 = AXIS2_PLACEMENT_3D ( 'NONE', #326, #433, #188 ) ;
#80 = VERTEX_POINT ( 'NONE', #225 ) ;
#81 = FACE_OUTER_BOUND ( 'NONE', #202, .T. ) ;
#82 =( GEOMETRIC_REPRESENTATION_CONTEXT ( 3 ) GLOBAL_UNCERTAINTY_ASSIGNED_CONTEXT ( ( #78 ) ) GLOBAL_UNIT_ASSIGNED_CONTEXT ( ( #35, #176, #211 ) ) REPRESENTATION_CONTEXT ( 'NONE', 'WORKASPACE' ) );
#83 = EDGE_CURVE ( 'NONE', #43, #310, #445, .T. ) ;
#84 = APPROVAL_ROLE ( '' ) ;
#85 = ORIENTED_EDGE ( 'NONE', *, *, #121, .F. ) ;
#86 = DIRECTION ( 'NONE',  ( 0.000000000000000000, 0.000000000000000000, 1.000000000000000000 ) ) ;
#87 = ADVANCED_FACE ( 'NONE', ( #397, #148 ), #296, .F. ) ;
#88 = DIRECTION ( 'NONE',  ( 0.000000000000000000, 0.000000000000000000, 1.000000000000000000 ) ) ;
#89 = CIRCLE ( 'NONE', #199, 2.725000000000000089 ) ;
#90 = AXIS2_PLACEMENT_3D ( 'NONE', #57, #304, #20 ) ;
#91 = DIRECTION ( 'NONE',  ( 0.000000000000000000, 0.000000000000000000, 1.000000000000000000 ) ) ;
#92 = DIRECTION ( 'NONE',  ( 1.000000000000000000, 0.000000000000000000, 0.000000000000000000 ) ) ;
#93 = DIRECTION ( 'NONE',  ( 1.000000000000000000, 0.000000000000000000, 0.000000000000000000 ) ) ;
#94 = AXIS2_PLACEMENT_3D ( 'NONE', #271, #60, #373 ) ;
#95 = DIRECTION ( 'NONE',  ( 1.000000000000000000, 0.000000000000000000, 0.000000000000000000 ) ) ;
#96 = MANIFOLD_SOLID_BREP ( 'Fillet1', #412 ) ;
#97 = DIRECTION ( 'NONE',  ( 0.000000000000000000, 0.000000000000000000, 1.000000000000000000 ) ) ;
#98 = AXIS2_PLACEMENT_3D ( 'NONE', #342, #159, #126 ) ;
#99 = DIRECTION ( 'NONE',  ( 0.000000000000000000, 0.000000000000000000, 1.000000000000000000 ) ) ;
#100 = DIRECTION ( 'NONE',  ( 1.000000000000000000, 0.000000000000000000, -0.000000000000000000 ) ) ;
#101 = PERSON_AND_ORGANIZATION ( #437, #375 ) ;
#102 = VERTEX_POINT ( 'NONE', #428 ) ;
#103 = PERSON_AND_ORGANIZATION ( #437, #375 ) ;
#104 = ORIENTED_EDGE ( 'NONE', *, *, #268, .F. ) ;
#105 = ORIENTED_EDGE ( 'NONE', *, *, #7, .F. ) ;
#106 = CIRCLE ( 'NONE', #162, 7.424999999999998934 ) ;
#107 = CARTESIAN_POINT ( 'NONE',  ( 0.000000000000000000, 0.000000000000000000, -0.6000000000000008660 ) ) ;
#108 = EDGE_LOOP ( 'NONE', ( #329, #30, #307, #355 ) ) ;
#109 = ORIENTED_EDGE ( 'NONE', *, *, #386, .F. ) ;
#110 = APPROVAL_DATE_TIME ( #399, #143 ) ;
#111 = DIRECTION ( 'NONE',  ( 0.000000000000000000, 0.000000000000000000, 1.000000000000000000 ) ) ;
#112 = DESIGN_CONTEXT ( 'detailed design', #161, 'design' ) ;
#113 = DATE_TIME_ROLE ( 'creation_date' ) ;
#114 = CIRCLE ( 'NONE', #145, 0.07500000000000041356 ) ;
#115 = CARTESIAN_POINT ( 'NONE',  ( 7.424999999999998934, 0.000000000000000000, 0.5249999999999991340 ) ) ;
#116 = LOCAL_TIME ( 13, 59, 52.00000000000000000, #29 ) ;
#117 = ORIENTED_EDGE ( 'NONE', *, *, #243, .F. ) ;
#118 = CALENDAR_DATE ( 2026, 5, 6 ) ;
#119 = CARTESIAN_POINT ( 'NONE',  ( -7.424999999999998934, 9.138926738637121869E-16, -0.6000000000000008660 ) ) ;
#120 = AXIS2_PLACEMENT_3D ( 'NONE', #193, #5, #401 ) ;
#121 = EDGE_CURVE ( 'NONE', #263, #51, #274, .T. ) ;
#122 = DATE_AND_TIME ( #149, #17 ) ;
#123 = DIRECTION ( 'NONE',  ( -1.000000000000000000, 1.224646799147353207E-16, 0.000000000000000000 ) ) ;
#124 = AXIS2_PLACEMENT_3D ( 'NONE', #209, #349, #248 ) ;
#125 = AXIS2_PLACEMENT_3D ( 'NONE', #281, #384, #166 ) ;
#126 = DIRECTION ( 'NONE',  ( 1.000000000000000000, 0.000000000000000000, 0.000000000000000000 ) ) ;
#127 = EDGE_CURVE ( 'NONE', #46, #356, #414, .T. ) ;
#128 = EDGE_LOOP ( 'NONE', ( #301, #260, #351, #27 ) ) ;
#129 = CARTESIAN_POINT ( 'NONE',  ( -2.725000000000000089, 3.337162527676537619E-16, 0.5999999999999990896 ) ) ;
#130 = CARTESIAN_POINT ( 'NONE',  ( 0.000000000000000000, 0.000000000000000000, 0.5249999999999991340 ) ) ;
#131 = CIRCLE ( 'NONE', #71, 7.500000000000000000 ) ;
#132 = CARTESIAN_POINT ( 'NONE',  ( -7.424999999999998934, 9.093002483669097767E-16, 0.5249999999999991340 ) ) ;
#133 = ADVANCED_FACE ( 'NONE', ( #367 ), #370, .T. ) ;
#134 = APPLICATION_PROTOCOL_DEFINITION ( 'international standard', 'config_control_design', 1994, #161 ) ;
#135 = CARTESIAN_POINT ( 'NONE',  ( 0.000000000000000000, 0.000000000000000000, 0.5999999999999990896 ) ) ;
#136 = VECTOR ( 'NONE', #91, 1000.000000000000000 ) ;
#137 = APPROVAL_PERSON_ORGANIZATION ( #10, #143, #84 ) ;
#138 = CARTESIAN_POINT ( 'NONE',  ( -2.649999999999999911, 3.245314017740485962E-16, -0.6000000000000008660 ) ) ;
#139 = CARTESIAN_POINT ( 'NONE',  ( 2.649999999999999911, 0.000000000000000000, -0.6000000000000008660 ) ) ;
#140 = EDGE_CURVE ( 'NONE', #212, #102, #341, .T. ) ;
#141 = DIRECTION ( 'NONE',  ( -1.000000000000000000, 1.224646799147333486E-16, 0.000000000000000000 ) ) ;
#142 = ORIENTED_EDGE ( 'NONE', *, *, #336, .T. ) ;
#143 = APPROVAL ( #186, 'UNSPECIFIED' ) ;
#144 = CYLINDRICAL_SURFACE ( 'NONE', #431, 2.649999999999999911 ) ;
#145 = AXIS2_PLACEMENT_3D ( 'NONE', #132, #217, #353 ) ;
#146 = ORIENTED_EDGE ( 'NONE', *, *, #413, .T. ) ;
#147 = APPROVAL_STATUS ( 'not_yet_approved' ) ;
#148 = FACE_BOUND ( 'NONE', #315, .T. ) ;
#149 = CALENDAR_DATE ( 2026, 5, 6 ) ;
#150 = CIRCLE ( 'NONE', #206, 2.649999999999999911 ) ;
#151 = DIRECTION ( 'NONE',  ( 1.224646799147353207E-16, 1.000000000000000000, -0.000000000000000000 ) ) ;
#152 = ADVANCED_FACE ( 'NONE', ( #44 ), #258, .T. ) ;
#153 = FACE_OUTER_BOUND ( 'NONE', #252, .T. ) ;
#154 = DIRECTION ( 'NONE',  ( 1.000000000000000000, 0.000000000000000000, 0.000000000000000000 ) ) ;
#155 = CARTESIAN_POINT ( 'NONE',  ( 0.000000000000000000, 0.000000000000000000, -0.5250000000000007994 ) ) ;
#156 = AXIS2_PLACEMENT_3D ( 'NONE', #332, #432, #13 ) ;
#157 = ADVANCED_FACE ( 'NONE', ( #81 ), #289, .T. ) ;
#158 = CARTESIAN_POINT ( 'NONE',  ( 7.500000000000000000, 0.000000000000000000, -0.5250000000000007994 ) ) ;
#159 = DIRECTION ( 'NONE',  ( 0.000000000000000000, 0.000000000000000000, 1.000000000000000000 ) ) ;
#160 = CARTESIAN_POINT ( 'NONE',  ( 2.725000000000000089, 0.000000000000000000, 0.5249999999999991340 ) ) ;
#161 = APPLICATION_CONTEXT ( 'configuration controlled 3d designs of mechanical parts and assemblies' ) ;
#162 = AXIS2_PLACEMENT_3D ( 'NONE', #61, #405, #92 ) ;
#163 = ADVANCED_FACE ( 'NONE', ( #259 ), #266, .T. ) ;
#164 = TOROIDAL_SURFACE ( 'NONE', #19, 7.424999999999998934, 0.07499999999999999722 ) ;
#165 = DIRECTION ( 'NONE',  ( -0.000000000000000000, -0.000000000000000000, -1.000000000000000000 ) ) ;
#166 = DIRECTION ( 'NONE',  ( 1.000000000000000000, 0.000000000000000000, 0.000000000000000000 ) ) ;
#167 = FACE_BOUND ( 'NONE', #390, .T. ) ;
#168 = CARTESIAN_POINT ( 'NONE',  ( -2.649999999999999911, 3.245314017740485962E-16, 0.5249999999999991340 ) ) ;
#169 = ADVANCED_FACE ( 'NONE', ( #11 ), #16, .T. ) ;
#170 = EDGE_LOOP ( 'NONE', ( #284, #142 ) ) ;
#171 = AXIS2_PLACEMENT_3D ( 'NONE', #130, #273, #239 ) ;
#172 = CALENDAR_DATE ( 2026, 5, 6 ) ;
#173 = VERTEX_POINT ( 'NONE', #119 ) ;
#174 = DATE_AND_TIME ( #172, #116 ) ;
#175 = ORIENTED_EDGE ( 'NONE', *, *, #410, .T. ) ;
#176 =( NAMED_UNIT ( * ) PLANE_ANGLE_UNIT ( ) SI_UNIT ( $, .RADIAN. ) );
#177 = PRODUCT ( '91116A350_18-8 Stainless Steel Oversized Washer', '91116A350_18-8 Stainless Steel Oversized Washer', '', ( #450 ) ) ;
#178 = ORIENTED_EDGE ( 'NONE', *, *, #127, .F. ) ;
#179 = ADVANCED_FACE ( 'NONE', ( #220 ), #404, .T. ) ;
#180 = AXIS2_PLACEMENT_3D ( 'NONE', #392, #99, #74 ) ;
#181 = LOCAL_TIME ( 13, 59, 52.00000000000000000, #395 ) ;
#182 = PERSON_AND_ORGANIZATION_ROLE ( 'design_supplier' ) ;
#183 = CARTESIAN_POINT ( 'NONE',  ( 0.000000000000000000, 0.000000000000000000, 0.5999999999999990896 ) ) ;
#184 = CC_DESIGN_DATE_AND_TIME_ASSIGNMENT ( #254, #328, ( #38 ) ) ;
#185 = DIRECTION ( 'NONE',  ( 1.000000000000000000, 0.000000000000000000, 0.000000000000000000 ) ) ;
#186 = APPROVAL_STATUS ( 'not_yet_approved' ) ;
#187 = ADVANCED_FACE ( 'NONE', ( #441 ), #18, .T. ) ;
#188 = DIRECTION ( 'NONE',  ( 1.000000000000000000, 0.000000000000000000, 0.000000000000000000 ) ) ;
#189 = PERSON_AND_ORGANIZATION ( #437, #375 ) ;
#190 = AXIS2_PLACEMENT_3D ( 'NONE', #53, #378, #54 ) ;
#191 = CARTESIAN_POINT ( 'NONE',  ( 0.000000000000000000, 0.000000000000000000, -0.6000000000000008660 ) ) ;
#192 = PRODUCT_RELATED_PRODUCT_CATEGORY ( 'detail', '', ( #177 ) ) ;
#193 = CARTESIAN_POINT ( 'NONE',  ( 0.000000000000000000, 0.000000000000000000, 0.5249999999999991340 ) ) ;
#194 = ADVANCED_BREP_SHAPE_REPRESENTATION ( '91116A350_18-8 Stainless Steel Oversized Washer', ( #96, #125 ), #82 ) ;
#195 = ORIENTED_EDGE ( 'NONE', *, *, #261, .F. ) ;
#196 = CARTESIAN_POINT ( 'NONE',  ( -2.725000000000000089, 3.337162527676537619E-16, -0.6000000000000008660 ) ) ;
#197 = EDGE_CURVE ( 'NONE', #43, #331, #150, .T. ) ;
#198 = CARTESIAN_POINT ( 'NONE',  ( 0.000000000000000000, 0.000000000000000000, -0.6000000000000008660 ) ) ;
#199 = AXIS2_PLACEMENT_3D ( 'NONE', #345, #308, #205 ) ;
#200 = EDGE_CURVE ( 'NONE', #102, #360, #374, .T. ) ;
#201 = DIRECTION ( 'NONE',  ( -0.000000000000000000, -0.000000000000000000, -1.000000000000000000 ) ) ;
#202 = EDGE_LOOP ( 'NONE', ( #195, #250, #334, #348 ) ) ;
#203 = DIRECTION ( 'NONE',  ( 1.000000000000000000, 0.000000000000000000, 0.000000000000000000 ) ) ;
#204 = EDGE_CURVE ( 'NONE', #67, #39, #338, .T. ) ;
#205 = DIRECTION ( 'NONE',  ( 1.000000000000000000, 0.000000000000000000, 0.000000000000000000 ) ) ;
#206 = AXIS2_PLACEMENT_3D ( 'NONE', #155, #201, #23 ) ;
#207 = DIRECTION ( 'NONE',  ( 1.224646799147353207E-16, 1.000000000000000000, -0.000000000000000000 ) ) ;
#208 = VERTEX_POINT ( 'NONE', #409 ) ;
#209 = CARTESIAN_POINT ( 'NONE',  ( 0.000000000000000000, 0.000000000000000000, -0.6000000000000008660 ) ) ;
#210 = CARTESIAN_POINT ( 'NONE',  ( -2.649999999999999911, 3.245314017740485962E-16, -0.5250000000000007994 ) ) ;
#211 =( NAMED_UNIT ( * ) SI_UNIT ( $, .STERADIAN. ) SOLID_ANGLE_UNIT ( ) );
#212 = VERTEX_POINT ( 'NONE', #340 ) ;
#213 = AXIS2_PLACEMENT_3D ( 'NONE', #115, #229, #324 ) ;
#214 = AXIS2_PLACEMENT_3D ( 'NONE', #135, #416, #100 ) ;
#215 = VERTEX_POINT ( 'NONE', #158 ) ;
#216 = ORIENTED_EDGE ( 'NONE', *, *, #286, .F. ) ;
#217 = DIRECTION ( 'NONE',  ( 1.224646799147353207E-16, 1.000000000000000000, -0.000000000000000000 ) ) ;
#218 = DIRECTION ( 'NONE',  ( 0.000000000000000000, 0.000000000000000000, 1.000000000000000000 ) ) ;
#219 = SECURITY_CLASSIFICATION_LEVEL ( 'unclassified' ) ;
#220 = FACE_OUTER_BOUND ( 'NONE', #4, .T. ) ;
#221 = AXIS2_PLACEMENT_3D ( 'NONE', #322, #86, #50 ) ;
#222 = CC_DESIGN_SECURITY_CLASSIFICATION ( #38, ( #381 ) ) ;
#223 = EDGE_CURVE ( 'NONE', #215, #212, #333, .T. ) ;
#224 = PERSON_AND_ORGANIZATION ( #437, #375 ) ;
#225 = CARTESIAN_POINT ( 'NONE',  ( 7.424999999999998934, 0.000000000000000000, -0.6000000000000008660 ) ) ;
#226 = PERSON_AND_ORGANIZATION_ROLE ( 'classification_officer' ) ;
#227 = CARTESIAN_POINT ( 'NONE',  ( 0.000000000000000000, 0.000000000000000000, 0.5249999999999991340 ) ) ;
#228 = AXIS2_PLACEMENT_3D ( 'NONE', #160, #376, #230 ) ;
#229 = DIRECTION ( 'NONE',  ( 0.000000000000000000, -1.000000000000000000, 0.000000000000000000 ) ) ;
#230 = DIRECTION ( 'NONE',  ( 0.000000000000000000, 0.000000000000000000, -1.000000000000000000 ) ) ;
#231 = ADVANCED_FACE ( 'NONE', ( #406 ), #276, .F. ) ;
#232 = CIRCLE ( 'NONE', #12, 7.500000000000000000 ) ;
#233 = VECTOR ( 'NONE', #288, 1000.000000000000000 ) ;
#234 = CARTESIAN_POINT ( 'NONE',  ( 2.725000000000000089, 0.000000000000000000, -0.5250000000000007994 ) ) ;
#235 = DIRECTION ( 'NONE',  ( 0.000000000000000000, 0.000000000000000000, -1.000000000000000000 ) ) ;
#236 = AXIS2_PLACEMENT_3D ( 'NONE', #447, #419, #417 ) ;
#237 = ORIENTED_EDGE ( 'NONE', *, *, #83, .T. ) ;
#238 = CC_DESIGN_APPROVAL ( #143, ( #38 ) ) ;
#239 = DIRECTION ( 'NONE',  ( 1.000000000000000000, 0.000000000000000000, 0.000000000000000000 ) ) ;
#240 = DIRECTION ( 'NONE',  ( 1.000000000000000000, 0.000000000000000000, 0.000000000000000000 ) ) ;
#241 = APPROVAL_PERSON_ORGANIZATION ( #224, #291, #1 ) ;
#242 = ORIENTED_EDGE ( 'NONE', *, *, #323, .F. ) ;
#243 = EDGE_CURVE ( 'NONE', #331, #43, #320, .T. ) ;
#244 = APPLICATION_PROTOCOL_DEFINITION ( 'international standard', 'config_control_design', 1994, #358 ) ;
#245 = ORIENTED_EDGE ( 'NONE', *, *, #197, .F. ) ;
#246 = PERSON_AND_ORGANIZATION_ROLE ( 'creator' ) ;
#247 = ORIENTED_EDGE ( 'NONE', *, *, #249, .F. ) ;
#248 = DIRECTION ( 'NONE',  ( 1.000000000000000000, 0.000000000000000000, 0.000000000000000000 ) ) ;
#249 = EDGE_CURVE ( 'NONE', #39, #212, #131, .T. ) ;
#250 = ORIENTED_EDGE ( 'NONE', *, *, #410, .F. ) ;
#251 = COORDINATED_UNIVERSAL_TIME_OFFSET ( 6, 0, .BEHIND. ) ;
#252 = EDGE_LOOP ( 'NONE', ( #247, #319, #253, #312 ) ) ;
#253 = ORIENTED_EDGE ( 'NONE', *, *, #200, .F. ) ;
#254 = DATE_AND_TIME ( #264, #63 ) ;
#255 = CARTESIAN_POINT ( 'NONE',  ( 2.649999999999999911, 0.000000000000000000, 0.5249999999999991340 ) ) ;
#256 = ORIENTED_EDGE ( 'NONE', *, *, #7, .T. ) ;
#257 = EDGE_CURVE ( 'NONE', #215, #67, #380, .T. ) ;
#258 = TOROIDAL_SURFACE ( 'NONE', #79, 2.725000000000000089, 0.07499999999999999722 ) ;
#259 = FACE_OUTER_BOUND ( 'NONE', #388, .T. ) ;
#260 = ORIENTED_EDGE ( 'NONE', *, *, #65, .T. ) ;
#261 = EDGE_CURVE ( 'NONE', #263, #356, #391, .T. ) ;
#262 = FACE_OUTER_BOUND ( 'NONE', #420, .T. ) ;
#263 = VERTEX_POINT ( 'NONE', #129 ) ;
#264 = CALENDAR_DATE ( 2026, 5, 6 ) ;
#265 = DIRECTION ( 'NONE',  ( 1.000000000000000000, 0.000000000000000000, 0.000000000000000000 ) ) ;
#266 = TOROIDAL_SURFACE ( 'NONE', #156, 7.424999999999998934, 0.07499999999999999722 ) ;
#267 = APPROVAL_PERSON_ORGANIZATION ( #101, #440, #69 ) ;
#268 = EDGE_CURVE ( 'NONE', #331, #208, #443, .T. ) ;
#269 = DIRECTION ( 'NONE',  ( 1.000000000000000000, 0.000000000000000000, 0.000000000000000000 ) ) ;
#270 = DIRECTION ( 'NONE',  ( 0.000000000000000000, 0.000000000000000000, 1.000000000000000000 ) ) ;
#271 = CARTESIAN_POINT ( 'NONE',  ( 0.000000000000000000, 0.000000000000000000, -0.5250000000000007994 ) ) ;
#272 = EDGE_CURVE ( 'NONE', #80, #173, #106, .T. ) ;
#273 = DIRECTION ( 'NONE',  ( 0.000000000000000000, 0.000000000000000000, 1.000000000000000000 ) ) ;
#274 = CIRCLE ( 'NONE', #352, 2.725000000000000089 ) ;
#275 = CC_DESIGN_PERSON_AND_ORGANIZATION_ASSIGNMENT ( #103, #246, ( #426 ) ) ;
#276 = CYLINDRICAL_SURFACE ( 'NONE', #398, 2.649999999999999911 ) ;
#277 = CARTESIAN_POINT ( 'NONE',  ( 0.000000000000000000, 0.000000000000000000, 0.5249999999999991340 ) ) ;
#278 = DIRECTION ( 'NONE',  ( 1.000000000000000000, 0.000000000000000000, 0.000000000000000000 ) ) ;
#279 = ORIENTED_EDGE ( 'NONE', *, *, #268, .T. ) ;
#280 = AXIS2_PLACEMENT_3D ( 'NONE', #227, #435, #369 ) ;
#281 = CARTESIAN_POINT ( 'NONE',  ( 0.000000000000000000, 0.000000000000000000, 0.000000000000000000 ) ) ;
#282 = FACE_OUTER_BOUND ( 'NONE', #383, .T. ) ;
#283 = EDGE_LOOP ( 'NONE', ( #285, #34 ) ) ;
#284 = ORIENTED_EDGE ( 'NONE', *, *, #200, .T. ) ;
#285 = ORIENTED_EDGE ( 'NONE', *, *, #272, .T. ) ;
#286 = EDGE_CURVE ( 'NONE', #51, #46, #423, .T. ) ;
#287 = LINE ( 'NONE', #138, #37 ) ;
#288 = DIRECTION ( 'NONE',  ( 0.000000000000000000, 0.000000000000000000, 1.000000000000000000 ) ) ;
#289 = TOROIDAL_SURFACE ( 'NONE', #221, 2.725000000000000089, 0.07499999999999999722 ) ;
#290 = AXIS2_PLACEMENT_3D ( 'NONE', #407, #309, #93 ) ;
#291 = APPROVAL ( #147, 'UNSPECIFIED' ) ;
#292 = ORIENTED_EDGE ( 'NONE', *, *, #336, .F. ) ;
#293 = ORIENTED_EDGE ( 'NONE', *, *, #272, .F. ) ;
#294 = SHAPE_DEFINITION_REPRESENTATION ( #396, #194 ) ;
#295 = DIRECTION ( 'NONE',  ( 1.000000000000000000, 0.000000000000000000, 0.000000000000000000 ) ) ;
#296 = PLANE ( 'NONE',  #316 ) ;
#297 = AXIS2_PLACEMENT_3D ( 'NONE', #361, #88, #371 ) ;
#298 = ORIENTED_EDGE ( 'NONE', *, *, #413, .F. ) ;
#299 = CARTESIAN_POINT ( 'NONE',  ( 0.000000000000000000, 0.000000000000000000, 0.5249999999999991340 ) ) ;
#300 = DIRECTION ( 'NONE',  ( 0.000000000000000000, 0.000000000000000000, 1.000000000000000000 ) ) ;
#301 = ORIENTED_EDGE ( 'NONE', *, *, #204, .F. ) ;
#302 = CIRCLE ( 'NONE', #28, 0.07500000000000041356 ) ;
#303 = CC_DESIGN_PERSON_AND_ORGANIZATION_ASSIGNMENT ( #321, #182, ( #381 ) ) ;
#304 = DIRECTION ( 'NONE',  ( 0.000000000000000000, -1.000000000000000000, 0.000000000000000000 ) ) ;
#305 = CARTESIAN_POINT ( 'NONE',  ( -7.500000000000000000, 9.184850993605147944E-16, -0.6000000000000008660 ) ) ;
#306 = DIRECTION ( 'NONE',  ( 0.000000000000000000, 0.000000000000000000, 1.000000000000000000 ) ) ;
#307 = ORIENTED_EDGE ( 'NONE', *, *, #249, .T. ) ;
#308 = DIRECTION ( 'NONE',  ( 0.000000000000000000, 0.000000000000000000, 1.000000000000000000 ) ) ;
#309 = DIRECTION ( 'NONE',  ( 0.000000000000000000, 0.000000000000000000, 1.000000000000000000 ) ) ;
#310 = VERTEX_POINT ( 'NONE', #196 ) ;
#311 = CYLINDRICAL_SURFACE ( 'NONE', #180, 7.500000000000000000 ) ;
#312 = ORIENTED_EDGE ( 'NONE', *, *, #140, .F. ) ;
#313 = CIRCLE ( 'NONE', #171, 2.649999999999999911 ) ;
#314 = CC_DESIGN_APPROVAL ( #440, ( #426 ) ) ;
#315 = EDGE_LOOP ( 'NONE', ( #452, #393 ) ) ;
#316 = AXIS2_PLACEMENT_3D ( 'NONE', #191, #427, #403 ) ;
#317 = CARTESIAN_POINT ( 'NONE',  ( -7.424999999999998934, 9.138926738637121869E-16, 0.5999999999999990896 ) ) ;
#318 = LINE ( 'NONE', #139, #233 ) ;
#319 = ORIENTED_EDGE ( 'NONE', *, *, #354, .T. ) ;
#320 = CIRCLE ( 'NONE', #9, 2.649999999999999911 ) ;
#321 = PERSON_AND_ORGANIZATION ( #437, #375 ) ;
#322 = CARTESIAN_POINT ( 'NONE',  ( 0.000000000000000000, 0.000000000000000000, 0.5249999999999991340 ) ) ;
#323 = EDGE_CURVE ( 'NONE', #208, #310, #89, .T. ) ;
#324 = DIRECTION ( 'NONE',  ( 0.000000000000000000, 0.000000000000000000, -1.000000000000000000 ) ) ;
#325 = EDGE_CURVE ( 'NONE', #80, #215, #449, .T. ) ;
#326 = CARTESIAN_POINT ( 'NONE',  ( 0.000000000000000000, 0.000000000000000000, -0.5250000000000007994 ) ) ;
#327 = AXIS2_PLACEMENT_3D ( 'NONE', #299, #77, #265 ) ;
#328 = DATE_TIME_ROLE ( 'classification_date' ) ;
#329 = ORIENTED_EDGE ( 'NONE', *, *, #257, .T. ) ;
#330 = CARTESIAN_POINT ( 'NONE',  ( -7.500000000000000000, 9.184850993605147944E-16, -0.5250000000000007994 ) ) ;
#331 = VERTEX_POINT ( 'NONE', #438 ) ;
#332 = CARTESIAN_POINT ( 'NONE',  ( 0.000000000000000000, 0.000000000000000000, -0.5250000000000007994 ) ) ;
#333 = LINE ( 'NONE', #372, #136 ) ;
#334 = ORIENTED_EDGE ( 'NONE', *, *, #286, .T. ) ;
#335 = VECTOR ( 'NONE', #411, 1000.000000000000000 ) ;
#336 = EDGE_CURVE ( 'NONE', #360, #102, #55, .T. ) ;
#337 = CC_DESIGN_APPROVAL ( #291, ( #381 ) ) ;
#338 = LINE ( 'NONE', #305, #335 ) ;
#339 = CARTESIAN_POINT ( 'NONE',  ( 0.000000000000000000, 0.000000000000000000, -0.5250000000000007994 ) ) ;
#340 = CARTESIAN_POINT ( 'NONE',  ( 7.500000000000000000, 0.000000000000000000, 0.5249999999999991340 ) ) ;
#341 = CIRCLE ( 'NONE', #213, 0.07499999999999998335 ) ;
#342 = CARTESIAN_POINT ( 'NONE',  ( 0.000000000000000000, 0.000000000000000000, 0.5999999999999990896 ) ) ;
#343 = AXIS2_PLACEMENT_3D ( 'NONE', #277, #455, #344 ) ;
#344 = DIRECTION ( 'NONE',  ( 1.000000000000000000, 0.000000000000000000, 0.000000000000000000 ) ) ;
#345 = CARTESIAN_POINT ( 'NONE',  ( 0.000000000000000000, 0.000000000000000000, -0.6000000000000008660 ) ) ;
#346 = AXIS2_PLACEMENT_3D ( 'NONE', #42, #151, #123 ) ;
#347 = DIRECTION ( 'NONE',  ( -0.000000000000000000, -0.000000000000000000, -1.000000000000000000 ) ) ;
#348 = ORIENTED_EDGE ( 'NONE', *, *, #350, .F. ) ;
#349 = DIRECTION ( 'NONE',  ( 0.000000000000000000, 0.000000000000000000, 1.000000000000000000 ) ) ;
#350 = EDGE_CURVE ( 'NONE', #356, #46, #313, .T. ) ;
#351 = ORIENTED_EDGE ( 'NONE', *, *, #223, .T. ) ;
#352 = AXIS2_PLACEMENT_3D ( 'NONE', #183, #47, #185 ) ;
#353 = DIRECTION ( 'NONE',  ( -1.000000000000000000, 1.224646799147333486E-16, 0.000000000000000000 ) ) ;
#354 = EDGE_CURVE ( 'NONE', #39, #360, #114, .T. ) ;
#355 = ORIENTED_EDGE ( 'NONE', *, *, #223, .F. ) ;
#356 = VERTEX_POINT ( 'NONE', #168 ) ;
#357 = CARTESIAN_POINT ( 'NONE',  ( -7.424999999999998934, 9.093002483669097767E-16, -0.5250000000000007994 ) ) ;
#358 = APPLICATION_CONTEXT ( 'configuration controlled 3d designs of mechanical parts and assemblies' ) ;
#359 = CARTESIAN_POINT ( 'NONE',  ( -7.500000000000000000, 9.184850993605147944E-16, 0.5249999999999991340 ) ) ;
#360 = VERTEX_POINT ( 'NONE', #317 ) ;
#361 = CARTESIAN_POINT ( 'NONE',  ( 0.000000000000000000, 0.000000000000000000, -0.5250000000000007994 ) ) ;
#362 = CIRCLE ( 'NONE', #343, 7.500000000000000000 ) ;
#363 = ORIENTED_EDGE ( 'NONE', *, *, #243, .T. ) ;
#364 = LOCAL_TIME ( 13, 59, 52.00000000000000000, #389 ) ;
#365 = CARTESIAN_POINT ( 'NONE',  ( 0.000000000000000000, 0.000000000000000000, -0.5250000000000007994 ) ) ;
#366 = TOROIDAL_SURFACE ( 'NONE', #120, 7.424999999999998934, 0.07499999999999999722 ) ;
#367 = FACE_OUTER_BOUND ( 'NONE', #394, .T. ) ;
#368 = PERSON_AND_ORGANIZATION ( #437, #375 ) ;
#369 = DIRECTION ( 'NONE',  ( 1.000000000000000000, 0.000000000000000000, 0.000000000000000000 ) ) ;
#370 = TOROIDAL_SURFACE ( 'NONE', #297, 7.424999999999998934, 0.07499999999999999722 ) ;
#371 = DIRECTION ( 'NONE',  ( 1.000000000000000000, 0.000000000000000000, 0.000000000000000000 ) ) ;
#372 = CARTESIAN_POINT ( 'NONE',  ( 7.500000000000000000, 0.000000000000000000, -0.6000000000000008660 ) ) ;
#373 = DIRECTION ( 'NONE',  ( 1.000000000000000000, 0.000000000000000000, 0.000000000000000000 ) ) ;
#374 = CIRCLE ( 'NONE', #408, 7.424999999999998934 ) ;
#375 = ORGANIZATION ( 'UNSPECIFIED', 'UNSPECIFIED', '' ) ;
#376 = DIRECTION ( 'NONE',  ( 0.000000000000000000, -1.000000000000000000, 0.000000000000000000 ) ) ;
#377 = ORIENTED_EDGE ( 'NONE', *, *, #430, .T. ) ;
#378 = DIRECTION ( 'NONE',  ( 1.224646799147353207E-16, 1.000000000000000000, -0.000000000000000000 ) ) ;
#379 = CARTESIAN_POINT ( 'NONE',  ( 0.000000000000000000, 0.000000000000000000, 0.5999999999999990896 ) ) ;
#380 = CIRCLE ( 'NONE', #48, 7.500000000000000000 ) ;
#381 = PRODUCT_DEFINITION_FORMATION_WITH_SPECIFIED_SOURCE ( 'ANY', '', #177, .NOT_KNOWN. ) ;
#382 = EDGE_CURVE ( 'NONE', #173, #80, #62, .T. ) ;
#383 = EDGE_LOOP ( 'NONE', ( #298, #454, #256, #70 ) ) ;
#384 = DIRECTION ( 'NONE',  ( 0.000000000000000000, 0.000000000000000000, 1.000000000000000000 ) ) ;
#385 = CARTESIAN_POINT ( 'NONE',  ( 0.000000000000000000, 0.000000000000000000, -0.6000000000000008660 ) ) ;
#386 = EDGE_CURVE ( 'NONE', #310, #208, #429, .T. ) ;
#387 = APPROVAL_STATUS ( 'not_yet_approved' ) ;
#388 = EDGE_LOOP ( 'NONE', ( #33, #293, #424, #36 ) ) ;
#389 = COORDINATED_UNIVERSAL_TIME_OFFSET ( 6, 0, .BEHIND. ) ;
#390 = EDGE_LOOP ( 'NONE', ( #175, #58 ) ) ;
#391 = CIRCLE ( 'NONE', #190, 0.07499999999999998335 ) ;
#392 = CARTESIAN_POINT ( 'NONE',  ( 0.000000000000000000, 0.000000000000000000, -0.6000000000000008660 ) ) ;
#393 = ORIENTED_EDGE ( 'NONE', *, *, #386, .T. ) ;
#394 = EDGE_LOOP ( 'NONE', ( #14, #377, #421, #76 ) ) ;
#395 = COORDINATED_UNIVERSAL_TIME_OFFSET ( 6, 0, .BEHIND. ) ;
#396 = PRODUCT_DEFINITION_SHAPE ( 'NONE', 'NONE',  #426 ) ;
#397 = FACE_OUTER_BOUND ( 'NONE', #283, .T. ) ;
#398 = AXIS2_PLACEMENT_3D ( 'NONE', #198, #270, #446 ) ;
#399 = DATE_AND_TIME ( #118, #181 ) ;
#400 = CARTESIAN_POINT ( 'NONE',  ( 0.000000000000000000, 0.000000000000000000, 0.5249999999999991340 ) ) ;
#401 = DIRECTION ( 'NONE',  ( 1.000000000000000000, 0.000000000000000000, 0.000000000000000000 ) ) ;
#402 = ADVANCED_FACE ( 'NONE', ( #415 ), #311, .T. ) ;
#403 = DIRECTION ( 'NONE',  ( 1.000000000000000000, 0.000000000000000000, -0.000000000000000000 ) ) ;
#404 = TOROIDAL_SURFACE ( 'NONE', #94, 2.725000000000000089, 0.07499999999999999722 ) ;
#405 = DIRECTION ( 'NONE',  ( -0.000000000000000000, -0.000000000000000000, -1.000000000000000000 ) ) ;
#406 = FACE_OUTER_BOUND ( 'NONE', #456, .T. ) ;
#407 = CARTESIAN_POINT ( 'NONE',  ( 0.000000000000000000, 0.000000000000000000, -0.6000000000000008660 ) ) ;
#408 = AXIS2_PLACEMENT_3D ( 'NONE', #379, #306, #203 ) ;
#409 = CARTESIAN_POINT ( 'NONE',  ( 2.725000000000000089, 0.000000000000000000, -0.6000000000000008660 ) ) ;
#410 = EDGE_CURVE ( 'NONE', #51, #263, #436, .T. ) ;
#411 = DIRECTION ( 'NONE',  ( 0.000000000000000000, 0.000000000000000000, 1.000000000000000000 ) ) ;
#412 = CLOSED_SHELL ( 'NONE', ( #169, #52, #179, #133, #231, #187, #402, #87, #40, #26, #163, #152, #56, #157 ) ) ;
#413 = EDGE_CURVE ( 'NONE', #43, #356, #287, .T. ) ;
#414 = CIRCLE ( 'NONE', #327, 2.649999999999999911 ) ;
#415 = FACE_OUTER_BOUND ( 'NONE', #128, .T. ) ;
#416 = DIRECTION ( 'NONE',  ( 0.000000000000000000, 0.000000000000000000, 1.000000000000000000 ) ) ;
#417 = DIRECTION ( 'NONE',  ( 1.000000000000000000, 0.000000000000000000, 0.000000000000000000 ) ) ;
#418 = DIRECTION ( 'NONE',  ( 1.000000000000000000, 0.000000000000000000, 0.000000000000000000 ) ) ;
#419 = DIRECTION ( 'NONE',  ( -0.000000000000000000, -0.000000000000000000, -1.000000000000000000 ) ) ;
#420 = EDGE_LOOP ( 'NONE', ( #3, #73, #31, #292 ) ) ;
#421 = ORIENTED_EDGE ( 'NONE', *, *, #257, .F. ) ;
#422 = EDGE_LOOP ( 'NONE', ( #425, #117, #279, #109 ) ) ;
#423 = CIRCLE ( 'NONE', #228, 0.07499999999999998335 ) ;
#424 = ORIENTED_EDGE ( 'NONE', *, *, #325, .T. ) ;
#425 = ORIENTED_EDGE ( 'NONE', *, *, #83, .F. ) ;
#426 = PRODUCT_DEFINITION ( 'UNKNOWN', '', #381, #112 ) ;
#427 = DIRECTION ( 'NONE',  ( 0.000000000000000000, 0.000000000000000000, 1.000000000000000000 ) ) ;
#428 = CARTESIAN_POINT ( 'NONE',  ( 7.424999999999998934, 0.000000000000000000, 0.5999999999999990896 ) ) ;
#429 = CIRCLE ( 'NONE', #124, 2.725000000000000089 ) ;
#430 = EDGE_CURVE ( 'NONE', #173, #67, #302, .T. ) ;
#431 = AXIS2_PLACEMENT_3D ( 'NONE', #385, #218, #418 ) ;
#432 = DIRECTION ( 'NONE',  ( 0.000000000000000000, 0.000000000000000000, 1.000000000000000000 ) ) ;
#433 = DIRECTION ( 'NONE',  ( 0.000000000000000000, 0.000000000000000000, 1.000000000000000000 ) ) ;
#434 = ORIENTED_EDGE ( 'NONE', *, *, #261, .T. ) ;
#435 = DIRECTION ( 'NONE',  ( 0.000000000000000000, 0.000000000000000000, 1.000000000000000000 ) ) ;
#436 = CIRCLE ( 'NONE', #236, 2.725000000000000089 ) ;
#437 = PERSON ( 'UNSPECIFIED', 'UNSPECIFIED', 'UNSPECIFIED', ('UNSPECIFIED'), ('UNSPECIFIED'), ('UNSPECIFIED') ) ;
#438 = CARTESIAN_POINT ( 'NONE',  ( 2.649999999999999911, 0.000000000000000000, -0.5250000000000007994 ) ) ;
#439 = DIRECTION ( 'NONE',  ( 0.000000000000000000, -1.000000000000000000, 0.000000000000000000 ) ) ;
#440 = APPROVAL ( #387, 'UNSPECIFIED' ) ;
#441 = FACE_OUTER_BOUND ( 'NONE', #108, .T. ) ;
#442 = EDGE_CURVE ( 'NONE', #212, #39, #362, .T. ) ;
#443 = CIRCLE ( 'NONE', #22, 0.07499999999999998335 ) ;
#444 = DIRECTION ( 'NONE',  ( -0.000000000000000000, -0.000000000000000000, -1.000000000000000000 ) ) ;
#445 = CIRCLE ( 'NONE', #346, 0.07499999999999998335 ) ;
#446 = DIRECTION ( 'NONE',  ( 1.000000000000000000, 0.000000000000000000, 0.000000000000000000 ) ) ;
#447 = CARTESIAN_POINT ( 'NONE',  ( 0.000000000000000000, 0.000000000000000000, 0.5999999999999990896 ) ) ;
#448 = PLANE ( 'NONE',  #214 ) ;
#449 = CIRCLE ( 'NONE', #90, 0.07499999999999998335 ) ;
#450 = MECHANICAL_CONTEXT ( 'NONE', #358, 'mechanical' ) ;
#451 = CC_DESIGN_PERSON_AND_ORGANIZATION_ASSIGNMENT ( #368, #226, ( #38 ) ) ;
#452 = ORIENTED_EDGE ( 'NONE', *, *, #323, .T. ) ;
#453 = APPROVAL_DATE_TIME ( #174, #440 ) ;
#454 = ORIENTED_EDGE ( 'NONE', *, *, #197, .T. ) ;
#455 = DIRECTION ( 'NONE',  ( -0.000000000000000000, -0.000000000000000000, -1.000000000000000000 ) ) ;
#456 = EDGE_LOOP ( 'NONE', ( #363, #146, #64, #105 ) ) ;
#457 = EDGE_LOOP ( 'NONE', ( #85, #434, #178, #216 ) ) ;
ENDSEC;
END-ISO-10303-21;
