ISO-10303-21;
HEADER;
FILE_DESCRIPTION (( 'STEP AP203' ),
    '1' );
FILE_NAME ('93339A252_NO THREADS_Easy-Adjust Alloy Steel Ball-Tip Set Screw.STEP',
    '2026-08-27T17:39:00',
    ( 'McMaster Carr Supply' ),
    ( 'McMaster Carr Supply' ),
    'SwSTEP 2.0',
    'SolidWorks 2024',
    '' );
FILE_SCHEMA (( 'CONFIG_CONTROL_DESIGN' ));
ENDSEC;

DATA;
#1 = PRODUCT_DEFINITION_FORMATION_WITH_SPECIFIED_SOURCE ( 'ANY', '', #427, .NOT_KNOWN. ) ;
#2 = CARTESIAN_POINT ( 'NONE',  ( 0.000000000000000000, 1.299602622306101615E-16, -11.50999999999999979 ) ) ;
#3 = ORIENTED_EDGE ( 'NONE', *, *, #673, .F. ) ;
#4 = EDGE_CURVE ( 'NONE', #552, #419, #70, .T. ) ;
#5 = DIRECTION ( 'NONE',  ( -0.000000000000000000, 1.759941415958229587E-16, -1.000000000000000000 ) ) ;
#6 = VERTEX_POINT ( 'NONE', #641 ) ;
#7 = CARTESIAN_POINT ( 'NONE',  ( 2.787979398655047775E-16, 2.053115887121329308, -11.98999999999999844 ) ) ;
#8 = EDGE_CURVE ( 'NONE', #137, #199, #732, .T. ) ;
#9 = ORIENTED_EDGE ( 'NONE', *, *, #256, .T. ) ;
#10 = CARTESIAN_POINT ( 'NONE',  ( -1.249999999999999778, -0.7216878364870347173, 11.99000000000000021 ) ) ;
#11 = CIRCLE ( 'NONE', #212, 1.500000000000001332 ) ;
#12 = EDGE_LOOP ( 'NONE', ( #568, #362, #58 ) ) ;
#13 = CALENDAR_DATE ( 2026, 27, 8 ) ;
#14 = CONICAL_SURFACE ( 'NONE', #89, 1.443375672974064550, 0.7853981633974500554 ) ;
#15 = CARTESIAN_POINT ( 'NONE',  ( -0.7364247641451130422, -1.018200637156979615, 11.79689518559269601 ) ) ;
#16 = VERTEX_POINT ( 'NONE', #678 ) ;
#17 = APPROVAL_ROLE ( '' ) ;
#18 = DIRECTION ( 'NONE',  ( 0.000000000000000000, 1.000000000000000000, 0.000000000000000000 ) ) ;
#19 = VERTEX_POINT ( 'NONE', #174 ) ;
#20 = SECURITY_CLASSIFICATION_LEVEL ( 'unclassified' ) ;
#21 = ORIENTED_EDGE ( 'NONE', *, *, #351, .T. ) ;
#22 = ADVANCED_FACE ( 'NONE', ( #627 ), #238, .T. ) ;
#23 = DIRECTION ( 'NONE',  ( 0.000000000000000000, 0.000000000000000000, 1.000000000000000000 ) ) ;
#24 = COORDINATED_UNIVERSAL_TIME_OFFSET ( 6, 0, .BEHIND. ) ;
#25 = CIRCLE ( 'NONE', #453, 1.500000000000001332 ) ;
#26 = APPROVAL_PERSON_ORGANIZATION ( #117, #82, #476 ) ;
#27 = CARTESIAN_POINT ( 'NONE',  ( 0.000000000000000000, 1.461060017385100355E-15, -11.99000000000000021 ) ) ;
#28 = CARTESIAN_POINT ( 'NONE',  ( 0.000000000000000000, 1.299602622306101615E-16, -11.50999999999999979 ) ) ;
#29 = DIRECTION ( 'NONE',  ( -0.000000000000000000, 1.759941415958229587E-16, -1.000000000000000000 ) ) ;
#30 = DIRECTION ( 'NONE',  ( -0.8660254037844387076, -0.4999999999999998335, 0.000000000000000000 ) ) ;
#31 = VERTEX_POINT ( 'NONE', #7 ) ;
#32 = CARTESIAN_POINT ( 'NONE',  ( 0.000000000000000000, -2.711254413449450131E-15, 11.71712111779506849 ) ) ;
#33 = ORIENTED_EDGE ( 'NONE', *, *, #519, .F. ) ;
#34 = CIRCLE ( 'NONE', #75, 2.053115887121327976 ) ;
#35 = CIRCLE ( 'NONE', #625, 2.500000000000005773 ) ;
#36 = DIRECTION ( 'NONE',  ( 0.000000000000000000, -1.000000000000000000, 0.000000000000000000 ) ) ;
#37 = LINE ( 'NONE', #724, #239 ) ;
#38 = EDGE_LOOP ( 'NONE', ( #95, #215, #417, #716, #514 ) ) ;
#39 = PLANE ( 'NONE',  #666 ) ;
#40 = DIRECTION ( 'NONE',  ( 0.000000000000000000, 0.000000000000000000, 1.000000000000000000 ) ) ;
#41 = DIRECTION ( 'NONE',  ( 0.000000000000000000, 1.000000000000000000, 0.000000000000000000 ) ) ;
#42 = LINE ( 'NONE', #686, #431 ) ;
#43 = CARTESIAN_POINT ( 'NONE',  ( 0.000000000000000000, -2.711254413449450131E-15, 11.71712111779506849 ) ) ;
#44 = CARTESIAN_POINT ( 'NONE',  ( 0.000000000000000000, -2.053115887121326644, -11.98999999999999844 ) ) ;
#45 = VERTEX_POINT ( 'NONE', #10 ) ;
#46 = FACE_OUTER_BOUND ( 'NONE', #613, .T. ) ;
#47 = CLOSED_SHELL ( 'NONE', ( #554, #22, #226, #619, #314, #408, #561, #101, #614, #392, #651, #133, #91, #607, #325, #539, #197, #713, #534, #207, #328, #449, #146, #484 ) ) ;
#48 = AXIS2_PLACEMENT_3D ( 'NONE', #2, #731, #118 ) ;
#49 = CARTESIAN_POINT ( 'NONE',  ( 9.757819552369539906E-16, -1.443375672974068546, 11.99000000000000021 ) ) ;
#50 = EDGE_CURVE ( 'NONE', #45, #339, #380, .T. ) ;
#51 = ORIENTED_EDGE ( 'NONE', *, *, #396, .F. ) ;
#52 = DIRECTION ( 'NONE',  ( 0.000000000000000000, 0.000000000000000000, 1.000000000000000000 ) ) ;
#53 = CARTESIAN_POINT ( 'NONE',  ( 0.000000000000000000, 1.461060017385099961E-15, -11.98999999999999844 ) ) ;
#54 = ORIENTED_EDGE ( 'NONE', *, *, #125, .F. ) ;
#55 = APPROVAL_DATE_TIME ( #422, #82 ) ;
#56 = FACE_OUTER_BOUND ( 'NONE', #642, .T. ) ;
#57 = ORIENTED_EDGE ( 'NONE', *, *, #50, .T. ) ;
#58 = ORIENTED_EDGE ( 'NONE', *, *, #285, .T. ) ;
#59 = CARTESIAN_POINT ( 'NONE',  ( -1.249999999999999778, -0.7216878364870347173, 10.11500000000000199 ) ) ;
#60 = PERSON_AND_ORGANIZATION ( #620, #669 ) ;
#61 = CARTESIAN_POINT ( 'NONE',  ( -0.1964808569473843747, -1.329937397324886250, 11.87656172435010227 ) ) ;
#62 = CIRCLE ( 'NONE', #227, 1.443375672974064550 ) ;
#63 = CONICAL_SURFACE ( 'NONE', #454, 1.443375672974064550, 0.7853981633974500554 ) ;
#64 = LINE ( 'NONE', #293, #255 ) ;
#65 = EDGE_LOOP ( 'NONE', ( #284, #541, #253, #288, #516, #372 ) ) ;
#66 = CARTESIAN_POINT ( 'NONE',  ( 0.1975317408473099001, -1.329330669222376526, 11.88567075922984273 ) ) ;
#67 = EDGE_CURVE ( 'NONE', #45, #339, #192, .T. ) ;
#68 = CARTESIAN_POINT ( 'NONE',  ( -1.249999999999999778, -0.7216878364870347173, 11.99000000000000021 ) ) ;
#69 = DIRECTION ( 'NONE',  ( 0.000000000000000000, 1.000000000000000000, 0.000000000000000000 ) ) ;
#70 = LINE ( 'NONE', #188, #717 ) ;
#71 = ORIENTED_EDGE ( 'NONE', *, *, #462, .T. ) ;
#72 = CARTESIAN_POINT ( 'NONE',  ( 1.249999999999999778, -0.1270747435589082708, 11.79662432702593478 ) ) ;
#73 = CARTESIAN_POINT ( 'NONE',  ( 0.4044126993943258364, -1.209887892115049324, 11.81716943592157421 ) ) ;
#74 = CARTESIAN_POINT ( 'NONE',  ( -0.8455873006056736640, -0.9551756173460520527, 11.81716943592157243 ) ) ;
#75 = AXIS2_PLACEMENT_3D ( 'NONE', #695, #411, #297 ) ;
#76 = ORIENTED_EDGE ( 'NONE', *, *, #144, .T. ) ;
#77 = CIRCLE ( 'NONE', #720, 1.421126313879240488 ) ;
#78 = EDGE_CURVE ( 'NONE', #683, #587, #62, .T. ) ;
#79 = B_SPLINE_CURVE_WITH_KNOTS ( 'NONE', 3,
 ( #459, #186, #66, #73, #623, #711, #425, #365 ),
 .UNSPECIFIED., .F., .F.,
 ( 4, 2, 2, 4 ),
 ( 2.544378114032118177E-07, 0.0003729905366538300085, 0.0007457266354962567958, 0.001491198833181110262 ),
 .UNSPECIFIED. ) ;
#80 = ORIENTED_EDGE ( 'NONE', *, *, #4, .F. ) ;
#81 = CARTESIAN_POINT ( 'NONE',  ( 0.000000000000000000, 0.000000000000000000, 0.000000000000000000 ) ) ;
#82 = APPROVAL ( #340, 'UNSPECIFIED' ) ;
#83 = EDGE_LOOP ( 'NONE', ( #80, #402, #346, #33 ) ) ;
#84 = CARTESIAN_POINT ( 'NONE',  ( 3.061616997868392016E-16, -2.500000000000008438, 11.71712111779506849 ) ) ;
#85 = PERSON_AND_ORGANIZATION ( #620, #669 ) ;
#86 = EDGE_CURVE ( 'NONE', #491, #45, #315, .T. ) ;
#87 = CARTESIAN_POINT ( 'NONE',  ( 1.250000000000000000, 0.7216878364870285001, 11.99000000000000021 ) ) ;
#88 = CIRCLE ( 'NONE', #657, 2.110288568297010059 ) ;
#89 = AXIS2_PLACEMENT_3D ( 'NONE', #105, #320, #722 ) ;
#90 = CARTESIAN_POINT ( 'NONE',  ( 0.000000000000000000, -2.053115887121327088, -11.98999999999999844 ) ) ;
#91 = ADVANCED_FACE ( 'NONE', ( #344 ), #290, .F. ) ;
#92 = CARTESIAN_POINT ( 'NONE',  ( -1.053519143052613405, 0.8351261121362120177, 11.87656172435010227 ) ) ;
#93 = DIRECTION ( 'NONE',  ( -0.000000000000000000, 1.759941415958229587E-16, -1.000000000000000000 ) ) ;
#94 = DIRECTION ( 'NONE',  ( -0.000000000000000000, 1.759941415958229587E-16, -1.000000000000000000 ) ) ;
#95 = ORIENTED_EDGE ( 'NONE', *, *, #337, .T. ) ;
#96 =( LENGTH_UNIT ( ) NAMED_UNIT ( * ) SI_UNIT ( .MILLI., .METRE. ) );
#97 = ORIENTED_EDGE ( 'NONE', *, *, #193, .F. ) ;
#98 = DIRECTION ( 'NONE',  ( 0.4999999999999999445, -0.8660254037844387076, 0.000000000000000000 ) ) ;
#99 = CARTESIAN_POINT ( 'NONE',  ( -0.8409413214249605861, 0.9578579746766816561, 11.79609109402886702 ) ) ;
#100 = ORIENTED_EDGE ( 'NONE', *, *, #231, .T. ) ;
#101 = ADVANCED_FACE ( 'NONE', ( #680, #171 ), #390, .T. ) ;
#102 = VECTOR ( 'NONE', #540, 1000.000000000000000 ) ;
#103 = CIRCLE ( 'NONE', #114, 1.500000000000001332 ) ;
#104 = CARTESIAN_POINT ( 'NONE',  ( -2.872124905886354175E-16, 1.443375672974061663, 10.11500000000000199 ) ) ;
#105 = CARTESIAN_POINT ( 'NONE',  ( 0.000000000000000000, -3.799624998673959418E-15, 11.99000000000000021 ) ) ;
#106 = ORIENTED_EDGE ( 'NONE', *, *, #396, .T. ) ;
#107 = CC_DESIGN_PERSON_AND_ORGANIZATION_ASSIGNMENT ( #470, #415, ( #427 ) ) ;
#108 = SPHERICAL_SURFACE ( 'NONE', #201, 1.500000000000001332 ) ;
#109 = DIRECTION ( 'NONE',  ( 0.000000000000000000, -1.000000000000000000, 0.000000000000000000 ) ) ;
#110 = CARTESIAN_POINT ( 'NONE',  ( 0.000000000000000000, 1.461060017385100355E-15, -11.99000000000000021 ) ) ;
#111 = CARTESIAN_POINT ( 'NONE',  ( -1.249999999999999778, 0.7216878364870299434, 10.11500000000000199 ) ) ;
#112 = ORIENTED_EDGE ( 'NONE', *, *, #78, .T. ) ;
#113 = CIRCLE ( 'NONE', #579, 1.443375672974064550 ) ;
#114 = AXIS2_PLACEMENT_3D ( 'NONE', #251, #385, #40 ) ;
#115 = DIRECTION ( 'NONE',  ( -0.000000000000000000, 1.759941415958229587E-16, -1.000000000000000000 ) ) ;
#116 = ORIENTED_EDGE ( 'NONE', *, *, #8, .F. ) ;
#117 = PERSON_AND_ORGANIZATION ( #620, #669 ) ;
#118 = DIRECTION ( 'NONE',  ( 0.000000000000000000, 1.000000000000000000, 0.000000000000000000 ) ) ;
#119 = ORIENTED_EDGE ( 'NONE', *, *, #246, .T. ) ;
#120 = DIRECTION ( 'NONE',  ( 0.000000000000000000, 0.000000000000000000, 1.000000000000000000 ) ) ;
#121 = PERSON_AND_ORGANIZATION_ROLE ( 'creator' ) ;
#122 = CARTESIAN_POINT ( 'NONE',  ( -1.249999999999999778, -0.7216878364870347173, 11.99000000000000021 ) ) ;
#123 = FACE_OUTER_BOUND ( 'NONE', #572, .T. ) ;
#124 = ORIENTED_EDGE ( 'NONE', *, *, #384, .F. ) ;
#125 = EDGE_CURVE ( 'NONE', #654, #137, #42, .T. ) ;
#126 = CIRCLE ( 'NONE', #648, 1.443375672974064550 ) ;
#127 = VECTOR ( 'NONE', #730, 1000.000000000000000 ) ;
#128 = CARTESIAN_POINT ( 'NONE',  ( 1.052468259152689711, 0.8357328402387197430, 11.88567075922984451 ) ) ;
#129 = ORIENTED_EDGE ( 'NONE', *, *, #361, .F. ) ;
#130 = CARTESIAN_POINT ( 'NONE',  ( -1.052468259152689489, -0.8357328402387248500, 11.88567075922984273 ) ) ;
#131 = ORIENTED_EDGE ( 'NONE', *, *, #574, .F. ) ;
#132 = CARTESIAN_POINT ( 'NONE',  ( -1.249999999999999556, 0.2507457347055064845, 11.81624566764211082 ) ) ;
#133 = ADVANCED_FACE ( 'NONE', ( #413 ), #163, .F. ) ;
#134 = CALENDAR_DATE ( 2026, 27, 8 ) ;
#135 = AXIS2_PLACEMENT_3D ( 'NONE', #444, #115, #69 ) ;
#136 = ADVANCED_FACE ( 'NONE', ( #438 ), #108, .T. ) ;
#137 = VERTEX_POINT ( 'NONE', #615 ) ;
#138 = DATE_TIME_ROLE ( 'classification_date' ) ;
#139 = CC_DESIGN_SECURITY_CLASSIFICATION ( #668, ( #1 ) ) ;
#140 = ORIENTED_EDGE ( 'NONE', *, *, #67, .T. ) ;
#141 = CARTESIAN_POINT ( 'NONE',  ( 3.061616997868384127E-16, -2.499999999999997335, -11.54311588712132419 ) ) ;
#142 = APPLICATION_CONTEXT ( 'configuration controlled 3d designs of mechanical parts and assemblies' ) ;
#143 = EDGE_LOOP ( 'NONE', ( #217, #592, #398, #350 ) ) ;
#144 = EDGE_CURVE ( 'NONE', #199, #378, #599, .T. ) ;
#145 = CARTESIAN_POINT ( 'NONE',  ( -1.249999999999998446, 0.7216878364870308316, 11.99000000000000021 ) ) ;
#146 = ADVANCED_FACE ( 'NONE', ( #234 ), #39, .F. ) ;
#147 = LINE ( 'NONE', #307, #102 ) ;
#148 = CARTESIAN_POINT ( 'NONE',  ( 0.000000000000000000, 2.500000000000000000, -11.54311588712132419 ) ) ;
#149 = CIRCLE ( 'NONE', #135, 2.110288568297010059 ) ;
#150 = DIRECTION ( 'NONE',  ( 0.000000000000000000, 0.000000000000000000, 1.000000000000000000 ) ) ;
#151 = VECTOR ( 'NONE', #617, 1000.000000000000000 ) ;
#152 = ORIENTED_EDGE ( 'NONE', *, *, #50, .F. ) ;
#153 = CARTESIAN_POINT ( 'NONE',  ( 0.000000000000000000, -4.218244022707292163E-17, -10.00999999999999801 ) ) ;
#154 = CARTESIAN_POINT ( 'NONE',  ( -3.631563352950423480E-16, -1.443375672974066770, 10.11500000000000199 ) ) ;
#155 = DIRECTION ( 'NONE',  ( -0.000000000000000000, -0.000000000000000000, 1.000000000000000000 ) ) ;
#156 = LINE ( 'NONE', #594, #280 ) ;
#157 = EDGE_CURVE ( 'NONE', #19, #532, #535, .T. ) ;
#158 = CARTESIAN_POINT ( 'NONE',  ( 0.000000000000000000, -2.711254413449450131E-15, 11.71712111779506849 ) ) ;
#159 = CARTESIAN_POINT ( 'NONE',  ( 0.000000000000000000, -3.799624998673959418E-15, 11.99000000000000021 ) ) ;
#160 = EDGE_CURVE ( 'NONE', #31, #679, #34, .T. ) ;
#161 = DIRECTION ( 'NONE',  ( 0.000000000000000000, 1.000000000000000000, 0.000000000000000000 ) ) ;
#162 = AXIS2_PLACEMENT_3D ( 'NONE', #401, #178, #349 ) ;
#163 = CONICAL_SURFACE ( 'NONE', #354, 1.443375672974064550, 0.7853981633974500554 ) ;
#164 = AXIS2_PLACEMENT_3D ( 'NONE', #559, #330, #274 ) ;
#165 = FACE_OUTER_BOUND ( 'NONE', #83, .T. ) ;
#166 = DIRECTION ( 'NONE',  ( 0.8660254037844387076, 0.4999999999999998890, 0.000000000000000000 ) ) ;
#167 = EDGE_CURVE ( 'NONE', #19, #406, #113, .T. ) ;
#168 = PLANE ( 'NONE',  #310 ) ;
#169 = PLANE ( 'NONE',  #407 ) ;
#170 = VERTEX_POINT ( 'NONE', #59 ) ;
#171 = FACE_OUTER_BOUND ( 'NONE', #175, .T. ) ;
#172 = CC_DESIGN_DATE_AND_TIME_ASSIGNMENT ( #526, #138, ( #668 ) ) ;
#173 = DIRECTION ( 'NONE',  ( -0.000000000000000000, -0.000000000000000000, 1.000000000000000000 ) ) ;
#174 = CARTESIAN_POINT ( 'NONE',  ( 1.250000000000001110, -0.7216878364870339402, 11.99000000000000021 ) ) ;
#175 = EDGE_LOOP ( 'NONE', ( #124, #184 ) ) ;
#176 = CARTESIAN_POINT ( 'NONE',  ( 0.000000000000000000, -2.759279498082734936E-15, 11.99000000000000021 ) ) ;
#177 = CONICAL_SURFACE ( 'NONE', #489, 1.443375672974064550, 0.7853981633974500554 ) ;
#178 = DIRECTION ( 'NONE',  ( 0.000000000000000000, 0.000000000000000000, 1.000000000000000000 ) ) ;
#179 = CARTESIAN_POINT ( 'NONE',  ( 0.000000000000000000, 2.500000000000003553, -10.00999999999999801 ) ) ;
#180 = VERTEX_POINT ( 'NONE', #586 ) ;
#181 = MECHANICAL_CONTEXT ( 'NONE', #495, 'mechanical' ) ;
#182 = CARTESIAN_POINT ( 'NONE',  ( -1.250000000000000000, -0.2508958893827530345, 11.81630162262993444 ) ) ;
#183 = CARTESIAN_POINT ( 'NONE',  ( 1.250000000000000000, 0.7216878364870285001, 11.99000000000000021 ) ) ;
#184 = ORIENTED_EDGE ( 'NONE', *, *, #319, .F. ) ;
#185 = CARTESIAN_POINT ( 'NONE',  ( 1.250000000000001110, -0.7216878364870339402, 11.99000000000000021 ) ) ;
#186 = CARTESIAN_POINT ( 'NONE',  ( 0.09766419351501127999, -1.386989224557987121, 11.93361355158391568 ) ) ;
#187 = CARTESIAN_POINT ( 'NONE',  ( 0.000000000000000000, -3.799624998673959418E-15, 11.99000000000000021 ) ) ;
#188 = CARTESIAN_POINT ( 'NONE',  ( 3.061616997868390044E-16, -2.500000000000008438, 11.71712111779506849 ) ) ;
#189 = ORIENTED_EDGE ( 'NONE', *, *, #351, .F. ) ;
#190 = CIRCLE ( 'NONE', #334, 1.421126313879240488 ) ;
#191 = VERTEX_POINT ( 'NONE', #527 ) ;
#192 = B_SPLINE_CURVE_WITH_KNOTS ( 'NONE', 3,
 ( #68, #531, #130, #74, #15, #700, #61, #468 ),
 .UNSPECIFIED., .F., .F.,
 ( 4, 2, 2, 4 ),
 ( 2.544378114026065597E-07, 0.0003729905366538290869, 0.0007457266354962558200, 0.001491198833181109178 ),
 .UNSPECIFIED. ) ;
#193 = EDGE_CURVE ( 'NONE', #339, #19, #79, .T. ) ;
#194 = DIRECTION ( 'NONE',  ( 0.000000000000000000, 0.000000000000000000, 1.000000000000000000 ) ) ;
#195 = ORIENTED_EDGE ( 'NONE', *, *, #585, .F. ) ;
#196 =( NAMED_UNIT ( * ) SI_UNIT ( $, .STERADIAN. ) SOLID_ANGLE_UNIT ( ) );
#197 = ADVANCED_FACE ( 'NONE', ( #46 ), #177, .F. ) ;
#198 = APPROVAL_ROLE ( '' ) ;
#199 = VERTEX_POINT ( 'NONE', #148 ) ;
#200 = LINE ( 'NONE', #90, #214 ) ;
#201 = AXIS2_PLACEMENT_3D ( 'NONE', #28, #485, #714 ) ;
#202 = EDGE_CURVE ( 'NONE', #339, #19, #589, .T. ) ;
#203 = AXIS2_PLACEMENT_3D ( 'NONE', #32, #598, #373 ) ;
#204 = EDGE_LOOP ( 'NONE', ( #100, #645, #469, #317 ) ) ;
#205 = PLANE ( 'NONE',  #530 ) ;
#206 = ORIENTED_EDGE ( 'NONE', *, *, #481, .T. ) ;
#207 = ADVANCED_FACE ( 'NONE', ( #412 ), #670, .F. ) ;
#208 = CARTESIAN_POINT ( 'NONE',  ( 1.443375672974064550, -3.799624998673959418E-15, 11.99000000000000021 ) ) ;
#209 = DIRECTION ( 'NONE',  ( -0.000000000000000000, 1.759941415958229587E-16, -1.000000000000000000 ) ) ;
#210 = CLOSED_SHELL ( 'NONE', ( #136, #493 ) ) ;
#211 = DIRECTION ( 'NONE',  ( 1.000000000000000000, 0.000000000000000000, 0.000000000000000000 ) ) ;
#212 = AXIS2_PLACEMENT_3D ( 'NONE', #304, #244, #52 ) ;
#213 = FACE_OUTER_BOUND ( 'NONE', #258, .T. ) ;
#214 = VECTOR ( 'NONE', #321, 1000.000000000000114 ) ;
#215 = ORIENTED_EDGE ( 'NONE', *, *, #157, .T. ) ;
#216 = EDGE_CURVE ( 'NONE', #629, #191, #25, .T. ) ;
#217 = ORIENTED_EDGE ( 'NONE', *, *, #597, .T. ) ;
#218 = FACE_OUTER_BOUND ( 'NONE', #270, .T. ) ;
#219 = ORIENTED_EDGE ( 'NONE', *, *, #500, .F. ) ;
#220 = CARTESIAN_POINT ( 'NONE',  ( 1.250000000000000000, -3.799624998846538518E-15, 11.79662432702593655 ) ) ;
#221 = PRODUCT_RELATED_PRODUCT_CATEGORY ( 'detail', '', ( #427 ) ) ;
#222 = FACE_OUTER_BOUND ( 'NONE', #632, .T. ) ;
#223 = DIRECTION ( 'NONE',  ( 1.000000000000000000, 0.000000000000000000, 0.000000000000000000 ) ) ;
#224 = DIRECTION ( 'NONE',  ( -0.000000000000000000, -0.000000000000000000, 1.000000000000000000 ) ) ;
#225 = DIRECTION ( 'NONE',  ( -0.000000000000000000, -0.000000000000000000, 1.000000000000000000 ) ) ;
#226 = ADVANCED_FACE ( 'NONE', ( #457 ), #393, .F. ) ;
#227 = AXIS2_PLACEMENT_3D ( 'NONE', #697, #194, #739 ) ;
#228 = LOCAL_TIME ( 12, 39, 0.000000000000000000, #305 ) ;
#229 = CARTESIAN_POINT ( 'NONE',  ( -1.249999999999999778, 0.7216878364870299434, 10.11500000000000199 ) ) ;
#230 = CARTESIAN_POINT ( 'NONE',  ( 0.000000000000000000, 3.811175229455857855E-17, -13.01000000000000156 ) ) ;
#231 = EDGE_CURVE ( 'NONE', #356, #491, #282, .T. ) ;
#232 = DIRECTION ( 'NONE',  ( -0.000000000000000000, 1.759941415958229587E-16, -1.000000000000000000 ) ) ;
#233 = EDGE_LOOP ( 'NONE', ( #206, #263, #472, #116 ) ) ;
#234 = FACE_OUTER_BOUND ( 'NONE', #38, .T. ) ;
#235 = CARTESIAN_POINT ( 'NONE',  ( 1.152335806484988234, 0.7780742849031093700, 11.93361355158391923 ) ) ;
#236 = EDGE_LOOP ( 'NONE', ( #353, #596, #249, #54 ) ) ;
#237 = DIRECTION ( 'NONE',  ( 0.000000000000000000, 0.000000000000000000, 1.000000000000000000 ) ) ;
#238 = CONICAL_SURFACE ( 'NONE', #610, 2.053115887121328420, 0.7853981633974435050 ) ;
#239 = VECTOR ( 'NONE', #272, 1000.000000000000000 ) ;
#240 = CARTESIAN_POINT ( 'NONE',  ( -1.249999999999999556, 0.6100375687041542649, 11.93417486610856493 ) ) ;
#241 = CARTESIAN_POINT ( 'NONE',  ( -1.249999999999999778, -0.7216878364870347173, 10.11500000000000199 ) ) ;
#242 = EDGE_LOOP ( 'NONE', ( #549, #458, #698, #294 ) ) ;
#243 = EDGE_CURVE ( 'NONE', #477, #180, #11, .T. ) ;
#244 = DIRECTION ( 'NONE',  ( -1.000000000000000000, 0.000000000000000000, 0.000000000000000000 ) ) ;
#245 = ORIENTED_EDGE ( 'NONE', *, *, #167, .T. ) ;
#246 = EDGE_CURVE ( 'NONE', #378, #199, #564, .T. ) ;
#247 = AXIS2_PLACEMENT_3D ( 'NONE', #43, #276, #503 ) ;
#248 = VERTEX_POINT ( 'NONE', #515 ) ;
#249 = ORIENTED_EDGE ( 'NONE', *, *, #481, .F. ) ;
#250 = PERSON_AND_ORGANIZATION_ROLE ( 'design_supplier' ) ;
#251 = CARTESIAN_POINT ( 'NONE',  ( 0.000000000000000000, 1.299602622306101615E-16, -11.50999999999999979 ) ) ;
#252 = PERSON_AND_ORGANIZATION ( #620, #669 ) ;
#253 = ORIENTED_EDGE ( 'NONE', *, *, #528, .T. ) ;
#254 = CARTESIAN_POINT ( 'NONE',  ( 0.000000000000000000, 2.053115887121329752, -11.99000000000000021 ) ) ;
#255 = VECTOR ( 'NONE', #336, 1000.000000000000000 ) ;
#256 = EDGE_CURVE ( 'NONE', #683, #587, #551, .T. ) ;
#257 = APPROVAL_PERSON_ORGANIZATION ( #633, #343, #198 ) ;
#258 = EDGE_LOOP ( 'NONE', ( #57, #640 ) ) ;
#259 = AXIS2_PLACEMENT_3D ( 'NONE', #430, #23, #660 ) ;
#260 = FACE_BOUND ( 'NONE', #448, .T. ) ;
#261 = DIRECTION ( 'NONE',  ( 0.000000000000000000, 1.000000000000000000, 0.000000000000000000 ) ) ;
#262 = DIRECTION ( 'NONE',  ( 0.000000000000000000, 1.000000000000000000, 0.000000000000000000 ) ) ;
#263 = ORIENTED_EDGE ( 'NONE', *, *, #277, .T. ) ;
#264 = EDGE_CURVE ( 'NONE', #31, #199, #567, .T. ) ;
#265 = CARTESIAN_POINT ( 'NONE',  ( 1.250000000000000000, 0.7216878364870297213, 10.11500000000000199 ) ) ;
#266 = ORIENTED_EDGE ( 'NONE', *, *, #264, .F. ) ;
#267 = AXIS2_PLACEMENT_3D ( 'NONE', #626, #232, #18 ) ;
#268 = CARTESIAN_POINT ( 'NONE',  ( 1.250000000000000000, 0.7216878364870285001, 11.99000000000000021 ) ) ;
#269 = AXIS2_PLACEMENT_3D ( 'NONE', #656, #150, #371 ) ;
#270 = EDGE_LOOP ( 'NONE', ( #129, #414, #703 ) ) ;
#271 = DIRECTION ( 'NONE',  ( -0.8660254037844387076, -0.4999999999999998890, 0.000000000000000000 ) ) ;
#272 = DIRECTION ( 'NONE',  ( -0.000000000000000000, -0.000000000000000000, 1.000000000000000000 ) ) ;
#273 = DIRECTION ( 'NONE',  ( -0.000000000000000000, -0.000000000000000000, 1.000000000000000000 ) ) ;
#274 = DIRECTION ( 'NONE',  ( 0.000000000000000000, -1.000000000000000000, 0.000000000000000000 ) ) ;
#275 = DIRECTION ( 'NONE',  ( 1.000000000000000000, -0.000000000000000000, 0.000000000000000000 ) ) ;
#276 = DIRECTION ( 'NONE',  ( -0.000000000000000000, 1.759941415958229587E-16, -1.000000000000000000 ) ) ;
#277 = EDGE_CURVE ( 'NONE', #419, #378, #577, .T. ) ;
#278 = UNCERTAINTY_MEASURE_WITH_UNIT (LENGTH_MEASURE( 1.000000000000000082E-05 ), #96, 'distance_accuracy_value', 'NONE');
#279 = PLANE ( 'NONE',  #269 ) ;
#280 = VECTOR ( 'NONE', #712, 1000.000000000000114 ) ;
#281 = VECTOR ( 'NONE', #726, 1000.000000000000114 ) ;
#282 = LINE ( 'NONE', #287, #718 ) ;
#283 = ORIENTED_EDGE ( 'NONE', *, *, #160, .F. ) ;
#284 = ORIENTED_EDGE ( 'NONE', *, *, #659, .T. ) ;
#285 = EDGE_CURVE ( 'NONE', #406, #683, #299, .T. ) ;
#286 = DIRECTION ( 'NONE',  ( 0.000000000000000000, -1.000000000000000000, -1.759941415958229587E-16 ) ) ;
#287 = CARTESIAN_POINT ( 'NONE',  ( -1.249999999999999778, 0.7216878364870299434, 10.11500000000000199 ) ) ;
#288 = ORIENTED_EDGE ( 'NONE', *, *, #404, .T. ) ;
#289 = CALENDAR_DATE ( 2026, 27, 8 ) ;
#290 = CONICAL_SURFACE ( 'NONE', #681, 1.443375672974064550, 0.7853981633974500554 ) ;
#291 = CC_DESIGN_APPROVAL ( #343, ( #1 ) ) ;
#292 = CARTESIAN_POINT ( 'NONE',  ( -1.249999999999999556, -0.6098713261165001898, 11.93409174481473123 ) ) ;
#293 = CARTESIAN_POINT ( 'NONE',  ( 1.250000000000000000, -0.7216878364870346063, 10.11500000000000199 ) ) ;
#294 = ORIENTED_EDGE ( 'NONE', *, *, #246, .F. ) ;
#295 = ORIENTED_EDGE ( 'NONE', *, *, #597, .F. ) ;
#296 = CC_DESIGN_PERSON_AND_ORGANIZATION_ASSIGNMENT ( #60, #418, ( #668 ) ) ;
#297 = DIRECTION ( 'NONE',  ( 0.000000000000000000, 1.000000000000000000, 0.000000000000000000 ) ) ;
#298 = B_SPLINE_CURVE_WITH_KNOTS ( 'NONE', 3,
 ( #311, #547, #708, #475, #421, #87 ),
 .UNSPECIFIED., .F., .F.,
 ( 4, 2, 4 ),
 ( 0.001601428964651795085, 0.001975450271311187615, 0.002349471577970579927 ),
 .UNSPECIFIED. ) ;
#299 = CIRCLE ( 'NONE', #162, 1.443375672974064550 ) ;
#300 = CC_DESIGN_APPROVAL ( #82, ( #668 ) ) ;
#301 = ORIENTED_EDGE ( 'NONE', *, *, #428, .F. ) ;
#302 = APPROVAL_STATUS ( 'not_yet_approved' ) ;
#303 = EDGE_LOOP ( 'NONE', ( #733, #507 ) ) ;
#304 = CARTESIAN_POINT ( 'NONE',  ( 0.000000000000000000, 1.299602622306101615E-16, -11.50999999999999979 ) ) ;
#305 = COORDINATED_UNIVERSAL_TIME_OFFSET ( 6, 0, .BEHIND. ) ;
#306 = ORIENTED_EDGE ( 'NONE', *, *, #167, .F. ) ;
#307 = CARTESIAN_POINT ( 'NONE',  ( 1.250000000000000000, -0.7216878364870346063, 10.11500000000000199 ) ) ;
#308 = ORIENTED_EDGE ( 'NONE', *, *, #160, .T. ) ;
#309 = DIRECTION ( 'NONE',  ( 1.000000000000000000, 1.224646799147353207E-16, 2.155306621740106302E-32 ) ) ;
#310 = AXIS2_PLACEMENT_3D ( 'NONE', #104, #494, #271 ) ;
#311 = CARTESIAN_POINT ( 'NONE',  ( 1.250000000000000000, -3.799624998846538518E-15, 11.79662432702593655 ) ) ;
#312 = PRODUCT_DEFINITION_SHAPE ( 'NONE', 'NONE',  #709 ) ;
#313 = EDGE_LOOP ( 'NONE', ( #563, #308 ) ) ;
#314 = ADVANCED_FACE ( 'NONE', ( #690 ), #639, .T. ) ;
#315 = B_SPLINE_CURVE_WITH_KNOTS ( 'NONE', 3,
 ( #460, #240, #575, #132, #456, #687, #182, #400, #292, #122 ),
 .UNSPECIFIED., .F., .F.,
 ( 4, 2, 2, 2, 4 ),
 ( 0.0007836423023445218987, 0.001157416549359612575, 0.001531190796374703143, 0.001904965043389794145, 0.002278739290404885147 ),
 .UNSPECIFIED. ) ;
#316 = CARTESIAN_POINT ( 'NONE',  ( -2.872124905886354175E-16, 1.443375672974061663, 10.11500000000000199 ) ) ;
#317 = ORIENTED_EDGE ( 'NONE', *, *, #528, .F. ) ;
#318 = CARTESIAN_POINT ( 'NONE',  ( -3.631563352950423480E-16, -1.443375672974066770, 10.11500000000000199 ) ) ;
#319 = EDGE_CURVE ( 'NONE', #552, #654, #149, .T. ) ;
#320 = DIRECTION ( 'NONE',  ( -0.000000000000000000, -0.000000000000000000, 1.000000000000000000 ) ) ;
#321 = DIRECTION ( 'NONE',  ( 0.000000000000000000, -0.7071067811865441310, 0.7071067811865507924 ) ) ;
#322 = AXIS2_PLACEMENT_3D ( 'NONE', #465, #471, #644 ) ;
#323 = SPHERICAL_SURFACE ( 'NONE', #694, 1.500000000000000888 ) ;
#324 = APPROVAL_PERSON_ORGANIZATION ( #252, #511, #17 ) ;
#325 = ADVANCED_FACE ( 'NONE', ( #123 ), #576, .F. ) ;
#326 = CARTESIAN_POINT ( 'NONE',  ( 0.000000000000000000, 1.299602622306101615E-16, -11.50999999999999979 ) ) ;
#327 = CARTESIAN_POINT ( 'NONE',  ( -2.493664996716660198E-15, 1.443375672974060553, 11.99000000000000021 ) ) ;
#328 = ADVANCED_FACE ( 'NONE', ( #56 ), #169, .F. ) ;
#329 = DIRECTION ( 'NONE',  ( -0.000000000000000000, 1.759941415958229587E-16, -1.000000000000000000 ) ) ;
#330 = DIRECTION ( 'NONE',  ( 0.000000000000000000, -1.759941415958229587E-16, 1.000000000000000000 ) ) ;
#331 = ORIENTED_EDGE ( 'NONE', *, *, #78, .F. ) ;
#332 = DIRECTION ( 'NONE',  ( -0.000000000000000000, 1.759941415958229587E-16, -1.000000000000000000 ) ) ;
#333 = ORIENTED_EDGE ( 'NONE', *, *, #361, .T. ) ;
#334 = AXIS2_PLACEMENT_3D ( 'NONE', #27, #29, #261 ) ;
#335 = CC_DESIGN_APPROVAL ( #511, ( #709 ) ) ;
#336 = DIRECTION ( 'NONE',  ( -0.000000000000000000, -0.000000000000000000, 1.000000000000000000 ) ) ;
#337 = EDGE_CURVE ( 'NONE', #248, #19, #64, .T. ) ;
#338 = DIRECTION ( 'NONE',  ( -0.000000000000000000, 1.759941415958229587E-16, -1.000000000000000000 ) ) ;
#339 = VERTEX_POINT ( 'NONE', #49 ) ;
#340 = APPROVAL_STATUS ( 'not_yet_approved' ) ;
#341 = CARTESIAN_POINT ( 'NONE',  ( 2.514341799441713396E-16, 2.053115887121329752, -11.98999999999999844 ) ) ;
#342 = ORIENTED_EDGE ( 'NONE', *, *, #546, .T. ) ;
#343 = APPROVAL ( #302, 'UNSPECIFIED' ) ;
#344 = FACE_OUTER_BOUND ( 'NONE', #303, .T. ) ;
#345 = DIRECTION ( 'NONE',  ( -0.5000000000000003331, -0.8660254037844385966, 0.000000000000000000 ) ) ;
#346 = ORIENTED_EDGE ( 'NONE', *, *, #125, .T. ) ;
#347 = CARTESIAN_POINT ( 'NONE',  ( 1.250000000000000000, -0.6098828644147131772, 11.93409751396384344 ) ) ;
#348 = LOCAL_TIME ( 12, 39, 0.000000000000000000, #573 ) ;
#349 = DIRECTION ( 'NONE',  ( 1.000000000000000000, 0.000000000000000000, 0.000000000000000000 ) ) ;
#350 = ORIENTED_EDGE ( 'NONE', *, *, #734, .F. ) ;
#351 = EDGE_CURVE ( 'NONE', #587, #491, #126, .T. ) ;
#352 = DIRECTION ( 'NONE',  ( 1.000000000000000000, 0.000000000000000000, 0.000000000000000000 ) ) ;
#353 = ORIENTED_EDGE ( 'NONE', *, *, #384, .T. ) ;
#354 = AXIS2_PLACEMENT_3D ( 'NONE', #536, #464, #223 ) ;
#355 = AXIS2_PLACEMENT_3D ( 'NONE', #81, #237, #473 ) ;
#356 = VERTEX_POINT ( 'NONE', #111 ) ;
#357 = DATE_AND_TIME ( #455, #228 ) ;
#358 = EDGE_CURVE ( 'NONE', #532, #683, #298, .T. ) ;
#359 = FACE_OUTER_BOUND ( 'NONE', #313, .T. ) ;
#360 = PERSON_AND_ORGANIZATION_ROLE ( 'creator' ) ;
#361 = EDGE_CURVE ( 'NONE', #477, #16, #543, .T. ) ;
#362 = ORIENTED_EDGE ( 'NONE', *, *, #673, .T. ) ;
#363 = SPHERICAL_SURFACE ( 'NONE', #420, 1.500000000000001332 ) ;
#364 = B_SPLINE_CURVE_WITH_KNOTS ( 'NONE', 3,
 ( #661, #506, #608, #605, #612, #99, #92, #496 ),
 .UNSPECIFIED., .F., .F.,
 ( 4, 2, 2, 4 ),
 ( 2.544378114056514844E-07, 0.0003729905366538303880, 0.0007457266354962550610, 0.001491198833181105058 ),
 .UNSPECIFIED. ) ;
#365 = CARTESIAN_POINT ( 'NONE',  ( 1.250000000000001110, -0.7216878364870339402, 11.99000000000000021 ) ) ;
#366 = VECTOR ( 'NONE', #338, 1000.000000000000000 ) ;
#367 = DIRECTION ( 'NONE',  ( -0.000000000000000000, 1.759941415958229587E-16, -1.000000000000000000 ) ) ;
#368 = AXIS2_PLACEMENT_3D ( 'NONE', #715, #94, #601 ) ;
#369 = CONICAL_SURFACE ( 'NONE', #247, 2.500000000000005773, 0.9599310885968892482 ) ;
#370 = DIRECTION ( 'NONE',  ( 0.000000000000000000, 0.000000000000000000, 1.000000000000000000 ) ) ;
#371 = DIRECTION ( 'NONE',  ( 1.000000000000000000, 0.000000000000000000, -0.000000000000000000 ) ) ;
#372 = ORIENTED_EDGE ( 'NONE', *, *, #416, .T. ) ;
#373 = DIRECTION ( 'NONE',  ( 0.000000000000000000, 1.000000000000000000, 0.000000000000000000 ) ) ;
#374 = CC_DESIGN_DATE_AND_TIME_ASSIGNMENT ( #588, #630, ( #709 ) ) ;
#375 = ORIENTED_EDGE ( 'NONE', *, *, #462, .F. ) ;
#376 = DIRECTION ( 'NONE',  ( -1.224646799147353207E-16, 1.000000000000000000, 0.000000000000000000 ) ) ;
#377 = LINE ( 'NONE', #381, #127 ) ;
#378 = VERTEX_POINT ( 'NONE', #141 ) ;
#379 = CARTESIAN_POINT ( 'NONE',  ( 2.822987569155287140E-16, -2.110288568297012723, 11.99000000000000021 ) ) ;
#380 = CIRCLE ( 'NONE', #322, 1.443375672974064550 ) ;
#381 = CARTESIAN_POINT ( 'NONE',  ( -2.872124905886354175E-16, 1.443375672974061663, 10.11500000000000199 ) ) ;
#382 = VECTOR ( 'NONE', #109, 1000.000000000000000 ) ;
#383 = ORIENTED_EDGE ( 'NONE', *, *, #574, .T. ) ;
#384 = EDGE_CURVE ( 'NONE', #654, #552, #88, .T. ) ;
#385 = DIRECTION ( 'NONE',  ( -1.000000000000000000, -0.000000000000000000, -0.000000000000000000 ) ) ;
#386 = FACE_OUTER_BOUND ( 'NONE', #65, .T. ) ;
#387 = CARTESIAN_POINT ( 'NONE',  ( 0.000000000000000000, -3.799624998673959418E-15, 11.99000000000000021 ) ) ;
#388 = DIRECTION ( 'NONE',  ( 0.8660254037844384856, -0.5000000000000002220, 0.000000000000000000 ) ) ;
#389 = VERTEX_POINT ( 'NONE', #480 ) ;
#390 = PLANE ( 'NONE',  #707 ) ;
#391 = MANIFOLD_SOLID_BREP ( 'Cut-Extrude2', #47 ) ;
#392 = ADVANCED_FACE ( 'NONE', ( #359, #260 ), #483, .T. ) ;
#393 = SPHERICAL_SURFACE ( 'NONE', #48, 1.500000000000000888 ) ;
#394 = ORIENTED_EDGE ( 'NONE', *, *, #337, .F. ) ;
#395 = VECTOR ( 'NONE', #224, 1000.000000000000000 ) ;
#396 = EDGE_CURVE ( 'NONE', #16, #180, #190, .T. ) ;
#397 = DIRECTION ( 'NONE',  ( 1.224646799147353207E-16, 1.000000000000000000, 0.000000000000000000 ) ) ;
#398 = ORIENTED_EDGE ( 'NONE', *, *, #231, .F. ) ;
#399 =( NAMED_UNIT ( * ) PLANE_ANGLE_UNIT ( ) SI_UNIT ( $, .RADIAN. ) );
#400 = CARTESIAN_POINT ( 'NONE',  ( -1.250000000000000000, -0.4921360860715148222, 11.88502995122097339 ) ) ;
#401 = CARTESIAN_POINT ( 'NONE',  ( 0.000000000000000000, -3.799624998673959418E-15, 11.99000000000000021 ) ) ;
#402 = ORIENTED_EDGE ( 'NONE', *, *, #319, .T. ) ;
#403 = CARTESIAN_POINT ( 'NONE',  ( 1.250000000000000000, -0.2509462730489021021, 11.81631280408042706 ) ) ;
#404 = EDGE_CURVE ( 'NONE', #170, #595, #156, .T. ) ;
#405 = DIRECTION ( 'NONE',  ( 8.659560562354892183E-17, 0.7071067811865441310, 0.7071067811865510144 ) ) ;
#406 = VERTEX_POINT ( 'NONE', #208 ) ;
#407 = AXIS2_PLACEMENT_3D ( 'NONE', #241, #345, #388 ) ;
#408 = ADVANCED_FACE ( 'NONE', ( #486 ), #655, .T. ) ;
#409 = AXIS2_PLACEMENT_3D ( 'NONE', #609, #560, #667 ) ;
#410 = DIRECTION ( 'NONE',  ( 1.003171929053530293E-16, -0.8191520442889962395, -0.5735764363510397201 ) ) ;
#411 = DIRECTION ( 'NONE',  ( -0.000000000000000000, 1.759941415958229587E-16, -1.000000000000000000 ) ) ;
#412 = FACE_OUTER_BOUND ( 'NONE', #204, .T. ) ;
#413 = FACE_OUTER_BOUND ( 'NONE', #618, .T. ) ;
#414 = ORIENTED_EDGE ( 'NONE', *, *, #243, .T. ) ;
#415 = PERSON_AND_ORGANIZATION_ROLE ( 'design_owner' ) ;
#416 = EDGE_CURVE ( 'NONE', #248, #389, #147, .T. ) ;
#417 = ORIENTED_EDGE ( 'NONE', *, *, #358, .T. ) ;
#418 = PERSON_AND_ORGANIZATION_ROLE ( 'classification_officer' ) ;
#419 = VERTEX_POINT ( 'NONE', #84 ) ;
#420 = AXIS2_PLACEMENT_3D ( 'NONE', #326, #443, #36 ) ;
#421 = CARTESIAN_POINT ( 'NONE',  ( 1.250000000000000000, 0.6100260475604405430, 11.93416910553670718 ) ) ;
#422 = DATE_AND_TIME ( #13, #467 ) ;
#423 = DIRECTION ( 'NONE',  ( 0.4999999999999997780, 0.8660254037844388186, 0.000000000000000000 ) ) ;
#424 = EDGE_CURVE ( 'NONE', #679, #31, #692, .T. ) ;
#425 = CARTESIAN_POINT ( 'NONE',  ( 1.053519143052615181, -0.8351261121362154594, 11.87656172435010404 ) ) ;
#426 = DIRECTION ( 'NONE',  ( 0.000000000000000000, 1.000000000000000000, 0.000000000000000000 ) ) ;
#427 = PRODUCT ( '93339A252_NO THREADS_Easy-Adjust Alloy Steel Ball-Tip Set Screw', '93339A252_NO THREADS_Easy-Adjust Alloy Steel Ball-Tip Set Screw', '', ( #181 ) ) ;
#428 = EDGE_CURVE ( 'NONE', #491, #45, #441, .T. ) ;
#429 = CARTESIAN_POINT ( 'NONE',  ( 0.000000000000000000, 1.382411031546206745E-15, -11.54311588712132419 ) ) ;
#430 = CARTESIAN_POINT ( 'NONE',  ( 0.000000000000000000, -3.799624998673959418E-15, 11.99000000000000021 ) ) ;
#431 = VECTOR ( 'NONE', #502, 1000.000000000000000 ) ;
#432 = CARTESIAN_POINT ( 'NONE',  ( 0.000000000000000000, -3.799624998673959418E-15, 11.99000000000000021 ) ) ;
#433 = CARTESIAN_POINT ( 'NONE',  ( 0.000000000000000000, 1.299602622306101615E-16, -11.50999999999999979 ) ) ;
#434 = DIRECTION ( 'NONE',  ( 1.000000000000000000, 0.000000000000000000, -0.000000000000000000 ) ) ;
#435 = EDGE_LOOP ( 'NONE', ( #635, #524 ) ) ;
#436 = FACE_OUTER_BOUND ( 'NONE', #143, .T. ) ;
#437 = CARTESIAN_POINT ( 'NONE',  ( -3.631563352950423480E-16, -1.443375672974066770, 10.11500000000000199 ) ) ;
#438 = FACE_OUTER_BOUND ( 'NONE', #445, .T. ) ;
#439 = FACE_OUTER_BOUND ( 'NONE', #12, .T. ) ;
#440 = AXIS2_PLACEMENT_3D ( 'NONE', #450, #735, #571 ) ;
#441 = CIRCLE ( 'NONE', #259, 1.443375672974064550 ) ;
#442 = CARTESIAN_POINT ( 'NONE',  ( 1.443375672974064550, -3.799624998673959418E-15, 11.99000000000000021 ) ) ;
#443 = DIRECTION ( 'NONE',  ( 1.000000000000000000, 0.000000000000000000, 0.000000000000000000 ) ) ;
#444 = CARTESIAN_POINT ( 'NONE',  ( 0.000000000000000000, -2.759279498082734542E-15, 11.99000000000000021 ) ) ;
#445 = EDGE_LOOP ( 'NONE', ( #219, #689 ) ) ;
#446 = DIRECTION ( 'NONE',  ( -0.000000000000000000, -0.000000000000000000, 1.000000000000000000 ) ) ;
#447 = CARTESIAN_POINT ( 'NONE',  ( 0.000000000000000000, 1.299602622306101615E-16, -11.50999999999999979 ) ) ;
#448 = EDGE_LOOP ( 'NONE', ( #195, #51 ) ) ;
#449 = ADVANCED_FACE ( 'NONE', ( #606 ), #205, .F. ) ;
#450 = CARTESIAN_POINT ( 'NONE',  ( -1.249999999999999778, 0.7216878364870299434, 10.11500000000000199 ) ) ;
#451 = DIRECTION ( 'NONE',  ( 0.000000000000000000, -1.000000000000000000, 0.000000000000000000 ) ) ;
#452 = ORIENTED_EDGE ( 'NONE', *, *, #243, .F. ) ;
#453 = AXIS2_PLACEMENT_3D ( 'NONE', #447, #631, #397 ) ;
#454 = AXIS2_PLACEMENT_3D ( 'NONE', #159, #273, #616 ) ;
#455 = CALENDAR_DATE ( 2026, 27, 8 ) ;
#456 = CARTESIAN_POINT ( 'NONE',  ( -1.249999999999999778, 0.1271651115996595693, 11.79663232927879868 ) ) ;
#457 = FACE_OUTER_BOUND ( 'NONE', #646, .T. ) ;
#458 = ORIENTED_EDGE ( 'NONE', *, *, #519, .T. ) ;
#459 = CARTESIAN_POINT ( 'NONE',  ( 9.757819552369539906E-16, -1.443375672974068546, 11.99000000000000021 ) ) ;
#460 = CARTESIAN_POINT ( 'NONE',  ( -1.249999999999998446, 0.7216878364870308316, 11.99000000000000021 ) ) ;
#461 = CARTESIAN_POINT ( 'NONE',  ( 0.000000000000000000, 1.382411031546206745E-15, -11.54311588712132419 ) ) ;
#462 = EDGE_CURVE ( 'NONE', #679, #378, #200, .T. ) ;
#463 = EDGE_LOOP ( 'NONE', ( #3, #647, #245 ) ) ;
#464 = DIRECTION ( 'NONE',  ( -0.000000000000000000, -0.000000000000000000, 1.000000000000000000 ) ) ;
#465 = CARTESIAN_POINT ( 'NONE',  ( 0.000000000000000000, -3.799624998673959418E-15, 11.99000000000000021 ) ) ;
#466 = VECTOR ( 'NONE', #405, 999.9999999999998863 ) ;
#467 = LOCAL_TIME ( 12, 39, 0.000000000000000000, #706 ) ;
#468 = CARTESIAN_POINT ( 'NONE',  ( 9.757819552369539906E-16, -1.443375672974068546, 11.99000000000000021 ) ) ;
#469 = ORIENTED_EDGE ( 'NONE', *, *, #546, .F. ) ;
#470 = PERSON_AND_ORGANIZATION ( #620, #669 ) ;
#471 = DIRECTION ( 'NONE',  ( 0.000000000000000000, 0.000000000000000000, 1.000000000000000000 ) ) ;
#472 = ORIENTED_EDGE ( 'NONE', *, *, #144, .F. ) ;
#473 = DIRECTION ( 'NONE',  ( 1.000000000000000000, 0.000000000000000000, 0.000000000000000000 ) ) ;
#474 = ORIENTED_EDGE ( 'NONE', *, *, #659, .F. ) ;
#475 = CARTESIAN_POINT ( 'NONE',  ( 1.250000000000000000, 0.4925713333550508222, 11.88516395295339656 ) ) ;
#476 = APPROVAL_ROLE ( '' ) ;
#477 = VERTEX_POINT ( 'NONE', #153 ) ;
#478 = AXIS2_PLACEMENT_3D ( 'NONE', #429, #93, #684 ) ;
#479 = VECTOR ( 'NONE', #225, 1000.000000000000000 ) ;
#480 = CARTESIAN_POINT ( 'NONE',  ( 1.250000000000000000, 0.7216878364870297213, 10.11500000000000199 ) ) ;
#481 = EDGE_CURVE ( 'NONE', #137, #419, #566, .T. ) ;
#482 = APPROVAL_DATE_TIME ( #533, #343 ) ;
#483 = PLANE ( 'NONE',  #504 ) ;
#484 = ADVANCED_FACE ( 'NONE', ( #604 ), #555, .F. ) ;
#485 = DIRECTION ( 'NONE',  ( 1.000000000000000000, 0.000000000000000000, 0.000000000000000000 ) ) ;
#486 = FACE_OUTER_BOUND ( 'NONE', #242, .T. ) ;
#487 = CARTESIAN_POINT ( 'NONE',  ( -3.631563352950423480E-16, -1.443375672974066770, 10.11500000000000199 ) ) ;
#488 = DIRECTION ( 'NONE',  ( 0.000000000000000000, 1.000000000000000000, 1.759941415958229587E-16 ) ) ;
#489 = AXIS2_PLACEMENT_3D ( 'NONE', #387, #155, #211 ) ;
#490 = AXIS2_PLACEMENT_3D ( 'NONE', #265, #423, #653 ) ;
#491 = VERTEX_POINT ( 'NONE', #145 ) ;
#492 = DIRECTION ( 'NONE',  ( -0.000000000000000000, 1.759941415958229587E-16, -1.000000000000000000 ) ) ;
#493 = ADVANCED_FACE ( 'NONE', ( #721 ), #363, .T. ) ;
#494 = DIRECTION ( 'NONE',  ( -0.4999999999999998890, 0.8660254037844387076, 0.000000000000000000 ) ) ;
#495 = APPLICATION_CONTEXT ( 'configuration controlled 3d designs of mechanical parts and assemblies' ) ;
#496 = CARTESIAN_POINT ( 'NONE',  ( -1.249999999999998446, 0.7216878364870308316, 11.99000000000000021 ) ) ;
#497 = EDGE_LOOP ( 'NONE', ( #383, #693, #394, #701 ) ) ;
#498 = CARTESIAN_POINT ( 'NONE',  ( 1.250000000000000000, -0.7216878364870346063, 10.11500000000000199 ) ) ;
#499 = DIRECTION ( 'NONE',  ( 0.000000000000000000, 1.000000000000000000, 0.000000000000000000 ) ) ;
#500 = EDGE_CURVE ( 'NONE', #629, #191, #103, .T. ) ;
#501 = CARTESIAN_POINT ( 'NONE',  ( 1.250000000000000000, 0.7216878364870297213, 10.11500000000000199 ) ) ;
#502 = DIRECTION ( 'NONE',  ( 0.000000000000000000, 0.8191520442889964615, -0.5735764363510394981 ) ) ;
#503 = DIRECTION ( 'NONE',  ( 0.000000000000000000, 1.000000000000000000, 0.000000000000000000 ) ) ;
#504 = AXIS2_PLACEMENT_3D ( 'NONE', #254, #367, #488 ) ;
#505 = LOCAL_TIME ( 12, 39, 0.000000000000000000, #593 ) ;
#506 = CARTESIAN_POINT ( 'NONE',  ( -0.09766419351501419432, 1.386989224557980904, 11.93361355158392101 ) ) ;
#507 = ORIENTED_EDGE ( 'NONE', *, *, #86, .F. ) ;
#508 = DESIGN_CONTEXT ( 'detailed design', #142, 'design' ) ;
#509 = CARTESIAN_POINT ( 'NONE',  ( 0.1964808569473846245, 1.329937397324881143, 11.87656172435010227 ) ) ;
#510 = ORIENTED_EDGE ( 'NONE', *, *, #636, .F. ) ;
#511 = APPROVAL ( #685, 'UNSPECIFIED' ) ;
#512 = DIRECTION ( 'NONE',  ( 1.000000000000000000, 0.000000000000000000, 0.000000000000000000 ) ) ;
#513 = DIRECTION ( 'NONE',  ( -0.000000000000000000, -0.000000000000000000, 1.000000000000000000 ) ) ;
#514 = ORIENTED_EDGE ( 'NONE', *, *, #416, .F. ) ;
#515 = CARTESIAN_POINT ( 'NONE',  ( 1.250000000000000000, -0.7216878364870346063, 10.11500000000000199 ) ) ;
#516 = ORIENTED_EDGE ( 'NONE', *, *, #705, .T. ) ;
#517 = AXIS2_PLACEMENT_3D ( 'NONE', #649, #209, #545 ) ;
#518 = CONICAL_SURFACE ( 'NONE', #556, 2.500000000000005773, 0.9599310885968892482 ) ;
#519 = EDGE_CURVE ( 'NONE', #419, #137, #35, .T. ) ;
#520 = CARTESIAN_POINT ( 'NONE',  ( 0.000000000000000000, -3.799624998673959418E-15, 11.99000000000000021 ) ) ;
#521 = CARTESIAN_POINT ( 'NONE',  ( 0.000000000000000000, -3.799624998673959418E-15, 11.99000000000000021 ) ) ;
#522 = ORIENTED_EDGE ( 'NONE', *, *, #256, .F. ) ;
#523 = DIRECTION ( 'NONE',  ( 0.000000000000000000, 0.000000000000000000, -1.000000000000000000 ) ) ;
#524 = ORIENTED_EDGE ( 'NONE', *, *, #500, .T. ) ;
#525 = CARTESIAN_POINT ( 'NONE',  ( 1.250000000000000000, -3.799624998846538518E-15, 11.79662432702593655 ) ) ;
#526 = DATE_AND_TIME ( #289, #348 ) ;
#527 = CARTESIAN_POINT ( 'NONE',  ( 0.000000000000000000, 3.811175229455857855E-17, -10.00999999999999801 ) ) ;
#528 = EDGE_CURVE ( 'NONE', #356, #170, #674, .T. ) ;
#529 = AXIS2_PLACEMENT_3D ( 'NONE', #432, #370, #602 ) ;
#530 = AXIS2_PLACEMENT_3D ( 'NONE', #318, #98, #550 ) ;
#531 = CARTESIAN_POINT ( 'NONE',  ( -1.152335806484988234, -0.7780742849031145880, 11.93361355158391923 ) ) ;
#532 = VERTEX_POINT ( 'NONE', #220 ) ;
#533 = DATE_AND_TIME ( #134, #611 ) ;
#534 = ADVANCED_FACE ( 'NONE', ( #436 ), #168, .F. ) ;
#535 = B_SPLINE_CURVE_WITH_KNOTS ( 'NONE', 3,
 ( #185, #347, #584, #403, #72, #525 ),
 .UNSPECIFIED., .F., .F.,
 ( 4, 2, 4 ),
 ( 0.0008535407158033077573, 0.001227484840227551638, 0.001601428964651795085 ),
 .UNSPECIFIED. ) ;
#536 = CARTESIAN_POINT ( 'NONE',  ( 0.000000000000000000, -3.799624998673959418E-15, 11.99000000000000021 ) ) ;
#537 = CARTESIAN_POINT ( 'NONE',  ( 0.7364247641451127091, 1.018200637156974731, 11.79689518559269779 ) ) ;
#538 = PERSON_AND_ORGANIZATION ( #620, #669 ) ;
#539 = ADVANCED_FACE ( 'NONE', ( #558 ), #63, .F. ) ;
#540 = DIRECTION ( 'NONE',  ( 0.000000000000000000, 1.000000000000000000, 0.000000000000000000 ) ) ;
#541 = ORIENTED_EDGE ( 'NONE', *, *, #734, .T. ) ;
#542 = APPLICATION_PROTOCOL_DEFINITION ( 'international standard', 'config_control_design', 1994, #142 ) ;
#543 = CIRCLE ( 'NONE', #638, 1.500000000000000888 ) ;
#544 = ADVANCED_BREP_SHAPE_REPRESENTATION ( '93339A252_NO THREADS_Easy-Adjust Alloy Steel Ball-Tip Set Screw', ( #391, #628, #355 ), #581 ) ;
#545 = DIRECTION ( 'NONE',  ( 0.000000000000000000, 1.000000000000000000, 0.000000000000000000 ) ) ;
#546 = EDGE_CURVE ( 'NONE', #170, #45, #664, .T. ) ;
#547 = CARTESIAN_POINT ( 'NONE',  ( 1.249999999999999778, 0.1271009718430166358, 11.79662432702593478 ) ) ;
#548 = LINE ( 'NONE', #442, #151 ) ;
#549 = ORIENTED_EDGE ( 'NONE', *, *, #277, .F. ) ;
#550 = DIRECTION ( 'NONE',  ( 0.8660254037844387076, 0.4999999999999999445, 0.000000000000000000 ) ) ;
#551 = B_SPLINE_CURVE_WITH_KNOTS ( 'NONE', 3,
 ( #183, #235, #128, #677, #537, #634, #509, #682 ),
 .UNSPECIFIED., .F., .F.,
 ( 4, 2, 2, 4 ),
 ( 2.544378114024267241E-07, 0.0003729905366538287075, 0.0007457266354962553863, 0.001491198833181108310 ),
 .UNSPECIFIED. ) ;
#552 = VERTEX_POINT ( 'NONE', #379 ) ;
#553 = LINE ( 'NONE', #501, #281 ) ;
#554 = ADVANCED_FACE ( 'NONE', ( #439 ), #600, .F. ) ;
#555 = PLANE ( 'NONE',  #490 ) ;
#556 = AXIS2_PLACEMENT_3D ( 'NONE', #158, #557, #41 ) ;
#557 = DIRECTION ( 'NONE',  ( -0.000000000000000000, 1.759941415958229587E-16, -1.000000000000000000 ) ) ;
#558 = FACE_OUTER_BOUND ( 'NONE', #463, .T. ) ;
#559 = CARTESIAN_POINT ( 'NONE',  ( 0.000000000000000000, 1.461060017385099961E-15, -11.98999999999999844 ) ) ;
#560 = DIRECTION ( 'NONE',  ( -0.000000000000000000, -0.000000000000000000, 1.000000000000000000 ) ) ;
#561 = ADVANCED_FACE ( 'NONE', ( #165 ), #369, .T. ) ;
#562 = CARTESIAN_POINT ( 'NONE',  ( 0.000000000000000000, 2.110288568297007838, 11.99000000000000021 ) ) ;
#563 = ORIENTED_EDGE ( 'NONE', *, *, #424, .T. ) ;
#564 = CIRCLE ( 'NONE', #727, 2.499999999999998668 ) ;
#565 = CC_DESIGN_PERSON_AND_ORGANIZATION_ASSIGNMENT ( #538, #250, ( #1 ) ) ;
#566 = CIRCLE ( 'NONE', #203, 2.500000000000005773 ) ;
#567 = LINE ( 'NONE', #341, #466 ) ;
#568 = ORIENTED_EDGE ( 'NONE', *, *, #358, .F. ) ;
#569 = DIRECTION ( 'NONE',  ( 0.000000000000000000, 0.000000000000000000, 1.000000000000000000 ) ) ;
#570 = ORIENTED_EDGE ( 'NONE', *, *, #202, .F. ) ;
#571 = DIRECTION ( 'NONE',  ( -0.000000000000000000, 0.000000000000000000, 1.000000000000000000 ) ) ;
#572 = EDGE_LOOP ( 'NONE', ( #672, #97 ) ) ;
#573 = COORDINATED_UNIVERSAL_TIME_OFFSET ( 6, 0, .BEHIND. ) ;
#574 = EDGE_CURVE ( 'NONE', #595, #339, #728, .T. ) ;
#575 = CARTESIAN_POINT ( 'NONE',  ( -1.249999999999999778, 0.4925957471270034360, 11.88517410016200238 ) ) ;
#576 = CONICAL_SURFACE ( 'NONE', #740, 1.443375672974064550, 0.7853981633974500554 ) ;
#577 = LINE ( 'NONE', #582, #624 ) ;
#578 = ORIENTED_EDGE ( 'NONE', *, *, #643, .T. ) ;
#579 = AXIS2_PLACEMENT_3D ( 'NONE', #580, #120, #352 ) ;
#580 = CARTESIAN_POINT ( 'NONE',  ( 0.000000000000000000, -3.799624998673959418E-15, 11.99000000000000021 ) ) ;
#581 =( GEOMETRIC_REPRESENTATION_CONTEXT ( 3 ) GLOBAL_UNCERTAINTY_ASSIGNED_CONTEXT ( ( #278 ) ) GLOBAL_UNIT_ASSIGNED_CONTEXT ( ( #96, #399, #196 ) ) REPRESENTATION_CONTEXT ( 'NONE', 'WORKASPACE' ) );
#582 = CARTESIAN_POINT ( 'NONE',  ( 3.061616997868386099E-16, -2.500000000000000888, -10.00999999999999801 ) ) ;
#583 = EDGE_LOOP ( 'NONE', ( #570, #152, #301, #189, #331, #590, #306 ) ) ;
#584 = CARTESIAN_POINT ( 'NONE',  ( 1.250000000000000222, -0.4921603826408942894, 11.88504004684136284 ) ) ;
#585 = EDGE_CURVE ( 'NONE', #180, #16, #77, .T. ) ;
#586 = CARTESIAN_POINT ( 'NONE',  ( 0.000000000000000000, 1.421126313879242042, -11.99000000000000021 ) ) ;
#587 = VERTEX_POINT ( 'NONE', #327 ) ;
#588 = DATE_AND_TIME ( #738, #505 ) ;
#589 = CIRCLE ( 'NONE', #529, 1.443375672974064550 ) ;
#590 = ORIENTED_EDGE ( 'NONE', *, *, #285, .F. ) ;
#591 = VECTOR ( 'NONE', #166, 1000.000000000000114 ) ;
#592 = ORIENTED_EDGE ( 'NONE', *, *, #636, .T. ) ;
#593 = COORDINATED_UNIVERSAL_TIME_OFFSET ( 6, 0, .BEHIND. ) ;
#594 = CARTESIAN_POINT ( 'NONE',  ( -1.249999999999999778, -0.7216878364870347173, 10.11500000000000199 ) ) ;
#595 = VERTEX_POINT ( 'NONE', #487 ) ;
#596 = ORIENTED_EDGE ( 'NONE', *, *, #4, .T. ) ;
#597 = EDGE_CURVE ( 'NONE', #6, #587, #377, .T. ) ;
#598 = DIRECTION ( 'NONE',  ( -0.000000000000000000, 1.759941415958229587E-16, -1.000000000000000000 ) ) ;
#599 = CIRCLE ( 'NONE', #478, 2.499999999999998668 ) ;
#600 = CONICAL_SURFACE ( 'NONE', #409, 1.443375672974064550, 0.7853981633974500554 ) ;
#601 = DIRECTION ( 'NONE',  ( 0.000000000000000000, 1.000000000000000000, 0.000000000000000000 ) ) ;
#602 = DIRECTION ( 'NONE',  ( 1.000000000000000000, 0.000000000000000000, 0.000000000000000000 ) ) ;
#603 = LINE ( 'NONE', #316, #729 ) ;
#604 = FACE_OUTER_BOUND ( 'NONE', #676, .T. ) ;
#605 = CARTESIAN_POINT ( 'NONE',  ( -0.4044126993943270021, 1.209887892115043995, 11.81716943592157598 ) ) ;
#606 = FACE_OUTER_BOUND ( 'NONE', #497, .T. ) ;
#607 = ADVANCED_FACE ( 'NONE', ( #213 ), #14, .F. ) ;
#608 = CARTESIAN_POINT ( 'NONE',  ( -0.1975317408473122593, 1.329330669222370753, 11.88567075922984451 ) ) ;
#609 = CARTESIAN_POINT ( 'NONE',  ( 0.000000000000000000, -3.799624998673959418E-15, 11.99000000000000021 ) ) ;
#610 = AXIS2_PLACEMENT_3D ( 'NONE', #53, #736, #451 ) ;
#611 = LOCAL_TIME ( 12, 39, 0.000000000000000000, #24 ) ;
#612 = CARTESIAN_POINT ( 'NONE',  ( -0.5135752358548877350, 1.146862872304116765, 11.79689518559269779 ) ) ;
#613 = EDGE_LOOP ( 'NONE', ( #112, #522 ) ) ;
#614 = ADVANCED_FACE ( 'NONE', ( #218 ), #323, .F. ) ;
#615 = CARTESIAN_POINT ( 'NONE',  ( 0.000000000000000000, 2.500000000000003109, 11.71712111779506849 ) ) ;
#616 = DIRECTION ( 'NONE',  ( 1.000000000000000000, 0.000000000000000000, 0.000000000000000000 ) ) ;
#617 = DIRECTION ( 'NONE',  ( 0.7071067811865487940, 0.000000000000000000, 0.7071067811865463515 ) ) ;
#618 = EDGE_LOOP ( 'NONE', ( #21, #510 ) ) ;
#619 = ADVANCED_FACE ( 'NONE', ( #663 ), #518, .T. ) ;
#620 = PERSON ( 'UNSPECIFIED', 'UNSPECIFIED', 'UNSPECIFIED', ('UNSPECIFIED'), ('UNSPECIFIED'), ('UNSPECIFIED') ) ;
#621 = DIRECTION ( 'NONE',  ( 1.000000000000000000, 0.000000000000000000, 0.000000000000000000 ) ) ;
#622 = ORIENTED_EDGE ( 'NONE', *, *, #424, .F. ) ;
#623 = CARTESIAN_POINT ( 'NONE',  ( 0.5135752358548870689, -1.146862872304121872, 11.79689518559269423 ) ) ;
#624 = VECTOR ( 'NONE', #5, 1000.000000000000000 ) ;
#625 = AXIS2_PLACEMENT_3D ( 'NONE', #723, #329, #499 ) ;
#626 = CARTESIAN_POINT ( 'NONE',  ( 0.000000000000000000, 1.112591617025370304E-15, -10.00999999999999801 ) ) ;
#627 = FACE_OUTER_BOUND ( 'NONE', #652, .T. ) ;
#628 = MANIFOLD_SOLID_BREP ( 'Revolve2', #210 ) ;
#629 = VERTEX_POINT ( 'NONE', #230 ) ;
#630 = DATE_TIME_ROLE ( 'creation_date' ) ;
#631 = DIRECTION ( 'NONE',  ( 1.000000000000000000, -1.224646799147353207E-16, 0.000000000000000000 ) ) ;
#632 = EDGE_LOOP ( 'NONE', ( #266, #622, #71, #119 ) ) ;
#633 = PERSON_AND_ORGANIZATION ( #620, #669 ) ;
#634 = CARTESIAN_POINT ( 'NONE',  ( 0.4090586785750385812, 1.207205534784410395, 11.79609109402886880 ) ) ;
#635 = ORIENTED_EDGE ( 'NONE', *, *, #216, .F. ) ;
#636 = EDGE_CURVE ( 'NONE', #587, #491, #364, .T. ) ;
#637 = DIRECTION ( 'NONE',  ( 0.000000000000000000, -1.759941415958229587E-16, 1.000000000000000000 ) ) ;
#638 = AXIS2_PLACEMENT_3D ( 'NONE', #433, #309, #376 ) ;
#639 = CYLINDRICAL_SURFACE ( 'NONE', #267, 2.500000000000002220 ) ;
#640 = ORIENTED_EDGE ( 'NONE', *, *, #67, .F. ) ;
#641 = CARTESIAN_POINT ( 'NONE',  ( -2.872124905886354175E-16, 1.443375672974061663, 10.11500000000000199 ) ) ;
#642 = EDGE_LOOP ( 'NONE', ( #342, #140, #131, #737 ) ) ;
#643 = EDGE_CURVE ( 'NONE', #389, #683, #37, .T. ) ;
#644 = DIRECTION ( 'NONE',  ( 1.000000000000000000, 0.000000000000000000, 0.000000000000000000 ) ) ;
#645 = ORIENTED_EDGE ( 'NONE', *, *, #86, .T. ) ;
#646 = EDGE_LOOP ( 'NONE', ( #452, #333, #106 ) ) ;
#647 = ORIENTED_EDGE ( 'NONE', *, *, #157, .F. ) ;
#648 = AXIS2_PLACEMENT_3D ( 'NONE', #521, #569, #621 ) ;
#649 = CARTESIAN_POINT ( 'NONE',  ( 0.000000000000000000, 1.112591617025370304E-15, -10.00999999999999801 ) ) ;
#650 = SHAPE_DEFINITION_REPRESENTATION ( #312, #544 ) ;
#651 = ADVANCED_FACE ( 'NONE', ( #222 ), #658, .T. ) ;
#652 = EDGE_LOOP ( 'NONE', ( #283, #691, #76, #375 ) ) ;
#653 = DIRECTION ( 'NONE',  ( -0.8660254037844388186, 0.4999999999999997780, 0.000000000000000000 ) ) ;
#654 = VERTEX_POINT ( 'NONE', #562 ) ;
#655 = CYLINDRICAL_SURFACE ( 'NONE', #517, 2.500000000000002220 ) ;
#656 = CARTESIAN_POINT ( 'NONE',  ( 0.000000000000000000, 0.000000000000000000, 10.11500000000000199 ) ) ;
#657 = AXIS2_PLACEMENT_3D ( 'NONE', #704, #662, #426 ) ;
#658 = CONICAL_SURFACE ( 'NONE', #164, 2.053115887121328420, 0.7853981633974435050 ) ;
#659 = EDGE_CURVE ( 'NONE', #389, #6, #553, .T. ) ;
#660 = DIRECTION ( 'NONE',  ( 1.000000000000000000, 0.000000000000000000, 0.000000000000000000 ) ) ;
#661 = CARTESIAN_POINT ( 'NONE',  ( -2.493664996716660198E-15, 1.443375672974060553, 11.99000000000000021 ) ) ;
#662 = DIRECTION ( 'NONE',  ( -0.000000000000000000, 1.759941415958229587E-16, -1.000000000000000000 ) ) ;
#663 = FACE_OUTER_BOUND ( 'NONE', #236, .T. ) ;
#664 = LINE ( 'NONE', #725, #395 ) ;
#665 = CARTESIAN_POINT ( 'NONE',  ( 0.000000000000000000, 1.299602622306101615E-16, -11.50999999999999979 ) ) ;
#666 = AXIS2_PLACEMENT_3D ( 'NONE', #498, #275, #523 ) ;
#667 = DIRECTION ( 'NONE',  ( 1.000000000000000000, 0.000000000000000000, 0.000000000000000000 ) ) ;
#668 = SECURITY_CLASSIFICATION ( '', '', #20 ) ;
#669 = ORGANIZATION ( 'UNSPECIFIED', 'UNSPECIFIED', '' ) ;
#670 = PLANE ( 'NONE',  #440 ) ;
#671 = LINE ( 'NONE', #154, #591 ) ;
#672 = ORIENTED_EDGE ( 'NONE', *, *, #202, .T. ) ;
#673 = EDGE_CURVE ( 'NONE', #532, #406, #548, .T. ) ;
#674 = LINE ( 'NONE', #229, #382 ) ;
#675 = DIRECTION ( 'NONE',  ( 1.000000000000000000, 0.000000000000000000, 0.000000000000000000 ) ) ;
#676 = EDGE_LOOP ( 'NONE', ( #578, #9, #295, #474 ) ) ;
#677 = CARTESIAN_POINT ( 'NONE',  ( 0.8455873006056741081, 0.9551756173460467236, 11.81716943592157776 ) ) ;
#678 = CARTESIAN_POINT ( 'NONE',  ( 1.740377791476288591E-16, -1.421126313879240266, -11.99000000000000021 ) ) ;
#679 = VERTEX_POINT ( 'NONE', #44 ) ;
#680 = FACE_BOUND ( 'NONE', #583, .T. ) ;
#681 = AXIS2_PLACEMENT_3D ( 'NONE', #520, #446, #512 ) ;
#682 = CARTESIAN_POINT ( 'NONE',  ( -2.493664996716660198E-15, 1.443375672974060553, 11.99000000000000021 ) ) ;
#683 = VERTEX_POINT ( 'NONE', #268 ) ;
#684 = DIRECTION ( 'NONE',  ( 0.000000000000000000, 1.000000000000000000, 0.000000000000000000 ) ) ;
#685 = APPROVAL_STATUS ( 'not_yet_approved' ) ;
#686 = CARTESIAN_POINT ( 'NONE',  ( 0.000000000000000000, 2.500000000000003109, 11.71712111779506849 ) ) ;
#687 = CARTESIAN_POINT ( 'NONE',  ( -1.250000000000000000, -0.1270077427806577675, 11.79661632972606533 ) ) ;
#688 = DIRECTION ( 'NONE',  ( 0.000000000000000000, 1.000000000000000000, 0.000000000000000000 ) ) ;
#689 = ORIENTED_EDGE ( 'NONE', *, *, #216, .T. ) ;
#690 = FACE_OUTER_BOUND ( 'NONE', #233, .T. ) ;
#691 = ORIENTED_EDGE ( 'NONE', *, *, #264, .T. ) ;
#692 = CIRCLE ( 'NONE', #368, 2.053115887121327976 ) ;
#693 = ORIENTED_EDGE ( 'NONE', *, *, #193, .T. ) ;
#694 = AXIS2_PLACEMENT_3D ( 'NONE', #665, #434, #161 ) ;
#695 = CARTESIAN_POINT ( 'NONE',  ( 0.000000000000000000, 1.461060017385099961E-15, -11.98999999999999844 ) ) ;
#696 = CC_DESIGN_PERSON_AND_ORGANIZATION_ASSIGNMENT ( #710, #121, ( #1 ) ) ;
#697 = CARTESIAN_POINT ( 'NONE',  ( 0.000000000000000000, -3.799624998673959418E-15, 11.99000000000000021 ) ) ;
#698 = ORIENTED_EDGE ( 'NONE', *, *, #8, .T. ) ;
#699 = APPLICATION_PROTOCOL_DEFINITION ( 'international standard', 'config_control_design', 1994, #495 ) ;
#700 = CARTESIAN_POINT ( 'NONE',  ( -0.4090586785750384147, -1.207205534784416390, 11.79609109402886524 ) ) ;
#701 = ORIENTED_EDGE ( 'NONE', *, *, #705, .F. ) ;
#702 = APPROVAL_DATE_TIME ( #357, #511 ) ;
#703 = ORIENTED_EDGE ( 'NONE', *, *, #585, .T. ) ;
#704 = CARTESIAN_POINT ( 'NONE',  ( 0.000000000000000000, -2.759279498082734542E-15, 11.99000000000000021 ) ) ;
#705 = EDGE_CURVE ( 'NONE', #595, #248, #671, .T. ) ;
#706 = COORDINATED_UNIVERSAL_TIME_OFFSET ( 6, 0, .BEHIND. ) ;
#707 = AXIS2_PLACEMENT_3D ( 'NONE', #176, #637, #286 ) ;
#708 = CARTESIAN_POINT ( 'NONE',  ( 1.250000000000000222, 0.2506952791092859623, 11.81623447770312652 ) ) ;
#709 = PRODUCT_DEFINITION ( 'UNKNOWN', '', #1, #508 ) ;
#710 = PERSON_AND_ORGANIZATION ( #620, #669 ) ;
#711 = CARTESIAN_POINT ( 'NONE',  ( 0.8409413214249616964, -0.9578579746766856529, 11.79609109402886702 ) ) ;
#712 = DIRECTION ( 'NONE',  ( 0.8660254037844384856, -0.5000000000000002220, 0.000000000000000000 ) ) ;
#713 = ADVANCED_FACE ( 'NONE', ( #386 ), #279, .T. ) ;
#714 = DIRECTION ( 'NONE',  ( 0.000000000000000000, -1.000000000000000000, 0.000000000000000000 ) ) ;
#715 = CARTESIAN_POINT ( 'NONE',  ( 0.000000000000000000, 1.461060017385099961E-15, -11.98999999999999844 ) ) ;
#716 = ORIENTED_EDGE ( 'NONE', *, *, #643, .F. ) ;
#717 = VECTOR ( 'NONE', #410, 1000.000000000000000 ) ;
#718 = VECTOR ( 'NONE', #513, 1000.000000000000000 ) ;
#719 = CC_DESIGN_PERSON_AND_ORGANIZATION_ASSIGNMENT ( #85, #360, ( #709 ) ) ;
#720 = AXIS2_PLACEMENT_3D ( 'NONE', #110, #492, #262 ) ;
#721 = FACE_OUTER_BOUND ( 'NONE', #435, .T. ) ;
#722 = DIRECTION ( 'NONE',  ( 1.000000000000000000, 0.000000000000000000, 0.000000000000000000 ) ) ;
#723 = CARTESIAN_POINT ( 'NONE',  ( 0.000000000000000000, -2.711254413449450131E-15, 11.71712111779506849 ) ) ;
#724 = CARTESIAN_POINT ( 'NONE',  ( 1.250000000000000000, 0.7216878364870297213, 10.11500000000000199 ) ) ;
#725 = CARTESIAN_POINT ( 'NONE',  ( -1.249999999999999778, -0.7216878364870347173, 10.11500000000000199 ) ) ;
#726 = DIRECTION ( 'NONE',  ( -0.8660254037844387076, 0.4999999999999997224, 0.000000000000000000 ) ) ;
#727 = AXIS2_PLACEMENT_3D ( 'NONE', #461, #332, #688 ) ;
#728 = LINE ( 'NONE', #437, #479 ) ;
#729 = VECTOR ( 'NONE', #30, 1000.000000000000114 ) ;
#730 = DIRECTION ( 'NONE',  ( -0.000000000000000000, -0.000000000000000000, 1.000000000000000000 ) ) ;
#731 = DIRECTION ( 'NONE',  ( 1.000000000000000000, 0.000000000000000000, -0.000000000000000000 ) ) ;
#732 = LINE ( 'NONE', #179, #366 ) ;
#733 = ORIENTED_EDGE ( 'NONE', *, *, #428, .T. ) ;
#734 = EDGE_CURVE ( 'NONE', #6, #356, #603, .T. ) ;
#735 = DIRECTION ( 'NONE',  ( -1.000000000000000000, 0.000000000000000000, -0.000000000000000000 ) ) ;
#736 = DIRECTION ( 'NONE',  ( 0.000000000000000000, -1.759941415958229587E-16, 1.000000000000000000 ) ) ;
#737 = ORIENTED_EDGE ( 'NONE', *, *, #404, .F. ) ;
#738 = CALENDAR_DATE ( 2026, 27, 8 ) ;
#739 = DIRECTION ( 'NONE',  ( 1.000000000000000000, 0.000000000000000000, 0.000000000000000000 ) ) ;
#740 = AXIS2_PLACEMENT_3D ( 'NONE', #187, #173, #675 ) ;
ENDSEC;
END-ISO-10303-21;
